0
SECTION
2
HEADER
9
$ACADVER
1
AC1006
9
$INSBASE
10
0.0
20
0.0
30
0.0
9
$EXTMIN
10
0.0
20
0.0
9
$EXTMAX
10
0.0
20
0.0
0
ENDSEC
0
SECTION
2
TABLES
0
TABLE
2
LTYPE
70
1
0
LTYPE
2
CONTINUOUS
70
64
3
Solid line
72
65
73
0
40
0.0
0
ENDTAB
0
TABLE
2
LAYER
70
1
0
LAYER
2
PYDXF
70
64
62
7
6
continuous
0
ENDTAB
0
TABLE
2
STYLE
70
1
0
STYLE
2
STANDARD
70
0
40
0
41
40
50
50
71
0
42
1
3
ARIAL.TTF
4

0
ENDTAB
0
TABLE
2
VIEW
70
0
0
ENDTAB
0
ENDSEC
0
SECTION
2
BLOCKS
0
ENDSEC
0
SECTION
2
ENTITIES
0
ARC
8
drawinglayer
10
0.907713746291
20
0.427762294345
30
0
40
0.427762294345
50
211.501009117
51
301.747992499
0
ARC
8
drawinglayer
10
0.766070304774
20
0.648116515329
30
0
40
0.648116515329
50
210.183206188
51
316.747970279
0
ARC
8
drawinglayer
10
0.907713746291
20
0.62851748629
30
0
40
0.427762294345
50
211.501009117
51
301.747992499
0
ARC
8
drawinglayer
10
0.907713746291
20
2.43517935809
30
0
40
0.427762294345
50
211.501009117
51
301.747992499
0
ARC
8
drawinglayer
10
0.766070304774
20
2.65553357907
30
0
40
0.648116515329
50
210.183206188
51
316.747970279
0
ARC
8
drawinglayer
10
0.766070304774
20
0.848871707273
30
0
40
0.648116515329
50
210.183206188
51
316.747970279
0
ARC
8
drawinglayer
10
-0.427762294345
20
0.907713746291
30
0
40
0.907713746291
50
206.229797402
51
332.919360272
0
ARC
8
drawinglayer
10
-0.648116515329
20
0.766070304774
30
0
40
0.766070304774
50
213.277178282
51
331.751099328
0
ARC
8
drawinglayer
10
-0.427762294345
20
1.10846893824
30
0
40
0.907713746291
50
206.229797402
51
332.919360272
0
ARC
8
drawinglayer
10
-0.427762294345
20
2.91513081003
30
0
40
0.907713746291
50
206.229797402
51
332.919360272
0
ARC
8
drawinglayer
10
-0.648116515329
20
2.77348736852
30
0
40
0.766070304774
50
213.277178282
51
331.751099328
0
ARC
8
drawinglayer
10
-0.648116515329
20
0.966825496719
30
0
40
0.766070304774
50
213.277178282
51
331.751099328
0
ARC
8
drawinglayer
10
-0.824327969073
20
0.772947945698
30
0
40
0.572192753753
50
228.288672514
51
330.432551554
0
ARC
8
drawinglayer
10
-0.824327969073
20
0.572192753753
30
0
40
0.572192753753
50
228.288672514
51
330.432551554
0
ARC
8
drawinglayer
10
0.0833857772184
20
1.0
30
0
40
1.0
50
206.917346756
51
334.467836009
0
ARC
8
drawinglayer
10
-0.178279241212
20
0.987503371393
30
0
40
0.987503371393
50
206.40168474
51
333.845546548
0
ARC
8
drawinglayer
10
0.0833857772184
20
1.20075519194
30
0
40
1.0
50
206.917346756
51
334.467836009
0
ARC
8
drawinglayer
10
0.0833857772184
20
3.00741706374
30
0
40
1.0
50
206.917346756
51
334.467836009
0
ARC
8
drawinglayer
10
-0.178279241212
20
2.99492043513
30
0
40
0.987503371393
50
206.40168474
51
333.845546548
0
ARC
8
drawinglayer
10
-0.178279241212
20
1.18825856334
30
0
40
0.987503371393
50
206.40168474
51
333.845546548
0
ARC
8
drawinglayer
10
0.648116515329
20
-0.766070304774
30
0
40
0.766070304774
50
35.7408968011
51
46.7479890034
0
ARC
8
drawinglayer
10
0.824327969073
20
-0.572192753753
30
0
40
0.572192753753
50
35.5117136831
51
61.7480240799
0
ARC
8
drawinglayer
10
0.648116515329
20
-0.565315112829
30
0
40
0.766070304774
50
35.7408968011
51
46.7479890034
0
ARC
8
drawinglayer
10
0.648116515329
20
1.24134675897
30
0
40
0.766070304774
50
35.7408968011
51
46.7479890034
0
ARC
8
drawinglayer
10
0.824327969073
20
1.43522430999
30
0
40
0.572192753753
50
35.5117136831
51
61.7480240799
0
ARC
8
drawinglayer
10
0.824327969073
20
-0.371437561809
30
0
40
0.572192753753
50
35.5117136831
51
61.7480240799
0
ARC
8
drawinglayer
10
-0.944349545986
20
0.540097096107
30
0
40
0.339341904163
50
243.242870967
51
329.076303157
0
ARC
8
drawinglayer
10
-0.944349545986
20
0.339341904163
30
0
40
0.339341904163
50
243.242870967
51
329.076303157
0
ARC
8
drawinglayer
10
0.572192753753
20
2.83174503281
30
0
40
0.824327969073
50
208.86540326
51
331.748005356
0
ARC
8
drawinglayer
10
0.339341904163
20
2.95176660973
30
0
40
0.944349545986
50
207.776783449
51
334.757065104
0
ARC
8
drawinglayer
10
1.0
20
1.92403128652
30
0
40
0.0833857772184
50
33.9647276362
51
91.7479796414
0
ARC
8
drawinglayer
10
0.987503371393
20
2.18569630495
30
0
40
0.178279241212
50
212.818812046
51
286.748014718
0
ARC
8
drawinglayer
10
-0.766070304774
20
-0.447361323384
30
0
40
0.648116515329
50
123.288847897
51
145.387600872
0
ARC
8
drawinglayer
10
-0.766070304774
20
-0.648116515329
30
0
40
0.648116515329
50
123.288847897
51
145.387600872
0
ARC
8
drawinglayer
10
-1.0
20
2.09080284096
30
0
40
0.0833857772184
50
258.2543652
51
327.800268852
0
ARC
8
drawinglayer
10
-0.987503371393
20
1.82913782253
30
0
40
0.178279241212
50
93.2658594322
51
146.711076083
0
ARC
8
drawinglayer
10
0.944349545986
20
-0.339341904163
30
0
40
0.339341904163
50
34.8814601084
51
76.7480018606
0
ARC
8
drawinglayer
10
1.0
20
-0.0833857772184
30
0
40
0.0833857772184
50
33.9647276362
51
91.7479796414
0
ARC
8
drawinglayer
10
0.987503371393
20
0.178279241212
30
0
40
0.178279241212
50
212.818812046
51
286.748014718
0
ARC
8
drawinglayer
10
0.572192753753
20
0.824327969073
30
0
40
0.824327969073
50
208.86540326
51
331.748005356
0
ARC
8
drawinglayer
10
0.339341904163
20
0.944349545986
30
0
40
0.944349545986
50
207.776783449
51
334.757065104
0
ARC
8
drawinglayer
10
-1.0
20
0.0833857772184
30
0
40
0.0833857772184
50
258.2543652
51
327.800268852
0
ARC
8
drawinglayer
10
-0.987503371393
20
-0.178279241212
30
0
40
0.178279241212
50
93.2658594322
51
146.711076083
0
ARC
8
drawinglayer
10
-0.907713746291
20
-0.427762294345
30
0
40
0.427762294345
50
108.277353665
51
145.89019945
0
ARC
8
drawinglayer
10
-0.572192753753
20
-0.824327969073
30
0
40
0.824327969073
50
138.24304635
51
145.221099337
0
ARC
8
drawinglayer
10
-0.824327969073
20
2.5796098175
30
0
40
0.572192753753
50
228.288672514
51
330.432551554
0
ARC
8
drawinglayer
10
0.987503371393
20
0.379034433157
30
0
40
0.178279241212
50
212.818812046
51
286.748014718
0
ARC
8
drawinglayer
10
-0.907713746291
20
-0.2270071024
30
0
40
0.427762294345
50
108.277353665
51
145.89019945
0
ARC
8
drawinglayer
10
-0.907713746291
20
1.5796547694
30
0
40
0.427762294345
50
108.277353665
51
145.89019945
0
ARC
8
drawinglayer
10
-0.766070304774
20
1.35930054841
30
0
40
0.648116515329
50
123.288847897
51
145.387600872
0
ARC
8
drawinglayer
10
0.944349545986
20
1.66807515958
30
0
40
0.339341904163
50
34.8814601084
51
76.7480018606
0
ARC
8
drawinglayer
10
-1.0
20
0.284140969163
30
0
40
0.0833857772184
50
258.2543652
51
327.800268852
0
ARC
8
drawinglayer
10
-0.987503371393
20
0.0224759507327
30
0
40
0.178279241212
50
93.2658594322
51
146.711076083
0
ARC
8
drawinglayer
10
-0.944349545986
20
2.3467589679
30
0
40
0.339341904163
50
243.242870967
51
329.076303157
0
ARC
8
drawinglayer
10
-0.572192753753
20
1.18308909467
30
0
40
0.824327969073
50
138.24304635
51
145.221099337
0
ARC
8
drawinglayer
10
1.0
20
0.117369414726
30
0
40
0.0833857772184
50
33.9647276362
51
91.7479796414
0
ARC
8
drawinglayer
10
0.572192753753
20
1.02508316102
30
0
40
0.824327969073
50
208.86540326
51
331.748005356
0
ARC
8
drawinglayer
10
0.339341904163
20
1.14510473793
30
0
40
0.944349545986
50
207.776783449
51
334.757065104
0
ARC
8
drawinglayer
10
-0.572192753753
20
-0.623572777128
30
0
40
0.824327969073
50
138.24304635
51
145.221099337
0
ARC
8
drawinglayer
10
0.944349545986
20
-0.138586712218
30
0
40
0.339341904163
50
34.8814601084
51
76.7480018606
0
ARC
8
drawinglayer
10
0.907713746291
20
2.23446911804
30
0
40
0.427762294345
50
211.501009117
51
301.747992499
0
ARC
8
drawinglayer
10
0.907713746291
20
2.0337139261
30
0
40
0.427762294345
50
211.501009117
51
301.747992499
0
ARC
8
drawinglayer
10
0.907713746291
20
1.83295873415
30
0
40
0.427762294345
50
211.501009117
51
301.747992499
0
ARC
8
drawinglayer
10
0.907713746291
20
1.63220354221
30
0
40
0.427762294345
50
211.501009117
51
301.747992499
0
ARC
8
drawinglayer
10
0.907713746291
20
1.43149330217
30
0
40
0.427762294345
50
211.501009117
51
301.747992499
0
ARC
8
drawinglayer
10
0.907713746291
20
1.23073811022
30
0
40
0.427762294345
50
211.501009117
51
301.747992499
0
ARC
8
drawinglayer
10
0.907713746291
20
1.02998291828
30
0
40
0.427762294345
50
211.501009117
51
301.747992499
0
ARC
8
drawinglayer
10
0.907713746291
20
0.829227726333
30
0
40
0.427762294345
50
211.501009117
51
301.747992499
0
ARC
8
drawinglayer
10
0.766070304774
20
2.45482333903
30
0
40
0.648116515329
50
210.183206188
51
316.747970279
0
ARC
8
drawinglayer
10
0.766070304774
20
2.25406814708
30
0
40
0.648116515329
50
210.183206188
51
316.747970279
0
ARC
8
drawinglayer
10
0.766070304774
20
2.05331295514
30
0
40
0.648116515329
50
210.183206188
51
316.747970279
0
ARC
8
drawinglayer
10
0.766070304774
20
1.85255776319
30
0
40
0.648116515329
50
210.183206188
51
316.747970279
0
ARC
8
drawinglayer
10
0.766070304774
20
1.65184752315
30
0
40
0.648116515329
50
210.183206188
51
316.747970279
0
ARC
8
drawinglayer
10
0.766070304774
20
1.45109233121
30
0
40
0.648116515329
50
210.183206188
51
316.747970279
0
ARC
8
drawinglayer
10
0.766070304774
20
1.25033713926
30
0
40
0.648116515329
50
210.183206188
51
316.747970279
0
ARC
8
drawinglayer
10
0.766070304774
20
1.04958194732
30
0
40
0.648116515329
50
210.183206188
51
316.747970279
0
ARC
8
drawinglayer
10
-0.427762294345
20
2.71442056999
30
0
40
0.907713746291
50
206.229797402
51
332.919360272
0
ARC
8
drawinglayer
10
-0.427762294345
20
2.51366537805
30
0
40
0.907713746291
50
206.229797402
51
332.919360272
0
ARC
8
drawinglayer
10
-0.427762294345
20
2.3129101861
30
0
40
0.907713746291
50
206.229797402
51
332.919360272
0
ARC
8
drawinglayer
10
-0.427762294345
20
2.11215499416
30
0
40
0.907713746291
50
206.229797402
51
332.919360272
0
ARC
8
drawinglayer
10
-0.427762294345
20
1.91144475411
30
0
40
0.907713746291
50
206.229797402
51
332.919360272
0
ARC
8
drawinglayer
10
-0.427762294345
20
1.71068956217
30
0
40
0.907713746291
50
206.229797402
51
332.919360272
0
ARC
8
drawinglayer
10
-0.427762294345
20
1.50993437022
30
0
40
0.907713746291
50
206.229797402
51
332.919360272
0
ARC
8
drawinglayer
10
-0.427762294345
20
1.30917917828
30
0
40
0.907713746291
50
206.229797402
51
332.919360272
0
ARC
8
drawinglayer
10
-0.648116515329
20
2.57277712847
30
0
40
0.766070304774
50
213.277178282
51
331.751099328
0
ARC
8
drawinglayer
10
-0.648116515329
20
2.37202193653
30
0
40
0.766070304774
50
213.277178282
51
331.751099328
0
ARC
8
drawinglayer
10
-0.648116515329
20
2.17126674458
30
0
40
0.766070304774
50
213.277178282
51
331.751099328
0
ARC
8
drawinglayer
10
-0.648116515329
20
1.97051155264
30
0
40
0.766070304774
50
213.277178282
51
331.751099328
0
ARC
8
drawinglayer
10
-0.648116515329
20
1.7698013126
30
0
40
0.766070304774
50
213.277178282
51
331.751099328
0
ARC
8
drawinglayer
10
-0.648116515329
20
1.56904612065
30
0
40
0.766070304774
50
213.277178282
51
331.751099328
0
ARC
8
drawinglayer
10
-0.648116515329
20
1.36829092871
30
0
40
0.766070304774
50
213.277178282
51
331.751099328
0
ARC
8
drawinglayer
10
-0.648116515329
20
1.16753573676
30
0
40
0.766070304774
50
213.277178282
51
331.751099328
0
ARC
8
drawinglayer
10
-0.824327969073
20
2.37889957745
30
0
40
0.572192753753
50
228.288672514
51
330.432551554
0
ARC
8
drawinglayer
10
-0.824327969073
20
2.17814438551
30
0
40
0.572192753753
50
228.288672514
51
330.432551554
0
ARC
8
drawinglayer
10
-0.824327969073
20
1.97738919356
30
0
40
0.572192753753
50
228.288672514
51
330.432551554
0
ARC
8
drawinglayer
10
-0.824327969073
20
1.77663400162
30
0
40
0.572192753753
50
228.288672514
51
330.432551554
0
ARC
8
drawinglayer
10
-0.824327969073
20
1.57592376158
30
0
40
0.572192753753
50
228.288672514
51
330.432551554
0
ARC
8
drawinglayer
10
-0.824327969073
20
1.37516856963
30
0
40
0.572192753753
50
228.288672514
51
330.432551554
0
ARC
8
drawinglayer
10
-0.824327969073
20
1.17441337769
30
0
40
0.572192753753
50
228.288672514
51
330.432551554
0
ARC
8
drawinglayer
10
-0.824327969073
20
0.973658185741
30
0
40
0.572192753753
50
228.288672514
51
330.432551554
0
ARC
8
drawinglayer
10
0.0833857772184
20
2.8067068237
30
0
40
1.0
50
206.917346756
51
334.467836009
0
ARC
8
drawinglayer
10
0.0833857772184
20
2.60595163175
30
0
40
1.0
50
206.917346756
51
334.467836009
0
ARC
8
drawinglayer
10
0.0833857772184
20
2.40519643981
30
0
40
1.0
50
206.917346756
51
334.467836009
0
ARC
8
drawinglayer
10
0.0833857772184
20
2.20444124786
30
0
40
1.0
50
206.917346756
51
334.467836009
0
ARC
8
drawinglayer
10
0.0833857772184
20
2.00373100782
30
0
40
1.0
50
206.917346756
51
334.467836009
0
ARC
8
drawinglayer
10
0.0833857772184
20
1.80297581588
30
0
40
1.0
50
206.917346756
51
334.467836009
0
ARC
8
drawinglayer
10
0.0833857772184
20
1.60222062393
30
0
40
1.0
50
206.917346756
51
334.467836009
0
ARC
8
drawinglayer
10
0.0833857772184
20
1.40146543199
30
0
40
1.0
50
206.917346756
51
334.467836009
0
ARC
8
drawinglayer
10
-0.178279241212
20
2.79421019509
30
0
40
0.987503371393
50
206.40168474
51
333.845546548
0
ARC
8
drawinglayer
10
-0.178279241212
20
2.59345500315
30
0
40
0.987503371393
50
206.40168474
51
333.845546548
0
ARC
8
drawinglayer
10
-0.178279241212
20
2.3926998112
30
0
40
0.987503371393
50
206.40168474
51
333.845546548
0
ARC
8
drawinglayer
10
-0.178279241212
20
2.19194461926
30
0
40
0.987503371393
50
206.40168474
51
333.845546548
0
ARC
8
drawinglayer
10
-0.178279241212
20
1.99123437921
30
0
40
0.987503371393
50
206.40168474
51
333.845546548
0
ARC
8
drawinglayer
10
-0.178279241212
20
1.79047918727
30
0
40
0.987503371393
50
206.40168474
51
333.845546548
0
ARC
8
drawinglayer
10
-0.178279241212
20
1.58972399533
30
0
40
0.987503371393
50
206.40168474
51
333.845546548
0
ARC
8
drawinglayer
10
-0.178279241212
20
1.38896880338
30
0
40
0.987503371393
50
206.40168474
51
333.845546548
0
ARC
8
drawinglayer
10
0.648116515329
20
1.04063651892
30
0
40
0.766070304774
50
35.7408968011
51
46.7479890034
0
ARC
8
drawinglayer
10
0.648116515329
20
0.83988132698
30
0
40
0.766070304774
50
35.7408968011
51
46.7479890034
0
ARC
8
drawinglayer
10
0.648116515329
20
0.639126135036
30
0
40
0.766070304774
50
35.7408968011
51
46.7479890034
0
ARC
8
drawinglayer
10
0.648116515329
20
0.438370943091
30
0
40
0.766070304774
50
35.7408968011
51
46.7479890034
0
ARC
8
drawinglayer
10
0.648116515329
20
0.237660703048
30
0
40
0.766070304774
50
35.7408968011
51
46.7479890034
0
ARC
8
drawinglayer
10
0.648116515329
20
0.0369055111031
30
0
40
0.766070304774
50
35.7408968011
51
46.7479890034
0
ARC
8
drawinglayer
10
0.648116515329
20
-0.163849680841
30
0
40
0.766070304774
50
35.7408968011
51
46.7479890034
0
ARC
8
drawinglayer
10
0.648116515329
20
-0.364604872786
30
0
40
0.766070304774
50
35.7408968011
51
46.7479890034
0
ARC
8
drawinglayer
10
0.824327969073
20
1.23451406995
30
0
40
0.572192753753
50
35.5117136831
51
61.7480240799
0
ARC
8
drawinglayer
10
0.824327969073
20
1.033758878
30
0
40
0.572192753753
50
35.5117136831
51
61.7480240799
0
ARC
8
drawinglayer
10
0.824327969073
20
0.833003686056
30
0
40
0.572192753753
50
35.5117136831
51
61.7480240799
0
ARC
8
drawinglayer
10
0.824327969073
20
0.632248494111
30
0
40
0.572192753753
50
35.5117136831
51
61.7480240799
0
ARC
8
drawinglayer
10
0.824327969073
20
0.431538254068
30
0
40
0.572192753753
50
35.5117136831
51
61.7480240799
0
ARC
8
drawinglayer
10
0.824327969073
20
0.230783062124
30
0
40
0.572192753753
50
35.5117136831
51
61.7480240799
0
ARC
8
drawinglayer
10
0.824327969073
20
0.0300278701789
30
0
40
0.572192753753
50
35.5117136831
51
61.7480240799
0
ARC
8
drawinglayer
10
0.824327969073
20
-0.170727321766
30
0
40
0.572192753753
50
35.5117136831
51
61.7480240799
0
ARC
8
drawinglayer
10
-0.944349545986
20
2.14604872786
30
0
40
0.339341904163
50
243.242870967
51
329.076303157
0
ARC
8
drawinglayer
10
-0.944349545986
20
1.94529353592
30
0
40
0.339341904163
50
243.242870967
51
329.076303157
0
ARC
8
drawinglayer
10
-0.944349545986
20
1.74453834397
30
0
40
0.339341904163
50
243.242870967
51
329.076303157
0
ARC
8
drawinglayer
10
-0.944349545986
20
1.54378315203
30
0
40
0.339341904163
50
243.242870967
51
329.076303157
0
ARC
8
drawinglayer
10
-0.944349545986
20
1.34307291198
30
0
40
0.339341904163
50
243.242870967
51
329.076303157
0
ARC
8
drawinglayer
10
-0.944349545986
20
1.14231772004
30
0
40
0.339341904163
50
243.242870967
51
329.076303157
0
ARC
8
drawinglayer
10
-0.944349545986
20
0.941562528095
30
0
40
0.339341904163
50
243.242870967
51
329.076303157
0
ARC
8
drawinglayer
10
-0.944349545986
20
0.74080733615
30
0
40
0.339341904163
50
243.242870967
51
329.076303157
0
ARC
8
drawinglayer
10
-0.766070304774
20
1.15859030837
30
0
40
0.648116515329
50
123.288847897
51
145.387600872
0
ARC
8
drawinglayer
10
-0.766070304774
20
0.957835116425
30
0
40
0.648116515329
50
123.288847897
51
145.387600872
0
ARC
8
drawinglayer
10
-0.766070304774
20
0.757079924481
30
0
40
0.648116515329
50
123.288847897
51
145.387600872
0
ARC
8
drawinglayer
10
-0.766070304774
20
0.556324732536
30
0
40
0.648116515329
50
123.288847897
51
145.387600872
0
ARC
8
drawinglayer
10
-0.766070304774
20
0.355614492493
30
0
40
0.648116515329
50
123.288847897
51
145.387600872
0
ARC
8
drawinglayer
10
-0.766070304774
20
0.154859300548
30
0
40
0.648116515329
50
123.288847897
51
145.387600872
0
ARC
8
drawinglayer
10
-0.766070304774
20
-0.0458958913962
30
0
40
0.648116515329
50
123.288847897
51
145.387600872
0
ARC
8
drawinglayer
10
-0.766070304774
20
-0.246651083341
30
0
40
0.648116515329
50
123.288847897
51
145.387600872
0
ARC
8
drawinglayer
10
0.987503371393
20
1.98498606491
30
0
40
0.178279241212
50
212.818812046
51
286.748014718
0
ARC
8
drawinglayer
10
0.987503371393
20
1.78423087297
30
0
40
0.178279241212
50
212.818812046
51
286.748014718
0
ARC
8
drawinglayer
10
0.987503371393
20
1.58347568102
30
0
40
0.178279241212
50
212.818812046
51
286.748014718
0
ARC
8
drawinglayer
10
0.987503371393
20
1.38272048908
30
0
40
0.178279241212
50
212.818812046
51
286.748014718
0
ARC
8
drawinglayer
10
0.987503371393
20
1.18201024903
30
0
40
0.178279241212
50
212.818812046
51
286.748014718
0
ARC
8
drawinglayer
10
0.987503371393
20
0.981255057089
30
0
40
0.178279241212
50
212.818812046
51
286.748014718
0
ARC
8
drawinglayer
10
0.987503371393
20
0.780499865144
30
0
40
0.178279241212
50
212.818812046
51
286.748014718
0
ARC
8
drawinglayer
10
0.987503371393
20
0.5797446732
30
0
40
0.178279241212
50
212.818812046
51
286.748014718
0
ARC
8
drawinglayer
10
-0.907713746291
20
1.37894452935
30
0
40
0.427762294345
50
108.277353665
51
145.89019945
0
ARC
8
drawinglayer
10
-0.907713746291
20
1.17818933741
30
0
40
0.427762294345
50
108.277353665
51
145.89019945
0
ARC
8
drawinglayer
10
-0.907713746291
20
0.977434145464
30
0
40
0.427762294345
50
108.277353665
51
145.89019945
0
ARC
8
drawinglayer
10
-0.907713746291
20
0.77667895352
30
0
40
0.427762294345
50
108.277353665
51
145.89019945
0
ARC
8
drawinglayer
10
-0.907713746291
20
0.575968713477
30
0
40
0.427762294345
50
108.277353665
51
145.89019945
0
ARC
8
drawinglayer
10
-0.907713746291
20
0.375213521532
30
0
40
0.427762294345
50
108.277353665
51
145.89019945
0
ARC
8
drawinglayer
10
-0.907713746291
20
0.174458329587
30
0
40
0.427762294345
50
108.277353665
51
145.89019945
0
ARC
8
drawinglayer
10
-0.907713746291
20
-0.0262968623573
30
0
40
0.427762294345
50
108.277353665
51
145.89019945
0
ARC
8
drawinglayer
10
-1.0
20
1.89009260092
30
0
40
0.0833857772184
50
258.2543652
51
327.800268852
0
ARC
8
drawinglayer
10
-1.0
20
1.68933740897
30
0
40
0.0833857772184
50
258.2543652
51
327.800268852
0
ARC
8
drawinglayer
10
-1.0
20
1.48858221703
30
0
40
0.0833857772184
50
258.2543652
51
327.800268852
0
ARC
8
drawinglayer
10
-1.0
20
1.28782702508
30
0
40
0.0833857772184
50
258.2543652
51
327.800268852
0
ARC
8
drawinglayer
10
-1.0
20
1.08711678504
30
0
40
0.0833857772184
50
258.2543652
51
327.800268852
0
ARC
8
drawinglayer
10
-1.0
20
0.886361593095
30
0
40
0.0833857772184
50
258.2543652
51
327.800268852
0
ARC
8
drawinglayer
10
-1.0
20
0.685606401151
30
0
40
0.0833857772184
50
258.2543652
51
327.800268852
0
ARC
8
drawinglayer
10
-1.0
20
0.484851209206
30
0
40
0.0833857772184
50
258.2543652
51
327.800268852
0
ARC
8
drawinglayer
10
-0.987503371393
20
1.62842758249
30
0
40
0.178279241212
50
93.2658594322
51
146.711076083
0
ARC
8
drawinglayer
10
-0.987503371393
20
1.42767239054
30
0
40
0.178279241212
50
93.2658594322
51
146.711076083
0
ARC
8
drawinglayer
10
-0.987503371393
20
1.2269171986
30
0
40
0.178279241212
50
93.2658594322
51
146.711076083
0
ARC
8
drawinglayer
10
-0.987503371393
20
1.02616200665
30
0
40
0.178279241212
50
93.2658594322
51
146.711076083
0
ARC
8
drawinglayer
10
-0.987503371393
20
0.82545176661
30
0
40
0.178279241212
50
93.2658594322
51
146.711076083
0
ARC
8
drawinglayer
10
-0.987503371393
20
0.624696574665
30
0
40
0.178279241212
50
93.2658594322
51
146.711076083
0
ARC
8
drawinglayer
10
-0.987503371393
20
0.42394138272
30
0
40
0.178279241212
50
93.2658594322
51
146.711076083
0
ARC
8
drawinglayer
10
-0.987503371393
20
0.223186190776
30
0
40
0.178279241212
50
93.2658594322
51
146.711076083
0
ARC
8
drawinglayer
10
1.0
20
1.72332104648
30
0
40
0.0833857772184
50
33.9647276362
51
91.7479796414
0
ARC
8
drawinglayer
10
1.0
20
1.52256585454
30
0
40
0.0833857772184
50
33.9647276362
51
91.7479796414
0
ARC
8
drawinglayer
10
1.0
20
1.32181066259
30
0
40
0.0833857772184
50
33.9647276362
51
91.7479796414
0
ARC
8
drawinglayer
10
1.0
20
1.12105547065
30
0
40
0.0833857772184
50
33.9647276362
51
91.7479796414
0
ARC
8
drawinglayer
10
1.0
20
0.920345230603
30
0
40
0.0833857772184
50
33.9647276362
51
91.7479796414
0
ARC
8
drawinglayer
10
1.0
20
0.719590038659
30
0
40
0.0833857772184
50
33.9647276362
51
91.7479796414
0
ARC
8
drawinglayer
10
1.0
20
0.518834846714
30
0
40
0.0833857772184
50
33.9647276362
51
91.7479796414
0
ARC
8
drawinglayer
10
1.0
20
0.318079654769
30
0
40
0.0833857772184
50
33.9647276362
51
91.7479796414
0
ARC
8
drawinglayer
10
0.572192753753
20
2.63103479277
30
0
40
0.824327969073
50
208.86540326
51
331.748005356
0
ARC
8
drawinglayer
10
0.572192753753
20
2.43027960083
30
0
40
0.824327969073
50
208.86540326
51
331.748005356
0
ARC
8
drawinglayer
10
0.572192753753
20
2.22952440888
30
0
40
0.824327969073
50
208.86540326
51
331.748005356
0
ARC
8
drawinglayer
10
0.572192753753
20
2.02876921694
30
0
40
0.824327969073
50
208.86540326
51
331.748005356
0
ARC
8
drawinglayer
10
0.572192753753
20
1.82805897689
30
0
40
0.824327969073
50
208.86540326
51
331.748005356
0
ARC
8
drawinglayer
10
0.572192753753
20
1.62730378495
30
0
40
0.824327969073
50
208.86540326
51
331.748005356
0
ARC
8
drawinglayer
10
0.572192753753
20
1.42654859301
30
0
40
0.824327969073
50
208.86540326
51
331.748005356
0
ARC
8
drawinglayer
10
0.572192753753
20
1.22579340106
30
0
40
0.824327969073
50
208.86540326
51
331.748005356
0
ARC
8
drawinglayer
10
0.339341904163
20
2.75105636968
30
0
40
0.944349545986
50
207.776783449
51
334.757065104
0
ARC
8
drawinglayer
10
0.339341904163
20
2.55030117774
30
0
40
0.944349545986
50
207.776783449
51
334.757065104
0
ARC
8
drawinglayer
10
0.339341904163
20
2.3495459858
30
0
40
0.944349545986
50
207.776783449
51
334.757065104
0
ARC
8
drawinglayer
10
0.339341904163
20
2.14879079385
30
0
40
0.944349545986
50
207.776783449
51
334.757065104
0
ARC
8
drawinglayer
10
0.339341904163
20
1.94808055381
30
0
40
0.944349545986
50
207.776783449
51
334.757065104
0
ARC
8
drawinglayer
10
0.339341904163
20
1.74732536186
30
0
40
0.944349545986
50
207.776783449
51
334.757065104
0
ARC
8
drawinglayer
10
0.339341904163
20
1.54657016992
30
0
40
0.944349545986
50
207.776783449
51
334.757065104
0
ARC
8
drawinglayer
10
0.339341904163
20
1.34581497797
30
0
40
0.944349545986
50
207.776783449
51
334.757065104
0
ARC
8
drawinglayer
10
-0.572192753753
20
0.982378854626
30
0
40
0.824327969073
50
138.24304635
51
145.221099337
0
ARC
8
drawinglayer
10
-0.572192753753
20
0.781623662681
30
0
40
0.824327969073
50
138.24304635
51
145.221099337
0
ARC
8
drawinglayer
10
-0.572192753753
20
0.580868470736
30
0
40
0.824327969073
50
138.24304635
51
145.221099337
0
ARC
8
drawinglayer
10
-0.572192753753
20
0.380113278792
30
0
40
0.824327969073
50
138.24304635
51
145.221099337
0
ARC
8
drawinglayer
10
-0.572192753753
20
0.179403038749
30
0
40
0.824327969073
50
138.24304635
51
145.221099337
0
ARC
8
drawinglayer
10
-0.572192753753
20
-0.0213521531961
30
0
40
0.824327969073
50
138.24304635
51
145.221099337
0
ARC
8
drawinglayer
10
-0.572192753753
20
-0.222107345141
30
0
40
0.824327969073
50
138.24304635
51
145.221099337
0
ARC
8
drawinglayer
10
-0.572192753753
20
-0.422862537085
30
0
40
0.824327969073
50
138.24304635
51
145.221099337
0
ARC
8
drawinglayer
10
0.944349545986
20
1.46736491954
30
0
40
0.339341904163
50
34.8814601084
51
76.7480018606
0
ARC
8
drawinglayer
10
0.944349545986
20
1.26660972759
30
0
40
0.339341904163
50
34.8814601084
51
76.7480018606
0
ARC
8
drawinglayer
10
0.944349545986
20
1.06585453565
30
0
40
0.339341904163
50
34.8814601084
51
76.7480018606
0
ARC
8
drawinglayer
10
0.944349545986
20
0.865099343702
30
0
40
0.339341904163
50
34.8814601084
51
76.7480018606
0
ARC
8
drawinglayer
10
0.944349545986
20
0.664389103659
30
0
40
0.339341904163
50
34.8814601084
51
76.7480018606
0
ARC
8
drawinglayer
10
0.944349545986
20
0.463633911714
30
0
40
0.339341904163
50
34.8814601084
51
76.7480018606
0
ARC
8
drawinglayer
10
0.944349545986
20
0.26287871977
30
0
40
0.339341904163
50
34.8814601084
51
76.7480018606
0
ARC
8
drawinglayer
10
0.944349545986
20
0.0621235278252
30
0
40
0.339341904163
50
34.8814601084
51
76.7480018606
0
ENDSEC
0
EOF
