0
SECTION
2
HEADER
9
$ACADVER
1
AC1006
9
$INSBASE
10
0.0
20
0.0
30
0.0
9
$EXTMIN
10
0.0
20
0.0
9
$EXTMAX
10
0.0
20
0.0
0
ENDSEC
0
SECTION
2
TABLES
0
TABLE
2
LTYPE
70
1
0
LTYPE
2
CONTINUOUS
70
64
3
Solid line
72
65
73
0
40
0.0
0
ENDTAB
0
TABLE
2
LAYER
70
1
0
LAYER
2
PYDXF
70
64
62
7
6
continuous
0
ENDTAB
0
TABLE
2
STYLE
70
1
0
STYLE
2
STANDARD
70
0
40
0
41
40
50
50
71
0
42
1
3
ARIAL.TTF
4

0
ENDTAB
0
TABLE
2
VIEW
70
0
0
ENDTAB
0
ENDSEC
0
SECTION
2
BLOCKS
0
ENDSEC
0
SECTION
2
ENTITIES
0
ARC
8
drawinglayer
10
-1.14357730638
20
-1.6410408481
30
0
40
0.86161210722
50
30.0113188498
51
38.9999953314
0
ARC
8
drawinglayer
10
-1.14357730638
20
0.367579932855
30
0
40
0.740921173867
50
30.0113188498
51
38.9999953314
0
ARC
8
drawinglayer
10
-1.14357730638
20
0.16673903604
30
0
40
0.752994503458
50
30.0113188498
51
38.9999953314
0
ARC
8
drawinglayer
10
-1.14357730638
20
-0.0341442233354
30
0
40
0.765067833049
50
30.0113188498
51
38.9999953314
0
ARC
8
drawinglayer
10
-1.14357730638
20
-0.234942757591
30
0
40
0.77709880008
50
30.0113188498
51
38.9999953314
0
ARC
8
drawinglayer
10
-1.14357730638
20
-0.435826016966
30
0
40
0.789172129672
50
30.0113188498
51
38.9999953314
0
ARC
8
drawinglayer
10
-1.14357730638
20
-0.636709276342
30
0
40
0.801245459263
50
30.0113188498
51
38.9999953314
0
ARC
8
drawinglayer
10
-1.14357730638
20
-0.837550173157
30
0
40
0.813318788854
50
30.0113188498
51
38.9999953314
0
ARC
8
drawinglayer
10
-1.14357730638
20
-1.03843343253
30
0
40
0.825392118446
50
30.0113188498
51
38.9999953314
0
ARC
8
drawinglayer
10
-1.14357730638
20
-1.23931669191
30
0
40
0.837465448037
50
30.0113188498
51
38.9999953314
0
ARC
8
drawinglayer
10
-1.14357730638
20
-1.44015758872
30
0
40
0.849538777628
50
30.0113188498
51
38.9999953314
0
ARC
8
drawinglayer
10
-0.595575230611
20
-0.69512724654
30
0
40
0.148904398293
50
210.01131885
51
290.999991811
0
ARC
8
drawinglayer
10
-0.66602416784
20
-0.474079408619
30
0
40
0.385033307563
50
210.01131885
51
306.000026888
0
ARC
8
drawinglayer
10
-0.595575230611
20
1.31349353441
30
0
40
0.269595331646
50
210.01131885
51
290.999991811
0
ARC
8
drawinglayer
10
-0.595575230611
20
1.1126526376
30
0
40
0.257522002055
50
210.01131885
51
290.999991811
0
ARC
8
drawinglayer
10
-0.595575230611
20
0.911769378224
30
0
40
0.245448672463
50
210.01131885
51
290.999991811
0
ARC
8
drawinglayer
10
-0.595575230611
20
0.710886118848
30
0
40
0.233375342872
50
210.01131885
51
290.999991811
0
ARC
8
drawinglayer
10
-0.595575230611
20
0.510045222033
30
0
40
0.221302013281
50
210.01131885
51
290.999991811
0
ARC
8
drawinglayer
10
-0.595575230611
20
0.309204325217
30
0
40
0.209271046249
50
210.01131885
51
290.999991811
0
ARC
8
drawinglayer
10
-0.595575230611
20
0.108321065842
30
0
40
0.197197716658
50
210.01131885
51
290.999991811
0
ARC
8
drawinglayer
10
-0.595575230611
20
-0.0925198309734
30
0
40
0.185124387067
50
210.01131885
51
290.999991811
0
ARC
8
drawinglayer
10
-0.595575230611
20
-0.293403090349
30
0
40
0.173051057475
50
210.01131885
51
290.999991811
0
ARC
8
drawinglayer
10
-0.595575230611
20
-0.494243987164
30
0
40
0.160977727884
50
210.01131885
51
290.999991811
0
ARC
8
drawinglayer
10
-0.66602416784
20
1.53454137234
30
0
40
0.505724240916
50
210.01131885
51
307.000010128
0
ARC
8
drawinglayer
10
-0.66602416784
20
1.33365811296
30
0
40
0.493650911325
50
210.01131885
51
307.000010128
0
ARC
8
drawinglayer
10
-0.66602416784
20
1.13281721614
30
0
40
0.481577581733
50
210.01131885
51
307.000010128
0
ARC
8
drawinglayer
10
-0.66602416784
20
0.931933956769
30
0
40
0.469504252142
50
210.01131885
51
307.000010128
0
ARC
8
drawinglayer
10
-0.66602416784
20
0.731050697394
30
0
40
0.457430922551
50
210.01131885
51
307.000010128
0
ARC
8
drawinglayer
10
-0.66602416784
20
0.530209800578
30
0
40
0.445357592959
50
210.01131885
51
307.000010128
0
ARC
8
drawinglayer
10
-0.66602416784
20
0.329326541203
30
0
40
0.433284263368
50
210.01131885
51
306.000026888
0
ARC
8
drawinglayer
10
-0.66602416784
20
0.128443281828
30
0
40
0.421210933777
50
210.01131885
51
306.000026888
0
ARC
8
drawinglayer
10
-0.66602416784
20
-0.0723552524279
30
0
40
0.409179966745
50
210.01131885
51
306.000026888
0
ARC
8
drawinglayer
10
-0.66602416784
20
-0.273238511803
30
0
40
0.397106637154
50
210.01131885
51
306.000026888
0
ARC
8
drawinglayer
10
-0.795272338307
20
1.73101892547
30
0
40
0.715630725565
50
210.01131885
51
323.000028444
0
ARC
8
drawinglayer
10
-0.795272338307
20
1.53017802866
30
0
40
0.703557395973
50
210.01131885
51
323.000028444
0
ARC
8
drawinglayer
10
-0.795272338307
20
1.32929476928
30
0
40
0.691484066382
50
210.01131885
51
323.000028444
0
ARC
8
drawinglayer
10
-0.795272338307
20
1.12841150991
30
0
40
0.679410736791
50
210.01131885
51
323.000028444
0
ARC
8
drawinglayer
10
-0.795272338307
20
0.927570613092
30
0
40
0.6673374072
50
210.01131885
51
323.000028444
0
ARC
8
drawinglayer
10
-0.795272338307
20
0.726687353717
30
0
40
0.655264077608
50
210.01131885
51
323.000028444
0
ARC
8
drawinglayer
10
-0.795272338307
20
0.525804094341
30
0
40
0.643190748017
50
210.01131885
51
323.000028444
0
ARC
8
drawinglayer
10
-0.795272338307
20
0.324963197526
30
0
40
0.631117418426
50
210.01131885
51
323.000028444
0
ARC
8
drawinglayer
10
-0.795272338307
20
0.124079938151
30
0
40
0.619044088834
50
210.01131885
51
323.000028444
0
ARC
8
drawinglayer
10
-0.795272338307
20
-0.0768033212247
30
0
40
0.606970759243
50
210.01131885
51
321.999987908
0
ARC
8
drawinglayer
10
-0.795272338307
20
-0.27764421804
30
0
40
0.594897429652
50
210.01131885
51
321.999987908
0
ARC
8
drawinglayer
10
-0.646071402095
20
-1.14997405293
30
0
40
0.336994164557
50
30.0113188498
51
80.9999789541
0
ARC
8
drawinglayer
10
-0.588797221016
20
-0.925621935334
30
0
40
0.0973491628099
50
30.0113188498
51
96.0000140306
0
ARC
8
drawinglayer
10
-0.646071402095
20
0.858689090582
30
0
40
0.216303231204
50
30.0113188498
51
80.9999789541
0
ARC
8
drawinglayer
10
-0.646071402095
20
0.657805831206
30
0
40
0.228376560796
50
30.0113188498
51
80.9999789541
0
ARC
8
drawinglayer
10
-0.646071402095
20
0.456922571831
30
0
40
0.240449890387
50
30.0113188498
51
80.9999789541
0
ARC
8
drawinglayer
10
-0.646071402095
20
0.256081675016
30
0
40
0.252523219978
50
30.0113188498
51
80.9999789541
0
ARC
8
drawinglayer
10
-0.646071402095
20
0.0551984156403
30
0
40
0.264596549569
50
30.0113188498
51
80.9999789541
0
ARC
8
drawinglayer
10
-0.646071402095
20
-0.145684843735
30
0
40
0.276669879161
50
30.0113188498
51
80.9999789541
0
ARC
8
drawinglayer
10
-0.646071402095
20
-0.346483377991
30
0
40
0.288700846192
50
30.0113188498
51
80.9999789541
0
ARC
8
drawinglayer
10
-0.646071402095
20
-0.547366637366
30
0
40
0.300774175783
50
30.0113188498
51
80.9999789541
0
ARC
8
drawinglayer
10
-0.646071402095
20
-0.748207534181
30
0
40
0.312847505375
50
30.0113188498
51
80.9999789541
0
ARC
8
drawinglayer
10
-0.646071402095
20
-0.949090793557
30
0
40
0.324920834966
50
30.0113188498
51
80.9999789541
0
ARC
8
drawinglayer
10
-0.588797221016
20
1.08299884562
30
0
40
0.0233417705432
50
210.01131885
51
276.000014031
0
ARC
8
drawinglayer
10
-0.588797221016
20
0.882115586245
30
0
40
0.0112684409519
50
210.01131885
51
276.000014031
0
ARC
8
drawinglayer
10
-0.588797221016
20
0.681274689429
30
0
40
0.00080488863942
50
30.0113188498
51
96.0000140306
0
ARC
8
drawinglayer
10
-0.588797221016
20
0.480391430054
30
0
40
0.0128782182307
50
30.0113188498
51
96.0000140306
0
ARC
8
drawinglayer
10
-0.588797221016
20
0.279508170679
30
0
40
0.024951547822
50
30.0113188498
51
96.0000140306
0
ARC
8
drawinglayer
10
-0.588797221016
20
0.0786672738634
30
0
40
0.0370248774133
50
30.0113188498
51
96.0000140306
0
ARC
8
drawinglayer
10
-0.588797221016
20
-0.122215985512
30
0
40
0.0490982070046
50
30.0113188498
51
96.0000140306
0
ARC
8
drawinglayer
10
-0.588797221016
20
-0.323056882327
30
0
40
0.061171536596
50
30.0113188498
51
96.0000140306
0
ARC
8
drawinglayer
10
-0.588797221016
20
-0.523940141703
30
0
40
0.0732448661873
50
30.0113188498
51
96.0000140306
0
ARC
8
drawinglayer
10
-0.588797221016
20
-0.724823401078
30
0
40
0.0853181957786
50
30.0113188498
51
96.0000140306
0
ARC
8
drawinglayer
10
-2.39276447476
20
-1.19492072906
30
0
40
0.385033307563
50
123.976397251
51
150.000025715
0
ARC
8
drawinglayer
10
-2.26347394173
20
-1.3913982822
30
0
40
0.594897429652
50
138.013863232
51
150.000025715
0
ARC
8
drawinglayer
10
-2.39276447476
20
0.813742414454
30
0
40
0.26430001165
50
125.007721282
51
150.000025715
0
ARC
8
drawinglayer
10
-2.39276447476
20
0.612901517639
30
0
40
0.276373341241
50
125.007721282
51
150.000025715
0
ARC
8
drawinglayer
10
-2.39276447476
20
0.412018258263
30
0
40
0.288446670832
50
125.007721282
51
150.000025715
0
ARC
8
drawinglayer
10
-2.39276447476
20
0.211134998888
30
0
40
0.300520000424
50
123.976397251
51
150.000025715
0
ARC
8
drawinglayer
10
-2.39276447476
20
0.0102941020726
30
0
40
0.312593330015
50
123.976397251
51
150.000025715
0
ARC
8
drawinglayer
10
-2.39276447476
20
-0.190589157303
30
0
40
0.324666659606
50
123.976397251
51
150.000025715
0
ARC
8
drawinglayer
10
-2.39276447476
20
-0.391472416678
30
0
40
0.336739989198
50
123.976397251
51
150.000025715
0
ARC
8
drawinglayer
10
-2.39276447476
20
-0.592313313494
30
0
40
0.348813318789
50
123.976397251
51
150.000025715
0
ARC
8
drawinglayer
10
-2.39276447476
20
-0.793196572869
30
0
40
0.36088664838
50
123.976397251
51
150.000025715
0
ARC
8
drawinglayer
10
-2.39276447476
20
-0.994079832244
30
0
40
0.372959977971
50
123.976397251
51
150.000025715
0
ARC
8
drawinglayer
10
-2.26347394173
20
0.617264861316
30
0
40
0.474206496299
50
138.013863232
51
150.000025715
0
ARC
8
drawinglayer
10
-2.26347394173
20
0.41638160194
30
0
40
0.48627982589
50
138.013863232
51
150.000025715
0
ARC
8
drawinglayer
10
-2.26347394173
20
0.215540705125
30
0
40
0.498353155481
50
138.013863232
51
150.000025715
0
ARC
8
drawinglayer
10
-2.26347394173
20
0.0146574457494
30
0
40
0.510426485072
50
138.013863232
51
150.000025715
0
ARC
8
drawinglayer
10
-2.26347394173
20
-0.186183451066
30
0
40
0.522457452104
50
138.013863232
51
150.000025715
0
ARC
8
drawinglayer
10
-2.26347394173
20
-0.387024347881
30
0
40
0.534530781695
50
138.013863232
51
150.000025715
0
ARC
8
drawinglayer
10
-2.26347394173
20
-0.587907607257
30
0
40
0.546604111286
50
138.013863232
51
150.000025715
0
ARC
8
drawinglayer
10
-2.26347394173
20
-0.788790866632
30
0
40
0.558677440878
50
138.013863232
51
150.000025715
0
ARC
8
drawinglayer
10
-2.26347394173
20
-0.989631763447
30
0
40
0.570750770469
50
138.013863232
51
150.000025715
0
ARC
8
drawinglayer
10
-2.26347394173
20
-1.19051502282
30
0
40
0.58282410006
50
138.013863232
51
150.000025715
0
ARC
8
drawinglayer
10
-0.974593054658
20
1.88953962488
30
0
40
0.884953877763
50
210.01131885
51
330.000025715
0
ARC
8
drawinglayer
10
-0.974593054658
20
1.6886563655
30
0
40
0.872880548172
50
210.01131885
51
330.000025715
0
ARC
8
drawinglayer
10
-0.974593054658
20
1.48777310613
30
0
40
0.86080721858
50
210.01131885
51
330.000025715
0
ARC
8
drawinglayer
10
-0.974593054658
20
1.28693220931
30
0
40
0.848733888989
50
210.01131885
51
330.000025715
0
ARC
8
drawinglayer
10
-0.974593054658
20
1.08604894994
30
0
40
0.836660559398
50
210.01131885
51
330.000025715
0
ARC
8
drawinglayer
10
-0.974593054658
20
0.885165690563
30
0
40
0.824587229806
50
210.01131885
51
330.000025715
0
ARC
8
drawinglayer
10
-0.974593054658
20
0.684324793747
30
0
40
0.812513900215
50
210.01131885
51
330.000025715
0
ARC
8
drawinglayer
10
-0.974593054658
20
0.483441534372
30
0
40
0.800440570624
50
210.01131885
51
330.000025715
0
ARC
8
drawinglayer
10
-0.974593054658
20
0.282558274997
30
0
40
0.788367241032
50
210.01131885
51
330.000025715
0
ARC
8
drawinglayer
10
-0.974593054658
20
0.0817173781812
30
0
40
0.776293911441
50
210.01131885
51
330.000025715
0
ARC
8
drawinglayer
10
-0.974593054658
20
-0.119123518634
30
0
40
0.76426294441
50
210.01131885
51
330.000025715
0
ARC
8
drawinglayer
10
-0.933289558688
20
0.488397953888
30
0
40
0.611884816199
50
30.0113188498
51
52.0000066324
0
ARC
8
drawinglayer
10
-0.76358514345
20
0.655899516008
30
0
40
0.432945362888
50
30.0113188498
51
66.0000011733
0
ARC
8
drawinglayer
10
-1.91521133622
20
1.98066149137
30
0
40
0.982303040573
50
212.990699384
51
330.000025715
0
ARC
8
drawinglayer
10
-1.91521133622
20
1.779778232
30
0
40
0.970229710981
50
212.990699384
51
330.000025715
0
ARC
8
drawinglayer
10
-1.91521133622
20
1.57893733518
30
0
40
0.95819874395
50
212.990699384
51
330.000025715
0
ARC
8
drawinglayer
10
-1.91521133622
20
1.37809643837
30
0
40
0.946125414359
50
214.022023416
51
330.000025715
0
ARC
8
drawinglayer
10
-1.91521133622
20
1.17721317899
30
0
40
0.934052084767
50
214.022023416
51
330.000025715
0
ARC
8
drawinglayer
10
-1.91521133622
20
0.976329919617
30
0
40
0.921978755176
50
214.022023416
51
330.000025715
0
ARC
8
drawinglayer
10
-1.91521133622
20
0.775489022802
30
0
40
0.909905425585
50
214.022023416
51
330.000025715
0
ARC
8
drawinglayer
10
-1.91521133622
20
0.574605763426
30
0
40
0.897832095994
50
214.022023416
51
330.000025715
0
ARC
8
drawinglayer
10
-1.91521133622
20
0.373764866611
30
0
40
0.885758766402
50
214.022023416
51
330.000025715
0
ARC
8
drawinglayer
10
-1.91521133622
20
0.172881607236
30
0
40
0.873685436811
50
214.022023416
51
330.000025715
0
ARC
8
drawinglayer
10
-1.91521133622
20
-0.0280016521398
30
0
40
0.86161210722
50
214.022023416
51
330.000025715
0
ARC
8
drawinglayer
10
-2.46999142158
20
1.26528494117
30
0
40
0.218082458723
50
276.016056849
51
330.000025715
0
ARC
8
drawinglayer
10
-2.46999142158
20
1.06440168179
30
0
40
0.206009129132
50
276.016056849
51
330.000025715
0
ARC
8
drawinglayer
10
-2.46999142158
20
0.863560784978
30
0
40
0.19393579954
50
276.016056849
51
330.000025715
0
ARC
8
drawinglayer
10
-2.46999142158
20
0.662677525603
30
0
40
0.181862469949
50
276.016056849
51
330.000025715
0
ARC
8
drawinglayer
10
-2.46999142158
20
0.461836628787
30
0
40
0.169789140358
50
276.016056849
51
330.000025715
0
ARC
8
drawinglayer
10
-2.46999142158
20
0.260953369412
30
0
40
0.157715810766
50
276.016056849
51
330.000025715
0
ARC
8
drawinglayer
10
-2.46999142158
20
0.0600701100367
30
0
40
0.145642481175
50
276.016056849
51
330.000025715
0
ARC
8
drawinglayer
10
-2.46999142158
20
-0.140770786779
30
0
40
0.133569151584
50
276.016056849
51
330.000025715
0
ARC
8
drawinglayer
10
-2.46999142158
20
-0.341654046154
30
0
40
0.121495821993
50
276.016056849
51
330.000025715
0
ARC
8
drawinglayer
10
-2.46999142158
20
-0.542537305529
30
0
40
0.109422492401
50
276.016056849
51
330.000025715
0
ARC
8
drawinglayer
10
-2.46999142158
20
-0.743378202345
30
0
40
0.0973491628099
50
276.016056849
51
330.000025715
0
ARC
8
drawinglayer
10
-1.1917011745
20
1.99930101776
30
0
40
1.00221344376
50
210.01131885
51
330.000025715
0
ARC
8
drawinglayer
10
-1.43181216441
20
2.052804931
30
0
40
1.05940289972
50
210.01131885
51
330.000025715
0
ARC
8
drawinglayer
10
-2.41267487794
20
-0.519068447306
30
0
40
0.336994164557
50
261.004562616
51
330.000025715
0
ARC
8
drawinglayer
10
-0.933289558688
20
-1.52030755219
30
0
40
0.732618112113
50
30.0113188498
51
52.9999898723
0
ARC
8
drawinglayer
10
-0.76358514345
20
-1.35280599007
30
0
40
0.553678658801
50
30.0113188498
51
66.9999844132
0
ARC
8
drawinglayer
10
-1.1917011745
20
-0.00936212575326
30
0
40
0.881522510405
50
210.01131885
51
330.000025715
0
ARC
8
drawinglayer
10
-1.43181216441
20
0.0441417874882
30
0
40
0.938669603804
50
210.01131885
51
330.000025715
0
ARC
8
drawinglayer
10
-1.67857407623
20
0.0377874034928
30
0
40
0.931891594209
50
210.01131885
51
330.000025715
0
ARC
8
drawinglayer
10
-2.12549908391
20
-0.148734948053
30
0
40
0.732618112113
50
230.0075459
51
330.000025715
0
ARC
8
drawinglayer
10
-2.29520349915
20
-0.316236510172
30
0
40
0.553678658801
50
245.993068384
51
330.000025715
0
ARC
8
drawinglayer
10
-2.46321341199
20
-0.973915253699
30
0
40
0.148904398293
50
109.99622705
51
150.000025715
0
ARC
8
drawinglayer
10
-2.41267487794
20
1.48959469621
30
0
40
0.45772746047
50
261.004562616
51
330.000025715
0
ARC
8
drawinglayer
10
-2.41267487794
20
1.28875379939
30
0
40
0.445654130879
50
261.004562616
51
330.000025715
0
ARC
8
drawinglayer
10
-2.41267487794
20
1.08787054002
30
0
40
0.433580801288
50
261.004562616
51
330.000025715
0
ARC
8
drawinglayer
10
-2.41267487794
20
0.887029643201
30
0
40
0.421507471697
50
261.004562616
51
330.000025715
0
ARC
8
drawinglayer
10
-2.41267487794
20
0.686146383826
30
0
40
0.409434142105
50
261.004562616
51
330.000025715
0
ARC
8
drawinglayer
10
-2.41267487794
20
0.485263124451
30
0
40
0.397360812514
50
261.004562616
51
330.000025715
0
ARC
8
drawinglayer
10
-2.41267487794
20
0.284422227635
30
0
40
0.385287482923
50
261.004562616
51
330.000025715
0
ARC
8
drawinglayer
10
-2.41267487794
20
0.0835389682599
30
0
40
0.373214153331
50
261.004562616
51
330.000025715
0
ARC
8
drawinglayer
10
-2.41267487794
20
-0.117344291116
30
0
40
0.36114082374
50
261.004562616
51
330.000025715
0
ARC
8
drawinglayer
10
-2.41267487794
20
-0.318185187931
30
0
40
0.349067494149
50
261.004562616
51
330.000025715
0
ARC
8
drawinglayer
10
-2.46321341199
20
1.03479025237
30
0
40
0.0281711023797
50
111.027551081
51
150.000025715
0
ARC
8
drawinglayer
10
-2.46321341199
20
0.833906993
30
0
40
0.040244431971
50
111.027551081
51
150.000025715
0
ARC
8
drawinglayer
10
-2.46321341199
20
0.633066096184
30
0
40
0.0523177615623
50
109.99622705
51
150.000025715
0
ARC
8
drawinglayer
10
-2.46321341199
20
0.432182836809
30
0
40
0.0643910911536
50
109.99622705
51
150.000025715
0
ARC
8
drawinglayer
10
-2.46321341199
20
0.231299577433
30
0
40
0.0764644207449
50
109.99622705
51
150.000025715
0
ARC
8
drawinglayer
10
-2.46321341199
20
0.0304586806181
30
0
40
0.0885377503363
50
109.99622705
51
150.000025715
0
ARC
8
drawinglayer
10
-2.46321341199
20
-0.170424578757
30
0
40
0.100611079928
50
109.99622705
51
150.000025715
0
ARC
8
drawinglayer
10
-2.46321341199
20
-0.371307838133
30
0
40
0.112684409519
50
109.99622705
51
150.000025715
0
ARC
8
drawinglayer
10
-2.46321341199
20
-0.572148734948
30
0
40
0.12475773911
50
109.99622705
51
150.000025715
0
ARC
8
drawinglayer
10
-2.46321341199
20
-0.773031994323
30
0
40
0.136831068701
50
109.99622705
51
150.000025715
0
ARC
8
drawinglayer
10
-1.67857407623
20
2.04649290957
30
0
40
1.05262489012
50
210.01131885
51
330.000025715
0
ARC
8
drawinglayer
10
-1.67857407623
20
1.84560965019
30
0
40
1.04055156053
50
210.01131885
51
330.000025715
0
ARC
8
drawinglayer
10
-1.67857407623
20
1.64472639082
30
0
40
1.02847823094
50
210.01131885
51
330.000025715
0
ARC
8
drawinglayer
10
-1.67857407623
20
1.443885494
30
0
40
1.01640490135
50
210.01131885
51
330.000025715
0
ARC
8
drawinglayer
10
-1.67857407623
20
1.24300223463
30
0
40
1.00433157176
50
210.01131885
51
330.000025715
0
ARC
8
drawinglayer
10
-1.67857407623
20
1.04211897525
30
0
40
0.992258242166
50
210.01131885
51
330.000025715
0
ARC
8
drawinglayer
10
-1.67857407623
20
0.841278078434
30
0
40
0.980184912574
50
210.01131885
51
330.000025715
0
ARC
8
drawinglayer
10
-1.67857407623
20
0.640394819059
30
0
40
0.968111582983
50
210.01131885
51
330.000025715
0
ARC
8
drawinglayer
10
-1.67857407623
20
0.439511559684
30
0
40
0.956038253392
50
210.01131885
51
330.000025715
0
ARC
8
drawinglayer
10
-1.67857407623
20
0.238670662868
30
0
40
0.9439649238
50
210.01131885
51
330.000025715
0
ARC
8
drawinglayer
10
-1.1917011745
20
1.79841775839
30
0
40
0.990140114167
50
210.01131885
51
330.000025715
0
ARC
8
drawinglayer
10
-1.1917011745
20
1.59753449901
30
0
40
0.978066784576
50
210.01131885
51
330.000025715
0
ARC
8
drawinglayer
10
-1.1917011745
20
1.39669360219
30
0
40
0.965993454984
50
210.01131885
51
330.000025715
0
ARC
8
drawinglayer
10
-1.1917011745
20
1.19581034282
30
0
40
0.953920125393
50
210.01131885
51
330.000025715
0
ARC
8
drawinglayer
10
-1.1917011745
20
0.994927083444
30
0
40
0.941846795802
50
210.01131885
51
330.000025715
0
ARC
8
drawinglayer
10
-1.1917011745
20
0.794086186628
30
0
40
0.929773466211
50
210.01131885
51
330.000025715
0
ARC
8
drawinglayer
10
-1.1917011745
20
0.593202927253
30
0
40
0.917700136619
50
210.01131885
51
330.000025715
0
ARC
8
drawinglayer
10
-1.1917011745
20
0.392319667878
30
0
40
0.905626807028
50
210.01131885
51
330.000025715
0
ARC
8
drawinglayer
10
-1.1917011745
20
0.191478771062
30
0
40
0.893553477437
50
210.01131885
51
330.000025715
0
ARC
8
drawinglayer
10
-1.43181216441
20
1.85196403419
30
0
40
1.04732957013
50
210.01131885
51
330.000025715
0
ARC
8
drawinglayer
10
-1.43181216441
20
1.65108077481
30
0
40
1.03525624053
50
210.01131885
51
330.000025715
0
ARC
8
drawinglayer
10
-1.43181216441
20
1.45019751544
30
0
40
1.02318291094
50
210.01131885
51
330.000025715
0
ARC
8
drawinglayer
10
-1.43181216441
20
1.24935661862
30
0
40
1.01110958135
50
210.01131885
51
330.000025715
0
ARC
8
drawinglayer
10
-1.43181216441
20
1.04847335925
30
0
40
0.999036251761
50
210.01131885
51
330.000025715
0
ARC
8
drawinglayer
10
-1.43181216441
20
0.84759009987
30
0
40
0.986962922169
50
210.01131885
51
330.000025715
0
ARC
8
drawinglayer
10
-1.43181216441
20
0.646749203054
30
0
40
0.974889592578
50
210.01131885
51
330.000025715
0
ARC
8
drawinglayer
10
-1.43181216441
20
0.445865943679
30
0
40
0.962816262987
50
210.01131885
51
330.000025715
0
ARC
8
drawinglayer
10
-1.43181216441
20
0.245025046864
30
0
40
0.950742933395
50
210.01131885
51
330.000025715
0
ARC
8
drawinglayer
10
-2.12549908391
20
1.8598858329
30
0
40
0.853309045466
50
230.0075459
51
330.000025715
0
ARC
8
drawinglayer
10
-2.29520349915
20
1.69238427078
30
0
40
0.674369592154
50
245.993068384
51
330.000025715
0
ARC
8
drawinglayer
10
-0.933289558688
20
0.287514694513
30
0
40
0.623958145791
50
30.0113188498
51
52.9999898723
0
ARC
8
drawinglayer
10
-0.933289558688
20
0.0866314351376
30
0
40
0.636031475382
50
30.0113188498
51
52.9999898723
0
ARC
8
drawinglayer
10
-0.933289558688
20
-0.114209461678
30
0
40
0.648104804973
50
30.0113188498
51
52.9999898723
0
ARC
8
drawinglayer
10
-0.933289558688
20
-0.315092721053
30
0
40
0.660178134565
50
30.0113188498
51
52.9999898723
0
ARC
8
drawinglayer
10
-0.933289558688
20
-0.515933617869
30
0
40
0.672251464156
50
30.0113188498
51
52.9999898723
0
ARC
8
drawinglayer
10
-0.933289558688
20
-0.716816877244
30
0
40
0.684324793747
50
30.0113188498
51
52.9999898723
0
ARC
8
drawinglayer
10
-0.933289558688
20
-0.917700136619
30
0
40
0.696398123339
50
30.0113188498
51
52.9999898723
0
ARC
8
drawinglayer
10
-0.933289558688
20
-1.11854103343
30
0
40
0.70847145293
50
30.0113188498
51
52.9999898723
0
ARC
8
drawinglayer
10
-0.933289558688
20
-1.31942429281
30
0
40
0.720544782521
50
30.0113188498
51
52.9999898723
0
ARC
8
drawinglayer
10
-0.76358514345
20
0.455016256632
30
0
40
0.44501869248
50
30.0113188498
51
66.9999844132
0
ARC
8
drawinglayer
10
-0.76358514345
20
0.254132997257
30
0
40
0.457092022071
50
30.0113188498
51
66.9999844132
0
ARC
8
drawinglayer
10
-0.76358514345
20
0.0532921004416
30
0
40
0.469165351662
50
30.0113188498
51
66.9999844132
0
ARC
8
drawinglayer
10
-0.76358514345
20
-0.147591158934
30
0
40
0.481238681254
50
30.0113188498
51
66.9999844132
0
ARC
8
drawinglayer
10
-0.76358514345
20
-0.348474418309
30
0
40
0.493312010845
50
30.0113188498
51
66.9999844132
0
ARC
8
drawinglayer
10
-0.76358514345
20
-0.549315315124
30
0
40
0.505385340436
50
30.0113188498
51
66.9999844132
0
ARC
8
drawinglayer
10
-0.76358514345
20
-0.7501985745
30
0
40
0.517458670027
50
30.0113188498
51
66.9999844132
0
ARC
8
drawinglayer
10
-0.76358514345
20
-0.951039471315
30
0
40
0.529531999619
50
30.0113188498
51
66.9999844132
0
ARC
8
drawinglayer
10
-0.76358514345
20
-1.15192273069
30
0
40
0.54160532921
50
30.0113188498
51
66.9999844132
0
ARC
8
drawinglayer
10
-2.12549908391
20
1.65904493609
30
0
40
0.841235715874
50
230.0075459
51
330.000025715
0
ARC
8
drawinglayer
10
-2.12549908391
20
1.45816167671
30
0
40
0.829162386283
50
230.0075459
51
330.000025715
0
ARC
8
drawinglayer
10
-2.12549908391
20
1.25727841733
30
0
40
0.817089056692
50
230.0075459
51
330.000025715
0
ARC
8
drawinglayer
10
-2.12549908391
20
1.05643752052
30
0
40
0.8050157271
50
230.0075459
51
330.000025715
0
ARC
8
drawinglayer
10
-2.12549908391
20
0.855554261144
30
0
40
0.792942397509
50
230.0075459
51
330.000025715
0
ARC
8
drawinglayer
10
-2.12549908391
20
0.654713364329
30
0
40
0.780869067918
50
230.0075459
51
330.000025715
0
ARC
8
drawinglayer
10
-2.12549908391
20
0.453830104953
30
0
40
0.768795738326
50
230.0075459
51
330.000025715
0
ARC
8
drawinglayer
10
-2.12549908391
20
0.252989208138
30
0
40
0.756764771295
50
230.0075459
51
330.000025715
0
ARC
8
drawinglayer
10
-2.12549908391
20
0.0521483113225
30
0
40
0.744691441704
50
230.0075459
51
330.000025715
0
ARC
8
drawinglayer
10
-2.29520349915
20
1.49154337397
30
0
40
0.662296262563
50
245.993068384
51
330.000025715
0
ARC
8
drawinglayer
10
-2.29520349915
20
1.29066011459
30
0
40
0.650222932972
50
245.993068384
51
330.000025715
0
ARC
8
drawinglayer
10
-2.29520349915
20
1.08981921778
30
0
40
0.638149603381
50
245.993068384
51
330.000025715
0
ARC
8
drawinglayer
10
-2.29520349915
20
0.8889359584
30
0
40
0.626076273789
50
245.993068384
51
330.000025715
0
ARC
8
drawinglayer
10
-2.29520349915
20
0.688052699025
30
0
40
0.614002944198
50
245.993068384
51
330.000025715
0
ARC
8
drawinglayer
10
-2.29520349915
20
0.487254164769
30
0
40
0.601971977167
50
245.993068384
51
330.000025715
0
ARC
8
drawinglayer
10
-2.29520349915
20
0.286370905394
30
0
40
0.589898647575
50
245.993068384
51
330.000025715
0
ARC
8
drawinglayer
10
-2.29520349915
20
0.0854876460184
30
0
40
0.577825317984
50
245.993068384
51
330.000025715
0
ARC
8
drawinglayer
10
-2.29520349915
20
-0.115353250797
30
0
40
0.565751988393
50
245.993068384
51
330.000025715
0
ENDSEC
0
EOF
