0
SECTION
2
HEADER
9
$ACADVER
1
AC1006
9
$INSBASE
10
0.0
20
0.0
30
0.0
9
$EXTMIN
10
0.0
20
0.0
9
$EXTMAX
10
0.0
20
0.0
0
ENDSEC
0
SECTION
2
TABLES
0
TABLE
2
LTYPE
70
1
0
LTYPE
2
CONTINUOUS
70
64
3
Solid line
72
65
73
0
40
0.0
0
ENDTAB
0
TABLE
2
LAYER
70
1
0
LAYER
2
PYDXF
70
64
62
7
6
continuous
0
ENDTAB
0
TABLE
2
STYLE
70
1
0
STYLE
2
STANDARD
70
0
40
0
41
40
50
50
71
0
42
1
3
ARIAL.TTF
4

0
ENDTAB
0
TABLE
2
VIEW
70
0
0
ENDTAB
0
ENDSEC
0
SECTION
2
BLOCKS
0
ENDSEC
0
SECTION
2
ENTITIES
0
ARC
8
drawinglayer
10
1.01789602759
20
-0.722151443371
30
0
40
0.761744044019
50
34.9960516674
51
89.4120880064
0
ARC
8
drawinglayer
10
0.968254689132
20
-0.786497785405
30
0
40
0.761744044019
50
34.9387558879
51
89.2536651761
0
ARC
8
drawinglayer
10
0.916806298866
20
-0.864000229467
30
0
40
0.808842124385
50
34.9387558879
51
89.0919191905
0
ARC
8
drawinglayer
10
1.0429844082
20
-0.591948102237
30
0
40
0.761744044019
50
35.053347447
51
149.572427312
0
ARC
8
drawinglayer
10
-0.874507901071
20
-0.70676760023
30
0
40
0.761744044019
50
90.114591559
51
146.276716779
0
ARC
8
drawinglayer
10
-0.874507901071
20
-0.850222654597
30
0
40
0.905199098386
50
112.173466672
51
145.873927449
0
ARC
8
drawinglayer
10
-0.874507901071
20
-0.850222654597
30
0
40
0.905199098386
50
90.0866885144
51
90.114591559
0
ARC
8
drawinglayer
10
-0.905858815712
20
-0.572137460232
30
0
40
0.761744044019
50
90.0572957795
51
146.217587534
0
ARC
8
drawinglayer
10
-0.905858815712
20
-0.572137460232
30
0
40
0.761744044019
50
31.5583048967
51
83.303154699
0
ARC
8
drawinglayer
10
-0.905858815712
20
-0.709349102808
30
0
40
0.898955686596
50
108.220057885
51
145.831929642
0
ARC
8
drawinglayer
10
-0.905858815712
20
-0.709349102808
30
0
40
0.898955686596
50
89.9875095201
51
90.0572957795
0
ARC
8
drawinglayer
10
-0.905858815712
20
-0.709349102808
30
0
40
0.898955686596
50
55.2787576151
51
83.3534603934
0
ARC
8
drawinglayer
10
-0.585589956999
20
-0.8064422831
30
0
40
0.962690116909
50
32.6469247074
51
84.3759035788
0
ARC
8
drawinglayer
10
-0.745729166916
20
-0.757900473515
30
0
40
0.930822901752
50
42.6736861222
51
83.8651117044
0
ARC
8
drawinglayer
10
-0.745729166916
20
-0.757900473515
30
0
40
0.930822901752
50
32.3031500303
51
39.7911927507
0
ARC
8
drawinglayer
10
-0.425450747082
20
-0.854984092686
30
0
40
0.994557332065
50
34.9387558879
51
84.8857787207
0
ARC
8
drawinglayer
10
-0.426531153717
20
-0.816902149101
30
0
40
0.761744044019
50
91.5469860469
51
147.102062483
0
ARC
8
drawinglayer
10
-0.426531153717
20
-1.00011234317
30
0
40
0.944954238086
50
91.5469860469
51
146.594536468
0
ARC
8
drawinglayer
10
-0.575856736168
20
-0.780187445771
30
0
40
0.761744044019
50
91.0886198107
51
146.830938854
0
ARC
8
drawinglayer
10
-0.72518231862
20
-0.743482303561
30
0
40
0.761744044019
50
90.6302535746
51
146.555861816
0
ARC
8
drawinglayer
10
-0.760367242645
20
-0.900992205296
30
0
40
0.927906759951
50
136.008510949
51
146.025703969
0
ARC
8
drawinglayer
10
-0.760367242645
20
-0.900992205296
30
0
40
0.927906759951
50
90.5156620156
51
123.192705579
0
ARC
8
drawinglayer
10
-0.646226584218
20
-0.951771317116
30
0
40
0.950623982637
50
90.8594366927
51
138.208955361
0
ARC
8
drawinglayer
10
-0.532085925791
20
-1.00254086782
30
0
40
0.973331644202
50
91.2032113698
51
146.323527431
0
ARC
8
drawinglayer
10
0.919655512823
20
-0.615391970093
30
0
40
0.807780839992
50
95.8441695103
51
149.254894102
0
ARC
8
drawinglayer
10
0.796336178563
20
-0.676688314637
30
0
40
0.853808074844
50
95.4430990537
51
148.934553399
0
ARC
8
drawinglayer
10
0.673007283184
20
-0.737994220303
30
0
40
0.899844870817
50
95.0420285972
51
148.611347906
0
ARC
8
drawinglayer
10
0.549678387804
20
-0.799290564847
30
0
40
0.94587210567
50
148.285277625
51
148.327103544
0
ARC
8
drawinglayer
10
0.549678387804
20
-0.799290564847
30
0
40
0.94587210567
50
101.229972785
51
140.722521208
0
ARC
8
drawinglayer
10
0.387827737289
20
-0.828012171307
30
0
40
0.96735594379
50
120.53865048
51
147.957431175
0
ARC
8
drawinglayer
10
0.387827737289
20
-0.828012171307
30
0
40
0.96735594379
50
100.714310769
51
111.048292153
0
ARC
8
drawinglayer
10
0.225967525654
20
-0.856752900007
30
0
40
0.988849343031
50
100.198648753
51
138.056433996
0
ARC
8
drawinglayer
10
1.01789602759
20
-0.722151443371
30
0
40
0.761744044019
50
34.9960516674
51
89.4120880064
0
ARC
8
drawinglayer
10
0.968254689132
20
-0.786497785405
30
0
40
0.761744044019
50
34.9387558879
51
89.2536651761
0
ARC
8
drawinglayer
10
0.916806298866
20
-0.769804068735
30
0
40
0.714645963653
50
34.7095727699
51
149.499833559
0
ARC
8
drawinglayer
10
1.0429844082
20
-0.591948102237
30
0
40
0.761744044019
50
35.053347447
51
149.572427312
0
ARC
8
drawinglayer
10
-0.874507901071
20
-0.70676760023
30
0
40
0.761744044019
50
90.114591559
51
146.276716779
0
ARC
8
drawinglayer
10
-0.874507901071
20
-0.563312545864
30
0
40
0.618288989652
50
31.2718259991
51
146.683344926
0
ARC
8
drawinglayer
10
-0.905858815712
20
-0.572137460232
30
0
40
0.761744044019
50
90.0572957795
51
146.217587534
0
ARC
8
drawinglayer
10
-0.905858815712
20
-0.572137460232
30
0
40
0.761744044019
50
31.5583048967
51
83.303154699
0
ARC
8
drawinglayer
10
-0.905858815712
20
-0.434925817655
30
0
40
0.624532401443
50
31.2145302196
51
146.606797764
0
ARC
8
drawinglayer
10
-0.585589956999
20
-0.404550137322
30
0
40
0.56079797113
50
31.5583048967
51
147.379144872
0
ARC
8
drawinglayer
10
-0.745729166916
20
-0.419742758049
30
0
40
0.592665186286
50
31.3864175581
51
146.995606924
0
ARC
8
drawinglayer
10
-0.425450747082
20
-0.389357516595
30
0
40
0.528930755974
50
31.7301922352
51
147.757354313
0
ARC
8
drawinglayer
10
-0.426531153717
20
-0.816902149101
30
0
40
0.761744044019
50
91.5469860469
51
147.102062483
0
ARC
8
drawinglayer
10
-0.426531153717
20
-0.633691955034
30
0
40
0.578533849953
50
31.9020795737
51
147.615432667
0
ARC
8
drawinglayer
10
-0.575856736168
20
-0.780187445771
30
0
40
0.761744044019
50
91.0886198107
51
146.830938854
0
ARC
8
drawinglayer
10
-0.72518231862
20
-0.743482303561
30
0
40
0.761744044019
50
90.6302535746
51
146.555861816
0
ARC
8
drawinglayer
10
-0.760367242645
20
-0.568666773433
30
0
40
0.595581328087
50
31.3864175581
51
146.960312724
0
ARC
8
drawinglayer
10
-0.646226584218
20
-0.574011439881
30
0
40
0.572864105402
50
31.5010091171
51
147.234530325
0
ARC
8
drawinglayer
10
-0.532085925791
20
-0.57936566745
30
0
40
0.550156443837
50
31.6156006762
51
147.50611232
0
ARC
8
drawinglayer
10
0.919655512823
20
-0.523327939268
30
0
40
0.715716809167
50
34.7095727699
51
149.501437841
0
ARC
8
drawinglayer
10
0.796336178563
20
-0.492560252987
30
0
40
0.669680013194
50
34.3085023133
51
149.429531638
0
ARC
8
drawinglayer
10
0.673007283184
20
-0.461792566707
30
0
40
0.623643217221
50
33.9647276362
51
149.356536815
0
ARC
8
drawinglayer
10
0.549678387804
20
-0.431034441547
30
0
40
0.577615982369
50
33.6209529591
51
149.282510668
0
ARC
8
drawinglayer
10
-0.254440542976
20
-0.401662678883
30
0
40
0.523423550474
50
32.0166711328
51
148.075288593
0
ARC
8
drawinglayer
10
-0.0951618339186
20
-0.394989016663
30
0
40
0.51828922868
50
32.3031500303
51
148.366694928
0
ARC
8
drawinglayer
10
0.0641168751389
20
-0.388305793322
30
0
40
0.513154906887
50
32.5323331484
51
148.653689488
0
ARC
8
drawinglayer
10
0.549678387804
20
-0.631932708833
30
0
40
0.577615982369
50
33.6209529591
51
149.282510668
0
ARC
8
drawinglayer
10
0.673705244992
20
-0.679069033681
30
0
40
0.6239109286
50
33.9647276362
51
149.356937885
0
ARC
8
drawinglayer
10
0.795255771929
20
-0.724436551208
30
0
40
0.669278446127
50
34.3085023133
51
149.428901384
0
ARC
8
drawinglayer
10
0.0641168751389
20
-0.508536885608
30
0
40
0.513154906887
50
32.5323331484
51
148.653689488
0
ARC
8
drawinglayer
10
-0.0990723322681
20
-0.518604745662
30
0
40
0.518413523249
50
32.3031500303
51
148.359590251
0
ARC
8
drawinglayer
10
-0.262261539675
20
-0.528672605716
30
0
40
0.523672139611
50
32.0166711328
51
148.060850057
0
ARC
8
drawinglayer
10
0.387827737289
20
-0.416788371765
30
0
40
0.556132144249
50
33.277178282
51
149.076417749
0
ARC
8
drawinglayer
10
0.225967525654
20
-0.402542301983
30
0
40
0.534638745007
50
32.8761078255
51
148.866829787
0
ARC
8
drawinglayer
10
0.387827737289
20
-0.590800767758
30
0
40
0.556132144249
50
33.277178282
51
149.076417749
0
ARC
8
drawinglayer
10
0.225967525654
20
-0.549668826683
30
0
40
0.534638745007
50
32.8761078255
51
148.866829787
0
ARC
8
drawinglayer
10
0.272530183263
20
-0.633691955034
30
0
40
0.578533849953
50
33.1052909435
51
148.823284995
0
ARC
8
drawinglayer
10
0.132717915867
20
-0.633691955034
30
0
40
0.578533849953
50
32.8761078255
51
148.588257707
0
ARC
8
drawinglayer
10
-0.00709435152894
20
-0.633691955034
30
0
40
0.578533849953
50
32.5896289279
51
148.34996456
0
ARC
8
drawinglayer
10
-0.146906618925
20
-0.633691955034
30
0
40
0.578533849953
50
32.3604458098
51
148.10846285
0
ARC
8
drawinglayer
10
-0.286718886321
20
-0.633691955034
30
0
40
0.578533849953
50
32.1312626918
51
147.863637984
0
ARC
8
drawinglayer
10
0.125585319855
20
-0.426913598543
30
0
40
0.737277136253
50
33.277178282
51
148.138142063
0
ARC
8
drawinglayer
10
-0.00866237531701
20
-0.391260179606
30
0
40
0.713613362622
50
32.9906993845
51
147.97284374
0
ARC
8
drawinglayer
10
-0.142910070489
20
-0.355597199548
30
0
40
0.689940027871
50
32.6469247074
51
147.805138993
0
ARC
8
drawinglayer
10
-0.277157765662
20
-0.31993421949
30
0
40
0.666266693119
50
32.3604458098
51
147.635027824
0
ARC
8
drawinglayer
10
-0.411395899713
20
-0.284280800553
30
0
40
0.642593358368
50
32.0739669123
51
147.46239564
0
ARC
8
drawinglayer
10
-0.545643594886
20
-0.248617820495
30
0
40
0.618920023616
50
31.7874880147
51
147.287185146
0
ARC
8
drawinglayer
10
-0.679891290058
20
-0.212964401558
30
0
40
0.595256249985
50
31.5010091171
51
147.109396342
0
ARC
8
drawinglayer
10
-0.81413898523
20
-0.1773014215
30
0
40
0.571582915233
50
31.2145302196
51
146.928971933
0
ARC
8
drawinglayer
10
0.259833015028
20
-0.462576578601
30
0
40
0.760950471005
50
39.522418249
51
148.301148556
0
ARC
8
drawinglayer
10
0.361831050217
20
0.337287653486
30
0
40
0.771945759763
50
148.442439948
51
148.498990883
0
ARC
8
drawinglayer
10
0.26305511269
20
0.603641352803
30
0
40
0.769651090804
50
107.131438074
51
131.94028142
0
ARC
8
drawinglayer
10
0.21967630826
20
0.744906910539
30
0
40
0.762002194277
50
107.016846515
51
128.015119453
0
ARC
8
drawinglayer
10
0.176307064951
20
0.886162907154
30
0
40
0.75435329775
50
106.902254956
51
123.120512897
0
ARC
8
drawinglayer
10
0.132928260521
20
1.02742846489
30
0
40
0.746704401223
50
106.730367618
51
118.215650396
0
ARC
8
drawinglayer
10
0.0895494560917
20
1.16869402263
30
0
40
0.739055504696
50
106.615776059
51
112.341343306
0
ARC
8
drawinglayer
10
0.0461802127827
20
1.30995001924
30
0
40
0.731406608169
50
100.714310769
51
148.018279293
0
ARC
8
drawinglayer
10
0.0963952184836
20
0.0638204803985
30
0
40
0.635049634168
50
32.933403605
51
148.370132675
0
ARC
8
drawinglayer
10
0.129084690017
20
0.169843747386
30
0
40
0.660224064863
50
33.047995164
51
148.3562098
0
ARC
8
drawinglayer
10
0.161764600429
20
0.275867014373
30
0
40
0.685408056678
50
33.2198825025
51
148.342344222
0
ARC
8
drawinglayer
10
0.194454071962
20
0.381880720239
30
0
40
0.710592048494
50
33.3344740616
51
148.328535939
0
ARC
8
drawinglayer
10
0.227143543495
20
0.487913548347
30
0
40
0.735766479189
50
33.4490656206
51
148.314784952
0
ARC
8
drawinglayer
10
0.0637057469506
20
-0.042193225468
30
0
40
0.609865642352
50
32.8188120459
51
148.384112845
0
ARC
8
drawinglayer
10
0.129084690017
20
-0.182321009846
30
0
40
0.660224064863
50
33.047995164
51
148.3562098
0
ARC
8
drawinglayer
10
0.194454071962
20
-0.322448794223
30
0
40
0.710592048494
50
33.3344740616
51
148.328535939
0
ARC
8
drawinglayer
10
0.259833015028
20
0.29207311389
30
0
40
0.760950471005
50
39.522418249
51
141.555487251
0
ARC
8
drawinglayer
10
0.259833015028
20
0.141141263167
30
0
40
0.760950471005
50
39.522418249
51
141.555487251
0
ARC
8
drawinglayer
10
0.259833015028
20
-0.00979058755477
30
0
40
0.760950471005
50
39.522418249
51
141.555487251
0
ARC
8
drawinglayer
10
0.259833015028
20
-0.160712877156
30
0
40
0.760950471005
50
39.522418249
51
141.555487251
0
ARC
8
drawinglayer
10
0.259833015028
20
-0.311644727879
30
0
40
0.760950471005
50
39.522418249
51
141.555487251
0
ARC
8
drawinglayer
10
-0.413776618757
20
0.16526397059
30
0
40
0.536264135519
50
31.7874880147
51
147.757468904
0
ARC
8
drawinglayer
10
-0.368017095284
20
0.280456352289
30
0
40
0.554927443046
50
31.9020795737
51
147.786231386
0
ARC
8
drawinglayer
10
-0.322267132931
20
0.395658295109
30
0
40
0.573581189451
50
32.0739669123
51
147.814764684
0
ARC
8
drawinglayer
10
-0.276507609457
20
0.510850676808
30
0
40
0.592244496977
50
32.1885584713
51
147.843183391
0
ARC
8
drawinglayer
10
-0.230757647104
20
0.626052619628
30
0
40
0.610898243383
50
32.3031500303
51
147.871487506
0
ARC
8
drawinglayer
10
-0.18499812363
20
0.741245001327
30
0
40
0.629561550909
50
32.4177415894
51
147.899562438
0
ARC
8
drawinglayer
10
-0.139238600156
20
0.856446944146
30
0
40
0.648215297315
50
32.5896289279
51
147.927522778
0
ARC
8
drawinglayer
10
-0.0934886378032
20
0.971639325845
30
0
40
0.666878604841
50
32.7042204869
51
147.955253935
0
ARC
8
drawinglayer
10
-0.0477291143295
20
1.08683170754
30
0
40
0.685541912368
50
32.8188120459
51
147.982927797
0
ARC
8
drawinglayer
10
-0.00196959085574
20
1.20204321148
30
0
40
0.704195658773
50
32.933403605
51
148.010372475
0
ARC
8
drawinglayer
10
-0.459536142231
20
0.0500715888909
30
0
40
0.517600827993
50
31.6728964557
51
147.728591832
0
ARC
8
drawinglayer
10
-0.748148130442
20
-0.0623385066964
30
0
40
0.583218799075
50
31.3864175581
51
147.018009574
0
ARC
8
drawinglayer
10
-0.682147714534
20
0.0526244081069
30
0
40
0.594854682917
50
31.5010091171
51
147.106416962
0
ARC
8
drawinglayer
10
-0.616156859746
20
0.167596884031
30
0
40
0.606490566759
50
31.6156006762
51
147.1941368
0
ARC
8
drawinglayer
10
-0.550166004957
20
0.282559798834
30
0
40
0.618126450601
50
31.7874880147
51
147.281283681
0
ARC
8
drawinglayer
10
-0.484165589049
20
0.397522713637
30
0
40
0.629762334443
50
31.9020795737
51
147.367743012
0
ARC
8
drawinglayer
10
-0.418174734261
20
0.512485628441
30
0
40
0.641398218285
50
32.0739669123
51
147.45357209
0
ARC
8
drawinglayer
10
-0.352183879473
20
0.627448543244
30
0
40
0.653034102127
50
32.1885584713
51
147.53882821
0
ARC
8
drawinglayer
10
-0.286183463564
20
0.742421019168
30
0
40
0.664669985969
50
32.3604458098
51
147.623454076
0
ARC
8
drawinglayer
10
-0.220192608776
20
0.857383933971
30
0
40
0.676305869811
50
32.4750373689
51
147.707506985
0
ARC
8
drawinglayer
10
-0.577730715817
20
-0.0257194145726
30
0
40
0.535594857073
50
31.5010091171
51
147.464859358
0
ARC
8
drawinglayer
10
-0.695934850524
20
-0.101510418036
30
0
40
0.553588886153
50
31.3864175581
51
147.198376688
0
ARC
8
drawinglayer
10
0.0477673588121
20
1.04534600501
30
0
40
0.700256477062
50
33.047995164
51
148.106858568
0
ARC
8
drawinglayer
10
0.0497560719092
20
0.909405991476
30
0
40
0.688955232443
50
32.9906993845
51
148.141465219
0
ARC
8
drawinglayer
10
0.0517543461269
20
0.773456416827
30
0
40
0.677663548945
50
32.9906993845
51
148.17607187
0
ARC
8
drawinglayer
10
0.053743059224
20
0.637516403298
30
0
40
0.666362304326
50
32.933403605
51
148.21067852
0
ARC
8
drawinglayer
10
0.055731772321
20
0.501576389769
30
0
40
0.655061059707
50
32.933403605
51
148.245342467
0
ARC
8
drawinglayer
10
0.0577300465388
20
0.36563637624
30
0
40
0.643759815088
50
32.8761078255
51
148.280006414
0
ARC
8
drawinglayer
10
0.0597187596358
20
0.22968680159
30
0
40
0.63246813159
50
32.8761078255
51
148.314727656
0
ARC
8
drawinglayer
10
-0.328720889375
20
0.0270006047409
30
0
40
0.540671812143
50
31.9593753532
51
147.895952803
0
ARC
8
drawinglayer
10
-0.19791519764
20
0.00393918171149
30
0
40
0.563733235172
50
32.2458542508
51
148.061021944
0
ARC
8
drawinglayer
10
-0.0670999447845
20
-0.0191318024386
30
0
40
0.586804219323
50
32.5323331484
51
148.223684662
0
ARC
8
drawinglayer
10
0.0200401089012
20
-0.291690669063
30
0
40
0.679833923334
50
32.933403605
51
148.115624822
0
ARC
8
drawinglayer
10
-0.0998467830414
20
-0.206252494855
30
0
40
0.639275649499
50
32.5896289279
51
148.020914899
0
ARC
8
drawinglayer
10
-0.219743236105
20
-0.120814320647
30
0
40
0.598717375664
50
32.3031500303
51
147.924829876
0
ARC
8
drawinglayer
10
-0.833748843702
20
-0.940632611548
30
0
40
0.761744044019
50
31.6728964557
51
146.353321236
0
ARC
8
drawinglayer
10
-0.930622118218
20
-0.986745896487
30
0
40
0.761744044019
50
31.5583048967
51
146.170776882
0
ARC
8
drawinglayer
10
-0.669393179575
20
-0.583562999419
30
0
40
0.761744044019
50
31.9593753532
51
122.756283627
0
ARC
8
drawinglayer
10
-0.789452171689
20
-0.575168335481
30
0
40
0.761744044019
50
31.7874880147
51
115.537817549
0
ARC
8
drawinglayer
10
-0.909501602683
20
-0.566773671542
30
0
40
0.761744044019
50
31.5583048967
51
146.210712041
0
ARC
8
drawinglayer
10
-0.549343748581
20
-0.591948102237
30
0
40
0.761744044019
50
32.1885584713
51
128.000165255
0
ARC
8
drawinglayer
10
-0.870979847548
20
-0.732200181183
30
0
40
0.761744044019
50
58.8883917244
51
146.283363089
0
ARC
8
drawinglayer
10
-0.967900927668
20
-0.835909656971
30
0
40
0.761744044019
50
31.5010091171
51
146.10007389
0
ARC
8
drawinglayer
10
-0.930010206496
20
-0.669976407935
30
0
40
0.761744044019
50
71.8945336739
51
146.171922798
0
ARC
8
drawinglayer
10
0.511940644563
20
-0.426339931303
30
0
40
0.761179937901
50
34.0793191952
51
148.72072555
0
ARC
8
drawinglayer
10
0.639380821826
20
-0.455530032675
30
0
40
0.761179937901
50
34.3085023133
51
148.929396779
0
ARC
8
drawinglayer
10
0.76683056021
20
-0.484710572926
30
0
40
0.761179937901
50
34.5376854313
51
149.135546993
0
ARC
8
drawinglayer
10
0.894280298594
20
-0.513891113177
30
0
40
0.761179937901
50
34.7668685494
51
149.339233489
0
ARC
8
drawinglayer
10
1.02172047586
20
-0.543071653428
30
0
40
0.761179937901
50
35.053347447
51
149.540570859
0
ARC
8
drawinglayer
10
0.384490906179
20
-0.397159391052
30
0
40
0.761179937901
50
33.7928402977
51
148.509533306
0
ARC
8
drawinglayer
10
0.371411293118
20
0.599740415574
30
0
40
0.746838256912
50
33.7355445182
51
148.526779336
0
ARC
8
drawinglayer
10
0.417840095038
20
0.486756652747
30
0
40
0.732496575924
50
33.7928402977
51
148.643089768
0
ARC
8
drawinglayer
10
0.464268896957
20
0.37377288992
30
0
40
0.718154894935
50
33.8501360772
51
148.75899913
0
ARC
8
drawinglayer
10
0.510688137757
20
0.260789127094
30
0
40
0.703813213947
50
33.9074318567
51
148.874450126
0
ARC
8
drawinglayer
10
0.557116939676
20
0.147805364267
30
0
40
0.689471532958
50
33.9647276362
51
148.989557347
0
ARC
8
drawinglayer
10
0.603545741596
20
0.0348216014399
30
0
40
0.67512985197
50
33.9647276362
51
149.104206202
0
ARC
8
drawinglayer
10
0.649964982396
20
-0.0781621613869
30
0
40
0.660788170982
50
34.0220234157
51
149.218453986
0
ARC
8
drawinglayer
10
0.696393784315
20
-0.191145924214
30
0
40
0.646446489993
50
34.0793191952
51
149.332243404
0
ARC
8
drawinglayer
10
0.324982491198
20
0.712724178401
30
0
40
0.761179937901
50
33.6782487386
51
148.410067833
0
ARC
8
drawinglayer
10
0.536082474227
20
-0.0620229897146
30
0
40
0.662843811923
50
33.8501360772
51
149.02765904
0
ARC
8
drawinglayer
10
0.500897550202
20
0.0670999447845
30
0
40
0.679231572733
50
33.7928402977
51
148.925328778
0
ARC
8
drawinglayer
10
0.465712626177
20
0.196222879284
30
0
40
0.695619333542
50
33.7928402977
51
148.822769333
0
ARC
8
drawinglayer
10
0.571257837131
20
-0.191145924214
30
0
40
0.646446489993
50
33.8501360772
51
149.129702824
0
ARC
8
drawinglayer
10
0.477874371655
20
-0.294147877073
30
0
40
0.703813213947
50
33.8501360772
51
148.820477502
0
ARC
8
drawinglayer
10
0.339859594943
20
0.435250895757
30
0
40
0.761179937901
50
33.7355445182
51
148.434991497
0
ARC
8
drawinglayer
10
0.347298146816
20
0.296519034996
30
0
40
0.761179937901
50
33.7355445182
51
148.447424681
0
ARC
8
drawinglayer
10
0.354736698688
20
0.157777613114
30
0
40
0.761179937901
50
33.7355445182
51
148.459857865
0
ARC
8
drawinglayer
10
0.362175250561
20
0.0190457523526
30
0
40
0.761179937901
50
33.7928402977
51
148.47229105
0
ARC
8
drawinglayer
10
0.369613802434
20
-0.119686108409
30
0
40
0.761179937901
50
33.7928402977
51
148.484724234
0
ARC
8
drawinglayer
10
0.377052354306
20
-0.258427530291
30
0
40
0.761179937901
50
33.7928402977
51
148.497157418
0
ARC
8
drawinglayer
10
0.796489156494
20
-0.367108788821
30
0
40
0.703813213947
50
34.4230938723
51
149.337629208
0
ARC
8
drawinglayer
10
0.952048589615
20
-0.417495894694
30
0
40
0.761179937901
50
34.8814601084
51
148.496297981
0
ARC
8
drawinglayer
10
0.882376703373
20
-0.291910574838
30
0
40
0.761179937901
50
34.7668685494
51
148.382852338
0
ARC
8
drawinglayer
10
0.812704817132
20
-0.166334816104
30
0
40
0.761179937901
50
34.5949812108
51
148.268604553
0
ARC
8
drawinglayer
10
0.74303293089
20
-0.0407494962485
30
0
40
0.761179937901
50
34.4803896518
51
148.15366922
0
ARC
8
drawinglayer
10
0.673351483527
20
0.0848262624862
30
0
40
0.761179937901
50
34.3657980928
51
148.037989041
0
ARC
8
drawinglayer
10
0.603679597286
20
0.210402021221
30
0
40
0.761179937901
50
34.2512065338
51
147.921506721
0
ARC
8
drawinglayer
10
0.534007711044
20
0.335987341076
30
0
40
0.761179937901
50
34.0793191952
51
147.804279556
0
ENDSEC
0
EOF
