0
SECTION
2
HEADER
9
$ACADVER
1
AC1006
9
$INSBASE
10
0.0
20
0.0
30
0.0
9
$EXTMIN
10
0.0
20
0.0
9
$EXTMAX
10
0.0
20
0.0
0
ENDSEC
0
SECTION
2
TABLES
0
TABLE
2
LTYPE
70
1
0
LTYPE
2
CONTINUOUS
70
64
3
Solid line
72
65
73
0
40
0.0
0
ENDTAB
0
TABLE
2
LAYER
70
1
0
LAYER
2
PYDXF
70
64
62
7
6
continuous
0
ENDTAB
0
TABLE
2
STYLE
70
1
0
STYLE
2
STANDARD
70
0
40
0
41
40
50
50
71
0
42
1
3
ARIAL.TTF
4

0
ENDTAB
0
TABLE
2
VIEW
70
0
0
ENDTAB
0
ENDSEC
0
SECTION
2
BLOCKS
0
ENDSEC
0
SECTION
2
ENTITIES
0
ARC
8
drawinglayer
10
0.0
20
-0.438240371451
30
0
40
0.824981078806
50
30.0
51
150.0
0
ARC
8
drawinglayer
10
0.0
20
-0.382777886439
30
0
40
0.854285544208
50
30.0
51
150.0
0
ARC
8
drawinglayer
10
0.0
20
-0.297449678127
30
0
40
0.858554505795
50
30.0
51
150.0
0
ARC
8
drawinglayer
10
0.0
20
-0.189160919442
30
0
40
0.837430799452
50
30.0
51
150.0
0
ARC
8
drawinglayer
10
-0.102148937437
20
-0.242548451013
30
0
40
0.774297789834
50
30.0
51
150.0
0
ARC
8
drawinglayer
10
-0.1737858546
20
-0.150587194816
30
0
40
0.725247251112
50
30.0
51
150.0
0
ARC
8
drawinglayer
10
-0.00204093781092
20
-0.313675133724
30
0
40
0.751881489544
50
30.0
51
150.0
0
ARC
8
drawinglayer
10
-0.031379418843
20
-0.183599363908
30
0
40
0.681333072547
50
30.0
51
150.0
0
ARC
8
drawinglayer
10
-0.0796646058864
20
-0.0248144022178
30
0
40
0.603318224724
50
30.0
51
150.0
0
ARC
8
drawinglayer
10
-0.151930812208
20
0.0637963144065
30
0
40
0.569727789919
50
30.0
51
150.0
0
ARC
8
drawinglayer
10
-0.324424072861
20
0.155349383042
30
0
40
0.489654996471
50
30.0
51
150.0
0
ARC
8
drawinglayer
10
-0.23722500489
20
0.126589167723
30
0
40
0.530116588572
50
30.0
51
150.0
0
ARC
8
drawinglayer
10
-0.286887824956
20
0.0602076654223
30
0
40
0.594457153062
50
30.0
51
150.0
0
ARC
8
drawinglayer
10
-0.226271971971
20
-0.0355123179101
30
0
40
0.66600903115
50
30.0
51
150.0
0
ARC
8
drawinglayer
10
0.267430884491
20
-1.58091042834
30
0
40
1.14535729168
50
30.0
51
150.0
0
ARC
8
drawinglayer
10
0.386451574498
20
-1.43166685092
30
0
40
0.996113714252
50
30.0
51
150.0
0
ARC
8
drawinglayer
10
0.322910377318
20
-1.52128102863
30
0
40
1.2149192554
50
30.0
51
150.0
0
ARC
8
drawinglayer
10
0.466626414838
20
-1.34106621993
30
0
40
1.03470444669
50
30.0
51
150.0
0
ARC
8
drawinglayer
10
0.195793967328
20
-1.5978842278
30
0
40
1.05552201236
50
30.0
51
150.0
0
ARC
8
drawinglayer
10
0.282942011854
20
-1.48860901584
30
0
40
0.946246800405
50
30.0
51
150.0
0
ARC
8
drawinglayer
10
0.124820354953
20
-1.53349263987
30
0
40
0.966503108178
50
30.0
51
150.0
0
ARC
8
drawinglayer
10
0.180350871225
20
-1.46384563707
30
0
40
0.89685610538
50
30.0
51
150.0
0
ARC
8
drawinglayer
10
0.0630479705425
20
-1.40613812047
30
0
40
0.889049518254
50
30.0
51
150.0
0
ARC
8
drawinglayer
10
0.0
20
-1.31322442662
30
0
40
0.809997193711
50
30.0
51
150.0
0
ARC
8
drawinglayer
10
0.0285050980926
20
-0.546393067615
30
0
40
0.934919595554
50
30.0
51
150.0
0
ARC
8
drawinglayer
10
0.0606838842448
20
-0.665005570059
30
0
40
1.0758463514
50
30.0
51
150.0
0
ARC
8
drawinglayer
10
0.17001011965
20
-0.612349374538
30
0
40
1.02319015588
50
30.0
51
150.0
0
ARC
8
drawinglayer
10
0.090804724771
20
-0.847618480692
30
0
40
1.20784400432
50
30.0
51
150.0
0
ARC
8
drawinglayer
10
0.254436913762
20
-0.768821273375
30
0
40
1.129046797
50
30.0
51
150.0
0
ARC
8
drawinglayer
10
0.11498983783
20
-1.04887195666
30
0
40
1.31376867671
50
30.0
51
150.0
0
ARC
8
drawinglayer
10
0.322179041269
20
-0.94910411334
30
0
40
1.21400083338
50
30.0
51
150.0
0
ARC
8
drawinglayer
10
0.130058762001
20
-1.24262498618
30
0
40
1.37982703052
50
30.0
51
150.0
0
ARC
8
drawinglayer
10
0.364426453956
20
-1.12977813305
30
0
40
1.26698017739
50
30.0
51
150.0
0
ARC
8
drawinglayer
10
0.134072606363
20
-1.40365497946
30
0
40
1.39744712695
50
30.0
51
150.0
0
ARC
8
drawinglayer
10
0.375685627546
20
-1.28730451643
30
0
40
1.28109666392
50
30.0
51
150.0
0
ARC
8
drawinglayer
10
0.128323964862
20
-1.5331864992
30
0
40
1.37225855281
50
30.0
51
150.0
0
ARC
8
drawinglayer
10
0.359579226655
20
-1.42181932598
30
0
40
1.26089137959
50
30.0
51
150.0
0
ARC
8
drawinglayer
10
0.115244955057
20
-1.62128698137
30
0
40
1.31492520813
50
30.0
51
150.0
0
ARC
8
drawinglayer
10
0.0954478582909
20
-1.66373848784
30
0
40
1.22818535117
50
30.0
51
150.0
0
ARC
8
drawinglayer
10
0.0698851122091
20
-1.6585170886
30
0
40
1.11615487316
50
30.0
51
150.0
0
ARC
8
drawinglayer
10
0.0445434677234
20
-1.57215140357
30
0
40
1.00516187188
50
30.0
51
150.0
0
ARC
8
drawinglayer
10
-0
20
-0.847618480692
30
0
40
1.20784400432
50
30.0
51
150.0
0
ARC
8
drawinglayer
10
-0
20
-1.04887195666
30
0
40
1.31376867671
50
30.0
51
150.0
0
ARC
8
drawinglayer
10
-0
20
-1.24262498618
30
0
40
1.37982703052
50
30.0
51
150.0
0
ARC
8
drawinglayer
10
-0
20
-1.40365497946
30
0
40
1.39744712695
50
30.0
51
150.0
0
ARC
8
drawinglayer
10
-0
20
-1.5331864992
30
0
40
1.37225855281
50
30.0
51
150.0
0
ARC
8
drawinglayer
10
-0
20
-1.62128698137
30
0
40
1.31492520813
50
30.0
51
150.0
0
ARC
8
drawinglayer
10
-0
20
-1.66373848784
30
0
40
1.22818535117
50
30.0
51
150.0
0
ARC
8
drawinglayer
10
-0
20
-1.6585170886
30
0
40
1.11615487316
50
30.0
51
150.0
0
ARC
8
drawinglayer
10
-0
20
-1.49462978239
30
0
40
0.952267566947
50
30.0
51
150.0
0
ARC
8
drawinglayer
10
0.115449048838
20
-0.477069213304
30
0
40
0.865595741243
50
30.0
51
150.0
0
ARC
8
drawinglayer
10
0.24567788899
20
-0.517462774145
30
0
40
0.928303555484
50
30.0
51
150.0
0
ARC
8
drawinglayer
10
0.272686299355
20
-0.399156412371
30
0
40
0.809997193711
50
30.0
51
150.0
0
ARC
8
drawinglayer
10
0.367674946638
20
-0.626840032995
30
0
40
0.987065556623
50
30.0
51
150.0
0
ARC
8
drawinglayer
10
0.408085515294
20
-0.449771670082
30
0
40
0.809997193711
50
30.0
51
150.0
0
ARC
8
drawinglayer
10
0.465554922487
20
-0.769297492198
30
0
40
1.03419421224
50
30.0
51
150.0
0
ARC
8
drawinglayer
10
0.516731438096
20
-0.545100473668
30
0
40
0.809997193711
50
30.0
51
150.0
0
ARC
8
drawinglayer
10
0.526612978664
20
-0.926398680194
30
0
40
1.06360072453
50
30.0
51
150.0
0
ARC
8
drawinglayer
10
0.584490573418
20
-0.672795149371
30
0
40
0.809997193711
50
30.0
51
150.0
0
ARC
8
drawinglayer
10
0.542889457706
20
-1.0776491798
30
0
40
1.07144132729
50
30.0
51
150.0
0
ARC
8
drawinglayer
10
0.602552873045
20
-0.816205046219
30
0
40
0.809997193711
50
30.0
51
150.0
0
ARC
8
drawinglayer
10
0.519605758846
20
-1.22116112354
30
0
40
1.06023317714
50
30.0
51
150.0
0
ARC
8
drawinglayer
10
0.576718001922
20
-0.970925140102
30
0
40
0.809997193711
50
30.0
51
150.0
0
ARC
8
drawinglayer
10
0.517904977337
20
-1.11635896695
30
0
40
0.809997193711
50
30.0
51
150.0
0
ARC
8
drawinglayer
10
0.428937096596
20
-1.24555033038
30
0
40
0.809997193711
50
30.0
51
150.0
0
ARC
8
drawinglayer
10
0.314032297841
20
-1.35235940915
30
0
40
0.809997193711
50
30.0
51
150.0
0
ARC
8
drawinglayer
10
0.200181983621
20
-1.3769867254
30
0
40
0.809997193711
50
30.0
51
150.0
0
ARC
8
drawinglayer
10
0.101128468531
20
-1.32708579592
30
0
40
0.809997193711
50
30.0
51
150.0
0
ARC
8
drawinglayer
10
0.090804724771
20
-0.0519248594729
30
0
40
0.412150383101
50
30.0
51
150.0
0
ARC
8
drawinglayer
10
0.11498983783
20
-0.0413289906712
30
0
40
0.306225710714
50
30.0
51
150.0
0
ARC
8
drawinglayer
10
0.130058762001
20
-0.102965312561
30
0
40
0.2401673569
50
30.0
51
150.0
0
ARC
8
drawinglayer
10
0.134072606363
20
-0.228755112974
30
0
40
0.222547260466
50
30.0
51
150.0
0
ARC
8
drawinglayer
10
0.0
20
-0.102965312561
30
0
40
0.2401673569
50
30.0
51
150.0
0
ARC
8
drawinglayer
10
0.0
20
-0.228755112974
30
0
40
0.222547260466
50
30.0
51
150.0
0
ARC
8
drawinglayer
10
0.0285050980926
20
-0.296548263927
30
0
40
0.685074791867
50
30.0
51
150.0
0
ARC
8
drawinglayer
10
0.0606838842448
20
-0.133307254684
30
0
40
0.544148036023
50
30.0
51
150.0
0
ARC
8
drawinglayer
10
0.128323964862
20
-0.408663781007
30
0
40
0.247735834616
50
30.0
51
150.0
0
ARC
8
drawinglayer
10
0.0
20
-0.408663781007
30
0
40
0.247735834616
50
30.0
51
150.0
0
ARC
8
drawinglayer
10
0.115244955057
20
-0.611430952523
30
0
40
0.305069179288
50
30.0
51
150.0
0
ARC
8
drawinglayer
10
0.0
20
-0.611430952523
30
0
40
0.305069179288
50
30.0
51
150.0
0
ARC
8
drawinglayer
10
0.0954478582909
20
-0.827362172918
30
0
40
0.391809036252
50
30.0
51
150.0
0
ARC
8
drawinglayer
10
0.0698851122091
20
-1.04620172969
30
0
40
0.503839514257
50
30.0
51
150.0
0
ARC
8
drawinglayer
10
0.0445434677234
20
-1.18182204723
30
0
40
0.614832515541
50
30.0
51
150.0
0
ARC
8
drawinglayer
10
0.0225013393654
20
-1.22850849966
30
0
40
0.711419897443
50
30.0
51
150.0
0
ARC
8
drawinglayer
10
0.17001011965
20
-0.185963450205
30
0
40
0.596804231544
50
30.0
51
150.0
0
ARC
8
drawinglayer
10
0.254436913762
20
-0.13072206679
30
0
40
0.490947590418
50
30.0
51
150.0
0
ARC
8
drawinglayer
10
0.322179041269
20
-0.141096833995
30
0
40
0.405993554038
50
30.0
51
150.0
0
ARC
8
drawinglayer
10
0.364426453956
20
-0.21581216569
30
0
40
0.35301421003
50
30.0
51
150.0
0
ARC
8
drawinglayer
10
0.375685627546
20
-0.345105576012
30
0
40
0.338897723504
50
30.0
51
150.0
0
ARC
8
drawinglayer
10
0.359579226655
20
-0.520030954223
30
0
40
0.359103007832
50
30.0
51
150.0
0
ARC
8
drawinglayer
10
0.322910377318
20
-0.711436905258
30
0
40
0.405075132023
50
30.0
51
150.0
0
ARC
8
drawinglayer
10
0.267430884491
20
-0.910190232412
30
0
40
0.474637095745
50
30.0
51
150.0
0
ARC
8
drawinglayer
10
0.195793967328
20
-1.10683459049
30
0
40
0.564472375056
50
30.0
51
150.0
0
ARC
8
drawinglayer
10
0.124820354953
20
-1.22048081093
30
0
40
0.653491279243
50
30.0
51
150.0
0
ARC
8
drawinglayer
10
0.115449048838
20
-0.365872118238
30
0
40
0.754398646178
50
30.0
51
150.0
0
ARC
8
drawinglayer
10
0.24567788899
20
-0.280850050598
30
0
40
0.691690831937
50
30.0
51
150.0
0
ARC
8
drawinglayer
10
0.367674946638
20
-0.27270330717
30
0
40
0.632928830798
50
30.0
51
150.0
0
ARC
8
drawinglayer
10
0.465554922487
20
-0.320903455138
30
0
40
0.58580017518
50
30.0
51
150.0
0
ARC
8
drawinglayer
10
0.526612978664
20
-0.419191618549
30
0
40
0.556393662888
50
30.0
51
150.0
0
ARC
8
drawinglayer
10
0.542889457706
20
-0.554760912639
30
0
40
0.548553060131
50
30.0
51
150.0
0
ARC
8
drawinglayer
10
0.519605758846
20
-0.720689156667
30
0
40
0.559761210276
50
30.0
51
150.0
0
ARC
8
drawinglayer
10
0.466626414838
20
-0.891651713963
30
0
40
0.585289940728
50
30.0
51
150.0
0
ARC
8
drawinglayer
10
0.386451574498
20
-1.05943380984
30
0
40
0.623880673169
50
30.0
51
150.0
0
ARC
8
drawinglayer
10
0.282942011854
20
-1.21610980245
30
0
40
0.673747587016
50
30.0
51
150.0
0
ARC
8
drawinglayer
10
0.180350871225
20
-1.29012781373
30
0
40
0.723138282041
50
30.0
51
150.0
0
ARC
8
drawinglayer
10
0.0
20
-1.04620172969
30
0
40
0.503839514257
50
30.0
51
150.0
0
ARC
8
drawinglayer
10
-0
20
-0.827362172918
30
0
40
0.391809036252
50
30.0
51
150.0
0
ARC
8
drawinglayer
10
-0
20
-0.0519248594729
30
0
40
0.412150383101
50
30.0
51
150.0
0
ARC
8
drawinglayer
10
-0
20
-0.0413289906712
30
0
40
0.306225710714
50
30.0
51
150.0
0
ARC
8
drawinglayer
10
-0.267430884491
20
-1.58091042834
30
0
40
1.14535729168
50
30.0
51
150.0
0
ARC
8
drawinglayer
10
-0.386451574498
20
-1.43166685092
30
0
40
0.996113714252
50
30.0
51
150.0
0
ARC
8
drawinglayer
10
-0.322910377318
20
-1.52128102863
30
0
40
1.2149192554
50
30.0
51
150.0
0
ARC
8
drawinglayer
10
-0.466626414838
20
-1.34106621993
30
0
40
1.03470444669
50
30.0
51
150.0
0
ARC
8
drawinglayer
10
-0.195793967328
20
-1.5978842278
30
0
40
1.05552201236
50
30.0
51
150.0
0
ARC
8
drawinglayer
10
-0.282942011854
20
-1.48860901584
30
0
40
0.946246800405
50
30.0
51
150.0
0
ARC
8
drawinglayer
10
-0.124820354953
20
-1.53349263987
30
0
40
0.966503108178
50
30.0
51
150.0
0
ARC
8
drawinglayer
10
-0.180350871225
20
-1.46384563707
30
0
40
0.89685610538
50
30.0
51
150.0
0
ARC
8
drawinglayer
10
-0.0630479705425
20
-1.40613812047
30
0
40
0.889049518254
50
30.0
51
150.0
0
ARC
8
drawinglayer
10
-0.0798857074826
20
-0.521646696657
30
0
40
0.910173224597
50
30.0
51
150.0
0
ARC
8
drawinglayer
10
-0.0606838842448
20
-0.665005570059
30
0
40
1.0758463514
50
30.0
51
150.0
0
ARC
8
drawinglayer
10
-0.17001011965
20
-0.612349374538
30
0
40
1.02319015588
50
30.0
51
150.0
0
ARC
8
drawinglayer
10
-0.090804724771
20
-0.847618480692
30
0
40
1.20784400432
50
30.0
51
150.0
0
ARC
8
drawinglayer
10
-0.254436913762
20
-0.768821273375
30
0
40
1.129046797
50
30.0
51
150.0
0
ARC
8
drawinglayer
10
-0.11498983783
20
-1.04887195666
30
0
40
1.31376867671
50
30.0
51
150.0
0
ARC
8
drawinglayer
10
-0.322179041269
20
-0.94910411334
30
0
40
1.21400083338
50
30.0
51
150.0
0
ARC
8
drawinglayer
10
-0.130058762001
20
-1.24262498618
30
0
40
1.37982703052
50
30.0
51
150.0
0
ARC
8
drawinglayer
10
-0.364426453956
20
-1.12977813305
30
0
40
1.26698017739
50
30.0
51
150.0
0
ARC
8
drawinglayer
10
-0.134072606363
20
-1.40365497946
30
0
40
1.39744712695
50
30.0
51
150.0
0
ARC
8
drawinglayer
10
-0.375685627546
20
-1.28730451643
30
0
40
1.28109666392
50
30.0
51
150.0
0
ARC
8
drawinglayer
10
-0.128323964862
20
-1.5331864992
30
0
40
1.37225855281
50
30.0
51
150.0
0
ARC
8
drawinglayer
10
-0.359579226655
20
-1.42181932598
30
0
40
1.26089137959
50
30.0
51
150.0
0
ARC
8
drawinglayer
10
-0.115244955057
20
-1.62128698137
30
0
40
1.31492520813
50
30.0
51
150.0
0
ARC
8
drawinglayer
10
-0.0954478582909
20
-1.66373848784
30
0
40
1.22818535117
50
30.0
51
150.0
0
ARC
8
drawinglayer
10
-0.0698851122091
20
-1.6585170886
30
0
40
1.11615487316
50
30.0
51
150.0
0
ARC
8
drawinglayer
10
-0.0445434677234
20
-1.57215140357
30
0
40
1.00516187188
50
30.0
51
150.0
0
ARC
8
drawinglayer
10
-0.128136878896
20
-0.421470665771
30
0
40
0.809997193711
50
30.0
51
150.0
0
ARC
8
drawinglayer
10
-0.24567788899
20
-0.517462774145
30
0
40
0.928303555484
50
30.0
51
150.0
0
ARC
8
drawinglayer
10
-0.272686299355
20
-0.399156412371
30
0
40
0.809997193711
50
30.0
51
150.0
0
ARC
8
drawinglayer
10
-0.367674946638
20
-0.626840032995
30
0
40
0.987065556623
50
30.0
51
150.0
0
ARC
8
drawinglayer
10
-0.408085515294
20
-0.449771670082
30
0
40
0.809997193711
50
30.0
51
150.0
0
ARC
8
drawinglayer
10
-0.465554922487
20
-0.769297492198
30
0
40
1.03419421224
50
30.0
51
150.0
0
ARC
8
drawinglayer
10
-0.516731438096
20
-0.545100473668
30
0
40
0.809997193711
50
30.0
51
150.0
0
ARC
8
drawinglayer
10
-0.526612978664
20
-0.926398680194
30
0
40
1.06360072453
50
30.0
51
150.0
0
ARC
8
drawinglayer
10
-0.584490573418
20
-0.672795149371
30
0
40
0.809997193711
50
30.0
51
150.0
0
ARC
8
drawinglayer
10
-0.542889457706
20
-1.0776491798
30
0
40
1.07144132729
50
30.0
51
150.0
0
ARC
8
drawinglayer
10
-0.602552873045
20
-0.816205046219
30
0
40
0.809997193711
50
30.0
51
150.0
0
ARC
8
drawinglayer
10
-0.519605758846
20
-1.22116112354
30
0
40
1.06023317714
50
30.0
51
150.0
0
ARC
8
drawinglayer
10
-0.576718001922
20
-0.970925140102
30
0
40
0.809997193711
50
30.0
51
150.0
0
ARC
8
drawinglayer
10
-0.517904977337
20
-1.11635896695
30
0
40
0.809997193711
50
30.0
51
150.0
0
ARC
8
drawinglayer
10
-0.428937096596
20
-1.24555033038
30
0
40
0.809997193711
50
30.0
51
150.0
0
ARC
8
drawinglayer
10
-0.314032297841
20
-1.35235940915
30
0
40
0.809997193711
50
30.0
51
150.0
0
ARC
8
drawinglayer
10
-0.200181983621
20
-1.3769867254
30
0
40
0.809997193711
50
30.0
51
150.0
0
ARC
8
drawinglayer
10
-0.101128468531
20
-1.32708579592
30
0
40
0.809997193711
50
30.0
51
150.0
0
ARC
8
drawinglayer
10
-0.090804724771
20
-0.0519248594729
30
0
40
0.412150383101
50
30.0
51
150.0
0
ARC
8
drawinglayer
10
-0.11498983783
20
-0.0413289906712
30
0
40
0.306225710714
50
30.0
51
150.0
0
ARC
8
drawinglayer
10
-0.130058762001
20
-0.102965312561
30
0
40
0.2401673569
50
30.0
51
150.0
0
ARC
8
drawinglayer
10
-0.134072606363
20
-0.228755112974
30
0
40
0.222547260466
50
30.0
51
150.0
0
ARC
8
drawinglayer
10
-0.0606838842448
20
-0.133307254684
30
0
40
0.544148036023
50
30.0
51
150.0
0
ARC
8
drawinglayer
10
-0.128323964862
20
-0.408663781007
30
0
40
0.247735834616
50
30.0
51
150.0
0
ARC
8
drawinglayer
10
-0.115244955057
20
-0.611430952523
30
0
40
0.305069179288
50
30.0
51
150.0
0
ARC
8
drawinglayer
10
-0.0954478582909
20
-0.827362172918
30
0
40
0.391809036252
50
30.0
51
150.0
0
ARC
8
drawinglayer
10
-0.0698851122091
20
-1.04620172969
30
0
40
0.503839514257
50
30.0
51
150.0
0
ARC
8
drawinglayer
10
-0.0445434677234
20
-1.18182204723
30
0
40
0.614832515541
50
30.0
51
150.0
0
ARC
8
drawinglayer
10
-0.0798857074826
20
-0.321294634885
30
0
40
0.709821162824
50
30.0
51
150.0
0
ARC
8
drawinglayer
10
-0.17001011965
20
-0.185963450205
30
0
40
0.596804231544
50
30.0
51
150.0
0
ARC
8
drawinglayer
10
-0.254436913762
20
-0.13072206679
30
0
40
0.490947590418
50
30.0
51
150.0
0
ARC
8
drawinglayer
10
-0.322179041269
20
-0.141096833995
30
0
40
0.405993554038
50
30.0
51
150.0
0
ARC
8
drawinglayer
10
-0.364426453956
20
-0.21581216569
30
0
40
0.35301421003
50
30.0
51
150.0
0
ARC
8
drawinglayer
10
-0.375685627546
20
-0.345105576012
30
0
40
0.338897723504
50
30.0
51
150.0
0
ARC
8
drawinglayer
10
-0.359579226655
20
-0.520030954223
30
0
40
0.359103007832
50
30.0
51
150.0
0
ARC
8
drawinglayer
10
-0.322910377318
20
-0.711436905258
30
0
40
0.405075132023
50
30.0
51
150.0
0
ARC
8
drawinglayer
10
-0.267430884491
20
-0.910190232412
30
0
40
0.474637095745
50
30.0
51
150.0
0
ARC
8
drawinglayer
10
-0.195793967328
20
-1.10683459049
30
0
40
0.564472375056
50
30.0
51
150.0
0
ARC
8
drawinglayer
10
-0.124820354953
20
-1.22048081093
30
0
40
0.653491279243
50
30.0
51
150.0
0
ARC
8
drawinglayer
10
-0.0630479705425
20
-1.24803347138
30
0
40
0.730944869167
50
30.0
51
150.0
0
ARC
8
drawinglayer
10
-0.24567788899
20
-0.280850050598
30
0
40
0.691690831937
50
30.0
51
150.0
0
ARC
8
drawinglayer
10
-0.367674946638
20
-0.27270330717
30
0
40
0.632928830798
50
30.0
51
150.0
0
ARC
8
drawinglayer
10
-0.465554922487
20
-0.320903455138
30
0
40
0.58580017518
50
30.0
51
150.0
0
ARC
8
drawinglayer
10
-0.526612978664
20
-0.419191618549
30
0
40
0.556393662888
50
30.0
51
150.0
0
ARC
8
drawinglayer
10
-0.542889457706
20
-0.554760912639
30
0
40
0.548553060131
50
30.0
51
150.0
0
ARC
8
drawinglayer
10
-0.519605758846
20
-0.720689156667
30
0
40
0.559761210276
50
30.0
51
150.0
0
ARC
8
drawinglayer
10
-0.466626414838
20
-0.891651713963
30
0
40
0.585289940728
50
30.0
51
150.0
0
ARC
8
drawinglayer
10
-0.386451574498
20
-1.05943380984
30
0
40
0.623880673169
50
30.0
51
150.0
0
ARC
8
drawinglayer
10
-0.282942011854
20
-1.21610980245
30
0
40
0.673747587016
50
30.0
51
150.0
0
ARC
8
drawinglayer
10
-0.180350871225
20
-1.29012781373
30
0
40
0.723138282041
50
30.0
51
150.0
0
ARC
8
drawinglayer
10
0.185147075081
20
-1.3233440766
30
0
40
1.06546591492
50
30.0
51
150.0
0
ARC
8
drawinglayer
10
0.102863265671
20
-1.06577772486
30
0
40
0.985574538167
50
30.0
51
150.0
0
ARC
8
drawinglayer
10
0.0205794562602
20
-0.808211373126
30
0
40
0.905683161413
50
30.0
51
150.0
0
ARC
8
drawinglayer
10
-0.0617043531503
20
-0.550645021387
30
0
40
0.825791784658
50
30.0
51
150.0
0
ARC
8
drawinglayer
10
-0.143988162561
20
-0.293078669649
30
0
40
0.745900407904
50
30.0
51
150.0
0
ARC
8
drawinglayer
10
-0.0401639553375
20
-0.728368185181
30
0
40
0.832617587782
50
30.0
51
150.0
0
ARC
8
drawinglayer
10
-0.142695568614
20
-0.444187437461
30
0
40
0.728371019817
50
30.0
51
150.0
0
ARC
8
drawinglayer
10
-0.24522718189
20
-0.160006689741
30
0
40
0.624124451852
50
30.0
51
150.0
0
ARC
8
drawinglayer
10
0.28433098342
20
-1.19897442875
30
0
40
0.941096267068
50
30.0
51
150.0
0
ARC
8
drawinglayer
10
0.182210392342
20
-0.966282006582
30
0
40
0.886078819884
50
30.0
51
150.0
0
ARC
8
drawinglayer
10
0.0800898012637
20
-0.733589584414
30
0
40
0.831061372701
50
30.0
51
150.0
0
ARC
8
drawinglayer
10
0.0707355029636
20
-0.689709421479
30
0
40
0.86463479969
50
30.0
51
150.0
0
ARC
8
drawinglayer
10
0.212206508891
20
-1.22230915105
30
0
40
0.919042800167
50
30.0
51
150.0
0
ARC
8
drawinglayer
10
0.146845475496
20
-1.30426556002
30
0
40
1.00099920914
50
30.0
51
150.0
0
ARC
8
drawinglayer
10
0.080982711556
20
-1.00916721233
30
0
40
0.919042800167
50
30.0
51
150.0
0
ARC
8
drawinglayer
10
0.0249640709906
20
-0.56976180555
30
0
40
0.881287151446
50
30.0
51
150.0
0
ARC
8
drawinglayer
10
0.0998562839625
20
-1.29255993129
30
0
40
0.945199118995
50
30.0
51
150.0
0
ARC
8
drawinglayer
10
0.14428069698
20
-1.2237769255
30
0
40
0.888341993146
50
30.0
51
150.0
0
ARC
8
drawinglayer
10
0.0788822463922
20
-0.892791237574
30
0
40
0.847989251061
50
30.0
51
150.0
0
ARC
8
drawinglayer
10
-0.0212427610487
20
-0.616320699361
30
0
40
0.832757902256
50
30.0
51
150.0
0
ARC
8
drawinglayer
10
0.00685414948169
20
-0.879593173063
30
0
40
0.851521774255
50
30.0
51
150.0
0
ARC
8
drawinglayer
10
0.0349510600121
20
-1.14286564676
30
0
40
0.870285646254
50
30.0
51
150.0
0
ARC
8
drawinglayer
10
-0.0316855595146
20
-0.903917750206
30
0
40
0.823528611397
50
30.0
51
150.0
0
ARC
8
drawinglayer
10
-0.0349680678272
20
-0.556471898838
30
0
40
0.702072402269
50
30.0
51
150.0
0
ARC
8
drawinglayer
10
-0.0126197987975
20
-0.822300647147
30
0
40
0.751449491041
50
30.0
51
150.0
0
ARC
8
drawinglayer
10
0.00972847023207
20
-1.08812939546
30
0
40
0.800826579813
50
30.0
51
150.0
0
ARC
8
drawinglayer
10
-0.250269999065
20
-0.142933678025
30
0
40
0.558186286599
50
30.0
51
150.0
0
ARC
8
drawinglayer
10
-0.176115925268
20
-0.441216739092
30
0
40
0.626717576727
50
30.0
51
150.0
0
ARC
8
drawinglayer
10
-0.101961851471
20
-0.739499800158
30
0
40
0.695248866854
50
30.0
51
150.0
0
ARC
8
drawinglayer
10
-0.0573775649911
20
-1.03853800821
30
0
40
0.766889185581
50
30.0
51
150.0
0
ARC
8
drawinglayer
10
0.28426295216
20
-1.1283267995
30
0
40
0.967466884367
50
30.0
51
150.0
0
ARC
8
drawinglayer
10
0.182074329821
20
-0.824986748077
30
0
40
0.938820054482
50
30.0
51
150.0
0
ARC
8
drawinglayer
10
0.311084276558
20
-1.04378661995
30
0
40
0.959802029032
50
30.0
51
150.0
0
ARC
8
drawinglayer
10
0.17181294805
20
-1.07680729295
30
0
40
1.0110465759
50
30.0
51
150.0
0
ARC
8
drawinglayer
10
0.116248416147
20
-0.870906431505
30
0
40
1.04344646365
50
30.0
51
150.0
0
ARC
8
drawinglayer
10
0.126614679445
20
-1.00813823952
30
0
40
1.13655999932
50
30.0
51
150.0
0
ARC
8
drawinglayer
10
0.22203277406
20
-0.959989114998
30
0
40
1.0884108748
50
30.0
51
150.0
0
ARC
8
drawinglayer
10
0.147670354528
20
-1.25635879687
30
0
40
1.10531239104
50
30.0
51
150.0
0
ARC
8
drawinglayer
10
0.131330096179
20
-1.15261537677
30
0
40
1.20954053388
50
30.0
51
150.0
0
ARC
8
drawinglayer
10
0.24511096182
20
-1.12155201982
30
0
40
1.11736242804
50
30.0
51
150.0
0
ARC
8
drawinglayer
10
0.130529311552
20
-1.3003098257
30
0
40
1.21099045011
50
30.0
51
150.0
0
ARC
8
drawinglayer
10
0.263966959485
20
-1.22189812886
30
0
40
1.14100329101
50
30.0
51
150.0
0
ARC
8
drawinglayer
10
0.00562533484136
20
-0.766210573759
30
0
40
0.92833331916
50
30.0
51
150.0
0
ARC
8
drawinglayer
10
0.0112506696827
20
-0.986028079903
30
0
40
0.921747042766
50
30.0
51
150.0
0
ARC
8
drawinglayer
10
0.00286156488907
20
-0.83972685449
30
0
40
1.0219188217
50
30.0
51
150.0
0
ARC
8
drawinglayer
10
0.0
20
-0.799988094529
30
0
40
1.11919076816
50
30.0
51
150.0
0
ARC
8
drawinglayer
10
0.0
20
-1.03491987902
30
0
40
1.21781625324
50
30.0
51
150.0
0
ARC
8
drawinglayer
10
0.0
20
-0.666184778572
30
0
40
1.03818537952
50
30.0
51
150.0
0
ARC
8
drawinglayer
10
0.0
20
-1.20671298462
30
0
40
1.24100073984
50
30.0
51
150.0
0
ARC
8
drawinglayer
10
0.0
20
-0.880239470036
30
0
40
1.10974292687
50
30.0
51
150.0
0
ARC
8
drawinglayer
10
0.0
20
-1.32691231621
30
0
40
1.21693638227
50
30.0
51
150.0
0
ARC
8
drawinglayer
10
0.0
20
-1.03253765105
30
0
40
1.1189475564
50
30.0
51
150.0
0
ARC
8
drawinglayer
10
0.0
20
-0.738162985892
30
0
40
1.02095873054
50
30.0
51
150.0
0
ARC
8
drawinglayer
10
0.0
20
-0.443788320733
30
0
40
0.922969904671
50
30.0
51
150.0
0
ARC
8
drawinglayer
10
-0.00740973810799
20
-1.26506963283
30
0
40
1.09851776891
50
30.0
51
150.0
0
ARC
8
drawinglayer
10
-0.014819476216
20
-0.866400777824
30
0
40
0.968850186661
50
30.0
51
150.0
0
ARC
8
drawinglayer
10
-0.0204297874874
20
-1.37532336108
30
0
40
1.0477834565
50
30.0
51
150.0
0
ARC
8
drawinglayer
10
-0.0408595749747
20
-1.09212963357
30
0
40
0.979412039832
50
30.0
51
150.0
0
ARC
8
drawinglayer
10
-0.0612893624621
20
-0.808935906049
30
0
40
0.911040623166
50
30.0
51
150.0
0
ARC
8
drawinglayer
10
0.0433302435803
20
-0.67700174897
30
0
40
0.967070035348
50
30.0
51
150.0
0
ARC
8
drawinglayer
10
0.0722730094478
20
-1.21378993648
30
0
40
1.21175240023
50
30.0
51
150.0
0
ARC
8
drawinglayer
10
0.0564999617324
20
-1.32997428985
30
0
40
1.18412377154
50
30.0
51
150.0
0
ARC
8
drawinglayer
10
-0.00224503159202
20
-1.03866159834
30
0
40
1.05332233495
50
30.0
51
150.0
0
ARC
8
drawinglayer
10
-0.0609900249164
20
-0.747348906823
30
0
40
0.922520898353
50
30.0
51
150.0
0
ARC
8
drawinglayer
10
-0.178480011565
20
-0.164723523793
30
0
40
0.660918025166
50
30.0
51
150.0
0
ARC
8
drawinglayer
10
-0.0693295235828
20
-1.06428670641
30
0
40
0.917395876739
50
30.0
51
150.0
0
ARC
8
drawinglayer
10
-0.138936841479
20
-0.767171515311
30
0
40
0.818016378526
50
30.0
51
150.0
0
ARC
8
drawinglayer
10
-0.208544159375
20
-0.470056324214
30
0
40
0.718636880313
50
30.0
51
150.0
0
ARC
8
drawinglayer
10
0.0614194722475
20
-1.35205326848
30
0
40
1.02952131504
50
30.0
51
150.0
0
ARC
8
drawinglayer
10
0.204514724516
20
-0.655783082326
30
0
40
0.834641517777
50
30.0
51
150.0
0
ARC
8
drawinglayer
10
0.201466073661
20
-0.560756167459
30
0
40
0.767622222411
50
30.0
51
150.0
0
ARC
8
drawinglayer
10
0.389092037791
20
-0.76584065378
30
0
40
0.788809708061
50
30.0
51
150.0
0
ARC
8
drawinglayer
10
0.387982277857
20
-0.884729533221
30
0
40
0.809997193711
50
30.0
51
150.0
0
ARC
8
drawinglayer
10
0.243262779247
20
-0.649979165427
30
0
40
0.745665133129
50
30.0
51
150.0
0
ARC
8
drawinglayer
10
0.105941680202
20
-0.416789264667
30
0
40
0.713499102838
50
30.0
51
150.0
0
ARC
8
drawinglayer
10
0.306764291525
20
-0.760158626222
30
0
40
0.888868101559
50
30.0
51
150.0
0
ARC
8
drawinglayer
10
0.367850694061
20
-1.0028544783
30
0
40
0.849432647635
50
30.0
51
150.0
0
ARC
8
drawinglayer
10
0.186907383943
20
-0.863121104147
30
0
40
0.809997193711
50
30.0
51
150.0
0
ARC
8
drawinglayer
10
0.144017926237
20
-1.09510345004
30
0
40
0.809997193711
50
30.0
51
150.0
0
ARC
8
drawinglayer
10
0.31892204468
20
-0.665766669785
30
0
40
0.809997193711
50
30.0
51
150.0
0
ARC
8
drawinglayer
10
0.303768081433
20
-0.29851266657
30
0
40
0.611073788406
50
30.0
51
150.0
0
ARC
8
drawinglayer
10
0.0809614517871
20
-0.367381561828
30
0
40
0.511612085753
50
30.0
51
150.0
0
ARC
8
drawinglayer
10
0.0711181788032
20
-0.682838264182
30
0
40
0.611073788406
50
30.0
51
150.0
0
ARC
8
drawinglayer
10
0.0612749058192
20
-0.998294966537
30
0
40
0.710535491058
50
30.0
51
150.0
0
ARC
8
drawinglayer
10
0.389405265053
20
-0.631375450353
30
0
40
0.811142386593
50
30.0
51
150.0
0
ARC
8
drawinglayer
10
0.252197551442
20
-0.336352220512
30
0
40
0.558684048654
50
30.0
51
150.0
0
ARC
8
drawinglayer
10
0.433013302946
20
-0.482851870434
30
0
40
0.620053914774
50
30.0
51
150.0
0
ARC
8
drawinglayer
10
0.281536032474
20
-0.292908591498
30
0
40
0.430110635837
50
30.0
51
150.0
0
ARC
8
drawinglayer
10
0.44068524487
20
-0.865425663092
30
0
40
0.859217810584
50
30.0
51
150.0
0
ARC
8
drawinglayer
10
0.338481032034
20
-0.653202146386
30
0
40
0.646994293878
50
30.0
51
150.0
0
ARC
8
drawinglayer
10
0.236276819198
20
-0.44097862968
30
0
40
0.434770777172
50
30.0
51
150.0
0
ARC
8
drawinglayer
10
0.401701915363
20
-0.578458468333
30
0
40
0.620053914774
50
30.0
51
150.0
0
ARC
8
drawinglayer
10
0.200850957682
20
-0.340711890447
30
0
40
0.430110635837
50
30.0
51
150.0
0
ARC
8
drawinglayer
10
0.259802879423
20
-0.724958118255
30
0
40
0.641390218806
50
30.0
51
150.0
0
ARC
8
drawinglayer
10
0.129901439712
20
-0.476856615615
30
0
40
0.431968739636
50
30.0
51
150.0
0
ARC
8
drawinglayer
10
0.0142525490463
20
-0.262651688451
30
0
40
0.453811026167
50
30.0
51
150.0
0
ARC
8
drawinglayer
10
0.365497946306
20
-0.788675062858
30
0
40
0.721380807815
50
30.0
51
150.0
0
ARC
8
drawinglayer
10
0.213090915276
20
-0.460991158771
30
0
40
0.632764421919
50
30.0
51
150.0
0
ARC
8
drawinglayer
10
0.278630530729
20
-0.827107055692
30
0
40
0.528866514163
50
30.0
51
150.0
0
ARC
8
drawinglayer
10
0.0945039245533
20
-0.270985517845
30
0
40
0.395941935319
50
30.0
51
150.0
0
ARC
8
drawinglayer
10
0.209354865227
20
-1.03779419977
30
0
40
0.622576740679
50
30.0
51
150.0
0
ARC
8
drawinglayer
10
0.104677432614
20
-0.723228990388
30
0
40
0.435156287648
50
30.0
51
150.0
0
ARC
8
drawinglayer
10
0.187511161379
20
-0.994208838962
30
0
40
0.557533186499
50
30.0
51
150.0
0
ARC
8
drawinglayer
10
0.100090991811
20
-0.994208838962
30
0
40
0.557533186499
50
30.0
51
150.0
0
ARC
8
drawinglayer
10
0.0676740962472
20
-0.616873453352
30
0
40
0.513491449321
50
30.0
51
150.0
0
ARC
8
drawinglayer
10
0.0561087819853
20
-0.899347750291
30
0
40
0.564161982431
50
30.0
51
150.0
0
ARC
8
drawinglayer
10
0.0931971574272
20
-0.573707618651
30
0
40
0.401650891918
50
30.0
51
150.0
0
ARC
8
drawinglayer
10
0.0570725581738
20
-0.635400633258
30
0
40
0.726500160157
50
30.0
51
150.0
0
ARC
8
drawinglayer
10
0.034259408865
20
-0.949506631631
30
0
40
0.74317915749
50
30.0
51
150.0
0
ARC
8
drawinglayer
10
0.085005059825
20
-0.20735928159
30
0
40
0.409675746005
50
30.0
51
150.0
0
ARC
8
drawinglayer
10
0.165684465345
20
-0.517973008597
30
0
40
0.789797578654
50
30.0
51
150.0
0
ARC
8
drawinglayer
10
0.270685046446
20
-0.902638762511
30
0
40
1.03544712129
50
30.0
51
150.0
0
ARC
8
drawinglayer
10
0.18613778031
20
-0.661952667251
30
0
40
0.501024720859
50
30.0
51
150.0
0
ARC
8
drawinglayer
10
0.243951595758
20
-0.915241553494
30
0
40
0.754313607102
50
30.0
51
150.0
0
ARC
8
drawinglayer
10
0.0238619645727
20
-0.722432457714
30
0
40
0.492848213754
50
30.0
51
150.0
0
ARC
8
drawinglayer
10
0.0162339595044
20
-1.05303036745
30
0
40
0.628668373117
50
30.0
51
150.0
0
ARC
8
drawinglayer
10
0.0462476507955
20
-1.06850237684
30
0
40
0.686955856216
50
30.0
51
150.0
0
ARC
8
drawinglayer
10
0.0346857380967
20
-1.0132814028
30
0
40
0.817177893242
50
30.0
51
150.0
0
ARC
8
drawinglayer
10
0.0356347741787
20
-1.15523202912
30
0
40
0.754619747774
50
30.0
51
150.0
0
ARC
8
drawinglayer
10
0.0178173870894
20
-1.10205199289
30
0
40
1.03419421224
50
30.0
51
150.0
0
ARC
8
drawinglayer
10
0.0243509392566
20
-1.21822302348
30
0
40
0.845751872986
50
30.0
51
150.0
0
ARC
8
drawinglayer
10
0.0162339595044
20
-1.22635701105
30
0
40
1.0237769255
50
30.0
51
150.0
0
ARC
8
drawinglayer
10
0.0081169797522
20
-1.23449099861
30
0
40
1.20180197801
50
30.0
51
150.0
0
ARC
8
drawinglayer
10
0.0150008929103
20
-1.28689065959
30
0
40
0.940095640614
50
30.0
51
150.0
0
ARC
8
drawinglayer
10
0.127507589737
20
-0.555407209613
30
0
40
0.754649511451
50
30.0
51
150.0
0
ARC
8
drawinglayer
10
0.085005059825
20
-0.92485096902
30
0
40
0.912494791357
50
30.0
51
150.0
0
ARC
8
drawinglayer
10
0.152662148257
20
-0.741840075515
30
0
40
0.741030503516
50
30.0
51
150.0
0
ARC
8
drawinglayer
10
0.101774765505
20
-1.04739907988
30
0
40
0.866071960066
50
30.0
51
150.0
0
ARC
8
drawinglayer
10
0.424396009967
20
-0.533747757094
30
0
40
0.734797139286
50
30.0
51
150.0
0
ARC
8
drawinglayer
10
0.281764220659
20
-0.666391706989
30
0
40
0.519988434686
50
30.0
51
150.0
0
ARC
8
drawinglayer
10
0.187842813773
20
-0.987677837967
30
0
40
0.701079145868
50
30.0
51
150.0
0
ARC
8
drawinglayer
10
0.0939214068865
20
-1.30896396894
30
0
40
0.882169857049
50
30.0
51
150.0
0
ARC
8
drawinglayer
10
0.119859742218
20
-1.22144458712
30
0
40
0.789808917197
50
30.0
51
150.0
0
ARC
8
drawinglayer
10
0.257985877844
20
-0.614781492096
30
0
40
0.540049152586
50
30.0
51
150.0
0
ARC
8
drawinglayer
10
0.261992635616
20
-0.812008367845
30
0
40
0.58805371068
50
30.0
51
150.0
0
ARC
8
drawinglayer
10
0.256554386741
20
-0.713826503278
30
0
40
0.701470325615
50
30.0
51
150.0
0
ARC
8
drawinglayer
10
0.325359502691
20
-0.962154776787
30
0
40
0.646313981274
50
30.0
51
150.0
0
ARC
8
drawinglayer
10
0.454925038055
20
-0.817474963079
30
0
40
0.728155587492
50
30.0
51
150.0
0
ARC
8
drawinglayer
10
0.28894010131
20
-1.14180265832
30
0
40
0.761740353026
50
30.0
51
150.0
0
ARC
8
drawinglayer
10
0.415914779508
20
-1.10972591906
30
0
40
0.916590840158
50
30.0
51
150.0
0
ARC
8
drawinglayer
10
0.443308700348
20
-0.950963634457
30
0
40
0.757828555555
50
30.0
51
150.0
0
ARC
8
drawinglayer
10
0.305290280884
20
-1.22971605453
30
0
40
0.878070973612
50
30.0
51
150.0
0
ARC
8
drawinglayer
10
-0.0155153793168
20
-0.456085821435
30
0
40
0.703447484119
50
30.0
51
150.0
0
ARC
8
drawinglayer
10
0.000348660209366
20
-0.728572278962
30
0
40
0.725561895691
50
30.0
51
150.0
0
ENDSEC
0
EOF
