0
SECTION
2
HEADER
9
$ACADVER
1
AC1006
9
$INSBASE
10
0.0
20
0.0
30
0.0
9
$EXTMIN
10
0.0
20
0.0
9
$EXTMAX
10
0.0
20
0.0
0
ENDSEC
0
SECTION
2
TABLES
0
TABLE
2
LTYPE
70
1
0
LTYPE
2
CONTINUOUS
70
64
3
Solid line
72
65
73
0
40
0.0
0
ENDTAB
0
TABLE
2
LAYER
70
1
0
LAYER
2
PYDXF
70
64
62
7
6
continuous
0
ENDTAB
0
TABLE
2
STYLE
70
1
0
STYLE
2
STANDARD
70
0
40
0
41
40
50
50
71
0
42
1
3
ARIAL.TTF
4

0
ENDTAB
0
TABLE
2
VIEW
70
0
0
ENDTAB
0
ENDSEC
0
SECTION
2
BLOCKS
0
ENDSEC
0
SECTION
2
ENTITIES
0
LINE
8
0
10
-1648.25494588
20
-1369.75374199
11
-1624.30205412
21
-1339.27613801
0
LINE
8
0
10
-1647.65455641
20
-1079.47918981
11
-1624.90244359
21
-1048.09501019
0
LINE
8
0
10
-1648.10763065
20
-1030.68589642
11
-1624.44936935
21
-999.979023576
0
LINE
8
0
10
-1647.36352004
20
-740.503634835
11
-1625.19347996
21
-708.705605165
0
LINE
8
0
10
-1646.20060658
20
-450.526348855
11
-1626.35639342
21
-417.227211145
0
LINE
8
0
10
-1646.94193081
20
-401.606934884
11
-1625.61506919
21
-369.237345116
0
LINE
8
0
10
-1646.95052374
20
-256.237350114
11
-1625.60647626
21
-223.879089886
0
LINE
8
0
10
-1647.52299252
20
-207.390211372
11
-1625.03400748
21
-175.816948628
0
LINE
8
0
10
-1647.45109307
20
-62.0772578644
11
-1625.10590693
21
-30.4020621356
0
LINE
8
0
10
-1647.91485365
20
-13.2850721192
11
-1624.64214635
21
17.7150321192
0
LINE
8
0
10
-1647.80777807
20
131.999038344
11
-1624.74922193
21
163.158761656
0
LINE
8
0
10
-1648.19637427
20
180.748887079
11
-1624.36062573
21
211.318192921
0
LINE
8
0
10
-1600.46386366
20
-1320.75338169
11
-1575.18385634
21
-1291.36721831
0
LINE
8
0
10
-1599.9975388
20
-1030.41416701
11
-1575.6501812
21
-1000.25075299
0
LINE
8
0
10
-1600.41792748
20
-981.610294544
11
-1575.22979252
21
-952.145345456
0
LINE
8
0
10
-1599.8558601
20
-691.344956656
11
-1575.7918599
21
-660.955003344
0
LINE
8
0
10
-1600.35582885
20
-642.480673903
11
-1575.29189115
21
-612.910006097
0
LINE
8
0
10
-1599.6508503
20
-352.322585227
11
-1575.9968697
21
-321.612414773
0
LINE
8
0
10
-1599.47155738
20
-207.095109547
11
-1576.17616262
21
-176.112050453
0
LINE
8
0
10
-1600.00012957
20
-158.228555422
11
-1575.64759043
21
-128.069324578
0
LINE
8
0
10
-1599.80425638
20
-13.0207163907
11
-1575.84346362
21
17.4506763907
0
LINE
8
0
10
-1600.23563647
20
35.7832454669
11
-1575.41208353
21
65.5559945331
0
LINE
8
0
10
-1600.04117576
20
180.987160451
11
-1575.60654424
21
211.079919549
0
LINE
8
0
10
-1600.40502181
20
229.744682807
11
-1575.24269819
21
259.231677193
0
LINE
8
0
10
-1552.65213806
20
-1271.72020674
11
-1526.08630194
21
-1243.49111326
0
LINE
8
0
10
-1552.70141281
20
-932.491192542
11
-1526.03702719
21
-904.355167458
0
LINE
8
0
10
-1552.31619396
20
-642.118661643
11
-1526.42224604
21
-613.272018357
0
LINE
8
0
10
-1552.76761085
20
-593.245679994
11
-1525.97082915
21
-565.235720006
0
LINE
8
0
10
-1552.31620767
20
-302.936169336
11
-1526.42223233
21
-274.089550664
0
LINE
8
0
10
-1552.44416135
20
-109.001719425
11
-1526.29427865
21
-80.3868805747
0
LINE
8
0
10
-1552.53088432
20
84.8965780225
11
-1526.20755568
21
113.351941977
0
LINE
8
0
10
-1552.25603885
20
230.011086299
11
-1526.48240115
21
258.965273701
0
LINE
8
0
10
-1552.59353098
20
278.773347843
11
-1526.14490902
21
307.112292157
0
LINE
8
0
10
-1504.81559876
20
-1222.65724151
11
-1477.01356124
21
-1195.64479849
0
LINE
8
0
10
-1504.95178136
20
-883.333169434
11
-1476.87737864
21
-856.603910566
0
LINE
8
0
10
-1504.73277713
20
-592.831644414
11
-1477.09638287
21
-565.649755586
0
LINE
8
0
10
-1505.13301354
20
-543.957714776
11
-1476.69614646
21
-517.614405224
0
LINE
8
0
10
-1504.91663606
20
-253.459666497
11
-1476.91252394
21
-226.656773503
0
LINE
8
0
10
-1504.84388517
20
-59.7167071335
11
-1476.98527483
21
-32.7626128665
0
LINE
8
0
10
-1504.7940309
20
134.050515586
11
-1477.0351291
21
161.107284414
0
LINE
8
0
10
-1504.4477394
20
279.068024914
11
-1477.3814206
21
306.817615086
0
LINE
8
0
10
-1504.75773577
20
327.831938254
11
-1477.07142423
21
354.962981746
0
LINE
8
0
10
-1456.95048688
20
-1173.56806959
11
-1427.96939312
21
-1147.82469041
0
LINE
8
0
10
-1457.16345846
20
-834.141761537
11
-1427.75642154
21
-808.886038463
0
LINE
8
0
10
-1457.09514135
20
-543.493035386
11
-1427.82473865
21
-518.079084614
0
LINE
8
0
10
-1457.44327954
20
-494.625966684
11
-1427.47660046
21
-470.036873316
0
LINE
8
0
10
-1444.17873846
20
-453.18227336
11
-1440.74114154
21
-414.57128664
0
LINE
8
0
10
-1444.87947529
20
-404.652381574
11
-1440.04040471
21
-366.191898426
0
LINE
8
0
10
-1445.57070782
20
-356.098089786
11
-1439.34917218
21
-317.836910214
0
LINE
8
0
10
-1457.43356856
20
-203.909951919
11
-1427.48631144
21
-179.297208081
0
LINE
8
0
10
-1457.18940944
20
-10.3826019948
11
-1427.73047056
21
14.8125619948
0
LINE
8
0
10
-1457.01919941
20
183.239623188
11
-1427.90068059
21
208.827456812
0
LINE
8
0
10
-1456.61200783
20
328.154525352
11
-1428.30787217
21
354.640394648
0
LINE
8
0
10
-1456.89386561
20
376.916948918
11
-1428.02601439
21
402.787251082
0
LINE
8
0
10
-1409.05356848
20
-1124.45672906
11
-1378.95703152
21
-1100.02675094
0
LINE
8
0
10
-1409.05842346
20
-833.722905527
11
-1378.95217654
21
-809.304894473
0
LINE
8
0
10
-1409.33181827
20
-784.923246671
11
-1378.67878173
21
-761.195273329
0
LINE
8
0
10
-1409.39471224
20
-494.113708949
11
-1378.61588776
21
-470.549131051
0
LINE
8
0
10
-1397.93424003
20
-307.492316584
11
-1390.07635997
21
-269.533403416
0
LINE
8
0
10
-1398.6210524
20
-258.882437695
11
-1389.3895476
21
-221.234002305
0
LINE
8
0
10
-1399.28991892
20
-210.251077014
11
-1388.72068108
21
-172.956082986
0
LINE
8
0
10
-1409.85283476
20
-154.307433801
11
-1378.15776524
21
-131.990446199
0
LINE
8
0
10
-1409.47271746
20
38.9899222732
11
-1378.53788254
21
62.3493177268
0
LINE
8
0
10
-1408.91814512
20
183.653580691
11
-1379.09245488
21
208.413499309
0
LINE
8
0
10
-1409.20144044
20
232.457649765
11
-1378.80915956
21
256.518710235
0
LINE
8
0
10
-1408.74507166
20
377.266573656
11
-1379.26552834
21
402.437626344
0
LINE
8
0
10
-1408.99865919
20
426.024414396
11
-1379.01194081
21
450.589065604
0
LINE
8
0
10
-1353.6156708
20
-1565.9576863
11
-1337.4856492
21
-1530.7093137
0
LINE
8
0
10
-1354.18475504
20
-1517.23134526
11
-1336.91656496
21
-1482.52637474
0
LINE
8
0
10
-1361.12222137
20
-1075.32758606
11
-1329.97909863
21
-1052.24661394
0
LINE
8
0
10
-1361.21639792
20
-784.471577799
11
-1329.88492208
21
-761.646942201
0
LINE
8
0
10
-1361.62524656
20
-444.705630773
11
-1329.47607344
21
-423.047929227
0
LINE
8
0
10
-1361.8792846
20
-153.590796196
11
-1329.2220354
21
-132.707083804
0
LINE
8
0
10
-1362.1656331
20
-104.674230405
11
-1328.9356869
21
-84.7143695949
0
LINE
8
0
10
-1352.96110279
20
-64.1489224004
11
-1338.14021721
21
-28.3303975996
0
LINE
8
0
10
-1353.55543375
20
-15.436647098
11
-1337.54588625
21
19.866607098
0
LINE
8
0
10
-1361.42042114
20
39.5427595528
11
-1329.68089886
21
61.7964804472
0
LINE
8
0
10
-1361.68805462
20
88.3892315025
11
-1329.41326538
21
109.859288498
0
LINE
8
0
10
-1361.0908246
20
232.905450346
11
-1330.0104954
21
256.070909654
0
LINE
8
0
10
-1360.84376953
20
426.399719262
11
-1330.25755047
21
450.213760738
0
LINE
8
0
10
-1306.01461329
20
-1517.08685337
11
-1288.17742671
21
-1482.67086663
0
LINE
8
0
10
-1306.56485033
20
-1468.3356834
11
-1287.62718967
21
-1434.5127566
0
LINE
8
0
10
-1312.95814047
20
-1074.92485006
11
-1281.23389953
21
-1052.64934994
0
LINE
8
0
10
-1313.15449025
20
-1026.18519583
11
-1281.03754975
21
-1004.47972417
0
LINE
8
0
10
-1313.32345536
20
-735.203048364
11
-1280.86858464
21
-714.006191636
0
LINE
8
0
10
-1297.43373007
20
-695.528893641
11
-1296.75830993
21
-656.771066359
0
LINE
8
0
10
-1313.55700871
20
-444.108700289
11
-1280.63503129
21
-423.644859711
0
LINE
8
0
10
-1313.78303892
20
-395.281132933
11
-1280.40900108
21
-375.563147067
0
LINE
8
0
10
-1314.15058346
20
-103.902894205
11
-1280.04145654
21
-85.4857057954
0
LINE
8
0
10
-1305.37243148
20
-15.3109252557
11
-1288.81960852
21
19.7408852557
0
LINE
8
0
10
-1305.95078784
20
33.4286969247
11
-1288.24125216
21
67.9105430753
0
LINE
8
0
10
-1313.61285547
20
88.9827370393
11
-1280.57918453
21
109.265782961
0
LINE
8
0
10
-1313.21246514
20
282.176365714
11
-1280.97957486
21
303.709274286
0
LINE
8
0
10
-1312.90563253
20
475.54922171
11
-1281.28640747
21
497.97353829
0
LINE
8
0
10
-1258.94507358
20
-1419.38573791
11
-1238.33768642
21
-1386.55342209
0
LINE
8
0
10
-1259.44170474
20
-1370.60870673
11
-1237.84105526
21
-1338.42117327
0
LINE
8
0
10
-1264.9785978
20
-1025.76086623
11
-1232.3041622
21
-1004.90405377
0
LINE
8
0
10
-1265.37782993
20
-685.924824544
11
-1231.90493007
21
-666.375135456
0
LINE
8
0
10
-1250.39080066
20
-646.998082534
11
-1246.89195934
21
-608.392597466
0
LINE
8
0
10
-1251.75166004
20
-598.371369096
11
-1245.53109996
21
-560.110030904
0
LINE
8
0
10
-1253.06694135
20
-549.65589701
11
-1244.21581865
21
-511.91622299
0
LINE
8
0
10
-1254.32080279
20
-500.862488475
11
-1242.96195721
21
-463.800351525
0
LINE
8
0
10
-1255.50130451
20
-452.00404614
11
-1241.78145549
21
-415.74951386
0
LINE
8
0
10
-1265.68617081
20
-394.648810487
11
-1231.59658919
21
-376.195469513
0
LINE
8
0
10
-1266.11975481
20
-103.070621153
11
-1231.16300519
21
-86.3179788466
0
LINE
8
0
10
-1266.30412881
20
-54.2198634155
11
-1230.97863119
21
-38.2594565845
0
LINE
8
0
10
-1258.3515333
20
82.3501947518
11
-1238.9312267
21
115.898325248
0
LINE
8
0
10
-1265.72850305
20
138.430863709
11
-1231.55425695
21
156.726936291
0
LINE
8
0
10
-1265.28098513
20
331.458653072
11
-1232.00177487
21
351.336266928
0
LINE
8
0
10
-1264.92892825
20
524.710206658
11
-1232.35383175
21
545.721833342
0
LINE
8
0
10
-1211.78563167
20
-1321.5884053
11
-1188.58784833
21
-1290.5321947
0
LINE
8
0
10
-1216.95920354
20
-976.590739689
11
-1183.41427646
21
-957.164900311
0
LINE
8
0
10
-1217.22480023
20
-685.389073336
11
-1183.14867977
21
-666.910886664
0
LINE
8
0
10
-1208.64888657
20
-402.859124185
11
-1191.72459343
21
-367.985155815
0
LINE
8
0
10
-1217.73706688
20
-345.191998056
11
-1182.63641312
21
-328.743001944
0
LINE
8
0
10
-1218.21587271
20
-53.3534997388
11
-1182.15760729
21
-39.1258202612
0
LINE
8
0
10
-1217.61442491
20
139.097618227
11
-1182.75905509
21
156.060181773
0
LINE
8
0
10
-1211.24946915
20
180.119006836
11
-1189.12401085
21
211.948073164
0
LINE
8
0
10
-1211.71804887
20
228.909821368
11
-1188.65543113
21
260.066538632
0
LINE
8
0
10
-1217.13433636
20
331.993454489
11
-1183.23914364
21
350.801465511
0
LINE
8
0
10
-1216.75168355
20
525.15326754
11
-1183.62179645
21
545.27877246
0
LINE
8
0
10
-1164.1111625
20
-1272.51924957
11
-1139.3530375
21
-1242.69207043
0
LINE
8
0
10
-1164.51671
20
-1223.71845249
11
-1138.94749
21
-1194.58358751
0
LINE
8
0
10
-1168.76524262
20
-976.125976282
11
-1134.69895738
21
-957.629663718
0
LINE
8
0
10
-1169.20252275
20
-636.088234069
11
-1134.26167725
21
-619.302445931
0
LINE
8
0
10
-1169.59250598
20
-344.494932522
11
-1133.87169402
21
-329.440067478
0
LINE
8
0
10
-1162.78451894
20
-304.434555184
11
-1140.67968106
21
-272.591164816
0
LINE
8
0
10
-1170.09715131
20
-52.434918861
11
-1133.36704869
21
-40.044401139
0
LINE
8
0
10
-1169.6171745
20
188.564908802
11
-1133.8470255
21
203.502171198
0
LINE
8
0
10
-1163.60637928
20
229.169634587
11
-1139.85782072
21
259.806725413
0
LINE
8
0
10
-1164.04289477
20
277.972827541
11
-1139.42130523
21
307.912812459
0
LINE
8
0
10
-1169.12562901
20
381.300989518
11
-1134.33857099
21
398.403210482
0
LINE
8
0
10
-1168.71981571
20
574.339322646
11
-1134.74438429
21
593.001997354
0
LINE
8
0
10
-1116.41120594
20
-1223.40447781
11
-1090.14371406
21
-1194.89756219
0
LINE
8
0
10
-1116.78212239
20
-1174.59891343
11
-1089.77279761
21
-1146.79384657
0
LINE
8
0
10
-1120.68822013
20
-926.939151674
11
-1085.86669987
21
-909.907208326
0
LINE
8
0
10
-1121.01601186
20
-635.505597362
11
-1085.53890814
21
-619.885082638
0
LINE
8
0
10
-1121.42946246
20
-343.761699635
11
-1085.12545754
21
-330.173300365
0
LINE
8
0
10
-1115.82685954
20
-254.828762077
11
-1090.72806046
21
-225.287677923
0
LINE
8
0
10
-1122.01291339
20
-2.74880165336
11
-1084.54200661
21
7.17876165336
0
LINE
8
0
10
-1121.44825285
20
189.289755525
11
-1085.10666715
21
202.777324475
0
LINE
8
0
10
-1115.941404
20
278.270367429
11
-1090.613516
21
307.615272571
0
LINE
8
0
10
-1116.34303336
20
327.081485185
11
-1090.21188664
21
355.713434815
0
LINE
8
0
10
-1120.94596737
20
381.884654405
11
-1085.60895263
21
397.819545595
0
LINE
8
0
10
-1120.5217493
20
574.822449521
11
-1086.0331707
21
592.518870479
0
LINE
8
0
10
-1068.67907772
20
-1174.24851872
11
-1040.96656228
21
-1147.14424128
0
LINE
8
0
10
-1069.0139838
20
-1125.44277072
11
-1040.6316562
21
-1099.04070928
0
LINE
8
0
10
-1072.46948304
20
-926.438891164
11
-1037.17615696
21
-910.407468836
0
LINE
8
0
10
-1072.91191742
20
-586.200649456
11
-1036.73372258
21
-572.280750544
0
LINE
8
0
10
-1073.32295936
20
-294.292235879
11
-1036.32268064
21
-282.733484121
0
LINE
8
0
10
-1068.77114062
20
-205.060945784
11
-1040.87449938
21
-178.146214216
0
LINE
8
0
10
-1073.78786884
20
-1.78292749627
11
-1035.85777116
21
6.21288749627
0
LINE
8
0
10
-1073.25737903
20
190.048276812
11
-1036.38826097
21
202.018803188
0
LINE
8
0
10
-1068.61179748
20
376.231511101
11
-1041.03384252
21
403.472688899
0
LINE
8
0
10
-1072.85415906
20
431.198494517
11
-1036.79148094
21
445.414985483
0
LINE
8
0
10
-1072.42929016
20
624.021686574
11
-1037.21634984
21
640.228913426
0
LINE
8
0
10
-1020.90878626
20
-1125.05685263
11
-991.82757374
21
-1099.42662737
0
LINE
8
0
10
-1024.3313305
20
-877.247383737
11
-988.405029501
21
-862.689696263
0
LINE
8
0
10
-1024.6835111
20
-585.581440394
11
-988.052848901
21
-572.899959606
0
LINE
8
0
10
-1025.09238822
20
-293.5188932
11
-987.643971776
21
-283.5068268
0
LINE
8
0
10
-1021.57453534
20
-155.166556206
11
-991.16182466
21
-131.131323794
0
LINE
8
0
10
-1025.51646642
20
-0.784931536731
11
-987.219893581
21
5.21489153673
0
LINE
8
0
10
-1025.0993264
20
239.5081703
11
-987.637033602
21
249.4681897
0
LINE
8
0
10
-1024.63255162
20
431.820672532
11
-988.103808376
21
444.792807468
0
LINE
8
0
10
-1024.20373179
20
624.539165647
11
-988.532628212
21
639.711434353
0
LINE
8
0
10
-973.095278201
20
-1075.83579981
11
-942.731801799
21
-1051.73840019
0
LINE
8
0
10
-976.082167022
20
-876.718157333
11
-939.744912978
21
-863.218922667
0
LINE
8
0
10
-976.438595586
20
-584.93970496
11
-939.388484414
21
-573.54169504
0
LINE
8
0
10
-958.08737612
20
-356.348576415
11
-957.73970388
21
-317.586423585
0
LINE
8
0
10
-976.833480979
20
-292.719066764
11
-938.993599021
21
-284.306653236
0
LINE
8
0
10
-959.750817383
20
-259.352798353
11
-956.076262617
21
-220.763641647
0
LINE
8
0
10
-974.206661509
20
-105.19146788
11
-941.620418491
21
-84.1971321195
0
LINE
8
0
10
-977.194315832
20
0.238107389832
11
-938.632764168
21
4.19185261016
0
LINE
8
0
10
-976.836853262
20
240.297170911
11
-938.990226738
21
248.679189089
0
LINE
8
0
10
-976.394483949
20
432.466273174
11
-939.432596051
21
444.147206826
0
LINE
8
0
10
-973.03207498
20
474.633468306
11
-942.79500502
21
498.889291694
0
LINE
8
0
10
-976.047965431
20
673.738963734
11
-939.779114569
21
687.420916266
0
LINE
8
0
10
-915.509913399
20
-1566.74658173
11
-903.407886601
21
-1529.92041827
0
LINE
8
0
10
-916.248726664
20
-1518.03249864
11
-902.669073336
21
-1481.72522136
0
LINE
8
0
10
-925.234620788
20
-1026.59225465
11
-893.683179212
21
-1004.07266535
0
LINE
8
0
10
-927.821460369
20
-876.171178043
11
-891.096339631
21
-863.765901957
0
LINE
8
0
10
-927.882089043
20
-827.534070055
11
-891.035710957
21
-815.493729945
0
LINE
8
0
10
-928.22126483
20
-535.647130663
11
-890.69653517
21
-525.924989337
0
LINE
8
0
10
-928.567765637
20
-243.299762236
11
-890.350034363
21
-236.816677764
0
LINE
8
0
10
-912.232375529
20
-210.78597233
11
-906.685424471
21
-172.42118767
0
LINE
8
0
10
-913.070383617
20
-162.191353925
11
-905.847416383
21
-124.106526075
0
LINE
8
0
10
-926.350197814
20
-104.199056712
11
-892.567602186
21
-85.1895432883
0
LINE
8
0
10
-914.681284675
20
-64.9046818405
11
-904.236515325
21
-27.5746381595
0
LINE
8
0
10
-928.818099687
20
1.27810782692
11
-890.099700313
21
3.15185217307
0
LINE
8
0
10
-928.543843279
20
241.108641266
11
-890.373956721
21
247.867718734
0
LINE
8
0
10
-928.18704601
20
481.770098699
11
-890.73075399
21
491.752661301
0
LINE
8
0
10
-925.174474139
20
523.872428352
11
-893.743325861
21
546.559611648
0
LINE
8
0
10
-927.789525855
20
674.283552325
11
-891.128274145
21
686.876327675
0
LINE
8
0
10
-868.800550368
20
-1469.16891494
11
-853.207969632
21
-1433.67952506
0
LINE
8
0
10
-869.489152242
20
-1420.3955074
11
-852.519367758
21
-1385.5436526
0
LINE
8
0
10
-877.112068746
20
-1026.11183101
11
-844.896451254
21
-1004.55308899
0
LINE
8
0
10
-877.324106068
20
-977.333391066
11
-844.684413932
21
-956.422248934
0
LINE
8
0
10
-879.598333569
20
-826.983522483
11
-842.410186431
21
-816.044277517
0
LINE
8
0
10
-879.925638604
20
-534.985794958
11
-842.082881396
21
-526.586325042
0
LINE
8
0
10
-880.232788521
20
-242.491331777
11
-841.775731479
21
-237.625108223
0
LINE
8
0
10
-878.712974963
20
-54.117334553
11
-843.295545037
21
-38.361985447
0
LINE
8
0
10
-880.385796443
20
2.32627738911
11
-841.622723557
21
2.10368261088
0
LINE
8
0
10
-868.005696205
20
32.5965396575
11
-854.002823795
21
68.7427003425
0
LINE
8
0
10
-868.729482155
20
81.3485100956
11
-853.279037845
21
116.900009904
0
LINE
8
0
10
-880.217726267
20
241.93885538
11
-841.790793733
21
247.03750462
0
LINE
8
0
10
-879.897525734
20
482.436931835
11
-842.110994266
21
491.085828165
0
LINE
8
0
10
-877.052472921
20
524.348122133
11
-844.956047079
21
546.083917867
0
LINE
8
0
10
-879.518326374
20
674.845335539
11
-842.490193626
21
686.314544461
0
LINE
8
0
10
-822.034444787
20
-1371.41743806
11
-803.064795213
21
-1337.61244194
0
LINE
8
0
10
-822.655872042
20
-1322.59874042
11
-802.443367958
21
-1289.52185958
0
LINE
8
0
10
-829.183901728
20
-976.825533978
11
-795.915338272
21
-956.930106022
0
LINE
8
0
10
-831.300729657
20
-826.418207153
11
-793.798510343
21
-816.609592847
0
LINE
8
0
10
-831.608667887
20
-534.308706113
11
-793.490572113
21
-527.263413887
0
LINE
8
0
10
-831.864359616
20
-241.669795489
11
-793.234880384
21
-238.446644511
0
LINE
8
0
10
-830.730490857
20
-52.9562273427
11
-794.368749143
21
-39.5230926573
0
LINE
8
0
10
-831.896822336
20
3.3734720262
11
-793.202417664
21
1.05648797379
0
LINE
8
0
10
-821.295630675
20
130.28255243
11
-803.803609325
21
164.87524757
0
LINE
8
0
10
-821.957572444
20
179.088134345
11
-803.141667556
21
212.978945655
0
LINE
8
0
10
-831.85637326
20
242.783591905
11
-793.24286674
21
246.192768095
0
LINE
8
0
10
-831.586401207
20
483.120322013
11
-793.512838793
21
490.402437987
0
LINE
8
0
10
-829.128403627
20
573.630725964
11
-795.970836373
21
593.710594036
0
LINE
8
0
10
-831.275555979
20
724.035013648
11
-793.823684021
21
734.034146352
0
LINE
8
0
10
-775.164211589
20
-1273.51567113
11
-753.025748411
21
-1241.69564887
0
LINE
8
0
10
-781.20132696
20
-927.535217956
11
-746.98863304
21
-909.311142044
0
LINE
8
0
10
-782.988051145
20
-825.839198224
11
-745.201908855
21
-817.188601776
0
LINE
8
0
10
-783.268825897
20
-533.618016129
11
-744.921134103
21
-527.954103871
0
LINE
8
0
10
-764.187889131
20
-501.713053313
11
-764.002070869
21
-462.949786687
0
LINE
8
0
10
-766.133668804
20
-453.151117601
11
-762.056291196
21
-414.602442399
0
LINE
8
0
10
-768.019197937
20
-404.402573493
11
-760.170762063
21
-366.441706507
0
LINE
8
0
10
-769.795534178
20
-355.492078918
11
-758.394425822
21
-318.442921082
0
LINE
8
0
10
-783.461086083
20
-240.839422401
11
-744.728873917
21
-239.277017599
0
LINE
8
0
10
-783.352073209
20
4.41058997437
11
-744.837886791
21
0.019370025628
0
LINE
8
0
10
-783.458190568
20
243.638227942
11
-744.731769432
21
245.338132058
0
LINE
8
0
10
-775.084692583
20
276.97777821
11
-753.105267417
21
308.90786179
0
LINE
8
0
10
-783.2520499
20
483.818080005
11
-744.9379101
21
489.704679995
0
LINE
8
0
10
-780.984908803
20
574.163470771
11
-747.205051197
21
593.177849229
0
LINE
8
0
10
-782.965613983
20
724.61241819
11
-745.224346017
21
733.45674181
0
LINE
8
0
10
-727.653210764
20
-1224.36112447
11
-703.627469236
21
-1193.94091553
0
LINE
8
0
10
-728.15219682
20
-1175.49873728
11
-703.12848318
21
-1145.89402272
0
LINE
8
0
10
-733.032858172
20
-926.976346294
11
-698.247821828
21
-909.870013706
0
LINE
8
0
10
-734.681117827
20
-776.679359687
11
-696.599562173
21
-769.439160313
0
LINE
8
0
10
-734.904793221
20
-532.91612669
11
-696.375886779
21
-528.65599331
0
LINE
8
0
10
-723.661611091
20
-306.156996479
11
-707.619068909
21
-270.868723521
0
LINE
8
0
10
-735.022122162
20
-240.004720146
11
-696.258557838
21
-240.111719854
0
LINE
8
0
10
-734.753860476
20
5.4289614929
11
-696.526819524
21
-0.999001492901
0
LINE
8
0
10
-735.022193584
20
244.497857888
11
-696.258486416
21
244.478502112
0
LINE
8
0
10
-727.029284367
20
277.260081457
11
-704.251395633
21
308.625558543
0
LINE
8
0
10
-727.572109289
20
326.123651581
11
-703.708570711
21
356.671268419
0
LINE
8
0
10
-734.893060064
20
484.527747947
11
-696.387619936
21
488.995012053
0
LINE
8
0
10
-732.983686075
20
623.472861677
11
-698.296993925
21
640.777738323
0
LINE
8
0
10
-734.639592786
20
725.202513248
11
-696.641087214
21
732.866646752
0
LINE
8
0
10
-680.110708112
20
-1175.13938894
11
-654.260691888
21
-1146.25337106
0
LINE
8
0
10
-680.561607613
20
-1126.26819492
11
-653.809792387
21
-1098.21528508
0
LINE
8
0
10
-684.970752928
20
-877.672320523
11
-649.400647072
21
-862.264759477
0
LINE
8
0
10
-686.32846818
20
-776.094184776
11
-648.04293182
21
-770.024335224
0
LINE
8
0
10
-686.515498135
20
-532.205653623
11
-647.855901865
21
-529.366466377
0
LINE
8
0
10
-686.547207361
20
-239.170315328
11
-647.824192639
21
-240.946124672
0
LINE
8
0
10
-678.964036992
20
-206.996017094
11
-655.407363008
21
-176.211142906
0
LINE
8
0
10
-680.085291437
20
-157.614654042
11
-654.286108563
21
-128.683225958
0
LINE
8
0
10
-686.398025449
20
-0.342927905143
11
-647.973374551
21
4.77288790514
0
LINE
8
0
10
-686.548053812
20
245.357430753
11
-647.823346188
21
243.618929247
0
LINE
8
0
10
-680.029310374
20
375.336659443
11
-654.342089626
21
404.367540557
0
LINE
8
0
10
-686.512477788
20
533.755882223
11
-647.858922212
21
536.676157777
0
LINE
8
0
10
-684.807680259
20
624.055470154
11
-649.563719741
21
640.195129846
0
LINE
8
0
10
-686.296406381
20
725.803907682
11
-648.074993619
21
732.265252318
0
LINE
8
0
10
-618.847213942
20
-1567.71500795
11
-618.614906058
21
-1528.95199205
0
LINE
8
0
10
-619.465556433
20
-1519.24679373
11
-617.996563567
21
-1480.51092627
0
LINE
8
0
10
-620.081661656
20
-1470.7589612
11
-617.380458344
21
-1432.0894788
0
LINE
8
0
10
-620.693681032
20
-1422.25181174
11
-616.768438968
21
-1383.68734826
0
LINE
8
0
10
-621.299827179
20
-1373.72581653
11
-616.162292821
21
-1335.30406347
0
LINE
8
0
10
-621.898399106
20
-1325.181605
11
-615.563720894
21
-1286.938995
0
LINE
8
0
10
-622.487804493
20
-1276.6199497
11
-614.974315507
21
-1238.5913703
0
LINE
8
0
10
-623.066578443
20
-1228.04174846
11
-614.395541557
21
-1190.26029154
0
LINE
8
0
10
-632.525079515
20
-1125.85722264
11
-604.937040485
21
-1098.62625736
0
LINE
8
0
10
-632.925253071
20
-1076.98487349
11
-604.536866929
21
-1050.58932651
0
LINE
8
0
10
-636.764528243
20
-877.071382046
11
-600.697591757
21
-862.865697954
0
LINE
8
0
10
-637.958573702
20
-775.500378361
11
-599.503546298
21
-770.618141639
0
LINE
8
0
10
-638.100150839
20
-531.489382162
11
-599.361969161
21
-530.082737838
0
LINE
8
0
10
-638.036678379
20
-238.340826329
11
-599.425441621
21
-241.775613671
0
LINE
8
0
10
-632.577194944
20
-156.711420935
11
-604.884925056
21
-129.586459065
0
LINE
8
0
10
-633.44210694
20
-107.313390298
11
-604.02001306
21
-82.0752097023
0
LINE
8
0
10
-638.074553639
20
0.996129785781
11
-599.387566361
21
3.43383021421
0
LINE
8
0
10
-638.036114803
20
246.211897219
11
-599.426005197
21
242.764462781
0
LINE
8
0
10
-632.444731168
20
424.610332985
11
-605.017388832
21
452.003147015
0
LINE
8
0
10
-638.097973179
20
534.455089047
11
-599.364146821
21
535.976950953
0
LINE
8
0
10
-636.723015069
20
673.372589946
11
-600.739104931
21
687.787290054
0
LINE
8
0
10
-637.946004605
20
774.951062041
11
-599.516115395
21
780.027377959
0
LINE
8
0
10
-571.083214328
20
-1567.6985568
11
-569.469625672
21
-1528.9684432
0
LINE
8
0
10
-571.791222379
20
-1519.20143011
11
-568.761617621
21
-1480.55628989
0
LINE
8
0
10
-572.493183238
20
-1470.67888963
11
-568.059656762
21
-1432.16955037
0
LINE
8
0
10
-573.186418032
20
-1422.13173681
11
-567.366421968
21
-1383.80742319
0
LINE
8
0
10
-573.868415898
20
-1373.56103953
11
-566.684424102
21
-1335.46884047
0
LINE
8
0
10
-574.74744451
20
-1228.01013668
11
-565.80539549
21
-1190.29190332
0
LINE
8
0
10
-575.329627146
20
-1179.40791226
11
-565.223212854
21
-1141.98484774
0
LINE
8
0
10
-575.897498653
20
-1130.79058947
11
-564.655341347
21
-1093.69289053
0
LINE
8
0
10
-584.885940258
20
-1076.52359323
11
-555.666899742
21
-1051.05060677
0
LINE
8
0
10
-585.23443046
20
-1027.65781051
11
-555.31840954
21
-1003.00710949
0
LINE
8
0
10
-572.0153141
20
-986.18151367
11
-568.5375259
21
-947.57412633
0
LINE
8
0
10
-572.713436776
20
-937.651213993
11
-567.839403224
21
-899.195146007
0
LINE
8
0
10
-588.543910117
20
-876.445819276
11
-552.008929883
21
-863.491260724
0
LINE
8
0
10
-588.620055565
20
-827.772284478
11
-551.932784435
21
-815.255515522
0
LINE
8
0
10
-589.570715468
20
-774.899505749
11
-550.982124532
21
-771.219014251
0
LINE
8
0
10
-589.658269523
20
-530.770214587
11
-550.894570477
21
-530.801905413
0
LINE
8
0
10
-589.491453706
20
-237.52073666
11
-551.061386294
21
-242.59570334
0
LINE
8
0
10
-585.90454788
20
-106.158067312
11
-554.64829212
21
-83.2305326884
0
LINE
8
0
10
-588.573101026
20
-39.8453026872
11
-551.979738974
21
-52.6340173128
0
LINE
8
0
10
-589.657785132
20
2.35292060356
11
-550.895054868
21
2.07703939644
0
LINE
8
0
10
-589.487375495
20
247.056356588
11
-551.065464505
21
241.920003412
0
LINE
8
0
10
-584.807966706
20
473.935995315
11
-555.744873294
21
499.586764685
0
LINE
8
0
10
-589.658186998
20
535.157283084
11
-550.894653002
21
535.274756916
0
LINE
8
0
10
-588.505300082
20
673.994784499
11
-552.047539918
21
687.165095501
0
LINE
8
0
10
-589.561169497
20
775.551494831
11
-550.991670503
21
779.426945169
0
LINE
8
0
10
-523.558396859
20
-1567.63739867
11
-520.085163141
21
-1529.02960133
0
LINE
8
0
10
-524.380813868
20
-1519.09103551
11
-519.262746132
21
-1480.66668449
0
LINE
8
0
10
-525.18940576
20
-1470.51126898
11
-518.45415424
21
-1432.33717102
0
LINE
8
0
10
-526.236421397
20
-1324.93269474
11
-517.407138603
21
-1287.18790526
0
LINE
8
0
10
-526.909770831
20
-1276.30776393
11
-516.733789169
21
-1238.90355607
0
LINE
8
0
10
-527.56390468
20
-1227.66275536
11
-516.07965532
21
-1190.63928464
0
LINE
8
0
10
-528.197219968
20
-1178.99966132
11
-515.446340032
21
-1142.39309868
0
LINE
8
0
10
-537.184754158
20
-1027.14920096
11
-506.458805842
21
-1003.51571904
0
LINE
8
0
10
-529.261651942
20
-984.774876951
11
-514.381908058
21
-948.980763049
0
LINE
8
0
10
-540.368941291
20
-827.14054643
11
-503.274618709
21
-815.88725357
0
LINE
8
0
10
-541.164314867
20
-774.293232017
11
-502.479245133
21
-771.825287983
0
LINE
8
0
10
-527.113298623
20
-743.250160289
11
-516.530261377
21
-705.959079711
0
LINE
8
0
10
-527.759897052
20
-694.59977967
11
-515.883662948
21
-657.70018033
0
LINE
8
0
10
-522.427475736
20
-598.613089493
11
-521.216084264
21
-559.868310507
0
LINE
8
0
10
-541.189696617
20
-530.051112432
11
-502.453863383
21
-531.521007568
0
LINE
8
0
10
-524.080664101
20
-501.581193625
11
-519.562895899
21
-463.081646375
0
LINE
8
0
10
-540.912992273
20
-236.714276824
11
-502.730567727
21
-243.402163176
0
LINE
8
0
10
-539.775497122
20
-38.9375792337
11
-503.868062878
21
-53.5417407663
0
LINE
8
0
10
-541.146069433
20
3.7076889121
11
-502.497490567
21
0.722271087897
0
LINE
8
0
10
-540.903442517
20
247.886193769
11
-502.740117483
21
241.090166231
0
LINE
8
0
10
-541.192944323
20
535.859708413
11
-502.450615677
21
534.572331587
0
LINE
8
0
10
-540.271273174
20
674.640870745
11
-503.372286826
21
686.519009255
0
LINE
8
0
10
-541.157838796
20
776.157614864
11
-502.485721204
21
778.820825136
0
LINE
8
0
10
-476.411435203
20
-1567.47478023
11
-470.322844797
21
-1529.19221977
0
LINE
8
0
10
-477.704339134
20
-1421.85992266
11
-469.029940866
21
-1384.07923734
0
LINE
8
0
10
-478.502702103
20
-1373.20403693
11
-468.231577897
21
-1335.82584307
0
LINE
8
0
10
-479.273918622
20
-1324.52015667
11
-467.460361378
21
-1287.60044333
0
LINE
8
0
10
-480.015410966
20
-1275.81161604
11
-466.718869034
21
-1239.39970396
0
LINE
8
0
10
-480.5929299
20
-1130.22629733
11
-466.1413501
21
-1094.25718267
0
LINE
8
0
10
-481.194098275
20
-1081.51828908
11
-465.540181725
21
-1046.05591092
0
LINE
8
0
10
-489.415268479
20
-977.745842559
11
-457.319011521
21
-956.009797441
0
LINE
8
0
10
-481.549442633
20
-935.993218863
11
-465.184837367
21
-900.853141137
0
LINE
8
0
10
-482.048958334
20
-887.297197548
11
-464.685321666
21
-852.639882452
0
LINE
8
0
10
-492.099695988
20
-826.488604833
11
-454.634584012
21
-816.539195167
0
LINE
8
0
10
-492.738947239
20
-773.683300298
11
-453.995332761
21
-772.435219702
0
LINE
8
0
10
-480.159018476
20
-645.848211089
11
-466.575261524
21
-609.542468911
0
LINE
8
0
10
-480.776585733
20
-597.150374925
11
-465.957694267
21
-561.331025075
0
LINE
8
0
10
-492.694604164
20
-529.335035884
11
-454.039675836
21
-532.237084116
0
LINE
8
0
10
-476.570846335
20
-452.992025427
11
-470.163433665
21
-414.761534573
0
LINE
8
0
10
-477.397195071
20
-404.38038354
11
-469.337084929
21
-366.46389646
0
LINE
8
0
10
-478.201205149
20
-355.736840855
11
-468.533074851
21
-318.198159145
0
LINE
8
0
10
-492.263700436
20
-284.202831498
11
-454.470579564
21
-292.822888502
0
LINE
8
0
10
-490.757276321
20
-86.1362920107
11
-455.977003679
21
-103.252307989
0
LINE
8
0
10
-491.163587594
20
-53.9170811179
11
-455.570692406
21
-38.5622388821
0
LINE
8
0
10
-492.541887515
20
5.0408249592
11
-454.192392485
21
-0.610864959201
0
LINE
8
0
10
-492.286455859
20
248.697197631
11
-454.447824141
21
240.279162369
0
LINE
8
0
10
-492.702370086
20
536.559604578
11
-454.031909914
21
533.872435422
0
LINE
8
0
10
-489.345554487
20
572.700399635
11
-457.388725513
21
594.640920365
0
LINE
8
0
10
-492.070091707
20
723.949706406
11
-454.664188293
21
734.119453594
0
LINE
8
0
10
-492.735560922
20
776.767684846
11
-453.998719078
21
778.210755154
0
LINE
8
0
10
-429.136697614
20
-1518.79479235
11
-420.688302386
21
-1480.96292765
0
LINE
8
0
10
-430.117058972
20
-1470.09422021
11
-419.707941028
21
-1432.75421979
0
LINE
8
0
10
-431.056206574
20
-1421.35194142
11
-418.768793426
21
-1384.58721858
0
LINE
8
0
10
-431.949618513
20
-1372.57415662
11
-417.875381487
21
-1336.45572338
0
LINE
8
0
10
-432.56560422
20
-1226.95793826
11
-417.25939578
21
-1191.34410174
0
LINE
8
0
10
-433.25854761
20
-1178.18923086
11
-416.56645239
21
-1143.20352914
0
LINE
8
0
10
-433.59320095
20
-1032.66167732
11
-416.23179905
21
-998.003242677
0
LINE
8
0
10
-434.150921642
20
-983.916244445
11
-415.674078358
21
-949.839395555
0
LINE
8
0
10
-441.573724744
20
-928.325701499
11
-408.251275256
21
-908.520658501
0
LINE
8
0
10
-443.810394026
20
-825.818077435
11
-406.014605974
21
-817.209722565
0
LINE
8
0
10
-444.29435213
20
-773.071507472
11
-405.53064787
21
-773.047012528
0
LINE
8
0
10
-444.173487957
20
-528.624883256
11
-405.651512043
21
-532.947236744
0
LINE
8
0
10
-433.761111677
20
-499.575503431
11
-416.063888323
21
-465.087336569
0
LINE
8
0
10
-434.309302724
20
-450.828371092
11
-415.515697276
21
-416.925188908
0
LINE
8
0
10
-443.609522189
20
-283.406226739
11
-406.215477811
21
-293.619493261
0
LINE
8
0
10
-431.539840845
20
-258.271805461
11
-418.285159155
21
-221.844634539
0
LINE
8
0
10
-432.279830351
20
-209.530620623
11
-417.545169649
21
-173.676539377
0
LINE
8
0
10
-432.983999434
20
-160.770155591
11
-416.841000566
21
-125.527724409
0
LINE
8
0
10
-441.874892123
20
-85.3170085225
11
-407.950107877
21
-104.071591478
0
LINE
8
0
10
-427.02614862
20
-65.5059214826
11
-422.79885138
21
-26.9733985174
0
LINE
8
0
10
-443.851559054
20
6.33424985862
11
-405.973440946
21
-1.90428985862
0
LINE
8
0
10
-429.070504877
20
31.7390273666
11
-420.754495123
21
69.6002126334
0
LINE
8
0
10
-430.045008071
20
80.4343241279
11
-419.779991929
21
117.814195872
0
LINE
8
0
10
-443.638994432
20
249.48565419
11
-406.186005568
21
239.49070581
0
LINE
8
0
10
-444.178719503
20
488.875411235
11
-405.646280497
21
484.647348765
0
LINE
8
0
10
-441.277982423
20
573.286666209
11
-408.547017577
21
594.054653791
0
LINE
8
0
10
-443.784455256
20
724.618060237
11
-406.040544744
21
733.451099763
0
LINE
8
0
10
-444.294047751
20
777.379909458
11
-405.530952249
21
777.598530542
0
LINE
8
0
10
-383.849456111
20
-1372.43198911
11
-369.066263889
21
-1336.59789089
0
LINE
8
0
10
-384.720128957
20
-1323.59287693
11
-368.195591043
21
-1288.52772307
0
LINE
8
0
10
-385.533717078
20
-1274.73123036
11
-367.382002922
21
-1240.48008964
0
LINE
8
0
10
-385.804801914
20
-1129.22087481
11
-367.110918086
21
-1095.26260519
0
LINE
8
0
10
-386.431898126
20
-1080.40561093
11
-366.483821874
21
-1047.16858907
0
LINE
8
0
10
-382.147410007
20
-1033.86042165
11
-370.768309993
21
-996.804498355
0
LINE
8
0
10
-383.319665977
20
-985.004374023
11
-369.596054023
21
-948.751265977
0
LINE
8
0
10
-393.47680945
20
-927.697429384
11
-359.43891055
21
-909.148930616
0
LINE
8
0
10
-387.039901173
20
-886.206666327
11
-365.875818827
21
-853.730413673
0
LINE
8
0
10
-395.830439681
20
-772.459678045
11
-357.085280319
21
-773.658841955
0
LINE
8
0
10
-387.055765735
20
-740.832396682
11
-365.859954265
21
-708.376843318
0
LINE
8
0
10
-387.476844408
20
-692.094832606
11
-365.438875592
21
-660.205127394
0
LINE
8
0
10
-395.627150827
20
-527.923433374
11
-357.288569173
21
-533.648686626
0
LINE
8
0
10
-386.158812634
20
-450.656167951
11
-366.756907366
21
-417.097392049
0
LINE
8
0
10
-386.684118641
20
-401.886646559
11
-366.231601359
21
-368.957633441
0
LINE
8
0
10
-394.927416653
20
-282.636481945
11
-357.988303347
21
-294.389238055
0
LINE
8
0
10
-392.684733653
20
-132.549651654
11
-360.230986347
21
-153.748228346
0
LINE
8
0
10
-385.535794842
20
-111.818769073
11
-367.379925158
21
-77.5698309275
0
LINE
8
0
10
-386.176266722
20
-63.0089448024
11
-366.739453278
21
-29.4703751976
0
LINE
8
0
10
-395.501124844
20
-1.392014051
11
-357.414595156
21
5.82197405099
0
LINE
8
0
10
-382.840324871
20
129.278067118
11
-370.075395129
21
165.879732882
0
LINE
8
0
10
-394.886754121
20
202.036223024
11
-358.028965879
21
190.030856976
0
LINE
8
0
10
-384.631329892
20
226.914030464
11
-368.284390108
21
262.062329536
0
LINE
8
0
10
-395.632668188
20
489.586813232
11
-357.283051812
21
483.935946768
0
LINE
8
0
10
-393.414553447
20
622.737707692
11
-359.501166553
21
641.512892308
0
LINE
8
0
10
-395.477192585
20
725.303450142
11
-357.438527415
21
732.765709857
0
LINE
8
0
10
-395.833181678
20
777.992461374
11
-357.082538322
21
776.985978626
0
LINE
8
0
10
-338.280080681
20
-1225.58398919
11
-317.726359319
21
-1192.71805081
0
LINE
8
0
10
-338.943696899
20
-1031.33128206
11
-317.062743101
21
-999.333637943
0
LINE
8
0
10
-336.456345802
20
-935.864539069
11
-319.550094198
21
-900.981820931
0
LINE
8
0
10
-345.529405689
20
-878.244357616
11
-310.477034311
21
-861.692722384
0
LINE
8
0
10
-339.390022468
20
-837.198193786
11
-316.616417532
21
-805.829606214
0
LINE
8
0
10
-347.347292848
20
-771.849637065
11
-308.659147152
21
-774.268882935
0
LINE
8
0
10
-329.103881207
20
-743.955198465
11
-326.902558793
21
-705.254041535
0
LINE
8
0
10
-339.311160381
20
-691.891226023
11
-316.695279619
21
-660.408733977
0
LINE
8
0
10
-339.70990192
20
-643.142344254
11
-316.29653808
21
-612.248335746
0
LINE
8
0
10
-334.542326831
20
-597.486149401
11
-321.464113169
21
-560.995250599
0
LINE
8
0
10
-347.056676177
20
-527.233293515
11
-308.949763823
21
-534.338826485
0
LINE
8
0
10
-346.119037831
20
-330.077399396
11
-309.887402169
21
-343.857600604
0
LINE
8
0
10
-339.520022695
20
-304.101945851
11
-316.486417305
21
-272.923774149
0
LINE
8
0
10
-343.379122021
20
-179.803665634
11
-312.627317979
21
-203.403494366
0
LINE
8
0
10
-343.74846761
20
-131.84657212
11
-312.25797239
21
-154.45130788
0
LINE
8
0
10
-333.381077688
20
-113.315121375
11
-322.625362312
21
-76.0734786247
0
LINE
8
0
10
-346.092444966
20
-39.2800420406
11
-309.913995034
21
-53.1992779594
0
LINE
8
0
10
-347.307254722
20
0.47987612678
11
-308.699185278
21
3.95008387321
0
LINE
8
0
10
-334.846030658
20
32.5358866749
11
-321.160409342
21
68.803353325
0
LINE
8
0
10
-336.011178136
20
81.4740773238
11
-319.995261864
21
116.774442676
0
LINE
8
0
10
-337.080360532
20
130.454009876
11
-318.926079468
21
164.703790124
0
LINE
8
0
10
-346.167812935
20
202.794006369
11
-309.838627065
21
189.273073631
0
LINE
8
0
10
-337.416015718
20
276.000104197
11
-318.590424282
21
309.885535803
0
LINE
8
0
10
-338.184392979
20
324.905035716
11
-317.822047021
21
357.889884284
0
LINE
8
0
10
-347.061766097
20
490.286739937
11
-308.944673903
21
483.236020063
0
LINE
8
0
10
-345.310150273
20
623.400249482
11
-310.696289727
21
640.850350518
0
LINE
8
0
10
-347.146626786
20
726.00368597
11
-308.859813214
21
732.06547403
0
LINE
8
0
10
-347.353018536
20
778.603508386
11
-308.653421464
21
776.374931614
0
LINE
8
0
10
-291.011959873
20
-1176.32479207
11
-268.085200127
21
-1145.06796793
0
LINE
8
0
10
-291.656451022
20
-1127.37632957
11
-267.440708978
21
-1097.10715043
0
LINE
8
0
10
-291.437729149
20
-982.184827367
11
-267.659430851
21
-951.570812633
0
LINE
8
0
10
-291.94370793
20
-933.323419783
11
-267.15345207
21
-903.522940217
0
LINE
8
0
10
-297.385563573
20
-877.55130724
11
-261.711596427
21
-862.38577276
0
LINE
8
0
10
-290.576077055
20
-837.452866425
11
-268.521082945
21
-805.574933575
0
LINE
8
0
10
-298.845165357
20
-771.24318303
11
-260.251994643
21
-774.87533697
0
LINE
8
0
10
-291.928474531
20
-594.153598893
11
-267.168685469
21
-564.327801107
0
LINE
8
0
10
-298.463393439
20
-526.556855042
11
-260.633766561
21
-535.015264958
0
LINE
8
0
10
-289.784386294
20
-498.789992585
11
-269.312773706
21
-465.872847415
0
LINE
8
0
10
-297.370219052
20
-329.348738716
11
-261.726940948
21
-344.586261284
0
LINE
8
0
10
-291.406949452
20
-303.843724814
11
-267.690210548
21
-273.181995186
0
LINE
8
0
10
-291.842674437
20
-255.041930621
11
-267.254485563
21
-225.074509379
0
LINE
8
0
10
-294.414743357
20
-179.167602795
11
-264.682416643
21
-204.039557205
0
LINE
8
0
10
-297.15577355
20
-38.1376184482
11
-261.94138645
21
-54.3417015519
0
LINE
8
0
10
-298.929534637
20
2.40190071239
11
-260.167625363
21
2.0280592876
0
LINE
8
0
10
-291.205286985
20
35.1848686536
11
-267.891873015
21
66.1543713464
0
LINE
8
0
10
-289.195612545
20
130.768453692
11
-269.901547455
21
164.389346308
0
LINE
8
0
10
-297.427003776
20
203.518077747
11
-261.670156224
21
188.549002253
0
LINE
8
0
10
-290.201889771
20
325.206001359
11
-268.895270229
21
357.588918641
0
LINE
8
0
10
-290.912562888
20
374.151264515
11
-268.184597112
21
405.552935485
0
LINE
8
0
10
-298.46738532
20
490.972691822
11
-260.62977468
21
482.550068178
0
LINE
8
0
10
-297.333291063
20
672.87537029
11
-261.763868937
21
688.28450971
0
LINE
8
0
10
-298.853786208
20
779.21124069
11
-260.243373792
21
775.76719931
0
LINE
8
0
10
-243.706438766
20
-1126.95843857
11
-218.481441234
21
-1097.52504143
0
LINE
8
0
10
-244.280094655
20
-1077.99208741
11
-217.907785345
21
-1049.58211259
0
LINE
8
0
10
-243.9017488
20
-932.970220102
11
-218.2861312
21
-903.876139898
0
LINE
8
0
10
-244.359933984
20
-884.098994544
11
-217.827946016
21
-855.838085456
0
LINE
8
0
10
-249.324068629
20
-828.095598275
11
-212.863811371
21
-814.932201725
0
LINE
8
0
10
-250.423298548
20
-774.484826604
11
-211.764581452
21
-771.633693396
0
LINE
8
0
10
-244.344389048
20
-738.749652416
11
-217.843490952
21
-710.459587584
0
LINE
8
0
10
-244.41460121
20
-690.228912024
11
-217.77327879
21
-662.071047976
0
LINE
8
0
10
-249.84883753
20
-525.896258302
11
-212.33904247
21
-535.675861698
0
LINE
8
0
10
-243.436537199
20
-448.820562533
11
-218.751342801
21
-418.932997467
0
LINE
8
0
10
-248.603406961
20
-328.656368383
11
-213.584473039
21
-345.278631617
0
LINE
8
0
10
-244.986251282
20
-226.543042263
11
-217.201628718
21
-253.573397737
0
LINE
8
0
10
-244.140933509
20
-205.936489767
11
-218.046946491
21
-177.270670233
0
LINE
8
0
10
-240.789641952
20
-159.931362521
11
-221.398238048
21
-126.366517479
0
LINE
8
0
10
-247.865249004
20
-84.9793869127
11
-214.322630996
21
-104.409213087
0
LINE
8
0
10
-250.361316573
20
4.31843953472
11
-211.826563427
21
0.11152046528
0
LINE
8
0
10
-242.581410159
20
35.0589066481
11
-219.606469841
21
66.2803333519
0
LINE
8
0
10
-243.738693125
20
84.435265466
11
-218.449186875
21
113.813254534
0
LINE
8
0
10
-248.514106018
20
156.075614536
11
-213.673773982
21
139.082185464
0
LINE
8
0
10
-243.255054888
20
229.396340262
11
-218.932825112
21
259.580019738
0
LINE
8
0
10
-243.605633819
20
423.504244947
11
-218.582246181
21
453.109235053
0
LINE
8
0
10
-249.851116401
20
491.6424327
11
-212.336763599
21
481.8803273
0
LINE
8
0
10
-249.175137911
20
673.59949416
11
-213.012742089
21
687.56038584
0
LINE
8
0
10
-250.414663742
20
775.951047023
11
-211.773216258
21
779.027392977
0
LINE
8
0
10
-196.340896593
20
-1077.49558616
11
-168.937703407
21
-1050.07861384
0
LINE
8
0
10
-196.837910694
20
-1028.52548074
11
-168.440689306
21
-1002.13943926
0
LINE
8
0
10
-196.323955226
20
-883.693938113
11
-168.954644774
21
-856.243141887
0
LINE
8
0
10
-201.12001913
20
-827.355078173
11
-164.15858087
21
-815.672721827
0
LINE
8
0
10
-202.007670203
20
-773.782155342
11
-163.270929797
21
-772.336364658
0
LINE
8
0
10
-196.548698062
20
-738.102211917
11
-168.729901938
21
-711.107028083
0
LINE
8
0
10
-196.312433033
20
-689.886856467
11
-168.966166967
21
-662.413103533
0
LINE
8
0
10
-196.657745199
20
-641.079641857
11
-168.620854801
21
-614.311038143
0
LINE
8
0
10
-201.155496621
20
-573.51297753
11
-164.123103379
21
-584.96842247
0
LINE
8
0
10
-196.304088358
20
-496.076597378
11
-168.974511642
21
-468.586242622
0
LINE
8
0
10
-199.638763769
20
-376.112221979
11
-165.639836231
21
-394.732058021
0
LINE
8
0
10
-195.477366056
20
-273.992515585
11
-169.801233944
21
-303.033204415
0
LINE
8
0
10
-196.408187485
20
-156.78983731
11
-168.870412515
21
-129.50804269
0
LINE
8
0
10
-198.809433094
20
-84.0086489797
11
-166.469166906
21
-105.37995102
0
LINE
8
0
10
-197.713835034
20
-58.4222186606
11
-167.564764966
21
-34.0571013394
0
LINE
8
0
10
-201.612368829
20
6.1746518589
11
-163.666231171
21
-1.74469185891
0
LINE
8
0
10
-196.231716377
20
85.3075107785
11
-169.046883623
21
112.941009222
0
LINE
8
0
10
-199.718628005
20
156.741481344
11
-165.559971995
21
138.416318656
0
LINE
8
0
10
-196.547472418
20
182.53468516
11
-168.731127582
21
209.53239484
0
LINE
8
0
10
-196.237916723
20
279.132173193
11
-169.040683277
21
306.753466807
0
LINE
8
0
10
-201.154682674
20
444.037093081
11
-164.123917326
21
432.576386919
0
LINE
8
0
10
-196.241204581
20
472.953971345
11
-169.037395419
21
500.568788655
0
LINE
8
0
10
-200.995607967
20
674.358822752
11
-164.282992033
21
686.801057248
0
LINE
8
0
10
-201.785429818
20
732.048224806
11
-163.493170182
21
726.020935194
0
LINE
8
0
10
-202.00314319
20
776.653804591
11
-163.27545681
21
778.324635409
0
LINE
8
0
10
-148.895053516
20
-1027.952312
11
-119.474266484
21
-1002.712608
0
LINE
8
0
10
-149.313457262
20
-978.992927734
11
-119.055862738
21
-954.762712266
0
LINE
8
0
10
-152.891263058
20
-826.58532426
11
-115.478056942
21
-816.44247574
0
LINE
8
0
10
-153.566508226
20
-773.076618989
11
-114.802811774
21
-773.041901011
0
LINE
8
0
10
-149.349115424
20
-688.220424636
11
-119.020204576
21
-664.079535364
0
LINE
8
0
10
-148.554604598
20
-640.70153215
11
-119.814715402
21
-614.68914785
0
LINE
8
0
10
-152.490360125
20
-572.872208424
11
-115.878959875
21
-585.609191576
0
LINE
8
0
10
-150.596375007
20
-423.566011235
11
-117.772944993
21
-444.187548765
0
LINE
8
0
10
-150.825288502
20
-375.485046608
11
-117.544031498
21
-395.359233392
0
LINE
8
0
10
-150.103347933
20
-348.024249817
11
-118.265972067
21
-325.910750183
0
LINE
8
0
10
-149.257910646
20
-130.964792226
11
-119.111409354
21
-155.333087774
0
LINE
8
0
10
-148.638467481
20
-107.607231166
11
-119.730852519
21
-81.7813688338
0
LINE
8
0
10
-150.794614914
20
-56.2279401208
11
-117.574705086
21
-36.2513798792
0
LINE
8
0
10
-152.706644574
20
7.92395797001
11
-115.662675426
21
-3.49399797002
0
LINE
8
0
10
-150.69300901
20
109.279591357
11
-117.67631099
21
88.9689286429
0
LINE
8
0
10
-149.609155878
20
135.842577368
11
-118.760164122
21
159.315222632
0
LINE
8
0
10
-148.513987378
20
182.982612106
11
-119.855332622
21
209.084467894
0
LINE
8
0
10
-148.88402356
20
231.855482231
11
-119.48529644
21
257.120877769
0
LINE
8
0
10
-149.088445771
20
329.006595959
11
-119.280874229
21
353.788324041
0
LINE
8
0
10
-152.486439354
20
444.686490346
11
-115.882880646
21
431.926989654
0
LINE
8
0
10
-148.798993043
20
522.485049428
11
-119.570326957
21
547.946990572
0
LINE
8
0
10
-153.225703148
20
732.653283887
11
-115.143616852
21
725.415876113
0
LINE
8
0
10
-153.566084421
20
777.359877682
11
-114.803235579
21
777.618562318
0
LINE
8
0
10
-101.352800144
20
-978.348874118
11
-70.1072398563
21
-955.406765882
0
LINE
8
0
10
-104.634529093
20
-825.788929584
11
-66.8255109067
21
-817.238870416
0
LINE
8
0
10
-105.099652391
20
-772.371013645
11
-66.3603876091
21
-773.747506355
0
LINE
8
0
10
-101.981244777
20
-638.257254374
11
-69.4787952228
21
-617.133425626
0
LINE
8
0
10
-103.808808688
20
-572.254016839
11
-67.6512313123
21
-586.227383161
0
LINE
8
0
10
-101.754905623
20
-422.974514971
11
-69.7051343767
21
-444.779045029
0
LINE
8
0
10
-100.570632439
20
-397.888597574
11
-70.8894075612
21
-372.955682426
0
LINE
8
0
10
-102.511674187
20
-346.664531749
11
-68.9483658127
21
-327.270468251
0
LINE
8
0
10
-99.5410912305
20
-178.005394332
11
-71.9189487695
21
-205.201765668
0
LINE
8
0
10
-103.386050493
20
-38.2446034504
11
-68.0739895069
21
-54.2347165496
0
LINE
8
0
10
-104.152399294
20
-3.8076675211
11
-67.3076407063
21
8.23762752109
0
LINE
8
0
10
-101.590722827
20
61.8093887521
11
-69.8693171734
21
39.5298512479
0
LINE
8
0
10
-102.620700462
20
186.52768625
11
-68.8393395377
21
205.53939375
0
LINE
8
0
10
-100.84262843
20
232.352884023
11
-70.6174115703
21
256.623475977
0
LINE
8
0
10
-101.772016454
20
378.975028162
11
-69.6880235457
21
400.729171838
0
LINE
8
0
10
-103.80136268
20
445.312660049
11
-67.6586773197
21
431.300819951
0
LINE
8
0
10
-101.262658387
20
572.077839517
11
-70.1973816133
21
595.263480483
0
LINE
8
0
10
-104.648449738
20
733.247578724
11
-66.8115902619
21
724.821581276
0
LINE
8
0
10
-105.103278092
20
778.066465956
11
-66.3567619077
21
776.911974044
0
LINE
8
0
10
-53.7034411665
20
-928.707884581
11
-20.8473188335
21
-908.138475419
0
LINE
8
0
10
-56.0324680159
20
-816.632507661
11
-18.5182919841
21
-826.395292339
0
LINE
8
0
10
-56.6072479433
20
-771.668136775
11
-17.9435120567
21
-774.450383225
0
LINE
8
0
10
-53.2427025428
20
-735.591018537
11
-21.3080574572
21
-713.618221463
0
LINE
8
0
10
-55.0023652835
20
-619.858865361
11
-19.5483947165
21
-635.531814639
0
LINE
8
0
10
-54.4301768107
20
-588.261192691
11
-20.1205831893
21
-570.220207309
0
LINE
8
0
10
-52.9078160873
20
-542.243951777
11
-21.6429439127
21
-519.328168223
0
LINE
8
0
10
-52.612546438
20
-470.481201957
11
-21.938213562
21
-494.181638043
0
LINE
8
0
10
-52.6546865783
20
-348.762976725
11
-21.8960734217
21
-325.172023275
0
LINE
8
0
10
-55.190237888
20
-295.909765357
11
-19.360522112
21
-281.115954643
0
LINE
8
0
10
-49.689980187
20
-225.17420024
11
-24.8607798131
21
-254.94223976
0
LINE
8
0
10
-54.1619867793
20
-36.7265714643
11
-20.3887732208
21
-55.7527485357
0
LINE
8
0
10
-56.4269279744
20
-0.764038661961
11
-18.1238320256
21
5.19399866196
0
LINE
8
0
10
-52.7337658445
20
62.3612686899
11
-21.8169941556
21
38.9779713101
0
LINE
8
0
10
-54.9482197514
20
188.075708818
11
-19.6025402486
21
203.991371182
0
LINE
8
0
10
-53.1035520448
20
281.756877406
11
-21.4472079552
21
304.128762594
0
LINE
8
0
10
-54.9887469071
20
397.719308833
11
-19.5620130929
21
381.984891167
0
LINE
8
0
10
-54.2696672736
20
428.987376177
11
-20.2810927265
21
447.626103823
0
LINE
8
0
10
-53.3052319049
20
572.775698324
11
-21.2455280951
21
594.565621676
0
LINE
8
0
10
-53.6210830348
20
621.710198738
11
-20.9296769652
21
642.540401262
0
LINE
8
0
10
-56.3215944879
20
725.443193682
11
-18.2291655121
21
732.625966318
0
LINE
8
0
10
-56.6148215677
20
778.770758862
11
-17.9359384323
21
776.207681138
0
LINE
8
0
10
-5.942139003
20
-879.052263806
11
28.300659003
21
-860.884816194
0
LINE
8
0
10
-7.42137199068
20
-816.066622556
11
29.7798919907
21
-826.961177444
0
LINE
8
0
10
-8.08974083462
20
-770.970732088
11
30.4482608346
21
-775.147787912
0
LINE
8
0
10
7.52933394802
20
-705.569537079
11
14.829186052
21
-743.639702921
0
LINE
8
0
10
-5.41125749837
20
-686.170512478
11
27.7697774984
21
-666.129447522
0
LINE
8
0
10
-6.27910894419
20
-619.277401071
11
28.6376289442
21
-636.113278929
0
LINE
8
0
10
-6.49135724204
20
-587.203465116
11
28.849877242
21
-571.277934884
0
LINE
8
0
10
-3.40206027103
20
-518.017291807
11
25.760580271
21
-543.554828193
0
LINE
8
0
10
-5.01153874154
20
-492.985732653
11
27.3700587415
21
-471.677107347
0
LINE
8
0
10
-4.49557624119
20
-348.367318017
11
26.8540962412
21
-325.567681983
0
LINE
8
0
10
-7.34205958072
20
-294.223995
11
29.7005795807
21
-282.801725
0
LINE
8
0
10
-4.26955698575
20
-82.9900103699
11
26.6280769857
21
-106.39858963
0
LINE
8
0
10
-8.20017088068
20
2.52157541045
11
30.5586908807
21
1.90838458955
0
LINE
8
0
10
-7.36657673847
20
238.857169285
11
29.7250967385
21
250.119190715
0
LINE
8
0
10
-5.2920151619
20
331.182107018
11
27.6505351619
21
351.612812982
0
LINE
8
0
10
-6.26096737046
20
398.307560441
11
28.6194873705
21
381.396639559
0
LINE
8
0
10
-6.35423765956
20
430.046425125
11
28.7127576596
21
446.567054875
0
LINE
8
0
10
-5.62545909175
20
622.468294343
11
27.9839790917
21
641.782305657
0
LINE
8
0
10
-8.00597949556
20
726.280868413
11
30.3644994956
21
731.788291587
0
LINE
8
0
10
-8.10111570549
20
779.469991229
11
30.4596357055
21
775.508448771
0
LINE
8
0
10
41.2638395203
20
-863.788150046
11
78.0039604797
21
-876.148929954
0
LINE
8
0
10
41.2036225531
20
-815.515465601
11
78.0641774469
21
-827.512334399
0
LINE
8
0
10
40.3255084402
20
-774.745189233
11
78.9422915598
21
-771.373330767
0
LINE
8
0
10
42.6089840938
20
-666.886687908
11
76.6588159062
21
-685.413272092
0
LINE
8
0
10
41.488576027
20
-586.052715849
11
77.779223973
21
-572.428684151
0
LINE
8
0
10
45.4681661272
20
-517.557744693
11
73.7996338728
21
-544.014375307
0
LINE
8
0
10
43.1230311928
20
-492.482654074
11
76.1447688072
21
-472.180185926
0
LINE
8
0
10
52.4131355792
20
-415.890204362
11
66.8546644208
21
-451.863355638
0
LINE
8
0
10
51.2783337628
20
-367.933833768
11
67.9894662372
21
-402.910446232
0
LINE
8
0
10
40.642495094
20
-292.383632752
11
78.625304906
21
-284.642087248
0
LINE
8
0
10
45.9768374701
20
-129.396086294
11
73.2909625299
21
-156.901793706
0
LINE
8
0
10
45.7140672643
20
-32.7528294378
11
73.5537327357
21
-59.7264905623
0
LINE
8
0
10
40.5829476558
20
5.78114836159
11
78.6848523442
21
-1.35118836159
0
LINE
8
0
10
43.0773153142
20
40.5931203326
11
76.1904846858
21
60.7461196674
0
LINE
8
0
10
40.6376227202
20
240.641390233
11
78.6301772798
21
248.334969767
0
LINE
8
0
10
42.6354281306
20
350.709188954
11
76.6323718694
21
332.085731046
0
LINE
8
0
10
41.6003103965
20
431.204206085
11
77.6674896035
21
445.409273915
0
LINE
8
0
10
41.2362825465
20
686.677809631
11
78.0315174535
21
674.482070369
0
LINE
8
0
10
40.4512064212
20
731.805971179
11
78.8165935787
21
726.263188821
0
LINE
8
0
10
40.3375770404
20
775.670357102
11
78.9302229596
21
779.308082898
0
LINE
8
0
10
89.9119211261
20
-863.240474281
11
126.265158874
21
-876.696605719
0
LINE
8
0
10
90.0324095964
20
-828.558933488
11
126.144670404
21
-814.468866512
0
LINE
8
0
10
88.7256619234
20
-773.916753205
11
127.451418077
21
-772.201766795
0
LINE
8
0
10
91.3655063741
20
-666.352200234
11
124.811573626
21
-685.947759766
0
LINE
8
0
10
90.6185312027
20
-636.089095693
11
125.558548797
21
-619.301584307
0
LINE
8
0
10
94.7429457162
20
-565.185400102
11
121.434134284
21
-593.295999898
0
LINE
8
0
10
89.420678504
20
-535.998284973
11
126.756401496
21
-525.573835027
0
LINE
8
0
10
102.483985464
20
-463.777571061
11
113.693094536
21
-500.885268939
0
LINE
8
0
10
91.0908789774
20
-443.189988994
11
125.086201023
21
-424.563571006
0
LINE
8
0
10
88.7845059105
20
-241.793330912
11
127.39257409
21
-238.323109088
0
LINE
8
0
10
96.490387277
20
-176.074922768
11
119.686692723
21
-207.132237232
0
LINE
8
0
10
95.0230286829
20
-80.3782685657
11
121.154051317
21
-109.010331434
0
LINE
8
0
10
89.8440463693
20
8.75675301387
11
126.333033631
21
-4.32679301388
0
LINE
8
0
10
91.2209202167
20
41.1229061752
11
124.956159783
21
60.2163338248
0
LINE
8
0
10
88.8055211436
20
242.533307679
11
127.371558856
21
246.443052321
0
LINE
8
0
10
91.3970700553
20
351.248915379
11
124.780009945
21
331.546004621
0
LINE
8
0
10
90.7098180268
20
381.270936642
11
125.467261973
21
398.433263358
0
LINE
8
0
10
89.4930480052
20
481.29658179
11
126.684031995
21
492.22617821
0
LINE
8
0
10
89.882734801
20
687.22862401
11
126.294345199
21
673.93125599
0
LINE
8
0
10
89.0210128891
20
732.5110368
11
127.156067111
21
725.5581232
0
LINE
8
0
10
88.7320096204
20
776.498728371
11
127.44507038
21
778.479711629
0
LINE
8
0
10
138.571603214
20
-862.71052582
11
174.514756786
21
-877.22655418
0
LINE
8
0
10
137.637705672
20
-817.243141
11
175.448654328
21
-825.784659
0
LINE
8
0
10
137.161339262
20
-773.083583436
11
175.925020738
21
-773.034936564
0
LINE
8
0
10
140.330013117
20
-713.984376989
11
172.756346883
21
-735.224863011
0
LINE
8
0
10
144.563834303
20
-660.913457475
11
168.522525697
21
-691.386502525
0
LINE
8
0
10
138.757280177
20
-635.397165075
11
174.329079823
21
-619.993514925
0
LINE
8
0
10
137.57224613
20
-534.755947922
11
175.51411387
21
-526.816172078
0
LINE
8
0
10
139.252543612
20
-442.634076118
11
173.833816388
21
-425.119483882
0
LINE
8
0
10
148.664304596
20
-270.804679281
11
164.422055404
21
-306.221040719
0
LINE
8
0
10
137.161543607
20
-239.965955514
11
175.924816393
21
-240.150484486
0
LINE
8
0
10
139.513507792
20
-200.858125181
11
173.572852208
21
-182.349034819
0
LINE
8
0
10
144.376122708
20
-128.061890625
11
168.710237292
21
-158.235989375
0
LINE
8
0
10
140.214899646
20
-35.7972655105
11
172.871460354
21
-56.6820544895
0
LINE
8
0
10
139.221046424
20
90.4294322061
11
173.865313576
21
107.819087794
0
LINE
8
0
10
137.161324623
20
244.483265895
11
175.925035377
21
244.493094105
0
LINE
8
0
10
140.371647506
20
303.626353067
11
172.714712494
21
282.259286933
0
LINE
8
0
10
138.83893368
20
381.964387767
11
174.24742632
21
397.739812233
0
LINE
8
0
10
137.622587525
20
482.558104803
11
175.463772475
21
490.964655197
0
LINE
8
0
10
138.628220123
20
639.52195834
11
174.458139877
21
624.72864166
0
LINE
8
0
10
138.332325225
20
673.945099356
11
174.754034775
21
687.214780644
0
LINE
8
0
10
137.61468631
20
733.202129474
11
175.47167369
21
724.867030526
0
LINE
8
0
10
137.161957015
20
777.332575192
11
175.924402985
21
777.645864808
0
LINE
8
0
10
187.34188735
20
-910.42790738
11
222.65375265
21
-926.41845262
0
LINE
8
0
10
186.256649664
20
-816.571746985
11
223.738990336
21
-826.456053015
0
LINE
8
0
10
185.63285443
20
-772.250278867
11
224.36278557
21
-773.868241133
0
LINE
8
0
10
193.963083361
20
-708.670664769
11
216.032556639
21
-740.538575231
0
LINE
8
0
10
186.809273014
20
-585.936452426
11
223.186366986
21
-572.544947574
0
LINE
8
0
10
185.801356943
20
-533.460410036
11
224.194283057
21
-528.111709964
0
LINE
8
0
10
204.90669419
20
-462.94977822
11
205.08894581
21
-501.71306178
0
LINE
8
0
10
202.997842472
20
-414.598387124
11
206.997797528
21
-453.155172876
0
LINE
8
0
10
187.300239894
20
-393.324797807
11
222.695400106
21
-377.519482193
0
LINE
8
0
10
199.397468723
20
-318.412381903
11
210.598171277
21
-355.522618097
0
LINE
8
0
10
185.71101799
20
-238.141031893
11
224.28462201
21
-241.975408107
0
LINE
8
0
10
187.717530716
20
-200.381275841
11
222.278109284
21
-182.825884159
0
LINE
8
0
10
191.744044645
20
-80.5523842582
11
218.251595355
21
-108.836215742
0
LINE
8
0
10
190.203334896
20
-33.7184958165
11
219.792305104
21
-58.7608241835
0
LINE
8
0
10
187.396685941
20
91.0090630309
11
222.598954059
21
107.239456969
0
LINE
8
0
10
185.713822325
20
246.433372963
11
224.281817675
21
242.542987037
0
LINE
8
0
10
189.156343894
20
304.10991348
11
220.839296106
21
281.77572652
0
LINE
8
0
10
186.873929123
20
431.437903018
11
223.121710877
21
445.175576982
0
LINE
8
0
10
185.831606897
20
483.878219007
11
224.164033103
21
489.644540993
0
LINE
8
0
10
187.308565945
20
640.046577231
11
222.687074055
21
624.204022769
0
LINE
8
0
10
186.230620916
20
733.87695344
11
223.765019084
21
724.19220656
0
LINE
8
0
10
185.62782878
20
778.167292374
11
224.36781122
21
776.811147626
0
LINE
8
0
10
236.032111867
20
-909.926838851
11
270.872808133
21
-926.919521149
0
LINE
8
0
10
234.538317686
20
-825.746105399
11
272.366602314
21
-817.281694601
0
LINE
8
0
10
234.139927937
20
-771.421442149
11
272.764992063
21
-774.697077851
0
LINE
8
0
10
235.007988014
20
-585.195344838
11
271.896931986
21
-573.286055162
0
LINE
8
0
10
234.117068157
20
-532.127314745
11
272.787851843
21
-529.444805255
0
LINE
8
0
10
235.498965429
20
-392.724767931
11
271.405954571
21
-378.119512069
0
LINE
8
0
10
244.430087295
20
-319.813691887
11
262.474832705
21
-354.121308113
0
LINE
8
0
10
234.501018734
20
-284.450937311
11
272.403901266
21
-292.574782689
0
LINE
8
0
10
235.928211453
20
-199.883498772
11
270.976708547
21
-183.323661228
0
LINE
8
0
10
235.819513062
20
-151.194778942
11
271.085406938
21
-135.103101058
0
LINE
8
0
10
235.479679948
20
140.323865939
11
271.425240052
21
154.833934061
0
LINE
8
0
10
234.454310987
20
248.325715158
11
272.450609013
21
240.650644842
0
LINE
8
0
10
235.063194938
20
432.183728284
11
271.841725062
21
444.429751716
0
LINE
8
0
10
234.130357127
20
485.240629344
11
272.774562873
21
488.282130656
0
LINE
8
0
10
235.997883372
20
640.551099471
11
270.907036628
21
623.699500529
0
LINE
8
0
10
234.576017896
20
724.637276792
11
272.328902104
21
733.431883208
0
LINE
8
0
10
234.129438281
20
778.998250695
11
272.775481719
21
775.980189305
0
LINE
8
0
10
284.863629709
20
-957.648710485
11
318.950570291
21
-976.106929515
0
LINE
8
0
10
294.147761266
20
-900.662295889
11
309.666438734
21
-936.184064111
0
LINE
8
0
10
293.4583194
20
-852.525075654
11
310.3558806
21
-887.412004346
0
LINE
8
0
10
283.553062795
20
-815.286086556
11
320.261137205
21
-827.741713444
0
LINE
8
0
10
282.681699582
20
-770.601553593
11
321.132500418
21
-775.516966407
0
LINE
8
0
10
283.231253779
20
-584.424242218
11
320.582946221
21
-574.057157782
0
LINE
8
0
10
282.525247249
20
-530.774837726
11
321.288952751
21
-530.797282274
0
LINE
8
0
10
294.619934632
20
-415.917003751
11
309.194265368
21
-451.836556249
0
LINE
8
0
10
293.904429806
20
-367.769559119
11
309.909770194
21
-403.074720881
0
LINE
8
0
10
283.630100947
20
-343.417899028
11
320.184099053
21
-330.517100972
0
LINE
8
0
10
283.441309029
20
-282.624659442
11
320.372890971
21
-294.401060558
0
LINE
8
0
10
299.274301338
20
-220.856014054
11
304.539898662
21
-259.260425946
0
LINE
8
0
10
284.050374249
20
-150.685098668
11
319.763825751
21
-135.612781332
0
LINE
8
0
10
283.696547868
20
140.943228741
11
320.117652132
21
154.214571259
0
LINE
8
0
10
287.289118177
20
208.760320796
11
316.525081823
21
183.306759204
0
LINE
8
0
10
283.358650519
20
250.110578409
11
320.455549481
21
238.865781591
0
LINE
8
0
10
283.27702402
20
432.961030415
11
320.53717598
21
443.652449585
0
LINE
8
0
10
282.52571628
20
486.626076232
11
321.28848372
21
486.896683768
0
LINE
8
0
10
284.827163055
20
592.832106171
11
318.987036945
21
574.509213829
0
LINE
8
0
10
283.595467651
20
686.931354231
11
320.218732349
21
674.228525769
0
LINE
8
0
10
282.67882015
20
731.469656186
11
321.13537985
21
726.599503814
0
LINE
8
0
10
345.913721127
20
-1093.37718408
11
354.809758873
21
-1131.10629592
0
LINE
8
0
10
345.116614176
20
-1045.12845597
11
355.606865824
21
-1082.44574403
0
LINE
8
0
10
344.347214218
20
-996.907427527
11
356.376265782
21
-1033.75749247
0
LINE
8
0
10
333.578758029
20
-957.183086473
11
367.144721971
21
-976.572553527
0
LINE
8
0
10
332.316409324
20
-862.895889662
11
368.407070676
21
-877.041190338
0
LINE
8
0
10
331.089659643
20
-775.119177646
11
369.633820357
21
-770.999342354
0
LINE
8
0
10
346.458652626
20
-608.71055001
11
354.264827374
21
-646.68012999
0
LINE
8
0
10
331.482435718
20
-583.625698499
11
369.241044282
21
-574.855701501
0
LINE
8
0
10
331.027906631
20
-529.422524423
11
369.695573369
21
-532.149595577
0
LINE
8
0
10
344.091701784
20
-463.99176453
11
356.631778216
21
-500.67107547
0
LINE
8
0
10
331.873553418
20
-342.784999369
11
368.849926582
21
-331.150000631
0
LINE
8
0
10
332.513808501
20
-280.955897436
11
368.209671499
21
-296.069822564
0
LINE
8
0
10
332.290960812
20
-150.156313369
11
368.432519188
21
-136.141566631
0
LINE
8
0
10
336.422940674
20
161.046127456
11
364.300539326
21
134.111672544
0
LINE
8
0
10
331.863812674
20
190.247088008
11
368.859667326
21
201.819991992
0
LINE
8
0
10
331.020377773
20
488.013597721
11
369.703102227
21
485.509162279
0
LINE
8
0
10
333.698538707
20
545.115215152
11
367.024941293
21
525.316824848
0
LINE
8
0
10
333.541895921
20
593.301297941
11
367.181584079
21
574.040022059
0
LINE
8
0
10
332.28132702
20
687.562418676
11
368.44215298
21
673.597461324
0
LINE
8
0
10
331.122105644
20
726.69090514
11
369.601374356
21
731.37825486
0
LINE
8
0
10
398.64628526
20
-1335.13383039
11
398.98647474
21
-1373.89604961
0
LINE
8
0
10
397.807299741
20
-1286.70472977
11
399.825460259
21
-1325.41587023
0
LINE
8
0
10
396.973961095
20
-1238.31157193
11
400.658798905
21
-1276.89974807
0
LINE
8
0
10
396.150802859
20
-1189.95333679
11
401.481957141
21
-1228.34870321
0
LINE
8
0
10
395.34208236
20
-1141.62845935
11
402.29067764
21
-1179.76430065
0
LINE
8
0
10
382.468043902
20
-1004.92149228
11
415.164716098
21
-1025.74342772
0
LINE
8
0
10
385.499660042
20
-904.340520039
11
412.133099958
21
-932.505839961
0
LINE
8
0
10
381.018809384
20
-862.293722597
11
416.613950616
21
-877.643357403
0
LINE
8
0
10
379.901256865
20
-817.286080375
11
417.731503135
21
-825.741719625
0
LINE
8
0
10
379.463065747
20
-774.110720623
11
418.169694253
21
-772.007799377
0
LINE
8
0
10
396.702072254
20
-705.33843084
11
400.930687746
21
-743.87080916
0
LINE
8
0
10
395.881344004
20
-656.991642241
11
401.751415996
21
-695.308317759
0
LINE
8
0
10
395.076455818
20
-608.677734759
11
402.556304182
21
-646.712945241
0
LINE
8
0
10
379.622966827
20
-528.089908526
11
418.009793173
21
-533.482211474
0
LINE
8
0
10
380.134974676
20
-342.130971422
11
417.497785324
21
-331.804028578
0
LINE
8
0
10
380.476264388
20
-100.962992157
11
417.156495612
21
-88.4256078432
0
LINE
8
0
10
385.595534874
20
113.296966028
11
412.037225126
21
84.9515539719
0
LINE
8
0
10
380.12838141
20
190.893982559
11
417.50437859
21
201.173097441
0
LINE
8
0
10
379.612518483
20
489.38207549
11
418.020241517
21
484.14068451
0
LINE
8
0
10
382.429566245
20
545.5663184
11
415.203193755
21
524.8657216
0
LINE
8
0
10
381.09523018
20
639.974961843
11
416.53752982
21
624.275638157
0
LINE
8
0
10
380.982057269
20
688.168963306
11
416.650702731
21
672.990916694
0
LINE
8
0
10
379.874166791
20
733.139321252
11
417.758593209
21
724.929838748
0
LINE
8
0
10
379.472581231
20
776.275221986
11
418.160178769
21
778.703218014
0
LINE
8
0
10
431.397267708
20
-1052.66593414
11
463.144772292
21
-1074.90826586
0
LINE
8
0
10
431.201369529
20
-1004.49628559
11
463.340670471
21
-1026.16863441
0
LINE
8
0
10
434.692215951
20
-952.132311169
11
459.849824049
21
-981.623328831
0
LINE
8
0
10
429.864662656
20
-909.898212786
11
464.677377344
21
-926.948147215
0
LINE
8
0
10
428.552074114
20
-816.488225226
11
465.989965886
21
-826.539574774
0
LINE
8
0
10
427.889194477
20
-773.093631387
11
466.652845523
21
-773.024888613
0
LINE
8
0
10
428.06480429
20
-533.389446278
11
466.47723571
21
-528.182673722
0
LINE
8
0
10
431.439934881
20
-325.785680561
11
463.102105119
21
-348.149319439
0
LINE
8
0
10
428.379678306
20
-292.8457056
11
466.162361694
21
-284.1800144
0
LINE
8
0
10
428.751377678
20
-100.41087155
11
465.790662322
21
-88.9777284505
0
LINE
8
0
10
434.801016755
20
65.507253271
11
459.741023245
21
35.831986729
0
LINE
8
0
10
431.841799218
20
159.309010318
11
462.700240782
21
135.848789682
0
LINE
8
0
10
428.412526133
20
191.559889246
11
466.129513867
21
200.507190754
0
LINE
8
0
10
428.082491982
20
484.0306778
11
466.459548018
21
489.4920822
0
LINE
8
0
10
429.824490546
20
640.567749409
11
464.717549454
21
623.682850591
0
LINE
8
0
10
428.520733955
20
733.942035066
11
466.021306045
21
724.127124934
0
LINE
8
0
10
427.8901556
20
777.29316618
11
466.6518844
21
777.68527382
0
LINE
8
0
10
480.142482808
20
-1052.26230366
11
511.308837192
21
-1075.31189634
0
LINE
8
0
10
483.911389566
20
-999.967585899
11
507.539930434
21
-1030.6973341
0
LINE
8
0
10
478.60504772
20
-909.337973499
11
512.84627228
21
-927.508386501
0
LINE
8
0
10
477.231054368
20
-815.716840011
11
514.220265632
21
-827.310959989
0
LINE
8
0
10
476.368747806
20
-772.076258313
11
515.082572194
21
-774.042261687
0
LINE
8
0
10
476.425703894
20
-532.565957835
11
515.025616106
21
-529.006162165
0
LINE
8
0
10
481.545944084
20
-372.208813449
11
509.905375916
21
-398.635466551
0
LINE
8
0
10
476.693239628
20
-292.17664449
11
514.758080372
21
-284.84907551
0
LINE
8
0
10
477.040200063
20
-99.8430793665
11
514.411119937
21
-89.5455206335
0
LINE
8
0
10
484.496385073
20
-30.4422005012
11
506.954934927
21
-62.0371194988
0
LINE
8
0
10
484.032779455
20
17.6724340776
11
507.418540545
21
-13.2424740776
0
LINE
8
0
10
482.128296316
20
112.936140496
11
509.323023684
21
85.3123795036
0
LINE
8
0
10
481.22599448
20
160.440316789
11
510.22532552
21
134.717483211
0
LINE
8
0
10
476.71808755
20
192.242955408
11
514.73323245
21
199.824124592
0
LINE
8
0
10
480.325043836
20
450.074380536
11
511.126276164
21
426.539099464
0
LINE
8
0
10
476.436787208
20
484.865139395
11
515.014532792
21
488.657620605
0
LINE
8
0
10
478.723366789
20
592.975409732
11
512.727953211
21
574.365910268
0
LINE
8
0
10
478.56397445
20
641.132679813
11
512.88734555
21
623.117920187
0
LINE
8
0
10
477.196018062
20
734.718655267
11
514.255301938
21
723.350504733
0
LINE
8
0
10
476.361307027
20
778.31273439
11
515.090012973
21
776.66570561
0
LINE
8
0
10
529.120082205
20
-1100.04148664
11
559.240517795
21
-1124.44199336
0
LINE
8
0
10
527.53066028
20
-956.955832336
11
560.82993972
21
-976.799807664
0
LINE
8
0
10
525.934936026
20
-814.974554813
11
562.425663974
21
-828.053245187
0
LINE
8
0
10
524.901112043
20
-771.066961392
11
563.459487957
21
-775.051558608
0
LINE
8
0
10
526.042417768
20
-572.408894225
11
562.318182232
21
-586.072505775
0
LINE
8
0
10
524.821572393
20
-531.732636688
11
563.539027607
21
-529.839483312
0
LINE
8
0
10
533.157788004
20
-466.389005775
11
555.202811996
21
-498.273834225
0
LINE
8
0
10
531.93008959
20
-418.857169922
11
556.43051041
21
-448.896390078
0
LINE
8
0
10
525.029039074
20
-291.49372346
11
563.331560926
21
-285.53199654
0
LINE
8
0
10
533.776877969
20
-78.3411610952
11
554.583722031
21
-111.047438905
0
LINE
8
0
10
525.310966135
20
-50.6673661231
11
563.049633865
21
-41.8119538769
0
LINE
8
0
10
532.688158893
20
66.2768950593
11
555.672441107
21
35.0623449407
0
LINE
8
0
10
531.530994906
20
113.809334826
11
556.829605094
21
84.4391851739
0
LINE
8
0
10
525.046751115
20
192.941024993
11
563.313848885
21
199.126055007
0
LINE
8
0
10
526.055302383
20
445.172656062
11
562.305297617
21
431.440823938
0
LINE
8
0
10
524.826960724
20
485.710380055
11
563.533639276
21
487.812379945
0
LINE
8
0
10
527.487030636
20
593.51906596
11
560.873569364
21
573.82225404
0
LINE
8
0
10
525.993179713
20
687.279566681
11
562.367420287
21
673.880313319
0
LINE
8
0
10
524.89551087
20
730.971910696
11
563.46508913
21
727.097249304
0
LINE
8
0
10
583.447046101
20
-1192.08529565
11
601.822833899
21
-1226.21674435
0
LINE
8
0
10
578.132222627
20
-1147.83840462
11
607.137657373
21
-1173.55435538
0
LINE
8
0
10
576.299553878
20
-956.446544802
11
608.970326122
21
-977.309095198
0
LINE
8
0
10
574.780350453
20
-862.427321657
11
610.489529547
21
-877.509758343
0
LINE
8
0
10
573.484399299
20
-770.073772958
11
611.785480701
21
-776.044747042
0
LINE
8
0
10
574.972569452
20
-571.259659426
11
610.297310548
21
-587.221740574
0
LINE
8
0
10
573.253384694
20
-530.894022623
11
612.016495306
21
-530.678097377
0
LINE
8
0
10
582.48155753
20
-465.821872265
11
602.78832247
21
-498.840967735
0
LINE
8
0
10
573.388413108
20
-290.799242429
11
611.881466892
21
-286.226477571
0
LINE
8
0
10
583.612845054
20
-174.449625797
11
601.657034946
21
-208.757534203
0
LINE
8
0
10
583.065487112
20
-126.294210295
11
602.204392888
21
-160.003669705
0
LINE
8
0
10
573.638975653
20
-50.0879947726
11
611.630904347
21
-42.3913252274
0
LINE
8
0
10
583.381495734
20
19.245250439
11
601.888384266
21
-14.815290439
0
LINE
8
0
10
573.389602136
20
242.191810584
11
611.880277864
21
246.784549416
0
LINE
8
0
10
578.092400664
20
402.665018937
11
607.177479336
21
377.039181063
0
LINE
8
0
10
575.000524171
20
446.349359
11
610.269355829
21
430.264121
0
LINE
8
0
10
573.254112878
20
486.561675012
11
612.015767122
21
486.961084988
0
LINE
8
0
10
576.465200897
20
545.902267206
11
608.804679103
21
524.529772794
0
LINE
8
0
10
574.736744244
20
688.017071886
11
610.533135756
21
673.142808114
0
LINE
8
0
10
573.484783554
20
732.022530817
11
611.785096446
21
726.046629183
0
LINE
8
0
10
633.329361911
20
-1288.29980009
11
648.849798089
21
-1323.82079991
0
LINE
8
0
10
632.746527922
20
-1240.11138025
11
649.432632078
21
-1275.09993975
0
LINE
8
0
10
627.176288869
20
-1195.65744109
11
655.002871131
21
-1222.64459891
0
LINE
8
0
10
625.297520964
20
-1004.09559151
11
656.881639036
21
-1026.56932849
0
LINE
8
0
10
623.54483498
20
-861.732141261
11
658.63432502
21
-878.204938739
0
LINE
8
0
10
622.160458238
20
-817.349204173
11
660.018701762
21
-825.678595827
0
LINE
8
0
10
639.999900632
20
-705.253420014
11
642.179259368
21
-743.955819986
0
LINE
8
0
10
638.10569118
20
-656.999190212
11
644.07346882
21
-695.300769788
0
LINE
8
0
10
624.250613637
20
-618.098176157
11
657.928546363
21
-637.292503843
0
LINE
8
0
10
623.943585527
20
-570.203487181
11
658.235574473
21
-588.277912819
0
LINE
8
0
10
621.721523727
20
-530.054802027
11
660.457636273
21
-531.517317973
0
LINE
8
0
10
621.772465709
20
-290.09571738
11
660.406694291
21
-286.93000262
0
LINE
8
0
10
632.921588441
20
-222.481523612
11
649.257571559
21
-257.634916388
0
LINE
8
0
10
639.37323402
20
-172.297868449
11
642.80592598
21
-210.909291551
0
LINE
8
0
10
637.491445753
20
-124.103999151
11
644.687714247
21
-162.193880849
0
LINE
8
0
10
635.709232748
20
-76.074197813
11
646.469927252
21
-113.314402187
0
LINE
8
0
10
621.983517523
20
-49.4976837327
11
660.195642477
21
-42.9816362673
0
LINE
8
0
10
621.773983211
20
242.88691091
11
660.405176789
21
246.08944909
0
LINE
8
0
10
627.136916787
20
354.850323311
11
655.042243213
21
327.944596689
0
LINE
8
0
10
623.987997545
20
447.427716897
11
658.191162455
21
429.185763103
0
LINE
8
0
10
621.718718803
20
487.414126895
11
660.460441197
21
486.108633105
0
LINE
8
0
10
625.252240825
20
546.388979762
11
656.926919175
21
524.043060238
0
LINE
8
0
10
623.654466871
20
640.591300956
11
658.524693129
21
623.659299044
0
LINE
8
0
10
622.127567777
20
733.046865442
11
660.051592223
21
725.022294558
0
LINE
8
0
10
683.892296482
20
-1432.88474583
11
695.196143518
21
-1469.96369417
0
LINE
8
0
10
683.251147449
20
-1384.63781577
11
695.837292551
21
-1421.30134423
0
LINE
8
0
10
682.632282614
20
-1336.40744256
11
696.456157386
21
-1372.62243744
0
LINE
8
0
10
676.249050232
20
-1243.50265313
11
702.839389768
21
-1271.70866687
0
LINE
8
0
10
675.934484204
20
-1195.35133038
11
703.153955796
21
-1222.95070962
0
LINE
8
0
10
674.345532207
20
-1051.75978811
11
704.742907793
21
-1075.81441189
0
LINE
8
0
10
672.504679497
20
-909.186817
11
706.583760503
21
-927.659543
0
LINE
8
0
10
670.858458506
20
-816.366215143
11
708.229981494
21
-826.661584857
0
LINE
8
0
10
673.302993755
20
-617.118057171
11
705.785446245
21
-638.272622829
0
LINE
8
0
10
670.22576276
20
-529.219678222
11
708.86267724
21
-532.352441778
0
LINE
8
0
10
684.775442788
20
-463.545385136
11
694.312997212
21
-501.117454864
0
LINE
8
0
10
684.104171998
20
-415.27403236
11
694.984268002
21
-452.47952764
0
LINE
8
0
10
683.453492964
20
-367.02215668
11
695.634947036
21
-403.82212332
0
LINE
8
0
10
682.824882194
20
-318.787652876
11
696.263557806
21
-355.147347124
0
LINE
8
0
10
670.182033927
20
-289.385839075
11
708.906406073
21
-287.639880925
0
LINE
8
0
10
670.345518766
20
-48.897894926
11
708.742921234
21
-43.581425074
0
LINE
8
0
10
670.183266162
20
243.588286401
11
708.905173838
21
245.388073599
0
LINE
8
0
10
676.21060311
20
307.009482811
11
702.87783689
21
278.876157189
0
LINE
8
0
10
673.380858279
20
400.547990794
11
705.707581721
21
379.156209206
0
LINE
8
0
10
670.220605823
20
488.262805041
11
708.867834177
21
485.259954959
0
LINE
8
0
10
672.454830921
20
641.269102432
11
706.633609079
21
622.981497568
0
LINE
8
0
10
670.819116195
20
734.03726223
11
708.269323805
21
724.03189777
0
LINE
8
0
10
733.842325604
20
-1529.40258444
11
742.155394396
21
-1567.26441556
0
LINE
8
0
10
733.182067927
20
-1481.10507892
11
742.815652073
21
-1518.65264108
0
LINE
8
0
10
725.346747201
20
-1291.37764412
11
750.650972799
21
-1320.74295588
0
LINE
8
0
10
723.440904489
20
-1099.44633952
11
752.556815511
21
-1125.03714048
0
LINE
8
0
10
723.143131643
20
-1051.33865926
11
752.854588357
21
-1076.23554074
0
LINE
8
0
10
721.316557444
20
-908.55620866
11
754.681162556
21
-928.29015134
0
LINE
8
0
10
719.598551232
20
-815.424156225
11
756.399168768
21
-827.603643775
0
LINE
8
0
10
737.582173738
20
-753.681883641
11
738.415546262
21
-792.436636359
0
LINE
8
0
10
736.863952553
20
-705.256019867
11
739.133767447
21
-743.953220133
0
LINE
8
0
10
722.845231906
20
-664.065945178
11
753.152488094
21
-688.234014822
0
LINE
8
0
10
735.444331865
20
-608.482564875
11
740.553388135
21
-646.908115125
0
LINE
8
0
10
734.74846998
20
-560.133337369
11
741.249250019
21
-598.348062631
0
LINE
8
0
10
718.765275889
20
-528.393240692
11
757.232444111
21
-533.178879308
0
LINE
8
0
10
718.617660829
20
-288.672424092
11
757.380059171
21
-288.353295908
0
LINE
8
0
10
718.725781994
20
-48.2902224066
11
757.271938006
21
-44.1890975934
0
LINE
8
0
10
718.617984549
20
244.293221608
11
757.379735451
21
244.683138392
0
LINE
8
0
10
722.964428634
20
353.629476003
11
753.033291366
21
329.165443997
0
LINE
8
0
10
723.394601774
20
451.049266581
11
752.603118226
21
425.564213419
0
LINE
8
0
10
718.758961692
20
489.102887017
11
757.238758308
21
484.419872983
0
LINE
8
0
10
721.489123331
20
593.823735255
11
754.508596669
21
573.517584745
0
LINE
8
0
10
719.553801567
20
734.987408017
11
756.443918433
21
723.081751983
0
LINE
8
0
10
774.465204882
20
-1339.28545799
11
798.441795118
21
-1369.74442201
0
LINE
8
0
10
772.579721931
20
-1147.16217799
11
800.327278069
21
-1174.23058201
0
LINE
8
0
10
772.24531177
20
-1099.05903431
11
800.66168823
21
-1125.42444569
0
LINE
8
0
10
770.382785228
20
-956.043224081
11
802.524214772
21
-977.712415919
0
LINE
8
0
10
768.374547526
20
-814.527640669
11
804.532452474
21
-828.500159331
0
LINE
8
0
10
772.555275026
20
-711.095523635
11
800.351724974
21
-738.113716365
0
LINE
8
0
10
767.338675762
20
-527.579841613
11
805.568324238
21
-533.992278387
0
LINE
8
0
10
767.079577529
20
-287.958360135
11
805.827422471
21
-289.067359865
0
LINE
8
0
10
767.124966805
20
-47.676373799
11
805.782033195
21
-44.802946201
0
LINE
8
0
10
774.81794733
20
163.079553408
11
798.08905267
21
132.078246592
0
LINE
8
0
10
774.429947846
20
211.235202265
11
798.477052154
21
180.831877735
0
LINE
8
0
10
767.078374833
20
244.998931183
11
805.828625167
21
243.977428817
0
LINE
8
0
10
772.721106523
20
306.620455446
11
800.185893477
21
279.265184554
0
LINE
8
0
10
772.082780754
20
354.402796226
11
800.824219246
21
328.392123774
0
LINE
8
0
10
772.534013429
20
403.339287832
11
800.372986571
21
376.364912168
0
LINE
8
0
10
767.332372909
20
489.929792976
11
805.574627091
21
483.592967024
0
LINE
8
0
10
770.329575238
20
594.425909521
11
802.577424762
21
572.915410479
0
LINE
8
0
10
768.461374534
20
687.786864673
11
804.445625466
21
673.373015327
0
LINE
8
0
10
824.01067738
20
-1435.39606819
11
845.80560262
21
-1467.45237181
0
LINE
8
0
10
823.599965331
20
-1387.22850228
11
846.216314669
21
-1418.71065772
0
LINE
8
0
10
821.756938577
20
-1194.9136662
11
848.059341423
21
-1223.3883738
0
LINE
8
0
10
821.38640373
20
-1146.81045222
11
848.42987627
21
-1174.58230778
0
LINE
8
0
10
819.521417437
20
-1003.54665876
11
850.294862563
21
-1027.11826124
0
LINE
8
0
10
817.352631942
20
-861.755107172
11
852.463648058
21
-878.181972828
0
LINE
8
0
10
822.402799213
20
-758.251397433
11
847.413480787
21
-787.867122567
0
LINE
8
0
10
815.944075212
20
-526.783487235
11
853.872204788
21
-534.788632765
0
LINE
8
0
10
815.567695433
20
-287.246548046
11
854.248584567
21
-289.779171954
0
LINE
8
0
10
815.543573923
20
-47.05814804
11
854.272706077
21
-45.42117196
0
LINE
8
0
10
823.978340971
20
115.13037868
11
845.837939029
21
83.1181413201
0
LINE
8
0
10
823.566895871
20
163.296168325
11
846.249384129
21
131.861631675
0
LINE
8
0
10
815.564368627
20
245.702614471
11
854.251911373
21
243.273745529
0
LINE
8
0
10
821.848359818
20
307.264079847
11
847.967920182
21
278.621560153
0
LINE
8
0
10
821.712568368
20
355.593700041
11
848.103711632
21
327.201219959
0
LINE
8
0
10
815.93888962
20
490.739304337
11
853.87739038
21
482.783455663
0
LINE
8
0
10
819.4665711
20
546.929870431
11
850.3497089
21
523.502169569
0
LINE
8
0
10
817.295885393
20
688.670973905
11
852.520394607
21
672.488906095
0
LINE
8
0
10
873.177948327
20
-1483.38869488
11
893.547611673
21
-1516.36902512
0
LINE
8
0
10
872.746429207
20
-1435.20850423
11
893.979130793
21
-1467.63993577
0
LINE
8
0
10
870.966560026
20
-1242.70632873
11
895.758999974
21
-1272.50499127
0
LINE
8
0
10
870.561265073
20
-1194.59844093
11
896.164294927
21
-1223.70359907
0
LINE
8
0
10
868.728761112
20
-1051.07876285
11
897.996798888
21
-1076.49543715
0
LINE
8
0
10
868.381283539
20
-1003.0356675
11
898.344276461
21
-1027.6292525
0
LINE
8
0
10
866.213322974
20
-860.937899618
11
900.512237026
21
-878.999180382
0
LINE
8
0
10
872.345571724
20
-805.567820112
11
894.379988276
21
-837.459979888
0
LINE
8
0
10
864.631820176
20
-574.259988599
11
902.093739824
21
-584.221411401
0
LINE
8
0
10
864.081609219
20
-286.539843196
11
902.643950781
21
-290.485876804
0
LINE
8
0
10
863.981932833
20
-46.4374100344
11
902.743627167
21
-46.0419099656
0
LINE
8
0
10
873.603169676
20
18.9603181075
11
893.122390324
21
-14.5303581076
0
LINE
8
0
10
873.148415473
20
67.1415081527
11
893.577144527
21
34.1977318473
0
LINE
8
0
10
872.604909262
20
212.155716007
11
894.120650738
21
179.911363993
0
LINE
8
0
10
864.075594947
20
246.401510795
11
902.649965053
21
242.574849205
0
LINE
8
0
10
870.924236263
20
307.806836002
11
895.801323737
21
278.078803998
0
LINE
8
0
10
864.629378722
20
443.278260749
11
902.096181278
21
433.335219251
0
LINE
8
0
10
868.673469801
20
499.405766418
11
898.052090199
21
474.116993582
0
LINE
8
0
10
866.384638335
20
641.474045777
11
900.340921665
21
622.776554223
0
LINE
8
0
10
922.349738205
20
-1531.42139358
11
941.285101795
21
-1565.24560642
0
LINE
8
0
10
920.201889262
20
-1290.54463734
11
943.432950738
21
-1321.57596266
0
LINE
8
0
10
917.998608121
20
-1098.65142064
11
945.636231879
21
-1125.83205936
0
LINE
8
0
10
917.599260557
20
-1050.61514934
11
946.035579443
21
-1076.95905066
0
LINE
8
0
10
915.358263724
20
-908.188312307
11
948.276576276
21
-928.658047693
0
LINE
8
0
10
922.335580263
20
-853.064367225
11
941.299259737
21
-886.872712775
0
LINE
8
0
10
913.310971242
20
-573.481559753
11
950.323868758
21
-584.999840247
0
LINE
8
0
10
912.620610348
20
-285.840999004
11
951.014229652
21
-291.184720996
0
LINE
8
0
10
923.289244796
20
-77.2895141728
11
940.345595204
21
-112.099085827
0
LINE
8
0
10
912.44019348
20
-45.8160630203
11
951.19464652
21
-46.6632569797
0
LINE
8
0
10
922.323247091
20
19.1122289709
11
941.311592909
21
-14.6822689709
0
LINE
8
0
10
923.709655632
20
116.728819039
11
939.925184368
21
81.5197009608
0
LINE
8
0
10
922.633898395
20
164.646977599
11
941.000941605
21
130.510822401
0
LINE
8
0
10
920.630595167
20
211.861088521
11
943.004244833
21
180.205991479
0
LINE
8
0
10
912.6113923
20
247.092952926
11
951.0234477
21
241.883407074
0
LINE
8
0
10
913.312090852
20
444.069476775
11
950.322749148
21
432.544003225
0
LINE
8
0
10
915.294246539
20
642.256493452
11
948.340593461
21
621.994106548
0
LINE
8
0
10
969.952560736
20
-1386.56335323
11
990.591559264
21
-1419.37580677
0
LINE
8
0
10
969.455813516
20
-1338.43186958
11
991.088306484
21
-1370.59801042
0
LINE
8
0
10
967.322440239
20
-1146.27543377
11
993.221679761
21
-1175.11732623
0
LINE
8
0
10
966.872134043
20
-1098.23822878
11
993.671985957
21
-1126.24525122
0
LINE
8
0
10
975.832214236
20
-1044.92061883
11
984.711905764
21
-1082.65358117
0
LINE
8
0
10
974.588655693
20
-996.802612254
11
985.955464307
21
-1033.86230775
0
LINE
8
0
10
964.615804714
20
-955.452496704
11
995.928315286
21
-978.303143296
0
LINE
8
0
10
964.276205613
20
-907.478364586
11
996.267914387
21
-929.367995414
0
LINE
8
0
10
962.015551921
20
-572.732531688
11
998.528568079
21
-585.748868312
0
LINE
8
0
10
961.183710242
20
-285.152615141
11
999.360409758
21
-291.873104859
0
LINE
8
0
10
973.018120971
20
-173.630357958
11
987.525999029
21
-209.576802042
0
LINE
8
0
10
972.491629802
20
-125.397285205
11
988.052490198
21
-160.900594795
0
LINE
8
0
10
971.984895618
20
-77.1734767169
11
988.559224382
21
-112.215123283
0
LINE
8
0
10
960.918322462
20
-45.1960195805
11
999.625797538
21
-47.2833004196
0
LINE
8
0
10
974.984514647
20
20.8616474272
11
985.559605353
21
-16.4316874272
0
LINE
8
0
10
973.779951909
20
68.9318453447
11
986.764168091
21
32.4073946553
0
LINE
8
0
10
969.91745986
20
163.962995884
11
990.62666014
21
131.194804116
0
LINE
8
0
10
961.191942233
20
199.440216974
11
999.352177767
21
192.626863026
0
LINE
8
0
10
967.270049446
20
404.225828242
11
993.274070554
21
375.478371758
0
LINE
8
0
10
962.021051733
20
444.830315647
11
998.523068267
21
431.783164353
0
LINE
8
0
10
964.548418047
20
595.003066
11
995.995701953
21
572.338254
0
LINE
8
0
10
1019.79369742
20
-1482.67834236
11
1037.65970258
21
-1517.07937764
0
LINE
8
0
10
1019.24309532
20
-1434.52103733
11
1038.21030468
21
-1468.32740267
0
LINE
8
0
10
1018.72110453
20
-1386.37004985
11
1038.73229547
21
-1419.56911015
0
LINE
8
0
10
1016.68986167
20
-1193.9598757
11
1040.76353833
21
-1224.3421643
0
LINE
8
0
10
1016.19120427
20
-1145.91403618
11
1041.26219573
21
-1175.47872382
0
LINE
8
0
10
1013.98130578
20
-1002.7535216
11
1043.47209422
21
-1027.9113984
0
LINE
8
0
10
1013.56473763
20
-954.804243928
11
1043.88866237
21
-978.951396072
0
LINE
8
0
10
1010.86228719
20
-620.177421615
11
1046.59111281
21
-635.213258385
0
LINE
8
0
10
1023.33756628
20
-318.349938941
11
1034.11583372
21
-355.585061059
0
LINE
8
0
10
1009.76967166
20
-284.477092608
11
1047.68372834
21
-292.548627392
0
LINE
8
0
10
1022.21779097
20
-221.801975993
11
1035.23560903
21
-258.314464007
0
LINE
8
0
10
1009.41610388
20
-44.5791723204
11
1048.03729612
21
-47.9001476796
0
LINE
8
0
10
1019.7647849
20
67.8550911818
11
1037.6886151
21
33.4841488182
0
LINE
8
0
10
1019.212102
20
116.010016334
11
1038.241298
21
82.2385036659
0
LINE
8
0
10
1009.78309562
20
200.13185615
11
1047.67030438
21
191.93522385
0
LINE
8
0
10
1016.64072871
20
356.549543684
11
1040.81267129
21
326.245376316
0
LINE
8
0
10
1010.87570079
20
397.401813181
11
1046.57769921
21
382.302386819
0
LINE
8
0
10
1010.75264401
20
445.558612393
11
1046.70075599
21
431.054867607
0
LINE
8
0
10
1013.91272573
20
547.714120184
11
1043.54067427
21
522.717919816
0
LINE
8
0
10
1069.10320651
20
-1530.71532469
11
1085.25947349
21
-1565.95167531
0
LINE
8
0
10
1068.53362713
20
-1482.53315724
11
1085.82905287
21
-1517.22456276
0
LINE
8
0
10
1066.08920966
20
-1241.71160493
11
1088.27347034
21
-1273.49971507
0
LINE
8
0
10
1062.94863216
20
-1002.17623069
11
1091.41404784
21
-1028.48868931
0
LINE
8
0
10
1059.62862116
20
-619.475948093
11
1094.73405884
21
-635.914731907
0
LINE
8
0
10
1074.91289575
20
-559.992050626
11
1079.44978425
21
-598.489349374
0
LINE
8
0
10
1074.30071
20
-511.619466332
11
1080.06197
21
-549.952653668
0
LINE
8
0
10
1073.6972132
20
-463.265292904
11
1080.6654668
21
-501.397547096
0
LINE
8
0
10
1073.10400751
20
-414.92864812
11
1081.25867249
21
-452.82491188
0
LINE
8
0
10
1072.5225503
20
-366.608527361
11
1081.8401297
21
-404.235752639
0
LINE
8
0
10
1058.419951
20
-332.102664483
11
1095.942729
21
-341.832335517
0
LINE
8
0
10
1057.9331448
20
-43.9673652571
11
1096.4295352
21
-48.5119547429
0
LINE
8
0
10
1069.07902459
20
19.8220475311
11
1085.28365541
21
-15.3920875311
0
LINE
8
0
10
1058.39661913
20
200.807490564
11
1095.96606087
21
191.259589436
0
LINE
8
0
10
1066.63066847
20
260.746706141
11
1087.73201153
21
228.229653859
0
LINE
8
0
10
1066.04435768
20
308.805479514
11
1088.31832232
21
277.080160486
0
LINE
8
0
10
1059.64825333
20
398.113287198
11
1094.71442667
21
381.590912802
0
LINE
8
0
10
1063.3768281
20
500.366224479
11
1090.9858519
21
473.156535521
0
LINE
8
0
10
1062.88291091
20
548.300792359
11
1091.47976909
21
522.131247641
0
LINE
8
0
10
1116.13010908
20
-1337.6242692
11
1135.14185092
21
-1371.4056108
0
LINE
8
0
10
1115.50826158
20
-1289.53499632
11
1135.76369842
21
-1322.58560368
0
LINE
8
0
10
1112.9884524
20
-1097.55513427
11
1138.2835076
21
-1126.92834573
0
LINE
8
0
10
1112.41571549
20
-1049.61385237
11
1138.85624451
21
-1077.96034763
0
LINE
8
0
10
1125.25092913
20
-705.226589196
11
1126.02103087
21
-743.982650804
0
LINE
8
0
10
1108.59167611
20
-666.92241006
11
1142.68028389
21
-685.37754994
0
LINE
8
0
10
1124.03815318
20
-608.379458155
11
1127.23380682
21
-647.011221845
0
LINE
8
0
10
1107.05912251
20
-331.439687777
11
1144.21283749
21
-342.495312223
0
LINE
8
0
10
1120.28212641
20
-172.975842786
11
1130.98983359
21
-210.231317214
0
LINE
8
0
10
1119.62620303
20
-124.722358037
11
1131.64575697
21
-161.575521963
0
LINE
8
0
10
1118.99234927
20
-76.4866501602
11
1132.27961073
21
-112.90194984
0
LINE
8
0
10
1106.46888511
20
-43.362366915
11
1144.80307489
21
-49.116953085
0
LINE
8
0
10
1107.03075165
20
201.465097776
11
1144.24120835
21
190.601982224
0
LINE
8
0
10
1115.46850717
20
260.989053861
11
1135.80345283
21
227.987306139
0
LINE
8
0
10
1108.62289052
20
350.682454794
11
1142.64906948
21
332.112465206
0
LINE
8
0
10
1108.43602221
20
398.786180472
11
1142.83593779
21
380.918019528
0
LINE
8
0
10
1112.92466137
20
452.938169211
11
1138.34729863
21
423.675310789
0
LINE
8
0
10
1112.35223364
20
500.875147206
11
1138.91972636
21
472.647612794
0
LINE
8
0
10
1166.27616573
20
-1433.68751663
11
1181.90507427
21
-1469.16092337
0
LINE
8
0
10
1165.58666577
20
-1385.55294702
11
1182.59457423
21
-1420.38621298
0
LINE
8
0
10
1162.59371133
20
-1145.09261657
11
1185.58752867
21
-1176.30014343
0
LINE
8
0
10
1161.94954684
20
-1097.13377241
11
1186.23169316
21
-1127.34970759
0
LINE
8
0
10
1157.40629274
20
-666.286432669
11
1190.77494726
21
-686.013527331
0
LINE
8
0
10
1173.78700015
20
-511.406582272
11
1174.39423985
21
-550.165537728
0
LINE
8
0
10
1173.06565428
20
-462.976684474
11
1175.11558572
21
-501.686155526
0
LINE
8
0
10
1172.34855295
20
-414.573372415
11
1175.83268705
21
-453.180187585
0
LINE
8
0
10
1171.63858976
20
-366.196014813
11
1176.54265024
21
-404.648265187
0
LINE
8
0
10
1155.71717661
20
-330.797174227
11
1192.46406339
21
-343.137825773
0
LINE
8
0
10
1170.25088201
20
-269.515156081
11
1177.93035799
21
-307.510563919
0
LINE
8
0
10
1169.57801243
20
-221.209010071
11
1178.60322757
21
-258.907429929
0
LINE
8
0
10
1155.02261123
20
-42.7658460209
11
1193.15862877
21
-49.7134739791
0
LINE
8
0
10
1166.97983801
20
68.6999589184
11
1181.20140199
21
32.6392810815
0
LINE
8
0
10
1166.24877495
20
116.848870242
11
1181.93246505
21
81.3996497576
0
LINE
8
0
10
1155.75547405
20
153.862112961
11
1192.42576595
21
141.295687039
0
LINE
8
0
10
1157.44479725
20
351.325849954
11
1190.73644275
21
331.469070046
0
LINE
8
0
10
1162.53566537
20
405.412927919
11
1185.64557463
21
374.291272081
0
LINE
8
0
10
1161.89036167
20
453.366953767
11
1186.29087833
21
423.246526233
0
LINE
8
0
10
1216.47975358
20
-1529.92518737
11
1228.61076642
21
-1566.74181263
0
LINE
8
0
10
1215.7396274
20
-1481.73114095
11
1229.3508926
21
-1518.02657905
0
LINE
8
0
10
1212.23722971
20
-1192.73758485
11
1232.85329029
21
-1225.56445515
0
LINE
8
0
10
1211.53072728
20
-1144.74845189
11
1233.55979272
21
-1176.64430811
0
LINE
8
0
10
1206.47749736
20
-713.765646541
11
1238.61302264
21
-735.443593459
0
LINE
8
0
10
1204.4818134
20
-378.395886444
11
1240.6087066
21
-392.448393556
0
LINE
8
0
10
1218.04413017
20
-75.8423459308
11
1227.04638983
21
-113.546254069
0
LINE
8
0
10
1203.59347304
20
-42.1793505291
11
1241.49704696
21
-50.2999694709
0
LINE
8
0
10
1216.4639087
20
20.6180642096
11
1228.6266113
21
-16.1881042096
0
LINE
8
0
10
1215.71919343
20
68.8096629195
11
1229.37132657
21
32.5295770805
0
LINE
8
0
10
1204.4392818
20
154.494816092
11
1240.6512382
21
140.662983908
0
LINE
8
0
10
1206.53056297
20
303.86004588
11
1238.55995703
21
282.02559412
0
LINE
8
0
10
1212.18666189
20
357.779028521
11
1232.90385811
21
325.015891479
0
LINE
8
0
10
1262.71076833
20
-1288.54040736
11
1279.28903167
21
-1323.58019264
0
LINE
8
0
10
1261.89589544
20
-1240.49503631
11
1280.10390456
21
-1274.71628369
0
LINE
8
0
10
1255.62226598
20
-761.261602864
11
1286.37753402
21
-784.856917136
0
LINE
8
0
10
1255.32296987
20
-713.20768165
11
1286.67683013
21
-736.00155835
0
LINE
8
0
10
1253.18639786
20
-377.784373089
11
1288.81340214
21
-393.059906911
0
LINE
8
0
10
1270.8232054
20
-317.586449434
11
1271.1765946
21
-356.348550566
0
LINE
8
0
10
1269.97501558
20
-269.158120169
11
1272.02478442
21
-307.867599831
0
LINE
8
0
10
1269.13268698
20
-220.766515629
11
1272.86711302
21
-259.349924371
0
LINE
8
0
10
1268.30089893
20
-172.410567333
11
1273.69890107
21
-210.796592667
0
LINE
8
0
10
1267.48403871
20
-124.088639336
11
1274.51576129
21
-162.209240664
0
LINE
8
0
10
1252.21664726
20
-89.9145763283
11
1289.78315274
21
-99.4740236718
0
LINE
8
0
10
1252.18050331
20
-41.6042905165
11
1289.81929669
21
-50.8750294835
0
LINE
8
0
10
1253.13816002
20
155.103166525
11
1288.86163998
21
140.054633475
0
LINE
8
0
10
1263.55210354
20
213.927300642
11
1278.44769646
21
178.139779358
0
LINE
8
0
10
1255.69183377
20
256.375965762
11
1286.30796623
21
232.600394238
0
LINE
8
0
10
1255.38344791
20
304.42248751
11
1286.61635209
21
281.46315249
0
LINE
8
0
10
1314.23184865
20
-1432.75928397
11
1324.67723135
21
-1470.08915603
0
LINE
8
0
10
1313.29008688
20
-1384.59416545
11
1325.61899312
21
-1421.34499455
0
LINE
8
0
10
1312.39449019
20
-1336.46467577
11
1326.51458981
21
-1372.56520423
0
LINE
8
0
10
1304.48556603
20
-760.747226856
11
1334.42351397
21
-785.371293144
0
LINE
8
0
10
1301.90371136
20
-377.198712722
11
1337.00536864
21
-393.645567278
0
LINE
8
0
10
1300.82769514
20
-89.3373425869
11
1338.08138486
21
-100.051257413
0
LINE
8
0
10
1315.21105791
20
69.5812355259
11
1323.69802209
21
31.7580044741
0
LINE
8
0
10
1301.9770059
20
107.502335177
11
1336.9320741
21
90.7461848233
0
LINE
8
0
10
1313.26991209
20
165.947534126
11
1325.63916791
21
129.210265874
0
LINE
8
0
10
1304.56241999
20
256.893062246
11
1334.34666001
21
232.083297754
0
LINE
8
0
10
1364.85432134
20
-1529.19390281
11
1370.96403866
21
-1567.47309719
0
LINE
8
0
10
1363.88349258
20
-1480.91968853
11
1371.93486742
21
-1518.83803147
0
LINE
8
0
10
1353.71075502
20
-808.320679393
11
1382.10760498
21
-834.707120607
0
LINE
8
0
10
1350.77963631
20
-424.808424304
11
1385.03872369
21
-442.945135696
0
LINE
8
0
10
1349.45329068
20
-88.7751369224
11
1386.36506932
21
-100.613463078
0
LINE
8
0
10
1365.86393921
20
-26.9660165423
11
1369.95442079
21
-65.5133034577
0
LINE
8
0
10
1364.86037079
20
21.3555417574
11
1370.95798921
21
-16.9255817574
0
LINE
8
0
10
1350.71503521
20
108.069522825
11
1385.10332479
21
90.1789971749
0
LINE
8
0
10
1353.80511812
20
209.327590564
11
1382.01324188
21
182.739489436
0
LINE
8
0
10
1402.99150268
20
-855.938662188
11
1429.73613732
21
-883.998417812
0
LINE
8
0
10
1399.71110802
20
-472.414589573
11
1433.01653198
21
-492.248250427
0
LINE
8
0
10
1399.53134367
20
-424.268237831
11
1433.19629633
21
-443.485322169
0
LINE
8
0
10
1398.09210922
20
-88.2289363335
11
1434.63553078
21
-101.159663666
0
LINE
8
0
10
1399.63477077
20
60.4571249901
11
1433.09286923
21
40.8821150099
0
LINE
8
0
10
1403.10396617
20
161.715116552
11
1429.62367383
21
133.442683448
0
LINE
8
0
10
1452.82347844
20
-951.653603785
11
1476.81344156
21
-982.102036215
0
LINE
8
0
10
1452.31885524
20
-903.610475223
11
1477.31806476
21
-933.235884777
0
LINE
8
0
10
1448.48429837
20
-471.8982275
11
1481.15262163
21
-492.7646125
0
LINE
8
0
10
1446.82428399
20
-135.947136637
11
1482.81263601
21
-150.350743363
0
LINE
8
0
10
1448.60978274
20
12.8420738421
11
1481.02713726
21
-8.41211384215
0
LINE
8
0
10
1448.40256758
20
60.9737365552
11
1481.23435242
21
40.3655034448
0
LINE
8
0
10
1452.4494089
20
114.046153877
11
1477.1875111
21
84.2023661225
0
LINE
8
0
10
1502.2317093
20
-999.403114956
11
1524.3144907
21
-1031.26180504
0
LINE
8
0
10
1501.68241807
20
-951.343585729
11
1524.86378193
21
-982.412054271
0
LINE
8
0
10
1497.49013454
20
-519.536422527
11
1529.05606546
21
-542.035697473
0
LINE
8
0
10
1495.49668333
20
-135.425252261
11
1531.04951667
21
-150.872627739
0
LINE
8
0
10
1497.39614555
20
13.3315738779
11
1529.15005445
21
-8.90161387795
0
LINE
8
0
10
1501.83044532
20
66.313212803
11
1524.71575468
21
35.026027197
0
LINE
8
0
10
1552.28839618
20
-1095.31380066
11
1571.16708382
21
-1129.16967934
0
LINE
8
0
10
1551.6593036
20
-1047.22561062
11
1571.7961764
21
-1080.34858938
0
LINE
8
0
10
1546.54734994
20
-567.190301684
11
1576.90813006
21
-591.291098316
0
LINE
8
0
10
1546.28139618
20
-519.078506687
11
1577.17408382
21
-542.493613313
0
LINE
8
0
10
1544.29132179
20
-183.14026729
11
1579.16415821
21
-200.06689271
0
LINE
8
0
10
1552.48319672
20
-77.6591962003
11
1570.97228328
21
-111.7294038
0
LINE
8
0
10
1546.44071162
20
-34.324832876
11
1577.01476838
21
-58.154487124
0
LINE
8
0
10
1602.44991945
20
-1191.37841761
11
1617.91484055
21
-1226.92362239
0
LINE
8
0
10
1601.75286217
20
-1143.24359881
11
1618.61189783
21
-1178.14916119
0
LINE
8
0
10
1601.09392306
20
-1095.12285299
11
1619.27083694
21
-1129.36062701
0
LINE
8
0
10
1595.34985769
20
-566.764617924
11
1625.01490231
21
-591.716782076
0
LINE
8
0
10
1592.99251165
20
-182.650102014
11
1627.37224835
21
-200.557057986
0
LINE
8
0
10
1601.96128936
20
-125.597016724
11
1618.40347064
21
-160.700863276
0
LINE
8
0
10
1595.53371896
20
-82.0028433611
11
1624.83104104
21
-107.385756639
0
LINE
8
0
10
1653.44538915
20
-1335.84134069
11
1663.82865085
21
-1373.18853931
0
LINE
8
0
10
1652.66735022
20
-1287.62068545
11
1664.60668978
21
-1324.49991455
0
LINE
8
0
10
1651.91992694
20
-1239.42498337
11
1665.35411306
21
-1275.78633663
0
LINE
8
0
10
1644.46243832
20
-614.476505851
11
1672.81160168
21
-640.914174149
0
LINE
8
0
10
1653.70560269
20
-318.223501884
11
1663.56843731
21
-355.711498116
0
LINE
8
0
10
1652.91435215
20
-269.995100559
11
1664.35968785
21
-307.030619441
0
LINE
8
0
10
1641.84782
20
-230.374258751
11
1675.42622
21
-249.742181249
0
LINE
8
0
10
1644.67134797
20
-129.709581876
11
1672.60269203
21
-156.588298124
0
LINE
8
0
10
1644.33968406
20
-81.6083332016
11
1672.93435594
21
-107.780266798
0
LINE
8
0
10
1705.33567827
20
-1529.03135322
11
1708.84764173
21
-1567.63564678
0
LINE
8
0
10
1704.50436559
20
-1480.67046992
11
1709.67895441
21
-1519.08725008
0
LINE
8
0
10
1703.68733483
20
-1432.34368248
11
1710.49598517
21
-1470.50475752
0
LINE
8
0
10
1702.88860251
20
-1384.04893916
11
1711.29471749
21
-1421.89022084
0
LINE
8
0
10
1693.61472416
20
-662.220567147
11
1720.56859584
21
-690.079392853
0
LINE
8
0
10
1706.47351592
20
-559.868703719
11
1707.70980408
21
-598.612696281
0
LINE
8
0
10
1705.62605188
20
-511.459696274
11
1708.55726812
21
-550.112423726
0
LINE
8
0
10
1704.78695476
20
-463.087078604
11
1709.39636524
21
-501.575761396
0
LINE
8
0
10
1703.96079373
20
-414.749469201
11
1710.22252627
21
-453.004090799
0
LINE
8
0
10
1703.15178397
20
-366.444950565
11
1711.03153603
21
-404.399329435
0
LINE
8
0
10
1690.57163686
20
-229.921890408
11
1723.61168314
21
-250.194549592
0
LINE
8
0
10
1693.84860028
20
-177.451629204
11
1720.33471972
21
-205.755530796
0
LINE
8
0
10
1693.48023499
20
-129.350916547
11
1720.70308501
21
-156.946963453
0
ENDSEC
0
EOF
