0
SECTION
2
HEADER
9
$ACADVER
1
AC1006
9
$INSBASE
10
0.0
20
0.0
30
0.0
9
$EXTMIN
10
0.0
20
0.0
9
$EXTMAX
10
0.0
20
0.0
0
ENDSEC
0
SECTION
2
TABLES
0
TABLE
2
LTYPE
70
1
0
LTYPE
2
CONTINUOUS
70
64
3
Solid line
72
65
73
0
40
0.0
0
ENDTAB
0
TABLE
2
LAYER
70
1
0
LAYER
2
PYDXF
70
64
62
7
6
continuous
0
ENDTAB
0
TABLE
2
STYLE
70
1
0
STYLE
2
STANDARD
70
0
40
0
41
40
50
50
71
0
42
1
3
ARIAL.TTF
4

0
ENDTAB
0
TABLE
2
VIEW
70
0
0
ENDTAB
0
ENDSEC
0
SECTION
2
BLOCKS
0
ENDSEC
0
SECTION
2
ENTITIES
0
ARC
8
drawinglayer
10
-1.1578945331
20
-1.20064646621
30
0
40
0.962661737523
50
90.3437746771
51
142.772335016
0
ARC
8
drawinglayer
10
-1.1578945331
20
-1.10870890633
30
0
40
0.870724177643
50
90.3437746771
51
143.147736964
0
ARC
8
drawinglayer
10
-1.1876397209
20
-1.23351172446
30
0
40
0.851190833341
50
90.2291831181
51
143.136392399
0
ARC
8
drawinglayer
10
-0.851214059672
20
-0.991144961338
30
0
40
0.947177516912
50
90.8021409132
51
143.761260171
0
ARC
8
drawinglayer
10
-0.700939698638
20
-0.810552496347
30
0
40
0.947177516912
50
91.4896902673
51
144.200546912
0
ARC
8
drawinglayer
10
-0.700939698638
20
-0.810552496347
30
0
40
0.947177516912
50
67.5900736464
51
67.6546459899
0
ARC
8
drawinglayer
10
-1.15839002816
20
-0.838222798579
30
0
40
0.656848380447
50
90.3437746771
51
144.033988081
0
ARC
8
drawinglayer
10
-0.41455129632
20
-1.09955773195
30
0
40
0.851190833341
50
89.9651068703
51
90.0572957795
0
ARC
8
drawinglayer
10
-0.41455129632
20
-1.21102863613
30
0
40
0.962661737523
50
89.965450645
51
90.0572957795
0
ARC
8
drawinglayer
10
-0.416231334256
20
-1.01669392535
30
0
40
0.962661737523
50
89.9578303063
51
90.0572957795
0
ARC
8
drawinglayer
10
-0.418050730178
20
-0.805589803641
30
0
40
0.962661737523
50
89.9495224182
51
90.0
0
ARC
8
drawinglayer
10
-1.12455700613
20
-1.0536934705
30
0
40
0.962661737523
50
87.765464599
51
142.875009053
0
ARC
8
drawinglayer
10
-0.413506111428
20
-1.33229330985
30
0
40
0.962661737523
50
46.8562780266
51
89.9701488989
0
ARC
8
drawinglayer
10
-1.12455700613
20
-0.859358759714
30
0
40
0.768327026739
50
87.7081688195
51
143.672107938
0
ARC
8
drawinglayer
10
-1.12455700613
20
-0.747880113422
30
0
40
0.656848380447
50
87.65087304
51
144.136834005
0
ARC
8
drawinglayer
10
-1.1876397209
20
-1.03916927156
30
0
40
0.656848380447
50
90.1718873385
51
143.944721257
0
ARC
8
drawinglayer
10
-0.700939698638
20
-0.520223359882
30
0
40
0.656848380447
50
91.5469860469
51
145.382157773
0
ARC
8
drawinglayer
10
-1.15765452768
20
-0.923146006523
30
0
40
0.656848380447
50
90.3437746771
51
144.036222617
0
ARC
8
drawinglayer
10
-1.18798811586
20
-1.13322816967
30
0
40
0.791553357656
50
86.5049574497
51
143.38156104
0
ARC
8
drawinglayer
10
-0.851214059672
20
-0.700815824873
30
0
40
0.656848380447
50
90.8021409132
51
144.949116272
0
ARC
8
drawinglayer
10
-0.416378434352
20
-0.694111157349
30
0
40
0.656848380447
50
89.9561114329
51
90.0
0
ARC
8
drawinglayer
10
-0.41455129632
20
-0.905215279055
30
0
40
0.656848380447
50
89.9645912083
51
90.0
0
ARC
8
drawinglayer
10
-0.413506111428
20
-1.02647995277
30
0
40
0.656848380447
50
32.6469247074
51
89.9694613495
0
ARC
8
drawinglayer
10
-0.418050730178
20
-0.499776446565
30
0
40
0.656848380447
50
89.9483192069
51
90.0
0
ARC
8
drawinglayer
10
-0.685850325653
20
-0.613569983838
30
0
40
0.768327026739
50
91.6042818264
51
144.967622808
0
ARC
8
drawinglayer
10
-0.418050730178
20
-0.611255092857
30
0
40
0.768327026739
50
89.9487775731
51
90.0
0
ARC
8
drawinglayer
10
-0.413506111428
20
-1.13795859907
30
0
40
0.768327026739
50
36.8868123914
51
89.9696905326
0
ARC
8
drawinglayer
10
-1.1578945331
20
-0.589019752059
30
0
40
0.351035023371
50
29.6675441727
51
145.34038915
0
ARC
8
drawinglayer
10
-1.1578945331
20
-0.680957311939
30
0
40
0.442972583252
50
90.3437746771
51
144.943673173
0
ARC
8
drawinglayer
10
-1.15665579545
20
-0.709858609711
30
0
40
0.327808692454
50
29.6102483932
51
145.444953947
0
ARC
8
drawinglayer
10
-1.1876397209
20
-0.84483456078
30
0
40
0.462513669664
50
90.1718873385
51
144.769952369
0
ARC
8
drawinglayer
10
-0.851214059672
20
-0.410486688409
30
0
40
0.366519243983
50
90.8021409132
51
146.172610347
0
ARC
8
drawinglayer
10
-0.700939698638
20
-0.229894223418
30
0
40
0.366519243983
50
91.5469860469
51
146.598432581
0
ARC
8
drawinglayer
10
-1.1240150584
20
-0.532115241312
30
0
40
0.351035023371
50
29.7821357318
51
145.441688088
0
ARC
8
drawinglayer
10
-1.15839002816
20
-0.838222798579
30
0
40
0.656848380447
50
90.3437746771
51
144.033988081
0
ARC
8
drawinglayer
10
-0.41455129632
20
-0.710880568271
30
0
40
0.462513669664
50
88.1092392761
51
89.9640182505
0
ARC
8
drawinglayer
10
-0.41455129632
20
-0.599401921979
30
0
40
0.351035023371
50
85.1298587414
51
147.449217611
0
ARC
8
drawinglayer
10
-0.416231334256
20
-0.405067211195
30
0
40
0.351035023371
50
85.1298587414
51
147.444691244
0
ARC
8
drawinglayer
10
-0.418050730178
20
-0.193963089489
30
0
40
0.351035023371
50
85.1298587414
51
147.439821103
0
ARC
8
drawinglayer
10
-1.12455700613
20
-0.442066756346
30
0
40
0.351035023371
50
29.7821357318
51
145.440083806
0
ARC
8
drawinglayer
10
-0.413506111428
20
-0.720666595697
30
0
40
0.351035023371
50
31.3864175581
51
147.452025104
0
ARC
8
drawinglayer
10
-0.620243682922
20
-0.722447281068
30
0
40
0.351035023371
50
30.928051322
51
146.888807591
0
ARC
8
drawinglayer
10
-0.820400460656
20
-0.570098034472
30
0
40
0.351035023371
50
30.4696850859
51
146.326850586
0
ARC
8
drawinglayer
10
-0.78580871181
20
-0.703169426406
30
0
40
0.351035023371
50
30.5269808654
51
146.425170143
0
ARC
8
drawinglayer
10
-1.12455700613
20
-0.63640920924
30
0
40
0.545377476266
50
87.65087304
51
144.607060468
0
ARC
8
drawinglayer
10
-1.12455700613
20
-0.747880113422
30
0
40
0.656848380447
50
87.65087304
51
144.136834005
0
ARC
8
drawinglayer
10
-1.1876397209
20
-1.03916927156
30
0
40
0.656848380447
50
90.1718873385
51
143.944721257
0
ARC
8
drawinglayer
10
-0.700939698638
20
-0.520223359882
30
0
40
0.656848380447
50
91.5469860469
51
145.382157773
0
ARC
8
drawinglayer
10
-1.15765452768
20
-0.923146006523
30
0
40
0.656848380447
50
90.3437746771
51
144.036222617
0
ARC
8
drawinglayer
10
-1.18798811586
20
-0.86382595736
30
0
40
0.522151145348
50
80.7180837189
51
144.513782939
0
ARC
8
drawinglayer
10
-0.851214059672
20
-0.700815824873
30
0
40
0.656848380447
50
90.8021409132
51
144.949116272
0
ARC
8
drawinglayer
10
-0.416378434352
20
-0.694111157349
30
0
40
0.656848380447
50
89.9561114329
51
90.0
0
ARC
8
drawinglayer
10
-0.41455129632
20
-0.905215279055
30
0
40
0.656848380447
50
89.9645912083
51
90.0
0
ARC
8
drawinglayer
10
-0.413506111428
20
-1.02647995277
30
0
40
0.656848380447
50
32.6469247074
51
89.9694613495
0
ARC
8
drawinglayer
10
-0.418050730178
20
-0.499776446565
30
0
40
0.656848380447
50
89.9483192069
51
90.0
0
ARC
8
drawinglayer
10
-0.685850325653
20
-0.390620433365
30
0
40
0.545377476266
50
91.6042818264
51
145.887735732
0
ARC
8
drawinglayer
10
-0.418050730178
20
-0.388305542383
30
0
40
0.545377476266
50
89.0259717483
51
89.9478035449
0
ARC
8
drawinglayer
10
-0.413506111428
20
-0.915009048591
30
0
40
0.545377476266
50
32.1885584713
51
89.9691748706
0
ARC
8
drawinglayer
10
-1.03782214437
20
-0.72604736236
30
0
40
0.351035023371
50
62.3261384952
51
145.697112673
0
ARC
8
drawinglayer
10
-1.02280245038
20
-0.650600497431
30
0
40
0.351035023371
50
49.3772923252
51
145.741287719
0
ARC
8
drawinglayer
10
-0.95169890933
20
-0.600392912098
30
0
40
0.351035023371
50
30.1259104088
51
145.949042216
0
ARC
8
drawinglayer
10
-0.833709148271
20
-0.645668773166
30
0
40
0.351035023371
50
30.4123893064
51
132.819026791
0
ARC
8
drawinglayer
10
-1.03871248706
20
-0.761599132884
30
0
40
0.420621110799
50
83.2390980175
51
88.9289699936
0
ARC
8
drawinglayer
10
-0.992252083112
20
-0.688018116538
30
0
40
0.420621110799
50
72.0664210124
51
86.2640286968
0
ARC
8
drawinglayer
10
-0.833709148271
20
-0.715254860594
30
0
40
0.420621110799
50
91.8907607239
51
100.589004899
0
ARC
8
drawinglayer
10
-0.81467904114
20
-0.793558564226
30
0
40
0.420621110799
50
90.9740282517
51
95.8046354225
0
ARC
8
drawinglayer
10
-0.452479894707
20
-0.505946908479
30
0
40
0.351035023371
50
58.0862508112
51
147.347173827
0
ARC
8
drawinglayer
10
0.679765026952
20
-0.0336781798299
30
0
40
0.327808692454
50
34.1939107543
51
89.3598915513
0
ARC
8
drawinglayer
10
0.678781778943
20
0.0799837415684
30
0
40
0.327808692454
50
34.1939107543
51
89.3551932974
0
ARC
8
drawinglayer
10
0.684410293136
20
-0.868688002632
30
0
40
0.62449410148
50
35.4544179035
51
89.3970765122
0
ARC
8
drawinglayer
10
0.684410293136
20
-1.12871451936
30
0
40
0.884520618208
50
36.4857419348
51
89.4096242879
0
ARC
8
drawinglayer
10
0.650197907695
20
-0.578343381947
30
0
40
0.98588806844
50
36.8295166119
51
87.4123507099
0
ARC
8
drawinglayer
10
0.655199310952
20
-0.802098111893
30
0
40
0.629750994377
50
35.397122124
51
84.5032720966
0
ARC
8
drawinglayer
10
0.655222537283
20
-0.929355178988
30
0
40
0.754592523057
50
35.9127841397
51
73.1593380066
0
ARC
8
drawinglayer
10
0.655555448026
20
-1.1993612759
30
0
40
0.98588806844
50
36.8295166119
51
85.586792583
0
ARC
8
drawinglayer
10
0.678781778943
20
-0.427395457317
30
0
40
0.835187891339
50
36.3138545962
51
89.3814347644
0
ARC
8
drawinglayer
10
0.592495959586
20
0.187630043259
30
0
40
0.28135603062
50
33.7928402977
51
150.244678693
0
ARC
8
drawinglayer
10
0.74733042359
20
-0.606114331614
30
0
40
0.296840251231
50
34.2512065338
51
150.536314211
0
ARC
8
drawinglayer
10
0.685107083063
20
-0.755444155191
30
0
40
0.430151648586
50
90.4010704566
51
149.862286661
0
ARC
8
drawinglayer
10
0.685254183159
20
-0.967206356273
30
0
40
0.62449410148
50
35.4544179035
51
89.401029921
0
ARC
8
drawinglayer
10
0.682629607765
20
-0.318990428816
30
0
40
0.28135603062
50
34.0220234157
51
150.451459161
0
ARC
8
drawinglayer
10
0.654572200017
20
-1.08570709661
30
0
40
0.98588806844
50
36.8295166119
51
87.4322323453
0
ARC
8
drawinglayer
10
0.678247573332
20
0.188365543738
30
0
40
0.28135603062
50
34.0220234157
51
150.441489696
0
ARC
8
drawinglayer
10
0.74733042359
20
-0.818759133271
30
0
40
0.509485052888
50
35.167939006
51
109.619335412
0
ARC
8
drawinglayer
10
0.678247573332
20
-0.562619155916
30
0
40
1.03234073027
50
37.0586997299
51
89.3886540326
0
ARC
8
drawinglayer
10
0.678247573332
20
-0.0552476991416
30
0
40
0.5249692735
50
35.053347447
51
89.3631574107
0
ARC
8
drawinglayer
10
0.599502569413
20
-0.773599403858
30
0
40
0.430151648586
50
34.4230938723
51
149.663584897
0
ARC
8
drawinglayer
10
0.682629607765
20
-1.06997512847
30
0
40
1.03234073027
50
37.0586997299
51
89.4084210765
0
ARC
8
drawinglayer
10
0.662701415838
20
-0.591357869371
30
0
40
0.28135603062
50
33.9647276362
51
150.405966312
0
ARC
8
drawinglayer
10
0.662593026294
20
-0.653170878052
30
0
40
0.355757710658
50
34.3085023133
51
89.2793336853
0
ARC
8
drawinglayer
10
0.662593026294
20
-1.25584771269
30
0
40
0.958434545296
50
36.7149250528
51
72.5244434738
0
ARC
8
drawinglayer
10
0.596870251909
20
-0.319733671405
30
0
40
0.28135603062
50
33.7928402977
51
150.25476275
0
ARC
8
drawinglayer
10
0.598650937279
20
-0.526293174362
30
0
40
0.28135603062
50
33.7928402977
51
150.258888046
0
ARC
8
drawinglayer
10
0.681437322778
20
-0.228012890614
30
0
40
0.327808692454
50
34.1939107543
51
89.3679129604
0
ARC
8
drawinglayer
10
0.678781778943
20
-0.233053004423
30
0
40
0.640845438445
50
35.5117136831
51
89.3716371861
0
ARC
8
drawinglayer
10
0.650197907695
20
-0.114606458856
30
0
40
0.522151145348
50
34.9387558879
51
81.5398770844
0
ARC
8
drawinglayer
10
0.680949569829
20
-0.124655718032
30
0
40
0.28135603062
50
34.0220234157
51
150.44767764
0
ARC
8
drawinglayer
10
0.651877945631
20
-0.772678092731
30
0
40
0.98588806844
50
36.8295166119
51
87.4199710485
0
ARC
8
drawinglayer
10
0.652899904191
20
-0.891372385828
30
0
40
0.98588806844
50
36.8295166119
51
87.4246120067
0
ARC
8
drawinglayer
10
0.74733042359
20
-1.13179587926
30
0
40
0.822521798879
50
36.4284461553
51
98.0698813613
0
ARC
8
drawinglayer
10
0.74733042359
20
-1.01309384405
30
0
40
0.703819763672
50
35.9700799192
51
100.949681831
0
ARC
8
drawinglayer
10
0.678247573332
20
-0.249582409925
30
0
40
0.719303984284
50
35.7981925806
51
89.3731268763
0
ARC
8
drawinglayer
10
0.679927611269
20
-0.75694612459
30
0
40
1.03234073027
50
37.0586997299
51
89.3962170755
0
ARC
8
drawinglayer
10
0.680949569829
20
-0.875640417687
30
0
40
1.03234073027
50
37.0586997299
51
89.4008580336
0
ARC
8
drawinglayer
10
0.594168255412
20
-0.00670466752475
30
0
40
0.28135603062
50
33.7928402977
51
150.24851751
0
ARC
8
drawinglayer
10
0.595197956083
20
-0.125398960622
30
0
40
0.28135603062
50
33.7928402977
51
150.250866637
0
ARC
8
drawinglayer
10
-0.362036562116
20
-0.57158451965
30
0
40
1.03234073027
50
97.6203386752
51
144.821862345
0
ARC
8
drawinglayer
10
-0.355881584423
20
-0.534523037617
30
0
40
0.28135603062
50
31.2718259991
51
147.899104071
0
ARC
8
drawinglayer
10
-0.362036562116
20
-0.327979018881
30
0
40
0.788735229505
50
97.7922260138
51
145.79096316
0
ARC
8
drawinglayer
10
-0.357662269793
20
-0.32796353466
30
0
40
0.28135603062
50
31.2718259991
51
147.894405817
0
ARC
8
drawinglayer
10
-0.355029952289
20
-0.781829267112
30
0
40
0.430151648586
50
31.9020795737
51
126.341280551
0
ARC
8
drawinglayer
10
0.0532270083518
20
-0.530992635318
30
0
40
0.28135603062
50
32.3031500303
51
148.95042433
0
ARC
8
drawinglayer
10
0.597234131093
20
-0.319725929295
30
0
40
0.28135603062
50
33.7928402977
51
150.255622187
0
ARC
8
drawinglayer
10
0.599014816464
20
-0.526285432252
30
0
40
0.28135603062
50
33.7928402977
51
150.259690187
0
ARC
8
drawinglayer
10
0.0470642885485
20
0.182922840193
30
0
40
0.28135603062
50
32.3031500303
51
148.935011765
0
ARC
8
drawinglayer
10
-0.362036562116
20
0.179400180004
30
0
40
0.28135603062
50
31.2718259991
51
147.882774774
0
ARC
8
drawinglayer
10
0.592859838771
20
0.187630043259
30
0
40
0.28135603062
50
33.7928402977
51
150.245480834
0
ARC
8
drawinglayer
10
0.190765597933
20
-0.777129806157
30
0
40
0.430151648586
50
111.14214264
51
148.681477941
0
ARC
8
drawinglayer
10
0.599866448597
20
-0.773599403858
30
0
40
0.430151648586
50
34.4230938723
51
149.664444334
0
ARC
8
drawinglayer
10
-0.362036562116
20
-0.01494227289
30
0
40
0.475698483514
50
97.9641133523
51
147.069747663
0
ARC
8
drawinglayer
10
-0.362036562116
20
-0.133636565987
30
0
40
0.594392776611
50
97.9068175728
51
146.58038441
0
ARC
8
drawinglayer
10
-0.36035652418
20
-0.0149345307797
30
0
40
0.28135603062
50
31.2718259991
51
147.887243845
0
ARC
8
drawinglayer
10
-0.359334565619
20
-0.133628823877
30
0
40
0.28135603062
50
31.2718259991
51
147.889936747
0
ARC
8
drawinglayer
10
0.260181358934
20
-0.529211949947
30
0
40
0.28135603062
50
32.8761078255
51
149.458924373
0
ARC
8
drawinglayer
10
0.594539876707
20
-0.00670466752475
30
0
40
0.28135603062
50
33.7928402977
51
150.249376947
0
ARC
8
drawinglayer
10
0.595561835267
20
-0.125391218511
30
0
40
0.28135603062
50
33.7928402977
51
150.251726074
0
ARC
8
drawinglayer
10
0.254018639131
20
0.184711267674
30
0
40
0.28135603062
50
32.8188120459
51
149.44402747
0
ARC
8
drawinglayer
10
-0.0161887526493
20
-0.778910491527
30
0
40
0.430151648586
50
32.7615162664
51
148.162091699
0
ARC
8
drawinglayer
10
-0.355881584423
20
-0.534523037617
30
0
40
0.28135603062
50
31.2718259991
51
147.899104071
0
ARC
8
drawinglayer
10
-0.414512585768
20
-1.13819086237
30
0
40
0.884520618208
50
89.9653933492
51
90.0572957795
0
ARC
8
drawinglayer
10
-0.362036562116
20
-0.327979018881
30
0
40
0.788735229505
50
97.7922260138
51
145.79096316
0
ARC
8
drawinglayer
10
-0.362036562116
20
-0.57158451965
30
0
40
1.03234073027
50
97.6203386752
51
144.821862345
0
ARC
8
drawinglayer
10
-0.357662269793
20
-0.32796353466
30
0
40
0.28135603062
50
31.2718259991
51
147.894405817
0
ARC
8
drawinglayer
10
-0.413660953634
20
-0.782340246393
30
0
40
0.430151648586
50
31.7301922352
51
89.9681435466
0
ARC
8
drawinglayer
10
-0.362036562116
20
0.179400180004
30
0
40
0.28135603062
50
31.2718259991
51
147.882774774
0
ARC
8
drawinglayer
10
-0.391278512741
20
-0.0729771317417
30
0
40
0.5249692735
50
92.005352283
51
146.787050287
0
ARC
8
drawinglayer
10
-0.362036562116
20
-0.133636565987
30
0
40
0.594392776611
50
97.9068175728
51
146.58038441
0
ARC
8
drawinglayer
10
-0.36035652418
20
-0.0149345307797
30
0
40
0.28135603062
50
31.2718259991
51
147.887243845
0
ARC
8
drawinglayer
10
-0.359334565619
20
-0.133628823877
30
0
40
0.28135603062
50
31.2718259991
51
147.889936747
0
ARC
8
drawinglayer
10
-0.391278512741
20
-0.267311842525
30
0
40
0.719303984284
50
92.005352283
51
145.991441092
0
ARC
8
drawinglayer
10
-0.41253834764
20
-0.409449245628
30
0
40
0.838006019491
50
90.9740282517
51
145.454121272
0
ARC
8
drawinglayer
10
-0.944537457297
20
-0.862502056498
30
0
40
0.397108321801
50
96.1879441874
51
145.772284736
0
ARC
8
drawinglayer
10
-0.924044091318
20
-0.800410331846
30
0
40
0.33555080276
50
30.1259104088
51
146.095776707
0
ARC
8
drawinglayer
10
-0.837874403616
20
-0.753469917063
30
0
40
0.33555080276
50
30.3550935269
51
146.34335177
0
ARC
8
drawinglayer
10
-0.86609439568
20
-0.844757139677
30
0
40
0.397108321801
50
30.5269808654
51
87.8178902372
0
ARC
8
drawinglayer
10
-0.824248289478
20
-0.674213933863
30
0
40
0.33555080276
50
30.3550935269
51
146.382198309
0
ARC
8
drawinglayer
10
-0.840917052966
20
-0.698315123245
30
0
40
0.397108321801
50
78.3689567588
51
90.8362891978
0
ARC
8
drawinglayer
10
-1.03028132893
20
-0.679586958415
30
0
40
0.33555080276
50
29.8967272908
51
145.786150314
0
ARC
8
drawinglayer
10
-1.02921291771
20
-0.782123467304
30
0
40
0.397108321801
50
90.9167324722
51
145.524194011
0
ARC
8
drawinglayer
10
-1.01254415422
20
-0.758022277922
30
0
40
0.33555080276
50
29.9540230703
51
145.838232178
0
ARC
8
drawinglayer
10
-0.823179878255
20
-0.776750442752
30
0
40
0.397108321801
50
89.9533612355
51
90.0
0
ARC
8
drawinglayer
10
-0.823179878255
20
-0.776750442752
30
0
40
0.397108321801
50
30.6415724244
51
86.0944331895
0
ARC
8
drawinglayer
10
-1.01558680357
20
-0.702867484104
30
0
40
0.397108321801
50
89.0832675278
51
100.726285587
0
ARC
8
drawinglayer
10
-0.94991048185
20
-0.656461274932
30
0
40
0.397108321801
50
39.637009808
51
114.938274512
0
ARC
8
drawinglayer
10
-0.87065449865
20
-0.60853761214
30
0
40
0.33555080276
50
30.2405019679
51
146.249558579
0
ARC
8
drawinglayer
10
-0.987359069398
20
-0.61158026149
30
0
40
0.33555080276
50
30.0113188498
51
145.911857255
0
ARC
8
drawinglayer
10
-0.944537457297
20
-1.44353969283
30
0
40
0.978145958135
50
95.9587610694
51
143.358700024
0
ARC
8
drawinglayer
10
-0.924044091318
20
-1.38145571029
30
0
40
0.916596181204
50
97.9641133523
51
143.668727487
0
ARC
8
drawinglayer
10
-0.924044091318
20
-1.38145571029
30
0
40
0.916596181204
50
32.3604458098
51
83.0359271833
0
ARC
8
drawinglayer
10
-0.837874403616
20
-1.33451529551
30
0
40
0.916596181204
50
110.626480625
51
143.92403748
0
ARC
8
drawinglayer
10
-0.837874403616
20
-1.33451529551
30
0
40
0.916596181204
50
32.5896289279
51
88.961857771
0
ARC
8
drawinglayer
10
-0.86609439568
20
-1.42579477601
30
0
40
0.978145958135
50
32.7615162664
51
87.9182151472
0
ARC
8
drawinglayer
10
-1.01254415422
20
-1.33906765637
30
0
40
0.916596181204
50
91.0313240312
51
143.40327614
0
ARC
8
drawinglayer
10
-1.01254415422
20
-1.33906765637
30
0
40
0.916596181204
50
32.1885584713
51
70.7826517766
0
ARC
8
drawinglayer
10
0.263549176917
20
-0.852081176027
30
0
40
0.397108321801
50
96.1306484079
51
148.99454208
0
ARC
8
drawinglayer
10
0.284034800786
20
-0.789989451375
30
0
40
0.33555080276
50
33.162586723
51
149.295001148
0
ARC
8
drawinglayer
10
0.370204488488
20
-0.743049036591
30
0
40
0.33555080276
50
33.3917698411
51
149.502469165
0
ARC
8
drawinglayer
10
0.341984496424
20
-0.834344001316
30
0
40
0.397108321801
50
33.5636571796
51
87.7557816123
0
ARC
8
drawinglayer
10
0.383838344737
20
-0.663793053392
30
0
40
0.33555080276
50
33.3917698411
51
149.535070464
0
ARC
8
drawinglayer
10
0.367161839138
20
-0.687901984884
30
0
40
0.397108321801
50
33.6209529591
51
90.7777902069
0
ARC
8
drawinglayer
10
0.177797563171
20
-0.669166077944
30
0
40
0.33555080276
50
32.8761078255
51
149.035623154
0
ARC
8
drawinglayer
10
0.178865974393
20
-0.771710328943
30
0
40
0.397108321801
50
90.8594366927
51
148.7865584
0
ARC
8
drawinglayer
10
0.195542479991
20
-0.747609139561
30
0
40
0.33555080276
50
32.933403605
51
149.079225242
0
ARC
8
drawinglayer
10
0.384906755959
20
-0.766337304391
30
0
40
0.397108321801
50
89.8952060193
51
89.9427042205
0
ARC
8
drawinglayer
10
0.384906755959
20
-0.766337304391
30
0
40
0.397108321801
50
33.6782487386
51
86.0225269862
0
ARC
8
drawinglayer
10
0.192492088531
20
-0.692454345743
30
0
40
0.397108321801
50
89.0259717483
51
148.820191023
0
ARC
8
drawinglayer
10
0.337432135564
20
-0.598116731668
30
0
40
0.33555080276
50
33.277178282
51
149.423859356
0
ARC
8
drawinglayer
10
0.220719822706
20
-0.601159381018
30
0
40
0.33555080276
50
32.9906993845
51
149.140875501
0
ARC
8
drawinglayer
10
0.263549176917
20
-1.43311881236
30
0
40
0.978145958135
50
95.9014652898
51
146.692454955
0
ARC
8
drawinglayer
10
0.284034800786
20
-1.37103482982
30
0
40
0.916596181204
50
97.8495217933
51
146.982543486
0
ARC
8
drawinglayer
10
0.284034800786
20
-1.37103482982
30
0
40
0.916596181204
50
35.4544179035
51
82.9390973159
0
ARC
8
drawinglayer
10
0.370204488488
20
-1.32409441504
30
0
40
0.916596181204
50
110.225410168
51
147.198605871
0
ARC
8
drawinglayer
10
0.370204488488
20
-1.32409441504
30
0
40
0.916596181204
50
35.7408968011
51
88.9051922451
0
ARC
8
drawinglayer
10
0.341984496424
20
-1.41538163765
30
0
40
0.978145958135
50
35.9127841397
51
87.8590859027
0
ARC
8
drawinglayer
10
0.178865974393
20
-1.35274796528
30
0
40
0.978145958135
50
90.9167324722
51
133.339558948
0
ARC
8
drawinglayer
10
0.195542479991
20
-1.32865451801
30
0
40
0.916596181204
50
90.9740282517
51
146.758058622
0
ARC
8
drawinglayer
10
0.195542479991
20
-1.32865451801
30
0
40
0.916596181204
50
35.2252347855
51
70.4156150131
0
ARC
8
drawinglayer
10
0.384906755959
20
-1.34737494072
30
0
40
0.978145958135
50
89.9000188647
51
90.0
0
ARC
8
drawinglayer
10
0.384906755959
20
-1.34737494072
30
0
40
0.978145958135
50
36.0273756987
51
86.2057588891
0
ARC
8
drawinglayer
10
-0.62221792105
20
-0.39302822967
30
0
40
0.351035023371
50
30.928051322
51
146.883364492
0
ARC
8
drawinglayer
10
-0.453842506121
20
-0.391580455043
30
0
40
0.351035023371
50
58.0862508112
51
147.343506897
0
ARC
8
drawinglayer
10
-0.816552631834
20
-0.394708267606
30
0
40
0.351035023371
50
30.4696850859
51
146.337851375
0
ARC
8
drawinglayer
10
-0.666355691903
20
-0.214108060505
30
0
40
0.351035023371
50
30.813459763
51
146.760866116
0
ARC
8
drawinglayer
10
-0.455390928182
20
-0.212288664583
30
0
40
0.351035023371
50
58.0862508112
51
147.339324306
0
ARC
8
drawinglayer
10
-0.820594013413
20
-0.570098034472
30
0
40
0.351035023371
50
30.4696850859
51
146.326334924
0
ARC
8
drawinglayer
10
-0.452859258112
20
-0.505946908479
30
0
40
0.351035023371
50
58.0862508112
51
147.346142503
0
ARC
8
drawinglayer
10
-0.591683038004
20
-0.70149713058
30
0
40
0.351035023371
50
30.9853471015
51
146.967646584
0
ARC
8
drawinglayer
10
-0.451179220176
20
-0.700281619262
30
0
40
0.351035023371
50
31.3291217786
51
147.35066887
0
ARC
8
drawinglayer
10
-0.786017748788
20
-0.703169426406
30
0
40
0.351035023371
50
30.5269808654
51
146.424597186
0
ENDSEC
0
EOF
