0
SECTION
2
HEADER
9
$ACADVER
1
AC1006
9
$INSBASE
10
0.0
20
0.0
30
0.0
9
$EXTMIN
10
0.0
20
0.0
9
$EXTMAX
10
0.0
20
0.0
0
ENDSEC
0
SECTION
2
TABLES
0
TABLE
2
LTYPE
70
1
0
LTYPE
2
CONTINUOUS
70
64
3
Solid line
72
65
73
0
40
0.0
0
ENDTAB
0
TABLE
2
LAYER
70
1
0
LAYER
2
PYDXF
70
64
62
7
6
continuous
0
ENDTAB
0
TABLE
2
STYLE
70
1
0
STYLE
2
STANDARD
70
0
40
0
41
40
50
50
71
0
42
1
3
ARIAL.TTF
4

0
ENDTAB
0
TABLE
2
VIEW
70
0
0
ENDTAB
0
ENDSEC
0
SECTION
2
BLOCKS
0
ENDSEC
0
SECTION
2
ENTITIES
0
ARC
8
drawinglayer
10
-2.73988513433
20
-4.01918091801
30
0
40
3.45604601955
50
101.000789667
51
150.000025715
0
ARC
8
drawinglayer
10
-2.73931721794
20
-4.08617673192
30
0
40
3.45604601955
50
101.000789667
51
150.000025715
0
ARC
8
drawinglayer
10
-2.73988513433
20
-3.80163230162
30
0
40
3.23849740316
50
101.000789667
51
150.000025715
0
ARC
8
drawinglayer
10
-2.73931721794
20
-3.85030823204
30
0
40
3.22017751967
50
101.000789667
51
150.000025715
0
ARC
8
drawinglayer
10
-2.73777834773
20
-4.31887589195
30
0
40
3.51100567
50
100.026761415
51
150.000025715
0
ARC
8
drawinglayer
10
-2.81027012668
20
-4.41567815629
30
0
40
3.51100567
50
101.000789667
51
150.000025715
0
ARC
8
drawinglayer
10
-2.81109452144
20
-4.31949876799
30
0
40
3.51100567
50
98.0214091318
51
150.000025715
0
ARC
8
drawinglayer
10
-2.81027012668
20
-3.63708310815
30
0
40
2.73241062187
50
101.000789667
51
150.000025715
0
ARC
8
drawinglayer
10
-2.81027012668
20
-4.09694882341
30
0
40
3.19227633712
50
101.000789667
51
150.000025715
0
ARC
8
drawinglayer
10
-2.73777834773
20
-4.26391624149
30
0
40
3.45604601955
50
101.000789667
51
150.000025715
0
ARC
8
drawinglayer
10
-2.0141979097
20
-3.52344487089
30
0
40
3.41940625258
50
96.9900851006
51
150.000025715
0
ARC
8
drawinglayer
10
-1.65860897125
20
-3.09611526871
30
0
40
3.41940625258
50
96.9900851006
51
150.000025715
0
ARC
8
drawinglayer
10
-2.74105760687
20
-3.88522592996
30
0
40
3.45604601955
50
101.000789667
51
150.000025715
0
ARC
8
drawinglayer
10
-2.74105760687
20
-3.70431708054
30
0
40
3.27513717013
50
101.000789667
51
150.000025715
0
ARC
8
drawinglayer
10
-2.74105760687
20
-3.16159053228
30
0
40
2.73241062187
50
101.000789667
51
150.000025715
0
ARC
8
drawinglayer
10
-1.62290351833
20
-3.08984986855
30
0
40
3.45604601955
50
96.9900851006
51
150.000025715
0
ARC
8
drawinglayer
10
-2.66099971604
20
-3.67145120957
30
0
40
3.45604601955
50
96.0160568489
51
150.000025715
0
ARC
8
drawinglayer
10
-2.0141979097
20
-3.56008463786
30
0
40
3.45604601955
50
96.9900851006
51
150.000025715
0
ARC
8
drawinglayer
10
-2.7420285607
20
-3.77107473596
30
0
40
3.45604601955
50
100.026761415
51
150.000025715
0
ARC
8
drawinglayer
10
-2.66099971604
20
-3.2116038142
30
0
40
2.99619862418
50
96.9900851006
51
150.000025715
0
ARC
8
drawinglayer
10
-2.66099971604
20
-2.94781581189
30
0
40
2.73241062187
50
96.9900851006
51
150.000025715
0
ARC
8
drawinglayer
10
-2.7420285607
20
-3.04743933829
30
0
40
2.73241062187
50
100.026761415
51
150.000025715
0
ARC
8
drawinglayer
10
-2.81109452144
20
-3.54090371985
30
0
40
2.73241062187
50
96.0160568489
51
150.000025715
0
ARC
8
drawinglayer
10
-2.73777834773
20
-3.54028084381
30
0
40
2.73241062187
50
101.000789667
51
150.000025715
0
ARC
8
drawinglayer
10
-1.65860897125
20
-2.409119638
30
0
40
2.73241062187
50
98.0214091318
51
150.000025715
0
ARC
8
drawinglayer
10
-1.62290351833
20
-2.36621447088
30
0
40
2.73241062187
50
98.0214091318
51
150.000025715
0
ARC
8
drawinglayer
10
-2.73931721794
20
-3.36254133424
30
0
40
2.73241062187
50
101.000789667
51
150.000025715
0
ARC
8
drawinglayer
10
-2.81109452144
20
-3.85965137262
30
0
40
3.05115827463
50
96.9900851006
51
150.000025715
0
ARC
8
drawinglayer
10
-2.0141979097
20
-2.83644924018
30
0
40
2.73241062187
50
98.0214091318
51
150.000025715
0
ARC
8
drawinglayer
10
-0.978464976963
20
-3.60705681912
30
0
40
2.73241062187
50
50.9815741516
51
92.0000237755
0
ARC
8
drawinglayer
10
-2.73777834773
20
-3.80406884612
30
0
40
2.99619862418
50
101.000789667
51
150.000025715
0
ARC
8
drawinglayer
10
-2.7420285607
20
-3.31122734059
30
0
40
2.99619862418
50
100.026761415
51
150.000025715
0
ARC
8
drawinglayer
10
-1.62290351833
20
-2.63000247318
30
0
40
2.99619862418
50
98.0214091318
51
150.000025715
0
ARC
8
drawinglayer
10
-2.73988513433
20
-2.57191012265
30
0
40
2.00877522419
50
30.0113188498
51
150.000025715
0
ARC
8
drawinglayer
10
-2.65856317154
20
-2.57121396708
30
0
40
2.00877522419
50
30.0113188498
51
150.000025715
0
ARC
8
drawinglayer
10
-2.65797693527
20
-2.6381914611
30
0
40
2.00877522419
50
30.0113188498
51
150.000025715
0
ARC
8
drawinglayer
10
-2.73931721794
20
-2.63890593656
30
0
40
2.00877522419
50
30.0113188498
51
150.000025715
0
ARC
8
drawinglayer
10
-2.73988513433
20
-2.78945873904
30
0
40
2.22632384058
50
101.000789667
51
150.000025715
0
ARC
8
drawinglayer
10
-2.73931721794
20
-2.87477443643
30
0
40
2.24464372407
50
101.000789667
51
150.000025715
0
ARC
8
drawinglayer
10
-2.73695395297
20
-2.85784686409
30
0
40
1.95381557373
50
30.0113188498
51
150.000025715
0
ARC
8
drawinglayer
10
-2.73777834773
20
-2.76168579568
30
0
40
1.95381557373
50
30.0113188498
51
150.000025715
0
ARC
8
drawinglayer
10
-2.81027012668
20
-2.85848806002
30
0
40
1.95381557373
50
30.0113188498
51
150.000025715
0
ARC
8
drawinglayer
10
-2.81109452144
20
-2.76230867172
30
0
40
1.95381557373
50
30.0113188498
51
150.000025715
0
ARC
8
drawinglayer
10
-2.81027012668
20
-3.17723571278
30
0
40
2.2725632265
50
101.974817918
51
150.000025715
0
ARC
8
drawinglayer
10
-2.73777834773
20
-2.81664544613
30
0
40
2.00877522419
50
30.0113188498
51
150.000025715
0
ARC
8
drawinglayer
10
-2.0141979097
20
-2.14945360948
30
0
40
2.04541499116
50
98.0214091318
51
150.000025715
0
ARC
8
drawinglayer
10
-1.65860897125
20
-1.72212400729
30
0
40
2.04541499116
50
98.0214091318
51
150.000025715
0
ARC
8
drawinglayer
10
-2.74105760687
20
-2.43795513461
30
0
40
2.00877522419
50
30.0113188498
51
150.000025715
0
ARC
8
drawinglayer
10
-2.6597173242
20
-2.43725897903
30
0
40
2.00877522419
50
30.0113188498
51
150.000025715
0
ARC
8
drawinglayer
10
-2.74105760687
20
-2.61886398403
30
0
40
2.18968407361
50
101.974817918
51
150.000025715
0
ARC
8
drawinglayer
10
-2.74105760687
20
-3.16159053228
30
0
40
2.73241062187
50
101.000789667
51
150.000025715
0
ARC
8
drawinglayer
10
-0.980938161233
20
-2.86026508871
30
0
40
2.2725632265
50
92.005352283
51
93.0000070153
0
ARC
8
drawinglayer
10
-0.980938161233
20
-2.59647708641
30
0
40
2.00877522419
50
87.994647717
51
150.000025715
0
ARC
8
drawinglayer
10
-0.98491357595
20
-2.13662969104
30
0
40
2.00877522419
50
87.994647717
51
150.000025715
0
ARC
8
drawinglayer
10
-0.989218748569
20
-1.63710142803
30
0
40
2.00877522419
50
87.994647717
51
150.000025715
0
ARC
8
drawinglayer
10
-1.62290351833
20
-1.6425790732
30
0
40
2.00877522419
50
30.0113188498
51
150.000025715
0
ARC
8
drawinglayer
10
-2.66099971604
20
-2.22418041421
30
0
40
2.00877522419
50
30.0113188498
51
150.000025715
0
ARC
8
drawinglayer
10
-2.0141979097
20
-2.1128138425
30
0
40
2.00877522419
50
30.0113188498
51
150.000025715
0
ARC
8
drawinglayer
10
-2.7420285607
20
-2.32380394061
30
0
40
2.00877522419
50
30.0113188498
51
150.000025715
0
ARC
8
drawinglayer
10
-0.978464976963
20
-2.88342142144
30
0
40
2.00877522419
50
30.0113188498
51
150.000025715
0
ARC
8
drawinglayer
10
-1.46766082568
20
-2.88763499464
30
0
40
2.00877522419
50
30.0113188498
51
150.000025715
0
ARC
8
drawinglayer
10
-2.73708219216
20
-2.89857196508
30
0
40
2.00877522419
50
30.0113188498
51
100.999987526
0
ARC
8
drawinglayer
10
-1.39934598016
20
-2.83804307005
30
0
40
2.00877522419
50
30.0113188498
51
150.000025715
0
ARC
8
drawinglayer
10
-1.06671185571
20
-2.83518516822
30
0
40
2.00877522419
50
30.0113188498
51
150.000025715
0
ARC
8
drawinglayer
10
-1.07310549505
20
-2.09447563913
30
0
40
2.00877522419
50
61.9823638181
51
150.000025715
0
ARC
8
drawinglayer
10
-1.07667787233
20
-1.68046459225
30
0
40
2.00877522419
50
61.9823638181
51
150.000025715
0
ARC
8
drawinglayer
10
-1.5761328558
20
-1.68476976486
30
0
40
2.00877522419
50
30.0113188498
51
150.000025715
0
ARC
8
drawinglayer
10
-1.93172179425
20
-2.11209936705
30
0
40
2.00877522419
50
30.0113188498
51
150.000025715
0
ARC
8
drawinglayer
10
-1.94128477343
20
-2.52713632741
30
0
40
2.00877522419
50
30.0113188498
51
150.000025715
0
ARC
8
drawinglayer
10
-1.85943153402
20
-2.84201848476
30
0
40
2.00877522419
50
30.0113188498
51
150.000025715
0
ARC
8
drawinglayer
10
-2.66099971604
20
-2.68404612947
30
0
40
2.46864093944
50
96.9900851006
51
150.000025715
0
ARC
8
drawinglayer
10
-2.66099971604
20
-2.94781581189
30
0
40
2.73241062187
50
96.9900851006
51
150.000025715
0
ARC
8
drawinglayer
10
-2.7420285607
20
-3.04743933829
30
0
40
2.73241062187
50
100.026761415
51
150.000025715
0
ARC
8
drawinglayer
10
-2.81027012668
20
-3.63708310815
30
0
40
2.73241062187
50
101.000789667
51
150.000025715
0
ARC
8
drawinglayer
10
-2.81109452144
20
-3.54090371985
30
0
40
2.73241062187
50
96.0160568489
51
150.000025715
0
ARC
8
drawinglayer
10
-2.73777834773
20
-3.54028084381
30
0
40
2.73241062187
50
101.000789667
51
150.000025715
0
ARC
8
drawinglayer
10
-1.65860897125
20
-2.409119638
30
0
40
2.73241062187
50
98.0214091318
51
150.000025715
0
ARC
8
drawinglayer
10
-1.62290351833
20
-2.36621447088
30
0
40
2.73241062187
50
98.0214091318
51
150.000025715
0
ARC
8
drawinglayer
10
-2.73931721794
20
-3.36254133424
30
0
40
2.73241062187
50
101.000789667
51
150.000025715
0
ARC
8
drawinglayer
10
-2.81109452144
20
-3.22217438697
30
0
40
2.41368128899
50
90.9740282517
51
150.000025715
0
ARC
8
drawinglayer
10
-2.0141979097
20
-2.83644924018
30
0
40
2.73241062187
50
98.0214091318
51
150.000025715
0
ARC
8
drawinglayer
10
-0.978464976963
20
-3.60705681912
30
0
40
2.73241062187
50
50.9815741516
51
92.0000237755
0
ARC
8
drawinglayer
10
-2.73777834773
20
-3.27651116139
30
0
40
2.46864093944
50
101.000789667
51
150.000025715
0
ARC
8
drawinglayer
10
-2.7420285607
20
-2.78366965586
30
0
40
2.46864093944
50
100.026761415
51
150.000025715
0
ARC
8
drawinglayer
10
-1.62290351833
20
-2.10244478845
30
0
40
2.46864093944
50
98.0214091318
51
150.000025715
0
ARC
8
drawinglayer
10
-0.989218748569
20
-2.09696714329
30
0
40
2.46864093944
50
92.005352283
51
93.0000070153
0
ARC
8
drawinglayer
10
-0.978464976963
20
-3.34328713669
30
0
40
2.46864093944
50
30.0113188498
51
93.0000070153
0
ARC
8
drawinglayer
10
-2.45576206135
20
-2.89615374046
30
0
40
2.00877522419
50
72.0091252329
51
150.000025715
0
ARC
8
drawinglayer
10
-2.45576206135
20
-2.89650181825
30
0
40
2.00877522419
50
72.0091252329
51
150.000025715
0
ARC
8
drawinglayer
10
-2.42022148739
20
-2.7176264759
30
0
40
2.00877522419
50
57.9716592522
51
150.000025715
0
ARC
8
drawinglayer
10
-2.45786884795
20
-2.81561953266
30
0
40
2.00877522419
50
67.0243924153
51
150.000025715
0
ARC
8
drawinglayer
10
-2.34793122716
20
-2.64150736001
30
0
40
2.00877522419
50
39.0067562334
51
150.000025715
0
ARC
8
drawinglayer
10
-2.25197167746
20
-2.59882203149
30
0
40
2.00877522419
50
30.0113188498
51
150.000025715
0
ARC
8
drawinglayer
10
-2.14699874509
20
-2.59607404897
30
0
40
2.00877522419
50
30.0113188498
51
150.000025715
0
ARC
8
drawinglayer
10
-2.04895072867
20
-2.63370308965
30
0
40
2.00877522419
50
30.0113188498
51
150.000025715
0
ARC
8
drawinglayer
10
-1.97277665314
20
-2.70595671012
30
0
40
2.00877522419
50
30.0113188498
51
141.999987908
0
ARC
8
drawinglayer
10
-1.93007300474
20
-2.80186130016
30
0
40
2.00877522419
50
30.0113188498
51
131.000000383
0
ARC
8
drawinglayer
10
-1.92774637953
20
-2.89124401169
30
0
40
2.00877522419
50
30.0113188498
51
126.000026888
0
ARC
8
drawinglayer
10
-2.45576206135
20
-2.89615374046
30
0
40
2.00877522419
50
72.0091252329
51
150.000025715
0
ARC
8
drawinglayer
10
-1.92774637953
20
-2.89159208947
30
0
40
2.00877522419
50
30.0113188498
51
126.000026888
0
ARC
8
drawinglayer
10
-2.45786884795
20
-2.98027864543
30
0
40
2.17343433696
50
92.9793805347
51
97.9999805103
0
ARC
8
drawinglayer
10
-2.45576206135
20
-3.06081285323
30
0
40
2.17343433696
50
94.9847328176
51
99.0000210459
0
ARC
8
drawinglayer
10
-2.42022148739
20
-2.88228558866
30
0
40
2.17343433696
50
89.0259717483
51
96.0000140306
0
ARC
8
drawinglayer
10
-2.34793122716
20
-2.80616647278
30
0
40
2.17343433696
50
78.0251820818
51
93.0000070153
0
ARC
8
drawinglayer
10
-2.04895072867
20
-2.79836220242
30
0
40
2.17343433696
50
105.011494232
51
121.999979337
0
ARC
8
drawinglayer
10
-1.97277665314
20
-2.87061582288
30
0
40
2.17343433696
50
101.000789667
51
110.000008572
0
ARC
8
drawinglayer
10
-1.93007300474
20
-2.96652041293
30
0
40
2.17343433696
50
98.9954373836
51
104.999977781
0
ARC
8
drawinglayer
10
-1.92774637953
20
-3.05590312446
30
0
40
2.17343433696
50
98.0214091318
51
103.000011301
0
ARC
8
drawinglayer
10
-1.92774637953
20
-3.05625120224
30
0
40
2.17343433696
50
98.0214091318
51
103.000011301
0
ARC
8
drawinglayer
10
-1.07068727043
20
-2.37533777285
30
0
40
2.00877522419
50
61.9823638181
51
150.000025715
0
ARC
8
drawinglayer
10
1.61246118475
20
-1.7176722756
30
0
40
1.95381557373
50
30.0113188498
51
80.9999789541
0
ARC
8
drawinglayer
10
1.60850408991
20
-1.25782488023
30
0
40
1.95381557373
50
30.0113188498
51
80.9999789541
0
ARC
8
drawinglayer
10
1.60617746471
20
-0.988870670783
30
0
40
1.95381557373
50
30.0113188498
51
80.9999789541
0
ARC
8
drawinglayer
10
1.61949602001
20
-2.77381355855
30
0
40
2.19598611353
50
30.0113188498
51
80.9999789541
0
ARC
8
drawinglayer
10
1.61949602001
20
-3.2336792738
30
0
40
2.65585182878
50
30.0113188498
51
80.9999789541
0
ARC
8
drawinglayer
10
1.61949602001
20
-3.84897088055
30
0
40
3.27114343553
50
30.0113188498
51
82.0000194897
0
ARC
8
drawinglayer
10
1.53854045488
20
-2.54664700333
30
0
40
3.51100567
50
30.0113188498
51
79.0000124744
0
ARC
8
drawinglayer
10
1.60617746471
20
-2.54606076705
30
0
40
3.51100567
50
30.0113188498
51
82.0000194897
0
ARC
8
drawinglayer
10
1.55037509961
20
-3.07610995594
30
0
40
2.66829102967
50
30.0113188498
51
76.0000054591
0
ARC
8
drawinglayer
10
1.55121781425
20
-3.17342517702
30
0
40
2.66829102967
50
30.0113188498
51
76.0000054591
0
ARC
8
drawinglayer
10
1.55043005926
20
-3.37723388079
30
0
40
2.96369915087
50
30.0113188498
51
65.0000179335
0
ARC
8
drawinglayer
10
1.55043005926
20
-3.3302983393
30
0
40
2.91676360938
50
30.0113188498
51
59.9999871427
0
ARC
8
drawinglayer
10
1.55121781425
20
-4.01613981735
30
0
40
3.51100567
50
30.0113188498
51
77.9999719388
0
ARC
8
drawinglayer
10
1.61885482408
20
-4.01555358108
30
0
40
3.51100567
50
30.0113188498
51
82.0000194897
0
ARC
8
drawinglayer
10
1.60617746471
20
-1.72959851975
30
0
40
2.6945434227
50
30.0113188498
51
80.9999789541
0
ARC
8
drawinglayer
10
1.60617746471
20
-2.18946423501
30
0
40
3.15440913796
50
30.0113188498
51
80.9999789541
0
ARC
8
drawinglayer
10
1.53854045488
20
-1.73018475602
30
0
40
2.6945434227
50
30.0113188498
51
76.0000054591
0
ARC
8
drawinglayer
10
1.53854045488
20
-2.19005047128
30
0
40
3.15440913796
50
30.0113188498
51
77.9999719388
0
ARC
8
drawinglayer
10
1.55121781425
20
-2.71357778165
30
0
40
2.2084436343
50
30.0113188498
51
66.0000011733
0
ARC
8
drawinglayer
10
1.56371197479
20
-3.33934836174
30
0
40
2.91676360938
50
30.0113188498
51
65.0000179335
0
ARC
8
drawinglayer
10
1.40200236326
20
-0.7341510108
30
0
40
1.84389627282
50
30.0113188498
51
150.000025715
0
ARC
8
drawinglayer
10
1.61949602001
20
-2.42172371784
30
0
40
1.84389627282
50
30.0113188498
51
150.000025715
0
ARC
8
drawinglayer
10
1.58609887241
20
-3.36091086461
30
0
40
2.91676360938
50
30.0113188498
51
75.0000222193
0
ARC
8
drawinglayer
10
1.76838171309
20
-2.61236042539
30
0
40
1.88053603979
50
30.0113188498
51
150.000025715
0
ARC
8
drawinglayer
10
1.6208333715
20
-2.61362449735
30
0
40
1.88053603979
50
30.0113188498
51
135.999973878
0
ARC
8
drawinglayer
10
1.62114480952
20
-2.65026426432
30
0
40
1.88053603979
50
30.0113188498
51
150.000025715
0
ARC
8
drawinglayer
10
1.76869315111
20
-2.64898187248
30
0
40
1.88053603979
50
30.0113188498
51
150.000025715
0
ARC
8
drawinglayer
10
1.62149288731
20
-4.0820913979
30
0
40
3.27114343553
50
30.0113188498
51
70.9999746683
0
ARC
8
drawinglayer
10
1.62114480952
20
-2.96571433806
30
0
40
2.19598611353
50
81.9785908682
51
150.000025715
0
ARC
8
drawinglayer
10
1.62149288731
20
-3.0069340759
30
0
40
2.19598611353
50
30.0113188498
51
150.000025715
0
ARC
8
drawinglayer
10
1.62149288731
20
-3.46679979115
30
0
40
2.65585182878
50
30.0113188498
51
69.9999914285
0
ARC
8
drawinglayer
10
1.61130703209
20
-1.47310183107
30
0
40
1.84389627282
50
30.0113188498
51
150.000025715
0
ARC
8
drawinglayer
10
1.6152824468
20
-1.93294922644
30
0
40
1.84389627282
50
30.0113188498
51
150.000025715
0
ARC
8
drawinglayer
10
1.55037509961
20
-3.20434914034
30
0
40
2.79653021407
50
30.0113188498
51
76.9999886989
0
ARC
8
drawinglayer
10
1.55121781425
20
-3.55629242198
30
0
40
3.05115827463
50
30.0113188498
51
70.9999746683
0
ARC
8
drawinglayer
10
1.54493409422
20
-3.28735653241
30
0
40
3.51100567
50
30.0113188498
51
79.0000124744
0
ARC
8
drawinglayer
10
1.54889118905
20
-3.74720392778
30
0
40
3.51100567
50
30.0113188498
51
79.0000124744
0
ARC
8
drawinglayer
10
1.550943016
20
-3.39099211329
30
0
40
2.91676360938
50
30.0113188498
51
59.9999871427
0
ARC
8
drawinglayer
10
1.58591567358
20
-3.33916516291
30
0
40
2.91676360938
50
30.0113188498
51
75.0000222193
0
ARC
8
drawinglayer
10
1.60491339275
20
-0.732410621868
30
0
40
1.84389627282
50
30.0113188498
51
150.000025715
0
ARC
8
drawinglayer
10
1.59899607038
20
-3.20392778302
30
0
40
2.79653021407
50
30.0113188498
51
79.9999957142
0
ARC
8
drawinglayer
10
1.59899607038
20
-3.07568859862
30
0
40
2.66829102967
50
30.0113188498
51
79.9999957142
0
ARC
8
drawinglayer
10
1.6208333715
20
-2.92907457109
30
0
40
2.19598611353
50
30.0113188498
51
89.0000167602
0
ARC
8
drawinglayer
10
1.59058724387
20
-3.37688580301
30
0
40
2.96369915087
50
30.0113188498
51
79.0000124744
0
ARC
8
drawinglayer
10
1.59058724387
20
-3.32995026152
30
0
40
2.91676360938
50
30.0113188498
51
76.9999886989
0
ARC
8
drawinglayer
10
1.59111852049
20
-3.3906440355
30
0
40
2.91676360938
50
30.0113188498
51
76.9999886989
0
ARC
8
drawinglayer
10
1.59111852049
20
-3.43757957699
30
0
40
2.96369915087
50
30.0113188498
51
79.0000124744
0
ARC
8
drawinglayer
10
1.76838171309
20
-3.57538174057
30
0
40
2.84355735498
50
30.0113188498
51
92.0000237755
0
ARC
8
drawinglayer
10
1.76838171309
20
-3.1155343452
30
0
40
2.3837099596
50
30.0113188498
51
100.999987526
0
ARC
8
drawinglayer
10
1.60491339275
20
-2.50943931997
30
0
40
3.62092497092
50
30.0113188498
51
82.0000194897
0
ARC
8
drawinglayer
10
1.60491339275
20
-1.768711471
30
0
40
2.88019712195
50
30.0113188498
51
80.9999789541
0
ARC
8
drawinglayer
10
1.60491339275
20
-1.30886407562
30
0
40
2.42034972658
50
30.0113188498
51
80.9999789541
0
ARC
8
drawinglayer
10
1.61885482408
20
-2.45836348481
30
0
40
1.95381557373
50
30.0113188498
51
80.9999789541
0
ARC
8
drawinglayer
10
1.6208333715
20
-4.00423189309
30
0
40
3.27114343553
50
30.0113188498
51
82.0000194897
0
ARC
8
drawinglayer
10
1.6208333715
20
-4.3173736615
30
0
40
3.58428520395
50
30.0113188498
51
82.0000194897
0
ARC
8
drawinglayer
10
1.6208333715
20
-3.54436617783
30
0
40
2.81127772027
50
30.0113188498
51
80.9999789541
0
ARC
8
drawinglayer
10
1.76838171309
20
-4.31610958954
30
0
40
3.58428520395
50
30.0113188498
51
86.9999929847
0
ARC
8
drawinglayer
10
1.41858185782
20
-3.00867446483
30
0
40
2.19598611353
50
30.0113188498
51
148.000001939
0
ARC
8
drawinglayer
10
1.59983878503
20
-3.1730038197
30
0
40
2.66829102967
50
30.0113188498
51
79.9999957142
0
ARC
8
drawinglayer
10
1.59983878503
20
-3.30124300409
30
0
40
2.79653021407
50
30.0113188498
51
79.9999957142
0
ARC
8
drawinglayer
10
1.61130703209
20
-3.25013052917
30
0
40
3.62092497092
50
30.0113188498
51
82.0000194897
0
ARC
8
drawinglayer
10
1.6152824468
20
-3.70997792454
30
0
40
3.62092497092
50
30.0113188498
51
82.0000194897
0
ARC
8
drawinglayer
10
1.61949602001
20
-4.19875241593
30
0
40
3.62092497092
50
30.0113188498
51
82.0000194897
0
ARC
8
drawinglayer
10
1.76869315111
20
-3.61200318766
30
0
40
2.84355735498
50
30.0113188498
51
80.9999789541
0
ARC
8
drawinglayer
10
1.76869315111
20
-3.15215579229
30
0
40
2.3837099596
50
30.0113188498
51
79.9999957142
0
ARC
8
drawinglayer
10
1.76869315111
20
-4.35273103663
30
0
40
3.58428520395
50
30.0113188498
51
80.9999789541
0
ARC
8
drawinglayer
10
1.61885482408
20
-3.27482573211
30
0
40
2.77027782103
50
30.0113188498
51
80.9999789541
0
ARC
8
drawinglayer
10
1.61885482408
20
-2.81497833674
30
0
40
2.31043042566
50
30.0113188498
51
80.9999789541
0
ARC
8
drawinglayer
10
1.61257110405
20
-3.28677029614
30
0
40
3.51100567
50
30.0113188498
51
82.0000194897
0
ARC
8
drawinglayer
10
1.61654651876
20
-3.74661769151
30
0
40
3.51100567
50
30.0113188498
51
82.0000194897
0
ARC
8
drawinglayer
10
1.56678971522
20
-2.42218171492
30
0
40
1.84389627282
50
30.0113188498
51
150.000025715
0
ARC
8
drawinglayer
10
1.49301554442
20
-2.93017376409
30
0
40
2.19598611353
50
81.9785908682
51
150.000025715
0
ARC
8
drawinglayer
10
1.56812706671
20
-2.92953256817
30
0
40
2.19598611353
50
30.0113188498
51
80.9999789541
0
ARC
8
drawinglayer
10
1.56812706671
20
-2.57744272746
30
0
40
1.84389627282
50
30.0113188498
51
150.000025715
0
ARC
8
drawinglayer
10
1.56812706671
20
-4.35447142556
30
0
40
3.62092497092
50
30.0113188498
51
72.9999984438
0
ARC
8
drawinglayer
10
1.56787058834
20
-2.57744272746
30
0
40
1.87368440337
50
30.0113188498
51
80.9999789541
0
ARC
8
drawinglayer
10
1.56704619359
20
-2.48175797602
30
0
40
1.87368440337
50
30.0113188498
51
80.9999789541
0
ARC
8
drawinglayer
10
1.56787058834
20
-2.72370867721
30
0
40
2.01995035312
50
30.0113188498
51
80.9999789541
0
ARC
8
drawinglayer
10
1.56704619359
20
-2.62802392577
30
0
40
2.01995035312
50
30.0113188498
51
80.9999789541
0
ARC
8
drawinglayer
10
1.56704619359
20
-4.05411693582
30
0
40
3.44604336316
50
30.0113188498
51
65.0000179335
0
ARC
8
drawinglayer
10
1.56704619359
20
-4.19922873291
30
0
40
3.59115516025
50
30.0113188498
51
72.9999984438
0
ARC
8
drawinglayer
10
1.56787058834
20
-4.29491348435
30
0
40
3.59115516025
50
30.0113188498
51
72.9999984438
0
ARC
8
drawinglayer
10
1.56787058834
20
-4.14980168726
30
0
40
3.44604336316
50
30.0113188498
51
65.0000179335
0
ARC
8
drawinglayer
10
1.49301554442
20
-2.57808392339
30
0
40
1.84389627282
50
30.0113188498
51
150.000025715
0
ARC
8
drawinglayer
10
1.49167819293
20
-2.42282291085
30
0
40
1.84389627282
50
30.0113188498
51
150.000025715
0
ARC
8
drawinglayer
10
1.4083960026
20
-1.47486053989
30
0
40
1.84389627282
50
30.0113188498
51
150.000025715
0
ARC
8
drawinglayer
10
1.41235309743
20
-1.93470793526
30
0
40
1.84389627282
50
30.0113188498
51
150.000025715
0
ARC
8
drawinglayer
10
1.41656667064
20
-2.42348242665
30
0
40
1.84389627282
50
30.0113188498
51
150.000025715
0
ARC
8
drawinglayer
10
1.61489772925
20
-1.99853440932
30
0
40
1.95381557373
50
30.0113188498
51
80.9999789541
0
ARC
8
drawinglayer
10
1.60617746471
20
-1.44873638604
30
0
40
2.41368128899
50
30.0113188498
51
80.9999789541
0
ARC
8
drawinglayer
10
1.53854045488
20
-1.44932262231
30
0
40
2.41368128899
50
30.0113188498
51
72.9999984438
0
ARC
8
drawinglayer
10
1.60888880747
20
-1.19223969736
30
0
40
1.84389627282
50
30.0113188498
51
150.000025715
0
ARC
8
drawinglayer
10
1.5425158696
20
-3.0064943987
30
0
40
3.51100567
50
30.0113188498
51
79.0000124744
0
ARC
8
drawinglayer
10
1.76838171309
20
-3.85626219417
30
0
40
3.12443780858
50
30.0113188498
51
90.0
0
ARC
8
drawinglayer
10
1.60491339275
20
-2.0495919246
30
0
40
3.16107757555
50
30.0113188498
51
80.9999789541
0
ARC
8
drawinglayer
10
1.60888880747
20
-2.96926839545
30
0
40
3.62092497092
50
30.0113188498
51
82.0000194897
0
ARC
8
drawinglayer
10
1.76869315111
20
-3.89288364126
30
0
40
3.12443780858
50
30.0113188498
51
80.9999789541
0
ARC
8
drawinglayer
10
1.61885482408
20
-3.55570618571
30
0
40
3.05115827463
50
30.0113188498
51
80.9999789541
0
ARC
8
drawinglayer
10
1.61015287943
20
-3.00590816242
30
0
40
3.51100567
50
30.0113188498
51
82.0000194897
0
ARC
8
drawinglayer
10
1.4059594581
20
-1.19399840617
30
0
40
1.84389627282
50
30.0113188498
51
150.000025715
0
ARC
8
drawinglayer
10
-0.856674391551
20
-2.53065374504
30
0
40
3.62092497092
50
109.022198798
51
150.000025715
0
ARC
8
drawinglayer
10
-0.84211008418
20
-2.4429564628
30
0
40
1.84389627282
50
30.0113188498
51
150.000025715
0
ARC
8
drawinglayer
10
-0.856674391551
20
-1.49435289592
30
0
40
2.58462412179
50
109.99622705
51
150.000025715
0
ARC
8
drawinglayer
10
-0.856674391551
20
-1.95421861117
30
0
40
3.04448983704
50
109.022198798
51
150.000025715
0
ARC
8
drawinglayer
10
-0.850280752214
20
-1.49433457603
30
0
40
1.84389627282
50
30.0113188498
51
150.000025715
0
ARC
8
drawinglayer
10
-0.846323657382
20
-1.9541819714
30
0
40
1.84389627282
50
30.0113188498
51
150.000025715
0
ARC
8
drawinglayer
10
-0.840094896996
20
-3.02814850098
30
0
40
2.19598611353
50
30.0113188498
51
128.999976607
0
ARC
8
drawinglayer
10
0.125949198963
20
-2.43460259593
30
0
40
1.84389627282
50
30.0113188498
51
150.000025715
0
ARC
8
drawinglayer
10
1.40925703713
20
-1.47484222
30
0
40
1.84389627282
50
30.0113188498
51
150.000025715
0
ARC
8
drawinglayer
10
1.41321413196
20
-1.93468961537
30
0
40
1.84389627282
50
30.0113188498
51
150.000025715
0
ARC
8
drawinglayer
10
1.41742770516
20
-2.42346410677
30
0
40
1.84389627282
50
30.0113188498
51
150.000025715
0
ARC
8
drawinglayer
10
0.111366571709
20
-0.745289499959
30
0
40
1.84389627282
50
30.0113188498
51
150.000025715
0
ARC
8
drawinglayer
10
-0.856674391551
20
-0.753625046945
30
0
40
1.84389627282
50
30.0113188498
51
150.000025715
0
ARC
8
drawinglayer
10
1.40286339779
20
-0.7341510108
30
0
40
1.84389627282
50
30.0113188498
51
150.000025715
0
ARC
8
drawinglayer
10
0.451401929084
20
-3.0170283317
30
0
40
2.19598611353
50
107.990874767
51
150.000025715
0
ARC
8
drawinglayer
10
1.41944289234
20
-3.00867446483
30
0
40
2.19598611353
50
30.0113188498
51
148.000001939
0
ARC
8
drawinglayer
10
-0.856674391551
20
-1.2134907622
30
0
40
2.30376198807
50
111.027551081
51
150.000025715
0
ARC
8
drawinglayer
10
-0.852698976835
20
-1.21347244232
30
0
40
1.84389627282
50
30.0113188498
51
150.000025715
0
ARC
8
drawinglayer
10
0.615658004415
20
-2.43038902273
30
0
40
1.84389627282
50
30.0113188498
51
150.000025715
0
ARC
8
drawinglayer
10
1.40683881251
20
-1.19399840617
30
0
40
1.84389627282
50
30.0113188498
51
150.000025715
0
ARC
8
drawinglayer
10
0.601075377161
20
-0.741057606874
30
0
40
1.84389627282
50
30.0113188498
51
150.000025715
0
ARC
8
drawinglayer
10
-0.0383068763683
20
-3.0212419049
30
0
40
2.19598611353
50
30.0113188498
51
150.000025715
0
ARC
8
drawinglayer
10
-0.84211008418
20
-2.4429564628
30
0
40
1.84389627282
50
30.0113188498
51
150.000025715
0
ARC
8
drawinglayer
10
-0.856674391551
20
-1.49435289592
30
0
40
2.58462412179
50
109.99622705
51
150.000025715
0
ARC
8
drawinglayer
10
-0.856674391551
20
-1.95421861117
30
0
40
3.04448983704
50
109.022198798
51
150.000025715
0
ARC
8
drawinglayer
10
-0.856674391551
20
-2.53065374504
30
0
40
3.62092497092
50
109.022198798
51
150.000025715
0
ARC
8
drawinglayer
10
-0.850280752214
20
-1.49433457603
30
0
40
1.84389627282
50
30.0113188498
51
150.000025715
0
ARC
8
drawinglayer
10
-0.846323657382
20
-1.9541819714
30
0
40
1.84389627282
50
30.0113188498
51
150.000025715
0
ARC
8
drawinglayer
10
-0.978831374632
20
-3.02935761329
30
0
40
2.19598611353
50
30.0113188498
51
93.0000070153
0
ARC
8
drawinglayer
10
-0.980846561816
20
-2.79623709593
30
0
40
2.19598611353
50
90.9740282517
51
93.0000070153
0
ARC
8
drawinglayer
10
-0.965622738639
20
-3.87126617875
30
0
40
3.27114343553
50
92.9793805347
51
93.0000070153
0
ARC
8
drawinglayer
10
-0.856674391551
20
-0.753625046945
30
0
40
1.84389627282
50
30.0113188498
51
150.000025715
0
ARC
8
drawinglayer
10
-0.925868591476
20
-0.77436315505
30
0
40
1.84389627282
50
30.0113188498
51
150.000025715
0
ARC
8
drawinglayer
10
-0.976174991527
20
-0.829817442361
30
0
40
1.84389627282
50
30.0113188498
51
150.000025715
0
ARC
8
drawinglayer
10
-0.840094896996
20
-3.02814850098
30
0
40
2.19598611353
50
30.0113188498
51
128.999976607
0
ARC
8
drawinglayer
10
-0.965622738639
20
-2.79610885675
30
0
40
2.19598611353
50
94.0107045659
51
96.9999972705
0
ARC
8
drawinglayer
10
-0.925868591476
20
-1.81066400418
30
0
40
2.88019712195
50
98.0214091318
51
150.000025715
0
ARC
8
drawinglayer
10
-0.925868591476
20
-1.35081660881
30
0
40
2.42034972658
50
98.0214091318
51
150.000025715
0
ARC
8
drawinglayer
10
-0.925868591476
20
-2.55139185315
30
0
40
3.62092497092
50
96.9900851006
51
150.000025715
0
ARC
8
drawinglayer
10
-0.976174991527
20
-2.60684614046
30
0
40
3.62092497092
50
94.0107045659
51
150.000025715
0
ARC
8
drawinglayer
10
-0.976174991527
20
-1.86611829149
30
0
40
2.88019712195
50
94.9847328176
51
150.000025715
0
ARC
8
drawinglayer
10
-0.976174991527
20
-1.40627089612
30
0
40
2.42034972658
50
94.9847328176
51
150.000025715
0
ARC
8
drawinglayer
10
-0.965622738639
20
-4.22104771414
30
0
40
3.62092497092
50
92.9793805347
51
93.0000070153
0
ARC
8
drawinglayer
10
-0.979417610904
20
-2.62049445366
30
0
40
3.62092497092
50
92.9793805347
51
150.000025715
0
ARC
8
drawinglayer
10
-0.973042291451
20
-3.36120398274
30
0
40
3.62092497092
50
92.9793805347
51
93.0000070153
0
ARC
8
drawinglayer
10
-0.969066876735
20
-3.82105137811
30
0
40
3.62092497092
50
92.9793805347
51
93.0000070153
0
ARC
8
drawinglayer
10
-0.979417610904
20
-1.58419360453
30
0
40
2.58462412179
50
92.9793805347
51
150.000025715
0
ARC
8
drawinglayer
10
-0.979417610904
20
-2.04405931978
30
0
40
3.04448983704
50
92.9793805347
51
150.000025715
0
ARC
8
drawinglayer
10
-0.973042291451
20
-1.58417528465
30
0
40
1.84389627282
50
30.0113188498
51
150.000025715
0
ARC
8
drawinglayer
10
-0.969066876735
20
-2.04402268002
30
0
40
1.84389627282
50
30.0113188498
51
150.000025715
0
ARC
8
drawinglayer
10
-0.965622738639
20
-2.44401901604
30
0
40
1.84389627282
50
30.0113188498
51
150.000025715
0
ARC
8
drawinglayer
10
-0.965622738639
20
-3.255974572
30
0
40
2.65585182878
50
92.9793805347
51
93.9999902551
0
ARC
8
drawinglayer
10
-0.979417610904
20
-0.843465755558
30
0
40
1.84389627282
50
30.0113188498
51
150.000025715
0
ARC
8
drawinglayer
10
-0.856674391551
20
-1.2134907622
30
0
40
2.30376198807
50
111.027551081
51
150.000025715
0
ARC
8
drawinglayer
10
-0.852698976835
20
-1.21347244232
30
0
40
1.84389627282
50
30.0113188498
51
150.000025715
0
ARC
8
drawinglayer
10
-0.925868591476
20
-2.09154445778
30
0
40
3.16107757555
50
96.9900851006
51
150.000025715
0
ARC
8
drawinglayer
10
-0.976174991527
20
-2.14699874509
30
0
40
3.16107757555
50
94.0107045659
51
150.000025715
0
ARC
8
drawinglayer
10
-0.975460516071
20
-3.08034184903
30
0
40
3.62092497092
50
92.9793805347
51
150.000025715
0
ARC
8
drawinglayer
10
-0.979417610904
20
-1.30333147081
30
0
40
2.30376198807
50
94.0107045659
51
150.000025715
0
ARC
8
drawinglayer
10
-0.975460516071
20
-1.30331315093
30
0
40
1.84389627282
50
30.0113188498
51
150.000025715
0
ARC
8
drawinglayer
10
-2.23502578524
20
-3.21904168689
30
0
40
2.11779685081
50
112.001579333
51
150.000025715
0
ARC
8
drawinglayer
10
-2.18653305365
20
-3.07211622134
30
0
40
1.97213545722
50
30.0113188498
51
150.000025715
0
ARC
8
drawinglayer
10
-2.23502578524
20
-3.0733802933
30
0
40
1.97213545722
50
30.0113188498
51
150.000025715
0
ARC
8
drawinglayer
10
-2.04940872576
20
-3.03139112035
30
0
40
1.97213545722
50
30.0113188498
51
150.000025715
0
ARC
8
drawinglayer
10
-1.98263275046
20
-2.96104276777
30
0
40
1.97213545722
50
30.0113188498
51
150.000025715
0
ARC
8
drawinglayer
10
-2.04940872576
20
-3.17705251395
30
0
40
2.11779685081
50
30.0113188498
51
93.0000070153
0
ARC
8
drawinglayer
10
-1.98263275046
20
-3.10670416136
30
0
40
2.11779685081
50
92.9793805347
51
93.0000070153
0
ARC
8
drawinglayer
10
-1.98263275046
20
-3.10670416136
30
0
40
2.11779685081
50
30.0113188498
51
82.0000194897
0
ARC
8
drawinglayer
10
-1.95038975552
20
-2.77350212053
30
0
40
1.97213545722
50
30.0113188498
51
150.000025715
0
ARC
8
drawinglayer
10
-1.98983246467
20
-2.68487052422
30
0
40
1.97213545722
50
30.0113188498
51
150.000025715
0
ARC
8
drawinglayer
10
-1.98983246467
20
-2.83053191782
30
0
40
2.11779685081
50
87.0206194653
51
100.000004286
0
ARC
8
drawinglayer
10
-1.95038975552
20
-2.91916351412
30
0
40
2.11779685081
50
87.0206194653
51
99.0000210459
0
ARC
8
drawinglayer
10
-2.43791849484
20
-2.78621611967
30
0
40
1.97213545722
50
30.0113188498
51
150.000025715
0
ARC
8
drawinglayer
10
-2.43791849484
20
-2.93187751326
30
0
40
2.11779685081
50
98.9954373836
51
110.000008572
0
ARC
8
drawinglayer
10
-2.43539035092
20
-3.02884465655
30
0
40
2.11779685081
50
100.026761415
51
150.000025715
0
ARC
8
drawinglayer
10
-2.43539035092
20
-2.88318326295
30
0
40
1.97213545722
50
30.0113188498
51
150.000025715
0
ARC
8
drawinglayer
10
-2.39594764177
20
-2.97181485926
30
0
40
1.97213545722
50
30.0113188498
51
150.000025715
0
ARC
8
drawinglayer
10
-2.39594764177
20
-3.11747625285
30
0
40
2.11779685081
50
101.974817918
51
150.000025715
0
ARC
8
drawinglayer
10
-1.9478616116
20
-2.87046926382
30
0
40
1.97213545722
50
30.0113188498
51
150.000025715
0
ARC
8
drawinglayer
10
-1.9478616116
20
-3.01613065741
30
0
40
2.11779685081
50
96.0160568489
51
96.9999972705
0
ARC
8
drawinglayer
10
-1.9478616116
20
-3.01613065741
30
0
40
2.11779685081
50
32.9906993845
51
93.0000070153
0
ARC
8
drawinglayer
10
-2.32558096931
20
-3.03860915445
30
0
40
1.97213545722
50
30.0113188498
51
150.000025715
0
ARC
8
drawinglayer
10
-2.32558096931
20
-3.18427054804
30
0
40
2.11779685081
50
105.011494232
51
150.000025715
0
ARC
8
drawinglayer
10
-2.13804032206
20
-3.07085214938
30
0
40
1.97213545722
50
30.0113188498
51
150.000025715
0
ARC
8
drawinglayer
10
-2.13804032206
20
-3.21651354297
30
0
40
2.11779685081
50
30.0113188498
51
86.9999929847
0
ARC
8
drawinglayer
10
-2.40314735598
20
-2.84130400931
30
0
40
2.11779685081
50
96.9900851006
51
110.000008572
0
ARC
8
drawinglayer
10
-2.40314735598
20
-2.69564261571
30
0
40
1.97213545722
50
30.0113188498
51
150.000025715
0
ARC
8
drawinglayer
10
-2.33635306079
20
-2.77095565672
30
0
40
2.11779685081
50
94.0107045659
51
111.999975051
0
ARC
8
drawinglayer
10
-2.24773978437
20
-2.73149462769
30
0
40
2.11779685081
50
45.996841334
51
120.999996097
0
ARC
8
drawinglayer
10
-2.06019913713
20
-2.61809454892
30
0
40
1.97213545722
50
30.0113188498
51
150.000025715
0
ARC
8
drawinglayer
10
-2.33635306079
20
-2.62529426313
30
0
40
1.97213545722
50
30.0113188498
51
150.000025715
0
ARC
8
drawinglayer
10
-2.06019913713
20
-2.76375594251
30
0
40
2.11779685081
50
83.9839431511
51
104.999977781
0
ARC
8
drawinglayer
10
-2.1507543212
20
-2.58330509018
30
0
40
1.97213545722
50
30.0113188498
51
150.000025715
0
ARC
8
drawinglayer
10
-2.1507543212
20
-2.72896648377
30
0
40
2.11779685081
50
72.9831534846
51
148.000001939
0
ARC
8
drawinglayer
10
-2.24773978437
20
-2.5858332341
30
0
40
1.97213545722
50
30.0113188498
51
150.000025715
0
ARC
8
drawinglayer
10
-2.16975204038
20
-2.69375566771
30
0
40
1.97213545722
50
30.0113188498
51
150.000025715
0
ARC
8
drawinglayer
10
-2.22300794167
20
-2.69514797886
30
0
40
1.97213545722
50
30.0113188498
51
150.000025715
0
ARC
8
drawinglayer
10
-2.27168387209
20
-2.71682040102
30
0
40
1.97213545722
50
30.0113188498
51
150.000025715
0
ARC
8
drawinglayer
10
-2.30837859871
20
-2.75545703529
30
0
40
1.97213545722
50
30.0113188498
51
150.000025715
0
ARC
8
drawinglayer
10
-2.3274679173
20
-2.80519551896
30
0
40
1.97213545722
50
30.0113188498
51
150.000025715
0
ARC
8
drawinglayer
10
-2.07740150773
20
-2.90122834819
30
0
40
1.97213545722
50
30.0113188498
51
150.000025715
0
ARC
8
drawinglayer
10
-2.05831218913
20
-2.85148986452
30
0
40
1.97213545722
50
30.0113188498
51
150.000025715
0
ARC
8
drawinglayer
10
-2.05970450028
20
-2.79821564335
30
0
40
1.97213545722
50
30.0113188498
51
150.000025715
0
ARC
8
drawinglayer
10
-2.08135860256
20
-2.74953971293
30
0
40
1.97213545722
50
30.0113188498
51
150.000025715
0
ARC
8
drawinglayer
10
-2.12001355671
20
-2.71286330619
30
0
40
1.97213545722
50
30.0113188498
51
150.000025715
0
ARC
8
drawinglayer
10
-2.21602806606
20
-2.96292971577
30
0
40
1.97213545722
50
30.0113188498
51
150.000025715
0
ARC
8
drawinglayer
10
-2.18939095547
20
-2.96223356019
30
0
40
1.97213545722
50
30.0113188498
51
150.000025715
0
ARC
8
drawinglayer
10
-2.30442150388
20
-2.90714567055
30
0
40
1.97213545722
50
30.0113188498
51
150.000025715
0
ARC
8
drawinglayer
10
-2.26576654972
20
-2.94382207729
30
0
40
1.97213545722
50
30.0113188498
51
150.000025715
0
ARC
8
drawinglayer
10
-2.32607560616
20
-2.85846974013
30
0
40
1.97213545722
50
30.0113188498
51
150.000025715
0
ARC
8
drawinglayer
10
-2.16277216477
20
-2.96153740462
30
0
40
1.97213545722
50
30.0113188498
51
150.000025715
0
ARC
8
drawinglayer
10
-2.11409623435
20
-2.93986498246
30
0
40
1.97213545722
50
30.0113188498
51
150.000025715
0
ARC
8
drawinglayer
10
-2.23502578524
20
-4.5939306226
30
0
40
3.49268578652
50
109.99622705
51
150.000025715
0
ARC
8
drawinglayer
10
-2.18653305365
20
-4.44702347693
30
0
40
3.34704271281
50
107.990874767
51
150.000025715
0
ARC
8
drawinglayer
10
-2.18653305365
20
-4.44702347693
30
0
40
3.34704271281
50
36.0273756987
51
89.0000167602
0
ARC
8
drawinglayer
10
-2.23502578524
20
-4.44828754889
30
0
40
3.34704271281
50
105.985522484
51
150.000025715
0
ARC
8
drawinglayer
10
-2.23502578524
20
-4.44828754889
30
0
40
3.34704271281
50
36.0273756987
51
86.9999929847
0
ARC
8
drawinglayer
10
-2.04940872576
20
-4.40629837594
30
0
40
3.34704271281
50
114.006931616
51
150.000025715
0
ARC
8
drawinglayer
10
-2.04940872576
20
-4.40629837594
30
0
40
3.34704271281
50
37.0014039504
51
93.0000070153
0
ARC
8
drawinglayer
10
-1.98263275046
20
-4.33595002336
30
0
40
3.34704271281
50
138.987891484
51
150.000025715
0
ARC
8
drawinglayer
10
-1.98263275046
20
-4.33595002336
30
0
40
3.34704271281
50
118.017636182
51
121.999979337
0
ARC
8
drawinglayer
10
-1.98263275046
20
-4.33595002336
30
0
40
3.34704271281
50
37.0014039504
51
94.999973495
0
ARC
8
drawinglayer
10
-2.04940872576
20
-4.55194144965
30
0
40
3.49268578652
50
39.0067562334
51
93.0000070153
0
ARC
8
drawinglayer
10
-2.04940872576
20
-4.55194144965
30
0
40
3.49268578652
50
30.0113188498
51
31.9999980609
0
ARC
8
drawinglayer
10
-1.98263275046
20
-4.48159309707
30
0
40
3.49268578652
50
70.0037729499
51
82.0000194897
0
ARC
8
drawinglayer
10
-1.98263275046
20
-4.48159309707
30
0
40
3.49268578652
50
39.9807844851
51
59.9999871427
0
ARC
8
drawinglayer
10
-2.39594764177
20
-4.34672211485
30
0
40
3.34704271281
50
116.012283899
51
150.000025715
0
ARC
8
drawinglayer
10
-2.39594764177
20
-4.34672211485
30
0
40
3.34704271281
50
101.000789667
51
111.999975051
0
ARC
8
drawinglayer
10
-2.39594764177
20
-4.34672211485
30
0
40
3.34704271281
50
56.9976310005
51
77.9999719388
0
ARC
8
drawinglayer
10
-2.39594764177
20
-4.34672211485
30
0
40
3.34704271281
50
36.0273756987
51
48.0000163773
0
ARC
8
drawinglayer
10
-2.39594764177
20
-4.49236518856
30
0
40
3.49268578652
50
116.012283899
51
150.000025715
0
ARC
8
drawinglayer
10
-2.39594764177
20
-4.49236518856
30
0
40
3.49268578652
50
101.000789667
51
110.999991811
0
ARC
8
drawinglayer
10
-2.32558096931
20
-4.41351641004
30
0
40
3.34704271281
50
103.006141949
51
150.000025715
0
ARC
8
drawinglayer
10
-2.32558096931
20
-4.41351641004
30
0
40
3.34704271281
50
34.9960516674
51
82.0000194897
0
ARC
8
drawinglayer
10
-2.32558096931
20
-4.55915948375
30
0
40
3.49268578652
50
103.006141949
51
150.000025715
0
ARC
8
drawinglayer
10
-2.13804032206
20
-4.44575940497
30
0
40
3.34704271281
50
109.99622705
51
150.000025715
0
ARC
8
drawinglayer
10
-2.13804032206
20
-4.44575940497
30
0
40
3.34704271281
50
36.0273756987
51
90.9999832398
0
ARC
8
drawinglayer
10
-2.13804032206
20
-4.59140247868
30
0
40
3.49268578652
50
39.0067562334
51
86.9999929847
0
ARC
8
drawinglayer
10
-2.21602806606
20
-4.33783697136
30
0
40
3.34704271281
50
125.981749534
51
150.000025715
0
ARC
8
drawinglayer
10
-2.21602806606
20
-4.33783697136
30
0
40
3.34704271281
50
109.022198798
51
117.999989082
0
ARC
8
drawinglayer
10
-2.21602806606
20
-4.33783697136
30
0
40
3.34704271281
50
61.0083355664
51
85.000026505
0
ARC
8
drawinglayer
10
-2.21602806606
20
-4.33783697136
30
0
40
3.34704271281
50
37.0014039504
51
51.0000233926
0
ARC
8
drawinglayer
10
-2.18939095547
20
-4.33714081578
30
0
40
3.34704271281
50
127.987101817
51
150.000025715
0
ARC
8
drawinglayer
10
-2.18939095547
20
-4.33714081578
30
0
40
3.34704271281
50
109.99622705
51
118.999972322
0
ARC
8
drawinglayer
10
-2.18939095547
20
-4.33714081578
30
0
40
3.34704271281
50
61.0083355664
51
86.0000097449
0
ARC
8
drawinglayer
10
-2.18939095547
20
-4.33714081578
30
0
40
3.34704271281
50
37.0014039504
51
52.0000066324
0
ARC
8
drawinglayer
10
-2.26576654972
20
-4.31872933288
30
0
40
3.34704271281
50
131.023778131
51
150.000025715
0
ARC
8
drawinglayer
10
-2.16277216477
20
-4.33644466021
30
0
40
3.34704271281
50
129.018425848
51
150.000025715
0
ARC
8
drawinglayer
10
-2.16277216477
20
-4.33644466021
30
0
40
3.34704271281
50
111.027551081
51
120.000012857
0
ARC
8
drawinglayer
10
-2.16277216477
20
-4.33644466021
30
0
40
3.34704271281
50
61.0083355664
51
86.9999929847
0
ARC
8
drawinglayer
10
-2.16277216477
20
-4.33644466021
30
0
40
3.34704271281
50
36.0273756987
51
52.9999898723
0
ARC
8
drawinglayer
10
-2.11409623435
20
-4.31477223805
30
0
40
3.34704271281
50
145.003948333
51
150.000025715
0
ARC
8
drawinglayer
10
-2.11409623435
20
-4.31477223805
30
0
40
3.34704271281
50
41.0121085163
51
42.9999855865
0
ARC
8
drawinglayer
10
0.623627153731
20
-3.19438312372
30
0
40
2.11779685081
50
98.9954373836
51
150.000025715
0
ARC
8
drawinglayer
10
0.672101565434
20
-3.04745765817
30
0
40
1.97213545722
50
30.0113188498
51
150.000025715
0
ARC
8
drawinglayer
10
0.623627153731
20
-3.04872173013
30
0
40
1.97213545722
50
30.0113188498
51
150.000025715
0
ARC
8
drawinglayer
10
0.809225893323
20
-3.00675087706
30
0
40
1.97213545722
50
30.0113188498
51
150.000025715
0
ARC
8
drawinglayer
10
0.876001868628
20
-2.9363842046
30
0
40
1.97213545722
50
30.0113188498
51
150.000025715
0
ARC
8
drawinglayer
10
0.809225893323
20
-3.15241227066
30
0
40
2.11779685081
50
30.0113188498
51
79.9999957142
0
ARC
8
drawinglayer
10
0.876001868628
20
-3.08204559819
30
0
40
2.11779685081
50
79.9732385852
51
79.9999957142
0
ARC
8
drawinglayer
10
0.876001868628
20
-3.08204559819
30
0
40
2.11779685081
50
30.0113188498
51
69.0000081886
0
ARC
8
drawinglayer
10
0.908263183446
20
-2.74884355735
30
0
40
1.97213545722
50
30.0113188498
51
150.000025715
0
ARC
8
drawinglayer
10
0.868802154418
20
-2.66023028094
30
0
40
1.97213545722
50
30.0113188498
51
150.000025715
0
ARC
8
drawinglayer
10
0.868802154418
20
-2.80589167453
30
0
40
2.11779685081
50
30.0113188498
51
86.9999929847
0
ARC
8
drawinglayer
10
0.908263183446
20
-2.89450495095
30
0
40
2.11779685081
50
30.0113188498
51
85.000026505
0
ARC
8
drawinglayer
10
0.420716124245
20
-2.76155755649
30
0
40
1.97213545722
50
30.0113188498
51
150.000025715
0
ARC
8
drawinglayer
10
0.420716124245
20
-2.90721895009
30
0
40
2.11779685081
50
85.9892954341
51
150.000025715
0
ARC
8
drawinglayer
10
0.423244268166
20
-3.00420441326
30
0
40
2.11779685081
50
87.0206194653
51
150.000025715
0
ARC
8
drawinglayer
10
0.423244268166
20
-2.85854301967
30
0
40
1.97213545722
50
30.0113188498
51
150.000025715
0
ARC
8
drawinglayer
10
0.462705297194
20
-2.94717461597
30
0
40
1.97213545722
50
30.0113188498
51
150.000025715
0
ARC
8
drawinglayer
10
0.462705297194
20
-3.09283600956
30
0
40
2.11779685081
50
89.0259717483
51
150.000025715
0
ARC
8
drawinglayer
10
0.910791327367
20
-2.84582902053
30
0
40
1.97213545722
50
30.0113188498
51
150.000025715
0
ARC
8
drawinglayer
10
0.910791327367
20
-2.99149041412
30
0
40
2.11779685081
50
83.0099148994
51
83.9999859694
0
ARC
8
drawinglayer
10
0.910791327367
20
-2.99149041412
30
0
40
2.11779685081
50
30.0113188498
51
79.9999957142
0
ARC
8
drawinglayer
10
0.533053649779
20
-3.01395059127
30
0
40
1.97213545722
50
30.0113188498
51
150.000025715
0
ARC
8
drawinglayer
10
0.533053649779
20
-3.15961198487
30
0
40
2.11779685081
50
90.9740282517
51
150.000025715
0
ARC
8
drawinglayer
10
0.72059429702
20
-3.04619358621
30
0
40
1.97213545722
50
30.0113188498
51
150.000025715
0
ARC
8
drawinglayer
10
0.72059429702
20
-3.1918549798
30
0
40
2.11779685081
50
30.0113188498
51
73.9999816836
0
ARC
8
drawinglayer
10
0.455487263101
20
-2.81666376602
30
0
40
2.11779685081
50
83.9839431511
51
150.000025715
0
ARC
8
drawinglayer
10
0.455487263101
20
-2.67100237242
30
0
40
1.97213545722
50
30.0113188498
51
150.000025715
0
ARC
8
drawinglayer
10
0.522281558289
20
-2.74629709355
30
0
40
2.11779685081
50
81.0045626164
51
150.000025715
0
ARC
8
drawinglayer
10
0.798453801834
20
-2.59343598575
30
0
40
1.97213545722
50
30.0113188498
51
150.000025715
0
ARC
8
drawinglayer
10
0.522281558289
20
-2.60063569996
30
0
40
1.97213545722
50
30.0113188498
51
150.000025715
0
ARC
8
drawinglayer
10
0.798453801834
20
-2.73909737934
30
0
40
2.11779685081
50
30.0113188498
51
90.9999832398
0
ARC
8
drawinglayer
10
0.68890089859
20
-2.66911542443
30
0
40
1.97213545722
50
30.0113188498
51
150.000025715
0
ARC
8
drawinglayer
10
0.635626677414
20
-2.67050773557
30
0
40
1.97213545722
50
30.0113188498
51
150.000025715
0
ARC
8
drawinglayer
10
0.586950746993
20
-2.69216183785
30
0
40
1.97213545722
50
30.0113188498
51
150.000025715
0
ARC
8
drawinglayer
10
0.550274340255
20
-2.73081679201
30
0
40
1.97213545722
50
30.0113188498
51
150.000025715
0
ARC
8
drawinglayer
10
0.53116670178
20
-2.78055527567
30
0
40
1.97213545722
50
30.0113188498
51
150.000025715
0
ARC
8
drawinglayer
10
0.781233111357
20
-2.87656978502
30
0
40
1.97213545722
50
30.0113188498
51
150.000025715
0
ARC
8
drawinglayer
10
0.800340749833
20
-2.82683130135
30
0
40
1.97213545722
50
30.0113188498
51
150.000025715
0
ARC
8
drawinglayer
10
0.798948438688
20
-2.77357540006
30
0
40
1.97213545722
50
30.0113188498
51
150.000025715
0
ARC
8
drawinglayer
10
0.777276016525
20
-2.72489946964
30
0
40
1.97213545722
50
30.0113188498
51
150.000025715
0
ARC
8
drawinglayer
10
0.738639382254
20
-2.68820474302
30
0
40
1.97213545722
50
30.0113188498
51
150.000025715
0
ARC
8
drawinglayer
10
0.642606553022
20
-2.9382711526
30
0
40
1.97213545722
50
30.0113188498
51
150.000025715
0
ARC
8
drawinglayer
10
0.66924366361
20
-2.93757499702
30
0
40
1.97213545722
50
30.0113188498
51
150.000025715
0
ARC
8
drawinglayer
10
0.554231435088
20
-2.88248710738
30
0
40
1.97213545722
50
30.0113188498
51
150.000025715
0
ARC
8
drawinglayer
10
0.592868069359
20
-2.919181834
30
0
40
1.97213545722
50
30.0113188498
51
150.000025715
0
ARC
8
drawinglayer
10
0.532559012925
20
-2.83381117696
30
0
40
1.97213545722
50
30.0113188498
51
150.000025715
0
ARC
8
drawinglayer
10
0.695880774198
20
-2.93687884145
30
0
40
1.97213545722
50
30.0113188498
51
150.000025715
0
ARC
8
drawinglayer
10
0.744556704619
20
-2.91522473917
30
0
40
1.97213545722
50
30.0113188498
51
150.000025715
0
ARC
8
drawinglayer
10
0.623627153731
20
-4.56927205943
30
0
40
3.49268578652
50
98.0214091318
51
141.999987908
0
ARC
8
drawinglayer
10
0.672101565434
20
-4.42236491376
30
0
40
3.34704271281
50
96.0160568489
51
144.999994924
0
ARC
8
drawinglayer
10
0.672101565434
20
-4.42236491376
30
0
40
3.34704271281
50
30.0113188498
51
76.9999886989
0
ARC
8
drawinglayer
10
0.623627153731
20
-4.42362898572
30
0
40
3.34704271281
50
94.0107045659
51
144.999994924
0
ARC
8
drawinglayer
10
0.623627153731
20
-4.42362898572
30
0
40
3.34704271281
50
30.0113188498
51
75.0000222193
0
ARC
8
drawinglayer
10
0.809225893323
20
-4.38165813265
30
0
40
3.34704271281
50
101.974817918
51
137.999997653
0
ARC
8
drawinglayer
10
0.809225893323
20
-4.38165813265
30
0
40
3.34704271281
50
30.0113188498
51
80.9999789541
0
ARC
8
drawinglayer
10
0.876001868628
20
-4.31129146019
30
0
40
3.34704271281
50
105.985522484
51
138.999980893
0
ARC
8
drawinglayer
10
0.876001868628
20
-4.31129146019
30
0
40
3.34704271281
50
30.0113188498
51
83.0000027295
0
ARC
8
drawinglayer
10
0.809225893323
20
-4.52730120636
30
0
40
3.49268578652
50
30.0113188498
51
80.9999789541
0
ARC
8
drawinglayer
10
0.876001868628
20
-4.4569345339
30
0
40
3.49268578652
50
30.0113188498
51
69.9999914285
0
ARC
8
drawinglayer
10
0.462705297194
20
-4.32208187156
30
0
40
3.34704271281
50
89.0259717483
51
133.000024158
0
ARC
8
drawinglayer
10
0.462705297194
20
-4.32208187156
30
0
40
3.34704271281
50
30.0113188498
51
66.9999844132
0
ARC
8
drawinglayer
10
0.462705297194
20
-4.46772494527
30
0
40
3.49268578652
50
89.0259717483
51
131.000000383
0
ARC
8
drawinglayer
10
0.910791327367
20
-4.22073627612
30
0
40
3.34704271281
50
30.0113188498
51
42.0000023467
0
ARC
8
drawinglayer
10
0.910791327367
20
-4.36637934983
30
0
40
3.49268578652
50
30.0113188498
51
42.9999855865
0
ARC
8
drawinglayer
10
0.533053649779
20
-4.38885784686
30
0
40
3.34704271281
50
90.9740282517
51
140.000021429
0
ARC
8
drawinglayer
10
0.533053649779
20
-4.38885784686
30
0
40
3.34704271281
50
30.0113188498
51
69.9999914285
0
ARC
8
drawinglayer
10
0.533053649779
20
-4.53450092057
30
0
40
3.49268578652
50
90.9740282517
51
135.999973878
0
ARC
8
drawinglayer
10
0.72059429702
20
-4.4211008418
30
0
40
3.34704271281
50
98.0214091318
51
144.999994924
0
ARC
8
drawinglayer
10
0.72059429702
20
-4.4211008418
30
0
40
3.34704271281
50
30.0113188498
51
79.0000124744
0
ARC
8
drawinglayer
10
0.72059429702
20
-4.56674391551
30
0
40
3.49268578652
50
30.0113188498
51
76.0000054591
0
ARC
8
drawinglayer
10
0.781233111357
20
-4.25147704061
30
0
40
3.34704271281
50
101.974817918
51
113.000015587
0
ARC
8
drawinglayer
10
0.781233111357
20
-4.25147704061
30
0
40
3.34704271281
50
30.0113188498
51
79.0000124744
0
ARC
8
drawinglayer
10
0.642606553022
20
-4.31317840819
30
0
40
3.34704271281
50
96.9900851006
51
135.999973878
0
ARC
8
drawinglayer
10
0.642606553022
20
-4.31317840819
30
0
40
3.34704271281
50
30.0113188498
51
72.9999984438
0
ARC
8
drawinglayer
10
0.66924366361
20
-4.31248225261
30
0
40
3.34704271281
50
98.0214091318
51
135.999973878
0
ARC
8
drawinglayer
10
0.66924366361
20
-4.31248225261
30
0
40
3.34704271281
50
30.0113188498
51
73.9999816836
0
ARC
8
drawinglayer
10
0.554231435088
20
-4.25739436297
30
0
40
3.34704271281
50
92.9793805347
51
117.000005842
0
ARC
8
drawinglayer
10
0.554231435088
20
-4.25739436297
30
0
40
3.34704271281
50
30.0113188498
51
69.9999914285
0
ARC
8
drawinglayer
10
0.592868069359
20
-4.29408908959
30
0
40
3.34704271281
50
94.9847328176
51
134.999990638
0
ARC
8
drawinglayer
10
0.592868069359
20
-4.29408908959
30
0
40
3.34704271281
50
30.0113188498
51
70.9999746683
0
ARC
8
drawinglayer
10
0.695880774198
20
-4.31178609704
30
0
40
3.34704271281
50
98.9954373836
51
137.000014413
0
ARC
8
drawinglayer
10
0.695880774198
20
-4.31178609704
30
0
40
3.34704271281
50
30.0113188498
51
76.0000054591
0
ARC
8
drawinglayer
10
0.744556704619
20
-4.29013199476
30
0
40
3.34704271281
50
101.000789667
51
134.000007398
0
ARC
8
drawinglayer
10
0.744556704619
20
-4.29013199476
30
0
40
3.34704271281
50
30.0113188498
51
76.9999886989
0
ARC
8
drawinglayer
10
-1.47233239597
20
-2.10814227222
30
0
40
2.00877522419
50
30.0113188498
51
150.000025715
0
ARC
8
drawinglayer
10
-1.07391156992
20
-2.104716454
30
0
40
2.00877522419
50
61.9823638181
51
150.000025715
0
ARC
8
drawinglayer
10
-1.93217979134
20
-2.11211768693
30
0
40
2.00877522419
50
30.0113188498
51
150.000025715
0
ARC
8
drawinglayer
10
-1.57677405172
20
-1.68476976486
30
0
40
2.00877522419
50
30.0113188498
51
150.000025715
0
ARC
8
drawinglayer
10
-1.07757554662
20
-1.68046459225
30
0
40
2.00877522419
50
61.9823638181
51
150.000025715
0
ARC
8
drawinglayer
10
-1.94174277052
20
-2.52713632741
30
0
40
2.00877522419
50
30.0113188498
51
150.000025715
0
ARC
8
drawinglayer
10
-1.07158494472
20
-2.37533777285
30
0
40
2.00877522419
50
61.9823638181
51
150.000025715
0
ARC
8
drawinglayer
10
-1.4000787755
20
-2.83806138993
30
0
40
2.00877522419
50
30.0113188498
51
150.000025715
0
ARC
8
drawinglayer
10
-1.06760953
20
-2.83518516822
30
0
40
2.00877522419
50
30.0113188498
51
150.000025715
0
ARC
8
drawinglayer
10
-1.85992617087
20
-2.84201848476
30
0
40
2.00877522419
50
30.0113188498
51
150.000025715
0
ENDSEC
0
EOF
