0
SECTION
2
HEADER
9
$ACADVER
1
AC1006
9
$INSBASE
10
0.0
20
0.0
30
0.0
9
$EXTMIN
10
0.0
20
0.0
9
$EXTMAX
10
0.0
20
0.0
0
ENDSEC
0
SECTION
2
TABLES
0
TABLE
2
LTYPE
70
1
0
LTYPE
2
CONTINUOUS
70
64
3
Solid line
72
65
73
0
40
0.0
0
ENDTAB
0
TABLE
2
LAYER
70
1
0
LAYER
2
PYDXF
70
64
62
7
6
continuous
0
ENDTAB
0
TABLE
2
STYLE
70
1
0
STYLE
2
STANDARD
70
0
40
0
41
40
50
50
71
0
42
1
3
ARIAL.TTF
4

0
ENDTAB
0
TABLE
2
VIEW
70
0
0
ENDTAB
0
ENDSEC
0
SECTION
2
BLOCKS
0
ENDSEC
0
SECTION
2
ENTITIES
0
ARC
8
drawinglayer
10
0.0
20
-0.072782055486
30
0
40
0.850286358435
50
90.9740282517
51
146.66930746
0
ARC
8
drawinglayer
10
0.0
20
-0.20350741345
30
0
40
0.981011716399
50
90.9740282517
51
146.178339925
0
ARC
8
drawinglayer
10
0.0
20
-0.194046852428
30
0
40
0.382610161412
50
90.9740282517
51
148.471660796
0
ARC
8
drawinglayer
10
0.0
20
-0.104066171251
30
0
40
0.292629480235
50
90.9740282517
51
148.826722742
0
ARC
8
drawinglayer
10
0.0
20
-0.258400791189
30
0
40
0.586407291374
50
90.9740282517
51
104.320335244
0
ARC
8
drawinglayer
10
0.0
20
-0.397843982391
30
0
40
0.586407291374
50
90.9740282517
51
147.6774267
0
ARC
8
drawinglayer
10
0.0
20
0.0441527964886
30
0
40
0.496426610198
50
90.9740282517
51
148.026415293
0
ARC
8
drawinglayer
10
0.0
20
-0.0458278846876
30
0
40
0.586407291374
50
90.9740282517
51
147.6774267
0
ARC
8
drawinglayer
10
0.0
20
-0.130725357965
30
0
40
0.130725357965
50
90.9740282517
51
149.472388881
0
ARC
8
drawinglayer
10
0.0
20
0.0
30
0
40
-0
50
30.9853471015
51
150.000025715
0
ARC
8
drawinglayer
10
0.0
20
0.637718719506
30
0
40
-0
50
30.9853471015
51
150.000025715
0
ARC
8
drawinglayer
10
0.0
20
0.777504302949
30
0
40
-0
50
30.9853471015
51
150.000025715
0
ARC
8
drawinglayer
10
0.0
20
-0.841220865383
30
0
40
0.981011716399
50
90.9740282517
51
146.178339925
0
ARC
8
drawinglayer
10
0.0
20
-0.981011716399
30
0
40
0.981011716399
50
90.9740282517
51
146.178339925
0
ARC
8
drawinglayer
10
0.0
20
0.10850673525
30
0
40
0.292629480235
50
90.9740282517
51
148.826722742
0
ARC
8
drawinglayer
10
0.0
20
0.247949926452
30
0
40
0.292629480235
50
90.9740282517
51
148.826722742
0
ARC
8
drawinglayer
10
1.80247391564
20
0.777504302949
30
0
40
-0
50
35.9700799192
51
153.739549356
0
ARC
8
drawinglayer
10
1.85777289649
20
0.777504302949
30
0
40
-0
50
36.1419672577
51
153.840619111
0
ARC
8
drawinglayer
10
1.85777289649
20
0.139790851016
30
0
40
-0
50
36.1419672577
51
153.840619111
0
ARC
8
drawinglayer
10
1.85777289649
20
0.0
30
0
40
-0
50
36.1419672577
51
153.840619111
0
ARC
8
drawinglayer
10
0.0552937132834
20
0.0
30
0
40
-0
50
31.1572344401
51
150.12905581
0
ARC
8
drawinglayer
10
0.0
20
0.675603104181
30
0
40
0.101901198768
50
90.9740282517
51
149.588240947
0
ARC
8
drawinglayer
10
0.0
20
0.564931396447
30
0
40
0.212572906502
50
90.9740282517
51
149.144886205
0
ARC
8
drawinglayer
10
0.0
20
0.463035465252
30
0
40
0.314468837697
50
90.9740282517
51
148.740320706
0
ARC
8
drawinglayer
10
0.0
20
0.352358489945
30
0
40
0.425145813004
50
90.9740282517
51
148.30475819
0
ARC
8
drawinglayer
10
0.0
20
0.25046255875
30
0
40
0.527041744199
50
90.9740282517
51
147.907354664
0
ARC
8
drawinglayer
10
0.0
20
0.139785583443
30
0
40
0.637718719506
50
90.9740282517
51
147.479584374
0
ARC
8
drawinglayer
10
0.0
20
0.037889652248
30
0
40
0.739614650701
50
90.9740282517
51
147.089342819
0
ARC
8
drawinglayer
10
0.0
20
-0.147729083455
30
0
40
0.586407291374
50
90.9740282517
51
147.6774267
0
ARC
8
drawinglayer
10
0.0
20
-0.879115785204
30
0
40
0.879115785204
50
90.9740282517
51
146.56056007
0
ARC
8
drawinglayer
10
0.0
20
-0.768438809897
30
0
40
0.768438809897
50
90.9740282517
51
146.97950681
0
ARC
8
drawinglayer
10
0.0
20
-0.666542878702
30
0
40
0.666542878702
50
90.9740282517
51
147.368831632
0
ARC
8
drawinglayer
10
0.0
20
-0.555871170968
30
0
40
0.555871170968
50
90.9740282517
51
147.795570598
0
ARC
8
drawinglayer
10
0.0
20
-0.4539699722
30
0
40
0.4539699722
50
90.9740282517
51
148.192000096
0
ARC
8
drawinglayer
10
0.0
20
-0.343298264466
30
0
40
0.343298264466
50
90.9740282517
51
148.626473992
0
ARC
8
drawinglayer
10
0.0
20
-0.241397065698
30
0
40
0.241397065698
50
90.9740282517
51
149.030122759
0
ARC
8
drawinglayer
10
0.0
20
0.101901198768
30
0
40
-0
50
30.9853471015
51
150.000025715
0
ARC
8
drawinglayer
10
0.0
20
0.212572906502
30
0
40
-0
50
30.9853471015
51
150.000025715
0
ARC
8
drawinglayer
10
0.0
20
0.314468837697
30
0
40
-0
50
30.9853471015
51
150.000025715
0
ARC
8
drawinglayer
10
0.0
20
0.425145813004
30
0
40
-0
50
30.9853471015
51
150.000025715
0
ARC
8
drawinglayer
10
0.0
20
0.527041744199
30
0
40
-0
50
30.9853471015
51
150.000025715
0
ARC
8
drawinglayer
10
0.0
20
-0.305403344645
30
0
40
0.981011716399
50
90.9740282517
51
146.178339925
0
ARC
8
drawinglayer
10
0.0
20
-0.416075052379
30
0
40
0.981011716399
50
90.9740282517
51
146.178339925
0
ARC
8
drawinglayer
10
0.0
20
-0.517976251147
30
0
40
0.981011716399
50
90.9740282517
51
146.178339925
0
ARC
8
drawinglayer
10
0.0
20
-0.628647958881
30
0
40
0.981011716399
50
113.262086482
51
146.178339925
0
ARC
8
drawinglayer
10
0.0
20
-0.628647958881
30
0
40
0.981011716399
50
90.9740282517
51
93.7031408215
0
ARC
8
drawinglayer
10
0.0
20
-0.730549157649
30
0
40
0.981011716399
50
90.9740282517
51
146.178339925
0
ARC
8
drawinglayer
10
0.0
20
-0.00216497248352
30
0
40
0.292629480235
50
90.9740282517
51
148.826722742
0
ARC
8
drawinglayer
10
0.101901198768
20
0.777504302949
30
0
40
-0
50
31.2718259991
51
150.237001059
0
ARC
8
drawinglayer
10
0.212572906502
20
0.777504302949
30
0
40
-0
50
31.5010091171
51
150.490649475
0
ARC
8
drawinglayer
10
0.314468837697
20
0.777504302949
30
0
40
-0
50
31.7874880147
51
150.720692029
0
ARC
8
drawinglayer
10
0.425145813004
20
0.777504302949
30
0
40
-0
50
32.0739669123
51
150.966834698
0
ARC
8
drawinglayer
10
0.527041744199
20
0.777504302949
30
0
40
-0
50
32.3031500303
51
151.190173647
0
ARC
8
drawinglayer
10
0.637718719506
20
0.777504302949
30
0
40
-0
50
32.5896289279
51
151.429211639
0
ARC
8
drawinglayer
10
0.739614650701
20
0.777504302949
30
0
40
-0
50
32.8761078255
51
151.646076164
0
ARC
8
drawinglayer
10
0.850286358435
20
0.777504302949
30
0
40
-0
50
33.162586723
51
151.878238663
0
ARC
8
drawinglayer
10
0.952187557203
20
0.777504302949
30
0
40
-0
50
33.4490656206
51
152.08897254
0
ARC
8
drawinglayer
10
1.06285926494
20
0.777504302949
30
0
40
-0
50
33.7928402977
51
152.314546024
0
ARC
8
drawinglayer
10
1.1647604637
20
0.777504302949
30
0
40
-0
50
34.0793191952
51
152.519263844
0
ARC
8
drawinglayer
10
1.27543217144
20
0.777504302949
30
0
40
-0
50
34.3657980928
51
152.738477496
0
ARC
8
drawinglayer
10
1.37733337021
20
0.777504302949
30
0
40
-0
50
34.6522769904
51
152.937465739
0
ARC
8
drawinglayer
10
1.48800507794
20
0.777504302949
30
0
40
-0
50
34.9960516674
51
153.150606038
0
ARC
8
drawinglayer
10
1.58990627671
20
0.777504302949
30
0
40
-0
50
35.282530565
51
153.344093886
0
ARC
8
drawinglayer
10
1.70057798444
20
0.777504302949
30
0
40
-0
50
35.6263052421
51
153.55133272
0
ARC
8
drawinglayer
10
1.85777289649
20
0.675608371754
30
0
40
-0
50
36.1419672577
51
153.840619111
0
ARC
8
drawinglayer
10
1.85777289649
20
0.56493666402
30
0
40
-0
50
36.1419672577
51
153.840619111
0
ARC
8
drawinglayer
10
1.85777289649
20
0.463035465252
30
0
40
-0
50
36.1419672577
51
153.840619111
0
ARC
8
drawinglayer
10
1.85777289649
20
0.352363757518
30
0
40
-0
50
36.1419672577
51
153.840619111
0
ARC
8
drawinglayer
10
1.85777289649
20
0.25046255875
30
0
40
-0
50
36.1419672577
51
153.840619111
0
ARC
8
drawinglayer
10
1.75587169773
20
0.0
30
0
40
-0
50
35.7981925806
51
153.653777574
0
ARC
8
drawinglayer
10
1.64519998999
20
0.0
30
0
40
-0
50
35.4544179035
51
153.44802843
0
ARC
8
drawinglayer
10
1.54329879122
20
0.0
30
0
40
-0
50
35.167939006
51
153.255915681
0
ARC
8
drawinglayer
10
1.43262708349
20
0.0
30
0
40
-0
50
34.8241643289
51
153.044379663
0
ARC
8
drawinglayer
10
1.33072588472
20
0.0
30
0
40
-0
50
34.5376854313
51
152.846823815
0
ARC
8
drawinglayer
10
1.22005417699
20
0.0
30
0
40
-0
50
34.1939107543
51
152.629214445
0
ARC
8
drawinglayer
10
1.11815824579
20
0.0
30
0
40
-0
50
33.9074318567
51
152.425986315
0
ARC
8
drawinglayer
10
1.00748127049
20
0.0
30
0
40
-0
50
33.6209529591
51
152.202074409
0
ARC
8
drawinglayer
10
0.905585339291
20
0.0
30
0
40
-0
50
33.3344740616
51
151.992944813
0
ARC
8
drawinglayer
10
0.794908363984
20
0.0
30
0
40
-0
50
33.047995164
51
151.762558484
0
ARC
8
drawinglayer
10
0.693012432789
20
0.0
30
0
40
-0
50
32.7615162664
51
151.54729824
0
ARC
8
drawinglayer
10
0.582340725055
20
0.0
30
0
40
-0
50
32.4750373689
51
151.310036417
0
ARC
8
drawinglayer
10
0.480439526287
20
0.0
30
0
40
-0
50
32.1885584713
51
151.088416342
0
ARC
8
drawinglayer
10
0.369767818553
20
0.0
30
0
40
-0
50
31.9020795737
51
150.844107138
0
ARC
8
drawinglayer
10
0.267866619785
20
0.0
30
0
40
-0
50
31.6728964557
51
150.615840753
0
ARC
8
drawinglayer
10
0.157194912051
20
0.0
30
0
40
-0
50
31.3864175581
51
150.364197689
0
ARC
8
drawinglayer
10
0.0
20
-0.295948051196
30
0
40
0.48451136018
50
90.9740282517
51
148.072824875
0
ARC
8
drawinglayer
10
0.0
20
0.146053995257
30
0
40
0.39452541143
50
90.9740282517
51
148.424850144
0
ARC
8
drawinglayer
10
-0.180203670708
20
-0.094110458371
30
0
40
0.511929077398
50
90.1718873385
51
147.522269729
0
ARC
8
drawinglayer
10
-0.180203670708
20
-0.127812390122
30
0
40
0.545631009148
50
90.1718873385
51
147.390432141
0
ARC
8
drawinglayer
10
-0.180203670708
20
-0.219505032508
30
0
40
0.545631009148
50
90.1718873385
51
147.390432141
0
ARC
8
drawinglayer
10
-0.180203670708
20
-0.250067490778
30
0
40
0.545631009148
50
72.0091252329
51
147.390432141
0
ARC
8
drawinglayer
10
-0.0454064788514
20
-0.0267118624426
30
0
40
0.444530481469
50
85.0152671824
51
89.794709222
0
ARC
8
drawinglayer
10
-0.0454064788514
20
0.00699006930809
30
0
40
0.410828549719
50
84.0412389306
51
148.250842862
0
ARC
8
drawinglayer
10
-0.0454064788514
20
-0.219505032508
30
0
40
0.545631009148
50
85.9892954341
51
89.7963135038
0
ARC
8
drawinglayer
10
-0.0454064788514
20
-0.250067490778
30
0
40
0.545631009148
50
85.9892954341
51
147.724180057
0
ARC
8
drawinglayer
10
-0.0454064788514
20
-0.0847025730777
30
0
40
0.410828549719
50
84.0412389306
51
148.250842862
0
ARC
8
drawinglayer
10
-0.0454064788514
20
-0.115265031349
30
0
40
0.410828549719
50
84.0412389306
51
148.250842862
0
ARC
8
drawinglayer
10
-0.0454064788514
20
-0.161303618954
30
0
40
0.456867137324
50
85.0152671824
51
148.070246565
0
ARC
8
drawinglayer
10
-0.14650700653
20
0.00699006930809
30
0
40
0.410828549719
50
71.0350969812
51
148.003267799
0
ARC
8
drawinglayer
10
-0.180203670708
20
0.00699006930809
30
0
40
0.410828549719
50
67.0243924153
51
147.920017031
0
ARC
8
drawinglayer
10
-0.079108410602
20
-0.250067490778
30
0
40
0.545631009148
50
82.0358866477
51
147.641330359
0
ARC
8
drawinglayer
10
-0.0454064788514
20
-0.127812390122
30
0
40
0.545631009148
50
85.9892954341
51
89.7963135038
0
ARC
8
drawinglayer
10
-0.14650700653
20
-0.115265031349
30
0
40
0.410828549719
50
71.0350969812
51
148.003267799
0
ARC
8
drawinglayer
10
-0.180203670708
20
-0.115265031349
30
0
40
0.410828549719
50
67.0243924153
51
147.920017031
0
ARC
8
drawinglayer
10
-0.180203670708
20
-0.0847025730777
30
0
40
0.410828549719
50
67.0243924153
51
147.920017031
0
ARC
8
drawinglayer
10
-0.180203670708
20
-0.216365559028
30
0
40
0.511929077398
50
71.0350969812
51
147.522269729
0
ARC
8
drawinglayer
10
-0.180203670708
20
-0.0267118624426
30
0
40
0.444530481469
50
90.1718873385
51
147.787033527
0
ARC
8
drawinglayer
10
-0.180203670708
20
-0.0604085266203
30
0
40
0.478227145647
50
90.1718873385
51
147.654451093
0
ARC
8
drawinglayer
10
-0.180203670708
20
-0.158374848393
30
0
40
0.545631009148
50
90.1718873385
51
147.390432141
0
ARC
8
drawinglayer
10
-0.180203670708
20
-0.188937306664
30
0
40
0.545631009148
50
90.1718873385
51
147.390432141
0
ARC
8
drawinglayer
10
-0.180203670708
20
-0.148966963099
30
0
40
0.444530481469
50
68.0557164465
51
147.787033527
0
ARC
8
drawinglayer
10
-0.180203670708
20
-0.182663627277
30
0
40
0.478227145647
50
70.0037729499
51
147.654451093
0
ARC
8
drawinglayer
10
-0.180203670708
20
-0.0235723889629
30
0
40
0.410828549719
50
67.0243924153
51
147.920017031
0
ARC
8
drawinglayer
10
-0.180203670708
20
-0.0541348472338
30
0
40
0.410828549719
50
67.0243924153
51
147.920017031
0
ARC
8
drawinglayer
10
-0.079108410602
20
0.00699006930809
30
0
40
0.410828549719
50
80.0305343647
51
148.168680714
0
ARC
8
drawinglayer
10
-0.11280507478
20
0.00699006930809
30
0
40
0.410828549719
50
75.0458015471
51
148.086174791
0
ARC
8
drawinglayer
10
-0.0454064788514
20
-0.0235723889629
30
0
40
0.410828549719
50
84.0412389306
51
148.250842862
0
ARC
8
drawinglayer
10
-0.0454064788514
20
-0.0541348472338
30
0
40
0.410828549719
50
84.0412389306
51
148.250842862
0
ARC
8
drawinglayer
10
-0.079108410602
20
-0.115265031349
30
0
40
0.410828549719
50
80.0305343647
51
148.168680714
0
ARC
8
drawinglayer
10
-0.11280507478
20
-0.115265031349
30
0
40
0.410828549719
50
75.0458015471
51
148.086174791
0
ARC
8
drawinglayer
10
-0.0454064788514
20
-0.094110458371
30
0
40
0.511929077398
50
85.0152671824
51
89.7957978418
0
ARC
8
drawinglayer
10
-0.0454064788514
20
-0.0604085266203
30
0
40
0.478227145647
50
85.0152671824
51
89.795224884
0
ARC
8
drawinglayer
10
-0.0454064788514
20
-0.216365559028
30
0
40
0.511929077398
50
85.0152671824
51
147.8552728
0
ARC
8
drawinglayer
10
-0.0454064788514
20
-0.182663627277
30
0
40
0.478227145647
50
85.0152671824
51
147.986766614
0
ARC
8
drawinglayer
10
-0.0454064788514
20
-0.158374848393
30
0
40
0.545631009148
50
85.9892954341
51
89.7963135038
0
ARC
8
drawinglayer
10
-0.0454064788514
20
-0.188937306664
30
0
40
0.545631009148
50
85.9892954341
51
89.7963135038
0
ARC
8
drawinglayer
10
-0.14650700653
20
-0.250067490778
30
0
40
0.545631009148
50
75.0458015471
51
147.474427754
0
ARC
8
drawinglayer
10
-0.11280507478
20
-0.250067490778
30
0
40
0.545631009148
50
78.9992103335
51
147.558079592
0
ARC
8
drawinglayer
10
0.0469762155912
20
-0.10099517622
30
0
40
0.516137868187
50
102.719663052
51
130.593372236
0
ARC
8
drawinglayer
10
0.0469762155912
20
-0.134697107971
30
0
40
0.549839799938
50
100.771606548
51
122.789687066
0
ARC
8
drawinglayer
10
0.0469762155912
20
-0.226384482784
30
0
40
0.549839799938
50
100.771606548
51
122.789687066
0
ARC
8
drawinglayer
10
0.0469762155912
20
-0.256952208627
30
0
40
0.549839799938
50
100.771606548
51
147.933137764
0
ARC
8
drawinglayer
10
0.181778675021
20
0.000100083886099
30
0
40
0.415042608081
50
146.894709056
51
148.778307808
0
ARC
8
drawinglayer
10
0.181778675021
20
-0.256952208627
30
0
40
0.549839799938
50
126.210932652
51
148.256858919
0
ARC
8
drawinglayer
10
0.181778675021
20
-0.0915872909267
30
0
40
0.415042608081
50
146.894709056
51
148.778307808
0
ARC
8
drawinglayer
10
0.181778675021
20
-0.122155016771
30
0
40
0.415042608081
50
146.894709056
51
148.778307808
0
ARC
8
drawinglayer
10
0.181778675021
20
-0.168193604376
30
0
40
0.461081195686
50
138.013863232
51
148.599602272
0
ARC
8
drawinglayer
10
0.0806781473419
20
0.000100083886099
30
0
40
0.415042608081
50
124.262876149
51
148.538295788
0
ARC
8
drawinglayer
10
0.0469762155912
20
0.000100083886099
30
0
40
0.415042608081
50
111.543213097
51
148.457566034
0
ARC
8
drawinglayer
10
0.14807674327
20
-0.256952208627
30
0
40
0.549839799938
50
120.366763142
51
148.17647294
0
ARC
8
drawinglayer
10
0.0806781473419
20
-0.122155016771
30
0
40
0.415042608081
50
124.262876149
51
148.538295788
0
ARC
8
drawinglayer
10
0.0469762155912
20
-0.122155016771
30
0
40
0.415042608081
50
111.543213097
51
148.457566034
0
ARC
8
drawinglayer
10
0.0469762155912
20
-0.0915872909267
30
0
40
0.415042608081
50
111.543213097
51
148.457566034
0
ARC
8
drawinglayer
10
0.0469762155912
20
-0.223250276877
30
0
40
0.516137868187
50
102.719663052
51
148.06365755
0
ARC
8
drawinglayer
10
0.0469762155912
20
-0.0335965802916
30
0
40
0.448739272258
50
107.589804311
51
148.325900333
0
ARC
8
drawinglayer
10
0.0469762155912
20
-0.0672985120423
30
0
40
0.482441204009
50
104.667719555
51
141.371224024
0
ARC
8
drawinglayer
10
0.0469762155912
20
-0.165259566242
30
0
40
0.549839799938
50
100.771606548
51
122.789687066
0
ARC
8
drawinglayer
10
0.0469762155912
20
-0.195822024513
30
0
40
0.549839799938
50
100.771606548
51
122.789687066
0
ARC
8
drawinglayer
10
0.0469762155912
20
-0.155851680948
30
0
40
0.448739272258
50
107.589804311
51
148.325900333
0
ARC
8
drawinglayer
10
0.0469762155912
20
-0.189553612699
30
0
40
0.482441204009
50
104.667719555
51
148.194578406
0
ARC
8
drawinglayer
10
0.0469762155912
20
-0.0304623743848
30
0
40
0.415042608081
50
111.543213097
51
148.457566034
0
ARC
8
drawinglayer
10
0.0469762155912
20
-0.0610248326558
30
0
40
0.415042608081
50
111.543213097
51
148.457566034
0
ARC
8
drawinglayer
10
0.14807674327
20
0.000100083886099
30
0
40
0.415042608081
50
140.935947987
51
148.698666674
0
ARC
8
drawinglayer
10
0.114380079093
20
0.000100083886099
30
0
40
0.415042608081
50
133.086426194
51
148.618681766
0
ARC
8
drawinglayer
10
0.181778675021
20
-0.0304623743848
30
0
40
0.415042608081
50
146.894709056
51
148.778307808
0
ARC
8
drawinglayer
10
0.181778675021
20
-0.0610248326558
30
0
40
0.415042608081
50
146.894709056
51
148.778307808
0
ARC
8
drawinglayer
10
0.14807674327
20
-0.122155016771
30
0
40
0.415042608081
50
140.935947987
51
148.698666674
0
ARC
8
drawinglayer
10
0.114380079093
20
-0.122155016771
30
0
40
0.415042608081
50
133.086426194
51
148.618681766
0
ARC
8
drawinglayer
10
0.181778675021
20
-0.223250276877
30
0
40
0.516137868187
50
129.190313187
51
148.386691155
0
ARC
8
drawinglayer
10
0.181778675021
20
-0.189553612699
30
0
40
0.482441204009
50
134.060454446
51
148.516867166
0
ARC
8
drawinglayer
10
0.0806781473419
20
-0.256952208627
30
0
40
0.549839799938
50
107.64710009
51
148.014612363
0
ARC
8
drawinglayer
10
0.114380079093
20
-0.256952208627
30
0
40
0.549839799938
50
114.465297852
51
148.095743187
0
ENDSEC
0
EOF
