0
SECTION
2
HEADER
9
$ACADVER
1
AC1006
9
$INSBASE
10
0.0
20
0.0
30
0.0
9
$EXTMIN
10
0.0
20
0.0
9
$EXTMAX
10
0.0
20
0.0
0
ENDSEC
0
SECTION
2
TABLES
0
TABLE
2
LTYPE
70
1
0
LTYPE
2
CONTINUOUS
70
64
3
Solid line
72
65
73
0
40
0.0
0
ENDTAB
0
TABLE
2
LAYER
70
1
0
LAYER
2
PYDXF
70
64
62
7
6
continuous
0
ENDTAB
0
TABLE
2
STYLE
70
1
0
STYLE
2
STANDARD
70
0
40
0
41
40
50
50
71
0
42
1
3
ARIAL.TTF
4

0
ENDTAB
0
TABLE
2
VIEW
70
0
0
ENDTAB
0
ENDSEC
0
SECTION
2
BLOCKS
0
ENDSEC
0
SECTION
2
ENTITIES
0
ARC
8
drawinglayer
10
0.0
20
1.22633765371
30
0
40
-0
50
30.0113188498
51
150.000025715
0
ARC
8
drawinglayer
10
0.0
20
0.891051844467
30
0
40
0.335285809239
50
90.9740282517
51
150.000025715
0
ARC
8
drawinglayer
10
0.0
20
0.555766035228
30
0
40
0.670571618478
50
90.9740282517
51
150.000025715
0
ARC
8
drawinglayer
10
0.0
20
0.220480225989
30
0
40
1.00585742772
50
90.9740282517
51
150.000025715
0
ARC
8
drawinglayer
10
0.0
20
-0.114797274842
30
0
40
1.34113492855
50
90.9740282517
51
150.000025715
0
ARC
8
drawinglayer
10
0.0
20
-0.320987038883
30
0
40
1.54732469259
50
90.9740282517
51
150.000025715
0
ARC
8
drawinglayer
10
0.0
20
-0.627509139249
30
0
40
0.924925224327
50
90.9740282517
51
150.000025715
0
ARC
8
drawinglayer
10
0.0
20
-0.164140910602
30
0
40
0.46155699568
50
90.9740282517
51
150.000025715
0
ARC
8
drawinglayer
10
0.0
20
-0.0722831505484
30
0
40
0.924925224327
50
90.9740282517
51
150.000025715
0
ARC
8
drawinglayer
10
0.0
20
-0.407568959787
30
0
40
0.924925224327
50
90.9740282517
51
127.000010128
0
ARC
8
drawinglayer
10
0.0
20
0.391085078099
30
0
40
0.46155699568
50
90.9740282517
51
150.000025715
0
ARC
8
drawinglayer
10
0.0
20
-1.54732469259
30
0
40
1.54732469259
50
90.9740282517
51
150.000025715
0
ARC
8
drawinglayer
10
0.0
20
-1.21203888335
30
0
40
1.21203888335
50
90.9740282517
51
150.000025715
0
ARC
8
drawinglayer
10
0.0
20
-0.876761382519
30
0
40
0.876761382519
50
90.9740282517
51
150.000025715
0
ARC
8
drawinglayer
10
0.0
20
-0.54147557328
30
0
40
0.54147557328
50
90.9740282517
51
150.000025715
0
ARC
8
drawinglayer
10
0.0
20
-0.206189764041
30
0
40
0.206189764041
50
90.9740282517
51
150.000025715
0
ARC
8
drawinglayer
10
0.0
20
0.0
30
0
40
-0
50
30.0113188498
51
150.000025715
0
ARC
8
drawinglayer
10
0.0
20
0.335285809239
30
0
40
-0
50
30.0113188498
51
150.000025715
0
ARC
8
drawinglayer
10
0.0
20
0.670571618478
30
0
40
-0
50
30.0113188498
51
150.000025715
0
ARC
8
drawinglayer
10
0.0
20
1.00585742772
30
0
40
-0
50
30.0113188498
51
150.000025715
0
ARC
8
drawinglayer
10
0.0
20
-0.656264539714
30
0
40
1.54732469259
50
90.9740282517
51
150.000025715
0
ARC
8
drawinglayer
10
0.0
20
-0.991550348953
30
0
40
1.54732469259
50
122.028340748
51
150.000025715
0
ARC
8
drawinglayer
10
0.0
20
-0.991550348953
30
0
40
1.54732469259
50
90.9740282517
51
103.000011301
0
ARC
8
drawinglayer
10
0.0
20
-1.32683615819
30
0
40
1.54732469259
50
90.9740282517
51
150.000025715
0
ARC
8
drawinglayer
10
0.0
20
0.171144898637
30
0
40
0.46155699568
50
90.9740282517
51
150.000025715
0
ARC
8
drawinglayer
10
0.335285809239
20
1.22633765371
30
0
40
-0
50
30.0113188498
51
150.000025715
0
ARC
8
drawinglayer
10
0.670571618478
20
1.22633765371
30
0
40
-0
50
30.0113188498
51
150.000025715
0
ARC
8
drawinglayer
10
1.00585742772
20
1.22633765371
30
0
40
-0
50
30.0113188498
51
150.000025715
0
ARC
8
drawinglayer
10
1.34113492855
20
1.22633765371
30
0
40
-0
50
30.0113188498
51
150.000025715
0
ARC
8
drawinglayer
10
1.67642073779
20
1.22633765371
30
0
40
-0
50
30.0113188498
51
150.000025715
0
ARC
8
drawinglayer
10
2.01170654703
20
1.22633765371
30
0
40
-0
50
30.0113188498
51
150.000025715
0
ARC
8
drawinglayer
10
2.34699235626
20
1.22633765371
30
0
40
-0
50
30.0113188498
51
150.000025715
0
ARC
8
drawinglayer
10
2.6822781655
20
1.22633765371
30
0
40
-0
50
30.0113188498
51
150.000025715
0
ARC
8
drawinglayer
10
2.93021768029
20
1.22633765371
30
0
40
-0
50
30.0113188498
51
150.000025715
0
ARC
8
drawinglayer
10
2.93021768029
20
0.891060152875
30
0
40
-0
50
30.0113188498
51
150.000025715
0
ARC
8
drawinglayer
10
2.93021768029
20
0.555774343636
30
0
40
-0
50
30.0113188498
51
150.000025715
0
ARC
8
drawinglayer
10
2.93021768029
20
0.220488534397
30
0
40
-0
50
30.0113188498
51
150.000025715
0
ARC
8
drawinglayer
10
2.93021768029
20
0.0
30
0
40
-0
50
30.0113188498
51
150.000025715
0
ARC
8
drawinglayer
10
2.59493187105
20
0.0
30
0
40
-0
50
30.0113188498
51
150.000025715
0
ARC
8
drawinglayer
10
2.25964606181
20
0.0
30
0
40
-0
50
30.0113188498
51
150.000025715
0
ARC
8
drawinglayer
10
1.92436025258
20
0.0
30
0
40
-0
50
30.0113188498
51
150.000025715
0
ARC
8
drawinglayer
10
1.58907444334
20
0.0
30
0
40
-0
50
30.0113188498
51
150.000025715
0
ARC
8
drawinglayer
10
1.2537886341
20
0.0
30
0
40
-0
50
30.0113188498
51
150.000025715
0
ARC
8
drawinglayer
10
0.918511133267
20
0.0
30
0
40
-0
50
30.0113188498
51
150.000025715
0
ARC
8
drawinglayer
10
0.583225324028
20
0.0
30
0
40
-0
50
30.0113188498
51
150.000025715
0
ARC
8
drawinglayer
10
0.247939514789
20
0.0
30
0
40
-0
50
30.0113188498
51
150.000025715
0
ARC
8
drawinglayer
10
-0.422632103689
20
-0.148438019276
30
0
40
0.807452642074
50
94.0107045659
51
150.000025715
0
ARC
8
drawinglayer
10
-0.422632103689
20
-0.201595214357
30
0
40
0.860609837155
50
94.0107045659
51
150.000025715
0
ARC
8
drawinglayer
10
-0.422632103689
20
-0.34621967431
30
0
40
0.860609837155
50
94.0107045659
51
150.000025715
0
ARC
8
drawinglayer
10
-0.422632103689
20
-0.394425058159
30
0
40
0.860609837155
50
94.0107045659
51
150.000025715
0
ARC
8
drawinglayer
10
-0.210011631771
20
-0.0421319375208
30
0
40
0.701146560319
50
76.0198297988
51
92.0000237755
0
ARC
8
drawinglayer
10
-0.210011631771
20
0.0110252575607
30
0
40
0.647989365238
50
74.9885057676
51
150.000025715
0
ARC
8
drawinglayer
10
-0.210011631771
20
-0.34621967431
30
0
40
0.860609837155
50
78.9992103335
51
92.0000237755
0
ARC
8
drawinglayer
10
-0.210011631771
20
-0.394425058159
30
0
40
0.860609837155
50
78.9992103335
51
92.0000237755
0
ARC
8
drawinglayer
10
-0.210011631771
20
-0.133599202393
30
0
40
0.647989365238
50
74.9885057676
51
150.000025715
0
ARC
8
drawinglayer
10
-0.210011631771
20
-0.181804586241
30
0
40
0.647989365238
50
74.9885057676
51
150.000025715
0
ARC
8
drawinglayer
10
-0.210011631771
20
-0.254420073114
30
0
40
0.72060485211
50
76.0198297988
51
92.0000237755
0
ARC
8
drawinglayer
10
-0.369474908608
20
0.0110252575607
30
0
40
0.647989365238
50
63.9877161011
51
150.000025715
0
ARC
8
drawinglayer
10
-0.422632103689
20
0.0110252575607
30
0
40
0.647989365238
50
61.0083355664
51
150.000025715
0
ARC
8
drawinglayer
10
-0.210011631771
20
-0.201595214357
30
0
40
0.860609837155
50
78.9992103335
51
92.0000237755
0
ARC
8
drawinglayer
10
-0.369474908608
20
-0.181804586241
30
0
40
0.647989365238
50
63.9877161011
51
150.000025715
0
ARC
8
drawinglayer
10
-0.422632103689
20
-0.181804586241
30
0
40
0.647989365238
50
61.0083355664
51
150.000025715
0
ARC
8
drawinglayer
10
-0.422632103689
20
-0.133599202393
30
0
40
0.647989365238
50
61.0083355664
51
150.000025715
0
ARC
8
drawinglayer
10
-0.422632103689
20
-0.341267863077
30
0
40
0.807452642074
50
94.0107045659
51
150.000025715
0
ARC
8
drawinglayer
10
-0.422632103689
20
-0.0421319375208
30
0
40
0.701146560319
50
94.9847328176
51
150.000025715
0
ARC
8
drawinglayer
10
-0.422632103689
20
-0.0952808241941
30
0
40
0.754295446992
50
94.0107045659
51
150.000025715
0
ARC
8
drawinglayer
10
-0.422632103689
20
-0.249800598205
30
0
40
0.860609837155
50
94.0107045659
51
150.000025715
0
ARC
8
drawinglayer
10
-0.422632103689
20
-0.298005982054
30
0
40
0.860609837155
50
94.0107045659
51
150.000025715
0
ARC
8
drawinglayer
10
-0.422632103689
20
-0.234961781323
30
0
40
0.701146560319
50
94.9847328176
51
150.000025715
0
ARC
8
drawinglayer
10
-0.422632103689
20
-0.288110667996
30
0
40
0.754295446992
50
94.0107045659
51
150.000025715
0
ARC
8
drawinglayer
10
-0.422632103689
20
-0.0371801262878
30
0
40
0.647989365238
50
61.0083355664
51
150.000025715
0
ARC
8
drawinglayer
10
-0.422632103689
20
-0.0853855101363
30
0
40
0.647989365238
50
61.0083355664
51
150.000025715
0
ARC
8
drawinglayer
10
-0.263168826853
20
0.0110252575607
30
0
40
0.647989365238
50
70.9778012017
51
150.000025715
0
ARC
8
drawinglayer
10
-0.316326021934
20
0.0110252575607
30
0
40
0.647989365238
50
67.998420667
51
150.000025715
0
ARC
8
drawinglayer
10
-0.210011631771
20
-0.0371801262878
30
0
40
0.647989365238
50
74.9885057676
51
150.000025715
0
ARC
8
drawinglayer
10
-0.210011631771
20
-0.0853855101363
30
0
40
0.647989365238
50
74.9885057676
51
150.000025715
0
ARC
8
drawinglayer
10
-0.263168826853
20
-0.181804586241
30
0
40
0.647989365238
50
70.9778012017
51
150.000025715
0
ARC
8
drawinglayer
10
-0.316326021934
20
-0.181804586241
30
0
40
0.647989365238
50
67.998420667
51
150.000025715
0
ARC
8
drawinglayer
10
-0.210011631771
20
-0.148438019276
30
0
40
0.807452642074
50
78.0251820818
51
92.0000237755
0
ARC
8
drawinglayer
10
-0.210011631771
20
-0.0952808241941
30
0
40
0.754295446992
50
76.9938580505
51
92.0000237755
0
ARC
8
drawinglayer
10
-0.210011631771
20
-0.341267863077
30
0
40
0.807452642074
50
78.0251820818
51
92.0000237755
0
ARC
8
drawinglayer
10
-0.210011631771
20
-0.288110667996
30
0
40
0.754295446992
50
76.9938580505
51
92.0000237755
0
ARC
8
drawinglayer
10
-0.210011631771
20
-0.249800598205
30
0
40
0.860609837155
50
78.9992103335
51
92.0000237755
0
ARC
8
drawinglayer
10
-0.210011631771
20
-0.298005982054
30
0
40
0.860609837155
50
78.9992103335
51
92.0000237755
0
ARC
8
drawinglayer
10
0.20804253905
20
-0.159297108674
30
0
40
0.814091060153
50
118.991664434
51
150.000025715
0
ARC
8
drawinglayer
10
0.20804253905
20
-0.212454303755
30
0
40
0.867248255234
50
116.012283899
51
150.000025715
0
ARC
8
drawinglayer
10
0.20804253905
20
-0.357070455301
30
0
40
0.867248255234
50
116.012283899
51
150.000025715
0
ARC
8
drawinglayer
10
0.20804253905
20
-0.405284147557
30
0
40
0.867248255234
50
116.012283899
51
150.000025715
0
ARC
8
drawinglayer
10
0.261199734131
20
0.000157859754071
30
0
40
0.654636091725
50
142.024567798
51
150.000025715
0
ARC
8
drawinglayer
10
0.20804253905
20
0.000157859754071
30
0
40
0.654636091725
50
136.008510949
51
150.000025715
0
ARC
8
drawinglayer
10
0.261199734131
20
-0.192671984048
30
0
40
0.654636091725
50
142.024567798
51
150.000025715
0
ARC
8
drawinglayer
10
0.20804253905
20
-0.192671984048
30
0
40
0.654636091725
50
136.008510949
51
150.000025715
0
ARC
8
drawinglayer
10
0.20804253905
20
-0.144458291791
30
0
40
0.654636091725
50
136.008510949
51
150.000025715
0
ARC
8
drawinglayer
10
0.20804253905
20
-0.352126952476
30
0
40
0.814091060153
50
118.991664434
51
150.000025715
0
ARC
8
drawinglayer
10
0.20804253905
20
-0.0529910269192
30
0
40
0.707784978398
50
129.018425848
51
150.000025715
0
ARC
8
drawinglayer
10
0.20804253905
20
-0.106148222001
30
0
40
0.76094217348
50
123.976397251
51
150.000025715
0
ARC
8
drawinglayer
10
0.20804253905
20
-0.260659687604
30
0
40
0.867248255234
50
116.012283899
51
150.000025715
0
ARC
8
drawinglayer
10
0.20804253905
20
-0.308865071452
30
0
40
0.867248255234
50
116.012283899
51
150.000025715
0
ARC
8
drawinglayer
10
0.20804253905
20
-0.245820870721
30
0
40
0.707784978398
50
129.018425848
51
150.000025715
0
ARC
8
drawinglayer
10
0.20804253905
20
-0.298978065803
30
0
40
0.76094217348
50
123.976397251
51
150.000025715
0
ARC
8
drawinglayer
10
0.20804253905
20
-0.0480475240944
30
0
40
0.654636091725
50
136.008510949
51
150.000025715
0
ARC
8
drawinglayer
10
0.20804253905
20
-0.0962529079428
30
0
40
0.654636091725
50
136.008510949
51
150.000025715
0
ARC
8
drawinglayer
10
0.367505815886
20
0.000157859754071
30
0
40
0.654636091725
50
149.98868115
51
150.000025715
0
ARC
8
drawinglayer
10
0.314356929212
20
0.000157859754071
30
0
40
0.654636091725
50
145.977976584
51
150.000025715
0
ARC
8
drawinglayer
10
0.367505815886
20
-0.192671984048
30
0
40
0.654636091725
50
149.98868115
51
150.000025715
0
ARC
8
drawinglayer
10
0.314356929212
20
-0.192671984048
30
0
40
0.654636091725
50
145.977976584
51
150.000025715
0
ENDSEC
0
EOF
