0
SECTION
2
HEADER
9
$ACADVER
1
AC1006
9
$INSBASE
10
0.0
20
0.0
30
0.0
9
$EXTMIN
10
0.0
20
0.0
9
$EXTMAX
10
0.0
20
0.0
0
ENDSEC
0
SECTION
2
TABLES
0
TABLE
2
LTYPE
70
1
0
LTYPE
2
CONTINUOUS
70
64
3
Solid line
72
65
73
0
40
0.0
0
ENDTAB
0
TABLE
2
LAYER
70
1
0
LAYER
2
PYDXF
70
64
62
7
6
continuous
0
ENDTAB
0
TABLE
2
STYLE
70
1
0
STYLE
2
STANDARD
70
0
40
0
41
40
50
50
71
0
42
1
3
ARIAL.TTF
4

0
ENDTAB
0
TABLE
2
VIEW
70
0
0
ENDTAB
0
ENDSEC
0
SECTION
2
BLOCKS
0
ENDSEC
0
SECTION
2
ENTITIES
0
ARC
8
drawinglayer
10
0.0
20
-2.07921368903
30
0
40
2.34412381015
50
90.9740282517
51
150.000025715
0
ARC
8
drawinglayer
10
0.0
20
-2.07921368903
30
0
40
2.34412381015
50
45.996841334
51
89.0000167602
0
ARC
8
drawinglayer
10
0.0
20
-2.07921368903
30
0
40
2.34412381015
50
30.0113188498
51
44.0000261221
0
ARC
8
drawinglayer
10
0.0
20
-2.34412381015
30
0
40
2.34412381015
50
90.9740282517
51
150.000025715
0
ARC
8
drawinglayer
10
1.35089878877
20
0.196239464016
30
0
40
1.1283111416
50
30.0113188498
51
89.0000167602
0
ARC
8
drawinglayer
10
1.35089878877
20
0.331325584236
30
0
40
0.993225021377
50
30.0113188498
51
150.000025715
0
ARC
8
drawinglayer
10
0.0
20
-0.884487084316
30
0
40
2.20903768993
50
90.9740282517
51
150.000025715
0
ARC
8
drawinglayer
10
0.0
20
-1.01957320454
30
0
40
2.34412381015
50
90.9740282517
51
150.000025715
0
ARC
8
drawinglayer
10
0.0
20
-0.728314900255
30
0
40
0.993225021377
50
30.0113188498
51
150.000025715
0
ARC
8
drawinglayer
10
0.0
20
-0.993225021377
30
0
40
0.993225021377
50
30.0113188498
51
150.000025715
0
ARC
8
drawinglayer
10
1.35089878877
20
-1.01957320454
30
0
40
2.34412381015
50
30.0113188498
51
89.0000167602
0
ARC
8
drawinglayer
10
1.35089878877
20
-2.07921368903
30
0
40
2.34412381015
50
136.008510949
51
150.000025715
0
ARC
8
drawinglayer
10
1.35089878877
20
-2.07921368903
30
0
40
2.34412381015
50
90.9740282517
51
134.000007398
0
ARC
8
drawinglayer
10
1.35089878877
20
-2.07921368903
30
0
40
2.34412381015
50
30.0113188498
51
89.0000167602
0
ARC
8
drawinglayer
10
1.35089878877
20
-2.34412381015
30
0
40
2.34412381015
50
30.0113188498
51
89.0000167602
0
ARC
8
drawinglayer
10
1.35089878877
20
-0.728314900255
30
0
40
0.993225021377
50
30.0113188498
51
150.000025715
0
ARC
8
drawinglayer
10
1.35089878877
20
-0.993225021377
30
0
40
0.993225021377
50
30.0113188498
51
150.000025715
0
ARC
8
drawinglayer
10
0.135086120221
20
0.331325584236
30
0
40
0.993225021377
50
30.0113188498
51
150.000025715
0
ARC
8
drawinglayer
10
0.0
20
0.331325584236
30
0
40
0.993225021377
50
30.0113188498
51
150.000025715
0
ARC
8
drawinglayer
10
0.0
20
-2.20903768993
30
0
40
2.20903768993
50
90.9740282517
51
150.000025715
0
ARC
8
drawinglayer
10
0.135086120221
20
-0.993225021377
30
0
40
0.993225021377
50
30.0113188498
51
150.000025715
0
ARC
8
drawinglayer
10
1.35089878877
20
-1.1283111416
30
0
40
1.1283111416
50
30.0113188498
51
89.0000167602
0
ARC
8
drawinglayer
10
0.0
20
-1.1520282651
30
0
40
2.34412381015
50
90.9740282517
51
150.000025715
0
ARC
8
drawinglayer
10
0.0
20
-1.1520282651
30
0
40
2.34412381015
50
45.996841334
51
89.0000167602
0
ARC
8
drawinglayer
10
0.0
20
-1.1520282651
30
0
40
2.34412381015
50
30.0113188498
51
44.0000261221
0
ARC
8
drawinglayer
10
0.0
20
-1.28448332566
30
0
40
2.34412381015
50
90.9740282517
51
150.000025715
0
ARC
8
drawinglayer
10
0.0
20
-1.28448332566
30
0
40
2.34412381015
50
45.996841334
51
89.0000167602
0
ARC
8
drawinglayer
10
0.0
20
-1.28448332566
30
0
40
2.34412381015
50
30.0113188498
51
44.0000261221
0
ARC
8
drawinglayer
10
0.0
20
-1.41693838622
30
0
40
2.34412381015
50
90.9740282517
51
150.000025715
0
ARC
8
drawinglayer
10
0.0
20
-1.41693838622
30
0
40
2.34412381015
50
45.996841334
51
89.0000167602
0
ARC
8
drawinglayer
10
0.0
20
-1.41693838622
30
0
40
2.34412381015
50
30.0113188498
51
44.0000261221
0
ARC
8
drawinglayer
10
0.0
20
-1.54939344678
30
0
40
2.34412381015
50
90.9740282517
51
150.000025715
0
ARC
8
drawinglayer
10
0.0
20
-1.54939344678
30
0
40
2.34412381015
50
45.996841334
51
89.0000167602
0
ARC
8
drawinglayer
10
0.0
20
-1.54939344678
30
0
40
2.34412381015
50
30.0113188498
51
44.0000261221
0
ARC
8
drawinglayer
10
0.0
20
-1.68184850734
30
0
40
2.34412381015
50
90.9740282517
51
150.000025715
0
ARC
8
drawinglayer
10
0.0
20
-1.68184850734
30
0
40
2.34412381015
50
45.996841334
51
89.0000167602
0
ARC
8
drawinglayer
10
0.0
20
-1.68184850734
30
0
40
2.34412381015
50
30.0113188498
51
44.0000261221
0
ARC
8
drawinglayer
10
0.0
20
-1.8143035679
30
0
40
2.34412381015
50
90.9740282517
51
150.000025715
0
ARC
8
drawinglayer
10
0.0
20
-1.8143035679
30
0
40
2.34412381015
50
45.996841334
51
89.0000167602
0
ARC
8
drawinglayer
10
0.0
20
-1.8143035679
30
0
40
2.34412381015
50
30.0113188498
51
44.0000261221
0
ARC
8
drawinglayer
10
0.0
20
-1.94675862847
30
0
40
2.34412381015
50
90.9740282517
51
150.000025715
0
ARC
8
drawinglayer
10
0.0
20
-1.94675862847
30
0
40
2.34412381015
50
45.996841334
51
89.0000167602
0
ARC
8
drawinglayer
10
0.0
20
-1.94675862847
30
0
40
2.34412381015
50
30.0113188498
51
44.0000261221
0
ARC
8
drawinglayer
10
1.35089878877
20
-0.884487084316
30
0
40
2.20903768993
50
30.0113188498
51
89.0000167602
0
ARC
8
drawinglayer
10
1.35089878877
20
-0.749400964095
30
0
40
2.07395156971
50
30.0113188498
51
89.0000167602
0
ARC
8
drawinglayer
10
1.35089878877
20
-0.614314843875
30
0
40
1.93886544949
50
30.0113188498
51
89.0000167602
0
ARC
8
drawinglayer
10
1.35089878877
20
-0.479228723654
30
0
40
1.80377932927
50
30.0113188498
51
89.0000167602
0
ARC
8
drawinglayer
10
1.35089878877
20
-0.344142603434
30
0
40
1.66869320905
50
30.0113188498
51
89.0000167602
0
ARC
8
drawinglayer
10
1.35089878877
20
-0.209056483213
30
0
40
1.53360708883
50
30.0113188498
51
89.0000167602
0
ARC
8
drawinglayer
10
1.35089878877
20
-0.0739327764257
30
0
40
1.39848338204
50
30.0113188498
51
89.0000167602
0
ARC
8
drawinglayer
10
1.35089878877
20
0.0611533437949
30
0
40
1.26339726182
50
30.0113188498
51
89.0000167602
0
ARC
8
drawinglayer
10
0.0
20
0.196239464016
30
0
40
1.1283111416
50
90.9740282517
51
150.000025715
0
ARC
8
drawinglayer
10
0.0
20
0.0611533437949
30
0
40
1.26339726182
50
90.9740282517
51
150.000025715
0
ARC
8
drawinglayer
10
0.0
20
-0.0739327764257
30
0
40
1.39848338204
50
90.9740282517
51
150.000025715
0
ARC
8
drawinglayer
10
0.0
20
-0.209056483213
30
0
40
1.53360708883
50
90.9740282517
51
150.000025715
0
ARC
8
drawinglayer
10
0.0
20
-0.344142603434
30
0
40
1.66869320905
50
90.9740282517
51
150.000025715
0
ARC
8
drawinglayer
10
0.0
20
-0.479228723654
30
0
40
1.80377932927
50
90.9740282517
51
150.000025715
0
ARC
8
drawinglayer
10
0.0
20
-0.614314843875
30
0
40
1.93886544949
50
90.9740282517
51
150.000025715
0
ARC
8
drawinglayer
10
0.0
20
-0.749400964095
30
0
40
2.07395156971
50
90.9740282517
51
150.000025715
0
ARC
8
drawinglayer
10
0.0
20
0.198870523675
30
0
40
0.993225021377
50
30.0113188498
51
150.000025715
0
ARC
8
drawinglayer
10
0.0
20
0.0664154631135
30
0
40
0.993225021377
50
30.0113188498
51
150.000025715
0
ARC
8
drawinglayer
10
0.0
20
-0.0660395974479
30
0
40
0.993225021377
50
30.0113188498
51
150.000025715
0
ARC
8
drawinglayer
10
0.0
20
-0.198494658009
30
0
40
0.993225021377
50
30.0113188498
51
150.000025715
0
ARC
8
drawinglayer
10
0.0
20
-0.330949718571
30
0
40
0.993225021377
50
30.0113188498
51
150.000025715
0
ARC
8
drawinglayer
10
0.0
20
-0.463404779132
30
0
40
0.993225021377
50
30.0113188498
51
150.000025715
0
ARC
8
drawinglayer
10
0.0
20
-0.595859839693
30
0
40
0.993225021377
50
30.0113188498
51
150.000025715
0
ARC
8
drawinglayer
10
1.35089878877
20
-1.1520282651
30
0
40
2.34412381015
50
136.008510949
51
150.000025715
0
ARC
8
drawinglayer
10
1.35089878877
20
-1.1520282651
30
0
40
2.34412381015
50
90.9740282517
51
134.000007398
0
ARC
8
drawinglayer
10
1.35089878877
20
-1.1520282651
30
0
40
2.34412381015
50
30.0113188498
51
89.0000167602
0
ARC
8
drawinglayer
10
1.35089878877
20
-1.28448332566
30
0
40
2.34412381015
50
136.008510949
51
150.000025715
0
ARC
8
drawinglayer
10
1.35089878877
20
-1.28448332566
30
0
40
2.34412381015
50
90.9740282517
51
134.000007398
0
ARC
8
drawinglayer
10
1.35089878877
20
-1.28448332566
30
0
40
2.34412381015
50
30.0113188498
51
89.0000167602
0
ARC
8
drawinglayer
10
1.35089878877
20
-1.41693838622
30
0
40
2.34412381015
50
136.008510949
51
150.000025715
0
ARC
8
drawinglayer
10
1.35089878877
20
-1.41693838622
30
0
40
2.34412381015
50
90.9740282517
51
134.000007398
0
ARC
8
drawinglayer
10
1.35089878877
20
-1.41693838622
30
0
40
2.34412381015
50
30.0113188498
51
89.0000167602
0
ARC
8
drawinglayer
10
1.35089878877
20
-1.54939344678
30
0
40
2.34412381015
50
136.008510949
51
150.000025715
0
ARC
8
drawinglayer
10
1.35089878877
20
-1.54939344678
30
0
40
2.34412381015
50
90.9740282517
51
134.000007398
0
ARC
8
drawinglayer
10
1.35089878877
20
-1.54939344678
30
0
40
2.34412381015
50
30.0113188498
51
89.0000167602
0
ARC
8
drawinglayer
10
1.35089878877
20
-1.68184850734
30
0
40
2.34412381015
50
136.008510949
51
150.000025715
0
ARC
8
drawinglayer
10
1.35089878877
20
-1.68184850734
30
0
40
2.34412381015
50
90.9740282517
51
134.000007398
0
ARC
8
drawinglayer
10
1.35089878877
20
-1.68184850734
30
0
40
2.34412381015
50
30.0113188498
51
89.0000167602
0
ARC
8
drawinglayer
10
1.35089878877
20
-1.8143035679
30
0
40
2.34412381015
50
136.008510949
51
150.000025715
0
ARC
8
drawinglayer
10
1.35089878877
20
-1.8143035679
30
0
40
2.34412381015
50
90.9740282517
51
134.000007398
0
ARC
8
drawinglayer
10
1.35089878877
20
-1.8143035679
30
0
40
2.34412381015
50
30.0113188498
51
89.0000167602
0
ARC
8
drawinglayer
10
1.35089878877
20
-1.94675862847
30
0
40
2.34412381015
50
136.008510949
51
150.000025715
0
ARC
8
drawinglayer
10
1.35089878877
20
-1.94675862847
30
0
40
2.34412381015
50
90.9740282517
51
134.000007398
0
ARC
8
drawinglayer
10
1.35089878877
20
-1.94675862847
30
0
40
2.34412381015
50
30.0113188498
51
89.0000167602
0
ARC
8
drawinglayer
10
1.35089878877
20
0.198870523675
30
0
40
0.993225021377
50
30.0113188498
51
150.000025715
0
ARC
8
drawinglayer
10
1.35089878877
20
0.0664154631135
30
0
40
0.993225021377
50
30.0113188498
51
150.000025715
0
ARC
8
drawinglayer
10
1.35089878877
20
-0.0660395974479
30
0
40
0.993225021377
50
30.0113188498
51
150.000025715
0
ARC
8
drawinglayer
10
1.35089878877
20
-0.198494658009
30
0
40
0.993225021377
50
30.0113188498
51
150.000025715
0
ARC
8
drawinglayer
10
1.35089878877
20
-0.330949718571
30
0
40
0.993225021377
50
30.0113188498
51
150.000025715
0
ARC
8
drawinglayer
10
1.35089878877
20
-0.463404779132
30
0
40
0.993225021377
50
30.0113188498
51
150.000025715
0
ARC
8
drawinglayer
10
1.35089878877
20
-0.595859839693
30
0
40
0.993225021377
50
30.0113188498
51
150.000025715
0
ARC
8
drawinglayer
10
1.21581266855
20
0.331325584236
30
0
40
0.993225021377
50
30.0113188498
51
150.000025715
0
ARC
8
drawinglayer
10
1.08072654833
20
0.331325584236
30
0
40
0.993225021377
50
30.0113188498
51
150.000025715
0
ARC
8
drawinglayer
10
0.945640428111
20
0.331325584236
30
0
40
0.993225021377
50
30.0113188498
51
150.000025715
0
ARC
8
drawinglayer
10
0.81055430789
20
0.331325584236
30
0
40
0.993225021377
50
30.0113188498
51
150.000025715
0
ARC
8
drawinglayer
10
0.675430601103
20
0.331325584236
30
0
40
0.993225021377
50
30.0113188498
51
150.000025715
0
ARC
8
drawinglayer
10
0.540344480883
20
0.331325584236
30
0
40
0.993225021377
50
30.0113188498
51
150.000025715
0
ARC
8
drawinglayer
10
0.405258360662
20
0.331325584236
30
0
40
0.993225021377
50
30.0113188498
51
150.000025715
0
ARC
8
drawinglayer
10
0.270172240441
20
0.331325584236
30
0
40
0.993225021377
50
30.0113188498
51
150.000025715
0
ARC
8
drawinglayer
10
0.0
20
-1.1283111416
30
0
40
1.1283111416
50
90.9740282517
51
150.000025715
0
ARC
8
drawinglayer
10
0.0
20
-1.26339726182
30
0
40
1.26339726182
50
90.9740282517
51
150.000025715
0
ARC
8
drawinglayer
10
0.0
20
-1.39848338204
30
0
40
1.39848338204
50
90.9740282517
51
150.000025715
0
ARC
8
drawinglayer
10
0.0
20
-1.53360708883
30
0
40
1.53360708883
50
90.9740282517
51
150.000025715
0
ARC
8
drawinglayer
10
0.0
20
-1.66869320905
30
0
40
1.66869320905
50
90.9740282517
51
150.000025715
0
ARC
8
drawinglayer
10
0.0
20
-1.80377932927
30
0
40
1.80377932927
50
90.9740282517
51
150.000025715
0
ARC
8
drawinglayer
10
0.0
20
-1.93886544949
30
0
40
1.93886544949
50
90.9740282517
51
150.000025715
0
ARC
8
drawinglayer
10
0.0
20
-2.07395156971
30
0
40
2.07395156971
50
90.9740282517
51
150.000025715
0
ARC
8
drawinglayer
10
1.21581266855
20
-0.993225021377
30
0
40
0.993225021377
50
30.0113188498
51
150.000025715
0
ARC
8
drawinglayer
10
1.08072654833
20
-0.993225021377
30
0
40
0.993225021377
50
30.0113188498
51
150.000025715
0
ARC
8
drawinglayer
10
0.945640428111
20
-0.993225021377
30
0
40
0.993225021377
50
30.0113188498
51
150.000025715
0
ARC
8
drawinglayer
10
0.81055430789
20
-0.993225021377
30
0
40
0.993225021377
50
30.0113188498
51
150.000025715
0
ARC
8
drawinglayer
10
0.675430601103
20
-0.993225021377
30
0
40
0.993225021377
50
30.0113188498
51
150.000025715
0
ARC
8
drawinglayer
10
0.540344480883
20
-0.993225021377
30
0
40
0.993225021377
50
30.0113188498
51
150.000025715
0
ARC
8
drawinglayer
10
0.405258360662
20
-0.993225021377
30
0
40
0.993225021377
50
30.0113188498
51
150.000025715
0
ARC
8
drawinglayer
10
0.270172240441
20
-0.993225021377
30
0
40
0.993225021377
50
30.0113188498
51
150.000025715
0
ARC
8
drawinglayer
10
1.35089878877
20
-2.20903768993
30
0
40
2.20903768993
50
30.0113188498
51
89.0000167602
0
ARC
8
drawinglayer
10
1.35089878877
20
-2.07395156971
30
0
40
2.07395156971
50
30.0113188498
51
89.0000167602
0
ARC
8
drawinglayer
10
1.35089878877
20
-1.93886544949
30
0
40
1.93886544949
50
30.0113188498
51
89.0000167602
0
ARC
8
drawinglayer
10
1.35089878877
20
-1.80377932927
30
0
40
1.80377932927
50
30.0113188498
51
89.0000167602
0
ARC
8
drawinglayer
10
1.35089878877
20
-1.66869320905
30
0
40
1.66869320905
50
30.0113188498
51
89.0000167602
0
ARC
8
drawinglayer
10
1.35089878877
20
-1.53360708883
30
0
40
1.53360708883
50
30.0113188498
51
89.0000167602
0
ARC
8
drawinglayer
10
1.35089878877
20
-1.39848338204
30
0
40
1.39848338204
50
30.0113188498
51
89.0000167602
0
ARC
8
drawinglayer
10
1.35089878877
20
-1.26339726182
30
0
40
1.26339726182
50
30.0113188498
51
89.0000167602
0
ENDSEC
0
EOF
