0
SECTION
2
HEADER
9
$ACADVER
1
AC1006
9
$INSBASE
10
0.0
20
0.0
30
0.0
9
$EXTMIN
10
0.0
20
0.0
9
$EXTMAX
10
0.0
20
0.0
0
ENDSEC
0
SECTION
2
TABLES
0
TABLE
2
LTYPE
70
1
0
LTYPE
2
CONTINUOUS
70
64
3
Solid line
72
65
73
0
40
0.0
0
ENDTAB
0
TABLE
2
LAYER
70
1
0
LAYER
2
PYDXF
70
64
62
7
6
continuous
0
ENDTAB
0
TABLE
2
STYLE
70
1
0
STYLE
2
STANDARD
70
0
40
0
41
40
50
50
71
0
42
1
3
ARIAL.TTF
4

0
ENDTAB
0
TABLE
2
VIEW
70
0
0
ENDTAB
0
ENDSEC
0
SECTION
2
BLOCKS
0
ENDSEC
0
SECTION
2
ENTITIES
0
ARC
8
drawinglayer
10
-0.0241343599442
20
0.64935386555
30
0
40
-0.985771534063
50
30.0113188498
51
150.000025715
0
ARC
8
drawinglayer
10
-0.0241343599442
20
0.540186410914
30
0
40
-0.937750461525
50
30.0113188498
51
150.000025715
0
ARC
8
drawinglayer
10
-0.0912242784457
20
1.47100274663
30
0
40
-0.57346120942
50
30.0113188498
51
150.000025715
0
ARC
8
drawinglayer
10
-0.034513035256
20
1.4612544464
30
0
40
-0.528051690756
50
30.0113188498
51
150.000025715
0
ARC
8
drawinglayer
10
0.0325543698501
20
1.64444594534
30
0
40
-1.38245756225
50
30.0113188498
51
150.000025715
0
ARC
8
drawinglayer
10
-0.0241343599442
20
1.65419424558
30
0
40
-1.42786708091
50
30.0113188498
51
150.000025715
0
ARC
8
drawinglayer
10
0.542797964789
20
0.552028456932
30
0
40
-0.531788914404
50
30.0113188498
51
150.000025715
0
ARC
8
drawinglayer
10
0.542797964789
20
0.442838488901
30
0
40
-0.48374532847
50
30.0113188498
51
150.000025715
0
ARC
8
drawinglayer
10
-0.543743527399
20
1.56817056148
30
0
40
-1.02663334684
50
30.0113188498
51
150.000025715
0
ARC
8
drawinglayer
10
-0.601467873385
20
1.55860236841
30
0
40
-0.982034310415
50
30.0113188498
51
150.000025715
0
ARC
8
drawinglayer
10
-0.601467873385
20
0.553784501779
30
0
40
-0.53996127696
50
30.0113188498
51
150.000025715
0
ARC
8
drawinglayer
10
-0.601467873385
20
0.444594533748
30
0
40
-0.491917691026
50
30.0113188498
51
150.000025715
0
ARC
8
drawinglayer
10
-0.034513035256
20
0.45645909316
30
0
40
-0.0859786573011
50
30.0113188498
51
150.000025715
0
ARC
8
drawinglayer
10
-0.034513035256
20
0.347269125129
30
0
40
-0.0379350713675
50
30.0113188498
51
150.000025715
0
ARC
8
drawinglayer
10
0.485073618803
20
1.54727813049
30
0
40
-0.929285424828
50
30.0113188498
51
150.000025715
0
ARC
8
drawinglayer
10
0.542797964789
20
1.55684632356
30
0
40
-0.973884461254
50
30.0113188498
51
150.000025715
0
ARC
8
drawinglayer
10
0.0325543698501
20
0.530438110676
30
0
40
-0.892340942861
50
30.0113188498
51
150.000025715
0
ARC
8
drawinglayer
10
0.485073618803
20
0.433292809221
30
0
40
-0.439168805439
50
30.0113188498
51
150.000025715
0
ARC
8
drawinglayer
10
-0.0912242784457
20
0.356994911973
30
0
40
-0.0833220766356
50
30.0113188498
51
150.000025715
0
ARC
8
drawinglayer
10
-0.543743527399
20
0.454140213427
30
0
40
-0.536494214057
50
30.0113188498
51
150.000025715
0
ARC
8
drawinglayer
10
-0.0241343599442
20
1.54279796479
30
0
40
-1.37885541897
50
30.0113188498
51
150.000025715
0
ARC
8
drawinglayer
10
-0.0241343599442
20
1.43137917061
30
0
40
-1.32984375704
50
30.0113188498
51
150.000025715
0
ARC
8
drawinglayer
10
-0.0241343599442
20
1.31998288982
30
0
40
-1.2808320951
50
30.0113188498
51
150.000025715
0
ARC
8
drawinglayer
10
-0.0241343599442
20
1.20858660903
30
0
40
-1.23182043316
50
30.0113188498
51
150.000025715
0
ARC
8
drawinglayer
10
-0.0241343599442
20
1.09719032825
30
0
40
-1.18280877122
50
30.0113188498
51
150.000025715
0
ARC
8
drawinglayer
10
-0.0241343599442
20
0.985794047458
30
0
40
-1.13379710928
50
30.0113188498
51
150.000025715
0
ARC
8
drawinglayer
10
-0.0241343599442
20
0.874397766671
30
0
40
-1.08478544734
50
30.0113188498
51
150.000025715
0
ARC
8
drawinglayer
10
-0.0241343599442
20
0.763001485884
30
0
40
-1.0357737854
50
30.0113188498
51
150.000025715
0
ARC
8
drawinglayer
10
-0.54477914359
20
1.54887658157
30
0
40
-0.936647305147
50
30.0113188498
51
150.000025715
0
ARC
8
drawinglayer
10
-0.488067900401
20
1.53912828133
30
0
40
-0.891237786483
50
30.0113188498
51
150.000025715
0
ARC
8
drawinglayer
10
-0.431379170607
20
1.52940249448
30
0
40
-0.845850781215
50
30.0113188498
51
150.000025715
0
ARC
8
drawinglayer
10
-0.374690440812
20
1.51965419425
30
0
40
-0.800441262551
50
30.0113188498
51
150.000025715
0
ARC
8
drawinglayer
10
-0.318001711018
20
1.5099284074
30
0
40
-0.755054257283
50
30.0113188498
51
150.000025715
0
ARC
8
drawinglayer
10
-0.261290467828
20
1.50020262056
30
0
40
-0.709644738619
50
30.0113188498
51
150.000025715
0
ARC
8
drawinglayer
10
-0.204601738034
20
1.49047683372
30
0
40
-0.664257733351
50
30.0113188498
51
150.000025715
0
ARC
8
drawinglayer
10
-0.14791300824
20
1.48072853348
30
0
40
-0.618848214688
50
30.0113188498
51
150.000025715
0
ARC
8
drawinglayer
10
0.486109234995
20
1.56657211041
30
0
40
-1.01927146652
50
30.0113188498
51
150.000025715
0
ARC
8
drawinglayer
10
0.429420505201
20
1.57632041064
30
0
40
-1.06468098519
50
30.0113188498
51
150.000025715
0
ARC
8
drawinglayer
10
0.372709262011
20
1.58604619749
30
0
40
-1.11006799045
50
30.0113188498
51
150.000025715
0
ARC
8
drawinglayer
10
0.316020532217
20
1.59579449773
30
0
40
-1.15547750912
50
30.0113188498
51
150.000025715
0
ARC
8
drawinglayer
10
0.259331802422
20
1.60552028457
30
0
40
-1.20086451439
50
30.0113188498
51
150.000025715
0
ARC
8
drawinglayer
10
0.202643072628
20
1.61524607141
30
0
40
-1.24627403305
50
30.0113188498
51
150.000025715
0
ARC
8
drawinglayer
10
0.145931829439
20
1.62497185826
30
0
40
-1.29166103832
50
30.0113188498
51
150.000025715
0
ARC
8
drawinglayer
10
0.0892430996443
20
1.63472015849
30
0
40
-1.33707055698
50
30.0113188498
51
150.000025715
0
ARC
8
drawinglayer
10
0.542797964789
20
1.44545004278
30
0
40
-0.924872799316
50
30.0113188498
51
150.000025715
0
ARC
8
drawinglayer
10
0.542797964789
20
1.33405376199
30
0
40
-0.875861137377
50
30.0113188498
51
150.000025715
0
ARC
8
drawinglayer
10
0.542797964789
20
1.2226574812
30
0
40
-0.826849475438
50
30.0113188498
51
150.000025715
0
ARC
8
drawinglayer
10
0.542797964789
20
1.11126120041
30
0
40
-0.777837813499
50
30.0113188498
51
150.000025715
0
ARC
8
drawinglayer
10
0.542797964789
20
0.999864919627
30
0
40
-0.72882615156
50
30.0113188498
51
150.000025715
0
ARC
8
drawinglayer
10
0.542797964789
20
0.88846863884
30
0
40
-0.679814489621
50
30.0113188498
51
150.000025715
0
ARC
8
drawinglayer
10
0.542797964789
20
0.777049844658
30
0
40
-0.630802827682
50
30.0113188498
51
150.000025715
0
ARC
8
drawinglayer
10
0.542797964789
20
0.665653563871
30
0
40
-0.581791165744
50
30.0113188498
51
150.000025715
0
ARC
8
drawinglayer
10
-0.0818812193255
20
1.6446260525
30
0
40
-1.38329055788
50
30.0113188498
51
150.000025715
0
ARC
8
drawinglayer
10
-0.139605565311
20
1.63505785943
30
0
40
-1.33869152146
50
30.0113188498
51
150.000025715
0
ARC
8
drawinglayer
10
-0.197329911297
20
1.62551217975
30
0
40
-1.29411499842
50
30.0113188498
51
150.000025715
0
ARC
8
drawinglayer
10
-0.255076770679
20
1.61594398667
30
0
40
-1.24953847539
50
30.0113188498
51
150.000025715
0
ARC
8
drawinglayer
10
-0.312801116664
20
1.60639830699
30
0
40
-1.20496195236
50
30.0113188498
51
150.000025715
0
ARC
8
drawinglayer
10
-0.37052546265
20
1.59683011392
30
0
40
-1.16036291593
50
30.0113188498
51
150.000025715
0
ARC
8
drawinglayer
10
-0.428272322032
20
1.58728443424
30
0
40
-1.1157863929
50
30.0113188498
51
150.000025715
0
ARC
8
drawinglayer
10
-0.485996668017
20
1.57771624116
30
0
40
-1.07120986987
50
30.0113188498
51
150.000025715
0
ARC
8
drawinglayer
10
-0.601467873385
20
1.44718357423
30
0
40
-0.933022648476
50
30.0113188498
51
150.000025715
0
ARC
8
drawinglayer
10
-0.601467873385
20
1.33578729344
30
0
40
-0.884010986537
50
30.0113188498
51
150.000025715
0
ARC
8
drawinglayer
10
-0.601467873385
20
1.22439101265
30
0
40
-0.834999324598
50
30.0113188498
51
150.000025715
0
ARC
8
drawinglayer
10
-0.601467873385
20
1.11299473187
30
0
40
-0.785987662659
50
30.0113188498
51
150.000025715
0
ARC
8
drawinglayer
10
-0.601467873385
20
1.00159845108
30
0
40
-0.73697600072
50
30.0113188498
51
150.000025715
0
ARC
8
drawinglayer
10
-0.601467873385
20
0.890202170291
30
0
40
-0.687964338782
50
30.0113188498
51
150.000025715
0
ARC
8
drawinglayer
10
-0.601467873385
20
0.778805889504
30
0
40
-0.638952676843
50
30.0113188498
51
150.000025715
0
ARC
8
drawinglayer
10
-0.601467873385
20
0.667387095322
30
0
40
-0.589941014904
50
30.0113188498
51
150.000025715
0
ARC
8
drawinglayer
10
-0.034513035256
20
1.34985816561
30
0
40
-0.479040028817
50
30.0113188498
51
150.000025715
0
ARC
8
drawinglayer
10
-0.034513035256
20
1.23846188482
30
0
40
-0.430028366878
50
30.0113188498
51
150.000025715
0
ARC
8
drawinglayer
10
-0.034513035256
20
1.12706560403
30
0
40
-0.381016704939
50
30.0113188498
51
150.000025715
0
ARC
8
drawinglayer
10
-0.034513035256
20
1.01566932325
30
0
40
-0.332005043001
50
30.0113188498
51
150.000025715
0
ARC
8
drawinglayer
10
-0.034513035256
20
0.90427304246
30
0
40
-0.282993381062
50
30.0113188498
51
150.000025715
0
ARC
8
drawinglayer
10
-0.034513035256
20
0.792876761673
30
0
40
-0.233981719123
50
30.0113188498
51
150.000025715
0
ARC
8
drawinglayer
10
-0.034513035256
20
0.681457967491
30
0
40
-0.184970057184
50
30.0113188498
51
150.000025715
0
ARC
8
drawinglayer
10
-0.034513035256
20
0.570061686704
30
0
40
-0.135958395245
50
30.0113188498
51
150.000025715
0
ARC
8
drawinglayer
10
0.0232113107299
20
1.47082263947
30
0
40
-0.572628213787
50
30.0113188498
51
150.000025715
0
ARC
8
drawinglayer
10
0.0809356567157
20
1.48039083255
30
0
40
-0.617227250214
50
30.0113188498
51
150.000025715
0
ARC
8
drawinglayer
10
0.138682516097
20
1.48993651222
30
0
40
-0.661803773245
50
30.0113188498
51
150.000025715
0
ARC
8
drawinglayer
10
0.196406862083
20
1.4995047053
30
0
40
-0.706380296276
50
30.0113188498
51
150.000025715
0
ARC
8
drawinglayer
10
0.254131208069
20
1.50905038498
30
0
40
-0.750956819307
50
30.0113188498
51
150.000025715
0
ARC
8
drawinglayer
10
0.31187806745
20
1.51861857805
30
0
40
-0.795555855734
50
30.0113188498
51
150.000025715
0
ARC
8
drawinglayer
10
0.369602413436
20
1.52818677113
30
0
40
-0.840132378765
50
30.0113188498
51
150.000025715
0
ARC
8
drawinglayer
10
0.427326759422
20
1.53773245081
30
0
40
-0.884708901797
50
30.0113188498
51
150.000025715
0
ARC
8
drawinglayer
10
0.486109234995
20
0.45258678914
30
0
40
-0.529154847134
50
30.0113188498
51
150.000025715
0
ARC
8
drawinglayer
10
0.429420505201
20
0.462312575983
30
0
40
-0.574541852402
50
30.0113188498
51
150.000025715
0
ARC
8
drawinglayer
10
0.372709262011
20
0.472038362826
30
0
40
-0.619951371066
50
30.0113188498
51
150.000025715
0
ARC
8
drawinglayer
10
0.316020532217
20
0.481786663065
30
0
40
-0.665360889729
50
30.0113188498
51
150.000025715
0
ARC
8
drawinglayer
10
0.259331802422
20
0.491512449908
30
0
40
-0.710747894998
50
30.0113188498
51
150.000025715
0
ARC
8
drawinglayer
10
0.202643072628
20
0.501260750146
30
0
40
-0.756157413661
50
30.0113188498
51
150.000025715
0
ARC
8
drawinglayer
10
0.145931829439
20
0.51098653699
30
0
40
-0.801544418929
50
30.0113188498
51
150.000025715
0
ARC
8
drawinglayer
10
0.0892430996443
20
0.520734837228
30
0
40
-0.846953937593
50
30.0113188498
51
150.000025715
0
ARC
8
drawinglayer
10
0.0232113107299
20
0.356814804809
30
0
40
-0.0825115943987
50
30.0113188498
51
150.000025715
0
ARC
8
drawinglayer
10
0.0809356567157
20
0.366382997884
30
0
40
-0.12708811743
50
30.0113188498
51
150.000025715
0
ARC
8
drawinglayer
10
0.138682516097
20
0.375951190959
30
0
40
-0.171687153857
50
50.0075458999
51
150.000025715
0
ARC
8
drawinglayer
10
0.138682516097
20
0.375951190959
30
0
40
-0.171687153857
50
30.0113188498
51
48.0000163773
0
ARC
8
drawinglayer
10
0.196406862083
20
0.385496870638
30
0
40
-0.216263676888
50
30.0113188498
51
150.000025715
0
ARC
8
drawinglayer
10
0.254131208069
20
0.395042550317
30
0
40
-0.260840199919
50
30.0113188498
51
150.000025715
0
ARC
8
drawinglayer
10
0.31187806745
20
0.404610743392
30
0
40
-0.30541672295
50
30.0113188498
51
150.000025715
0
ARC
8
drawinglayer
10
0.369602413436
20
0.414178936467
30
0
40
-0.350015759377
50
30.0113188498
51
150.000025715
0
ARC
8
drawinglayer
10
0.427326759422
20
0.423724616147
30
0
40
-0.394592282408
50
30.0113188498
51
150.000025715
0
ARC
8
drawinglayer
10
-0.54477914359
20
0.434868746904
30
0
40
-0.446530685758
50
30.0113188498
51
150.000025715
0
ARC
8
drawinglayer
10
-0.488067900401
20
0.425120446666
30
0
40
-0.401121167094
50
30.0113188498
51
150.000025715
0
ARC
8
drawinglayer
10
-0.431379170607
20
0.415417173218
30
0
40
-0.355734161826
50
30.0113188498
51
150.000025715
0
ARC
8
drawinglayer
10
-0.374690440812
20
0.405668872979
30
0
40
-0.310324643163
50
30.0113188498
51
150.000025715
0
ARC
8
drawinglayer
10
-0.318001711018
20
0.395943086136
30
0
40
-0.264937637895
50
30.0113188498
51
150.000025715
0
ARC
8
drawinglayer
10
-0.261290467828
20
0.386194785898
30
0
40
-0.219528119231
50
30.0113188498
51
150.000025715
0
ARC
8
drawinglayer
10
-0.204601738034
20
0.376468999054
30
0
40
-0.174141113963
50
30.0113188498
51
150.000025715
0
ARC
8
drawinglayer
10
-0.14791300824
20
0.366743212211
30
0
40
-0.128731595299
50
30.0113188498
51
150.000025715
0
ARC
8
drawinglayer
10
-0.0818812193255
20
0.53061821784
30
0
40
-0.893151425098
50
30.0113188498
51
150.000025715
0
ARC
8
drawinglayer
10
-0.139605565311
20
0.52107253816
30
0
40
-0.848574902067
50
30.0113188498
51
150.000025715
0
ARC
8
drawinglayer
10
-0.197329911297
20
0.511504345085
30
0
40
-0.803998379036
50
30.0113188498
51
150.000025715
0
ARC
8
drawinglayer
10
-0.255076770679
20
0.501958665406
30
0
40
-0.759421856004
50
30.0113188498
51
150.000025715
0
ARC
8
drawinglayer
10
-0.312801116664
20
0.492390472331
30
0
40
-0.714822819578
50
30.0113188498
51
150.000025715
0
ARC
8
drawinglayer
10
-0.37052546265
20
0.482822279256
30
0
40
-0.670246296546
50
30.0113188498
51
150.000025715
0
ARC
8
drawinglayer
10
-0.428272322032
20
0.473276599577
30
0
40
-0.625669773515
50
30.0113188498
51
150.000025715
0
ARC
8
drawinglayer
10
-0.485996668017
20
0.463730919897
30
0
40
-0.581093250484
50
30.0113188498
51
150.000025715
0
ENDSEC
0
EOF
