0
SECTION
2
HEADER
9
$ACADVER
1
AC1006
9
$INSBASE
10
0.0
20
0.0
30
0.0
9
$EXTMIN
10
0.0
20
0.0
9
$EXTMAX
10
0.0
20
0.0
0
ENDSEC
0
SECTION
2
TABLES
0
TABLE
2
LTYPE
70
1
0
LTYPE
2
CONTINUOUS
70
64
3
Solid line
72
65
73
0
40
0.0
0
ENDTAB
0
TABLE
2
LAYER
70
1
0
LAYER
2
PYDXF
70
64
62
7
6
continuous
0
ENDTAB
0
TABLE
2
STYLE
70
1
0
STYLE
2
STANDARD
70
0
40
0
41
40
50
50
71
0
42
1
3
ARIAL.TTF
4

0
ENDTAB
0
TABLE
2
VIEW
70
0
0
ENDTAB
0
ENDSEC
0
SECTION
2
BLOCKS
0
ENDSEC
0
SECTION
2
ENTITIES
0
ARC
8
drawinglayer
10
-0.680091335357
20
-2.07304949211
30
0
40
2.20287349301
50
30.0113188498
51
150.000025715
0
ARC
8
drawinglayer
10
-0.680091335357
20
-2.20287349301
30
0
40
2.20287349301
50
30.0113188498
51
150.000025715
0
ARC
8
drawinglayer
10
0.670807453416
20
0.337489781152
30
0
40
0.987060824461
50
30.0113188498
51
150.000025715
0
ARC
8
drawinglayer
10
0.670807453416
20
0.472575901373
30
0
40
0.851974704241
50
30.0113188498
51
150.000025715
0
ARC
8
drawinglayer
10
-0.680091335357
20
-0.743236767179
30
0
40
2.06778737279
50
30.0113188498
51
150.000025715
0
ARC
8
drawinglayer
10
-0.680091335357
20
-0.8783228874
30
0
40
2.20287349301
50
30.0113188498
51
150.000025715
0
ARC
8
drawinglayer
10
-0.680091335357
20
-0.722150703339
30
0
40
0.851974704241
50
30.0113188498
51
150.000025715
0
ARC
8
drawinglayer
10
-0.680091335357
20
-0.851974704241
30
0
40
0.851974704241
50
30.0113188498
51
150.000025715
0
ARC
8
drawinglayer
10
0.535721333196
20
-0.8783228874
30
0
40
2.20287349301
50
30.0113188498
51
150.000025715
0
ARC
8
drawinglayer
10
0.670807453416
20
-0.8783228874
30
0
40
2.20287349301
50
30.0113188498
51
150.000025715
0
ARC
8
drawinglayer
10
0.670807453416
20
-2.07304949211
30
0
40
2.20287349301
50
30.0113188498
51
150.000025715
0
ARC
8
drawinglayer
10
0.670807453416
20
-2.20287349301
30
0
40
2.20287349301
50
30.0113188498
51
150.000025715
0
ARC
8
drawinglayer
10
0.670807453416
20
-0.722150703339
30
0
40
0.851974704241
50
30.0113188498
51
150.000025715
0
ARC
8
drawinglayer
10
0.670807453416
20
-0.851974704241
30
0
40
0.851974704241
50
30.0113188498
51
150.000025715
0
ARC
8
drawinglayer
10
-0.545005215136
20
0.472575901373
30
0
40
0.851974704241
50
30.0113188498
51
150.000025715
0
ARC
8
drawinglayer
10
-0.680091335357
20
0.472575901373
30
0
40
0.851974704241
50
30.0113188498
51
150.000025715
0
ARC
8
drawinglayer
10
-0.680091335357
20
-2.06778737279
30
0
40
2.06778737279
50
30.0113188498
51
150.000025715
0
ARC
8
drawinglayer
10
-0.545005215136
20
-0.851974704241
30
0
40
0.851974704241
50
30.0113188498
51
150.000025715
0
ARC
8
drawinglayer
10
0.670807453416
20
-0.987060824461
30
0
40
0.987060824461
50
30.0113188498
51
150.000025715
0
ARC
8
drawinglayer
10
0.535721333196
20
-2.20287349301
30
0
40
2.20287349301
50
30.0113188498
51
150.000025715
0
ARC
8
drawinglayer
10
-0.680091335357
20
-1.01077794796
30
0
40
2.20287349301
50
30.0113188498
51
150.000025715
0
ARC
8
drawinglayer
10
-0.680091335357
20
-1.14323300852
30
0
40
2.20287349301
50
30.0113188498
51
150.000025715
0
ARC
8
drawinglayer
10
-0.680091335357
20
-1.27568806908
30
0
40
2.20287349301
50
30.0113188498
51
150.000025715
0
ARC
8
drawinglayer
10
-0.680091335357
20
-1.40814312965
30
0
40
2.20287349301
50
30.0113188498
51
150.000025715
0
ARC
8
drawinglayer
10
-0.680091335357
20
-1.54059819021
30
0
40
2.20287349301
50
30.0113188498
51
150.000025715
0
ARC
8
drawinglayer
10
-0.680091335357
20
-1.67305325077
30
0
40
2.20287349301
50
30.0113188498
51
150.000025715
0
ARC
8
drawinglayer
10
-0.680091335357
20
-1.80550831133
30
0
40
2.20287349301
50
30.0113188498
51
150.000025715
0
ARC
8
drawinglayer
10
-0.680091335357
20
-1.93796337189
30
0
40
2.20287349301
50
30.0113188498
51
150.000025715
0
ARC
8
drawinglayer
10
0.670807453416
20
-0.743236767179
30
0
40
2.06778737279
50
30.0113188498
51
150.000025715
0
ARC
8
drawinglayer
10
0.670807453416
20
-0.608150646959
30
0
40
1.93270125257
50
30.0113188498
51
150.000025715
0
ARC
8
drawinglayer
10
0.670807453416
20
-0.473064526738
30
0
40
1.79761513235
50
30.0113188498
51
150.000025715
0
ARC
8
drawinglayer
10
0.670807453416
20
-0.337978406518
30
0
40
1.66252901213
50
30.0113188498
51
150.000025715
0
ARC
8
drawinglayer
10
0.670807453416
20
-0.202892286297
30
0
40
1.52744289191
50
30.0113188498
51
150.000025715
0
ARC
8
drawinglayer
10
0.670807453416
20
-0.0678061660762
30
0
40
1.39235677169
50
30.0113188498
51
150.000025715
0
ARC
8
drawinglayer
10
0.670807453416
20
0.0672799541444
30
0
40
1.25727065147
50
30.0113188498
51
150.000025715
0
ARC
8
drawinglayer
10
0.670807453416
20
0.202403660932
30
0
40
1.12214694468
50
30.0113188498
51
150.000025715
0
ARC
8
drawinglayer
10
-0.680091335357
20
0.337489781152
30
0
40
0.987060824461
50
30.0113188498
51
150.000025715
0
ARC
8
drawinglayer
10
-0.680091335357
20
0.202403660932
30
0
40
1.12214694468
50
30.0113188498
51
150.000025715
0
ARC
8
drawinglayer
10
-0.680091335357
20
0.0672799541444
30
0
40
1.25727065147
50
30.0113188498
51
150.000025715
0
ARC
8
drawinglayer
10
-0.680091335357
20
-0.0678061660762
30
0
40
1.39235677169
50
30.0113188498
51
150.000025715
0
ARC
8
drawinglayer
10
-0.680091335357
20
-0.202892286297
30
0
40
1.52744289191
50
30.0113188498
51
150.000025715
0
ARC
8
drawinglayer
10
-0.680091335357
20
-0.337978406518
30
0
40
1.66252901213
50
30.0113188498
51
150.000025715
0
ARC
8
drawinglayer
10
-0.680091335357
20
-0.473064526738
30
0
40
1.79761513235
50
30.0113188498
51
150.000025715
0
ARC
8
drawinglayer
10
-0.680091335357
20
-0.608150646959
30
0
40
1.93270125257
50
30.0113188498
51
150.000025715
0
ARC
8
drawinglayer
10
-0.680091335357
20
0.340120840811
30
0
40
0.851974704241
50
30.0113188498
51
150.000025715
0
ARC
8
drawinglayer
10
-0.680091335357
20
0.20766578025
30
0
40
0.851974704241
50
30.0113188498
51
150.000025715
0
ARC
8
drawinglayer
10
-0.680091335357
20
0.0752107196888
30
0
40
0.851974704241
50
30.0113188498
51
150.000025715
0
ARC
8
drawinglayer
10
-0.680091335357
20
-0.0572443408726
30
0
40
0.851974704241
50
30.0113188498
51
150.000025715
0
ARC
8
drawinglayer
10
-0.680091335357
20
-0.189699401434
30
0
40
0.851974704241
50
30.0113188498
51
150.000025715
0
ARC
8
drawinglayer
10
-0.680091335357
20
-0.322154461995
30
0
40
0.851974704241
50
30.0113188498
51
150.000025715
0
ARC
8
drawinglayer
10
-0.680091335357
20
-0.454609522557
30
0
40
0.851974704241
50
30.0113188498
51
150.000025715
0
ARC
8
drawinglayer
10
-0.680091335357
20
-0.587064583118
30
0
40
0.851974704241
50
30.0113188498
51
150.000025715
0
ARC
8
drawinglayer
10
-0.545005215136
20
-0.8783228874
30
0
40
2.20287349301
50
30.0113188498
51
150.000025715
0
ARC
8
drawinglayer
10
-0.409919094915
20
-0.8783228874
30
0
40
2.20287349301
50
30.0113188498
51
150.000025715
0
ARC
8
drawinglayer
10
-0.274832974695
20
-0.8783228874
30
0
40
2.20287349301
50
30.0113188498
51
150.000025715
0
ARC
8
drawinglayer
10
-0.139746854474
20
-0.8783228874
30
0
40
2.20287349301
50
30.0113188498
51
150.000025715
0
ARC
8
drawinglayer
10
-0.00462314768702
20
-0.8783228874
30
0
40
2.20287349301
50
30.0113188498
51
150.000025715
0
ARC
8
drawinglayer
10
0.130462972534
20
-0.8783228874
30
0
40
2.20287349301
50
30.0113188498
51
150.000025715
0
ARC
8
drawinglayer
10
0.265549092754
20
-0.8783228874
30
0
40
2.20287349301
50
30.0113188498
51
150.000025715
0
ARC
8
drawinglayer
10
0.400635212975
20
-0.8783228874
30
0
40
2.20287349301
50
30.0113188498
51
150.000025715
0
ARC
8
drawinglayer
10
0.670807453416
20
-1.01077794796
30
0
40
2.20287349301
50
30.0113188498
51
150.000025715
0
ARC
8
drawinglayer
10
0.670807453416
20
-1.14323300852
30
0
40
2.20287349301
50
30.0113188498
51
150.000025715
0
ARC
8
drawinglayer
10
0.670807453416
20
-1.27568806908
30
0
40
2.20287349301
50
30.0113188498
51
150.000025715
0
ARC
8
drawinglayer
10
0.670807453416
20
-1.40814312965
30
0
40
2.20287349301
50
30.0113188498
51
150.000025715
0
ARC
8
drawinglayer
10
0.670807453416
20
-1.54059819021
30
0
40
2.20287349301
50
30.0113188498
51
150.000025715
0
ARC
8
drawinglayer
10
0.670807453416
20
-1.67305325077
30
0
40
2.20287349301
50
30.0113188498
51
150.000025715
0
ARC
8
drawinglayer
10
0.670807453416
20
-1.80550831133
30
0
40
2.20287349301
50
30.0113188498
51
150.000025715
0
ARC
8
drawinglayer
10
0.670807453416
20
-1.93796337189
30
0
40
2.20287349301
50
30.0113188498
51
150.000025715
0
ARC
8
drawinglayer
10
0.670807453416
20
0.340120840811
30
0
40
0.851974704241
50
30.0113188498
51
150.000025715
0
ARC
8
drawinglayer
10
0.670807453416
20
0.20766578025
30
0
40
0.851974704241
50
30.0113188498
51
150.000025715
0
ARC
8
drawinglayer
10
0.670807453416
20
0.0752107196888
30
0
40
0.851974704241
50
30.0113188498
51
150.000025715
0
ARC
8
drawinglayer
10
0.670807453416
20
-0.0572443408726
30
0
40
0.851974704241
50
30.0113188498
51
150.000025715
0
ARC
8
drawinglayer
10
0.670807453416
20
-0.189699401434
30
0
40
0.851974704241
50
30.0113188498
51
150.000025715
0
ARC
8
drawinglayer
10
0.670807453416
20
-0.322154461995
30
0
40
0.851974704241
50
30.0113188498
51
150.000025715
0
ARC
8
drawinglayer
10
0.670807453416
20
-0.454609522557
30
0
40
0.851974704241
50
30.0113188498
51
150.000025715
0
ARC
8
drawinglayer
10
0.670807453416
20
-0.587064583118
30
0
40
0.851974704241
50
30.0113188498
51
150.000025715
0
ARC
8
drawinglayer
10
0.535721333196
20
0.472575901373
30
0
40
0.851974704241
50
30.0113188498
51
150.000025715
0
ARC
8
drawinglayer
10
0.400635212975
20
0.472575901373
30
0
40
0.851974704241
50
30.0113188498
51
150.000025715
0
ARC
8
drawinglayer
10
0.265549092754
20
0.472575901373
30
0
40
0.851974704241
50
30.0113188498
51
150.000025715
0
ARC
8
drawinglayer
10
0.130462972534
20
0.472575901373
30
0
40
0.851974704241
50
30.0113188498
51
150.000025715
0
ARC
8
drawinglayer
10
-0.00462314768702
20
0.472575901373
30
0
40
0.851974704241
50
30.0113188498
51
150.000025715
0
ARC
8
drawinglayer
10
-0.139746854474
20
0.472575901373
30
0
40
0.851974704241
50
30.0113188498
51
150.000025715
0
ARC
8
drawinglayer
10
-0.274832974695
20
0.472575901373
30
0
40
0.851974704241
50
30.0113188498
51
150.000025715
0
ARC
8
drawinglayer
10
-0.409919094915
20
0.472575901373
30
0
40
0.851974704241
50
30.0113188498
51
150.000025715
0
ARC
8
drawinglayer
10
-0.680091335357
20
-0.987060824461
30
0
40
0.987060824461
50
30.0113188498
51
150.000025715
0
ARC
8
drawinglayer
10
-0.680091335357
20
-1.12214694468
30
0
40
1.12214694468
50
30.0113188498
51
150.000025715
0
ARC
8
drawinglayer
10
-0.680091335357
20
-1.25727065147
30
0
40
1.25727065147
50
30.0113188498
51
150.000025715
0
ARC
8
drawinglayer
10
-0.680091335357
20
-1.39235677169
30
0
40
1.39235677169
50
30.0113188498
51
150.000025715
0
ARC
8
drawinglayer
10
-0.680091335357
20
-1.52744289191
30
0
40
1.52744289191
50
30.0113188498
51
150.000025715
0
ARC
8
drawinglayer
10
-0.680091335357
20
-1.66252901213
30
0
40
1.66252901213
50
30.0113188498
51
150.000025715
0
ARC
8
drawinglayer
10
-0.680091335357
20
-1.79761513235
30
0
40
1.79761513235
50
30.0113188498
51
150.000025715
0
ARC
8
drawinglayer
10
-0.680091335357
20
-1.93270125257
30
0
40
1.93270125257
50
30.0113188498
51
150.000025715
0
ARC
8
drawinglayer
10
0.535721333196
20
-0.851974704241
30
0
40
0.851974704241
50
30.0113188498
51
150.000025715
0
ARC
8
drawinglayer
10
0.400635212975
20
-0.851974704241
30
0
40
0.851974704241
50
30.0113188498
51
150.000025715
0
ARC
8
drawinglayer
10
0.265549092754
20
-0.851974704241
30
0
40
0.851974704241
50
30.0113188498
51
150.000025715
0
ARC
8
drawinglayer
10
0.130462972534
20
-0.851974704241
30
0
40
0.851974704241
50
30.0113188498
51
150.000025715
0
ARC
8
drawinglayer
10
-0.00462314768702
20
-0.851974704241
30
0
40
0.851974704241
50
30.0113188498
51
150.000025715
0
ARC
8
drawinglayer
10
-0.139746854474
20
-0.851974704241
30
0
40
0.851974704241
50
30.0113188498
51
150.000025715
0
ARC
8
drawinglayer
10
-0.274832974695
20
-0.851974704241
30
0
40
0.851974704241
50
30.0113188498
51
150.000025715
0
ARC
8
drawinglayer
10
-0.409919094915
20
-0.851974704241
30
0
40
0.851974704241
50
30.0113188498
51
150.000025715
0
ARC
8
drawinglayer
10
0.670807453416
20
-2.06778737279
30
0
40
2.06778737279
50
30.0113188498
51
150.000025715
0
ARC
8
drawinglayer
10
0.670807453416
20
-1.93270125257
30
0
40
1.93270125257
50
30.0113188498
51
150.000025715
0
ARC
8
drawinglayer
10
0.670807453416
20
-1.79761513235
30
0
40
1.79761513235
50
30.0113188498
51
150.000025715
0
ARC
8
drawinglayer
10
0.670807453416
20
-1.66252901213
30
0
40
1.66252901213
50
30.0113188498
51
150.000025715
0
ARC
8
drawinglayer
10
0.670807453416
20
-1.52744289191
30
0
40
1.52744289191
50
30.0113188498
51
150.000025715
0
ARC
8
drawinglayer
10
0.670807453416
20
-1.39235677169
30
0
40
1.39235677169
50
30.0113188498
51
150.000025715
0
ARC
8
drawinglayer
10
0.670807453416
20
-1.25727065147
30
0
40
1.25727065147
50
30.0113188498
51
150.000025715
0
ARC
8
drawinglayer
10
0.670807453416
20
-1.12214694468
30
0
40
1.12214694468
50
30.0113188498
51
150.000025715
0
ARC
8
drawinglayer
10
-0.545005215136
20
-2.20287349301
30
0
40
2.20287349301
50
30.0113188498
51
150.000025715
0
ARC
8
drawinglayer
10
-0.409919094915
20
-2.20287349301
30
0
40
2.20287349301
50
30.0113188498
51
150.000025715
0
ARC
8
drawinglayer
10
-0.274832974695
20
-2.20287349301
30
0
40
2.20287349301
50
30.0113188498
51
150.000025715
0
ARC
8
drawinglayer
10
-0.139746854474
20
-2.20287349301
30
0
40
2.20287349301
50
30.0113188498
51
150.000025715
0
ARC
8
drawinglayer
10
-0.00462314768702
20
-2.20287349301
30
0
40
2.20287349301
50
30.0113188498
51
150.000025715
0
ARC
8
drawinglayer
10
0.130462972534
20
-2.20287349301
30
0
40
2.20287349301
50
30.0113188498
51
150.000025715
0
ARC
8
drawinglayer
10
0.265549092754
20
-2.20287349301
30
0
40
2.20287349301
50
30.0113188498
51
150.000025715
0
ARC
8
drawinglayer
10
0.400635212975
20
-2.20287349301
30
0
40
2.20287349301
50
30.0113188498
51
150.000025715
0
ENDSEC
0
EOF
