0
SECTION
2
HEADER
9
$ACADVER
1
AC1006
9
$INSBASE
10
0.0
20
0.0
30
0.0
9
$EXTMIN
10
0.0
20
0.0
9
$EXTMAX
10
0.0
20
0.0
0
ENDSEC
0
SECTION
2
TABLES
0
TABLE
2
LTYPE
70
1
0
LTYPE
2
CONTINUOUS
70
64
3
Solid line
72
65
73
0
40
0.0
0
ENDTAB
0
TABLE
2
LAYER
70
1
0
LAYER
2
PYDXF
70
64
62
7
6
continuous
0
ENDTAB
0
TABLE
2
STYLE
70
1
0
STYLE
2
STANDARD
70
0
40
0
41
40
50
50
71
0
42
1
3
ARIAL.TTF
4

0
ENDTAB
0
TABLE
2
VIEW
70
0
0
ENDTAB
0
ENDSEC
0
SECTION
2
BLOCKS
0
ENDSEC
0
SECTION
2
ENTITIES
0
ARC
8
drawinglayer
10
-0.863306621107
20
-0.736715074103
30
0
40
0.924053207501
50
32.5323331484
51
143.838093811
0
ARC
8
drawinglayer
10
1.08606218389
20
2.74167785326
30
0
40
0.830329902778
50
210.183206188
51
335.896162497
0
ARC
8
drawinglayer
10
1.08606218389
20
2.93666354798
30
0
40
1.0253155975
50
209.209177937
51
336.731305779
0
ARC
8
drawinglayer
10
-0.863306621107
20
1.18222619968
30
0
40
0.729121750803
50
31.7874880147
51
144.631697653
0
ARC
8
drawinglayer
10
-0.863306621107
20
0.98729474298
30
0
40
0.924053207501
50
32.5323331484
51
143.838093811
0
ARC
8
drawinglayer
10
-0.863306621107
20
1.2126537309
30
0
40
1.0253155975
50
204.682811355
51
332.503507505
0
ARC
8
drawinglayer
10
0.891130727196
20
0.98729474298
30
0
40
0.924053207501
50
37.2305870685
51
148.428631666
0
ARC
8
drawinglayer
10
1.08606218389
20
0.98729474298
30
0
40
0.924053207501
50
37.8608406431
51
148.874965788
0
ARC
8
drawinglayer
10
1.08606218389
20
-0.736715074103
30
0
40
0.924053207501
50
37.8608406431
51
148.874965788
0
ARC
8
drawinglayer
10
1.08606218389
20
1.2126537309
30
0
40
1.0253155975
50
209.209177937
51
336.731305779
0
ARC
8
drawinglayer
10
-0.668375164409
20
2.93666354798
30
0
40
1.0253155975
50
205.026586032
51
332.989146532
0
ARC
8
drawinglayer
10
-0.863306621107
20
2.93666354798
30
0
40
1.0253155975
50
204.682811355
51
332.503507505
0
ARC
8
drawinglayer
10
-0.863306621107
20
-0.729121750803
30
0
40
0.729121750803
50
90.8021409132
51
144.631697653
0
ARC
8
drawinglayer
10
-0.668375164409
20
1.0253155975
30
0
40
1.0253155975
50
205.026586032
51
332.989146532
0
ARC
8
drawinglayer
10
1.08606218389
20
0.830329902778
30
0
40
0.830329902778
50
210.183206188
51
269.275953234
0
ARC
8
drawinglayer
10
-0.863306621107
20
0.605025152883
30
0
40
0.924053207501
50
32.5323331484
51
143.838093811
0
ARC
8
drawinglayer
10
-0.863306621107
20
0.222755562787
30
0
40
0.924053207501
50
32.5323331484
51
143.838093811
0
ARC
8
drawinglayer
10
-0.863306621107
20
-0.159514027309
30
0
40
0.924053207501
50
32.5323331484
51
143.838093811
0
ARC
8
drawinglayer
10
-0.863306621107
20
-0.541783617405
30
0
40
0.924053207501
50
32.5323331484
51
143.838093811
0
ARC
8
drawinglayer
10
1.08606218389
20
1.18222619968
30
0
40
0.729121750803
50
37.0586997299
51
149.610357118
0
ARC
8
drawinglayer
10
1.08606218389
20
1.37715765638
30
0
40
0.534190294106
50
36.2565588167
51
150.357035717
0
ARC
8
drawinglayer
10
1.08606218389
20
1.57208911307
30
0
40
0.339258837408
50
35.4544179035
51
151.114886992
0
ARC
8
drawinglayer
10
1.08606218389
20
1.76702056977
30
0
40
0.14432738071
50
34.5949812108
51
151.884025536
0
ARC
8
drawinglayer
10
1.08606218389
20
1.96195202647
30
0
40
0.0506040759875
50
213.735544518
51
332.664279462
0
ARC
8
drawinglayer
10
1.08606218389
20
2.15688348317
30
0
40
0.245535532685
50
212.876107825
51
333.45576336
0
ARC
8
drawinglayer
10
1.08606218389
20
2.35181493986
30
0
40
0.440466989383
50
212.016671133
51
334.258248048
0
ARC
8
drawinglayer
10
1.08606218389
20
2.54674639656
30
0
40
0.635398446081
50
211.099938661
51
335.071790821
0
ARC
8
drawinglayer
10
-0.863306621107
20
2.74167785326
30
0
40
0.830329902778
50
205.484952268
51
331.563283763
0
ARC
8
drawinglayer
10
-0.863306621107
20
2.54674639656
30
0
40
0.635398446081
50
206.344388961
51
330.639389318
0
ARC
8
drawinglayer
10
-0.863306621107
20
2.35181493986
30
0
40
0.440466989383
50
207.146529874
51
329.732053354
0
ARC
8
drawinglayer
10
-0.863306621107
20
2.15688348317
30
0
40
0.245535532685
50
207.948670787
51
328.841103982
0
ARC
8
drawinglayer
10
-0.863306621107
20
1.96195202647
30
0
40
0.0506040759875
50
208.750811701
51
327.966655795
0
ARC
8
drawinglayer
10
-0.863306621107
20
1.76702056977
30
0
40
0.14432738071
50
29.5529526137
51
147.108536906
0
ARC
8
drawinglayer
10
-0.863306621107
20
1.57208911307
30
0
40
0.339258837408
50
30.2977977474
51
146.266747313
0
ARC
8
drawinglayer
10
-0.863306621107
20
1.37715765638
30
0
40
0.534190294106
50
31.042642881
51
145.441172426
0
ARC
8
drawinglayer
10
-0.863306621107
20
2.55439395788
30
0
40
1.0253155975
50
204.682811355
51
332.503507505
0
ARC
8
drawinglayer
10
-0.863306621107
20
2.17212436779
30
0
40
1.0253155975
50
204.682811355
51
332.503507505
0
ARC
8
drawinglayer
10
-0.863306621107
20
1.78985477769
30
0
40
1.0253155975
50
204.682811355
51
332.503507505
0
ARC
8
drawinglayer
10
-0.863306621107
20
1.4075851876
30
0
40
1.0253155975
50
204.682811355
51
332.503507505
0
ARC
8
drawinglayer
10
-0.668375164409
20
0.98729474298
30
0
40
0.924053207501
50
32.9906993845
51
144.404519887
0
ARC
8
drawinglayer
10
-0.473443707711
20
0.98729474298
30
0
40
0.924053207501
50
33.5063614001
51
144.955762582
0
ARC
8
drawinglayer
10
-0.27845801299
20
0.98729474298
30
0
40
0.924053207501
50
33.9647276362
51
145.492280261
0
ARC
8
drawinglayer
10
-0.0835265562923
20
0.98729474298
30
0
40
0.924053207501
50
34.4803896518
51
146.014531292
0
ARC
8
drawinglayer
10
0.111404900405
20
0.98729474298
30
0
40
0.924053207501
50
34.9960516674
51
146.523088631
0
ARC
8
drawinglayer
10
0.306336357103
20
0.98729474298
30
0
40
0.924053207501
50
35.5690094626
51
147.018296053
0
ARC
8
drawinglayer
10
0.501267813801
20
0.98729474298
30
0
40
0.924053207501
50
36.0846714782
51
147.500726516
0
ARC
8
drawinglayer
10
0.696199270499
20
0.98729474298
30
0
40
0.924053207501
50
36.6576292733
51
147.9706665
0
ARC
8
drawinglayer
10
1.08606218389
20
0.605025152883
30
0
40
0.924053207501
50
37.8608406431
51
148.874965788
0
ARC
8
drawinglayer
10
1.08606218389
20
0.222755562787
30
0
40
0.924053207501
50
37.8608406431
51
148.874965788
0
ARC
8
drawinglayer
10
1.08606218389
20
-0.159514027309
30
0
40
0.924053207501
50
37.8608406431
51
148.874965788
0
ARC
8
drawinglayer
10
1.08606218389
20
-0.541783617405
30
0
40
0.924053207501
50
37.8608406431
51
148.874965788
0
ARC
8
drawinglayer
10
1.08606218389
20
2.55439395788
30
0
40
1.0253155975
50
209.209177937
51
336.731305779
0
ARC
8
drawinglayer
10
1.08606218389
20
2.17212436779
30
0
40
1.0253155975
50
209.209177937
51
336.731305779
0
ARC
8
drawinglayer
10
1.08606218389
20
1.78985477769
30
0
40
1.0253155975
50
209.209177937
51
336.731305779
0
ARC
8
drawinglayer
10
1.08606218389
20
1.4075851876
30
0
40
1.0253155975
50
209.209177937
51
336.731305779
0
ARC
8
drawinglayer
10
0.891130727196
20
2.93666354798
30
0
40
1.0253155975
50
208.693515921
51
336.364498199
0
ARC
8
drawinglayer
10
0.696199270499
20
2.93666354798
30
0
40
1.0253155975
50
208.177853905
51
335.986632533
0
ARC
8
drawinglayer
10
0.501267813801
20
2.93666354798
30
0
40
1.0253155975
50
207.719487669
51
335.597250415
0
ARC
8
drawinglayer
10
0.306336357103
20
2.93666354798
30
0
40
1.0253155975
50
207.203825654
51
335.19589348
0
ARC
8
drawinglayer
10
0.111404900405
20
2.93666354798
30
0
40
1.0253155975
50
206.745459418
51
334.781931473
0
ARC
8
drawinglayer
10
-0.0835265562923
20
2.93666354798
30
0
40
1.0253155975
50
206.287093181
51
334.354848732
0
ARC
8
drawinglayer
10
-0.27845801299
20
2.93666354798
30
0
40
1.0253155975
50
205.886022725
51
333.914129596
0
ARC
8
drawinglayer
10
-0.473443707711
20
2.93666354798
30
0
40
1.0253155975
50
205.484952268
51
333.459086515
0
ARC
8
drawinglayer
10
-0.863306621107
20
0.830329902778
30
0
40
0.830329902778
50
270.744845134
51
331.563283763
0
ARC
8
drawinglayer
10
-0.863306621107
20
0.635398446081
30
0
40
0.635398446081
50
270.744845134
51
330.639389318
0
ARC
8
drawinglayer
10
-0.863306621107
20
0.440466989383
30
0
40
0.440466989383
50
270.744845134
51
329.732053354
0
ARC
8
drawinglayer
10
-0.863306621107
20
0.245535532685
30
0
40
0.245535532685
50
270.744845134
51
328.841103982
0
ARC
8
drawinglayer
10
-0.863306621107
20
0.0506040759875
30
0
40
0.0506040759875
50
270.744845134
51
327.966655795
0
ARC
8
drawinglayer
10
-0.863306621107
20
-0.14432738071
30
0
40
0.14432738071
50
90.7448451337
51
147.108536906
0
ARC
8
drawinglayer
10
-0.863306621107
20
-0.339258837408
30
0
40
0.339258837408
50
90.8021409132
51
146.266747313
0
ARC
8
drawinglayer
10
-0.863306621107
20
-0.534190294106
30
0
40
0.534190294106
50
90.8021409132
51
145.441172426
0
ARC
8
drawinglayer
10
0.891130727196
20
1.0253155975
30
0
40
1.0253155975
50
208.693515921
51
336.364498199
0
ARC
8
drawinglayer
10
0.696199270499
20
1.0253155975
30
0
40
1.0253155975
50
208.177853905
51
335.986632533
0
ARC
8
drawinglayer
10
0.501267813801
20
1.0253155975
30
0
40
1.0253155975
50
207.719487669
51
335.597250415
0
ARC
8
drawinglayer
10
0.306336357103
20
1.0253155975
30
0
40
1.0253155975
50
207.203825654
51
335.19589348
0
ARC
8
drawinglayer
10
0.111404900405
20
1.0253155975
30
0
40
1.0253155975
50
206.745459418
51
334.781931473
0
ARC
8
drawinglayer
10
-0.0835265562923
20
1.0253155975
30
0
40
1.0253155975
50
206.287093181
51
334.354848732
0
ARC
8
drawinglayer
10
-0.27845801299
20
1.0253155975
30
0
40
1.0253155975
50
205.886022725
51
333.914129596
0
ARC
8
drawinglayer
10
-0.473443707711
20
1.0253155975
30
0
40
1.0253155975
50
205.484952268
51
333.459086515
0
ARC
8
drawinglayer
10
1.08606218389
20
-0.729121750803
30
0
40
0.729121750803
50
37.0586997299
51
89.3672827068
0
ARC
8
drawinglayer
10
1.08606218389
20
-0.534190294106
30
0
40
0.534190294106
50
36.2565588167
51
89.3571413539
0
ARC
8
drawinglayer
10
1.08606218389
20
-0.339258837408
30
0
40
0.339258837408
50
35.4544179035
51
89.3466562262
0
ARC
8
drawinglayer
10
1.08606218389
20
-0.14432738071
30
0
40
0.14432738071
50
34.5949812108
51
89.3358846197
0
ARC
8
drawinglayer
10
1.08606218389
20
0.0506040759875
30
0
40
0.0506040759875
50
213.735544518
51
269.324711943
0
ARC
8
drawinglayer
10
1.08606218389
20
0.245535532685
30
0
40
0.245535532685
50
212.876107825
51
269.313138195
0
ARC
8
drawinglayer
10
1.08606218389
20
0.440466989383
30
0
40
0.440466989383
50
212.016671133
51
269.301163377
0
ARC
8
drawinglayer
10
1.08606218389
20
0.635398446081
30
0
40
0.635398446081
50
211.099938661
51
269.288787489
0
ENDSEC
0
EOF
