0
SECTION
2
HEADER
9
$ACADVER
1
AC1006
9
$INSBASE
10
0.0
20
0.0
30
0.0
9
$EXTMIN
10
0.0
20
0.0
9
$EXTMAX
10
0.0
20
0.0
0
ENDSEC
0
SECTION
2
TABLES
0
TABLE
2
LTYPE
70
1
0
LTYPE
2
CONTINUOUS
70
64
3
Solid line
72
65
73
0
40
0.0
0
ENDTAB
0
TABLE
2
LAYER
70
1
0
LAYER
2
PYDXF
70
64
62
7
6
continuous
0
ENDTAB
0
TABLE
2
STYLE
70
1
0
STYLE
2
STANDARD
70
0
40
0
41
40
50
50
71
0
42
1
3
ARIAL.TTF
4

0
ENDTAB
0
TABLE
2
VIEW
70
0
0
ENDTAB
0
ENDSEC
0
SECTION
2
BLOCKS
0
ENDSEC
0
SECTION
2
ENTITIES
0
ARC
8
drawinglayer
10
-0.705287214647
20
0.555478519888
30
0
40
-0.78504480908
50
30.0113188498
51
150.000025715
0
ARC
8
drawinglayer
10
-0.705287214647
20
0.37228770254
30
0
40
-0.779087384126
50
30.0113188498
51
150.000025715
0
ARC
8
drawinglayer
10
0.97902061988
20
0.480188994171
30
0
40
0.983488688596
50
30.0113188498
51
150.000025715
0
ARC
8
drawinglayer
10
1.16359807924
20
0.482500064196
30
0
40
0.981126261459
50
30.0113188498
51
150.000025715
0
ARC
8
drawinglayer
10
-0.520709755283
20
2.24445985158
30
0
40
-0.842564774157
50
30.0113188498
51
150.000025715
0
ARC
8
drawinglayer
10
-0.705287214647
20
2.24225149578
30
0
40
-0.840253704132
50
30.0113188498
51
150.000025715
0
ARC
8
drawinglayer
10
1.14038466477
20
0.57792157769
30
0
40
-0.808258223558
50
30.0113188498
51
150.000025715
0
ARC
8
drawinglayer
10
1.14038466477
20
0.394628046119
30
0
40
-0.802249441491
50
30.0113188498
51
150.000025715
0
ARC
8
drawinglayer
10
-0.684384870195
20
0.638214826798
30
0
40
0.819916287908
50
30.0113188498
51
150.000025715
0
ARC
8
drawinglayer
10
-0.682073800169
20
0.460057006394
30
0
40
1.00433967594
50
30.0113188498
51
150.000025715
0
ARC
8
drawinglayer
10
-0.682073800169
20
-1.22666461238
30
0
40
1.05954857099
50
30.0113188498
51
150.000025715
0
ARC
8
drawinglayer
10
-0.682073800169
20
-1.40995814395
30
0
40
1.06555735305
50
30.0113188498
51
150.000025715
0
ARC
8
drawinglayer
10
1.16359807924
20
-1.20427291169
30
0
40
1.03633515651
50
30.0113188498
51
150.000025715
0
ARC
8
drawinglayer
10
1.16359807924
20
-1.38751508615
30
0
40
1.04234393858
50
30.0113188498
51
150.000025715
0
ARC
8
drawinglayer
10
1.14269573479
20
2.08643401895
30
0
40
-0.678992373469
50
30.0113188498
51
150.000025715
0
ARC
8
drawinglayer
10
1.14038466477
20
2.26464319647
30
0
40
-0.863467118609
50
30.0113188498
51
150.000025715
0
ARC
8
drawinglayer
10
-0.520709755283
20
0.374496058342
30
0
40
-0.781398454151
50
30.0113188498
51
150.000025715
0
ARC
8
drawinglayer
10
1.14269573479
20
0.216470225715
30
0
40
-0.617826053463
50
30.0113188498
51
150.000025715
0
ARC
8
drawinglayer
10
0.97902061988
20
-1.38977479907
30
0
40
1.0446550086
50
30.0113188498
51
150.000025715
0
ARC
8
drawinglayer
10
-0.684384870195
20
-1.23174896644
30
0
40
0.881082607914
50
30.0113188498
51
150.000025715
0
ARC
8
drawinglayer
10
-0.705287214647
20
2.05526025216
30
0
40
-0.834142207842
50
30.0113188498
51
150.000025715
0
ARC
8
drawinglayer
10
-0.705287214647
20
1.86826900855
30
0
40
-0.828030711553
50
30.0113188498
51
150.000025715
0
ARC
8
drawinglayer
10
-0.705287214647
20
1.68127776494
30
0
40
-0.821919215263
50
30.0113188498
51
150.000025715
0
ARC
8
drawinglayer
10
-0.705287214647
20
1.49428652133
30
0
40
-0.815807718974
50
30.0113188498
51
150.000025715
0
ARC
8
drawinglayer
10
-0.705287214647
20
1.3072439206
30
0
40
-0.809644865573
50
30.0113188498
51
150.000025715
0
ARC
8
drawinglayer
10
-0.705287214647
20
1.12025267699
30
0
40
-0.803533369283
50
30.0113188498
51
150.000025715
0
ARC
8
drawinglayer
10
-0.705287214647
20
0.933261433377
30
0
40
-0.797421872994
50
30.0113188498
51
150.000025715
0
ARC
8
drawinglayer
10
-0.705287214647
20
0.746270189765
30
0
40
-0.791310376704
50
30.0113188498
51
150.000025715
0
ARC
8
drawinglayer
10
-0.497496340806
20
0.462265362196
30
0
40
1.00202860591
50
30.0113188498
51
150.000025715
0
ARC
8
drawinglayer
10
-0.312918881442
20
0.46452507511
30
0
40
0.999717535886
50
30.0113188498
51
150.000025715
0
ARC
8
drawinglayer
10
-0.12839277919
20
0.466733430912
30
0
40
0.99740646586
50
30.0113188498
51
150.000025715
0
ARC
8
drawinglayer
10
0.0561846801736
20
0.468993143826
30
0
40
0.995095395835
50
30.0113188498
51
150.000025715
0
ARC
8
drawinglayer
10
0.240762139537
20
0.471252856739
30
0
40
0.992732968698
50
30.0113188498
51
150.000025715
0
ARC
8
drawinglayer
10
0.425339598901
20
0.473512569653
30
0
40
0.990421898672
50
30.0113188498
51
150.000025715
0
ARC
8
drawinglayer
10
0.609917058265
20
0.475720925455
30
0
40
0.988110828647
50
30.0113188498
51
150.000025715
0
ARC
8
drawinglayer
10
0.794494517628
20
0.477980638369
30
0
40
0.985799758622
50
30.0113188498
51
150.000025715
0
ARC
8
drawinglayer
10
0.955807205403
20
2.26243484066
30
0
40
-0.861156048584
50
30.0113188498
51
150.000025715
0
ARC
8
drawinglayer
10
0.771229746039
20
2.26017512775
30
0
40
-0.858844978558
50
30.0113188498
51
150.000025715
0
ARC
8
drawinglayer
10
0.586703643787
20
2.25796677195
30
0
40
-0.856533908533
50
30.0113188498
51
150.000025715
0
ARC
8
drawinglayer
10
0.402126184423
20
2.25565570192
30
0
40
-0.854171481396
50
30.0113188498
51
150.000025715
0
ARC
8
drawinglayer
10
0.21754872506
20
2.25344734612
30
0
40
-0.85186041137
50
30.0113188498
51
150.000025715
0
ARC
8
drawinglayer
10
0.032971265696
20
2.25118763321
30
0
40
-0.849549341345
50
30.0113188498
51
150.000025715
0
ARC
8
drawinglayer
10
-0.151606193668
20
2.24897927741
30
0
40
-0.84723827132
50
30.0113188498
51
150.000025715
0
ARC
8
drawinglayer
10
-0.33613229592
20
2.24671956449
30
0
40
-0.844927201294
50
30.0113188498
51
150.000025715
0
ARC
8
drawinglayer
10
1.14038466477
20
2.07765195285
30
0
40
-0.85735562232
50
30.0113188498
51
150.000025715
0
ARC
8
drawinglayer
10
1.14038466477
20
1.89066070924
30
0
40
-0.85124412603
50
30.0113188498
51
150.000025715
0
ARC
8
drawinglayer
10
1.14038466477
20
1.70366946563
30
0
40
-0.845132629741
50
30.0113188498
51
150.000025715
0
ARC
8
drawinglayer
10
1.14038466477
20
1.51662686491
30
0
40
-0.83896977634
50
30.0113188498
51
150.000025715
0
ARC
8
drawinglayer
10
1.14038466477
20
1.32963562129
30
0
40
-0.83285828005
50
30.0113188498
51
150.000025715
0
ARC
8
drawinglayer
10
1.14038466477
20
1.14264437768
30
0
40
-0.826746783761
50
30.0113188498
51
150.000025715
0
ARC
8
drawinglayer
10
1.14038466477
20
0.955653134068
30
0
40
-0.820635287471
50
30.0113188498
51
150.000025715
0
ARC
8
drawinglayer
10
1.14038466477
20
0.768661890455
30
0
40
-0.814523791182
50
30.0113188498
51
150.000025715
0
ARC
8
drawinglayer
10
-0.702976144622
20
2.06404231826
30
0
40
-0.655830316103
50
30.0113188498
51
150.000025715
0
ARC
8
drawinglayer
10
-0.700665074596
20
1.88583314074
30
0
40
-0.471355570963
50
30.0113188498
51
150.000025715
0
ARC
8
drawinglayer
10
-0.698302647459
20
1.70757260612
30
0
40
-0.286880825822
50
30.0113188498
51
150.000025715
0
ARC
8
drawinglayer
10
-0.695991577434
20
1.5293634286
30
0
40
-0.102406080682
50
30.0113188498
51
150.000025715
0
ARC
8
drawinglayer
10
-0.693680507408
20
1.35115425108
30
0
40
0.0820173073466
50
30.0113188498
51
150.000025715
0
ARC
8
drawinglayer
10
-0.691369437383
20
1.17294507357
30
0
40
0.266492052487
50
30.0113188498
51
150.000025715
0
ARC
8
drawinglayer
10
-0.689058367357
20
0.994684538942
30
0
40
0.450966797627
50
30.0113188498
51
150.000025715
0
ARC
8
drawinglayer
10
-0.68669594022
20
0.816475361426
30
0
40
0.635441542768
50
30.0113188498
51
150.000025715
0
ARC
8
drawinglayer
10
-0.682073800169
20
0.273065762782
30
0
40
1.01045117223
50
30.0113188498
51
150.000025715
0
ARC
8
drawinglayer
10
-0.682073800169
20
0.0860231620574
30
0
40
1.01661402563
50
30.0113188498
51
150.000025715
0
ARC
8
drawinglayer
10
-0.682073800169
20
-0.100968081555
30
0
40
1.02272552192
50
30.0113188498
51
150.000025715
0
ARC
8
drawinglayer
10
-0.682073800169
20
-0.287959325168
30
0
40
1.02883701821
50
30.0113188498
51
150.000025715
0
ARC
8
drawinglayer
10
-0.682073800169
20
-0.47495056878
30
0
40
1.0349485145
50
30.0113188498
51
150.000025715
0
ARC
8
drawinglayer
10
-0.682073800169
20
-0.661941812392
30
0
40
1.04106001078
50
30.0113188498
51
150.000025715
0
ARC
8
drawinglayer
10
-0.682073800169
20
-0.848933056005
30
0
40
1.04717150707
50
30.0113188498
51
150.000025715
0
ARC
8
drawinglayer
10
-0.682073800169
20
-1.03597565673
30
0
40
1.05333436048
50
30.0113188498
51
150.000025715
0
ARC
8
drawinglayer
10
1.16359807924
20
0.295457463472
30
0
40
0.98728911486
50
30.0113188498
51
150.000025715
0
ARC
8
drawinglayer
10
1.16359807924
20
0.10846621986
30
0
40
0.99340061115
50
30.0113188498
51
150.000025715
0
ARC
8
drawinglayer
10
1.16359807924
20
-0.0785250237527
30
0
40
0.999512107439
50
30.0113188498
51
150.000025715
0
ARC
8
drawinglayer
10
1.16359807924
20
-0.265516267365
30
0
40
1.00562360373
50
30.0113188498
51
150.000025715
0
ARC
8
drawinglayer
10
1.16359807924
20
-0.452507510978
30
0
40
1.01173510002
50
30.0113188498
51
150.000025715
0
ARC
8
drawinglayer
10
1.16359807924
20
-0.63949875459
30
0
40
1.01784659631
50
30.0113188498
51
150.000025715
0
ARC
8
drawinglayer
10
1.16359807924
20
-0.826541355314
30
0
40
1.02400944971
50
30.0113188498
51
150.000025715
0
ARC
8
drawinglayer
10
1.16359807924
20
-1.01353259893
30
0
40
1.030120946
50
30.0113188498
51
150.000025715
0
ARC
8
drawinglayer
10
1.16128700922
20
0.660657884601
30
0
40
0.79670287343
50
30.0113188498
51
150.000025715
0
ARC
8
drawinglayer
10
1.15897593919
20
0.838867062116
30
0
40
0.61222812829
50
30.0113188498
51
150.000025715
0
ARC
8
drawinglayer
10
1.15666486917
20
1.01712759674
30
0
40
0.42775338315
50
30.0113188498
51
150.000025715
0
ARC
8
drawinglayer
10
1.15430244203
20
1.19533677426
30
0
40
0.243278638009
50
30.0113188498
51
150.000025715
0
ARC
8
drawinglayer
10
1.15199137201
20
1.37354595178
30
0
40
0.0588552499807
50
30.0113188498
51
150.000025715
0
ARC
8
drawinglayer
10
1.14968030198
20
1.55175512929
30
0
40
-0.12561949516
50
30.0113188498
51
150.000025715
0
ARC
8
drawinglayer
10
1.14736923195
20
1.73001566392
30
0
40
-0.3100942403
50
30.0113188498
51
150.000025715
0
ARC
8
drawinglayer
10
1.14505816193
20
1.90822484143
30
0
40
-0.49456898544
50
30.0113188498
51
150.000025715
0
ARC
8
drawinglayer
10
0.955807205403
20
0.392419690317
30
0
40
-0.799938371466
50
30.0113188498
51
150.000025715
0
ARC
8
drawinglayer
10
0.771229746039
20
0.390159977403
30
0
40
-0.797627301441
50
30.0113188498
51
150.000025715
0
ARC
8
drawinglayer
10
0.586703643787
20
0.387951621601
30
0
40
-0.795316231415
50
30.0113188498
51
150.000025715
0
ARC
8
drawinglayer
10
0.402126184423
20
0.385691908687
30
0
40
-0.79300516139
50
30.0113188498
51
150.000025715
0
ARC
8
drawinglayer
10
0.21754872506
20
0.383483552885
30
0
40
-0.790694091364
50
30.0113188498
51
150.000025715
0
ARC
8
drawinglayer
10
0.032971265696
20
0.38117248286
30
0
40
-0.788331664227
50
30.0113188498
51
150.000025715
0
ARC
8
drawinglayer
10
-0.151606193668
20
0.378964127057
30
0
40
-0.786020594202
50
30.0113188498
51
150.000025715
0
ARC
8
drawinglayer
10
-0.33613229592
20
0.376704414144
30
0
40
-0.783709524176
50
30.0113188498
51
150.000025715
0
ARC
8
drawinglayer
10
1.16128700922
20
-1.20930590864
30
0
40
0.857869193437
50
30.0113188498
51
150.000025715
0
ARC
8
drawinglayer
10
1.15897593919
20
-1.03114808823
30
0
40
0.673445805408
50
30.0113188498
51
150.000025715
0
ARC
8
drawinglayer
10
1.15666486917
20
-0.852887553604
30
0
40
0.488971060268
50
30.0113188498
51
150.000025715
0
ARC
8
drawinglayer
10
1.15430244203
20
-0.674678376088
30
0
40
0.304496315127
50
30.0113188498
51
150.000025715
0
ARC
8
drawinglayer
10
1.15199137201
20
-0.496417841461
30
0
40
0.120021569987
50
30.0113188498
51
150.000025715
0
ARC
8
drawinglayer
10
1.14968030198
20
-0.318260021056
30
0
40
-0.0644018180418
50
30.0113188498
51
150.000025715
0
ARC
8
drawinglayer
10
1.14736923195
20
-0.139999486429
30
0
40
-0.248876563182
50
30.0113188498
51
150.000025715
0
ARC
8
drawinglayer
10
1.14505816193
20
0.038209691087
30
0
40
-0.433351308322
50
30.0113188498
51
150.000025715
0
ARC
8
drawinglayer
10
-0.497496340806
20
-1.40774978815
30
0
40
1.06324628303
50
30.0113188498
51
150.000025715
0
ARC
8
drawinglayer
10
-0.312918881442
20
-1.40549007524
30
0
40
1.060935213
50
30.0113188498
51
150.000025715
0
ARC
8
drawinglayer
10
-0.12839277919
20
-1.40323036232
30
0
40
1.05857278587
50
30.0113188498
51
150.000025715
0
ARC
8
drawinglayer
10
0.0561846801736
20
-1.40097064941
30
0
40
1.05626171584
50
30.0113188498
51
150.000025715
0
ARC
8
drawinglayer
10
0.240762139537
20
-1.39876229361
30
0
40
1.05395064582
50
30.0113188498
51
150.000025715
0
ARC
8
drawinglayer
10
0.425339598901
20
-1.39650258069
30
0
40
1.05163957579
50
30.0113188498
51
150.000025715
0
ARC
8
drawinglayer
10
0.609917058265
20
-1.39429422489
30
0
40
1.04932850576
50
30.0113188498
51
150.000025715
0
ARC
8
drawinglayer
10
0.794494517628
20
-1.39198315487
30
0
40
1.04696607863
50
30.0113188498
51
150.000025715
0
ARC
8
drawinglayer
10
-0.702976144622
20
0.194027167912
30
0
40
-0.594612638985
50
30.0113188498
51
150.000025715
0
ARC
8
drawinglayer
10
-0.700665074596
20
0.0158179903962
30
0
40
-0.410137893845
50
30.0113188498
51
150.000025715
0
ARC
8
drawinglayer
10
-0.698302647459
20
-0.162442544231
30
0
40
-0.225663148705
50
94.9847328176
51
150.000025715
0
ARC
8
drawinglayer
10
-0.698302647459
20
-0.162442544231
30
0
40
-0.225663148705
50
30.0113188498
51
93.0000070153
0
ARC
8
drawinglayer
10
-0.695991577434
20
-0.340600364635
30
0
40
-0.0412397606759
50
30.0113188498
51
150.000025715
0
ARC
8
drawinglayer
10
-0.693680507408
20
-0.518860899263
30
0
40
0.143234984464
50
30.0113188498
51
150.000025715
0
ARC
8
drawinglayer
10
-0.691369437383
20
-0.697070076779
30
0
40
0.327709729605
50
30.0113188498
51
150.000025715
0
ARC
8
drawinglayer
10
-0.689058367357
20
-0.875330611406
30
0
40
0.512184474745
50
30.0113188498
51
150.000025715
0
ARC
8
drawinglayer
10
-0.68669594022
20
-1.05348843181
30
0
40
0.696607862774
50
30.0113188498
51
150.000025715
0
ENDSEC
0
EOF
