0
SECTION
2
HEADER
9
$ACADVER
1
AC1006
9
$INSBASE
10
0.0
20
0.0
30
0.0
9
$EXTMIN
10
0.0
20
0.0
9
$EXTMAX
10
0.0
20
0.0
0
ENDSEC
0
SECTION
2
TABLES
0
TABLE
2
LTYPE
70
1
0
LTYPE
2
CONTINUOUS
70
64
3
Solid line
72
65
73
0
40
0.0
0
ENDTAB
0
TABLE
2
LAYER
70
1
0
LAYER
2
PYDXF
70
64
62
7
6
continuous
0
ENDTAB
0
TABLE
2
STYLE
70
1
0
STYLE
2
STANDARD
70
0
40
0
41
40
50
50
71
0
42
1
3
ARIAL.TTF
4

0
ENDTAB
0
TABLE
2
VIEW
70
0
0
ENDTAB
0
ENDSEC
0
SECTION
2
BLOCKS
0
ENDSEC
0
SECTION
2
ENTITIES
0
ARC
8
drawinglayer
10
0.116957743543
20
-1.68491308232
30
0
40
0.968879893327
50
30.0113188498
51
150.000025715
0
ARC
8
drawinglayer
10
0.191854480383
20
-1.69472326342
30
0
40
0.971381663243
50
30.0113188498
51
150.000025715
0
ARC
8
drawinglayer
10
0.358737590686
20
-1.40939987925
30
0
40
0.898621854871
50
30.0113188498
51
150.000025715
0
ARC
8
drawinglayer
10
0.420488453203
20
-1.28368014987
30
0
40
0.866562136697
50
30.0113188498
51
150.000025715
0
ARC
8
drawinglayer
10
0.504239834026
20
-1.11319495418
30
0
40
0.823088093284
50
30.0113188498
51
150.000025715
0
ARC
8
drawinglayer
10
0.504239834026
20
-1.17017971337
30
0
40
0.909723458871
50
103.006141949
51
131.000000383
0
ARC
8
drawinglayer
10
0.215296991072
20
-1.73837683199
30
0
40
1.05461763313
50
30.0113188498
51
59.9999871427
0
ARC
8
drawinglayer
10
0.571028983178
20
-1.68977763493
30
0
40
0.967553723627
50
30.0113188498
51
150.000025715
0
ARC
8
drawinglayer
10
0.55856067154
20
-1.74508875637
30
0
40
1.05633180882
50
132.971834635
51
150.000025715
0
ARC
8
drawinglayer
10
0.0922411833603
20
-1.48916695984
30
0
40
0.918960317702
50
30.0113188498
51
150.000025715
0
ARC
8
drawinglayer
10
0.0922411833603
20
-1.54615171903
30
0
40
1.00560147442
50
59.9770115351
51
150.000025715
0
ARC
8
drawinglayer
10
0.28173867218
20
-1.37322266476
30
0
40
0.961501988531
50
59.9770115351
51
150.000025715
0
ARC
8
drawinglayer
10
0.37648741659
20
-1.2867610332
30
0
40
0.939455141152
50
59.9770115351
51
150.000025715
0
ARC
8
drawinglayer
10
0.28173867218
20
-1.31624369671
30
0
40
0.874866622944
50
30.0113188498
51
150.000025715
0
ARC
8
drawinglayer
10
0.37648741659
20
-1.22977627401
30
0
40
0.852813984431
50
30.0113188498
51
150.000025715
0
ARC
8
drawinglayer
10
0.140950411967
20
-1.75352064756
30
0
40
1.05848031955
50
140.019215515
51
150.000025715
0
ARC
8
drawinglayer
10
0.597060130793
20
-1.35637046464
30
0
40
0.922718763709
50
30.0113188498
51
89.0000167602
0
ARC
8
drawinglayer
10
0.639045852752
20
-1.65473548271
30
0
40
0.958618003767
50
30.0113188498
51
150.000025715
0
ARC
8
drawinglayer
10
0.639045852752
20
-1.71374713882
30
0
40
1.04834004381
50
30.0113188498
51
69.0000081886
0
ARC
8
drawinglayer
10
0.548101883422
20
-1.35248461368
30
0
40
0.881543800519
50
30.0113188498
51
150.000025715
0
ARC
8
drawinglayer
10
0.519157795373
20
-1.64653523688
30
0
40
0.95652740437
50
30.0113188498
51
150.000025715
0
ARC
8
drawinglayer
10
0.079952396878
20
-1.69746826097
30
0
40
1.04418780069
50
100.026761415
51
150.000025715
0
ARC
8
drawinglayer
10
0.0694588619553
20
-1.61071128156
30
0
40
0.949954467208
50
30.0113188498
51
150.000025715
0
ARC
8
drawinglayer
10
0.54959599601
20
-1.39631770741
30
0
40
0.967391571873
50
87.0206194653
51
137.999997653
0
ARC
8
drawinglayer
10
0.533629839397
20
-1.55851579025
30
0
40
1.00875185135
50
83.0099148994
51
147.000018699
0
ARC
8
drawinglayer
10
0.623490866658
20
-1.55467047723
30
0
40
1.0077731497
50
30.0113188498
51
89.0000167602
0
ARC
8
drawinglayer
10
0.358737590686
20
-1.4663788473
30
0
40
0.985257220458
50
30.0113188498
51
72.9999984438
0
ARC
8
drawinglayer
10
0.420488453203
20
-1.34065911792
30
0
40
0.953197502284
50
34.0220234157
51
72.9999984438
0
ARC
8
drawinglayer
10
0.871449853846
20
-1.31759882208
30
0
40
0.876065387695
50
30.0113188498
51
150.000025715
0
ARC
8
drawinglayer
10
0.775276490457
20
-1.23370266291
30
0
40
0.854672938465
50
30.0113188498
51
150.000025715
0
ARC
8
drawinglayer
10
0.631621618883
20
-1.10837093951
30
0
40
0.822711669569
50
30.0113188498
51
150.000025715
0
ARC
8
drawinglayer
10
0.823730909165
20
-1.40177874683
30
0
40
0.897533121667
50
30.0113188498
51
150.000025715
0
ARC
8
drawinglayer
10
0.674539713426
20
-1.17391499484
30
0
40
0.839424882476
50
30.0113188498
51
150.000025715
0
ARC
8
drawinglayer
10
0.972922104903
20
-1.62963091655
30
0
40
0.955635569725
50
30.0113188498
51
150.000025715
0
ARC
8
drawinglayer
10
1.0448190343
20
-1.64354122057
30
0
40
0.959185534905
50
30.0113188498
51
150.000025715
0
ARC
8
drawinglayer
10
1.09025048103
20
-1.57141843694
30
0
40
0.94079289312
50
30.0113188498
51
150.000025715
0
ARC
8
drawinglayer
10
1.06378499836
20
-1.48539693157
30
0
40
0.918856077288
50
30.0113188498
51
150.000025715
0
ARC
8
drawinglayer
10
1.06378499836
20
-1.54169833693
30
0
40
1.00446641215
50
30.0113188498
51
111.999975051
0
ARC
8
drawinglayer
10
0.631621618883
20
-1.16467813601
30
0
40
0.908322004427
50
30.0113188498
51
69.9999914285
0
ARC
8
drawinglayer
10
0.871449853846
20
-1.37390601858
30
0
40
0.961675722553
50
30.0113188498
51
111.999975051
0
ARC
8
drawinglayer
10
0.775276490457
20
-1.29000985941
30
0
40
0.940283273323
50
30.0113188498
51
111.999975051
0
ARC
8
drawinglayer
10
1.09025048103
20
-1.62772563344
30
0
40
1.02640322798
50
30.0113188498
51
79.9999957142
0
ARC
8
drawinglayer
10
1.0448190343
20
-1.69984841707
30
0
40
1.04479586976
50
30.0113188498
51
42.9999855865
0
ARC
8
drawinglayer
10
0.972922104903
20
-1.68593811305
30
0
40
1.04124590458
50
101.974817918
51
150.000025715
0
ARC
8
drawinglayer
10
0.823730909165
20
-1.45808015219
30
0
40
0.983143456525
50
101.974817918
51
148.000001939
0
ARC
8
drawinglayer
10
0.674539713426
20
-1.23022219134
30
0
40
0.925035217334
50
101.974817918
51
117.999989082
0
ARC
8
drawinglayer
10
0.617195903931
20
-2.13556755285
30
0
40
1.1559045679
50
30.0113188498
51
86.0000097449
0
ARC
8
drawinglayer
10
0.613228977098
20
-1.98748246372
30
0
40
1.11814058267
50
30.0113188498
51
86.0000097449
0
ARC
8
drawinglayer
10
0.609267841398
20
-1.83939737459
30
0
40
1.08038238858
50
30.0113188498
51
85.000026505
0
ARC
8
drawinglayer
10
0.601177627112
20
-3.32230990964
30
0
40
1.45853186065
50
87.0206194653
51
150.000025715
0
ARC
8
drawinglayer
10
0.590666718787
20
-2.92987950098
30
0
40
1.35846106403
50
87.0206194653
51
150.000025715
0
ARC
8
drawinglayer
10
0.59463364562
20
-3.07795879898
30
0
40
1.39621925813
50
87.0206194653
51
150.000025715
0
ARC
8
drawinglayer
10
0.598600572454
20
-3.22604388811
30
0
40
1.43398324335
50
87.0206194653
51
150.000025715
0
ARC
8
drawinglayer
10
0.61194913647
20
-1.90797019303
30
0
40
1.05796490862
50
30.0113188498
51
150.000025715
0
ARC
8
drawinglayer
10
0.648925527464
20
-3.28871554094
30
0
40
1.41006585967
50
30.0113188498
51
150.000025715
0
ARC
8
drawinglayer
10
0.625129757598
20
-2.40020500615
30
0
40
1.18348773945
50
30.0113188498
51
150.000025715
0
ARC
8
drawinglayer
10
0.619877199002
20
-2.20414616243
30
0
40
1.13349287908
50
30.0113188498
51
150.000025715
0
ARC
8
drawinglayer
10
0.673653669914
20
-2.13286888438
30
0
40
1.11531450925
50
30.0113188498
51
150.000025715
0
ARC
8
drawinglayer
10
0.741948513923
20
-2.08575800878
30
0
40
1.1033036972
50
30.0113188498
51
150.000025715
0
ARC
8
drawinglayer
10
0.818293034279
20
-2.06725533544
30
0
40
1.09858392294
50
30.0113188498
51
150.000025715
0
ARC
8
drawinglayer
10
0.895454104539
20
-2.07912716027
30
0
40
1.10161268606
50
30.0113188498
51
150.000025715
0
ARC
8
drawinglayer
10
0.966111731245
20
-2.12023842099
30
0
40
1.11209463871
50
30.0113188498
51
150.000025715
0
ARC
8
drawinglayer
10
1.00162296532
20
-2.22727595188
30
0
40
1.13938825355
50
30.0113188498
51
150.000025715
0
ARC
8
drawinglayer
10
0.940173241776
20
-2.29548972001
30
0
40
1.15678482028
50
30.0113188498
51
150.000025715
0
ARC
8
drawinglayer
10
0.865519732565
20
-2.3326861741
30
0
40
1.16627069788
50
30.0113188498
51
150.000025715
0
ARC
8
drawinglayer
10
0.785376228263
20
-2.33615506341
30
0
40
1.16715674139
50
30.0113188498
51
150.000025715
0
ARC
8
drawinglayer
10
0.708910094091
20
-2.30547942627
30
0
40
1.15933291927
50
30.0113188498
51
150.000025715
0
ARC
8
drawinglayer
10
0.702812029923
20
-2.20164439252
30
0
40
1.13285585433
50
30.0113188498
51
150.000025715
0
ARC
8
drawinglayer
10
0.783876324541
20
-2.19813496527
30
0
40
1.13195822855
50
30.0113188498
51
150.000025715
0
ARC
8
drawinglayer
10
0.855941196825
20
-2.19502512628
30
0
40
1.13116484318
50
30.0113188498
51
150.000025715
0
ARC
8
drawinglayer
10
0.926419298375
20
-2.19197898977
30
0
40
1.13038883122
50
30.0113188498
51
150.000025715
0
ARC
8
drawinglayer
10
1.00872868682
20
-2.19773537702
30
0
40
1.17118737069
50
30.0113188498
51
104.999977781
0
ARC
8
drawinglayer
10
0.972713624077
20
-2.29651475074
30
0
40
1.19637880387
50
30.0113188498
51
56.9999801274
0
ARC
8
drawinglayer
10
0.904094476561
20
-2.34920827958
30
0
40
1.2098142349
50
30.0113188498
51
35.0000050762
0
ARC
8
drawinglayer
10
0.746118130448
20
-2.35603602665
30
0
40
1.21155736625
50
138.987891484
51
148.000001939
0
ARC
8
drawinglayer
10
0.674835061263
20
-2.30938844177
30
0
40
1.19966237688
50
114.006931616
51
127.999993368
0
ARC
8
drawinglayer
10
0.706361995104
20
-2.13703270977
30
0
40
1.15570766934
50
36.0273756987
51
141.000004669
0
ARC
8
drawinglayer
10
0.77955613853
20
-2.10383213819
30
0
40
1.14724103134
50
30.0113188498
51
150.000025715
0
ARC
8
drawinglayer
10
0.857238410855
20
-2.10047907157
30
0
40
1.14638973464
50
30.0113188498
51
150.000025715
0
ARC
8
drawinglayer
10
0.932036698417
20
-2.12728623114
30
0
40
1.15322327283
50
30.0113188498
51
137.999997653
0
ARC
8
drawinglayer
10
1.03456293587
20
-0.450706590745
30
0
40
0.726254540611
50
30.0113188498
51
94.999973495
0
ARC
8
drawinglayer
10
0.0394607875074
20
-0.53481702188
30
0
40
0.747704901182
50
78.9992103335
51
150.000025715
0
ARC
8
drawinglayer
10
1.07095442233
20
-0.551061152928
30
0
40
0.751845562037
50
30.0113188498
51
83.9999859694
0
ARC
8
drawinglayer
10
1.05825446533
20
-0.630393898461
30
0
40
0.77207399332
50
30.0113188498
51
75.0000222193
0
ARC
8
drawinglayer
10
0.844248897151
20
-0.82499337639
30
0
40
0.821698221108
50
30.0113188498
51
55.9999968876
0
ARC
8
drawinglayer
10
0.746233953129
20
-0.905368526055
30
0
40
0.842198835692
50
30.0113188498
51
55.9999968876
0
ARC
8
drawinglayer
10
0.627284059469
20
-1.00290859708
30
0
40
0.867071756494
50
74.9885057676
51
110.000008572
0
ARC
8
drawinglayer
10
0.627284059469
20
-1.00290859708
30
0
40
0.867071756494
50
30.0113188498
51
55.9999968876
0
ARC
8
drawinglayer
10
0.279236902264
20
-0.868258938977
30
0
40
0.832736122633
50
122.028340748
51
150.000025715
0
ARC
8
drawinglayer
10
0.383587346951
20
-0.934532677198
30
0
40
0.84963465183
50
120.997016717
51
150.000025715
0
ARC
8
drawinglayer
10
0.499902274613
20
-1.00841017444
30
0
40
0.868473210938
50
120.997016717
51
150.000025715
0
ARC
8
drawinglayer
10
0.499902274613
20
-1.00841017444
30
0
40
0.868473210938
50
63.9877161011
51
96.9999972705
0
ARC
8
drawinglayer
10
0.0478058116926
20
-0.702632504767
30
0
40
0.790495590775
50
98.9954373836
51
150.000025715
0
ARC
8
drawinglayer
10
0.0259269072014
20
-0.620143591169
30
0
40
0.769462191857
50
89.0259717483
51
150.000025715
0
ARC
8
drawinglayer
10
0.0847764115527
20
-0.469510403048
30
0
40
0.731049599615
50
59.9770115351
51
150.000025715
0
ARC
8
drawinglayer
10
0.149735562341
20
-0.441730332947
30
0
40
0.723967042656
50
30.0113188498
51
150.000025715
0
ARC
8
drawinglayer
10
0.216924299743
20
-0.458906836579
30
0
40
0.728345140008
50
30.0113188498
51
127.000010128
0
ARC
8
drawinglayer
10
0.367870209103
20
-0.735804120681
30
0
40
0.798956437642
50
34.9960516674
51
96.9999972705
0
ARC
8
drawinglayer
10
0.429001420276
20
-0.862010305323
30
0
40
0.831137769632
50
41.986136768
51
96.9999972705
0
ARC
8
drawinglayer
10
0.0161225172322
20
-1.06326379629
30
0
40
0.882458799701
50
81.0045626164
51
150.000025715
0
ARC
8
drawinglayer
10
0.0572858981542
20
-0.994801009395
30
0
40
0.865004321634
50
59.0029832834
51
150.000025715
0
ARC
8
drawinglayer
10
0.306020897307
20
-1.16152775908
30
0
40
0.907517036793
50
30.0113188498
51
38.0000120915
0
ARC
8
drawinglayer
10
0.475689543094
20
-1.09043579732
30
0
40
0.889390787174
50
85.0152671824
51
145.999978164
0
ARC
8
drawinglayer
10
0.0638935821205
20
-1.24150911163
30
0
40
0.927913410963
50
116.012283899
51
150.000025715
0
ARC
8
drawinglayer
10
0.0191628626155
20
-1.17675844166
30
0
40
0.911402887749
50
96.9900851006
51
150.000025715
0
ARC
8
drawinglayer
10
0.305082733589
20
-1.04324384583
30
0
40
0.877356810591
50
30.0113188498
51
145.999978164
0
ARC
8
drawinglayer
10
0.7462629088
20
-0.718697110658
30
0
40
0.794595713692
50
74.9885057676
51
135.999973878
0
ARC
8
drawinglayer
10
0.691496153963
20
-0.849524620283
30
0
40
0.827958437031
50
74.9885057676
51
128.999976607
0
ARC
8
drawinglayer
10
0.880055479064
20
-0.430240722965
30
0
40
0.72103672882
50
54.0182504658
51
150.000025715
0
ARC
8
drawinglayer
10
0.940503336417
20
-0.404539669992
30
0
40
0.71448116506
50
30.0113188498
51
150.000025715
0
ARC
8
drawinglayer
10
0.562701332395
20
-0.972151884073
30
0
40
0.859224769839
50
92.9793805347
51
134.000007398
0
ARC
8
drawinglayer
10
0.562701332395
20
-0.972151884073
30
0
40
0.859224769839
50
39.9807844851
51
79.0000124744
0
ARC
8
drawinglayer
10
0.655834350401
20
-1.02814635933
30
0
40
0.804533299745
50
30.0113188498
51
150.000025715
0
ARC
8
drawinglayer
10
0.627284059469
20
-0.948402443279
30
0
40
0.784200628048
50
30.0113188498
51
150.000025715
0
ARC
8
drawinglayer
10
0.562701332395
20
-0.917651521403
30
0
40
0.776359432527
50
30.0113188498
51
150.000025715
0
ARC
8
drawinglayer
10
0.499902274613
20
-0.95390402064
30
0
40
0.785602082492
50
30.0113188498
51
150.000025715
0
ARC
8
drawinglayer
10
0.475689543094
20
-1.03592964351
30
0
40
0.806519658728
50
30.0113188498
51
145.999978164
0
ARC
8
drawinglayer
10
0.655834350401
20
-1.08265251314
30
0
40
0.887404428191
50
30.0113188498
51
86.9999929847
0
ARC
8
drawinglayer
10
0.7462629088
20
-0.665991999548
30
0
40
0.714463791658
50
30.0113188498
51
150.000025715
0
ARC
8
drawinglayer
10
0.691496153963
20
-0.796825300306
30
0
40
0.747826514997
50
30.0113188498
51
150.000025715
0
ARC
8
drawinglayer
10
0.844248897151
20
-0.772294056414
30
0
40
0.741572090208
50
30.0113188498
51
150.000025715
0
ARC
8
drawinglayer
10
0.746233953129
20
-0.852669206079
30
0
40
0.762066913659
50
30.0113188498
51
150.000025715
0
ARC
8
drawinglayer
10
1.04028457633
20
-0.611543757085
30
0
40
0.700576652174
50
30.0113188498
51
150.000025715
0
ARC
8
drawinglayer
10
1.06871904458
20
-0.539090878819
30
0
40
0.682102934512
50
30.0113188498
51
150.000025715
0
ARC
8
drawinglayer
10
1.06481582022
20
-0.458287185234
30
0
40
0.661498079515
50
30.0113188498
51
150.000025715
0
ARC
8
drawinglayer
10
1.02962309852
20
-0.390791517726
30
0
40
0.644286829079
50
30.0113188498
51
150.000025715
0
ARC
8
drawinglayer
10
0.97257463686
20
-0.354683796841
30
0
40
0.635078925918
50
30.0113188498
51
150.000025715
0
ARC
8
drawinglayer
10
0.908947446906
20
-0.359635216465
30
0
40
0.636341393144
50
30.0113188498
51
150.000025715
0
ARC
8
drawinglayer
10
0.855796418473
20
-0.404331189166
30
0
40
0.647738344981
50
30.0113188498
51
150.000025715
0
ARC
8
drawinglayer
10
0.819885596147
20
-0.987035098616
30
0
40
0.793767581521
50
30.0113188498
51
150.000025715
0
ARC
8
drawinglayer
10
0.823117048954
20
-1.06139325999
30
0
40
0.812727754444
50
30.0113188498
51
150.000025715
0
ARC
8
drawinglayer
10
1.05362155808
20
-1.1075196428
30
0
40
0.824489547727
50
30.0113188498
51
150.000025715
0
ARC
8
drawinglayer
10
1.09170405568
20
-1.03493935959
30
0
40
0.805981083261
50
30.0113188498
51
150.000025715
0
ARC
8
drawinglayer
10
1.07137717511
20
-0.951633896087
30
0
40
0.784739203516
50
30.0113188498
51
150.000025715
0
ARC
8
drawinglayer
10
1.04886703701
20
-0.984695480454
30
0
40
0.862427266976
50
30.0113188498
51
150.000025715
0
ARC
8
drawinglayer
10
0.819885596147
20
-1.04176710665
30
0
40
0.876980386877
50
30.0113188498
51
147.000018699
0
ARC
8
drawinglayer
10
1.09074272742
20
-1.05382424777
30
0
40
0.880055479064
50
30.0113188498
51
86.9999929847
0
ARC
8
drawinglayer
10
1.07492134916
20
-1.13869331747
30
0
40
0.901696947059
50
30.0113188498
51
66.9999844132
0
ARC
8
drawinglayer
10
0.503625973815
20
-0.701277379396
30
0
40
0.721465272741
50
30.0113188498
51
150.000025715
0
ARC
8
drawinglayer
10
0.541812711829
20
-0.841289627645
30
0
40
0.757167614241
50
30.0113188498
51
150.000025715
0
ARC
8
drawinglayer
10
0.612852553383
20
-0.695370422651
30
0
40
0.719959577884
50
30.0113188498
51
150.000025715
0
ARC
8
drawinglayer
10
0.677070439011
20
-0.410475582407
30
0
40
0.64730980106
50
30.0113188498
51
150.000025715
0
ARC
8
drawinglayer
10
0.626172161729
20
-0.332283690284
30
0
40
0.62737092648
50
30.0113188498
51
150.000025715
0
ARC
8
drawinglayer
10
0.54919640776
20
-0.305152227198
30
0
40
0.620450521274
50
30.0113188498
51
150.000025715
0
ARC
8
drawinglayer
10
0.473847962462
20
-0.338856627446
30
0
40
0.629044564224
50
30.0113188498
51
150.000025715
0
ARC
8
drawinglayer
10
0.427252497789
20
-0.421264465167
30
0
40
0.65006058974
50
30.0113188498
51
150.000025715
0
ARC
8
drawinglayer
10
0.427252497789
20
-0.475544764742
30
0
40
0.732590041276
50
79.9732385852
51
150.000025715
0
ARC
8
drawinglayer
10
0.503625973815
20
-0.755557678971
30
0
40
0.803994724277
50
92.9793805347
51
144.000011684
0
ARC
8
drawinglayer
10
0.541812711829
20
-0.89556992722
30
0
40
0.839697065777
50
92.9793805347
51
137.999997653
0
ARC
8
drawinglayer
10
0.473847962462
20
-0.393136927022
30
0
40
0.711574015761
50
61.9823638181
51
150.000025715
0
ARC
8
drawinglayer
10
0.54919640776
20
-0.359432526773
30
0
40
0.702979972811
50
30.0113188498
51
150.000025715
0
ARC
8
drawinglayer
10
0.626172161729
20
-0.386558198726
30
0
40
0.709894586882
50
30.0113188498
51
111.999975051
0
ARC
8
drawinglayer
10
0.677070439011
20
-0.464750090848
30
0
40
0.729833461462
50
30.0113188498
51
93.0000070153
0
ARC
8
drawinglayer
10
0.612852553383
20
-0.749650722227
30
0
40
0.80248902942
50
30.0113188498
51
79.0000124744
0
ARC
8
drawinglayer
10
0.279236902264
20
-0.817806579018
30
0
40
0.756026760831
50
30.0113188498
51
150.000025715
0
ARC
8
drawinglayer
10
0.383587346951
20
-0.884080317238
30
0
40
0.772925290027
50
30.0113188498
51
150.000025715
0
ARC
8
drawinglayer
10
0.367870209103
20
-0.685351760722
30
0
40
0.722247075839
50
30.0113188498
51
150.000025715
0
ARC
8
drawinglayer
10
0.429001420276
20
-0.811557945364
30
0
40
0.754434198963
50
30.0113188498
51
150.000025715
0
ARC
8
drawinglayer
10
0.245619369027
20
-0.432939391439
30
0
40
0.65788441186
50
30.0113188498
51
150.000025715
0
ARC
8
drawinglayer
10
0.184221765688
20
-0.394248824762
30
0
40
0.648016319416
50
30.0113188498
51
150.000025715
0
ARC
8
drawinglayer
10
0.115816890132
20
-0.399738819854
30
0
40
0.649417773859
50
30.0113188498
51
150.000025715
0
ARC
8
drawinglayer
10
0.065225542955
20
-0.440728466754
30
0
40
0.659870770843
50
30.0113188498
51
150.000025715
0
ARC
8
drawinglayer
10
0.0282723164971
20
-0.525898675423
30
0
40
0.681587523581
50
30.0113188498
51
150.000025715
0
ARC
8
drawinglayer
10
0.0325925025083
20
-0.612765686372
30
0
40
0.703738611373
50
30.0113188498
51
150.000025715
0
ARC
8
drawinglayer
10
0.0705360128911
20
-0.685253311443
30
0
40
0.722223911303
50
30.0113188498
51
150.000025715
0
ARC
8
drawinglayer
10
0.306020897307
20
-1.10274774833
30
0
40
0.818142464794
50
30.0113188498
51
150.000025715
0
ARC
8
drawinglayer
10
0.41682266534
20
-1.05632022655
30
0
40
0.806305386768
50
30.0113188498
51
150.000025715
0
ARC
8
drawinglayer
10
0.305082733589
20
-0.984463835092
30
0
40
0.787982238592
50
30.0113188498
51
150.000025715
0
ARC
8
drawinglayer
10
0.0770799943826
20
-0.921404176276
30
0
40
0.771900259298
50
30.0113188498
51
150.000025715
0
ARC
8
drawinglayer
10
0.0262106727705
20
-0.978365770923
30
0
40
0.786424423529
50
30.0113188498
51
150.000025715
0
ARC
8
drawinglayer
10
0.00876777697184
20
-1.06161332308
30
0
40
0.807654721005
50
30.0113188498
51
150.000025715
0
ARC
8
drawinglayer
10
0.0306235169268
20
-1.14315249069
30
0
40
0.828444892292
50
30.0113188498
51
150.000025715
0
ARC
8
drawinglayer
10
0.0844289435089
20
-1.19560279191
30
0
40
0.841822411978
50
30.0113188498
51
150.000025715
0
ARC
8
drawinglayer
10
0.296980937034
20
-1.53510802637
30
0
40
0.930675781912
50
30.0113188498
51
150.000025715
0
ARC
8
drawinglayer
10
0.18698992777
20
-1.45968429633
30
0
40
0.98354883591
50
59.9770115351
51
150.000025715
0
ARC
8
drawinglayer
10
0.18698992777
20
-1.40270532828
30
0
40
0.896913470323
50
30.0113188498
51
150.000025715
0
ARC
8
drawinglayer
10
0.623490866658
20
-1.49565302999
30
0
40
0.918051109654
50
30.0113188498
51
150.000025715
0
ARC
8
drawinglayer
10
0.533629839397
20
-1.49950992528
30
0
40
0.919035602444
50
30.0113188498
51
150.000025715
0
ARC
8
drawinglayer
10
0.296980937034
20
-1.59209278555
30
0
40
1.01731693863
50
30.0113188498
51
72.9999984438
0
ARC
8
drawinglayer
10
0.967617426102
20
-1.40149498126
30
0
40
0.897457836925
50
30.0113188498
51
150.000025715
0
ARC
8
drawinglayer
10
0.898326507034
20
-1.51570772725
30
0
40
0.926587241263
50
30.0113188498
51
150.000025715
0
ARC
8
drawinglayer
10
0.967617426102
20
-1.45779638662
30
0
40
0.983068171782
50
30.0113188498
51
111.999975051
0
ARC
8
drawinglayer
10
0.898326507034
20
-1.57201492375
30
0
40
1.01219757612
50
101.974817918
51
150.000025715
0
ARC
8
drawinglayer
10
0.64495860063
20
-3.17215738565
30
0
40
1.42024088222
50
30.0113188498
51
86.0000097449
0
ARC
8
drawinglayer
10
0.640991673797
20
-3.02407808765
30
0
40
1.38248268813
50
30.0113188498
51
86.0000097449
0
ARC
8
drawinglayer
10
0.637030538098
20
-2.87599299852
30
0
40
1.3447187029
50
30.0113188498
51
86.0000097449
0
ARC
8
drawinglayer
10
0.633063611264
20
-2.72790790939
30
0
40
1.30695471767
50
30.0113188498
51
86.0000097449
0
ARC
8
drawinglayer
10
0.629096684431
20
-2.57981702912
30
0
40
1.26919073245
50
30.0113188498
51
86.0000097449
0
ARC
8
drawinglayer
10
0.562904022087
20
-1.89327808591
30
0
40
1.09411895858
50
87.0206194653
51
150.000025715
0
ARC
8
drawinglayer
10
0.566870948921
20
-2.04136317505
30
0
40
1.13188294381
50
87.0206194653
51
150.000025715
0
ARC
8
drawinglayer
10
0.570837875754
20
-2.18945405531
30
0
40
1.16964692903
50
87.0206194653
51
150.000025715
0
ARC
8
drawinglayer
10
0.574804802587
20
-2.33753914445
30
0
40
1.20741091426
50
87.0206194653
51
150.000025715
0
ARC
8
drawinglayer
10
0.578765938287
20
-2.48561844245
30
0
40
1.24516910835
50
87.0206194653
51
150.000025715
0
ARC
8
drawinglayer
10
0.58273286512
20
-2.63370353158
30
0
40
1.28293309358
50
87.0206194653
51
150.000025715
0
ARC
8
drawinglayer
10
0.586699791954
20
-2.78178862071
30
0
40
1.32069707881
50
87.0206194653
51
150.000025715
0
ARC
8
drawinglayer
10
0.615910272169
20
-2.05605528217
30
0
40
1.09572889385
50
30.0113188498
51
150.000025715
0
ARC
8
drawinglayer
10
0.942269632306
20
-0.744618226726
30
0
40
0.801203397658
50
30.0113188498
51
55.9999968876
0
ARC
8
drawinglayer
10
0.174886457578
20
-0.801985200757
30
0
40
0.815831802302
50
122.028340748
51
150.000025715
0
ARC
8
drawinglayer
10
0.306744789065
20
-0.60959793604
30
0
40
0.766775105652
50
30.0113188498
51
96.9999972705
0
ARC
8
drawinglayer
10
0.195224920408
20
-1.207961072
30
0
40
0.919359905952
50
30.0113188498
51
38.9999953314
0
ARC
8
drawinglayer
10
0.191084259553
20
-1.01171112086
30
0
40
0.869312925377
50
30.0113188498
51
147.000018699
0
ARC
8
drawinglayer
10
0.801029663636
20
-0.5878638099
30
0
40
0.761232990353
50
74.9885057676
51
141.000004669
0
ARC
8
drawinglayer
10
0.801029663636
20
-0.53515869879
30
0
40
0.681101068319
50
30.0113188498
51
150.000025715
0
ARC
8
drawinglayer
10
0.942269632306
20
-0.691913115616
30
0
40
0.721071475624
50
30.0113188498
51
150.000025715
0
ARC
8
drawinglayer
10
0.934376316578
20
-0.958502181086
30
0
40
0.786488126003
50
30.0113188498
51
150.000025715
0
ARC
8
drawinglayer
10
0.938366407948
20
-1.08445355583
30
0
40
0.818605755519
50
30.0113188498
51
150.000025715
0
ARC
8
drawinglayer
10
0.934376316578
20
-1.01322839798
30
0
40
0.869700931359
50
30.0113188498
51
150.000025715
0
ARC
8
drawinglayer
10
0.465439235802
20
-0.561270922282
30
0
40
0.68576293124
50
30.0113188498
51
150.000025715
0
ARC
8
drawinglayer
10
0.64495860063
20
-0.552920106962
30
0
40
0.683631793905
50
30.0113188498
51
150.000025715
0
ARC
8
drawinglayer
10
0.465439235802
20
-0.615551221857
30
0
40
0.768292382777
50
92.9793805347
51
148.999985179
0
ARC
8
drawinglayer
10
0.64495860063
20
-0.607200406538
30
0
40
0.766161245441
50
30.0113188498
51
79.0000124744
0
ARC
8
drawinglayer
10
0.174886457578
20
-0.751532840797
30
0
40
0.739128231634
50
30.0113188498
51
150.000025715
0
ARC
8
drawinglayer
10
0.306744789065
20
-0.55914557608
30
0
40
0.690065743849
50
30.0113188498
51
150.000025715
0
ARC
8
drawinglayer
10
0.195224920408
20
-1.14916947899
30
0
40
0.829979542819
50
30.0113188498
51
150.000025715
0
ARC
8
drawinglayer
10
0.191084259553
20
-0.952931110117
30
0
40
0.779938353378
50
30.0113188498
51
150.000025715
0
ENDSEC
0
EOF
