0
SECTION
2
HEADER
9
$ACADVER
1
AC1006
9
$INSBASE
10
0.0
20
0.0
30
0.0
9
$EXTMIN
10
0.0
20
0.0
9
$EXTMAX
10
0.0
20
0.0
0
ENDSEC
0
SECTION
2
TABLES
0
TABLE
2
LTYPE
70
1
0
LTYPE
2
CONTINUOUS
70
64
3
Solid line
72
65
73
0
40
0.0
0
ENDTAB
0
TABLE
2
LAYER
70
1
0
LAYER
2
PYDXF
70
64
62
7
6
continuous
0
ENDTAB
0
TABLE
2
STYLE
70
1
0
STYLE
2
STANDARD
70
0
40
0
41
40
50
50
71
0
42
1
3
ARIAL.TTF
4

0
ENDTAB
0
TABLE
2
VIEW
70
0
0
ENDTAB
0
ENDSEC
0
SECTION
2
BLOCKS
0
ENDSEC
0
SECTION
2
ENTITIES
0
ARC
8
drawinglayer
10
0.0372599884706
20
1.30806837834
30
0
40
0.168362822048
50
31.3291217786
51
149.722771437
0
ARC
8
drawinglayer
10
0.13126912332
20
1.27648441311
30
0
40
0.175036583744
50
31.5010091171
51
149.813241473
0
ARC
8
drawinglayer
10
0.513946166467
20
1.79713759922
30
0
40
0.0650192896102
50
31.7301922352
51
150.431462934
0
ARC
8
drawinglayer
10
0.562602545342
20
1.8858143763
30
0
40
0.0462728925547
50
31.7301922352
51
150.518036857
0
ARC
8
drawinglayer
10
0.611270010199
20
1.9744800674
30
0
40
0.027537581482
50
31.7301922352
51
150.604381597
0
ARC
8
drawinglayer
10
0.659926389074
20
2.06315684449
30
0
40
0.00880227040929
50
31.7874880147
51
150.690497153
0
ARC
8
drawinglayer
10
0.708593853931
20
2.15183362157
30
0
40
0.00994412664627
50
211.787488015
51
330.776440823
0
ARC
8
drawinglayer
10
0.757250232806
20
2.24049931267
30
0
40
0.0286794377189
50
211.844783794
51
330.862098013
0
ARC
8
drawinglayer
10
0.807491907232
20
2.33204735932
30
0
40
0.0480244778502
50
211.844783794
51
330.950390809
0
ARC
8
drawinglayer
10
0.807491907232
20
2.27036495056
30
0
40
0.0362400780453
50
97.7349302343
51
150.793457669
0
ARC
8
drawinglayer
10
0.807491907232
20
2.20810607068
30
0
40
0.121291738726
50
97.7349302343
51
150.635493205
0
ARC
8
drawinglayer
10
0.225588665691
20
1.30670480245
30
0
40
0.168651057603
50
31.5583048967
51
149.927947624
0
ARC
8
drawinglayer
10
0.225588665691
20
1.24502239369
30
0
40
0.252915613498
50
31.7301922352
51
74.6230159901
0
ARC
8
drawinglayer
10
0.225588665691
20
1.18275242783
30
0
40
0.337978360161
50
31.9020795737
51
74.6719465858
0
ARC
8
drawinglayer
10
0.905636113698
20
1.26356924305
30
0
40
0.172675269389
50
32.3604458098
51
150.642540586
0
ARC
8
drawinglayer
10
0.930047448007
20
1.20115515942
30
0
40
0.254888918452
50
150.51637528
51
150.561638945
0
ARC
8
drawinglayer
10
0.881967540242
20
1.14302026518
30
0
40
0.346370449204
50
113.4912696
51
150.29807836
0
ARC
8
drawinglayer
10
0.13126912332
20
1.21480200435
30
0
40
0.259301139639
50
141.7380889
51
149.655277009
0
ARC
8
drawinglayer
10
0.13126912332
20
1.21480200435
30
0
40
0.259301139639
50
31.6156006762
51
36.6270906228
0
ARC
8
drawinglayer
10
0.13126912332
20
1.15253203849
30
0
40
0.344363886302
50
141.623497341
51
149.496281221
0
ARC
8
drawinglayer
10
0.13126912332
20
1.15253203849
30
0
40
0.344363886302
50
31.7874880147
51
36.775945058
0
ARC
8
drawinglayer
10
-0
20
1.67118974768
30
0
40
0.09162564853
50
31.1572344401
51
149.82659139
0
ARC
8
drawinglayer
10
-0
20
1.60950733892
30
0
40
0.175890204426
50
74.1290690749
51
149.667652898
0
ARC
8
drawinglayer
10
-0
20
1.54723737307
30
0
40
0.260952951089
50
74.1863648544
51
149.507683081
0
ARC
8
drawinglayer
10
0.371402598554
20
1.85119285176
30
0
40
0.196720766263
50
74.8739142085
51
150.033028084
0
ARC
8
drawinglayer
10
0.443938184559
20
1.9105582901
30
0
40
0.184171433639
50
75.0458015471
51
150.134327022
0
ARC
8
drawinglayer
10
0.516473770564
20
1.96991264245
30
0
40
0.171633186998
50
75.2176888856
51
150.235167594
0
ARC
8
drawinglayer
10
0.588998270587
20
2.02927808079
30
0
40
0.159083854375
50
75.3322804447
51
150.335549799
0
ARC
8
drawinglayer
10
0.661533856592
20
2.08863243315
30
0
40
0.146545607734
50
75.5041677832
51
150.435530935
0
ARC
8
drawinglayer
10
0.734058356614
20
2.14799787149
30
0
40
0.13399627511
50
75.6187593422
51
150.535110999
0
ARC
8
drawinglayer
10
0.371402598554
20
1.97515631236
30
0
40
0.0273934637045
50
31.5010091171
51
150.350102927
0
ARC
8
drawinglayer
10
0.443938184559
20
2.03451066472
30
0
40
0.0148552170635
50
31.5583048967
51
150.451058091
0
ARC
8
drawinglayer
10
0.516473770564
20
2.09387610306
30
0
40
0.00230588443971
50
31.6156006762
51
150.551497592
0
ARC
8
drawinglayer
10
0.588998270587
20
2.15323045541
30
0
40
0.0102323622012
50
211.672896456
51
330.651593319
0
ARC
8
drawinglayer
10
0.0372599884706
20
1.2463748836
30
0
40
0.252627377943
50
104.954198453
51
149.564463199
0
ARC
8
drawinglayer
10
0.0372599884706
20
1.18410491774
30
0
40
0.337690124606
50
104.896902673
51
149.405123636
0
ARC
8
drawinglayer
10
0.974147487916
20
1.86615892865
30
0
40
0.125105316837
50
32.3604458098
51
91.1274090535
0
ARC
8
drawinglayer
10
0.960267837346
20
1.97164205578
30
0
40
0.102811405259
50
32.3031500303
51
91.0980736144
0
ARC
8
drawinglayer
10
0.946388186777
20
2.07711409694
30
0
40
0.0805285796639
50
32.2458542508
51
91.0687381753
0
ARC
8
drawinglayer
10
0.929493148863
20
2.20550086471
30
0
40
0.0533900935657
50
137.326313878
51
147.97989112
0
ARC
8
drawinglayer
10
0.929493148863
20
2.20550086471
30
0
40
0.0533900935657
50
32.1885584713
51
43.4853954306
0
ARC
8
drawinglayer
10
1.03755931001
20
1.32279056361
30
0
40
0.160159194714
50
32.5323331484
51
150.802052036
0
ARC
8
drawinglayer
10
1.03755931001
20
1.26110815485
30
0
40
0.24442375061
50
32.7042204869
51
81.326908672
0
ARC
8
drawinglayer
10
1.03755931001
20
1.19443705379
30
0
40
0.335506185978
50
32.8761078255
51
81.3568170689
0
ARC
8
drawinglayer
10
0.822535586005
20
1.32279056361
30
0
40
0.160159194714
50
32.2458542508
51
150.579171454
0
ARC
8
drawinglayer
10
0.980411068245
20
1.88759921955
30
0
40
0.0408075029932
50
32.2458542508
51
150.963740726
0
ARC
8
drawinglayer
10
0.966531417675
20
1.99308234668
30
0
40
0.018513591415
50
32.1885584713
51
150.990784334
0
ARC
8
drawinglayer
10
0.952651767106
20
2.09856547381
30
0
40
0.00378032016319
50
212.073966912
51
331.017885238
0
ARC
8
drawinglayer
10
0.938772116536
20
2.20403751497
30
0
40
0.0260631457585
50
212.016671133
51
331.044986141
0
ARC
8
drawinglayer
10
0.879051926744
20
1.88773225134
30
0
40
0.0407742450446
50
32.0739669123
51
150.859233224
0
ARC
8
drawinglayer
10
0.808611591504
20
1.28580772471
30
0
40
0.239202252672
50
88.7967886302
51
150.418514088
0
ARC
8
drawinglayer
10
0.808611591504
20
1.21911445169
30
0
40
0.330295774023
50
88.7967886302
51
150.250637454
0
ARC
8
drawinglayer
10
-0.0312624717307
20
1.39297592125
30
0
40
0.150425701743
50
31.2718259991
51
149.681174702
0
ARC
8
drawinglayer
10
-0.0312624717307
20
1.33130459847
30
0
40
0.234679171655
50
94.8701412586
51
149.522465392
0
ARC
8
drawinglayer
10
-0.0312624717307
20
1.26903463261
30
0
40
0.319741918318
50
94.8701412586
51
149.362782055
0
ARC
8
drawinglayer
10
-0.0559398696288
20
1.50849186289
30
0
40
0.126014367434
50
31.1572344401
51
149.700025013
0
ARC
8
drawinglayer
10
-0.0559398696288
20
1.44679836814
30
0
40
0.210278923329
50
88.9113801893
51
149.541086521
0
ARC
8
drawinglayer
10
-0.0559398696288
20
1.38452840229
30
0
40
0.295341669992
50
88.9113801893
51
149.381174
0
ARC
8
drawinglayer
10
0.88268812913
20
1.84652565296
30
0
40
0.129251474436
50
88.9686759688
51
150.698976929
0
ARC
8
drawinglayer
10
0.822358210279
20
1.32461975079
30
0
40
0.308001862445
50
88.7967886302
51
150.306099769
0
ARC
8
drawinglayer
10
0.836115915037
20
1.43013613587
30
0
40
0.285696864884
50
88.8540844097
51
150.361619379
0
ARC
8
drawinglayer
10
0.849873619795
20
1.53564143497
30
0
40
0.263402953306
50
88.8540844097
51
150.417081694
0
ARC
8
drawinglayer
10
0.863631324553
20
1.64113564809
30
0
40
0.241109041728
50
88.9113801893
51
150.472544008
0
ARC
8
drawinglayer
10
1.03760365394
20
1.32459757882
30
0
40
0.308001862445
50
32.8188120459
51
91.2568975152
0
ARC
8
drawinglayer
10
1.02372400337
20
1.43008070596
30
0
40
0.285707950867
50
32.7615162664
51
91.2279058507
0
ARC
8
drawinglayer
10
1.0098443528
20
1.53555274711
30
0
40
0.263425125272
50
32.7042204869
51
91.1988568905
0
ARC
8
drawinglayer
10
0.99596470223
20
1.64103587424
30
0
40
0.241131213693
50
32.6469247074
51
91.1698079303
0
ARC
8
drawinglayer
10
0.982085051661
20
1.74651900137
30
0
40
0.218837302115
50
32.5896289279
51
91.1406443785
0
ARC
8
drawinglayer
10
0.513946166467
20
1.6731852246
30
0
40
0.234335506186
50
32.0166711328
51
82.1845691955
0
ARC
8
drawinglayer
10
0.562602545342
20
1.7618509157
30
0
40
0.215600195113
50
32.0739669123
51
82.2840346688
0
ARC
8
drawinglayer
10
0.611270010199
20
1.85052769279
30
0
40
0.196864884041
50
32.0739669123
51
82.3837293251
0
ARC
8
drawinglayer
10
0.659926389074
20
1.93920446987
30
0
40
0.178118486985
50
37.1732912889
51
82.4835958688
0
ARC
8
drawinglayer
10
1.49960090462
20
1.92542459314
30
0
40
0.0395991308589
50
32.8761078255
51
151.491033785
0
ARC
8
drawinglayer
10
1.42941554698
20
1.98888075917
30
0
40
0.0261961775531
50
32.7615162664
51
151.445655527
0
ARC
8
drawinglayer
10
1.35924127533
20
2.05233692519
30
0
40
0.0127821382644
50
32.6469247074
51
151.400048087
0
ARC
8
drawinglayer
10
1.2890559177
20
2.11579309122
30
0
40
0.000631901024345
50
212.532333148
51
331.354268759
0
ARC
8
drawinglayer
10
1.21887056006
20
2.17923817126
30
0
40
0.0140348543302
50
212.417741589
51
331.308202952
0
ARC
8
drawinglayer
10
1.14868520243
20
2.24270542326
30
0
40
0.0274488936189
50
212.30315003
51
331.261965258
0
ARC
8
drawinglayer
10
1.05148330451
20
2.33058400958
30
0
40
0.0460179149483
50
212.131262692
51
331.197507506
0
ARC
8
drawinglayer
10
1.40399538823
20
1.77392355106
30
0
40
0.0716154494257
50
32.8188120459
51
151.336908138
0
ARC
8
drawinglayer
10
1.35052769279
20
1.85834331072
30
0
40
0.0537781029666
50
32.7042204869
51
151.315995178
0
ARC
8
drawinglayer
10
1.29707108332
20
1.94276307037
30
0
40
0.0359407565075
50
32.5896289279
51
151.295024923
0
ARC
8
drawinglayer
10
1.67775264955
20
1.34160347656
30
0
40
0.162975034367
50
33.3344740616
51
151.442676147
0
ARC
8
drawinglayer
10
1.77903418917
20
1.30105095118
30
0
40
0.171544499135
50
33.4490656206
51
151.526900943
0
ARC
8
drawinglayer
10
1.87406323445
20
1.36007272405
30
0
40
0.159072768392
50
33.5636571796
51
151.642523826
0
ARC
8
drawinglayer
10
1.90717706532
20
1.48411378653
30
0
40
0.132865504856
50
33.5636571796
51
151.722222255
0
ARC
8
drawinglayer
10
1.85897521174
20
1.60050552082
30
0
40
0.108265708838
50
33.4490656206
51
151.719758537
0
ARC
8
drawinglayer
10
1.85897521174
20
1.53881202607
30
0
40
0.192530264733
50
33.6209529591
51
103.853489233
0
ARC
8
drawinglayer
10
1.05148330451
20
2.26890160082
30
0
40
0.0382466409472
50
32.3031500303
51
82.2930874019
0
ARC
8
drawinglayer
10
1.49960090462
20
1.80293556827
30
0
40
0.206919870516
50
33.162586723
51
103.096611985
0
ARC
8
drawinglayer
10
1.42941554698
20
1.86640282027
30
0
40
0.193505831227
50
33.047995164
51
102.956122734
0
ARC
8
drawinglayer
10
1.35924127533
20
1.92984790031
30
0
40
0.180102877921
50
32.933403605
51
102.815347004
0
ARC
8
drawinglayer
10
1.2890559177
20
1.99330406634
30
0
40
0.166688838632
50
32.8188120459
51
102.674284795
0
ARC
8
drawinglayer
10
1.21887056006
20
2.05676023236
30
0
40
0.153274799344
50
32.7042204869
51
102.532936106
0
ARC
8
drawinglayer
10
1.14868520243
20
2.12021639839
30
0
40
0.139871846038
50
32.5896289279
51
102.391243644
0
ARC
8
drawinglayer
10
1.88325351426
20
1.4448804931
30
0
40
0.282581703694
50
33.7928402977
51
98.9791653822
0
ARC
8
drawinglayer
10
1.90717706532
20
1.42243137777
30
0
40
0.217118974768
50
33.7355445182
51
92.1582174227
0
ARC
8
drawinglayer
10
1.90520376037
20
1.31719214226
30
0
40
0.309564986032
50
33.9074318567
51
89.184050804
0
ARC
8
drawinglayer
10
1.87406323445
20
1.29839031529
30
0
40
0.243337324287
50
33.7355445182
51
82.1408525157
0
ARC
8
drawinglayer
10
1.85897521174
20
1.22103232673
30
0
40
0.329885592657
50
33.8501360772
51
77.1321127665
0
ARC
8
drawinglayer
10
1.77903418917
20
1.23936854241
30
0
40
0.255809055031
50
33.6209529591
51
48.2817397252
0
ARC
8
drawinglayer
10
1.74273868121
20
1.18097867057
30
0
40
0.338355283579
50
121.913749189
51
151.18971528
0
ARC
8
drawinglayer
10
1.67775264955
20
1.2799210678
30
0
40
0.247239590262
50
99.5683951787
51
151.289868303
0
ARC
8
drawinglayer
10
1.40399538823
20
1.65143452619
30
0
40
0.238936189083
50
98.9954373836
51
151.031120563
0
ARC
8
drawinglayer
10
1.35052769279
20
1.73585428584
30
0
40
0.221098842623
50
98.8808458245
51
151.009691941
0
ARC
8
drawinglayer
10
1.29707108332
20
1.82028513148
30
0
40
0.203250410181
50
98.7662542655
51
150.988148728
0
ARC
8
drawinglayer
10
0.974147487916
20
0.417875038801
30
0
40
0.499611990599
50
33.1052909435
51
89.14921497
0
ARC
8
drawinglayer
10
0.974147487916
20
0.524710655847
30
0
40
0.477040929449
50
33.047995164
51
89.1485274207
0
ARC
8
drawinglayer
10
0.974147487916
20
0.631557358875
30
0
40
0.454458782316
50
32.9906993845
51
89.1477825755
0
ARC
8
drawinglayer
10
0.974147487916
20
0.738392975921
30
0
40
0.431887721165
50
32.933403605
51
89.1470377304
0
ARC
8
drawinglayer
10
0.974147487916
20
0.845228592967
30
0
40
0.409305574032
50
32.933403605
51
89.146350181
0
ARC
8
drawinglayer
10
0.974147487916
20
0.952075295996
30
0
40
0.386723426899
50
32.8761078255
51
89.1456053359
0
ARC
8
drawinglayer
10
0.974147487916
20
1.05891091304
30
0
40
0.364152365749
50
32.8188120459
51
89.1448604908
0
ARC
8
drawinglayer
10
0.88268812913
20
-1.77048689637
30
0
40
0.962074852556
50
90.9167324722
51
149.181154434
0
ARC
8
drawinglayer
10
0.974147487916
20
-1.77048689637
30
0
40
0.962074852556
50
33.9647276362
51
89.163768098
0
ARC
8
drawinglayer
10
0.88268812913
20
-1.04557447563
30
0
40
0.808877655093
50
90.9167324722
51
149.456861725
0
ARC
8
drawinglayer
10
0.88268812913
20
-1.15242117866
30
0
40
0.831459802226
50
90.9167324722
51
149.416124426
0
ARC
8
drawinglayer
10
0.88268812913
20
-1.25925679571
30
0
40
0.854030863376
50
90.9167324722
51
149.375444422
0
ARC
8
drawinglayer
10
0.88268812913
20
-1.36609241275
30
0
40
0.87661301051
50
90.9167324722
51
149.334764419
0
ARC
8
drawinglayer
10
0.88268812913
20
-1.47293911578
30
0
40
0.899195157643
50
90.9167324722
51
149.294141711
0
ARC
8
drawinglayer
10
0.88268812913
20
-1.57977473283
30
0
40
0.921766218793
50
90.9167324722
51
149.253519003
0
ARC
8
drawinglayer
10
0.974147487916
20
2.02055341227
30
0
40
0.160935213516
50
44.7363341847
51
89.1382714761
0
ARC
8
drawinglayer
10
0.974147487916
20
2.15340783114
30
0
40
0.132854418873
50
63.0136878493
51
67.0780785607
0
ARC
8
drawinglayer
10
0.88268812913
20
1.93973659705
30
0
40
0.178007627156
50
90.9167324722
51
138.974484271
0
ARC
8
drawinglayer
10
0.974147487916
20
0.848631989712
30
0
40
0.329386723427
50
32.7615162664
51
150.425446877
0
ARC
8
drawinglayer
10
0.974147487916
20
0.955478692741
30
0
40
0.306804576294
50
32.7042204869
51
150.466871726
0
ARC
8
drawinglayer
10
0.974147487916
20
1.06232539577
30
0
40
0.284222429161
50
32.6469247074
51
150.508296575
0
ARC
8
drawinglayer
10
0.88268812913
20
-0.976985499534
30
0
40
0.715178927764
50
33.3917698411
51
149.626285345
0
ARC
8
drawinglayer
10
0.88268812913
20
-1.08382111658
30
0
40
0.737761074897
50
33.3917698411
51
149.585376158
0
ARC
8
drawinglayer
10
0.88268812913
20
-1.19066781961
30
0
40
0.76034322203
50
33.4490656206
51
149.544581563
0
ARC
8
drawinglayer
10
0.88268812913
20
-1.29750343665
30
0
40
0.78291428318
50
33.5063614001
51
149.503729672
0
ARC
8
drawinglayer
10
0.88268812913
20
-1.40435013968
30
0
40
0.805496430314
50
33.5636571796
51
149.462992373
0
ARC
8
drawinglayer
10
0.88268812913
20
-1.51118575673
30
0
40
0.828067491464
50
33.5636571796
51
149.422255074
0
ARC
8
drawinglayer
10
0.88268812913
20
-1.61802137377
30
0
40
0.850649638597
50
33.6209529591
51
149.381517775
0
ARC
8
drawinglayer
10
0.974147487916
20
-1.70189792027
30
0
40
0.868376125227
50
33.7928402977
51
149.446949555
0
ARC
8
drawinglayer
10
0.974147487916
20
-0.0606181544056
30
0
40
0.521528978759
50
33.1052909435
51
150.074395636
0
ARC
8
drawinglayer
10
0.974147487916
20
0.0462063766574
30
0
40
0.498957917609
50
33.1052909435
51
150.115534006
0
ARC
8
drawinglayer
10
0.974147487916
20
0.153053079686
30
0
40
0.476375770476
50
33.047995164
51
150.156672376
0
ARC
8
drawinglayer
10
0.974147487916
20
0.301538734424
30
0
40
0.445002438916
50
32.9906993845
51
150.213910859
0
ARC
8
drawinglayer
10
1.08067269744
20
0.428750388009
30
0
40
0.418118930424
50
33.047995164
51
150.373880676
0
ARC
8
drawinglayer
10
1.21374883597
20
0.510254534167
30
0
40
0.400891313024
50
33.162586723
51
150.542616747
0
ARC
8
drawinglayer
10
1.36077114097
20
0.538302070862
30
0
40
0.394960312181
50
33.3344740616
51
150.703675183
0
ARC
8
drawinglayer
10
1.50778235998
20
0.510254534167
30
0
40
0.400891313024
50
33.5636571796
51
150.841872603
0
ARC
8
drawinglayer
10
1.64085849851
20
0.428750388009
30
0
40
0.418118930424
50
33.7355445182
51
150.94454664
0
ARC
8
drawinglayer
10
1.72000133032
20
0.339718859474
30
0
40
0.436931843377
50
33.9074318567
51
150.989695714
0
ARC
8
drawinglayer
10
1.7033058401
20
0.228437763292
30
0
40
0.460445213073
50
33.9074318567
51
150.930795653
0
ARC
8
drawinglayer
10
1.58224690701
20
0.10746751807
30
0
40
0.486009489601
50
33.7928402977
51
150.763434681
0
ARC
8
drawinglayer
10
1.43751940047
20
0.0447873708483
30
0
40
0.499257239147
50
33.6782487386
51
150.593094328
0
ARC
8
drawinglayer
10
1.28401179549
20
0.0447873708483
30
0
40
0.499257239147
50
33.4490656206
51
150.43627578
0
ARC
8
drawinglayer
10
1.13928428895
20
0.10746751807
30
0
40
0.486009489601
50
33.277178282
51
150.311027206
0
ARC
8
drawinglayer
10
1.13294310674
20
0.299543257505
30
0
40
0.445423706266
50
33.162586723
51
150.378292451
0
ARC
8
drawinglayer
10
1.20924792692
20
0.365815263181
30
0
40
0.431411023901
50
33.2198825025
51
150.482456178
0
ARC
8
drawinglayer
10
1.288213383
20
0.299543257505
30
0
40
0.445423706266
50
33.3917698411
51
150.53809038
0
ARC
8
drawinglayer
10
1.36164693362
20
0.366314132411
30
0
40
0.431311250055
50
33.4490656206
51
150.638701769
0
ARC
8
drawinglayer
10
1.40358520686
20
0.228437763292
30
0
40
0.460445213073
50
33.5636571796
51
150.628675007
0
ARC
8
drawinglayer
10
1.49732827813
20
0.299543257505
30
0
40
0.445423706266
50
33.6209529591
51
150.750886905
0
ARC
8
drawinglayer
10
1.62282160436
20
0.299543257505
30
0
40
0.445423706266
50
33.7928402977
51
150.877281395
0
ARC
8
drawinglayer
10
1.72000133032
20
0.272116535852
30
0
40
0.529289166778
50
34.0793191952
51
100.493779314
0
ARC
8
drawinglayer
10
1.7033058401
20
0.160824353687
30
0
40
0.552802536473
50
34.0793191952
51
79.8866646624
0
ARC
8
drawinglayer
10
1.58224690701
20
0.0398541084653
30
0
40
0.578366813002
50
33.9647276362
51
70.6904628674
0
ARC
8
drawinglayer
10
1.43751940047
20
-0.0228260387566
30
0
40
0.591614562547
50
33.8501360772
51
48.2113805079
0
ARC
8
drawinglayer
10
1.28401179549
20
-0.0228260387566
30
0
40
0.591614562547
50
132.284285281
51
150.269373174
0
ARC
8
drawinglayer
10
1.13928428895
20
0.0398541084653
30
0
40
0.578366813002
50
109.938931271
51
149.19003528
0
ARC
8
drawinglayer
10
1.01989933928
20
0.158041771984
30
0
40
0.553390093566
50
100.026761415
51
114.528609688
0
ARC
8
drawinglayer
10
1.02339142388
20
0.302591902798
30
0
40
0.522848210722
50
75.4468720037
51
116.494714362
0
ARC
8
drawinglayer
10
1.14463881868
20
0.408196975744
30
0
40
0.500532127178
50
61.6958849205
51
150.290228838
0
ARC
8
drawinglayer
10
1.28637310984
20
0.463637976143
30
0
40
0.488814243271
50
33.4490656206
51
150.45758981
0
ARC
8
drawinglayer
10
1.43515808612
20
0.463637976143
30
0
40
0.488814243271
50
33.6209529591
51
150.609538217
0
ARC
8
drawinglayer
10
1.57689237728
20
0.408196975744
30
0
40
0.500532127178
50
33.8501360772
51
118.51141121
0
ARC
8
drawinglayer
10
1.85897521174
20
3.49331515232
30
0
40
0.150303755931
50
212.933403605
51
276.085327446
0
ARC
8
drawinglayer
10
-0.0491552481043
20
3.41744268547
30
0
40
0.134262338699
50
264.843379844
51
330.201592267
0
ARC
8
drawinglayer
10
1.91377322513
20
3.37968382777
30
0
40
0.126291517006
50
213.047995164
51
273.202547596
0
ARC
8
drawinglayer
10
1.91708793402
20
3.23028912243
30
0
40
0.0947186377544
50
213.105290944
51
268.192260861
0
ARC
8
drawinglayer
10
1.85897521174
20
3.09887588134
30
0
40
0.0669482506319
50
213.105290944
51
263.025327464
0
ARC
8
drawinglayer
10
1.47569952552
20
2.81790164516
30
0
40
0.00757172630925
50
212.761516266
51
255.119713103
0
ARC
8
drawinglayer
10
1.40084696909
20
2.76302602989
30
0
40
0.00402421178662
50
32.6469247074
51
74.96553016
0
ARC
8
drawinglayer
10
1.32599441266
20
2.7081615006
30
0
40
0.0156201498825
50
32.5896289279
51
74.8117482878
0
ARC
8
drawinglayer
10
1.25114185624
20
2.65328588533
30
0
40
0.0272160879784
50
32.5323331484
51
74.6582528945
0
ARC
8
drawinglayer
10
1.17628929981
20
2.59841027005
30
0
40
0.0388120260742
50
32.4750373689
51
74.5051585716
0
ARC
8
drawinglayer
10
1.10143674338
20
2.54354574077
30
0
40
0.0504079641701
50
32.3604458098
51
74.3524653192
0
ARC
8
drawinglayer
10
0.392499223981
20
2.78309165891
30
0
40
0.000210633674782
50
285.813635146
51
330.424530145
0
ARC
8
drawinglayer
10
0.469147709636
20
2.73208505166
30
0
40
0.0105649416877
50
105.985522484
51
150.485893925
0
ARC
8
drawinglayer
10
0.545796195291
20
2.68107844441
30
0
40
0.0213405170502
50
106.157409823
51
150.546856634
0
ARC
8
drawinglayer
10
0.622444680945
20
2.63007183717
30
0
40
0.0321271783956
50
106.272001382
51
150.607532865
0
ARC
8
drawinglayer
10
0.6990931666
20
2.57906522992
30
0
40
0.0429027537581
50
106.44388872
51
150.667922616
0
ARC
8
drawinglayer
10
0.807491907232
20
2.5069287393
30
0
40
0.0581459802226
50
106.673071838
51
150.75272037
0
ARC
8
drawinglayer
10
0.807491907232
20
2.5069287393
30
0
40
0.0581459802226
50
78.7700272154
51
94.751538995
0
ARC
8
drawinglayer
10
-0.0417941554698
20
3.10713493858
30
0
40
0.0686887499446
50
273.896113007
51
330.084708877
0
ARC
8
drawinglayer
10
-0.0794199813755
20
3.26108598288
30
0
40
0.101226109707
50
269.828112661
51
330.105449949
0
ARC
8
drawinglayer
10
0.0408851048734
20
3.53433328899
30
0
40
0.158972994546
50
254.988505768
51
330.346722476
0
ARC
8
drawinglayer
10
0.166589064786
20
3.58040663385
30
0
40
0.168706487517
50
210.870755542
51
330.501077306
0
ARC
8
drawinglayer
10
0.29425524367
20
3.54334619307
30
0
40
0.160868697619
50
211.042642881
51
287.720897054
0
ARC
8
drawinglayer
10
0.568866125671
20
3.02042038047
30
0
40
0.0503636202386
50
214.594981211
51
274.25025822
0
ARC
8
drawinglayer
10
0.612012771052
20
2.92757527382
30
0
40
0.0307414305352
50
216.714925053
51
274.341243918
0
ARC
8
drawinglayer
10
0.655159416434
20
2.83471908119
30
0
40
0.0111192408319
50
219.866192926
51
274.432115024
0
ARC
8
drawinglayer
10
0.698317147798
20
2.74186288856
30
0
40
0.00850294887145
50
43.0174607993
51
94.5228142432
0
ARC
8
drawinglayer
10
-0.120881557359
20
2.44425967806
30
0
40
0.0713937297681
50
85.760112316
51
149.731594988
0
ARC
8
drawinglayer
10
-0.0724801560906
20
2.53318034677
30
0
40
0.052602988781
50
79.8586470262
51
149.820689925
0
ARC
8
drawinglayer
10
0.428717130061
20
2.23985632566
30
0
40
0.114584719081
50
31.7301922352
51
60.9423308284
0
ARC
8
drawinglayer
10
0.512438472795
20
2.26986608133
30
0
40
0.108243536872
50
33.7928402977
51
61.0967429542
0
ARC
8
drawinglayer
10
0.596159815529
20
2.29987583699
30
0
40
0.101902354663
50
46.0541371135
51
61.2517280378
0
ARC
8
drawinglayer
10
-0.0386235643652
20
2.11158041772
30
0
40
0.141689947231
50
102.834254611
51
149.68948259
0
ARC
8
drawinglayer
10
-0.100250543213
20
2.1872422509
30
0
40
0.125703959913
50
95.7868737308
51
149.651610079
0
ARC
8
drawinglayer
10
-0.133597179726
20
2.2860072724
30
0
40
0.104829054144
50
91.7188733854
51
149.654188389
0
ARC
8
drawinglayer
10
-0
20
2.59270098887
30
0
40
0.0400203982085
50
31.0999386606
51
149.924166102
0
ARC
8
drawinglayer
10
0.432985233471
20
2.4581615006
30
0
40
0.068455944304
50
31.6156006762
51
120.738211681
0
ARC
8
drawinglayer
10
0.517538024921
20
2.43189880715
30
0
40
0.0739989357456
50
31.7301922352
51
120.88918606
0
ARC
8
drawinglayer
10
1.29366768658
20
3.02183938628
30
0
40
0.0506629417764
50
265.817408096
51
324.726407577
0
ARC
8
drawinglayer
10
1.25013303179
20
2.9292714292
30
0
40
0.0311072679704
50
265.702816537
51
322.712518222
0
ARC
8
drawinglayer
10
1.20658729103
20
2.83668130016
30
0
40
0.0115405081815
50
265.645520757
51
319.727121631
0
ARC
8
drawinglayer
10
1.16304155026
20
2.74410225711
30
0
40
0.00802625160747
50
85.530929198
51
136.732672306
0
ARC
8
drawinglayer
10
1.56443173252
20
3.54339053701
30
0
40
0.160879783602
50
255.217688886
51
331.923158554
0
ARC
8
drawinglayer
10
1.68138885194
20
3.58598288324
30
0
40
0.169881601703
50
212.646924707
51
332.054136706
0
ARC
8
drawinglayer
10
0.884838809809
20
2.56160480688
30
0
40
0.0465943860583
50
77.9105905227
51
126.496781296
0
ARC
8
drawinglayer
10
0.762848654162
20
2.41219901556
30
0
40
0.0781672653097
50
86.6768447882
51
144.822320712
0
ARC
8
drawinglayer
10
1.09613764356
20
2.42138929537
30
0
40
0.0606846703029
50
212.188558471
51
331.270158555
0
ARC
8
drawinglayer
10
1.09613764356
20
2.5307636025
30
0
40
0.0837989446144
50
212.131262692
51
331.313015798
0
ARC
8
drawinglayer
10
1.05148330451
20
2.62548224026
30
0
40
0.103809143719
50
212.016671133
51
331.304822501
0
ARC
8
drawinglayer
10
0.974147487916
20
2.6801804798
30
0
40
0.115371823866
50
211.902079574
51
331.24741213
0
ARC
8
drawinglayer
10
0.884838809809
20
2.6801804798
30
0
40
0.115371823866
50
211.787488015
51
331.15591077
0
ARC
8
drawinglayer
10
0.807491907232
20
2.62548224026
30
0
40
0.103809143719
50
211.730192235
51
331.054554536
0
ARC
8
drawinglayer
10
0.762848654162
20
2.5307636025
30
0
40
0.0837989446144
50
211.730192235
51
330.970902698
0
ARC
8
drawinglayer
10
0.762848654162
20
2.42138929537
30
0
40
0.0606846703029
50
211.787488015
51
330.927701681
0
ARC
8
drawinglayer
10
0.762848654162
20
2.35970688661
30
0
40
0.0235798855927
50
91.6615776059
51
138.077518843
0
ARC
8
drawinglayer
10
0.780076271562
20
2.52003237107
30
0
40
0.0102988780985
50
263.697464254
51
330.85155559
0
ARC
8
drawinglayer
10
0.843222030065
20
2.59739035963
30
0
40
0.0266507028513
50
249.717294052
51
306.518553692
0
ARC
8
drawinglayer
10
0.929493148863
20
2.62520509068
30
0
40
0.0319608886524
50
273.036676314
51
331.046418536
0
ARC
8
drawinglayer
10
0.929493148863
20
2.62520509068
30
0
40
0.0319608886524
50
212.016671133
51
266.025620958
0
ARC
8
drawinglayer
10
0.974147487916
20
2.56160480688
30
0
40
0.0465943860583
50
54.7630955995
51
102.064714996
0
ARC
8
drawinglayer
10
1.01575318168
20
2.59739035963
30
0
40
0.0266507028513
50
234.763095599
51
290.108813257
0
ARC
8
drawinglayer
10
1.07889894018
20
2.52003237107
30
0
40
0.0102988780985
50
212.245854251
51
276.350721497
0
ARC
8
drawinglayer
10
1.09613764356
20
2.41219901556
30
0
40
0.0781672653097
50
32.4177415894
51
93.3861805692
0
ARC
8
drawinglayer
10
1.10201321449
20
2.41438295419
30
0
40
0.0120282914283
50
49.8356585613
51
90.4131598661
0
ARC
8
drawinglayer
10
1.09613764356
20
2.30282470844
30
0
40
0.101281539621
50
59.174870622
51
88.405744935
0
ARC
8
drawinglayer
10
1.29366768658
20
3.13647953528
30
0
40
0.207274621968
50
212.131262692
51
331.740957975
0
ARC
8
drawinglayer
10
1.25013303179
20
3.04390049222
30
0
40
0.187707862179
50
212.131262692
51
331.661144954
0
ARC
8
drawinglayer
10
1.20658729103
20
2.95132144916
30
0
40
0.16814110239
50
212.073966912
51
331.581160046
0
ARC
8
drawinglayer
10
1.16304155026
20
2.85875349208
30
0
40
0.148585428584
50
212.073966912
51
331.50100325
0
ARC
8
drawinglayer
10
1.1194958095
20
2.76617444903
30
0
40
0.129018668795
50
212.073966912
51
331.420674568
0
ARC
8
drawinglayer
10
1.47569952552
20
2.93254179416
30
0
40
0.164172320518
50
212.417741589
51
331.841855843
0
ARC
8
drawinglayer
10
1.40084696909
20
2.87766617888
30
0
40
0.152576382422
50
212.36044581
51
331.746343778
0
ARC
8
drawinglayer
10
1.32599441266
20
2.82279056361
30
0
40
0.140980444326
50
212.30315003
51
331.650373348
0
ARC
8
drawinglayer
10
1.25114185624
20
2.76792603432
30
0
40
0.12938450623
50
212.245854251
51
331.554001846
0
ARC
8
drawinglayer
10
1.85897521174
20
3.21350494435
30
0
40
0.223548844841
50
212.818812046
51
332.324400898
0
ARC
8
drawinglayer
10
1.91708793402
20
3.34492927143
30
0
40
0.251319231963
50
212.818812046
51
332.430971048
0
ARC
8
drawinglayer
10
1.91377322513
20
3.49432397676
30
0
40
0.282892111215
50
212.761516266
51
332.485688517
0
ARC
8
drawinglayer
10
1.85897521174
20
3.60795530132
30
0
40
0.30690435014
50
212.646924707
51
332.477380629
0
ARC
8
drawinglayer
10
1.74259456343
20
3.69282958627
30
0
40
0.324841470445
50
212.475037369
51
332.398598932
0
ARC
8
drawinglayer
10
1.62061549377
20
3.68877211654
30
0
40
0.323987849763
50
212.30315003
51
332.278965345
0
ARC
8
drawinglayer
10
1.51664006031
20
3.61054942131
30
0
40
0.307458649284
50
212.188558471
51
332.146955869
0
ARC
8
drawinglayer
10
1.51664006031
20
3.54886701255
30
0
40
0.223194093388
50
261.176449955
51
331.991111348
0
ARC
8
drawinglayer
10
1.62061549377
20
3.62707862179
30
0
40
0.239723293867
50
237.685180355
51
332.123407303
0
ARC
8
drawinglayer
10
1.74259456343
20
3.63115826349
30
0
40
0.240588000532
50
212.589628928
51
312.182356089
0
ARC
8
drawinglayer
10
1.88867455989
20
3.50145226376
30
0
40
0.213172364862
50
212.876107825
51
276.164796692
0
ARC
8
drawinglayer
10
1.92346237417
20
3.35821027892
30
0
40
0.182907631591
50
212.933403605
51
271.222520047
0
ARC
8
drawinglayer
10
1.89510442996
20
3.21285087136
30
0
40
0.152188373021
50
212.990699384
51
266.120502769
0
ARC
8
drawinglayer
10
1.41797481265
20
2.5389228859
30
0
40
0.0860826570884
50
212.532333148
51
331.640690361
0
ARC
8
drawinglayer
10
1.33184781163
20
2.52192807414
30
0
40
0.0824907986342
50
212.417741589
51
331.548157677
0
ARC
8
drawinglayer
10
1.24573189659
20
2.5049221764
30
0
40
0.07889894018
50
212.30315003
51
331.455109331
0
ARC
8
drawinglayer
10
1.42034721298
20
2.40146778413
30
0
40
0.0570373819343
50
212.589628928
51
331.58952523
0
ARC
8
drawinglayer
10
1.85897521174
20
2.29800230588
30
0
40
0.0351758236885
50
213.162586723
51
331.980339742
0
ARC
8
drawinglayer
10
1.92841780852
20
2.39681167132
30
0
40
0.0560507294577
50
213.219882503
51
332.085420201
0
ARC
8
drawinglayer
10
1.92841780852
20
2.52717174405
30
0
40
0.0835993969225
50
213.162586723
51
332.135554009
0
ARC
8
drawinglayer
10
1.85897521174
20
2.62598110949
30
0
40
0.104485388675
50
213.047995164
51
332.106676936
0
ARC
8
drawinglayer
10
1.85897521174
20
2.56429870072
30
0
40
0.020220832779
50
213.219882503
51
331.953124247
0
ARC
8
drawinglayer
10
1.41797481265
20
2.41987051572
30
0
40
0.0765487118088
50
50.465912136
51
151.341892871
0
ARC
8
drawinglayer
10
1.33184781163
20
2.40287570396
30
0
40
0.080140570263
50
50.3513205769
51
144.548504181
0
ARC
8
drawinglayer
10
1.24573189659
20
2.38586980622
30
0
40
0.0837324287171
50
50.1794332384
51
130.940412772
0
ARC
8
drawinglayer
10
1.90093565696
20
2.4651567558
30
0
40
0.0669704225977
50
33.3917698411
51
99.0898035324
0
ARC
8
drawinglayer
10
1.92841780852
20
2.46548933528
30
0
40
0.000654072990111
50
33.3344740616
51
94.2142191747
0
ARC
8
drawinglayer
10
1.93796283979
20
2.34293379451
30
0
40
0.0928007627156
50
33.5063614001
51
90.2457988941
0
ARC
8
drawinglayer
10
1.92841780852
20
2.33512926256
30
0
40
0.028202740455
50
33.3917698411
51
87.2237902995
0
ARC
8
drawinglayer
10
1.90093565696
20
2.22072191921
30
0
40
0.118631102834
50
33.5063614001
51
82.1619946584
0
ARC
8
drawinglayer
10
1.85897521174
20
2.23631989712
30
0
40
0.049088732207
50
129.133017407
51
151.827130827
0
ARC
8
drawinglayer
10
1.85897521174
20
2.23631989712
30
0
40
0.049088732207
50
33.3344740616
51
74.9615767512
0
ARC
8
drawinglayer
10
1.42034721298
20
2.28241541395
30
0
40
0.105593986963
50
128.330876494
51
151.291071514
0
ARC
8
drawinglayer
10
0.827568622234
20
3.09123763913
30
0
40
0.201676200612
50
211.558304897
51
331.258470216
0
ARC
8
drawinglayer
10
0.853299188506
20
2.98914682276
30
0
40
0.180102877921
50
211.672896456
51
331.244490046
0
ARC
8
drawinglayer
10
0.879029754778
20
2.8870449204
30
0
40
0.158518469247
50
211.730192235
51
331.230567171
0
ARC
8
drawinglayer
10
0.904771407033
20
2.78496519001
30
0
40
0.136945146557
50
211.787488015
51
331.216644297
0
ARC
8
drawinglayer
10
1.0368498071
20
3.09343266374
30
0
40
0.202141811893
50
211.844783794
51
331.47304291
0
ARC
8
drawinglayer
10
1.00999955656
20
2.9917742007
30
0
40
0.180657177065
50
211.844783794
51
331.405720369
0
ARC
8
drawinglayer
10
0.983160392
20
2.89011573766
30
0
40
0.159172542238
50
211.844783794
51
331.338283237
0
ARC
8
drawinglayer
10
1.17430490887
20
3.61397499002
30
0
40
0.312136934061
50
211.787488015
51
331.816874883
0
ARC
8
drawinglayer
10
1.12009445257
20
3.72099906878
30
0
40
0.334752339142
50
211.672896456
51
331.804842769
0
ARC
8
drawinglayer
10
1.03577446676
20
3.79308012948
30
0
40
0.349984479624
50
211.558304897
51
331.74863561
0
ARC
8
drawinglayer
10
0.93505831227
20
3.81848920225
30
0
40
0.355361181322
50
211.386417558
51
331.656847771
0
ARC
8
drawinglayer
10
0.834331071793
20
3.79308012948
30
0
40
0.349984479624
50
211.271825999
51
331.544204268
0
ARC
8
drawinglayer
10
0.750011085983
20
3.72099906878
30
0
40
0.334752339142
50
211.21453022
51
331.429097047
0
ARC
8
drawinglayer
10
0.695800629684
20
3.61397499002
30
0
40
0.312136934061
50
211.21453022
51
331.330548306
0
ARC
8
drawinglayer
10
0.695800629684
20
3.55228149528
30
0
40
0.227872378165
50
266.50495745
51
331.17166711
0
ARC
8
drawinglayer
10
0.827568622234
20
2.97314974946
30
0
40
0.0403751496608
50
272.807493196
51
327.059434423
0
ARC
8
drawinglayer
10
0.853299188506
20
2.87107001907
30
0
40
0.01880182697
50
272.864788976
51
325.102611665
0
ARC
8
drawinglayer
10
0.879029754778
20
2.7689792027
30
0
40
0.00277149572081
50
92.9220847552
51
142.175484881
0
ARC
8
drawinglayer
10
0.904771407033
20
2.66688838632
30
0
40
0.0243448184116
50
92.9793805347
51
139.252655281
0
ARC
8
drawinglayer
10
0.718449292714
20
3.55280253647
30
0
40
0.162875260521
50
264.499605167
51
331.072946482
0
ARC
8
drawinglayer
10
0.750011085983
20
3.65931666002
30
0
40
0.25049886923
50
261.520224632
51
331.270273146
0
ARC
8
drawinglayer
10
0.789177863509
20
3.64421755133
30
0
40
0.182187042703
50
257.566815846
51
331.182381421
0
ARC
8
drawinglayer
10
0.834331071793
20
3.73139772072
30
0
40
0.265731009711
50
249.488110934
51
331.385666846
0
ARC
8
drawinglayer
10
0.883641523657
20
3.69399361447
30
0
40
0.192707640459
50
230.179433238
51
331.299207515
0
ARC
8
drawinglayer
10
0.93505831227
20
3.75680679349
30
0
40
0.271096625427
50
211.558304897
51
331.498596828
0
ARC
8
drawinglayer
10
0.986475100882
20
3.69399361447
30
0
40
0.192707640459
50
211.787488015
51
310.908842798
0
ARC
8
drawinglayer
10
1.03577446676
20
3.73139772072
30
0
40
0.265731009711
50
211.672896456
51
290.329172825
0
ARC
8
drawinglayer
10
1.08093876103
20
3.64421755133
30
0
40
0.182187042703
50
211.902079574
51
282.397660771
0
ARC
8
drawinglayer
10
1.12009445257
20
3.65931666002
30
0
40
0.25049886923
50
211.844783794
51
278.507220046
0
ARC
8
drawinglayer
10
1.15165624584
20
3.55280253647
30
0
40
0.162875260521
50
212.016671133
51
275.544856358
0
ARC
8
drawinglayer
10
1.17430490887
20
3.55228149528
30
0
40
0.227872378165
50
211.959375353
51
273.598060362
0
ARC
8
drawinglayer
10
1.0368498071
20
2.97535586005
30
0
40
0.0408407609419
50
214.193910754
51
266.259903401
0
ARC
8
drawinglayer
10
1.00999955656
20
2.87369739701
30
0
40
0.0193561261141
50
216.256558817
51
266.204097311
0
ARC
8
drawinglayer
10
0.983160392
20
2.77205001995
30
0
40
0.0021174227307
50
39.3505309104
51
86.1484058138
0
ARC
8
drawinglayer
10
0.392499223981
20
2.89284288945
30
0
40
0.150126380205
50
211.15723444
51
330.70711293
0
ARC
8
drawinglayer
10
0.469147709636
20
2.8418362822
30
0
40
0.139350804842
50
211.271825999
51
330.767846456
0
ARC
8
drawinglayer
10
0.545796195291
20
2.79082967496
30
0
40
0.12857522948
50
211.386417558
51
330.828236207
0
ARC
8
drawinglayer
10
0.622444680945
20
2.73981198173
30
0
40
0.117788568134
50
211.501009117
51
330.88833948
0
ARC
8
drawinglayer
10
0.6990931666
20
2.68880537448
30
0
40
0.107012992772
50
211.615600676
51
330.948098978
0
ARC
8
drawinglayer
10
0.568866125671
20
3.13017161102
30
0
40
0.200279366769
50
211.271825999
51
330.987518474
0
ARC
8
drawinglayer
10
0.612012771052
20
3.03731541838
30
0
40
0.180657177065
50
211.386417558
51
330.995654475
0
ARC
8
drawinglayer
10
0.655159416434
20
2.94445922575
30
0
40
0.161034987362
50
211.443713338
51
331.00373318
0
ARC
8
drawinglayer
10
0.698317147798
20
2.85161411911
30
0
40
0.141412797659
50
211.558304897
51
331.011811885
0
ARC
8
drawinglayer
10
0.347900314842
20
3.60564941688
30
0
40
0.300762715622
50
210.813459763
51
330.945520668
0
ARC
8
drawinglayer
10
0.232417631147
20
3.68192097911
30
0
40
0.316881734735
50
210.641572424
51
330.853790125
0
ARC
8
drawinglayer
10
0.101259367656
20
3.67725378032
30
0
40
0.315895082258
50
210.526980865
51
330.711639296
0
ARC
8
drawinglayer
10
0.00237240033701
20
3.60564941688
30
0
40
0.300762715622
50
210.412389306
51
330.576077482
0
ARC
8
drawinglayer
10
-0.0726907897654
20
3.45145448095
30
0
40
0.268181011929
50
210.412389306
51
330.432150484
0
ARC
8
drawinglayer
10
-0.0688772116536
20
3.29081858898
30
0
40
0.23423573234
50
210.469685086
51
330.371187774
0
ARC
8
drawinglayer
10
-0
20
3.15403973216
30
0
40
0.205323488981
50
210.641572424
51
330.390840227
0
ARC
8
drawinglayer
10
-0
20
3.09236840938
30
0
40
0.121070019068
50
277.04738088
51
330.230068269
0
ARC
8
drawinglayer
10
-0.0688772116536
20
3.22913618021
30
0
40
0.149971176445
50
271.833464944
51
330.210014746
0
ARC
8
drawinglayer
10
-0.0726907897654
20
3.38976098621
30
0
40
0.183916456033
50
267.822760379
51
330.270748273
0
ARC
8
drawinglayer
10
-0.0104097379274
20
3.53120704182
30
0
40
0.213804265886
50
260.889971057
51
330.395710368
0
ARC
8
drawinglayer
10
0.101259367656
20
3.61556028557
30
0
40
0.231630526362
50
236.883039441
51
330.55058086
0
ARC
8
drawinglayer
10
0.232417631147
20
3.62022748437
30
0
40
0.232617178839
50
210.813459763
51
310.717875965
0
ARC
8
drawinglayer
10
0.347900314842
20
3.54395592213
30
0
40
0.216498159727
50
210.985347102
51
279.831440102
0
ARC
8
drawinglayer
10
0.428717130061
20
2.36773313822
30
0
40
0.0600971132101
50
211.386417558
51
330.575733707
0
ARC
8
drawinglayer
10
0.512438472795
20
2.39774289388
30
0
40
0.0664382954193
50
211.443713338
51
330.6762878
0
ARC
8
drawinglayer
10
0.596159815529
20
2.42775264955
30
0
40
0.0727794776285
50
211.558304897
51
330.776268935
0
ARC
8
drawinglayer
10
0.432985233471
20
2.58604939914
30
0
40
0.106225887987
50
211.271825999
51
330.667120475
0
ARC
8
drawinglayer
10
0.517538024921
20
2.55977561971
30
0
40
0.100671810563
50
211.386417558
51
330.746016764
0
ARC
8
drawinglayer
10
-0
20
2.72057780143
30
0
40
0.134661434083
50
210.756163983
51
330.255965962
0
ARC
8
drawinglayer
10
-0.0724801560906
20
2.66105715933
30
0
40
0.12207884351
50
210.698868204
51
330.152833559
0
ARC
8
drawinglayer
10
-0.120881557359
20
2.57213649062
30
0
40
0.103288102523
50
210.698868204
51
330.063910509
0
ARC
8
drawinglayer
10
-0.137887455102
20
2.46731852246
30
0
40
0.0811383087225
50
210.698868204
51
330.002947799
0
ARC
8
drawinglayer
10
-0.120881557359
20
2.3625005543
30
0
40
0.0589885149217
50
210.756163983
51
329.979399234
0
ARC
8
drawinglayer
10
-0.0724801560906
20
2.27357988559
30
0
40
0.0401977739346
50
210.870755542
51
329.996874447
0
ARC
8
drawinglayer
10
-0
20
2.21405924349
30
0
40
0.0276151833622
50
210.928051322
51
330.052394057
0
ARC
8
drawinglayer
10
-0
20
2.15236574875
30
0
40
0.0566493725334
50
107.990874767
51
149.89271072
0
ARC
8
drawinglayer
10
-0
20
2.15236574875
30
0
40
0.0566493725334
50
31.0999386606
51
60.0618665846
0
ARC
8
drawinglayer
10
-0.0724801560906
20
2.21189747683
30
0
40
0.0440667819609
50
98.823550045
51
149.836847334
0
ARC
8
drawinglayer
10
-0.120881557359
20
2.30080705955
30
0
40
0.0252760409738
50
93.7242256684
51
149.819085643
0
ARC
8
drawinglayer
10
-0.137887455102
20
2.4056361137
30
0
40
0.00312624717307
50
89.7135211024
51
149.842405025
0
ARC
8
drawinglayer
10
-0.120881557359
20
2.51045408186
30
0
40
0.0190235466276
50
265.760112316
51
329.903310439
0
ARC
8
drawinglayer
10
-0.0724801560906
20
2.59937475057
30
0
40
0.0378142876147
50
259.801351247
51
329.99234808
0
ARC
8
drawinglayer
10
-0
20
2.65889539267
30
0
40
0.0503968781872
50
210.928051322
51
330.095652371
0
ARC
8
drawinglayer
10
0.313422908075
20
1.43174360339
30
0
40
0.142233160392
50
31.6156006762
51
150.072504876
0
ARC
8
drawinglayer
10
0.362090372932
20
1.52043146645
30
0
40
0.123486763336
50
31.6728964557
51
150.159938235
0
ARC
8
drawinglayer
10
0.410746751807
20
1.60909715755
30
0
40
0.104751452264
50
31.6728964557
51
150.247142412
0
ARC
8
drawinglayer
10
0.459414216664
20
1.69776284865
30
0
40
0.0860161411911
50
31.6728964557
51
150.334174701
0
ARC
8
drawinglayer
10
0.0725355860051
20
1.60659172542
30
0
40
0.248414704448
50
74.3009564134
51
149.611216555
0
ARC
8
drawinglayer
10
0.145060086027
20
1.66595716376
30
0
40
0.235865371824
50
74.472843752
51
149.714234366
0
ARC
8
drawinglayer
10
0.217595672032
20
1.7253226021
30
0
40
0.2233160392
50
74.587435311
51
149.816851107
0
ARC
8
drawinglayer
10
0.290120172054
20
1.78467695446
30
0
40
0.210777792559
50
74.7593226495
51
149.919066778
0
ARC
8
drawinglayer
10
0.0725355860051
20
1.73054410004
30
0
40
0.0790874018891
50
31.2145302196
51
149.929723793
0
ARC
8
drawinglayer
10
0.145060086027
20
1.78990953838
30
0
40
0.0665380692652
50
31.2718259991
51
150.032455126
0
ARC
8
drawinglayer
10
0.217595672032
20
1.84926389074
30
0
40
0.0539998226243
50
31.3291217786
51
150.134728092
0
ARC
8
drawinglayer
10
0.290120172054
20
1.90862932908
30
0
40
0.0414504900004
50
31.3864175581
51
150.236542692
0
ARC
8
drawinglayer
10
1.03760365394
20
1.45296217463
30
0
40
0.132654871181
50
32.4750373689
51
150.852816097
0
ARC
8
drawinglayer
10
1.02372400337
20
1.55844530176
30
0
40
0.110360959603
50
32.4177415894
51
150.879630522
0
ARC
8
drawinglayer
10
1.0098443528
20
1.66391734291
30
0
40
0.0880781340074
50
32.3604458098
51
150.906559538
0
ARC
8
drawinglayer
10
0.99596470223
20
1.76940047005
30
0
40
0.0657842224292
50
32.3031500303
51
150.933488554
0
ARC
8
drawinglayer
10
0.822358210279
20
1.45298434659
30
0
40
0.132654871181
50
32.1885584713
51
150.629935515
0
ARC
8
drawinglayer
10
0.836115915037
20
1.55850073167
30
0
40
0.11034987362
50
32.1885584713
51
150.685569716
0
ARC
8
drawinglayer
10
0.849873619795
20
1.66399494479
30
0
40
0.0880559620416
50
32.1312626918
51
150.741261214
0
ARC
8
drawinglayer
10
0.863631324553
20
1.76950024389
30
0
40
0.0657620504634
50
32.1312626918
51
150.796895416
0
ARC
8
drawinglayer
10
0.313422908075
20
1.30780231475
30
0
40
0.311549376968
50
31.9593753532
51
81.7767378369
0
ARC
8
drawinglayer
10
0.362090372932
20
1.39646800585
30
0
40
0.292814065895
50
31.9593753532
51
81.8754011693
0
ARC
8
drawinglayer
10
0.410746751807
20
1.48513369695
30
0
40
0.274078754822
50
31.9593753532
51
81.9742936847
0
ARC
8
drawinglayer
10
0.459414216664
20
1.57382156002
30
0
40
0.255332357767
50
32.0166711328
51
82.0733580875
0
ARC
8
drawinglayer
10
1.78880094009
20
1.66396168684
30
0
40
0.094851669549
50
33.3344740616
51
151.675583491
0
ARC
8
drawinglayer
10
1.71861558246
20
1.72740676688
30
0
40
0.0814487162432
50
33.2198825025
51
151.631121966
0
ARC
8
drawinglayer
10
1.64843022482
20
1.79086293291
30
0
40
0.0680346769545
50
33.1052909435
51
151.586431258
0
ARC
8
drawinglayer
10
1.57824486719
20
1.85431909893
30
0
40
0.0546317236486
50
32.9906993845
51
151.541568662
0
ARC
8
drawinglayer
10
1.62429604009
20
1.4260343222
30
0
40
0.145137687907
50
33.2198825025
51
151.422164258
0
ARC
8
drawinglayer
10
1.57082834464
20
1.51046516784
30
0
40
0.127289255465
50
33.1052909435
51
151.401595073
0
ARC
8
drawinglayer
10
1.51737173518
20
1.5948849275
30
0
40
0.109451909006
50
32.9906993845
51
151.380968592
0
ARC
8
drawinglayer
10
1.46390403973
20
1.67930468715
30
0
40
0.0916145625471
50
32.933403605
51
151.36022752
0
ARC
8
drawinglayer
10
1.78880094009
20
1.54147266197
30
0
40
0.262172409206
50
33.6209529591
51
103.672148091
0
ARC
8
drawinglayer
10
1.71861558246
20
1.60492882799
30
0
40
0.248758369917
50
33.5063614001
51
103.532919346
0
ARC
8
drawinglayer
10
1.64843022482
20
1.66837390803
30
0
40
0.235355416611
50
33.3917698411
51
103.393461419
0
ARC
8
drawinglayer
10
1.57824486719
20
1.73184116004
30
0
40
0.221941377323
50
33.277178282
51
103.253602421
0
ARC
8
drawinglayer
10
1.62429604009
20
1.30355638331
30
0
40
0.312447341581
50
99.3965078401
51
151.118668514
0
ARC
8
drawinglayer
10
1.57082834464
20
1.38797614296
30
0
40
0.294609995122
50
99.3392120606
51
151.097583667
0
ARC
8
drawinglayer
10
1.51737173518
20
1.47239590262
30
0
40
0.276772648663
50
99.2246205016
51
151.076384228
0
ARC
8
drawinglayer
10
1.46390403973
20
1.55682674826
30
0
40
0.258924216221
50
99.1100289426
51
151.055070198
0
ARC
8
drawinglayer
10
0.974147487916
20
-1.66364019334
30
0
40
0.939492705423
50
33.9074318567
51
89.1630232529
0
ARC
8
drawinglayer
10
0.974147487916
20
-1.55680457629
30
0
40
0.91691055829
50
33.8501360772
51
89.1623357035
0
ARC
8
drawinglayer
10
0.974147487916
20
-1.44996895925
30
0
40
0.89433949714
50
33.7928402977
51
89.1616481542
0
ARC
8
drawinglayer
10
0.974147487916
20
-1.34312225622
30
0
40
0.871757350007
50
33.7928402977
51
89.1609606048
0
ARC
8
drawinglayer
10
0.974147487916
20
-1.22339364108
30
0
40
0.846459137067
50
33.7355445182
51
89.1601584639
0
ARC
8
drawinglayer
10
0.974147487916
20
-1.11655802403
30
0
40
0.823876989934
50
33.6782487386
51
89.1594709145
0
ARC
8
drawinglayer
10
0.974147487916
20
-1.00972240699
30
0
40
0.801305928784
50
33.6209529591
51
89.1587833652
0
ARC
8
drawinglayer
10
0.974147487916
20
-0.90287570396
30
0
40
0.77872378165
50
33.6209529591
51
89.1580385201
0
ARC
8
drawinglayer
10
0.974147487916
20
-0.796029000931
30
0
40
0.756141634517
50
33.5636571796
51
89.1573509707
0
ARC
8
drawinglayer
10
0.974147487916
20
-0.676311471775
30
0
40
0.730843421578
50
33.5063614001
51
89.1565488298
0
ARC
8
drawinglayer
10
0.974147487916
20
-0.569464768746
30
0
40
0.708261274445
50
33.4490656206
51
89.1558612804
0
ARC
8
drawinglayer
10
0.974147487916
20
-0.462629151701
30
0
40
0.685690213294
50
33.4490656206
51
89.1551164353
0
ARC
8
drawinglayer
10
0.974147487916
20
-0.355782448672
30
0
40
0.663108066161
50
33.3917698411
51
89.1544288859
0
ARC
8
drawinglayer
10
0.974147487916
20
-0.248946831626
30
0
40
0.640537005011
50
33.3344740616
51
89.1536840408
0
ARC
8
drawinglayer
10
0.974147487916
20
-0.129218216487
30
0
40
0.615227706088
50
33.277178282
51
89.1528818999
0
ARC
8
drawinglayer
10
0.974147487916
20
-0.0223825994413
30
0
40
0.592656644938
50
33.277178282
51
89.1521943505
0
ARC
8
drawinglayer
10
0.88268812913
20
1.03594075651
30
0
40
0.369008026252
50
90.9167324722
51
150.257283765
0
ARC
8
drawinglayer
10
0.88268812913
20
0.929105139462
30
0
40
0.391579087402
50
90.9167324722
51
150.215858916
0
ARC
8
drawinglayer
10
0.88268812913
20
0.822258436433
30
0
40
0.414161234535
50
90.9167324722
51
150.174491363
0
ARC
8
drawinglayer
10
0.88268812913
20
0.715422819387
30
0
40
0.436732295685
50
90.9167324722
51
150.133181106
0
ARC
8
drawinglayer
10
0.88268812913
20
0.595694204248
30
0
40
0.462041594608
50
90.9167324722
51
150.086886116
0
ARC
8
drawinglayer
10
0.88268812913
20
0.488858587202
30
0
40
0.484612655758
50
90.9167324722
51
150.045633155
0
ARC
8
drawinglayer
10
0.88268812913
20
0.382011884174
30
0
40
0.507194802891
50
90.9167324722
51
150.00443749
0
ARC
8
drawinglayer
10
0.88268812913
20
0.275165181145
30
0
40
0.529776950024
50
90.9167324722
51
149.963241824
0
ARC
8
drawinglayer
10
0.88268812913
20
0.168329564099
30
0
40
0.552348011175
50
90.9167324722
51
149.922103454
0
ARC
8
drawinglayer
10
0.88268812913
20
0.0486009489601
30
0
40
0.577657310097
50
90.9167324722
51
149.875980352
0
ARC
8
drawinglayer
10
0.88268812913
20
-0.0582346680857
30
0
40
0.600228371247
50
90.9167324722
51
149.834899278
0
ARC
8
drawinglayer
10
0.88268812913
20
-0.165081371114
30
0
40
0.622810518381
50
90.9167324722
51
149.7938755
0
ARC
8
drawinglayer
10
0.88268812913
20
-0.27191698816
30
0
40
0.645381579531
50
90.9167324722
51
149.752851722
0
ARC
8
drawinglayer
10
0.88268812913
20
-0.378752605206
30
0
40
0.667963726664
50
90.9167324722
51
149.711885239
0
ARC
8
drawinglayer
10
0.88268812913
20
-0.498481220345
30
0
40
0.693261939604
50
90.9167324722
51
149.66599132
0
ARC
8
drawinglayer
10
0.88268812913
20
-0.605327923374
30
0
40
0.715844086737
50
90.9167324722
51
149.625082133
0
ARC
8
drawinglayer
10
0.88268812913
20
-0.712174626402
30
0
40
0.73842623387
50
90.9167324722
51
149.584230243
0
ARC
8
drawinglayer
10
0.88268812913
20
-0.819010243448
30
0
40
0.76099729502
50
90.9167324722
51
149.543378352
0
ARC
8
drawinglayer
10
0.88268812913
20
-0.925845860494
30
0
40
0.783579442153
50
90.9167324722
51
149.502583757
0
ARC
8
drawinglayer
10
0.974147487916
20
0.408385437453
30
0
40
0.422420291783
50
32.933403605
51
150.255163821
0
ARC
8
drawinglayer
10
0.974147487916
20
0.515232140482
30
0
40
0.39983814465
50
32.8761078255
51
150.296416782
0
ARC
8
drawinglayer
10
0.974147487916
20
0.622056671544
30
0
40
0.3772670835
50
32.8761078255
51
150.337727039
0
ARC
8
drawinglayer
10
0.974147487916
20
0.728903374573
30
0
40
0.354684936366
50
32.8188120459
51
150.379094592
0
ARC
8
drawinglayer
10
0.88268812913
20
1.10452973261
30
0
40
0.275309298922
50
32.5323331484
51
150.429457582
0
ARC
8
drawinglayer
10
0.88268812913
20
0.99769411556
30
0
40
0.297880360073
50
32.5896289279
51
150.387918142
0
ARC
8
drawinglayer
10
0.88268812913
20
0.890847412532
30
0
40
0.320462507206
50
32.6469247074
51
150.346378702
0
ARC
8
drawinglayer
10
0.88268812913
20
0.784011795486
30
0
40
0.343044654339
50
32.7042204869
51
150.304953853
0
ARC
8
drawinglayer
10
0.88268812913
20
0.664283180347
30
0
40
0.368342867279
50
32.7042204869
51
150.258486976
0
ARC
8
drawinglayer
10
0.88268812913
20
0.557436477318
30
0
40
0.390925014412
50
32.7615162664
51
150.217062127
0
ARC
8
drawinglayer
10
0.88268812913
20
0.450600860272
30
0
40
0.413496075562
50
32.8188120459
51
150.17575187
0
ARC
8
drawinglayer
10
0.88268812913
20
0.343765243226
30
0
40
0.436078222695
50
32.8761078255
51
150.134384317
0
ARC
8
drawinglayer
10
0.88268812913
20
0.236929626181
30
0
40
0.458649283846
50
32.8761078255
51
150.09307406
0
ARC
8
drawinglayer
10
0.88268812913
20
0.117189925059
30
0
40
0.483958582768
50
32.933403605
51
150.046836366
0
ARC
8
drawinglayer
10
0.88268812913
20
0.0103543080129
30
0
40
0.506529643918
50
32.9906993845
51
150.005640701
0
ARC
8
drawinglayer
10
0.88268812913
20
-0.0964923950157
30
0
40
0.529111791051
50
33.047995164
51
149.964445035
0
ARC
8
drawinglayer
10
0.88268812913
20
-0.203328012062
30
0
40
0.551693938185
50
33.047995164
51
149.923306666
0
ARC
8
drawinglayer
10
0.88268812913
20
-0.310163629107
30
0
40
0.574264999335
50
33.1052909435
51
149.882168296
0
ARC
8
drawinglayer
10
0.88268812913
20
-0.429903330229
30
0
40
0.599574298257
50
33.162586723
51
149.836102489
0
ARC
8
drawinglayer
10
0.88268812913
20
-0.536738947275
30
0
40
0.622145359408
50
33.2198825025
51
149.795078711
0
ARC
8
drawinglayer
10
0.88268812913
20
-0.643574564321
30
0
40
0.644727506541
50
33.2198825025
51
149.754054933
0
ARC
8
drawinglayer
10
0.88268812913
20
-0.750410181367
30
0
40
0.667298567691
50
33.277178282
51
149.713088451
0
ARC
8
drawinglayer
10
0.88268812913
20
-0.857256884395
30
0
40
0.689880714824
50
33.3344740616
51
149.672121968
0
ARC
8
drawinglayer
10
0.974147487916
20
-1.59505121724
30
0
40
0.845793978094
50
33.7355445182
51
149.487514967
0
ARC
8
drawinglayer
10
0.974147487916
20
-1.4882156002
30
0
40
0.823222916944
50
33.6782487386
51
149.52819497
0
ARC
8
drawinglayer
10
0.974147487916
20
-1.38137998315
30
0
40
0.800640769811
50
33.6209529591
51
149.568817678
0
ARC
8
drawinglayer
10
0.974147487916
20
-1.27453328012
30
0
40
0.778058622677
50
33.6209529591
51
149.609554977
0
ARC
8
drawinglayer
10
0.974147487916
20
-1.15480466498
30
0
40
0.752760409738
50
33.5636571796
51
149.655219713
0
ARC
8
drawinglayer
10
0.974147487916
20
-1.04795796195
30
0
40
0.730178262605
50
33.5063614001
51
149.695957013
0
ARC
8
drawinglayer
10
0.974147487916
20
-0.941122344907
30
0
40
0.707607201454
50
33.4490656206
51
149.736751608
0
ARC
8
drawinglayer
10
0.974147487916
20
-0.834286727861
30
0
40
0.685025054321
50
33.4490656206
51
149.777603498
0
ARC
8
drawinglayer
10
0.974147487916
20
-0.727440024833
30
0
40
0.662442907188
50
33.3917698411
51
149.818512685
0
ARC
8
drawinglayer
10
0.974147487916
20
-0.607711409694
30
0
40
0.637144694249
50
33.3344740616
51
149.864349309
0
ARC
8
drawinglayer
10
0.974147487916
20
-0.500875792648
30
0
40
0.614573633098
50
33.277178282
51
149.905315791
0
ARC
8
drawinglayer
10
0.974147487916
20
-0.394040175602
30
0
40
0.591991485965
50
33.277178282
51
149.946282273
0
ARC
8
drawinglayer
10
0.974147487916
20
-0.287193472573
30
0
40
0.569409338832
50
33.2198825025
51
149.987306051
0
ARC
8
drawinglayer
10
0.974147487916
20
-0.180357855527
30
0
40
0.546838277682
50
33.162586723
51
150.02832983
0
ARC
8
drawinglayer
10
1.7841337413
20
3.04400026606
30
0
40
0.055352312536
50
213.047995164
51
255.758904819
0
ARC
8
drawinglayer
10
1.70928118487
20
2.98912465079
30
0
40
0.0437563744402
50
212.933403605
51
255.603232186
0
ARC
8
drawinglayer
10
1.63442862844
20
2.9342601215
30
0
40
0.0321604363443
50
212.876107825
51
255.447903328
0
ARC
8
drawinglayer
10
1.55957607201
20
2.87938450623
30
0
40
0.0205644982484
50
212.818812046
51
255.292918244
0
ARC
8
drawinglayer
10
0.0766484856547
20
2.99329298036
30
0
40
0.0446321670879
50
285.183381571
51
330.168246123
0
ARC
8
drawinglayer
10
0.153296971309
20
2.94228637311
30
0
40
0.0338565917254
50
285.35526891
51
330.230985002
0
ARC
8
drawinglayer
10
0.229945456964
20
2.89126867988
30
0
40
0.02306993038
50
285.527156248
51
330.293380106
0
ARC
8
drawinglayer
10
0.306605028602
20
2.84026207264
30
0
40
0.0122943550175
50
285.641747807
51
330.355431435
0
ARC
8
drawinglayer
10
0.391058046206
20
3.4030419937
30
0
40
0.131224779389
50
211.21453022
51
273.873653061
0
ARC
8
drawinglayer
10
0.434204691588
20
3.31019688706
30
0
40
0.111602589686
50
211.271825999
51
273.965269013
0
ARC
8
drawinglayer
10
0.47735133697
20
3.21734069443
30
0
40
0.0919803999823
50
211.386417558
51
274.056770373
0
ARC
8
drawinglayer
10
0.520509068334
20
3.1244845018
30
0
40
0.0723582102789
50
211.443713338
51
274.148099845
0
ARC
8
drawinglayer
10
0.0837213427342
20
2.11620327258
30
0
40
0.140714380737
50
31.3864175581
51
60.3118480706
0
ARC
8
drawinglayer
10
0.167442685468
20
2.14621302825
30
0
40
0.134373198528
50
31.4437133376
51
60.4639683652
0
ARC
8
drawinglayer
10
0.251164028203
20
2.17622278391
30
0
40
0.128032016319
50
31.5010091171
51
60.6167189134
0
ARC
8
drawinglayer
10
0.33489645692
20
2.20623253958
30
0
40
0.121690834109
50
31.6156006762
51
60.7699278278
0
ARC
8
drawinglayer
10
0.0845527914505
20
2.56642720944
30
0
40
0.045574475633
50
31.1572344401
51
120.11007805
0
ARC
8
drawinglayer
10
0.169116668884
20
2.54015343
30
0
40
0.0511285530575
50
31.2718259991
51
120.263401556
0
ARC
8
drawinglayer
10
0.253669460334
20
2.51389073655
30
0
40
0.0566715444991
50
31.3864175581
51
120.416094808
0
ARC
8
drawinglayer
10
0.338222251785
20
2.48761695712
30
0
40
0.0622256219236
50
31.5010091171
51
120.568272398
0
ARC
8
drawinglayer
10
1.47309431954
20
3.40331914328
30
0
40
0.131280209303
50
266.218478552
51
331.778601302
0
ARC
8
drawinglayer
10
1.42955966476
20
3.31074010022
30
0
40
0.111713449514
50
266.103886993
51
331.699418535
0
ARC
8
drawinglayer
10
1.38601392399
20
3.21817214314
30
0
40
0.0921577757084
50
265.989295434
51
329.705181633
0
ARC
8
drawinglayer
10
1.34246818323
20
3.1255820141
30
0
40
0.0725910159195
50
265.931999655
51
327.704871379
0
ARC
8
drawinglayer
10
1.47309431954
20
3.51797037825
30
0
40
0.287891889495
50
212.188558471
51
332.068002285
0
ARC
8
drawinglayer
10
1.42955966476
20
3.4253913352
30
0
40
0.268325129706
50
212.188558471
51
331.988934109
0
ARC
8
drawinglayer
10
1.38601392399
20
3.33280120615
30
0
40
0.248758369917
50
212.131262692
51
331.90963675
0
ARC
8
drawinglayer
10
1.34246818323
20
3.24023324908
30
0
40
0.229202696111
50
212.131262692
51
331.830167504
0
ARC
8
drawinglayer
10
1.7841337413
20
3.15864041506
30
0
40
0.211952906745
50
212.704220487
51
332.231008777
0
ARC
8
drawinglayer
10
1.70928118487
20
3.10376479979
30
0
40
0.200356968649
50
212.646924707
51
332.137215586
0
ARC
8
drawinglayer
10
1.63442862844
20
3.0489002705
30
0
40
0.188761030553
50
212.589628928
51
332.043021325
0
ARC
8
drawinglayer
10
1.55957607201
20
2.99402465523
30
0
40
0.177165092457
50
212.532333148
51
331.948368697
0
ARC
8
drawinglayer
10
1.77285929671
20
2.60898629773
30
0
40
0.10089353022
50
212.933403605
51
332.016665266
0
ARC
8
drawinglayer
10
1.68673229569
20
2.59198039998
30
0
40
0.0973016717662
50
212.818812046
51
331.92619523
0
ARC
8
drawinglayer
10
1.60060529467
20
2.57498558822
30
0
40
0.093709813312
50
212.704220487
51
331.835209532
0
ARC
8
drawinglayer
10
1.51448937963
20
2.55797969048
30
0
40
0.0901179548579
50
212.646924707
51
331.743765468
0
ARC
8
drawinglayer
10
1.77332490799
20
2.31821205268
30
0
40
0.0394439270986
50
213.047995164
51
331.9048812
0
ARC
8
drawinglayer
10
1.68766351825
20
2.33841071349
30
0
40
0.0437120305086
50
212.933403605
51
331.829021588
0
ARC
8
drawinglayer
10
1.60200212851
20
2.35862046029
30
0
40
0.0479801339187
50
212.818812046
51
331.752760906
0
ARC
8
drawinglayer
10
1.51634073877
20
2.37883020709
30
0
40
0.0522593233116
50
212.704220487
51
331.676041857
0
ARC
8
drawinglayer
10
1.77285929671
20
2.48992284156
30
0
40
0.0617378386768
50
51.0388699311
51
151.720159607
0
ARC
8
drawinglayer
10
1.68673229569
20
2.4729280298
30
0
40
0.0653296971309
50
50.9242783721
51
151.629116613
0
ARC
8
drawinglayer
10
1.60060529467
20
2.45593321804
30
0
40
0.0689215555851
50
50.7523910335
51
151.537615254
0
ARC
8
drawinglayer
10
1.51448937963
20
2.4389273203
30
0
40
0.0725134140393
50
50.6377994745
51
151.445598232
0
ARC
8
drawinglayer
10
1.77332490799
20
2.1991596825
30
0
40
0.123187441799
50
128.903834289
51
151.608948499
0
ARC
8
drawinglayer
10
1.68766351825
20
2.21935834331
30
0
40
0.118919338389
50
128.78924273
51
151.532515929
0
ARC
8
drawinglayer
10
1.60200212851
20
2.23956809011
30
0
40
0.114651234978
50
128.617355392
51
151.455567697
0
ARC
8
drawinglayer
10
1.51634073877
20
2.2597778369
30
0
40
0.110372045586
50
128.502763833
51
151.378275691
0
ARC
8
drawinglayer
10
0.721531195956
20
3.51188417365
30
0
40
0.29056361137
50
211.271825999
51
331.316396249
0
ARC
8
drawinglayer
10
0.747272848211
20
3.40979335728
30
0
40
0.268990288679
50
211.329121779
51
331.302301487
0
ARC
8
drawinglayer
10
0.773003414483
20
3.30771362689
30
0
40
0.247416965988
50
211.443713338
51
331.288206725
0
ARC
8
drawinglayer
10
0.798733980755
20
3.20562281052
30
0
40
0.225843643297
50
211.501009117
51
331.274169259
0
ARC
8
drawinglayer
10
1.14746574431
20
3.51231652698
30
0
40
0.290652299233
50
211.787488015
51
331.749896117
0
ARC
8
drawinglayer
10
1.12061549377
20
3.41066914993
30
0
40
0.269178750388
50
211.787488015
51
331.682802759
0
ARC
8
drawinglayer
10
1.09377632921
20
3.30901068689
30
0
40
0.24769411556
50
211.787488015
51
331.615652105
0
ARC
8
drawinglayer
10
1.06692607867
20
3.20735222385
30
0
40
0.226209480733
50
211.787488015
51
331.548444156
0
ARC
8
drawinglayer
10
0.721531195956
20
3.39381845594
30
0
40
0.129273646401
50
272.578310078
51
331.013129688
0
ARC
8
drawinglayer
10
0.747272848211
20
3.29172763957
30
0
40
0.107700323711
50
272.635605858
51
330.999435997
0
ARC
8
drawinglayer
10
0.773003414483
20
3.1896368232
30
0
40
0.0861270010199
50
272.692901637
51
330.985799601
0
ARC
8
drawinglayer
10
0.798733980755
20
3.08755709281
30
0
40
0.0645536783291
50
272.750197417
51
329.996874447
0
ARC
8
drawinglayer
10
1.14746574431
20
3.39423972329
30
0
40
0.129362334265
50
212.073966912
51
266.490919984
0
ARC
8
drawinglayer
10
1.12061549377
20
3.29258126025
30
0
40
0.107877699437
50
212.131262692
51
266.434712824
0
ARC
8
drawinglayer
10
1.09377632921
20
3.1909338832
30
0
40
0.086404150592
50
212.131262692
51
266.37856296
0
ARC
8
drawinglayer
10
1.06692607867
20
3.08927542016
30
0
40
0.0649195157643
50
212.131262692
51
266.322584984
0
ARC
8
drawinglayer
10
0.0766484856547
20
3.10303312492
30
0
40
0.194547913618
50
210.698868204
51
330.453292626
0
ARC
8
drawinglayer
10
0.153296971309
20
3.05202651767
30
0
40
0.183772338256
50
210.813459763
51
330.515401251
0
ARC
8
drawinglayer
10
0.229945456964
20
3.00100882444
30
0
40
0.17298567691
50
210.928051322
51
330.577223397
0
ARC
8
drawinglayer
10
0.306605028602
20
2.9500022172
30
0
40
0.162210101548
50
211.042642881
51
330.638644473
0
ARC
8
drawinglayer
10
0.391058046206
20
3.51279322425
30
0
40
0.281140525919
50
210.928051322
51
330.953828556
0
ARC
8
drawinglayer
10
0.434204691588
20
3.41993703162
30
0
40
0.261518336216
50
210.985347102
51
330.962021853
0
ARC
8
drawinglayer
10
0.47735133697
20
3.32708083899
30
0
40
0.241896146512
50
211.099938661
51
330.970272445
0
ARC
8
drawinglayer
10
0.520509068334
20
3.23422464636
30
0
40
0.222273956809
50
211.15723444
51
330.978408446
0
ARC
8
drawinglayer
10
0.0837213427342
20
2.24406899916
30
0
40
0.0339563655714
50
211.042642881
51
330.155698347
0
ARC
8
drawinglayer
10
0.167442685468
20
2.27407875482
30
0
40
0.0402975477806
50
211.099938661
51
330.258486976
0
ARC
8
drawinglayer
10
0.251164028203
20
2.30408851049
30
0
40
0.0466387299898
50
211.21453022
51
330.360702647
0
ARC
8
drawinglayer
10
0.33489645692
20
2.33409826615
30
0
40
0.052979912199
50
211.271825999
51
330.462402655
0
ARC
8
drawinglayer
10
0.0845527914505
20
2.69430402199
30
0
40
0.129107356658
50
210.870755542
51
330.337211377
0
ARC
8
drawinglayer
10
0.169116668884
20
2.66803024256
30
0
40
0.123553279234
50
210.985347102
51
330.417998426
0
ARC
8
drawinglayer
10
0.253669460334
20
2.64175646313
30
0
40
0.117999201809
50
211.042642881
51
330.498327109
0
ARC
8
drawinglayer
10
0.338222251785
20
2.61548268369
30
0
40
0.112445124385
50
211.15723444
51
330.578197426
0
ENDSEC
0
EOF
