0
SECTION
2
HEADER
9
$ACADVER
1
AC1006
9
$INSBASE
10
0.0
20
0.0
30
0.0
9
$EXTMIN
10
0.0
20
0.0
9
$EXTMAX
10
0.0
20
0.0
0
ENDSEC
0
SECTION
2
TABLES
0
TABLE
2
LTYPE
70
1
0
LTYPE
2
CONTINUOUS
70
64
3
Solid line
72
65
73
0
40
0.0
0
ENDTAB
0
TABLE
2
LAYER
70
1
0
LAYER
2
PYDXF
70
64
62
7
6
continuous
0
ENDTAB
0
TABLE
2
STYLE
70
1
0
STYLE
2
STANDARD
70
0
40
0
41
40
50
50
71
0
42
1
3
ARIAL.TTF
4

0
ENDTAB
0
TABLE
2
VIEW
70
0
0
ENDTAB
0
ENDSEC
0
SECTION
2
BLOCKS
0
ENDSEC
0
SECTION
2
ENTITIES
0
ARC
8
drawinglayer
10
1.1082453275
20
2.90410628198
30
0
40
0.558507559017
50
322.884004491
51
333.445965782
0
ARC
8
drawinglayer
10
1.68296221846
20
0.702425733916
30
0
40
0.533420045869
50
212.589628928
51
269.829373169
0
ARC
8
drawinglayer
10
1.68296221846
20
0.845304343756
30
0
40
0.676298655709
50
212.131262692
51
269.827883478
0
ARC
8
drawinglayer
10
1.37885248769
20
0.708924247239
30
0
40
0.463990895184
50
271.776169165
51
333.564854524
0
ARC
8
drawinglayer
10
1.68296221846
20
0.708924247239
30
0
40
0.463990895184
50
212.818812046
51
269.830118014
0
ARC
8
drawinglayer
10
1.37885248769
20
0.903830378456
30
0
40
0.658897026401
50
211.558304897
51
334.137411249
0
ARC
8
drawinglayer
10
1.5309098165
20
0.903830378456
30
0
40
0.658897026401
50
211.844783794
51
334.353359042
0
ARC
8
drawinglayer
10
1.68296221846
20
0.903830378456
30
0
40
0.658897026401
50
212.188558471
51
334.565926384
0
ARC
8
drawinglayer
10
0.318363103816
20
0.694641313104
30
0
40
0.480224861371
50
314.919891138
51
331.985267179
0
ARC
8
drawinglayer
10
0.318363103816
20
0.694641313104
30
0
40
0.480224861371
50
280.370536092
51
310.921677052
0
ARC
8
drawinglayer
10
0.472696636687
20
0.640248904392
30
0
40
0.449427130677
50
269.598929543
51
272.707970427
0
ARC
8
drawinglayer
10
0.472696636687
20
0.640248904392
30
0
40
0.449427130677
50
210.469685086
51
265.509385985
0
ARC
8
drawinglayer
10
0.618797405522
20
0.582737800507
30
0
40
0.417269589766
50
270.114591559
51
273.220022809
0
ARC
8
drawinglayer
10
0.618797405522
20
0.582737800507
30
0
40
0.417269589766
50
220.209967603
51
266.037194706
0
ARC
8
drawinglayer
10
0.764893247508
20
0.525226696622
30
0
40
0.385107122006
50
269.598929543
51
273.72949688
0
ARC
8
drawinglayer
10
0.764893247508
20
0.525226696622
30
0
40
0.385107122006
50
243.758532983
51
266.563571032
0
ARC
8
drawinglayer
10
0.910994016342
20
0.467715592737
30
0
40
0.352949581095
50
270.114591559
51
274.236392641
0
ARC
8
drawinglayer
10
0.910994016342
20
0.467715592737
30
0
40
0.352949581095
50
267.077915245
51
267.088400372
0
ARC
8
drawinglayer
10
0.691320617137
20
0.555837207068
30
0
40
0.402991582479
50
275.500394833
51
288.714749645
0
ARC
8
drawinglayer
10
0.691320617137
20
0.555837207068
30
0
40
0.402991582479
50
269.369746425
51
273.473613929
0
ARC
8
drawinglayer
10
0.691320617137
20
0.555837207068
30
0
40
0.402991582479
50
231.955602403
51
266.298291573
0
ARC
8
drawinglayer
10
1.31973030431
20
0.70372642195
30
0
40
0.488354161586
50
270.572957795
51
333.550129509
0
ARC
8
drawinglayer
10
1.31973030431
20
0.849906020363
30
0
40
0.634533759998
50
211.501009117
51
333.980535405
0
ARC
8
drawinglayer
10
1.68296221846
20
0.545564727705
30
0
40
0.400089668645
50
212.990699384
51
269.830805563
0
ARC
8
drawinglayer
10
1.0129009531
20
0.631080039119
30
0
40
0.445268870446
50
271.546986047
51
332.007612533
0
ARC
8
drawinglayer
10
1.0129009531
20
0.747255129465
30
0
40
0.561443960792
50
271.546986047
51
333.312523911
0
ARC
8
drawinglayer
10
1.0129009531
20
0.863425292963
30
0
40
0.67761412429
50
210.756163983
51
333.659793631
0
ARC
8
drawinglayer
10
1.41493672695
20
0.863425292963
30
0
40
0.67761412429
50
211.558304897
51
334.244210582
0
ARC
8
drawinglayer
10
1.14691616228
20
0.863425292963
30
0
40
0.67761412429
50
211.042642881
51
333.857292183
0
ARC
8
drawinglayer
10
-0.00280830371066
20
0.790266517876
30
0
40
0.561729718012
50
209.323769496
51
331.707611831
0
ARC
8
drawinglayer
10
2.25981736172
20
0.395709700226
30
0
40
0.39612355551
50
214.251206534
51
232.364522382
0
ARC
8
drawinglayer
10
2.25981736172
20
0.574948452846
30
0
40
0.561443960792
50
213.735544518
51
269.840431254
0
ARC
8
drawinglayer
10
2.25981736172
20
0.745629269422
30
0
40
0.732124777368
50
213.162586723
51
335.55238782
0
ARC
8
drawinglayer
10
2.25981736172
20
0.642544815847
30
0
40
0.685748351353
50
213.334474062
51
335.419862682
0
ARC
8
drawinglayer
10
2.25981736172
20
0.547767029036
30
0
40
0.607460726858
50
213.56365718
51
286.12486582
0
ARC
8
drawinglayer
10
2.25981736172
20
0.402114603426
30
0
40
0.451757530072
50
214.079319195
51
217.526462474
0
ARC
8
drawinglayer
10
0.487422987198
20
0.572140149136
30
0
40
0.461842789188
50
210.469685086
51
213.602274535
0
ARC
8
drawinglayer
10
2.05747661594
20
0.682723266304
30
0
40
0.550358551408
50
213.334474062
51
269.108821445
0
ARC
8
drawinglayer
10
0.127319621914
20
0.783201416962
30
0
40
0.551486799741
50
209.552952614
51
251.823257724
0
ARC
8
drawinglayer
10
1.11233461185
20
2.2680944674
30
0
40
0.559044585517
50
211.329121779
51
231.831327858
0
ARC
8
drawinglayer
10
1.11233461185
20
2.41984140474
30
0
40
0.559044585517
50
211.329121779
51
231.831327858
0
ARC
8
drawinglayer
10
1.11233461185
20
2.57158834209
30
0
40
0.559044585517
50
211.329121779
51
231.831327858
0
ARC
8
drawinglayer
10
1.11233461185
20
2.72333527944
30
0
40
0.559044585517
50
211.329121779
51
231.831327858
0
ARC
8
drawinglayer
10
1.11233461185
20
2.11634753005
30
0
40
0.559044585517
50
211.329121779
51
231.831327858
0
ARC
8
drawinglayer
10
0.932228733874
20
0.669524238863
30
0
40
0.536233276428
50
326.379047041
51
333.115884796
0
ARC
8
drawinglayer
10
0.932228733874
20
0.669524238863
30
0
40
0.536233276428
50
301.74186185
51
324.389565689
0
ARC
8
drawinglayer
10
0.932228733874
20
0.669524238863
30
0
40
0.536233276428
50
272.291831181
51
297.722104551
0
ARC
8
drawinglayer
10
0.932228733874
20
0.830873604162
30
0
40
0.697582641727
50
270.171887339
51
333.599633062
0
ARC
8
drawinglayer
10
2.25981736172
20
0.841835842331
30
0
40
0.742628818616
50
213.105290944
51
335.582468104
0
ARC
8
drawinglayer
10
2.25981736172
20
0.589492509958
30
0
40
0.501163967985
50
213.907431857
51
221.94035744
0
ARC
8
drawinglayer
10
2.25981736172
20
0.710047568723
30
0
40
0.62171902675
50
213.5063614
51
269.839801
0
ARC
8
drawinglayer
10
2.25981736172
20
0.468937451193
30
0
40
0.38060890922
50
214.308502313
51
249.909750576
0
ARC
8
drawinglayer
10
0.668070818522
20
0.808510638298
30
0
40
0.720182096325
50
210.01131885
51
333.268062386
0
ARC
8
drawinglayer
10
0.57821002663
20
0.772751571049
30
0
40
0.684423029076
50
209.95402307
51
333.020372732
0
ARC
8
drawinglayer
10
0.494291014167
20
0.738938609003
30
0
40
0.65061006703
50
209.896727291
51
332.786032993
0
ARC
8
drawinglayer
10
0.414894848733
20
0.70728360665
30
0
40
0.618955064677
50
209.839431511
51
332.563782665
0
ARC
8
drawinglayer
10
0.342869248828
20
0.679407497186
30
0
40
0.591078955212
50
209.839431511
51
332.363533915
0
ARC
8
drawinglayer
10
2.18791493303
20
0.848930504337
30
0
40
0.760601962364
50
212.876107825
51
335.54029841
0
ARC
8
drawinglayer
10
2.08874239726
20
0.87371747972
30
0
40
0.785388937747
50
212.589628928
51
335.481627532
0
ARC
8
drawinglayer
10
1.98619497018
20
0.897548646472
30
0
40
0.809220104498
50
212.30315003
51
335.414992541
0
ARC
8
drawinglayer
10
1.88071606818
20
0.918931169461
30
0
40
0.830602627488
50
212.016671133
51
335.336497323
0
ARC
8
drawinglayer
10
1.81057745129
20
0.931519267673
30
0
40
0.8431907257
50
211.844783794
51
335.279029656
0
ARC
8
drawinglayer
10
1.69798910674
20
0.945536151983
30
0
40
0.85720761001
50
211.558304897
51
335.16764666
0
ARC
8
drawinglayer
10
1.58608559414
20
0.953906867781
30
0
40
0.865578325808
50
211.271825999
51
335.039132227
0
ARC
8
drawinglayer
10
1.47566998983
20
0.957015709257
30
0
40
0.868687167284
50
211.042642881
51
334.895434412
0
ARC
8
drawinglayer
10
1.36754044327
20
0.955286385393
30
0
40
0.86695784342
50
210.870755542
51
334.738902342
0
ARC
8
drawinglayer
10
1.26251973819
20
0.949103190381
30
0
40
0.860774648408
50
210.641572424
51
334.571713258
0
ARC
8
drawinglayer
10
1.15994275002
20
0.938298611368
30
0
40
0.849970069395
50
210.526980865
51
334.392320172
0
ARC
8
drawinglayer
10
0.963272806998
20
0.902490275633
30
0
40
0.814161733659
50
210.240501968
51
333.997552251
0
ARC
8
drawinglayer
10
0.860050401661
20
0.874885142842
30
0
40
0.786556600869
50
210.125910409
51
333.760576907
0
ARC
8
drawinglayer
10
0.762488945383
20
0.843318823764
30
0
40
0.754990281791
50
210.068614629
51
333.517929281
0
ARC
8
drawinglayer
10
1.5154444387
20
0.870106099685
30
0
40
0.718901115685
50
211.615600676
51
334.508000351
0
ARC
8
drawinglayer
10
1.05982425931
20
0.870106099685
30
0
40
0.718901115685
50
210.756163983
51
333.852937704
0
ARC
8
drawinglayer
10
0.618787551824
20
0.871091469408
30
0
40
0.705618331818
50
209.95402307
51
272.2359105
0
ARC
8
drawinglayer
10
0.47268678299
20
0.864282564622
30
0
40
0.673455864058
50
209.782135732
51
271.704893215
0
ARC
8
drawinglayer
10
1.07279172487
20
0.372282535061
30
0
40
0.561443960792
50
211.271825999
51
333.401962623
0
ARC
8
drawinglayer
10
1.15884406278
20
0.384249850347
30
0
40
0.565626855266
50
211.443713338
51
333.541878917
0
ARC
8
drawinglayer
10
1.24046223694
20
0.419846331592
30
0
40
0.580417254809
50
211.558304897
51
333.705515663
0
ARC
8
drawinglayer
10
2.15640280929
20
0.520521556194
30
0
40
0.60329261293
50
213.334474062
51
287.768452551
0
ARC
8
drawinglayer
10
2.05289957358
20
0.507243699176
30
0
40
0.61093908198
50
213.105290944
51
294.365030238
0
ARC
8
drawinglayer
10
2.15640280929
20
0.436819325071
30
0
40
0.519590381806
50
213.620952959
51
253.671963346
0
ARC
8
drawinglayer
10
2.05289957358
20
0.408248529952
30
0
40
0.511943912755
50
213.449065621
51
250.088513408
0
ARC
8
drawinglayer
10
1.64104951729
20
0.431660914571
30
0
40
0.588635238299
50
212.30315003
51
334.302709573
0
ARC
8
drawinglayer
10
0.863908124127
20
0.422738391729
30
0
40
0.581210477436
50
210.813459763
51
333.146881813
0
ARC
8
drawinglayer
10
0.949122897775
20
0.437514010726
30
0
40
0.591965787963
50
210.928051322
51
333.307940249
0
ARC
8
drawinglayer
10
1.94731720776
20
0.367912420339
30
0
40
0.488043770123
50
213.277178282
51
234.511853606
0
ARC
8
drawinglayer
10
1.53035800945
20
0.465680804259
30
0
40
0.612269331106
50
212.016671133
51
334.215906467
0
ARC
8
drawinglayer
10
1.84531173403
20
0.369774769116
30
0
40
0.506145011935
50
212.990699384
51
220.853972165
0
ARC
8
drawinglayer
10
1.95299786421
20
0.454989542764
30
0
40
0.579343201811
50
212.990699384
51
291.046401393
0
ARC
8
drawinglayer
10
1.85033711962
20
0.438622551664
30
0
40
0.579510714664
50
212.761516266
51
314.010549822
0
ARC
8
drawinglayer
10
0.500346111115
20
0.441209147187
30
0
40
0.561443960792
50
210.183206188
51
332.523847506
0
ARC
8
drawinglayer
10
1.74107439788
20
0.466690808225
30
0
40
0.61218557468
50
212.417741589
51
334.510521365
0
ARC
8
drawinglayer
10
2.04765740665
20
0.345825357997
30
0
40
0.4388491867
50
213.678248739
51
218.18954653
0
ARC
8
drawinglayer
10
1.9453858831
20
0.536982157418
30
0
40
0.654541692225
50
212.761516266
51
324.745945437
0
ARC
8
drawinglayer
10
0.43394204548
20
0.468099886929
30
0
40
0.561443960792
50
210.068614629
51
332.418480568
0
ARC
8
drawinglayer
10
1.83500969357
20
0.578880078041
30
0
40
0.699464697898
50
212.36044581
51
334.892970693
0
ARC
8
drawinglayer
10
1.72833356736
20
0.571401121843
30
0
40
0.697952155373
50
212.131262692
51
334.742569272
0
ARC
8
drawinglayer
10
2.04765740665
20
0.59101490618
30
0
40
0.684038734884
50
212.876107825
51
331.472985614
0
ARC
8
drawinglayer
10
1.62220924819
20
0.563212699445
30
0
40
0.691916765819
50
211.959375353
51
334.578015793
0
ARC
8
drawinglayer
10
0.802559005171
20
0.627168121319
30
0
40
0.686457817554
50
210.355093527
51
333.370851015
0
ARC
8
drawinglayer
10
0.891907404807
20
0.671608295828
30
0
40
0.719418434789
50
210.412389306
51
333.605076162
0
ARC
8
drawinglayer
10
0.996735962792
20
0.647841178108
30
0
40
0.723502792291
50
210.584276645
51
333.773583049
0
ARC
8
drawinglayer
10
0.622906397267
20
0.602612707821
30
0
40
0.642268912324
50
210.183206188
51
332.961358079
0
ARC
8
drawinglayer
10
0.702218806274
20
0.644077065766
30
0
40
0.672608446097
50
210.183206188
51
333.175816181
0
ARC
8
drawinglayer
10
1.3256080347
20
0.474775766802
30
0
40
0.617866231133
50
211.558304897
51
333.939798105
0
ARC
8
drawinglayer
10
1.51741517814
20
0.554639982855
30
0
40
0.683531269476
50
211.730192235
51
334.406701413
0
ARC
8
drawinglayer
10
1.41472487246
20
0.545968729292
30
0
40
0.674958552886
50
211.558304897
51
334.236074581
0
ARC
8
drawinglayer
10
0.282101498008
20
0.623142886
30
0
40
0.564597143906
50
209.782135732
51
332.184484604
0
ARC
8
drawinglayer
10
1.03783080709
20
0.460335173511
30
0
40
0.609461027396
50
211.042642881
51
333.492948321
0
ARC
8
drawinglayer
10
1.12697720593
20
0.491635442764
30
0
40
0.633750391069
50
211.15723444
51
333.697322367
0
ARC
8
drawinglayer
10
1.21723707257
20
0.529532762312
30
0
40
0.662877920082
50
211.21453022
51
333.916020357
0
ARC
8
drawinglayer
10
1.30945782494
20
0.570474874304
30
0
40
0.693330771372
50
211.329121779
51
334.139817672
0
ARC
8
drawinglayer
10
1.0178672165
20
0.547481271817
30
0
40
0.672504982276
50
210.813459763
51
333.651829518
0
ARC
8
drawinglayer
10
0.920951177394
20
0.541145344498
30
0
40
0.661917184602
50
210.641572424
51
333.475415812
0
ARC
8
drawinglayer
10
0.833302540529
20
0.507948238528
30
0
40
0.63438595454
50
210.584276645
51
333.260327456
0
ARC
8
drawinglayer
10
0.742658379707
20
0.505292667125
30
0
40
0.623931181779
50
210.412389306
51
333.090502766
0
ARC
8
drawinglayer
10
0.658404341539
20
0.503331781376
30
0
40
0.612520600386
50
210.297797747
51
332.926121174
0
ARC
8
drawinglayer
10
0.372272681363
20
0.510791030179
30
0
40
0.561443960792
50
209.95402307
51
332.319989123
0
ARC
8
drawinglayer
10
0.573002347643
20
0.521866585866
30
0
40
0.606317697979
50
210.183206188
51
332.77440195
0
ARC
8
drawinglayer
10
1.82433813947
20
0.693355405615
30
0
40
0.772697375714
50
212.073966912
51
335.091615161
0
ARC
8
drawinglayer
10
1.71510497883
20
0.690497833418
30
0
40
0.77484548171
50
211.844783794
51
334.949177853
0
ARC
8
drawinglayer
10
1.49927944839
20
0.680028280111
30
0
40
0.765637201649
50
211.443713338
51
334.623164868
0
ARC
8
drawinglayer
10
1.39934325108
20
0.641973301407
30
0
40
0.740475785771
50
211.329121779
51
334.407847328
0
ARC
8
drawinglayer
10
1.61031090878
20
0.654901352174
30
0
40
0.754477889535
50
211.730192235
51
334.745032991
0
ARC
8
drawinglayer
10
1.29241585558
20
0.668159501797
30
0
40
0.751768122797
50
211.099938661
51
334.288958586
0
ARC
8
drawinglayer
10
1.19273092755
20
0.662262064005
30
0
40
0.74471287558
50
210.928051322
51
334.12423322
0
ARC
8
drawinglayer
10
1.1076984473
20
0.587669575971
30
0
40
0.70084421551
50
210.870755542
51
333.869209705
0
ARC
8
drawinglayer
10
0.782679171008
20
0.719374093152
30
0
40
0.716526374652
50
210.240501968
51
333.431756428
0
ARC
8
drawinglayer
10
1.08828666376
20
0.690630858331
30
0
40
0.75200461153
50
210.698868204
51
333.993999913
0
ARC
8
drawinglayer
10
0.480328325192
20
0.556561453814
30
0
40
0.597966689577
50
210.068614629
51
332.603374048
0
ARC
8
drawinglayer
10
2.14914063443
20
0.778451934897
30
0
40
0.760966549161
50
212.818812046
51
335.490565674
0
ARC
8
drawinglayer
10
2.0377100993
20
0.814738174947
30
0
40
0.789084074208
50
212.475037369
51
335.42490471
0
ARC
8
drawinglayer
10
1.92651112606
20
0.828636814891
30
0
40
0.810545426776
50
212.188558471
51
335.339304816
0
ARC
8
drawinglayer
10
1.81657342606
20
0.811240112431
30
0
40
0.820024683512
50
211.902079574
51
335.219327454
0
ARC
8
drawinglayer
10
1.70535967227
20
0.815004224773
30
0
40
0.829099938661
50
211.672896456
51
335.095052908
0
ARC
8
drawinglayer
10
1.4855483213
20
0.813797146862
30
0
40
0.832228487531
50
211.21453022
51
334.801010967
0
ARC
8
drawinglayer
10
1.59259396116
20
0.847289863748
30
0
40
0.84397409463
50
211.386417558
51
334.98424287
0
ARC
8
drawinglayer
10
1.37863570635
20
0.810905086725
30
0
40
0.828326423428
50
210.985347102
51
334.639436869
0
ARC
8
drawinglayer
10
1.27157528594
20
0.841949159849
30
0
40
0.835977819328
50
210.756163983
51
334.510406774
0
ARC
8
drawinglayer
10
1.16968805658
20
0.837125775055
30
0
40
0.825976316639
50
210.584276645
51
334.334279547
0
ARC
8
drawinglayer
10
1.07331397082
20
0.796163955668
30
0
40
0.798947625136
50
210.526980865
51
334.113175134
0
ARC
8
drawinglayer
10
0.9741168008
20
0.785024350949
30
0
40
0.780008819059
50
210.355093527
51
333.910348075
0
ARC
8
drawinglayer
10
0.874899923388
20
0.768637652455
30
0
40
0.754847403181
50
210.297797747
51
333.686722647
0
ARC
8
drawinglayer
10
0.525172501287
20
0.636474938353
30
0
40
0.628670810146
50
210.01131885
51
332.767526457
0
ARC
8
drawinglayer
10
2.05008634302
20
0.71657071629
30
0
40
0.584417855885
50
272.177239621
51
332.113380542
0
ARC
8
drawinglayer
10
2.05008634302
20
0.71657071629
30
0
40
0.584417855885
50
213.219882503
51
261.747287806
0
ARC
8
drawinglayer
10
2.05557977923
20
0.670642633499
30
0
40
0.507140235356
50
278.307888029
51
330.991471883
0
ARC
8
drawinglayer
10
2.05557977923
20
0.670642633499
30
0
40
0.507140235356
50
213.449065621
51
269.10440967
0
ARC
8
drawinglayer
10
2.05557977923
20
0.768026723227
30
0
40
0.561443960792
50
280.370536092
51
334.793677108
0
ARC
8
drawinglayer
10
2.05557977923
20
0.768026723227
30
0
40
0.561443960792
50
213.277178282
51
271.171469508
0
ARC
8
drawinglayer
10
2.05242166927
20
0.840392275687
30
0
40
0.663685923254
50
212.933403605
51
335.082734315
0
ARC
8
drawinglayer
10
0.280717053547
20
0.877491445759
30
0
40
0.569376187063
50
209.782135732
51
332.196860493
0
ARC
8
drawinglayer
10
0.359196825139
20
0.915994767687
30
0
40
0.574455767985
50
209.896727291
51
332.338782138
0
ARC
8
drawinglayer
10
0.172681117114
20
0.875934561597
30
0
40
0.566518614866
50
209.610248393
51
332.012310787
0
ARC
8
drawinglayer
10
0.66010903116
20
1.58551900655
30
0
40
0.627330707323
50
210.297797747
51
332.973676671
0
ARC
8
drawinglayer
10
0.787487775257
20
1.57237417444
30
0
40
0.623694693045
50
210.526980865
51
333.158340969
0
ARC
8
drawinglayer
10
0.532735213911
20
1.5986687655
30
0
40
0.63097164845
50
210.01131885
51
332.786434064
0
ARC
8
drawinglayer
10
0.546456487305
20
1.38134547309
30
0
40
0.617398180515
50
210.125910409
51
332.766552428
0
ARC
8
drawinglayer
10
0.600903091351
20
1.24879846479
30
0
40
0.608091363481
50
210.240501968
51
332.823389842
0
ARC
8
drawinglayer
10
0.492009883258
20
1.51389248138
30
0
40
0.626704997549
50
209.95402307
51
332.709428536
0
ARC
8
drawinglayer
10
1.01209787677
20
2.50457334723
30
0
40
0.605765890934
50
210.985347102
51
333.443559359
0
ARC
8
drawinglayer
10
1.06120377692
20
1.55142028728
30
0
40
0.603208856503
50
211.099938661
51
333.509048435
0
ARC
8
drawinglayer
10
1.05434560365
20
1.70843895265
30
0
40
0.610663178458
50
211.099938661
51
333.521137845
0
ARC
8
drawinglayer
10
0.438701381242
20
0.950665001392
30
0
40
0.578761833675
50
210.01131885
51
332.478870319
0
ARC
8
drawinglayer
10
0.519132184885
20
0.98080746122
30
0
40
0.581609552174
50
210.183206188
51
332.614775908
0
ARC
8
drawinglayer
10
1.05046324694
20
1.86304838904
30
0
40
0.615447148463
50
211.042642881
51
333.52961762
0
ARC
8
drawinglayer
10
0.822478254122
20
2.21532791873
30
0
40
0.631621992467
50
210.584276645
51
333.235518384
0
ARC
8
drawinglayer
10
1.10666873594
20
2.85875464048
30
0
40
0.560566981739
50
278.021409132
51
333.449690007
0
ARC
8
drawinglayer
10
0.764981930783
20
1.04448697957
30
0
40
0.582171212916
50
210.641572424
51
332.998772223
0
ARC
8
drawinglayer
10
0.845521125095
20
1.05687307699
30
0
40
0.580348278929
50
210.756163983
51
333.116343162
0
ARC
8
drawinglayer
10
0.290122407554
20
1.02984438549
30
0
40
0.58546727464
50
209.724839952
51
332.261432836
0
ARC
8
drawinglayer
10
0.337957180759
20
1.20300340692
30
0
40
0.604248421561
50
209.782135732
51
332.395963326
0
ARC
8
drawinglayer
10
0.705899162189
20
1.85522948029
30
0
40
0.637332210012
50
210.355093527
51
333.074574539
0
ARC
8
drawinglayer
10
1.01552696341
20
1.06726872757
30
0
40
0.570479801152
50
211.099938661
51
333.343406336
0
ARC
8
drawinglayer
10
1.08999135338
20
1.06531276867
30
0
40
0.564025629466
50
211.271825999
51
333.435251471
0
ARC
8
drawinglayer
10
1.05188217934
20
2.16876427246
30
0
40
0.614047923456
50
211.042642881
51
333.527554972
0
ARC
8
drawinglayer
10
1.05671541783
20
2.30696730297
30
0
40
0.608830390773
50
211.099938661
51
333.519132492
0
ARC
8
drawinglayer
10
1.06468705889
20
2.45048640313
30
0
40
0.603154661168
50
211.099938661
51
333.514090464
0
ARC
8
drawinglayer
10
0.743954140893
20
2.04267143586
30
0
40
0.635479714933
50
210.412389306
51
333.127343952
0
ARC
8
drawinglayer
10
0.789749198771
20
1.93264997943
30
0
40
0.633198584024
50
210.526980865
51
333.190483901
0
ARC
8
drawinglayer
10
0.873599235353
20
2.01007047857
30
0
40
0.629064958036
50
210.641572424
51
333.305304643
0
ARC
8
drawinglayer
10
0.957449271935
20
2.08748605086
30
0
40
0.624931332047
50
210.813459763
51
333.419151357
0
ARC
8
drawinglayer
10
1.08383771946
20
1.2299286346
30
0
40
0.579752130246
50
211.21453022
51
333.472837502
0
ARC
8
drawinglayer
10
1.07621588465
20
1.32760833524
30
0
40
0.589019532491
50
211.15723444
51
333.489109504
0
ARC
8
drawinglayer
10
0.89702147367
20
2.37795826467
30
0
40
0.61912257753
50
210.756163983
51
333.310862334
0
ARC
8
drawinglayer
10
1.07646222708
20
2.59712912531
30
0
40
0.591064174667
50
211.15723444
51
333.495583927
0
ARC
8
drawinglayer
10
0.518156668859
20
1.21635516666
30
0
40
0.60652955247
50
210.068614629
51
332.689088534
0
ARC
8
drawinglayer
10
0.4310253511
20
1.20997982455
30
0
40
0.606219161007
50
209.95402307
51
332.550490044
0
ARC
8
drawinglayer
10
0.222856143411
20
0.972224890932
30
0
40
0.577673000131
50
209.667544173
51
332.128506628
0
ARC
8
drawinglayer
10
0.68735943085
20
1.0290955045
30
0
40
0.583599999015
50
210.469685086
51
332.883435819
0
ARC
8
drawinglayer
10
0.660444056866
20
1.71936670288
30
0
40
0.633237998813
50
210.240501968
51
332.992068616
0
ARC
8
drawinglayer
10
0.754197059164
20
1.77043841562
30
0
40
0.633242925661
50
210.412389306
51
333.136282094
0
ARC
8
drawinglayer
10
0.566695981416
20
1.66829006329
30
0
40
0.633233071964
50
210.068614629
51
332.846422745
0
ARC
8
drawinglayer
10
0.67362830376
20
1.30510741762
30
0
40
0.610806057068
50
210.355093527
51
332.944513119
0
ARC
8
drawinglayer
10
0.423590736539
20
1.07555568694
30
0
40
0.592034763844
50
209.95402307
51
332.495314208
0
ARC
8
drawinglayer
10
1.04957148734
20
2.01378039558
30
0
40
0.616102419329
50
211.042642881
51
333.530247873
0
ARC
8
drawinglayer
10
0.600390699095
20
1.00652561099
30
0
40
0.583141802093
50
210.297797747
51
332.74684268
0
ARC
8
drawinglayer
10
1.0897302304
20
2.7256114835
30
0
40
0.577165534723
50
211.271825999
51
333.473868826
0
ARC
8
drawinglayer
10
0.442716762863
20
1.41335028169
30
0
40
0.620058678767
50
209.896727291
51
332.611338162
0
ARC
8
drawinglayer
10
0.924981339561
20
1.55172082505
30
0
40
0.612954163064
50
210.813459763
51
333.334468195
0
ARC
8
drawinglayer
10
0.9180837515
20
1.69529412055
30
0
40
0.619817263185
50
210.756163983
51
333.344666844
0
ARC
8
drawinglayer
10
0.782023900143
20
1.67396086604
30
0
40
0.628591980569
50
210.526980865
51
333.164758096
0
ARC
8
drawinglayer
10
0.931657219434
20
1.06510091418
30
0
40
0.576633435073
50
210.928051322
51
333.235747567
0
ARC
8
drawinglayer
10
0.406676865243
20
1.33954116259
30
0
40
0.61489041457
50
209.839431511
51
332.538343339
0
ARC
8
drawinglayer
10
0.852847348986
20
1.81902699667
30
0
40
0.627818465336
50
210.641572424
51
333.27018233
0
ARC
8
drawinglayer
10
0.951497638808
20
1.86761557771
30
0
40
0.622394005011
50
210.813459763
51
333.402650172
0
ARC
8
drawinglayer
10
0.770209317163
20
1.47260548999
30
0
40
0.618886088797
50
210.526980865
51
333.117431782
0
ARC
8
drawinglayer
10
0.872214790892
20
1.42427310507
30
0
40
0.608928927745
50
210.756163983
51
333.242737652
0
ARC
8
drawinglayer
10
0.974215337772
20
1.37594564701
30
0
40
0.598976693543
50
210.928051322
51
333.366611127
0
ARC
8
drawinglayer
10
0.731375896379
20
1.38143908321
30
0
40
0.614486412983
50
210.469685086
51
333.044608846
0
ARC
8
drawinglayer
10
0.823705039427
20
1.30124969515
30
0
40
0.60275558643
50
210.641572424
51
333.150491447
0
ARC
8
drawinglayer
10
0.916029255627
20
1.22106030709
30
0
40
0.591024759878
50
210.870755542
51
333.255228132
0
ARC
8
drawinglayer
10
0.759577177852
20
1.1809902473
30
0
40
0.595577167998
50
210.584276645
51
333.030857859
0
ARC
8
drawinglayer
10
0.644131261101
20
1.13894452122
30
0
40
0.595843217823
50
210.355093527
51
332.853470126
0
ARC
8
drawinglayer
10
0.622369370768
20
1.46995977228
30
0
40
0.621847124814
50
210.240501968
51
332.898504609
0
ARC
8
drawinglayer
10
1.25308974994
20
0.937598998864
30
0
40
0.572238686108
50
211.558304897
51
333.699786085
0
ARC
8
drawinglayer
10
1.40089520839
20
0.937598998864
30
0
40
0.572238686108
50
211.902079574
51
333.913900413
0
ARC
8
drawinglayer
10
1.54870066685
20
0.937598998864
30
0
40
0.572238686108
50
212.188558471
51
334.124806177
0
ARC
8
drawinglayer
10
1.6965061253
20
0.937598998864
30
0
40
0.572238686108
50
212.475037369
51
334.33261797
0
ARC
8
drawinglayer
10
2.24215460944
20
0.914605396377
30
0
40
0.555916036646
50
213.735544518
51
269.776603756
0
ARC
8
drawinglayer
10
1.9982066271
20
1.22581964285
30
0
40
0.575460845102
50
213.105290944
51
334.756434851
0
ARC
8
drawinglayer
10
1.89516651517
20
1.38036503021
30
0
40
0.58066359724
50
212.876107825
51
334.631243573
0
ARC
8
drawinglayer
10
1.49811671212
20
2.04617935207
30
0
40
0.583826634051
50
212.016671133
51
334.086876371
0
ARC
8
drawinglayer
10
1.48619866532
20
1.92246125649
30
0
40
0.585871276226
50
212.016671133
51
334.075932878
0
ARC
8
drawinglayer
10
1.27218128832
20
1.80363059474
30
0
40
0.585871276226
50
211.558304897
51
333.767853471
0
ARC
8
drawinglayer
10
1.24222604874
20
1.73430983473
30
0
40
0.585871276226
50
211.501009117
51
333.724194087
0
ARC
8
drawinglayer
10
1.80160073312
20
1.02999711779
30
0
40
0.577554755764
50
212.704220487
51
334.493790998
0
ARC
8
drawinglayer
10
1.74285299023
20
1.13259381336
30
0
40
0.580944427611
50
212.532333148
51
334.42234316
0
ARC
8
drawinglayer
10
1.18149771271
20
1.66363419134
30
0
40
0.584900687049
50
211.386417558
51
333.632348953
0
ARC
8
drawinglayer
10
1.82800864169
20
1.2461034786
30
0
40
0.580944427611
50
212.704220487
51
334.539971396
0
ARC
8
drawinglayer
10
1.68801716514
20
1.58165635724
30
0
40
0.585871276226
50
212.417741589
51
334.360349127
0
ARC
8
drawinglayer
10
1.60018623488
20
1.37842877871
30
0
40
0.585871276226
50
212.245854251
51
334.237277793
0
ARC
8
drawinglayer
10
1.64277391431
20
1.4351910016
30
0
40
0.585871276226
50
212.30315003
51
334.297094586
0
ARC
8
drawinglayer
10
1.77750844339
20
1.56509229219
30
0
40
0.583959658964
50
212.589628928
51
334.479065982
0
ARC
8
drawinglayer
10
1.51886859848
20
1.03322420364
30
0
40
0.581323794954
50
212.073966912
51
334.109049838
0
ARC
8
drawinglayer
10
1.48940604377
20
1.31691707375
30
0
40
0.585871276226
50
212.016671133
51
334.08051654
0
ARC
8
drawinglayer
10
1.45748006474
20
1.62105636561
30
0
40
0.587516843664
50
211.959375353
51
334.039836536
0
ARC
8
drawinglayer
10
1.97343443227
20
1.00092378412
30
0
40
0.572726444121
50
213.047995164
51
334.715010002
0
ARC
8
drawinglayer
10
1.67149251489
20
1.73824145992
30
0
40
0.585871276226
50
212.36044581
51
334.337258928
0
ARC
8
drawinglayer
10
1.68759838301
20
1.66137769468
30
0
40
0.585871276226
50
212.417741589
51
334.359776169
0
ARC
8
drawinglayer
10
1.2767090622
20
2.17704630499
30
0
40
0.580944427611
50
211.615600676
51
333.759889358
0
ARC
8
drawinglayer
10
1.18339454943
20
2.10508475411
30
0
40
0.580944427611
50
211.443713338
51
333.623410811
0
ARC
8
drawinglayer
10
1.17863521367
20
1.58813516316
30
0
40
0.584831711168
50
211.386417558
51
333.627937178
0
ARC
8
drawinglayer
10
2.05346123432
20
1.14715757786
30
0
40
0.572726444121
50
213.219882503
51
334.823127138
0
ARC
8
drawinglayer
10
1.18639500023
20
2.4498853276
30
0
40
0.572726444121
50
211.443713338
51
333.60347188
0
ARC
8
drawinglayer
10
1.17046157181
20
1.45836689749
30
0
40
0.584191220848
50
211.386417558
51
333.614014303
0
ARC
8
drawinglayer
10
1.28268532957
20
1.0486649472
30
0
40
0.580944427611
50
211.615600676
51
333.768598316
0
ARC
8
drawinglayer
10
1.3813060583
20
1.01489632679
30
0
40
0.580944427611
50
211.787488015
51
333.911264807
0
ARC
8
drawinglayer
10
1.27664994002
20
2.48256511446
30
0
40
0.572726444121
50
211.615600676
51
333.735538651
0
ARC
8
drawinglayer
10
1.18650831775
20
1.88652974954
30
0
40
0.583595072166
50
211.443713338
51
333.635843995
0
ARC
8
drawinglayer
10
1.59761934675
20
1.86298434001
30
0
40
0.585871276226
50
212.245854251
51
334.233668159
0
ARC
8
drawinglayer
10
1.12706588921
20
1.03726914635
30
0
40
0.577998172139
50
211.329121779
51
333.531680268
0
ARC
8
drawinglayer
10
1.6422565952
20
1.03907729979
30
0
40
0.580579840814
50
212.36044581
51
334.280937177
0
ARC
8
drawinglayer
10
1.15870611102
20
2.74182574229
30
0
40
0.561227179453
50
211.443713338
51
333.528643592
0
ARC
8
drawinglayer
10
1.20348623808
20
0.969820588808
30
0
40
0.577756756557
50
211.443713338
51
333.64352163
0
ARC
8
drawinglayer
10
1.18664626951
20
2.67698841452
30
0
40
0.564079824801
50
211.501009117
51
333.578261737
0
ARC
8
drawinglayer
10
1.15416355659
20
2.54009099889
30
0
40
0.568824380018
50
211.386417558
51
333.544457227
0
ARC
8
drawinglayer
10
1.17863521367
20
2.22748245426
30
0
40
0.577919342561
50
211.443713338
51
333.607482584
0
ARC
8
drawinglayer
10
1.63563491066
20
1.80176331912
30
0
40
0.585920544712
50
212.30315003
51
334.287239712
0
ARC
8
drawinglayer
10
1.11380773959
20
2.85074358463
30
0
40
0.560212248638
50
211.329121779
51
285.232827829
0
ARC
8
drawinglayer
10
2.1042324093
20
1.07387563156
30
0
40
0.56920867421
50
213.334474062
51
334.881225059
0
ARC
8
drawinglayer
10
1.3900216535
20
2.25267835808
30
0
40
0.580013253223
50
211.844783794
51
333.921119681
0
ARC
8
drawinglayer
10
1.34357132476
20
2.34358856873
30
0
40
0.577116266237
50
211.730192235
51
333.845603844
0
ARC
8
drawinglayer
10
1.1582282067
20
1.31007368102
30
0
40
0.582752581053
50
211.386417558
51
333.591783541
0
ARC
8
drawinglayer
10
1.42723906794
20
2.17911065456
30
0
40
0.581614479023
50
211.902079574
51
333.979217602
0
ARC
8
drawinglayer
10
1.14366936904
20
1.17093454928
30
0
40
0.580944427611
50
211.329121779
51
333.56491182
0
ARC
8
drawinglayer
10
2.09525569113
20
0.967081260978
30
0
40
0.567622228956
50
213.334474062
51
334.864666578
0
ARC
8
drawinglayer
10
1.55677084488
20
1.94015849672
30
0
40
0.585201224815
50
212.131262692
51
334.174080548
0
ARC
8
drawinglayer
10
1.3670773195
20
1.9007338541
30
0
40
0.585871276226
50
211.787488015
51
333.905306046
0
ARC
8
drawinglayer
10
1.24346268774
20
1.50058013642
30
0
40
0.585871276226
50
211.501009117
51
333.726027552
0
ARC
8
drawinglayer
10
1.67272915389
20
1.50451176162
30
0
40
0.585871276226
50
212.36044581
51
334.339035097
0
ARC
8
drawinglayer
10
1.37006791661
20
1.33645695536
30
0
40
0.585871276226
50
211.787488015
51
333.90960323
0
ARC
8
drawinglayer
10
1.27415202777
20
1.4318161103
30
0
40
0.585871276226
50
211.558304897
51
333.77071826
0
ARC
8
drawinglayer
10
1.3766649669
20
0.154239922747
30
0
40
0.559896930327
50
211.844783794
51
333.842739055
0
ARC
8
drawinglayer
10
1.30216116215
20
0.155397732172
30
0
40
0.561054739752
50
211.730192235
51
333.738231553
0
ARC
8
drawinglayer
10
1.23358928312
20
0.18251510695
30
0
40
0.561443960792
50
211.558304897
51
333.639339038
0
ARC
8
drawinglayer
10
1.41686312476
20
0.230438563429
30
0
40
0.559059366062
50
211.959375353
51
333.898144074
0
ARC
8
drawinglayer
10
1.3444877186
20
0.220249840493
30
0
40
0.548870643126
50
218.319206879
51
319.472327299
0
ARC
8
drawinglayer
10
1.17312207006
20
0.232823158159
30
0
40
0.561443960792
50
211.443713338
51
333.550530579
0
ARC
8
drawinglayer
10
1.27569413138
20
0.259152237159
30
0
40
0.548742545062
50
222.501798784
51
322.210206124
0
ARC
8
drawinglayer
10
1.42974190704
20
0.318560177761
30
0
40
0.555447986027
50
212.016671133
51
328.24299334
0
ARC
8
drawinglayer
10
1.36479126174
20
0.310889074467
30
0
40
0.576076701179
50
211.787488015
51
333.873163114
0
ARC
8
drawinglayer
10
1.21451745213
20
0.314884748694
30
0
40
0.551772556961
50
216.944108171
51
330.724015184
0
ARC
8
drawinglayer
10
1.13926476638
20
0.322945073028
30
0
40
0.559832881295
50
211.386417558
51
333.49581311
0
ARC
8
drawinglayer
10
1.31268491079
20
0.375036643437
30
0
40
0.578978615014
50
211.672896456
51
333.806356235
0
ARC
8
drawinglayer
10
2.25981736172
20
0.418905303506
30
0
40
0.561443960792
50
213.735544518
51
335.066003948
0
ENDSEC
0
EOF
