0
SECTION
2
HEADER
9
$ACADVER
1
AC1006
9
$INSBASE
10
0.0
20
0.0
30
0.0
9
$EXTMIN
10
0.0
20
0.0
9
$EXTMAX
10
0.0
20
0.0
0
ENDSEC
0
SECTION
2
TABLES
0
TABLE
2
LTYPE
70
1
0
LTYPE
2
CONTINUOUS
70
64
3
Solid line
72
65
73
0
40
0.0
0
ENDTAB
0
TABLE
2
LAYER
70
1
0
LAYER
2
PYDXF
70
64
62
7
6
continuous
0
ENDTAB
0
TABLE
2
STYLE
70
1
0
STYLE
2
STANDARD
70
0
40
0
41
40
50
50
71
0
42
1
3
ARIAL.TTF
4

0
ENDTAB
0
TABLE
2
VIEW
70
0
0
ENDTAB
0
ENDSEC
0
SECTION
2
BLOCKS
0
ENDSEC
0
SECTION
2
ENTITIES
0
ARC
8
drawinglayer
10
-0.487128712871
20
0.885431400283
30
0
40
0.639038189533
50
208.235149685
51
331.123309472
0
ARC
8
drawinglayer
10
-0.326166902405
20
1.05629420085
30
0
40
0.74342291372
50
208.177853905
51
331.733165749
0
ARC
8
drawinglayer
10
-0.438189533239
20
0.958415841584
30
0
40
0.661386138614
50
276.703606203
51
331.279784246
0
ARC
8
drawinglayer
10
-0.0585572842999
20
0.0650636492221
30
0
40
0.552475247525
50
280.084057194
51
282.206407459
0
ARC
8
drawinglayer
10
-0.0585572842999
20
0.0650636492221
30
0
40
0.552475247525
50
232.643151757
51
233.70363934
0
ARC
8
drawinglayer
10
-0.0585572842999
20
0.0650636492221
30
0
40
0.552475247525
50
222.444503004
51
222.450920131
0
ARC
8
drawinglayer
10
0.0132956152758
20
0.0676096181047
30
0
40
0.560113154173
50
289.652452373
51
290.729842211
0
ARC
8
drawinglayer
10
0.0132956152758
20
0.0676096181047
30
0
40
0.560113154173
50
254.472843752
51
256.595022129
0
ARC
8
drawinglayer
10
0.351060820368
20
0.963224893918
30
0
40
0.678642149929
50
209.552952614
51
332.646632362
0
ARC
8
drawinglayer
10
0.35360678925
20
0.891937765205
30
0
40
0.676944837341
50
209.552952614
51
332.645715629
0
ARC
8
drawinglayer
10
0.283451202263
20
0.946251768034
30
0
40
0.675530410184
50
209.438361055
51
332.529176014
0
ARC
8
drawinglayer
10
0.465629420085
20
0.880339462518
30
0
40
0.625742574257
50
247.59735021
51
319.69658298
0
ARC
8
drawinglayer
10
0.219801980198
20
0.861951909477
30
0
40
0.639603960396
50
212.532333148
51
316.124592198
0
ARC
8
drawinglayer
10
-0.358132956153
20
0.886562942008
30
0
40
0.712305516266
50
208.235149685
51
331.579670356
0
ARC
8
drawinglayer
10
-0.251768033946
20
0.193493635078
30
0
40
0.707496463932
50
232.815039096
51
331.745197863
0
ARC
8
drawinglayer
10
-0.592927864215
20
0.9756718529
30
0
40
0.577652050919
50
245.30551903
51
330.74131851
0
ARC
8
drawinglayer
10
-0.530975954738
20
1.09646393211
30
0
40
0.65261669024
50
213.105290944
51
331.09007792
0
ARC
8
drawinglayer
10
-0.351909476662
20
1.20792079208
30
0
40
0.745685997171
50
208.120558126
51
331.69609538
0
ARC
8
drawinglayer
10
-0.450636492221
20
1.1558698727
30
0
40
0.700141442716
50
208.120558126
51
331.381255071
0
ARC
8
drawinglayer
10
-0.14342291372
20
1.28118811881
30
0
40
0.782743988685
50
208.349741244
51
332.166321842
0
ARC
8
drawinglayer
10
-0.202263083451
20
0.376803394625
30
0
40
0.817538896747
50
208.177853905
51
332.177952885
0
ARC
8
drawinglayer
10
-0.0441301272984
20
0.381329561528
30
0
40
0.848939179632
50
208.349741244
51
332.539088184
0
ARC
8
drawinglayer
10
0.251768033946
20
0.193493635078
30
0
40
0.707496463932
50
209.266473716
51
307.175621692
0
ARC
8
drawinglayer
10
0.592079207921
20
0.977934936351
30
0
40
0.578783592645
50
210.297797747
51
307.850737862
0
ARC
8
drawinglayer
10
0.530975954738
20
1.09646393211
30
0
40
0.65261669024
50
209.95402307
51
327.893088015
0
ARC
8
drawinglayer
10
0.351909476662
20
1.20792079208
30
0
40
0.745685997171
50
209.323769496
51
332.855532774
0
ARC
8
drawinglayer
10
0.450636492221
20
1.1558698727
30
0
40
0.700141442716
50
209.667544173
51
332.870716155
0
ARC
8
drawinglayer
10
0.14342291372
20
1.28118811881
30
0
40
0.782743988685
50
208.86540326
51
332.636892079
0
ARC
8
drawinglayer
10
0.202263083451
20
0.376803394625
30
0
40
0.817538896747
50
208.86540326
51
332.840234801
0
ARC
8
drawinglayer
10
0.0441301272984
20
0.381329561528
30
0
40
0.848939179632
50
208.464332803
51
332.683244365
0
ARC
8
drawinglayer
10
0.493917963225
20
0.833380480905
30
0
40
0.639886845827
50
209.95402307
51
289.348899333
0
ARC
8
drawinglayer
10
0.326166902405
20
1.05629420085
30
0
40
0.74342291372
50
209.323769496
51
332.807289728
0
ARC
8
drawinglayer
10
-0.759264497878
20
0.101272984441
30
0
40
0.262234794908
50
87.4216899219
51
147.830922094
0
ARC
8
drawinglayer
10
-0.760396039604
20
0.0299858557284
30
0
40
0.352475247525
50
90.4010704566
51
147.556704493
0
ARC
8
drawinglayer
10
-0.735502121641
20
-0.152192362093
30
0
40
0.103536067893
50
86.5049574497
51
148.358100561
0
ARC
8
drawinglayer
10
-0.699292786421
20
-0.285714285714
30
0
40
0.0876944837341
50
83.640168474
51
148.474525585
0
ARC
8
drawinglayer
10
-0.737482319661
20
-0.268175388967
30
0
40
0.143988684583
50
83.525576915
51
148.231190409
0
ARC
8
drawinglayer
10
-0.71909476662
20
-0.347666195191
30
0
40
0.154455445545
50
82.6088444428
51
148.233940607
0
ARC
8
drawinglayer
10
-0.346251768034
20
1.11768033946
30
0
40
0.729561527581
50
208.177853905
51
331.654613235
0
ARC
8
drawinglayer
10
-0.234794908062
20
1.1360678925
30
0
40
0.744554455446
50
208.349741244
51
331.891416692
0
ARC
8
drawinglayer
10
-0.548514851485
20
0.52531824611
30
0
40
0.625742574257
50
219.121347792
51
330.97319453
0
ARC
8
drawinglayer
10
-0.53125884017
20
0.427439886846
30
0
40
0.6243281471
50
217.173291289
51
330.99897763
0
ARC
8
drawinglayer
10
-0.547100424328
20
0.319377652051
30
0
40
0.577369165488
50
225.2519962
51
330.822392038
0
ARC
8
drawinglayer
10
-0.261951909477
20
0.0772277227723
30
0
40
0.708910891089
50
214.423093872
51
331.732764679
0
ARC
8
drawinglayer
10
-0.283734087694
20
0.024045261669
30
0
40
0.726449787836
50
211.329121779
51
331.751271215
0
ARC
8
drawinglayer
10
-0.330410183876
20
-0.0565770862801
30
0
40
0.678642149929
50
226.51250335
51
331.520712999
0
ARC
8
drawinglayer
10
-0.364073550212
20
-0.203677510608
30
0
40
0.600848656294
50
236.768447882
51
331.216930776
0
ARC
8
drawinglayer
10
-0.24243281471
20
-0.00990099009901
30
0
40
0.759264497878
50
213.334474062
51
331.92510661
0
ARC
8
drawinglayer
10
-0.216690240453
20
-0.0925035360679
30
0
40
0.762093352192
50
211.329121779
51
331.977131178
0
ARC
8
drawinglayer
10
-0.427722772277
20
-0.285431400283
30
0
40
0.493069306931
50
246.967096636
51
330.766757836
0
ARC
8
drawinglayer
10
-0.389533239038
20
-0.385289957567
30
0
40
0.470155586987
50
250.175660288
51
330.762116878
0
ARC
8
drawinglayer
10
-0.365487977369
20
0.00594059405941
30
0
40
0.630551626591
50
217.517065966
51
331.308202952
0
ARC
8
drawinglayer
10
-0.435643564356
20
-0.0200848656294
30
0
40
0.577086280057
50
220.496446501
51
331.017598759
0
ARC
8
drawinglayer
10
-0.448939179632
20
0.264214992928
30
0
40
0.624611032532
50
237.513293016
51
331.144279727
0
ARC
8
drawinglayer
10
-0.473267326733
20
0.160678925035
30
0
40
0.57171145686
50
244.675265455
51
330.934290695
0
ARC
8
drawinglayer
10
-0.471004243281
20
0.0732673267327
30
0
40
0.558698727016
50
238.601912827
51
330.897392213
0
ARC
8
drawinglayer
10
-0.727864214993
20
0.153323903819
30
0
40
0.0503536067893
50
271.489690267
51
328.8449428
0
ARC
8
drawinglayer
10
-0.729561527581
20
0.268175388967
30
0
40
0.155021216407
50
263.410985356
51
329.166200235
0
ARC
8
drawinglayer
10
-0.621782178218
20
0.952475247525
30
0
40
0.358698727016
50
262.666140222
51
329.999166278
0
ARC
8
drawinglayer
10
-0.630551626591
20
0.846676096181
30
0
40
0.416407355021
50
269.770816882
51
330.164006236
0
ARC
8
drawinglayer
10
-0.608769448373
20
1.03026874116
30
0
40
0.4585572843
50
262.666140222
51
330.33595087
0
ARC
8
drawinglayer
10
-0.6
20
1.13352192362
30
0
40
0.437057991513
50
240.435377771
51
330.285014922
0
ARC
8
drawinglayer
10
-0.664780763791
20
0.739179632249
30
0
40
0.268175388967
50
259.572168129
51
329.638088275
0
ARC
8
drawinglayer
10
-0.687694483734
20
0.601131541726
30
0
40
0.267609618105
50
257.452224287
51
329.594257004
0
ARC
8
drawinglayer
10
-0.346817538897
20
0.124752475248
30
0
40
0.651202263083
50
221.527770532
51
331.405949552
0
ARC
8
drawinglayer
10
-0.219519094767
20
0.461669024045
30
0
40
0.742291371994
50
216.485741935
51
331.910152412
0
ARC
8
drawinglayer
10
-0.314851485149
20
0.328429985856
30
0
40
0.706647807638
50
217.402474407
51
331.635018079
0
ARC
8
drawinglayer
10
-0.198585572843
20
0.156718528996
30
0
40
0.756435643564
50
211.386417558
51
331.990251912
0
ARC
8
drawinglayer
10
-0.317680339463
20
0.436492220651
30
0
40
0.717680339463
50
208.292445464
51
331.666015095
0
ARC
8
drawinglayer
10
-0.175106082037
20
0.533521923621
30
0
40
0.762376237624
50
226.741686468
51
332.048865494
0
ARC
8
drawinglayer
10
-0.0840169731259
20
0.554455445545
30
0
40
0.831683168317
50
208.349741244
51
332.418595159
0
ARC
8
drawinglayer
10
-0.162093352192
20
0.490240452617
30
0
40
0.797171145686
50
208.292445464
51
332.180015533
0
ARC
8
drawinglayer
10
-0.168882602546
20
0.665912305516
30
0
40
0.776237623762
50
297.673861505
51
332.102494344
0
ARC
8
drawinglayer
10
-0.036775106082
20
0.699575671853
30
0
40
0.919377652051
50
208.120558126
51
332.774459246
0
ARC
8
drawinglayer
10
-0.12531824611
20
0.604809052334
30
0
40
0.818670438472
50
234.992278718
51
332.309217516
0
ARC
8
drawinglayer
10
-0.0964639321075
20
0.835643564356
30
0
40
0.872418670438
50
263.239098017
51
332.527342549
0
ARC
8
drawinglayer
10
-0.142857142857
20
0.757850070721
30
0
40
0.811598302687
50
256.821970712
51
332.257651315
0
ARC
8
drawinglayer
10
-0.0673267326733
20
0.805657708628
30
0
40
0.986421499293
50
207.891375008
51
332.936835485
0
ARC
8
drawinglayer
10
0.0
20
0.975106082037
30
0
40
0.968033946252
50
208.063262346
51
332.988172503
0
ARC
8
drawinglayer
10
-0.0545968882603
20
0.939745403112
30
0
40
1.01669024045
50
207.776783449
51
333.055036678
0
ARC
8
drawinglayer
10
-0.0760961810467
20
0.915417256011
30
0
40
0.957284299859
50
228.575151412
51
332.830322631
0
ARC
8
drawinglayer
10
-0.0514851485149
20
0.923620933522
30
0
40
0.915983026874
50
245.477406368
51
332.73950882
0
ARC
8
drawinglayer
10
-0.203111739745
20
0.736633663366
30
0
40
0.768882602546
50
234.877687158
51
332.022394844
0
ARC
8
drawinglayer
10
-0.239321074965
20
0.764639321075
30
0
40
0.736350777935
50
225.595770877
51
331.857382999
0
ARC
8
drawinglayer
10
-0.588684582744
20
1.03366336634
30
0
40
0.543705799151
50
241.294814464
51
330.641451966
0
ARC
8
drawinglayer
10
-0.620650636492
20
0.871852899576
30
0
40
0.521357850071
50
233.216109553
51
330.513510491
0
ARC
8
drawinglayer
10
-0.158698727016
20
0.989250353607
30
0
40
0.661951909477
50
230.064841679
51
331.759865582
0
ARC
8
drawinglayer
10
-0.147666195191
20
1.10608203678
30
0
40
0.740594059406
50
208.521628582
51
332.025546112
0
ARC
8
drawinglayer
10
-0.489108910891
20
1.00056577086
30
0
40
0.654314002829
50
208.177853905
51
331.16840125
0
ARC
8
drawinglayer
10
-0.433946251768
20
1.06223479491
30
0
40
0.691371994342
50
208.177853905
51
331.381828029
0
ARC
8
drawinglayer
10
-0.135219236209
20
1.3558698727
30
0
40
0.762376237624
50
208.464332803
51
332.115385894
0
ARC
8
drawinglayer
10
-0.0591230551627
20
1.35615275813
30
0
40
0.769448373409
50
208.578924362
51
332.263667372
0
ARC
8
drawinglayer
10
-0.0517680339463
20
1.2828854314
30
0
40
0.790099009901
50
208.521628582
51
332.340902082
0
ARC
8
drawinglayer
10
-0.174540311174
20
0.846676096181
30
0
40
0.629985855728
50
234.190137804
51
326.485158825
0
ARC
8
drawinglayer
10
-0.229702970297
20
0.814992927864
30
0
40
0.64639321075
50
226.856278027
51
312.942900266
0
ARC
8
drawinglayer
10
-0.532107496464
20
0.756435643564
30
0
40
0.573125884017
50
234.362025143
51
330.835570067
0
ARC
8
drawinglayer
10
-0.278642149929
20
1.03111739745
30
0
40
0.678925035361
50
208.464332803
51
331.60934957
0
ARC
8
drawinglayer
10
-0.0842998585573
20
1.0342291372
30
0
40
0.723338048091
50
216.772220832
51
332.076711243
0
ARC
8
drawinglayer
10
-0.123055162659
20
0.90297029703
30
0
40
0.700707213579
50
238.315433929
51
331.941435908
0
ARC
8
drawinglayer
10
-0.549080622348
20
-1.14285714286
30
0
40
0.537765205092
50
106.673071838
51
147.405615522
0
ARC
8
drawinglayer
10
-0.585007072136
20
-0.973408769448
30
0
40
0.523055162659
50
114.408002073
51
147.381150225
0
ARC
8
drawinglayer
10
-0.319660537482
20
-0.812729844413
30
0
40
0.0537482319661
50
283.980170201
51
329.600215765
0
ARC
8
drawinglayer
10
-0.34540311174
20
-0.64639321075
30
0
40
0.15756718529
50
313.48749665
51
329.871683168
0
ARC
8
drawinglayer
10
-0.391230551627
20
0.536916548798
30
0
40
0.712305516266
50
221.241291634
51
331.522661055
0
ARC
8
drawinglayer
10
-0.300424328147
20
0.601697312588
30
0
40
0.750777934936
50
228.460559853
51
331.800545586
0
ARC
8
drawinglayer
10
-0.404526166902
20
0.382178217822
30
0
40
0.678642149929
50
212.245854251
51
331.392485044
0
ARC
8
drawinglayer
10
-0.150495049505
20
-0.201131541726
30
0
40
0.730410183876
50
208.521628582
51
331.988704926
0
ARC
8
drawinglayer
10
0.0429985855728
20
0.746817538897
30
0
40
0.953041018388
50
208.177853905
51
333.009830308
0
ARC
8
drawinglayer
10
-0.664214992928
20
0.560113154173
30
0
40
0.441301272984
50
239.232166401
51
330.182054406
0
ARC
8
drawinglayer
10
-0.661103253182
20
0.62828854314
30
0
40
0.433097595474
50
242.268842716
51
330.162115475
0
ARC
8
drawinglayer
10
-0.622347949081
20
0.691937765205
30
0
40
0.504384724187
50
226.226024452
51
330.457417922
0
ARC
8
drawinglayer
10
-0.697595473833
20
0.459123055163
30
0
40
0.345120226308
50
252.35289991
51
329.818799164
0
ARC
8
drawinglayer
10
-0.693352192362
20
0.439038189533
30
0
40
0.394908062235
50
244.216899219
51
329.982779685
0
ARC
8
drawinglayer
10
-0.721357850071
20
0.307779349364
30
0
40
0.272984441301
50
257.337632728
51
329.548706859
0
ARC
8
drawinglayer
10
-0.716831683168
20
0.368882602546
30
0
40
0.243847241867
50
259.40028079
51
329.466200937
0
ARC
8
drawinglayer
10
-0.699858557284
20
0.287411598303
30
0
40
0.337199434229
50
249.316223596
51
329.789463725
0
ARC
8
drawinglayer
10
-0.424893917963
20
0.720792079208
30
0
40
0.676379066478
50
213.219882503
51
331.350544533
0
ARC
8
drawinglayer
10
-0.224045261669
20
1.59717114569
30
0
40
0.572842998586
50
208.86540326
51
331.369566732
0
ARC
8
drawinglayer
10
-0.180480905233
20
1.52277227723
30
0
40
0.653748231966
50
208.693515921
51
331.696840225
0
ARC
8
drawinglayer
10
-0.0364922206506
20
-0.437906647808
30
0
40
0.525601131542
50
280.141352974
51
331.540136268
0
ARC
8
drawinglayer
10
-0.0642149929279
20
-0.316265912306
30
0
40
0.638755304102
50
262.436957104
51
331.845178998
0
ARC
8
drawinglayer
10
-0.706082036775
20
-0.0118811881188
30
0
40
0.0899575671853
50
265.530929198
51
329.008063884
0
ARC
8
drawinglayer
10
-0.690806223479
20
0.038189533239
30
0
40
0.157284299859
50
266.562253229
51
329.24446627
0
ARC
8
drawinglayer
10
-0.667609618105
20
-0.1414427157
30
0
40
0.0885431400283
50
264.671492505
51
329.075271833
0
ARC
8
drawinglayer
10
-0.723620933522
20
0.0902404526167
30
0
40
0.0693069306931
50
270.515662016
51
328.911234016
0
ARC
8
drawinglayer
10
-0.724752475248
20
0.19801980198
30
0
40
0.171145685997
50
267.478985701
51
329.224584635
0
ARC
8
drawinglayer
10
-0.706930693069
20
0.144271570014
30
0
40
0.202828854314
50
266.50495745
51
329.356823294
0
ARC
8
drawinglayer
10
-0.669024045262
20
0.119377652051
30
0
40
0.278359264498
50
261.577520412
51
329.661293066
0
ARC
8
drawinglayer
10
-0.652050919378
20
-0.265063649222
30
0
40
0.101838755304
50
263.697464254
51
329.144313248
0
ARC
8
drawinglayer
10
-0.63847241867
20
-0.183309759547
30
0
40
0.197171145686
50
255.676055122
51
329.46425288
0
ARC
8
drawinglayer
10
-0.634794908062
20
-0.379632248939
30
0
40
0.121923620934
50
255.790646681
51
329.238163734
0
ARC
8
drawinglayer
10
-0.601131541726
20
-0.0958981612447
30
0
40
0.301838755304
50
257.738703184
51
329.858333252
0
ARC
8
drawinglayer
10
-0.592927864215
20
-0.290806223479
30
0
40
0.249787835926
50
253.785294398
51
329.711541465
0
ARC
8
drawinglayer
10
-0.58189533239
20
-0.414710042433
30
0
40
0.211032531825
50
254.873914209
51
329.611331146
0
ARC
8
drawinglayer
10
-0.746817538897
20
-0.0893917963225
30
0
40
0.112588401697
50
86.4476616702
51
148.308998078
0
ARC
8
drawinglayer
10
-0.686562942008
20
-0.283451202263
30
0
40
0.0305516265912
50
81.6921119706
51
148.672998165
0
ARC
8
drawinglayer
10
-0.61612446959
20
-0.505233380481
30
0
40
0.0418670438472
50
272.864788976
51
329.025710984
0
ARC
8
drawinglayer
10
-0.637906647808
20
-0.487411598303
30
0
40
0.000848656294201
50
270.802140913
51
328.860068885
0
ARC
8
drawinglayer
10
-0.225742574257
20
-0.206506364922
30
0
40
0.704101838755
50
223.705010153
51
331.778715894
0
ARC
8
drawinglayer
10
-0.560961810467
20
-1.1018387553
30
0
40
0.276096181047
50
82.2077739862
51
148.162148995
0
ARC
8
drawinglayer
10
-0.579915134371
20
-0.938330975955
30
0
40
0.276379066478
50
90.0
51
148.126396429
0
ARC
8
drawinglayer
10
-0.401131541726
20
-0.363790664781
30
0
40
1.03734087694
50
143.285074947
51
146.23895886
0
ARC
8
drawinglayer
10
-0.537482319661
20
-0.24441301273
30
0
40
0.931824611033
50
129.534087864
51
146.28009723
0
ARC
8
drawinglayer
10
-0.619801980198
20
-0.247807637907
30
0
40
0.84639321075
50
121.684566071
51
146.368447322
0
ARC
8
drawinglayer
10
-0.694200848656
20
-0.189533239038
30
0
40
0.726166902405
50
113.835044277
51
146.574826719
0
ARC
8
drawinglayer
10
-0.708345120226
20
-0.0964639321075
30
0
40
0.697312588402
50
105.011494232
51
146.632237091
0
ARC
8
drawinglayer
10
-0.748514851485
20
-0.137765205092
30
0
40
0.592927864215
50
97.2192682186
51
146.862279645
0
ARC
8
drawinglayer
10
-0.510608203678
20
-0.610466760962
30
0
40
0.0379066478076
50
147.926033088
51
148.976493909
0
ARC
8
drawinglayer
10
-0.46874115983
20
-0.803394625177
30
0
40
0.0862800565771
50
103.349916627
51
148.906191988
0
ARC
8
drawinglayer
10
-0.562942008487
20
-0.584158415842
30
0
40
0.0820367751061
50
140.534877531
51
148.745706509
0
ARC
8
drawinglayer
10
-0.725601131542
20
-0.304667609618
30
0
40
0.622347949081
50
141.7380889
51
146.819766177
0
ARC
8
drawinglayer
10
-0.725601131542
20
-0.304667609618
30
0
40
0.622347949081
50
102.089409477
51
102.090669984
0
ARC
8
drawinglayer
10
-0.276096181047
20
-0.592644978784
30
0
40
0.310608203678
50
296.585241694
51
330.464178824
0
ARC
8
drawinglayer
10
-0.252333804809
20
-0.515417256011
30
0
40
0.414427157001
50
290.683776404
51
330.827548658
0
ARC
8
drawinglayer
10
-0.193493635078
20
-0.740311173975
30
0
40
0.18387553041
50
294.637185191
51
330.219869621
0
ARC
8
drawinglayer
10
-0.237906647808
20
-0.317963224894
30
0
40
0.615275813296
50
246.336843061
51
331.478944375
0
ARC
8
drawinglayer
10
-0.23847241867
20
-0.43026874116
30
0
40
0.509759547383
50
269.140563307
51
331.14777477
0
ARC
8
drawinglayer
10
-0.665063649222
20
0.93946251768
30
0
40
0.159830268741
50
256.650083373
51
329.300043176
0
ARC
8
drawinglayer
10
-0.632531824611
20
1.10240452617
30
0
40
0.186704384724
50
258.712731436
51
329.443454512
0
ARC
8
drawinglayer
10
-0.716831683168
20
0.481753889675
30
0
40
0.135219236209
50
257.452224287
51
329.127697471
0
ARC
8
drawinglayer
10
-0.707213578501
20
0.598585572843
30
0
40
0.129561527581
50
257.509520066
51
329.128499612
0
ARC
8
drawinglayer
10
-0.775106082037
20
0.015558698727
30
0
40
0.223196605375
50
82.4369571043
51
147.919501369
0
ARC
8
drawinglayer
10
-0.71117397454
20
-0.440735502122
30
0
40
0.219236209335
50
88.5676055122
51
138.80603468
0
ARC
8
drawinglayer
10
-0.766902404526
20
-0.0659123055163
30
0
40
0.206506364922
50
84.4423093872
51
147.985047741
0
ARC
8
drawinglayer
10
-0.805091937765
20
-0.320509193777
30
0
40
0.397736916549
50
85.3590418594
51
147.334396868
0
ARC
8
drawinglayer
10
-0.760678925035
20
-0.168882602546
30
0
40
0.24243281471
50
140.64946909
51
147.887816803
0
ARC
8
drawinglayer
10
-0.817538896747
20
-0.0512022630835
30
0
40
0.29504950495
50
143.456962286
51
147.620703879
0
ARC
8
drawinglayer
10
-0.793776520509
20
-0.287411598303
30
0
40
0.214992927864
50
90.2864788976
51
147.908672467
0
ARC
8
drawinglayer
10
-0.758981612447
20
-0.338896746818
30
0
40
0.287411598303
50
110.168114389
51
139.536212094
0
ARC
8
drawinglayer
10
-0.81810466761
20
-0.153323903819
30
0
40
0.271852899576
50
79.4002807901
51
147.689172335
0
ARC
8
drawinglayer
10
-0.788967468175
20
-0.354172560113
30
0
40
0.199151343706
50
77.5095200661
51
147.966025542
0
ARC
8
drawinglayer
10
-0.839886845827
20
-0.530693069307
30
0
40
0.375106082037
50
84.2704220487
51
147.336115742
0
ARC
8
drawinglayer
10
-0.881753889675
20
-0.192362093352
30
0
40
0.382178217822
50
79.2856892311
51
147.23309793
0
ARC
8
drawinglayer
10
0.759264497878
20
0.101272984441
30
0
40
0.262234794908
50
33.2198825025
51
93.5689541059
0
ARC
8
drawinglayer
10
0.760396039604
20
0.0299858557284
30
0
40
0.352475247525
50
33.4490656206
51
89.6417867865
0
ARC
8
drawinglayer
10
0.735502121641
20
-0.152192362093
30
0
40
0.103536067893
50
32.7042204869
51
93.5207683553
0
ARC
8
drawinglayer
10
0.705799151344
20
-0.338330975955
30
0
40
0.129561527581
50
32.7042204869
51
96.380343415
0
ARC
8
drawinglayer
10
0.737482319661
20
-0.268175388967
30
0
40
0.143988684583
50
32.8188120459
51
96.4825017899
0
ARC
8
drawinglayer
10
0.346251768034
20
1.11768033946
30
0
40
0.729561527581
50
209.381065275
51
332.796117051
0
ARC
8
drawinglayer
10
0.234794908062
20
1.1360678925
30
0
40
0.744554455446
50
209.151882157
51
332.66485242
0
ARC
8
drawinglayer
10
0.548514851485
20
0.52531824611
30
0
40
0.625742574257
50
210.068614629
51
320.880714856
0
ARC
8
drawinglayer
10
0.554738330976
20
0.41612446959
30
0
40
0.603111739745
50
210.183206188
51
314.836010117
0
ARC
8
drawinglayer
10
0.547100424328
20
0.319377652051
30
0
40
0.577369165488
50
210.240501968
51
314.754306335
0
ARC
8
drawinglayer
10
0.261951909477
20
0.0772277227723
30
0
40
0.708910891089
50
209.323769496
51
325.538116885
0
ARC
8
drawinglayer
10
0.330410183876
20
-0.0565770862801
30
0
40
0.678642149929
50
209.495656834
51
313.447962563
0
ARC
8
drawinglayer
10
0.283734087694
20
0.024045261669
30
0
40
0.726449787836
50
209.266473716
51
327.6516436
0
ARC
8
drawinglayer
10
0.364073550212
20
-0.203677510608
30
0
40
0.600848656294
50
209.839431511
51
304.213258004
0
ARC
8
drawinglayer
10
0.24243281471
20
-0.00990099009901
30
0
40
0.759264497878
50
209.094586378
51
326.659166107
0
ARC
8
drawinglayer
10
0.253748231966
20
-0.112871287129
30
0
40
0.731824611033
50
209.209177937
51
317.461875692
0
ARC
8
drawinglayer
10
0.427722772277
20
-0.285431400283
30
0
40
0.493069306931
50
210.297797747
51
294.04841376
0
ARC
8
drawinglayer
10
0.389533239038
20
-0.385289957567
30
0
40
0.470155586987
50
210.297797747
51
287.782088947
0
ARC
8
drawinglayer
10
0.365487977369
20
0.00594059405941
30
0
40
0.630551626591
50
209.724839952
51
321.498019584
0
ARC
8
drawinglayer
10
0.435643564356
20
-0.0200848656294
30
0
40
0.577086280057
50
210.01131885
51
318.497325019
0
ARC
8
drawinglayer
10
0.448939179632
20
0.264214992928
30
0
40
0.624611032532
50
209.896727291
51
305.523096819
0
ARC
8
drawinglayer
10
0.473267326733
20
0.160678925035
30
0
40
0.57171145686
50
210.125910409
51
295.328917137
0
ARC
8
drawinglayer
10
0.471004243281
20
0.0732673267327
30
0
40
0.558698727016
50
210.125910409
51
301.401066554
0
ARC
8
drawinglayer
10
0.727864214993
20
0.153323903819
30
0
40
0.0503536067893
50
212.188558471
51
268.516383085
0
ARC
8
drawinglayer
10
0.729561527581
20
0.268175388967
30
0
40
0.155021216407
50
211.902079574
51
276.572398868
0
ARC
8
drawinglayer
10
0.6
20
1.13352192362
30
0
40
0.437057991513
50
210.756163983
51
299.554652763
0
ARC
8
drawinglayer
10
0.608769448373
20
1.03026874116
30
0
40
0.4585572843
50
210.698868204
51
277.293810028
0
ARC
8
drawinglayer
10
0.630551626591
20
0.846676096181
30
0
40
0.416407355021
50
210.870755542
51
271.214498638
0
ARC
8
drawinglayer
10
0.621782178218
20
0.952475247525
30
0
40
0.358698727016
50
211.042642881
51
277.294382986
0
ARC
8
drawinglayer
10
0.664780763791
20
0.739179632249
30
0
40
0.268175388967
50
211.386417558
51
280.4328739
0
ARC
8
drawinglayer
10
0.687694483734
20
0.601131541726
30
0
40
0.267609618105
50
211.443713338
51
282.526805458
0
ARC
8
drawinglayer
10
0.346817538897
20
0.124752475248
30
0
40
0.651202263083
50
209.610248393
51
318.48563668
0
ARC
8
drawinglayer
10
0.203111739745
20
0.44441301273
30
0
40
0.764639321075
50
209.037290598
51
316.403393461
0
ARC
8
drawinglayer
10
0.314851485149
20
0.328429985856
30
0
40
0.706647807638
50
209.381065275
51
322.607265876
0
ARC
8
drawinglayer
10
0.198585572843
20
0.156718528996
30
0
40
0.756435643564
50
209.037290598
51
328.595018609
0
ARC
8
drawinglayer
10
0.317680339463
20
0.436492220651
30
0
40
0.717680339463
50
209.381065275
51
332.714298677
0
ARC
8
drawinglayer
10
0.175106082037
20
0.533521923621
30
0
40
0.762376237624
50
208.979994819
51
310.166862453
0
ARC
8
drawinglayer
10
0.0840169731259
20
0.554455445545
30
0
40
0.831683168317
50
208.636220141
51
332.693729493
0
ARC
8
drawinglayer
10
0.168882602546
20
0.665912305516
30
0
40
0.776237623762
50
208.922699039
51
242.266780068
0
ARC
8
drawinglayer
10
0.235360678925
20
0.473550212164
30
0
40
0.724186704385
50
209.209177937
51
321.470059244
0
ARC
8
drawinglayer
10
0.12531824611
20
0.604809052334
30
0
40
0.818670438472
50
208.693515921
51
304.980906858
0
ARC
8
drawinglayer
10
0.0964639321075
20
0.835643564356
30
0
40
0.872418670438
50
208.521628582
51
276.683839159
0
ARC
8
drawinglayer
10
0.142857142857
20
0.757850070721
30
0
40
0.811598302687
50
208.750811701
51
283.119473001
0
ARC
8
drawinglayer
10
0.100424328147
20
0.81216407355
30
0
40
0.966902404526
50
208.235149685
51
307.307000914
0
ARC
8
drawinglayer
10
0.0545968882603
20
0.939745403112
30
0
40
1.01669024045
50
207.948670787
51
333.230648242
0
ARC
8
drawinglayer
10
0.0760961810467
20
0.915417256011
30
0
40
0.957284299859
50
208.177853905
51
311.390814895
0
ARC
8
drawinglayer
10
0.0514851485149
20
0.923620933522
30
0
40
0.915983026874
50
208.292445464
51
295.527676196
0
ARC
8
drawinglayer
10
0.203111739745
20
0.736633663366
30
0
40
0.768882602546
50
209.037290598
51
305.10712946
0
ARC
8
drawinglayer
10
0.239321074965
20
0.764639321075
30
0
40
0.736350777935
50
209.151882157
51
314.37644067
0
ARC
8
drawinglayer
10
0.588684582744
20
1.03366336634
30
0
40
0.543705799151
50
210.412389306
51
300.715121481
0
ARC
8
drawinglayer
10
0.620650636492
20
0.871852899576
30
0
40
0.521357850071
50
210.526980865
51
306.804173153
0
ARC
8
drawinglayer
10
0.158698727016
20
0.989250353607
30
0
40
0.661951909477
50
209.266473716
51
312.964672662
0
ARC
8
drawinglayer
10
0.106930693069
20
1.08231966054
30
0
40
0.737199434229
50
208.922699039
51
332.435325527
0
ARC
8
drawinglayer
10
0.433946251768
20
1.06223479491
30
0
40
0.691371994342
50
209.667544173
51
332.817373785
0
ARC
8
drawinglayer
10
0.0591230551627
20
1.35615275813
30
0
40
0.769448373409
50
208.750811701
51
332.457785473
0
ARC
8
drawinglayer
10
0.135219236209
20
1.3558698727
30
0
40
0.762376237624
50
208.922699039
51
332.560173031
0
ARC
8
drawinglayer
10
0.0517680339463
20
1.2828854314
30
0
40
0.790099009901
50
208.693515921
51
332.510784069
0
ARC
8
drawinglayer
10
0.134370579915
20
0.884299858557
30
0
40
0.646110325318
50
209.266473716
51
285.029656995
0
ARC
8
drawinglayer
10
0.278642149929
20
1.03111739745
30
0
40
0.678925035361
50
209.438361055
51
332.531983507
0
ARC
8
drawinglayer
10
0.101272984441
20
0.937199434229
30
0
40
0.709193776521
50
209.037290598
51
295.369253365
0
ARC
8
drawinglayer
10
0.549080622348
20
-1.14285714286
30
0
40
0.537765205092
50
33.6209529591
51
73.3559198261
0
ARC
8
drawinglayer
10
0.585007072136
20
-0.973408769448
30
0
40
0.523055162659
50
33.6209529591
51
65.5945189417
0
ARC
8
drawinglayer
10
0.319660537482
20
-0.812729844413
30
0
40
0.0537482319661
50
211.443713338
51
256.029627377
0
ARC
8
drawinglayer
10
0.34540311174
20
-0.64639321075
30
0
40
0.15756718529
50
211.15723444
51
222.403536522
0
ARC
8
drawinglayer
10
0.391230551627
20
0.536916548798
30
0
40
0.712305516266
50
209.495656834
51
318.748968083
0
ARC
8
drawinglayer
10
0.300424328147
20
0.601697312588
30
0
40
0.750777934936
50
209.266473716
51
311.503114623
0
ARC
8
drawinglayer
10
0.450636492221
20
0.391513437058
30
0
40
0.655445544554
50
209.782135732
51
322.752567972
0
ARC
8
drawinglayer
10
0.150495049505
20
-0.201131541726
30
0
40
0.730410183876
50
209.037290598
51
332.484485306
0
ARC
8
drawinglayer
10
0.664214992928
20
0.560113154173
30
0
40
0.441301272984
50
210.870755542
51
295.736748495
0
ARC
8
drawinglayer
10
0.622347949081
20
0.691937765205
30
0
40
0.504384724187
50
210.584276645
51
313.765896843
0
ARC
8
drawinglayer
10
0.661103253182
20
0.62828854314
30
0
40
0.433097595474
50
210.870755542
51
297.725599594
0
ARC
8
drawinglayer
10
0.697595473833
20
0.459123055163
30
0
40
0.345120226308
50
211.21453022
51
287.665606627
0
ARC
8
drawinglayer
10
0.693352192362
20
0.439038189533
30
0
40
0.394908062235
50
211.042642881
51
295.757718751
0
ARC
8
drawinglayer
10
0.721357850071
20
0.307779349364
30
0
40
0.272984441301
50
211.501009117
51
282.64529313
0
ARC
8
drawinglayer
10
0.716831683168
20
0.368882602546
30
0
40
0.243847241867
50
211.558304897
51
281.60228076
0
ARC
8
drawinglayer
10
0.699858557284
20
0.287411598303
30
0
40
0.337199434229
50
211.271825999
51
290.680911615
0
ARC
8
drawinglayer
10
0.424893917963
20
0.720792079208
30
0
40
0.676379066478
50
209.667544173
51
326.766710285
0
ARC
8
drawinglayer
10
0.224045261669
20
1.59717114569
30
0
40
0.572842998586
50
209.667544173
51
332.116589106
0
ARC
8
drawinglayer
10
0.231683168317
20
1.51089108911
30
0
40
0.649222065064
50
209.438361055
51
332.364565239
0
ARC
8
drawinglayer
10
0.0364922206506
20
-0.437906647808
30
0
40
0.525601131542
50
209.495656834
51
259.801809613
0
ARC
8
drawinglayer
10
0.0376237623762
20
-0.314002828854
30
0
40
0.644695898161
50
209.094586378
51
332.033682113
0
ARC
8
drawinglayer
10
0.706082036775
20
-0.0118811881188
30
0
40
0.0899575671853
50
212.016671133
51
274.463169337
0
ARC
8
drawinglayer
10
0.667609618105
20
-0.1414427157
30
0
40
0.0885431400283
50
211.959375353
51
275.330856622
0
ARC
8
drawinglayer
10
0.690806223479
20
0.038189533239
30
0
40
0.157284299859
50
211.787488015
51
273.421761248
0
ARC
8
drawinglayer
10
0.724752475248
20
0.19801980198
30
0
40
0.171145685997
50
211.844783794
51
272.534822581
0
ARC
8
drawinglayer
10
0.723620933522
20
0.0902404526167
30
0
40
0.0693069306931
50
212.131262692
51
269.504448803
0
ARC
8
drawinglayer
10
0.706930693069
20
0.144271570014
30
0
40
0.202828854314
50
211.672896456
51
273.486963845
0
ARC
8
drawinglayer
10
0.669024045262
20
0.119377652051
30
0
40
0.278359264498
50
211.386417558
51
280.454474409
0
ARC
8
drawinglayer
10
0.652050919378
20
-0.265063649222
30
0
40
0.101838755304
50
211.902079574
51
277.285272957
0
ARC
8
drawinglayer
10
0.634794908062
20
-0.379632248939
30
0
40
0.121923620934
50
211.787488015
51
285.232827829
0
ARC
8
drawinglayer
10
0.63847241867
20
-0.183309759547
30
0
40
0.197171145686
50
211.558304897
51
284.312084652
0
ARC
8
drawinglayer
10
0.601131541726
20
-0.0958981612447
30
0
40
0.301838755304
50
211.15723444
51
282.256713153
0
ARC
8
drawinglayer
10
0.592927864215
20
-0.290806223479
30
0
40
0.249787835926
50
211.329121779
51
286.213559687
0
ARC
8
drawinglayer
10
0.607920792079
20
-0.400282885431
30
0
40
0.177652050919
50
211.558304897
51
285.193866699
0
ARC
8
drawinglayer
10
0.746817538897
20
-0.0893917963225
30
0
40
0.112588401697
50
32.7042204869
51
93.5583543867
0
ARC
8
drawinglayer
10
0.691654879774
20
-0.233663366337
30
0
40
0.0347949080622
50
32.3604458098
51
95.373656569
0
ARC
8
drawinglayer
10
0.61612446959
20
-0.505233380481
30
0
40
0.0418670438472
50
212.016671133
51
267.124439418
0
ARC
8
drawinglayer
10
0.637906647808
20
-0.487411598303
30
0
40
0.000848656294201
50
212.188558471
51
270.209416074
0
ARC
8
drawinglayer
10
0.225742574257
20
-0.206506364922
30
0
40
0.704101838755
50
209.266473716
51
316.303756101
0
ARC
8
drawinglayer
10
0.560961810467
20
-1.1018387553
30
0
40
0.276096181047
50
32.8761078255
51
97.7956637605
0
ARC
8
drawinglayer
10
0.579915134371
20
-0.938330975955
30
0
40
0.276379066478
50
32.8761078255
51
90.0090527332
0
ARC
8
drawinglayer
10
0.401131541726
20
-0.363790664781
30
0
40
1.03734087694
50
34.7668685494
51
36.7126332217
0
ARC
8
drawinglayer
10
0.537482319661
20
-0.24441301273
30
0
40
0.931824611033
50
34.7095727699
51
50.4910076874
0
ARC
8
drawinglayer
10
0.619801980198
20
-0.247807637907
30
0
40
0.84639321075
50
34.6522769904
51
58.3667136519
0
ARC
8
drawinglayer
10
0.694200848656
20
-0.189533239038
30
0
40
0.726166902405
50
34.4230938723
51
66.2154906001
0
ARC
8
drawinglayer
10
0.748514851485
20
-0.137765205092
30
0
40
0.592927864215
50
34.1366149747
51
83.7996799242
0
ARC
8
drawinglayer
10
0.708345120226
20
-0.0964639321075
30
0
40
0.697312588402
50
34.3657980928
51
74.9959542189
0
ARC
8
drawinglayer
10
0.562942008487
20
-0.584158415842
30
0
40
0.0820367751061
50
32.3031500303
51
39.4583615675
0
ARC
8
drawinglayer
10
0.46874115983
20
-0.803394625177
30
0
40
0.0862800565771
50
32.1312626918
51
76.6483072043
0
ARC
8
drawinglayer
10
0.725601131542
20
-0.304667609618
30
0
40
0.622347949081
50
77.9105905227
51
79.8538914765
0
ARC
8
drawinglayer
10
0.725601131542
20
-0.304667609618
30
0
40
0.622347949081
50
34.1939107543
51
38.2495352113
0
ARC
8
drawinglayer
10
0.276096181047
20
-0.592644978784
30
0
40
0.310608203678
50
210.584276645
51
243.373046978
0
ARC
8
drawinglayer
10
0.252333804809
20
-0.515417256011
30
0
40
0.414427157001
50
210.183206188
51
249.310207539
0
ARC
8
drawinglayer
10
0.231117397454
20
-0.748231966054
30
0
40
0.164639321075
50
210.928051322
51
248.535740487
0
ARC
8
drawinglayer
10
0.237906647808
20
-0.317963224894
30
0
40
0.615275813296
50
209.552952614
51
292.579235382
0
ARC
8
drawinglayer
10
0.300424328147
20
-0.396322489392
30
0
40
0.523620933522
50
209.95402307
51
288.564233633
0
ARC
8
drawinglayer
10
0.665063649222
20
0.93946251768
30
0
40
0.159830268741
50
211.730192235
51
283.369454487
0
ARC
8
drawinglayer
10
0.631117397454
20
1.12022630835
30
0
40
0.217821782178
50
211.501009117
51
287.312034371
0
ARC
8
drawinglayer
10
0.716831683168
20
0.481753889675
30
0
40
0.135219236209
50
211.902079574
51
282.525716838
0
ARC
8
drawinglayer
10
0.695898161245
20
0.634794908062
30
0
40
0.162093352192
50
211.787488015
51
282.474666299
0
ARC
8
drawinglayer
10
0.775106082037
20
0.015558698727
30
0
40
0.223196605375
50
33.1052909435
51
96.5786441079
0
ARC
8
drawinglayer
10
0.71117397454
20
-0.440735502122
30
0
40
0.219236209335
50
42.2153198861
51
91.4439682353
0
ARC
8
drawinglayer
10
0.766902404526
20
-0.0659123055163
30
0
40
0.206506364922
50
33.047995164
51
95.5743636846
0
ARC
8
drawinglayer
10
0.805091937765
20
-0.320509193777
30
0
40
0.397736916549
50
33.6782487386
51
94.6680017485
0
ARC
8
drawinglayer
10
0.760678925035
20
-0.168882602546
30
0
40
0.24243281471
50
33.162586723
51
39.3195911895
0
ARC
8
drawinglayer
10
0.817538896747
20
-0.0512022630835
30
0
40
0.29504950495
50
33.3917698411
51
36.5059100492
0
ARC
8
drawinglayer
10
0.793776520509
20
-0.287411598303
30
0
40
0.214992927864
50
33.1052909435
51
89.752883303
0
ARC
8
drawinglayer
10
0.758981612447
20
-0.338896746818
30
0
40
0.287411598303
50
40.4391507212
51
59.7730958559
0
ARC
8
drawinglayer
10
0.81810466761
20
-0.153323903819
30
0
40
0.271852899576
50
33.3344740616
51
100.612266986
0
ARC
8
drawinglayer
10
0.788967468175
20
-0.354172560113
30
0
40
0.199151343706
50
33.047995164
51
102.518211091
0
ARC
8
drawinglayer
10
0.839886845827
20
-0.530693069307
30
0
40
0.375106082037
50
33.6782487386
51
95.7642991937
0
ARC
8
drawinglayer
10
0.881753889675
20
-0.192362093352
30
0
40
0.382178217822
50
33.7928402977
51
100.753844857
0
ARC
8
drawinglayer
10
-0.584441301273
20
-0.517963224894
30
0
40
0.100141442716
50
272.979380535
51
329.263431173
0
ARC
8
drawinglayer
10
-0.644130127298
20
-0.469872701556
30
0
40
0.10297029703
50
116.814424812
51
148.531191111
0
ARC
8
drawinglayer
10
-0.665063649222
20
-0.39801980198
30
0
40
0.0234794908062
50
84.7287882848
51
148.734992199
0
ARC
8
drawinglayer
10
-0.744837340877
20
0.320792079208
30
0
40
0.138896746818
50
83.525576915
51
148.232909283
0
ARC
8
drawinglayer
10
-0.744837340877
20
0.452333804809
30
0
40
0.156435643564
50
84.4996051667
51
148.179624208
0
ARC
8
drawinglayer
10
-0.725601131542
20
0.637340876945
30
0
40
0.0138613861386
50
258.540844097
51
328.736882959
0
ARC
8
drawinglayer
10
-0.735219236209
20
0.479207920792
30
0
40
0.0625176803395
50
83.525576915
51
148.484380459
0
ARC
8
drawinglayer
10
-0.726166902405
20
0.474964639321
30
0
40
0.00509193776521
50
262.494252884
51
328.70863614
0
ARC
8
drawinglayer
10
-0.751343705799
20
0.209618104668
30
0
40
0.123903818953
50
83.4682811355
51
148.266541905
0
ARC
8
drawinglayer
10
-0.733804809052
20
0.362376237624
30
0
40
0.0101838755304
50
262.494252884
51
328.709953943
0
ARC
8
drawinglayer
10
-0.749646393211
20
0.123055162659
30
0
40
0.0970297029703
50
85.4736334185
51
148.351798025
0
ARC
8
drawinglayer
10
-0.731541725601
20
0.263366336634
30
0
40
0.0316831683168
50
268.453013953
51
328.780485048
0
ARC
8
drawinglayer
10
-0.548514851485
20
-0.500424328147
30
0
40
0.183309759547
50
265.072562962
51
329.585548046
0
ARC
8
drawinglayer
10
-0.535785007072
20
-0.391230551627
30
0
40
0.291371994342
50
254.931209988
51
329.943818555
0
ARC
8
drawinglayer
10
-0.514568599717
20
-0.485431400283
30
0
40
0.255728429986
50
258.082477861
51
329.871453985
0
ARC
8
drawinglayer
10
-0.0956152758133
20
1.2090523338
30
0
40
0.786421499293
50
208.464332803
51
332.256619991
0
ARC
8
drawinglayer
10
-0.232531824611
20
1.27270155587
30
0
40
0.768882602546
50
208.292445464
51
331.972776699
0
ARC
8
drawinglayer
10
-0.190664780764
20
0.265629420085
30
0
40
0.791513437058
50
211.271825999
51
332.114870232
0
ARC
8
drawinglayer
10
-0.0721357850071
20
0.310042432815
30
0
40
0.846676096181
50
208.292445464
51
332.486433362
0
ARC
8
drawinglayer
10
0.0
20
0.312305516266
30
0
40
0.847241867044
50
208.407037023
51
332.605551288
0
ARC
8
drawinglayer
10
-0.127015558699
20
0.317963224894
30
0
40
0.796605374823
50
225.710362436
51
332.237254017
0
ARC
8
drawinglayer
10
-0.245827439887
20
0.300424328147
30
0
40
0.754455445545
50
229.606475443
51
331.903964468
0
ARC
8
drawinglayer
10
-0.0783592644979
20
0.473833097595
30
0
40
0.873833097595
50
208.177853905
51
332.561376242
0
ARC
8
drawinglayer
10
0.0
20
0.457708628006
30
0
40
0.872984441301
50
208.349741244
51
332.687140478
0
ARC
8
drawinglayer
10
0.0956152758133
20
1.2090523338
30
0
40
0.786421499293
50
208.750811701
51
332.570142496
0
ARC
8
drawinglayer
10
0.232531824611
20
1.27270155587
30
0
40
0.768882602546
50
209.037290598
51
332.736758623
0
ARC
8
drawinglayer
10
0.190664780764
20
0.265629420085
30
0
40
0.791513437058
50
208.922699039
51
328.686405378
0
ARC
8
drawinglayer
10
0.0763790664781
20
0.269024045262
30
0
40
0.839886845827
50
208.578924362
51
332.707194001
0
ARC
8
drawinglayer
10
0.127015558699
20
0.317963224894
30
0
40
0.796605374823
50
208.80810748
51
314.240706968
0
ARC
8
drawinglayer
10
0.245827439887
20
0.300424328147
30
0
40
0.754455445545
50
209.151882157
51
310.340697848
0
ARC
8
drawinglayer
10
0.0783592644979
20
0.473833097595
30
0
40
0.873833097595
50
208.464332803
51
332.817316489
0
ARC
8
drawinglayer
10
0.35954738331
20
0.882319660537
30
0
40
0.720792079208
50
209.438361055
51
332.790330177
0
ARC
8
drawinglayer
10
0.456859971711
20
1.01159830269
30
0
40
0.719943422914
50
209.610248393
51
332.94124726
0
ARC
8
drawinglayer
10
-0.756152758133
20
-0.0690240452617
30
0
40
0.424045261669
50
95.2712117152
51
116.001512292
0
ARC
8
drawinglayer
10
0.0
20
1.21272984441
30
0
40
0.777652050919
50
208.636220141
51
332.386910593
0
ARC
8
drawinglayer
10
-0.451485148515
20
0.588967468175
30
0
40
0.684582743989
50
221.183995855
51
331.32968887
0
ARC
8
drawinglayer
10
-0.612446958982
20
0.36775106082
30
0
40
0.514568599717
50
239.232166401
51
330.506634997
0
ARC
8
drawinglayer
10
-0.611881188119
20
0.476096181047
30
0
40
0.541159830269
50
232.184785521
51
330.592578666
0
ARC
8
drawinglayer
10
-0.408203677511
20
-0.13125884017
30
0
40
0.577934936351
50
231.611827726
51
331.067789862
0
ARC
8
drawinglayer
10
-0.307213578501
20
-0.148797736917
30
0
40
0.676379066478
50
230.695095254
51
331.553257001
0
ARC
8
drawinglayer
10
-0.344271570014
20
-0.334087694484
30
0
40
0.547949080622
50
243.070983629
51
331.08423375
0
ARC
8
drawinglayer
10
-0.433097595474
20
-0.435077793494
30
0
40
0.393493635078
50
253.155040823
51
330.445385809
0
ARC
8
drawinglayer
10
-0.465912305516
20
-0.332673267327
30
0
40
0.423196605375
50
247.941124887
51
330.480336234
0
ARC
8
drawinglayer
10
-0.476096181047
20
-0.185289957567
30
0
40
0.477793493635
50
245.821181045
51
330.632914895
0
ARC
8
drawinglayer
10
-0.415841584158
20
0.0862800565771
30
0
40
0.618387553041
50
217.402474407
51
331.181923054
0
ARC
8
drawinglayer
10
-0.436775106082
20
0.184724186704
30
0
40
0.629985855728
50
220.324559162
51
331.182610604
0
ARC
8
drawinglayer
10
-0.358698727016
20
0.217256011315
30
0
40
0.675247524752
50
220.381854942
51
331.460953501
0
ARC
8
drawinglayer
10
-0.491371994342
20
0.354172560113
30
0
40
0.625459688826
50
216.256558817
51
331.072545411
0
ARC
8
drawinglayer
10
-0.738613861386
20
0.0302687411598
30
0
40
0.0707213578501
50
88.4530139531
51
148.452695893
0
ARC
8
drawinglayer
10
-0.726449787836
20
0.372560113154
30
0
40
0.140594059406
50
262.436957104
51
329.126723443
0
ARC
8
drawinglayer
10
-0.608486562942
20
1.16407355021
30
0
40
0.385289957567
50
239.518645299
51
330.106423977
0
ARC
8
drawinglayer
10
-0.618670438472
20
1.0441301273
30
0
40
0.340311173975
50
259.686759688
51
329.946797935
0
ARC
8
drawinglayer
10
-0.65459688826
20
0.689391796322
30
0
40
0.3756718529
50
264.614196726
51
329.992462672
0
ARC
8
drawinglayer
10
-0.6828854314
20
0.813861386139
30
0
40
0.207920792079
50
254.530139531
51
329.416811975
0
ARC
8
drawinglayer
10
-0.644695898161
20
0.994908062235
30
0
40
0.255728429986
50
255.618759342
51
329.635395374
0
ARC
8
drawinglayer
10
-0.267609618105
20
0.528429985856
30
0
40
0.738330975955
50
224.507151067
51
331.816301925
0
ARC
8
drawinglayer
10
-0.0370579915134
20
0.493069306931
30
0
40
0.844130127298
50
208.349741244
51
332.535192071
0
ARC
8
drawinglayer
10
0.0
20
0.5756718529
30
0
40
0.842715700141
50
208.407037023
51
332.591743005
0
ARC
8
drawinglayer
10
-0.386704384724
20
0.312588401697
30
0
40
0.685431400283
50
210.297797747
51
331.445540936
0
ARC
8
drawinglayer
10
-0.114568599717
20
0.747666195191
30
0
40
0.918528995757
50
241.065631346
51
332.644397826
0
ARC
8
drawinglayer
10
-0.112022630835
20
0.857425742574
30
0
40
0.827157001414
50
236.023602749
51
332.358491887
0
ARC
8
drawinglayer
10
0.0
20
0.898161244696
30
0
40
1.03083451202
50
207.834079228
51
333.187619112
0
ARC
8
drawinglayer
10
0.0
20
0.994625176803
30
0
40
0.914851485149
50
208.235149685
51
332.819894799
0
ARC
8
drawinglayer
10
-0.113719943423
20
0.835077793494
30
0
40
0.931541725601
50
241.065631346
51
332.686624816
0
ARC
8
drawinglayer
10
-0.187553041018
20
0.677510608204
30
0
40
0.834229137199
50
247.253575533
51
332.254901117
0
ARC
8
drawinglayer
10
-0.0588401697313
20
0.949363507779
30
0
40
0.875813295615
50
234.018250466
51
332.599535231
0
ARC
8
drawinglayer
10
-0.0956152758133
20
0.913437057992
30
0
40
0.803677510608
50
234.075546245
51
332.310993685
0
ARC
8
drawinglayer
10
-0.0294200848656
20
1.01725601132
30
0
40
0.855728429986
50
208.349741244
51
332.584867511
0
ARC
8
drawinglayer
10
-0.0987270155587
20
0.937482319661
30
0
40
0.764639321075
50
231.038869931
51
332.183281393
0
ARC
8
drawinglayer
10
-0.0285714285714
20
1.03847241867
30
0
40
0.817256011315
50
208.464332803
51
332.464890149
0
ARC
8
drawinglayer
10
-0.0280056577086
20
1.04611032532
30
0
40
0.771145685997
50
208.636220141
51
332.320390193
0
ARC
8
drawinglayer
10
-0.322489391796
20
0.669872701556
30
0
40
0.734936350778
50
226.397911791
51
331.712080902
0
ARC
8
drawinglayer
10
-0.533521923621
20
1.14766619519
30
0
40
0.624611032532
50
212.188558471
51
330.995826362
0
ARC
8
drawinglayer
10
-0.15558698727
20
1.44441301273
30
0
40
0.712022630835
50
208.578924362
51
331.92212723
0
ARC
8
drawinglayer
10
-0.0644978783593
20
1.44809052334
30
0
40
0.716548797737
50
208.693515921
51
332.089029836
0
ARC
8
drawinglayer
10
-0.224045261669
20
1.34625176803
30
0
40
0.752475247525
50
208.349741244
51
331.934846893
0
ARC
8
drawinglayer
10
-0.224045261669
20
1.42772277228
30
0
40
0.706930693069
50
208.464332803
51
331.791435557
0
ARC
8
drawinglayer
10
-0.342857142857
20
1.26930693069
30
0
40
0.712305516266
50
208.292445464
51
331.605166978
0
ARC
8
drawinglayer
10
-0.339179632249
20
1.37397454031
30
0
40
0.671004243281
50
208.407037023
51
331.481121615
0
ARC
8
drawinglayer
10
-0.44243281471
20
1.20763790665
30
0
40
0.678642149929
50
208.177853905
51
331.326881377
0
ARC
8
drawinglayer
10
-0.438755304102
20
1.30834512023
30
0
40
0.63026874116
50
208.349741244
51
331.180089589
0
ARC
8
drawinglayer
10
-0.534653465347
20
1.21329561528
30
0
40
0.586138613861
50
214.308502313
51
330.871609112
0
ARC
8
drawinglayer
10
-0.461103253182
20
0.816690240453
30
0
40
0.636209335219
50
265.187154521
51
331.160093362
0
ARC
8
drawinglayer
10
-0.394625176803
20
0.807072135785
30
0
40
0.661103253182
50
210.355093527
51
331.354440646
0
ARC
8
drawinglayer
10
-0.315417256011
20
0.791513437058
30
0
40
0.682036775106
50
216.428446155
51
331.55680934
0
ARC
8
drawinglayer
10
-0.484299858557
20
0.733521923621
30
0
40
0.629702970297
50
211.271825999
51
331.098614991
0
ARC
8
drawinglayer
10
-0.529844413013
20
0.925601131542
30
0
40
0.600282885431
50
223.246643917
51
330.925524441
0
ARC
8
drawinglayer
10
-0.556718528996
20
0.679207920792
30
0
40
0.593210749646
50
212.245854251
51
330.854821449
0
ARC
8
drawinglayer
10
-0.599717114569
20
0.669306930693
30
0
40
0.543705799151
50
217.230587068
51
330.621684922
0
ARC
8
drawinglayer
10
-0.160961810467
20
0.851202263083
30
0
40
0.726449787836
50
229.95025012
51
331.958624641
0
ARC
8
drawinglayer
10
-0.228005657709
20
0.802263083451
30
0
40
0.706082036775
50
224.679038405
51
331.7813515
0
ARC
8
drawinglayer
10
-0.506930693069
20
0.442149929279
30
0
40
0.663649222065
50
114.465297852
51
147.116099949
0
ARC
8
drawinglayer
10
-0.505516265912
20
0.58783592645
30
0
40
0.563224893918
50
102.89155039
51
147.41312127
0
ARC
8
drawinglayer
10
-0.508062234795
20
0.296746817539
30
0
40
0.764073550212
50
114.350706293
51
146.821026684
0
ARC
8
drawinglayer
10
-0.379066478076
20
0.66053748232
30
0
40
0.586421499293
50
111.084846861
51
147.581341678
0
ARC
8
drawinglayer
10
-0.443564356436
20
0.478642149929
30
0
40
0.675247524752
50
122.486706984
51
147.201298773
0
ARC
8
drawinglayer
10
-0.37171145686
20
0.515417256011
30
0
40
0.685431400283
50
130.508116116
51
147.306035458
0
ARC
8
drawinglayer
10
-0.364639321075
20
0.370297029703
30
0
40
0.784441301273
50
130.278932998
51
147.032734589
0
ARC
8
drawinglayer
10
-0.594342291372
20
0.238189533239
30
0
40
0.719377652051
50
106.329297161
51
146.786649216
0
ARC
8
drawinglayer
10
-0.549929278642
20
0.413012729844
30
0
40
0.641301272984
50
118.304115079
51
147.099827947
0
ARC
8
drawinglayer
10
-0.61018387553
20
0.503536067893
30
0
40
0.536916548798
50
95.7295779513
51
147.292341766
0
ARC
8
drawinglayer
10
-0.380198019802
20
0.902404526167
30
0
40
0.386421499293
50
94.583662361
51
148.168680714
0
ARC
8
drawinglayer
10
-0.442715700141
20
0.745120226308
30
0
40
0.47468175389
50
107.074142295
51
147.791044231
0
ARC
8
drawinglayer
10
-0.505233380481
20
0.817538896747
30
0
40
0.367468175389
50
92.234535401
51
147.992954558
0
ARC
8
drawinglayer
10
-0.239886845827
20
0.696746817539
30
0
40
0.595756718529
50
134.977186918
51
147.811212346
0
ARC
8
drawinglayer
10
-0.342291371994
20
0.0998585572843
30
0
40
0.923055162659
50
145.691497687
51
146.676412137
0
ARC
8
drawinglayer
10
-0.477510608204
20
0.0585572842999
30
0
40
0.887977369165
50
131.711327486
51
146.520968687
0
ARC
8
drawinglayer
10
-0.377369165488
20
1.46364922207
30
0
40
0.257142857143
50
225.423883539
51
330.120747922
0
ARC
8
drawinglayer
10
-0.382743988685
20
1.31598302687
30
0
40
0.0596888260255
50
246.680617738
51
329.505104771
0
ARC
8
drawinglayer
10
-0.211315417256
20
1.5323903819
30
0
40
0.26053748232
50
209.839431511
51
330.423498821
0
ARC
8
drawinglayer
10
-0.29702970297
20
1.4243281471
30
0
40
0.160113154173
50
246.852505077
51
329.965017993
0
ARC
8
drawinglayer
10
-0.21216407355
20
1.45827439887
30
0
40
0.160113154173
50
231.096165711
51
330.11438809
0
ARC
8
drawinglayer
10
-0.213012729844
20
1.38359264498
30
0
40
0.0594059405941
50
230.294024797
51
329.807168121
0
ARC
8
drawinglayer
10
-0.491089108911
20
1.20226308345
30
0
40
0.0458274398868
50
260.317013262
51
329.267499173
0
ARC
8
drawinglayer
10
-0.434229137199
20
1.33267326733
30
0
40
0.151343705799
50
260.431604821
51
329.694008956
0
ARC
8
drawinglayer
10
-0.484582743989
20
1.35388967468
30
0
40
0.235077793494
50
245.133631691
51
329.861713703
0
ARC
8
drawinglayer
10
-0.219519094767
20
1.5810466761
30
0
40
0.374823196605
50
209.495656834
51
330.761429328
0
ARC
8
drawinglayer
10
-0.377369165488
20
1.50777934936
30
0
40
0.349646393211
50
217.230587068
51
330.407570594
0
ARC
8
drawinglayer
10
-0.294483734088
20
1.52022630835
30
0
40
0.305233380481
50
222.559094563
51
330.415592003
0
ARC
8
drawinglayer
10
-0.0831683168317
20
1.47355021216
30
0
40
0.149929278642
50
225.423883539
51
330.307990529
0
ARC
8
drawinglayer
10
-0.0826025459689
20
1.39434229137
30
0
40
0.0455445544554
50
228.689742971
51
329.993379404
0
ARC
8
drawinglayer
10
-0.0837340876945
20
1.55247524752
30
0
40
0.254031117397
50
210.068614629
51
330.624607007
0
ARC
8
drawinglayer
10
-0.214427157001
20
1.29052333805
30
0
40
0.0478076379066
50
75.3322804447
51
149.480066515
0
ARC
8
drawinglayer
10
-0.21612446959
20
1.19745403112
30
0
40
0.155021216407
50
74.4155479724
51
149.155027558
0
ARC
8
drawinglayer
10
-0.381046676096
20
1.13069306931
30
0
40
0.152192362093
50
83.7547600331
51
148.866027646
0
ARC
8
drawinglayer
10
-0.29702970297
20
1.25714285714
30
0
40
0.0463932107496
50
85.0152671824
51
149.337170841
0
ARC
8
drawinglayer
10
-0.38189533239
20
1.22319660537
30
0
40
0.0463932107496
50
84.7287882848
51
149.184477589
0
ARC
8
drawinglayer
10
-0.701838755304
20
0.746251768034
30
0
40
0.136633663366
50
255.504167783
51
329.159954995
0
ARC
8
drawinglayer
10
-0.616690240453
20
1.16237623762
30
0
40
0.314285714286
50
248.628674242
51
329.869104858
0
ARC
8
drawinglayer
10
-0.693635077793
20
0.821499292786
30
0
40
0.0231966053748
50
257.624111625
51
328.825290347
0
ARC
8
drawinglayer
10
-0.697878359264
20
0.783592644979
30
0
40
0.0797736916549
50
257.566815846
51
328.992250249
0
ARC
8
drawinglayer
10
-0.422065063649
20
-1.33946251768
30
0
40
0.785289957567
50
143.972624301
51
146.921924552
0
ARC
8
drawinglayer
10
-0.442149929279
20
-1.20792079208
30
0
40
0.80198019802
50
139.904623956
51
146.836267361
0
ARC
8
drawinglayer
10
-0.521640735502
20
-1.26704384724
30
0
40
0.709193776521
50
117.272791048
51
146.954353963
0
ARC
8
drawinglayer
10
-0.545968882603
20
-1.11994342291
30
0
40
0.70495049505
50
115.267438765
51
146.921065115
0
ARC
8
drawinglayer
10
-0.432814710042
20
-1.5216407355
30
0
40
0.819519094767
50
137.899271673
51
146.802634739
0
ARC
8
drawinglayer
10
-0.52531824611
20
-1.44441301273
30
0
40
0.736067892504
50
114.293410514
51
146.868925956
0
ARC
8
drawinglayer
10
-0.559830268741
20
-1.20339462518
30
0
40
0.625459688826
50
100.714310769
51
147.126928851
0
ARC
8
drawinglayer
10
-0.580480905233
20
-1.04724186704
30
0
40
0.619801980198
50
106.5011845
51
147.105156455
0
ARC
8
drawinglayer
10
-0.457991513437
20
-1.11626591231
30
0
40
0.869306930693
50
135.779327831
51
146.611381427
0
ARC
8
drawinglayer
10
-0.501838755304
20
-1.11824611033
30
0
40
0.787270155587
50
135.83662361
51
146.765449778
0
ARC
8
drawinglayer
10
-0.574540311174
20
-1.00763790665
30
0
40
0.747666195191
50
113.204790703
51
146.741901213
0
ARC
8
drawinglayer
10
-0.554172560113
20
-1.28345120226
30
0
40
0.498444130127
50
95.9587610694
51
147.512644039
0
ARC
8
drawinglayer
10
-0.560678925035
20
-1.20056577086
30
0
40
0.391230551627
50
92.005352283
51
147.818145135
0
ARC
8
drawinglayer
10
-0.557001414427
20
-1.15700141443
30
0
40
0.443847241867
50
103.750987083
51
147.668316671
0
ARC
8
drawinglayer
10
-0.575954738331
20
-1.03564356436
30
0
40
0.38981612447
50
95.9014652898
51
147.794711161
0
ARC
8
drawinglayer
10
-0.566336633663
20
-1.38217821782
30
0
40
0.649787835926
50
92.005352283
51
147.043219717
0
ARC
8
drawinglayer
10
-0.580480905233
20
-1.00424328147
30
0
40
0.456294200849
50
114.522593632
51
147.587529622
0
ARC
8
drawinglayer
10
-0.630834512023
20
-0.873267326733
30
0
40
0.400848656294
50
95.7295779513
51
147.657545065
0
ARC
8
drawinglayer
10
-0.305799151344
20
-0.636492220651
30
0
40
0.231683168317
50
299.45003067
51
330.168933673
0
ARC
8
drawinglayer
10
-0.229420084866
20
-0.884582743989
30
0
40
0.0854314002829
50
268.166535056
51
329.856900857
0
ARC
8
drawinglayer
10
-0.406789250354
20
-0.532107496464
30
0
40
0.293917963225
50
292.058875113
51
330.182226293
0
ARC
8
drawinglayer
10
-0.44045261669
20
-0.566053748232
30
0
40
0.214710042433
50
296.929016371
51
329.878043
0
ARC
8
drawinglayer
10
-0.0899575671853
20
-0.132956152758
30
0
40
0.772277227723
50
208.521628582
51
332.221898748
0
ARC
8
drawinglayer
10
-0.0429985855728
20
-0.239321074965
30
0
40
0.706647807638
50
208.80810748
51
332.093097836
0
ARC
8
drawinglayer
10
0.0
20
-0.115700141443
30
0
40
0.786704384724
50
208.578924362
51
332.415787666
0
ARC
8
drawinglayer
10
-0.0534653465347
20
-0.0246110325318
30
0
40
0.816407355021
50
208.407037023
51
332.421001582
0
ARC
8
drawinglayer
10
-0.181612446959
20
0.104101838755
30
0
40
0.779349363508
50
208.349741244
51
332.091493554
0
ARC
8
drawinglayer
10
-0.109193776521
20
0.106930693069
30
0
40
0.784724186704
50
208.407037023
51
332.2293472
0
ARC
8
drawinglayer
10
-0.594908062235
20
0.580763790665
30
0
40
0.569448373409
50
222.158024107
51
330.711868479
0
ARC
8
drawinglayer
10
-0.641018387553
20
0.567468175389
30
0
40
0.502687411598
50
229.205404987
51
330.417826539
0
ARC
8
drawinglayer
10
-0.659123055163
20
0.452050919378
30
0
40
0.461386138614
50
240.206194653
51
330.255106525
0
ARC
8
drawinglayer
10
-0.534370579915
20
0.607920792079
30
0
40
0.631117397454
50
216.141967258
51
331.015364223
0
ARC
8
drawinglayer
10
-0.325884016973
20
0.723903818953
30
0
40
0.718811881188
50
220.381854942
51
331.655415376
0
ARC
8
drawinglayer
10
-0.170297029703
20
0.816407355021
30
0
40
0.758132956153
50
230.866982593
51
332.042620254
0
ARC
8
drawinglayer
10
-0.650636492221
20
0.729844413013
30
0
40
0.441018387553
50
251.378871658
51
330.205774859
0
ARC
8
drawinglayer
10
-0.44639321075
20
1.38076379066
30
0
40
0.58189533239
50
208.464332803
51
331.013817237
0
ARC
8
drawinglayer
10
-0.339179632249
20
1.46449787836
30
0
40
0.618387553041
50
208.578924362
51
331.315364925
0
ARC
8
drawinglayer
10
-0.0743988684583
20
1.5315417256
30
0
40
0.650353606789
50
208.922699039
51
331.865060633
0
ARC
8
drawinglayer
10
-0.598868458274
20
0.248373408769
30
0
40
0.486562942008
50
244.388786558
51
330.442864794
0
ARC
8
drawinglayer
10
-0.655162659123
20
0.324752475248
30
0
40
0.429137199434
50
247.310871313
51
330.159823644
0
ARC
8
drawinglayer
10
0.0
20
0.0930693069307
30
0
40
0.780480905233
50
208.636220141
51
332.39619251
0
ARC
8
drawinglayer
10
-0.125884016973
20
0.0551626591231
30
0
40
0.808486562942
50
208.349741244
51
332.276501626
0
ARC
8
drawinglayer
10
-0.0562942008487
20
0.0517680339463
30
0
40
0.811598302687
50
208.407037023
51
332.401521017
0
ARC
8
drawinglayer
10
0.0562942008487
20
0.0517680339463
30
0
40
0.811598302687
50
208.636220141
51
332.585726948
0
ARC
8
drawinglayer
10
0.0534653465347
20
-0.0246110325318
30
0
40
0.816407355021
50
208.578924362
51
332.59615478
0
ARC
8
drawinglayer
10
-0.679207920792
20
0.555021216407
30
0
40
0.345120226308
50
258.426252538
51
329.852259899
0
ARC
8
drawinglayer
10
-0.714851485149
20
0.45657708628
30
0
40
0.239321074965
50
254.415547972
51
329.455314739
0
ARC
8
drawinglayer
10
-0.634512022631
20
0.188684582744
30
0
40
0.389250353607
50
257.566815846
51
330.072332988
0
ARC
8
drawinglayer
10
-0.530693069307
20
1.27496463932
30
0
40
0.515417256011
50
228.460559853
51
330.655260249
0
ARC
8
drawinglayer
10
0.0644978783593
20
1.44809052334
30
0
40
0.716548797737
50
208.922699039
51
332.301654473
0
ARC
8
drawinglayer
10
0.0
20
1.53465346535
30
0
40
0.662234794908
50
208.979994819
51
332.025832591
0
ARC
8
drawinglayer
10
-0.0848656294201
20
1.62149929279
30
0
40
0.581612446959
50
209.094586378
51
331.632668952
0
ARC
8
drawinglayer
10
0.0
20
1.62942008487
30
0
40
0.590381895332
50
209.209177937
51
331.802321755
0
ARC
8
drawinglayer
10
0.0743988684583
20
1.5315417256
30
0
40
0.650353606789
50
209.151882157
51
332.11177626
0
ARC
8
drawinglayer
10
-0.149080622348
20
1.56435643564
30
0
40
0.611598302687
50
208.922699039
51
331.618058528
0
ARC
8
drawinglayer
10
-0.281471004243
20
1.53069306931
30
0
40
0.595473833098
50
208.693515921
51
331.34258042
0
ARC
8
drawinglayer
10
-0.362942008487
20
1.52107496464
30
0
40
0.539179632249
50
208.750811701
51
331.024416956
0
ARC
8
drawinglayer
10
-0.469589816124
20
1.41782178218
30
0
40
0.49504950495
50
215.683601022
51
330.699206112
0
ARC
8
drawinglayer
10
-0.55756718529
20
1.29420084866
30
0
40
0.441301272984
50
227.543827381
51
330.373708789
0
ARC
8
drawinglayer
10
-0.149363507779
20
0.438755304102
30
0
40
0.852333804809
50
208.177853905
51
332.376081691
0
ARC
8
drawinglayer
10
-0.514568599717
20
-0.0362093352192
30
0
40
0.484299858557
50
241.638589141
51
330.585760469
0
ARC
8
drawinglayer
10
0.0370579915134
20
0.493069306931
30
0
40
0.844130127298
50
208.464332803
51
332.656544532
0
ARC
8
drawinglayer
10
-0.146817538897
20
-0.32531824611
30
0
40
0.623479490806
50
268.395718174
51
331.659426081
0
ARC
8
drawinglayer
10
-0.131824611033
20
-0.434794908062
30
0
40
0.515417256011
50
295.324734545
51
331.347221378
0
ARC
8
drawinglayer
10
-0.0359264497878
20
-0.577934936351
30
0
40
0.38387553041
50
301.569974512
51
331.103485132
0
ARC
8
drawinglayer
10
-0.131824611033
20
-0.5414427157
30
0
40
0.406506364922
50
318.758708366
51
331.009863828
0
ARC
8
drawinglayer
10
-0.496181046676
20
-0.359264497878
30
0
40
0.364922206506
50
251.951829453
51
330.24485058
0
ARC
8
drawinglayer
10
-0.53323903819
20
0.202263083451
30
0
40
0.54540311174
50
227.371940042
51
330.745214623
0
ARC
8
drawinglayer
10
-0.583592644979
20
0.130410183876
30
0
40
0.455445544554
50
245.477406368
51
330.371703436
0
ARC
8
drawinglayer
10
-0.566619519095
20
0.0016973125884
30
0
40
0.421782178218
50
243.586645644
51
330.296588669
0
ARC
8
drawinglayer
10
-0.554172560113
20
-0.235643564356
30
0
40
0.353323903819
50
249.774589832
51
330.104590512
0
ARC
8
drawinglayer
10
-0.474398868458
20
-0.460254596888
30
0
40
0.329844413013
50
255.103097327
51
330.173345448
0
ARC
8
drawinglayer
10
-0.612446958982
20
0.0596888260255
30
0
40
0.349646393211
50
261.692111971
51
329.987764418
0
ARC
8
drawinglayer
10
-0.694766619519
20
-0.122489391796
30
0
40
0.0243281471004
50
268.567605512
51
328.826894629
0
ARC
8
drawinglayer
10
-0.641584158416
20
-0.0294200848656
30
0
40
0.231683168317
50
261.692111971
51
329.566583143
0
ARC
8
drawinglayer
10
0.155304101839
20
1.0783592645
30
0
40
0.277227722772
50
32.0739669123
51
33.0983008584
0
ARC
8
drawinglayer
10
0.21612446959
20
1.19745403112
30
0
40
0.155021216407
50
31.8447837942
51
105.577003576
0
ARC
8
drawinglayer
10
0.0944837340877
20
0.958698727016
30
0
40
0.399717114569
50
32.3604458098
51
34.3272380332
0
ARC
8
drawinglayer
10
0.229137199434
20
0.94738330976
30
0
40
0.393776520509
50
32.5896289279
51
75.1174212715
0
ARC
8
drawinglayer
10
0.154738330976
20
1.29759547383
30
0
40
0.0514851485149
50
31.4437133376
51
104.474002525
0
ARC
8
drawinglayer
10
0.213012729844
20
1.38359264498
30
0
40
0.0594059405941
50
211.21453022
51
309.698927822
0
ARC
8
drawinglayer
10
0.0964639321075
20
1.21131541726
30
0
40
0.162659123055
50
31.6728964557
51
105.1748445
0
ARC
8
drawinglayer
10
0.533804809052
20
1.21357850071
30
0
40
0.126449787836
50
211.615600676
51
277.891634191
0
ARC
8
drawinglayer
10
0.576520509194
20
1.22517680339
30
0
40
0.207072135785
50
211.443713338
51
288.121050778
0
ARC
8
drawinglayer
10
0.491089108911
20
1.20226308345
30
0
40
0.0458274398868
50
211.787488015
51
278.705463443
0
ARC
8
drawinglayer
10
0.579915134371
20
1.09929278642
30
0
40
0.0379066478076
50
211.959375353
51
280.001207497
0
ARC
8
drawinglayer
10
0.645827439887
20
0.974540311174
30
0
40
0.0330975954738
50
212.073966912
51
277.233592164
0
ARC
8
drawinglayer
10
0.211315417256
20
1.5323903819
30
0
40
0.26053748232
50
210.584276645
51
331.143477586
0
ARC
8
drawinglayer
10
0.0831683168317
20
1.61923620934
30
0
40
0.387553041018
50
209.95402307
51
331.315708699
0
ARC
8
drawinglayer
10
0.484582743989
20
1.35388967468
30
0
40
0.235077793494
50
211.15723444
51
294.865566168
0
ARC
8
drawinglayer
10
0.377369165488
20
1.50777934936
30
0
40
0.349646393211
50
210.641572424
51
322.75531817
0
ARC
8
drawinglayer
10
0.492503536068
20
1.38132956153
30
0
40
0.308062234795
50
210.985347102
51
302.011896859
0
ARC
8
drawinglayer
10
0.219519094767
20
1.5810466761
30
0
40
0.374823196605
50
210.240501968
51
331.504154518
0
ARC
8
drawinglayer
10
0.0902404526167
20
1.63394625177
30
0
40
0.472418670438
50
209.724839952
51
331.587806356
0
ARC
8
drawinglayer
10
0.224045261669
20
1.60961810467
30
0
40
0.463649222065
50
210.01131885
51
331.781695274
0
ARC
8
drawinglayer
10
0.298727015559
20
1.56379066478
30
0
40
0.501272984441
50
210.01131885
51
330.020881378
0
ARC
8
drawinglayer
10
0.37369165488
20
1.53041018388
30
0
40
0.429702970297
50
210.355093527
51
329.935969033
0
ARC
8
drawinglayer
10
0.490806223479
20
1.41386138614
30
0
40
0.394625176803
50
210.698868204
51
315.168096455
0
ARC
8
drawinglayer
10
0.618670438472
20
1.0441301273
30
0
40
0.340311173975
50
211.099938661
51
277.275303491
0
ARC
8
drawinglayer
10
0.616690240453
20
1.16237623762
30
0
40
0.314285714286
50
211.15723444
51
292.389930127
0
ARC
8
drawinglayer
10
0.569165487977
20
1.29448373409
30
0
40
0.362093352192
50
210.928051322
51
306.33165486
0
ARC
8
drawinglayer
10
0.154455445545
20
1.6152758133
30
0
40
0.522489391796
50
209.667544173
51
331.84827297
0
ARC
8
drawinglayer
10
0.0848656294201
20
1.62149929279
30
0
40
0.581612446959
50
209.381065275
51
331.915595511
0
ARC
8
drawinglayer
10
0.362942008487
20
1.52107496464
30
0
40
0.539179632249
50
210.01131885
51
332.238228045
0
ARC
8
drawinglayer
10
0.469589816124
20
1.41782178218
30
0
40
0.49504950495
50
210.355093527
51
321.35472284
0
ARC
8
drawinglayer
10
-0.517680339463
20
-0.584724186704
30
0
40
0.0710042432815
50
304.663946605
51
329.295803289
0
ARC
8
drawinglayer
10
-0.473550212164
20
-0.584158415842
30
0
40
0.143705799151
50
300.825129378
51
329.59947092
0
ARC
8
drawinglayer
10
-0.37171145686
20
-0.50099009901
30
0
40
0.362376237624
50
278.880845825
51
330.457647106
0
ARC
8
drawinglayer
10
-0.33125884017
20
-0.456011315417
30
0
40
0.443281471004
50
272.922084755
51
330.780107753
0
ARC
8
drawinglayer
10
-0.629137199434
20
-0.841584158416
30
0
40
0.544837340877
50
110.340001727
51
147.233212522
0
ARC
8
drawinglayer
10
-0.667892503536
20
-0.712305516266
30
0
40
0.560396039604
50
140.019215515
51
147.112891385
0
ARC
8
drawinglayer
10
-0.669872701556
20
-0.727581329562
30
0
40
0.411598302687
50
95.5576906128
51
147.551605169
0
ARC
8
drawinglayer
10
-0.66874115983
20
-0.719943422914
30
0
40
0.485997171146
50
121.168904055
51
147.331703967
0
ARC
8
drawinglayer
10
-0.614992927864
20
-0.91513437058
30
0
40
0.635360678925
50
107.360621192
51
146.993658868
0
ARC
8
drawinglayer
10
-0.638755304102
20
-0.813012729844
30
0
40
0.673550212164
50
131.825919045
51
146.836038178
0
ARC
8
drawinglayer
10
-0.629985855728
20
-0.857708628006
30
0
40
0.472984441301
50
110.397297507
51
147.444863131
0
ARC
8
drawinglayer
10
-0.676096181047
20
-0.641018387553
30
0
40
0.319943422914
50
95.5576906128
51
147.814019839
0
ARC
8
drawinglayer
10
-0.638189533239
20
-0.770579915134
30
0
40
0.296181046676
50
92.7501974166
51
147.957431175
0
ARC
8
drawinglayer
10
-0.605374823197
20
-0.905799151344
30
0
40
0.338613861386
50
95.7868737308
51
147.891770212
0
ARC
8
drawinglayer
10
-0.568599717115
20
-1.06874115983
30
0
40
0.332956152758
50
93.9534087864
51
147.978172247
0
ARC
8
drawinglayer
10
-0.676379066478
20
-0.572277227723
30
0
40
0.229420084866
50
89.6562253229
51
148.08714882
0
ARC
8
drawinglayer
10
-0.699292786421
20
-0.545968882603
30
0
40
0.290523338048
50
87.65087304
51
147.859168913
0
ARC
8
drawinglayer
10
-0.637623762376
20
-0.695898161245
30
0
40
0.207920792079
50
90.8021409132
51
148.224715986
0
ARC
8
drawinglayer
10
-0.559264497878
20
-0.891654879774
30
0
40
0.193493635078
50
89.0832675278
51
148.414307721
0
ARC
8
drawinglayer
10
-0.598868458274
20
-0.831400282885
30
0
40
0.244978783593
50
94.8701412586
51
148.185984039
0
ARC
8
drawinglayer
10
-0.521074964639
20
-1.02659123055
30
0
40
0.175106082037
50
82.3223655452
51
148.540473027
0
ARC
8
drawinglayer
10
-0.521074964639
20
-0.849222065064
30
0
40
0.137199434229
50
94.1825919045
51
148.654778107
0
ARC
8
drawinglayer
10
-0.579349363508
20
-0.772560113154
30
0
40
0.172560113154
50
94.9847328176
51
148.440148117
0
ARC
8
drawinglayer
10
-0.533521923621
20
-0.726449787836
30
0
40
0.112022630835
50
106.100114043
51
148.708177774
0
ARC
8
drawinglayer
10
-0.122489391796
20
-0.658840169731
30
0
40
0.279773691655
50
317.383609657
51
330.636581825
0
ARC
8
drawinglayer
10
-0.128147100424
20
-0.734087694484
30
0
40
0.206223479491
50
304.033693031
51
330.40178372
0
ARC
8
drawinglayer
10
-0.0384724186704
20
-0.807355021216
30
0
40
0.178783592645
50
270.859436693
51
330.473174262
0
ARC
8
drawinglayer
10
-0.0384724186704
20
-0.807355021216
30
0
40
0.178783592645
50
216.428446155
51
258.748942369
0
ARC
8
drawinglayer
10
0.0359264497878
20
-0.577934936351
30
0
40
0.38387553041
50
209.896727291
51
237.388388217
0
ARC
8
drawinglayer
10
0.0384724186704
20
-0.807355021216
30
0
40
0.178783592645
50
281.229972785
51
325.585729678
0
ARC
8
drawinglayer
10
0.0384724186704
20
-0.807355021216
30
0
40
0.178783592645
50
210.526980865
51
269.123317278
0
ARC
8
drawinglayer
10
-0.373408769448
20
-0.606789250354
30
0
40
1.0684582744
50
145.233131451
51
146.203034406
0
ARC
8
drawinglayer
10
-0.387270155587
20
-0.485148514851
30
0
40
1.05289957567
50
145.233131451
51
146.220967985
0
ARC
8
drawinglayer
10
-0.366053748232
20
-0.810466760962
30
0
40
1.07524752475
50
145.233131451
51
146.198221561
0
ARC
8
drawinglayer
10
-0.358415841584
20
-0.998868458274
30
0
40
1.05459688826
50
145.29042723
51
146.270929905
0
ARC
8
drawinglayer
10
-0.362093352192
20
-0.904384724187
30
0
40
1.06478076379
50
145.29042723
51
146.234547085
0
ARC
8
drawinglayer
10
-0.347666195191
20
-1.12022630835
30
0
40
1.00424328147
50
145.462314569
51
146.434050989
0
ARC
8
drawinglayer
10
-0.495898161245
20
-0.545968882603
30
0
40
0.982178217822
50
136.352285626
51
146.214837337
0
ARC
8
drawinglayer
10
-0.448656294201
20
-0.454879773692
30
0
40
1.00961810467
50
144.259103199
51
146.226926746
0
ARC
8
drawinglayer
10
-0.490806223479
20
-0.747949080622
30
0
40
0.986421499293
50
136.352285626
51
146.213061168
0
ARC
8
drawinglayer
10
-0.43224893918
20
-0.677227722772
30
0
40
1.02743988685
50
145.233131451
51
146.208019139
0
ARC
8
drawinglayer
10
-0.475247524752
20
-0.923338048091
30
0
40
0.970297029703
50
134.518820682
51
146.289207259
0
ARC
8
drawinglayer
10
-0.420650636492
20
-0.86676096181
30
0
40
1.02263083451
50
146.243485227
51
146.264455482
0
ARC
8
drawinglayer
10
-0.470438472419
20
-1.03196605375
30
0
40
0.9171145686
50
134.633412241
51
146.450609469
0
ARC
8
drawinglayer
10
-0.414427157001
20
-1.0152758133
30
0
40
0.98585572843
50
146.360311321
51
146.379047041
0
ARC
8
drawinglayer
10
-0.402828854314
20
-1.11852899576
30
0
40
0.936916548798
50
145.519610348
51
146.52228649
0
ARC
8
drawinglayer
10
-0.59801980198
20
-0.463083451202
30
0
40
0.884582743989
50
124.606650826
51
146.300265344
0
ARC
8
drawinglayer
10
-0.559264497878
20
-0.393776520509
30
0
40
0.917680339463
50
133.430200871
51
146.279352385
0
ARC
8
drawinglayer
10
-0.435926449788
20
-0.198868458274
30
0
40
0.98981612447
50
138.472229468
51
146.3076565
0
ARC
8
drawinglayer
10
-0.592079207921
20
-0.654879773692
30
0
40
0.88684582744
50
131.424848588
51
146.304906302
0
ARC
8
drawinglayer
10
-0.543988684583
20
-0.600565770863
30
0
40
0.934653465347
50
137.383609657
51
146.259699932
0
ARC
8
drawinglayer
10
-0.590947666195
20
-0.813012729844
30
0
40
0.849787835926
50
133.48749665
51
146.413882875
0
ARC
8
drawinglayer
10
-0.540876944837
20
-0.780480905233
30
0
40
0.917963224894
50
136.409581406
51
146.312985007
0
ARC
8
drawinglayer
10
-0.582461103253
20
-0.918528995757
30
0
40
0.798585572843
50
128.731946951
51
146.578379058
0
ARC
8
drawinglayer
10
-0.528995756719
20
-0.920792079208
30
0
40
0.884299858557
50
135.550144713
51
146.432962369
0
ARC
8
drawinglayer
10
-0.522489391796
20
-1.0198019802
30
0
40
0.83224893918
50
134.69070802
51
146.5954532
0
ARC
8
drawinglayer
10
-0.676379066478
20
-0.377086280057
30
0
40
0.766902404526
50
118.705185536
51
146.490487332
0
ARC
8
drawinglayer
10
-0.676379066478
20
-0.377086280057
30
0
40
0.766902404526
50
111.886987774
51
112.809850895
0
ARC
8
drawinglayer
10
-0.648090523338
20
-0.312305516266
30
0
40
0.806506364922
50
121.627270291
51
146.42929544
0
ARC
8
drawinglayer
10
-0.667892503536
20
-0.570297029703
30
0
40
0.765770862801
50
135.492848933
51
146.509681418
0
ARC
8
drawinglayer
10
-0.632814710042
20
-0.516831683168
30
0
40
0.825176803395
50
129.476792085
51
146.404543663
0
ARC
8
drawinglayer
10
-0.658274398868
20
-0.717680339463
30
0
40
0.72729844413
50
137.612792775
51
146.640544979
0
ARC
8
drawinglayer
10
-0.625176803395
20
-0.686280056577
30
0
40
0.807072135785
50
136.466877185
51
146.471980795
0
ARC
8
drawinglayer
10
-0.614710042433
20
-0.813012729844
30
0
40
0.76152758133
50
134.633412241
51
146.62410109
0
ARC
8
drawinglayer
10
-0.598868458274
20
-0.916831683168
30
0
40
0.716831683168
50
120.939720937
51
146.785274118
0
ARC
8
drawinglayer
10
-0.577369165488
20
-1.02743988685
30
0
40
0.683734087694
50
113.262086482
51
146.923127763
0
ARC
8
drawinglayer
10
-0.709759547383
20
-0.247241867044
30
0
40
0.674398868458
50
114.809072529
51
146.696981321
0
ARC
8
drawinglayer
10
-0.651485148515
20
-0.0577086280057
30
0
40
0.779632248939
50
110.970255302
51
146.501201643
0
ARC
8
drawinglayer
10
-0.692786421499
20
-0.419801980198
30
0
40
0.697312588402
50
137.612792775
51
146.661916304
0
ARC
8
drawinglayer
10
-0.683451202263
20
-0.583309759547
30
0
40
0.675813295615
50
146.722821718
51
146.742932537
0
ARC
8
drawinglayer
10
-0.663083451202
20
-0.714851485149
30
0
40
0.643847241867
50
142.826708711
51
146.875973337
0
ARC
8
drawinglayer
10
-0.752475247525
20
-0.131541725601
30
0
40
0.514002828854
50
136.925243421
51
147.087967721
0
ARC
8
drawinglayer
10
-0.752475247525
20
-0.131541725601
30
0
40
0.514002828854
50
98.1932964704
51
118.856618281
0
ARC
8
drawinglayer
10
-0.453182461103
20
-0.650919377652
30
0
40
0.0175388967468
50
313.888567107
51
329.249451003
0
ARC
8
drawinglayer
10
-0.423479490806
20
-0.819236209335
30
0
40
0.0534653465347
50
105.527156248
51
149.0879342
0
ARC
8
drawinglayer
10
-0.428005657709
20
-0.949080622348
30
0
40
0.0885431400283
50
89.5416337639
51
148.972884275
0
ARC
8
drawinglayer
10
-0.760113154173
20
-0.0203677510608
30
0
40
0.534653465347
50
93.3231552118
51
147.012623771
0
ARC
8
drawinglayer
10
-0.767185289958
20
0.139179632249
30
0
40
0.413861386139
50
85.4736334185
51
147.359205941
0
ARC
8
drawinglayer
10
-0.751060820368
20
0.299575671853
30
0
40
0.289957567185
50
88.4530139531
51
147.762052567
0
ARC
8
drawinglayer
10
-0.735219236209
20
0.265629420085
30
0
40
0.466478076379
50
89.4843379844
51
147.263006327
0
ARC
8
drawinglayer
10
-0.747666195191
20
0.122772277228
30
0
40
0.500424328147
50
97.2192682186
51
147.137757753
0
ARC
8
drawinglayer
10
-0.720226308345
20
0.0732673267327
30
0
40
0.612729844413
50
100.198648753
51
146.857810574
0
ARC
8
drawinglayer
10
-0.725035360679
20
0.456294200849
30
0
40
0.31909476662
50
87.5362814809
51
147.724695719
0
ARC
8
drawinglayer
10
-0.743140028289
20
0.282602545969
30
0
40
0.378217821782
50
89.4843379844
51
147.51167001
0
ARC
8
drawinglayer
10
-0.368882602546
20
-0.813578500707
30
0
40
0.00509193776521
50
107.761691649
51
149.333847686
0
ARC
8
drawinglayer
10
-0.365487977369
20
-0.925035360679
30
0
40
0.0404526166902
50
92.7501974166
51
149.232548748
0
ARC
8
drawinglayer
10
-0.311456859972
20
-0.908345120226
30
0
40
0.0200848656294
50
271.948056503
51
329.512896997
0
ARC
8
drawinglayer
10
-0.389533239038
20
-0.660254596888
30
0
40
0.0865629420085
50
315.263665815
51
329.57557858
0
ARC
8
drawinglayer
10
-0.569165487977
20
1.29448373409
30
0
40
0.362093352192
50
234.64850404
51
330.104876991
0
ARC
8
drawinglayer
10
-0.490806223479
20
1.41386138614
30
0
40
0.394625176803
50
224.850925744
51
330.346149519
0
ARC
8
drawinglayer
10
-0.37369165488
20
1.53041018388
30
0
40
0.429702970297
50
209.094586378
51
330.662995179
0
ARC
8
drawinglayer
10
-0.421499292786
20
1.47411598303
30
0
40
0.462234794908
50
224.850925744
51
330.680986054
0
ARC
8
drawinglayer
10
-0.0902404526167
20
1.63394625177
30
0
40
0.472418670438
50
209.438361055
51
331.285170049
0
ARC
8
drawinglayer
10
-0.157001414427
20
1.61584158416
30
0
40
0.522772277228
50
209.151882157
51
331.327167855
0
ARC
8
drawinglayer
10
-0.224045261669
20
1.60961810467
30
0
40
0.463649222065
50
209.209177937
51
331.028828731
0
ARC
8
drawinglayer
10
0.0
20
1.64893917963
30
0
40
0.485997171146
50
209.552952614
51
331.479345446
0
ARC
8
drawinglayer
10
-0.576237623762
20
1.25516265912
30
0
40
0.267609618105
50
246.795209297
51
329.79645381
0
ARC
8
drawinglayer
10
-0.492503536068
20
1.38132956153
30
0
40
0.308062234795
50
239.977011535
51
330.073421608
0
ARC
8
drawinglayer
10
-0.293352192362
20
1.56520509194
30
0
40
0.501272984441
50
210.985347102
51
331.026651492
0
ARC
8
drawinglayer
10
-0.0831683168317
20
1.61923620934
30
0
40
0.387553041018
50
209.667544173
51
331.034730197
0
ARC
8
drawinglayer
10
0.0
20
1.63394625177
30
0
40
0.390947666195
50
209.839431511
51
331.186449421
0
ARC
8
drawinglayer
10
0.0
20
1.56237623762
30
0
40
0.253465346535
50
210.240501968
51
330.765726512
0
ARC
8
drawinglayer
10
-0.579915134371
20
1.09929278642
30
0
40
0.0379066478076
50
260.030534365
51
329.08019927
0
ARC
8
drawinglayer
10
-0.606223479491
20
1.10099009901
30
0
40
0.112305516266
50
263.869351592
51
329.261139342
0
ARC
8
drawinglayer
10
-0.645827439887
20
0.974540311174
30
0
40
0.0330975954738
50
262.780731781
51
328.944809343
0
ARC
8
drawinglayer
10
-0.532390381895
20
1.22687411598
30
0
40
0.136633663366
50
260.087830144
51
329.470727303
0
ARC
8
drawinglayer
10
0.0837340876945
20
1.55247524752
30
0
40
0.254031117397
50
210.412389306
51
330.910111876
0
ARC
8
drawinglayer
10
0.0
20
1.48373408769
30
0
40
0.148231966054
50
210.584276645
51
330.446302541
0
ARC
8
drawinglayer
10
0.0
20
1.40509193777
30
0
40
0.0429985855728
50
210.870755542
51
330.128883923
0
ARC
8
drawinglayer
10
0.0831683168317
20
1.47355021216
30
0
40
0.149929278642
50
210.698868204
51
308.548485865
0
ARC
8
drawinglayer
10
0.0826025459689
20
1.39434229137
30
0
40
0.0455445544554
50
210.985347102
51
309.320890268
0
ARC
8
drawinglayer
10
0.0
20
1.30862800566
30
0
40
0.0619519094767
50
101.974817918
51
132.854091808
0
ARC
8
drawinglayer
10
0.0
20
1.30862800566
30
0
40
0.0619519094767
50
31.1572344401
51
87.0111656617
0
ARC
8
drawinglayer
10
0.0
20
1.21188118812
30
0
40
0.166902404526
50
97.9068175728
51
138.566882096
0
ARC
8
drawinglayer
10
0.0
20
1.21188118812
30
0
40
0.166902404526
50
31.5010091171
51
88.0199724516
0
ARC
8
drawinglayer
10
-0.0964639321075
20
1.21131541726
30
0
40
0.162659123055
50
74.816618429
51
149.345478729
0
ARC
8
drawinglayer
10
-0.0893917963225
20
1.3026874116
30
0
40
0.0585572842999
50
74.7593226495
51
149.668512334
0
ARC
8
drawinglayer
10
-0.229137199434
20
0.94738330976
30
0
40
0.393776520509
50
108.85031146
51
148.422042651
0
ARC
8
drawinglayer
10
-0.222630834512
20
1.07241867044
30
0
40
0.274398868458
50
108.964903019
51
148.787303245
0
ARC
8
drawinglayer
10
-0.234512022631
20
0.822065063649
30
0
40
0.494766619519
50
135.206370036
51
148.115739414
0
ARC
8
drawinglayer
10
-0.298161244696
20
1.05007072136
30
0
40
0.27072135785
50
98.823550045
51
148.662169263
0
ARC
8
drawinglayer
10
-0.380763790665
20
1.01669024045
30
0
40
0.269306930693
50
94.6409581406
51
148.516065025
0
ARC
8
drawinglayer
10
-0.304101838755
20
0.80396039604
30
0
40
0.490240452617
50
132.112397942
51
148.002007291
0
ARC
8
drawinglayer
10
-0.499575671853
20
1.02291371994
30
0
40
0.159264497878
50
85.3590418594
51
148.628307457
0
ARC
8
drawinglayer
10
-0.441301272984
20
1.16944837341
30
0
40
0.0497878359264
50
85.4736334185
51
149.066562875
0
ARC
8
drawinglayer
10
-0.495332390382
20
1.1125884017
30
0
40
0.0565770862801
50
85.3017460799
51
148.946929287
0
ARC
8
drawinglayer
10
-0.442998585573
20
0.973974540311
30
0
40
0.259971711457
50
93.4377467708
51
148.429433807
0
ARC
8
drawinglayer
10
-0.502404526167
20
0.920226308345
30
0
40
0.263366336634
50
92.234535401
51
148.309628332
0
ARC
8
drawinglayer
10
-0.594908062235
20
0.912871287129
30
0
40
0.165205091938
50
85.9892954341
51
148.433960173
0
ARC
8
drawinglayer
10
-0.543140028289
20
1.05742574257
30
0
40
0.0596888260255
50
86.1611827726
51
148.850443194
0
ARC
8
drawinglayer
10
-0.603111739745
20
0.714285714286
30
0
40
0.359830268741
50
90.9167324722
51
147.832125305
0
ARC
8
drawinglayer
10
-0.551343705799
20
0.868458274399
30
0
40
0.259688826025
50
93.0366763142
51
148.229987198
0
ARC
8
drawinglayer
10
-0.55756718529
20
0.660254596888
30
0
40
0.452333804809
50
100.828902328
51
147.642648162
0
ARC
8
drawinglayer
10
-0.575388967468
20
0.00594059405941
30
0
40
0.843281471004
50
115.954988119
51
146.462698879
0
ARC
8
drawinglayer
10
-0.541725601132
20
0.151343705799
30
0
40
0.803677510608
50
124.893129723
51
146.641920077
0
ARC
8
drawinglayer
10
-0.507496463932
20
-0.0927864214993
30
0
40
0.909759547383
50
142.425638254
51
146.40064755
0
ARC
8
drawinglayer
10
-0.620367751061
20
0.943988684583
30
0
40
0.0659123055163
50
85.8747038751
51
148.688181547
0
ARC
8
drawinglayer
10
-0.661103253182
20
0.782461103253
30
0
40
0.166902404526
50
86.7341405678
51
148.304872782
0
ARC
8
drawinglayer
10
-0.63224893918
20
0.748514851485
30
0
40
0.263366336634
50
90.8021409132
51
148.067381776
0
ARC
8
drawinglayer
10
-0.67072135785
20
0.605374823197
30
0
40
0.334936350778
50
89.7135211024
51
147.77952778
0
ARC
8
drawinglayer
10
-0.64045261669
20
0.554455445545
30
0
40
0.435926449788
50
95.6722821718
51
147.534760209
0
ARC
8
drawinglayer
10
-0.675813295615
20
0.402828854314
30
0
40
0.495615275813
50
95.5576906128
51
147.290221822
0
ARC
8
drawinglayer
10
-0.635077793494
20
0.320226308345
30
0
40
0.607637906648
50
106.329297161
51
147.036974477
0
ARC
8
drawinglayer
10
-0.66874115983
20
0.155304101839
30
0
40
0.664780763791
50
102.261296816
51
146.803666063
0
ARC
8
drawinglayer
10
-0.663083451202
20
0.961810466761
30
0
40
0.10495049505
50
259.686759688
51
329.134057303
0
ARC
8
drawinglayer
10
-0.710608203678
20
0.633097595474
30
0
40
0.15954738331
50
85.5882249775
51
148.234055198
0
ARC
8
drawinglayer
10
-0.678359264498
20
0.80396039604
30
0
40
0.0630834512023
50
86.6768447882
51
148.588945257
0
ARC
8
drawinglayer
10
-0.693069306931
20
0.619519094767
30
0
40
0.242998585573
50
88.6249012917
51
148.014555067
0
ARC
8
drawinglayer
10
-0.70297029703
20
0.435360678925
30
0
40
0.400848656294
50
93.4950425503
51
147.52118111
0
ARC
8
drawinglayer
10
-0.697878359264
20
0.237906647808
30
0
40
0.554172560113
50
103.235325068
51
147.073872959
0
ARC
8
drawinglayer
10
-0.688543140028
20
0.0294200848656
30
0
40
0.681188118812
50
111.944283554
51
146.717951577
0
ARC
8
drawinglayer
10
-0.718246110325
20
0.635077793494
30
0
40
0.0729844413013
50
86.5622532292
51
148.484666938
0
ARC
8
drawinglayer
10
-0.734936350778
20
0.454314002829
30
0
40
0.237623762376
50
87.5362814809
51
147.951415118
0
ARC
8
drawinglayer
10
-0.862234794908
20
-0.269306930693
30
0
40
0.388684582744
50
77.3949285071
51
147.25183365
0
ARC
8
drawinglayer
10
-0.802545968883
20
-0.172842998586
30
0
40
0.345968882603
50
119.965692685
51
147.495684488
0
ARC
8
drawinglayer
10
-0.876661951909
20
-0.0033946251768
30
0
40
0.251485148515
50
109.824339712
51
147.638923937
0
ARC
8
drawinglayer
10
-0.772277227723
20
-0.355304101839
30
0
40
0.367468175389
50
105.068790012
51
147.488350628
0
ARC
8
drawinglayer
10
-0.825176803395
20
-0.331824611033
30
0
40
0.304384724187
50
79.4002807901
51
147.576929903
0
ARC
8
drawinglayer
10
-0.836492220651
20
-0.436775106082
30
0
40
0.340028288543
50
88.1665350556
51
147.448300878
0
ARC
8
drawinglayer
10
-0.771994342291
20
-0.114568599717
30
0
40
0.172277227723
50
83.410985356
51
148.079757664
0
ARC
8
drawinglayer
10
-0.843564356436
20
-0.00678925035361
30
0
40
0.386987270156
50
77.4522242866
51
112.785843963
0
ARC
8
drawinglayer
10
-0.821499292786
20
0.0404526166902
30
0
40
0.319377652051
50
77.5095200661
51
109.947181863
0
ARC
8
drawinglayer
10
-0.804243281471
20
0.0557284299859
30
0
40
0.245544554455
50
78.4835483179
51
121.175664957
0
ARC
8
drawinglayer
10
-0.790099009901
20
-0.503253182461
30
0
40
0.265912305516
50
76.5927875939
51
147.761250426
0
ARC
8
drawinglayer
10
-0.823196605375
20
-0.517963224894
30
0
40
0.321923620934
50
78.4835483179
51
147.528228491
0
ARC
8
drawinglayer
10
-0.898444130127
20
0.0421499292786
30
0
40
0.30099009901
50
109.709748153
51
147.446582005
0
ARC
8
drawinglayer
10
-0.843847241867
20
-0.0588401697313
30
0
40
0.237623762376
50
76.3636044759
51
147.744233579
0
ARC
8
drawinglayer
10
-0.857142857143
20
-0.523055162659
30
0
40
0.462234794908
50
85.1871545209
51
147.040755998
0
ARC
8
drawinglayer
10
-0.893635077793
20
-0.493917963225
30
0
40
0.499292786421
50
77.3949285071
51
146.858784603
0
ARC
8
drawinglayer
10
-0.914285714286
20
-0.397171145686
30
0
40
0.507213578501
50
76.3636044759
51
146.794899809
0
ARC
8
drawinglayer
10
-0.885431400283
20
-0.131541725601
30
0
40
0.391513437058
50
88.9686759688
51
147.198204801
0
ARC
8
drawinglayer
10
-0.924752475248
20
-0.102121640736
30
0
40
0.424045261669
50
80.1451259237
51
147.023739152
0
ARC
8
drawinglayer
10
-0.919377652051
20
-0.301838755304
30
0
40
0.494766619519
50
76.3636044759
51
146.822000712
0
ARC
8
drawinglayer
10
0.756152758133
20
-0.0690240452617
30
0
40
0.424045261669
50
63.9877161011
51
84.742768455
0
ARC
8
drawinglayer
10
0.751343705799
20
0.209618104668
30
0
40
0.123903818953
50
32.7615162664
51
96.5366463015
0
ARC
8
drawinglayer
10
0.687411598303
20
-0.335502121641
30
0
40
0.0792079207921
50
32.5323331484
51
90.3794126519
0
ARC
8
drawinglayer
10
0.644130127298
20
-0.469872701556
30
0
40
0.10297029703
50
32.4750373689
51
61.1261356891
0
ARC
8
drawinglayer
10
0.611881188119
20
0.476096181047
30
0
40
0.541159830269
50
210.469685086
51
305.81605014
0
ARC
8
drawinglayer
10
0.612446958982
20
0.36775106082
30
0
40
0.514568599717
50
210.526980865
51
298.717389537
0
ARC
8
drawinglayer
10
0.451485148515
20
0.588967468175
30
0
40
0.684582743989
50
209.724839952
51
318.814743638
0
ARC
8
drawinglayer
10
0.408203677511
20
-0.13125884017
30
0
40
0.577934936351
50
209.95402307
51
305.31075866
0
ARC
8
drawinglayer
10
0.307213578501
20
-0.148797736917
30
0
40
0.676379066478
50
209.495656834
51
311.34675444
0
ARC
8
drawinglayer
10
0.433097595474
20
-0.435077793494
30
0
40
0.393493635078
50
210.584276645
51
286.830234162
0
ARC
8
drawinglayer
10
0.465912305516
20
-0.332673267327
30
0
40
0.423196605375
50
210.584276645
51
292.046384633
0
ARC
8
drawinglayer
10
0.476096181047
20
-0.185289957567
30
0
40
0.477793493635
50
210.412389306
51
297.223688565
0
ARC
8
drawinglayer
10
0.415841584158
20
0.0862800565771
30
0
40
0.618387553041
50
209.839431511
51
322.576612633
0
ARC
8
drawinglayer
10
0.436775106082
20
0.184724186704
30
0
40
0.629985855728
50
209.839431511
51
320.647349146
0
ARC
8
drawinglayer
10
0.358698727016
20
0.217256011315
30
0
40
0.675247524752
50
209.552952614
51
319.586517788
0
ARC
8
drawinglayer
10
0.738613861386
20
0.0302687411598
30
0
40
0.0707213578501
50
32.5896289279
51
91.5515697092
0
ARC
8
drawinglayer
10
0.731541725601
20
0.263366336634
30
0
40
0.0316831683168
50
212.245854251
51
271.536099849
0
ARC
8
drawinglayer
10
0.726449787836
20
0.372560113154
30
0
40
0.140594059406
50
211.902079574
51
276.5556685
0
ARC
8
drawinglayer
10
0.749646393211
20
0.123055162659
30
0
40
0.0970297029703
50
32.7042204869
51
94.5622910353
0
ARC
8
drawinglayer
10
0.608486562942
20
1.16407355021
30
0
40
0.385289957567
50
210.928051322
51
298.489180447
0
ARC
8
drawinglayer
10
0.65459688826
20
0.689391796322
30
0
40
0.3756718529
50
211.042642881
51
275.379787217
0
ARC
8
drawinglayer
10
0.6828854314
20
0.813861386139
30
0
40
0.207920792079
50
211.615600676
51
285.472496074
0
ARC
8
drawinglayer
10
0.644695898161
20
0.994908062235
30
0
40
0.255728429986
50
211.386417558
51
284.38324601
0
ARC
8
drawinglayer
10
0.155869872702
20
0.453465346535
30
0
40
0.818670438472
50
208.750811701
51
331.754250596
0
ARC
8
drawinglayer
10
0.386704384724
20
0.312588401697
30
0
40
0.685431400283
50
209.610248393
51
329.726438367
0
ARC
8
drawinglayer
10
0.0489391796322
20
0.652899575672
30
0
40
0.87468175389
50
208.407037023
51
284.945203016
0
ARC
8
drawinglayer
10
0.170014144272
20
0.768033946252
30
0
40
0.875247524752
50
208.636220141
51
307.306256069
0
ARC
8
drawinglayer
10
0.112022630835
20
0.857425742574
30
0
40
0.827157001414
50
208.693515921
51
303.920591162
0
ARC
8
drawinglayer
10
0.0588401697313
20
0.949363507779
30
0
40
0.875813295615
50
208.407037023
51
305.945538602
0
ARC
8
drawinglayer
10
0.0591230551627
20
0.976237623762
30
0
40
0.831966053748
50
208.578924362
51
308.971500605
0
ARC
8
drawinglayer
10
0.112871287129
20
0.884582743989
30
0
40
0.790664780764
50
208.80810748
51
305.923193248
0
ARC
8
drawinglayer
10
0.0987270155587
20
0.937482319661
30
0
40
0.764639321075
50
208.86540326
51
308.930820602
0
ARC
8
drawinglayer
10
0.322489391796
20
0.669872701556
30
0
40
0.734936350778
50
209.323769496
51
313.563642741
0
ARC
8
drawinglayer
10
0.533521923621
20
1.14766619519
30
0
40
0.624611032532
50
210.068614629
51
327.815337642
0
ARC
8
drawinglayer
10
0.224045261669
20
1.34625176803
30
0
40
0.752475247525
50
209.094586378
51
332.672071688
0
ARC
8
drawinglayer
10
0.15558698727
20
1.44441301273
30
0
40
0.712022630835
50
209.094586378
51
332.435955781
0
ARC
8
drawinglayer
10
0.224045261669
20
1.42772277228
30
0
40
0.706930693069
50
209.266473716
51
332.531181366
0
ARC
8
drawinglayer
10
0.342857142857
20
1.26930693069
30
0
40
0.712305516266
50
209.438361055
51
332.737446172
0
ARC
8
drawinglayer
10
0.339179632249
20
1.37397454031
30
0
40
0.671004243281
50
209.552952614
51
332.604061598
0
ARC
8
drawinglayer
10
0.44243281471
20
1.20763790665
30
0
40
0.678642149929
50
209.724839952
51
332.79204905
0
ARC
8
drawinglayer
10
0.438755304102
20
1.30834512023
30
0
40
0.63026874116
50
209.839431511
51
332.637923403
0
ARC
8
drawinglayer
10
0.534653465347
20
1.21329561528
30
0
40
0.586138613861
50
210.183206188
51
325.720890422
0
ARC
8
drawinglayer
10
0.162659123055
20
0.850919377652
30
0
40
0.68882602546
50
209.209177937
51
305.853636171
0
ARC
8
drawinglayer
10
0.226025459689
20
0.809618104668
30
0
40
0.678925035361
50
209.323769496
51
314.200886401
0
ARC
8
drawinglayer
10
0.566902404526
20
0.716831683168
30
0
40
0.56152758133
50
210.297797747
51
325.713556562
0
ARC
8
drawinglayer
10
0.484299858557
20
0.733521923621
30
0
40
0.629702970297
50
209.95402307
51
328.735278678
0
ARC
8
drawinglayer
10
0.556718528996
20
0.679207920792
30
0
40
0.593210749646
50
210.183206188
51
326.775934906
0
ARC
8
drawinglayer
10
0.323903818953
20
0.763224893918
30
0
40
0.698161244696
50
209.438361055
51
322.603197875
0
ARC
8
drawinglayer
10
0.37171145686
20
0.515417256011
30
0
40
0.685431400283
50
33.6782487386
51
53.4486731216
0
ARC
8
drawinglayer
10
0.379066478076
20
0.66053748232
30
0
40
0.586421499293
50
33.3917698411
51
70.9050355617
0
ARC
8
drawinglayer
10
0.364639321075
20
0.370297029703
30
0
40
0.784441301273
50
33.9647276362
51
53.6284672778
0
ARC
8
drawinglayer
10
0.505516265912
20
0.58783592645
30
0
40
0.563224893918
50
33.6209529591
51
77.1411082039
0
ARC
8
drawinglayer
10
0.435077793494
20
0.478925035361
30
0
40
0.673833097595
50
33.7928402977
51
53.5981578104
0
ARC
8
drawinglayer
10
0.506930693069
20
0.442149929279
30
0
40
0.663649222065
50
33.9074318567
51
65.5496563464
0
ARC
8
drawinglayer
10
0.508062234795
20
0.296746817539
30
0
40
0.764073550212
50
34.1939107543
51
65.6936979361
0
ARC
8
drawinglayer
10
0.239886845827
20
0.696746817539
30
0
40
0.595756718529
50
33.162586723
51
47.0145289697
0
ARC
8
drawinglayer
10
0.505233380481
20
0.817538896747
30
0
40
0.367468175389
50
33.047995164
51
87.7972637566
0
ARC
8
drawinglayer
10
0.442149929279
20
0.738896746818
30
0
40
0.476944837341
50
33.2198825025
51
70.9859944981
0
ARC
8
drawinglayer
10
0.380198019802
20
0.902404526167
30
0
40
0.386421499293
50
32.8188120459
51
85.4192597237
0
ARC
8
drawinglayer
10
0.594342291372
20
0.238189533239
30
0
40
0.719377652051
50
34.1939107543
51
72.7067586442
0
ARC
8
drawinglayer
10
0.61018387553
20
0.503536067893
30
0
40
0.536916548798
50
33.7355445182
51
84.2882410361
0
ARC
8
drawinglayer
10
0.559264497878
20
0.400282885431
30
0
40
0.650353606789
50
33.9647276362
51
65.6929530909
0
ARC
8
drawinglayer
10
0.477510608204
20
0.0585572842999
30
0
40
0.887977369165
50
34.4803896518
51
51.2168306223
0
ARC
8
drawinglayer
10
0.21216407355
20
1.45827439887
30
0
40
0.160113154173
50
210.928051322
51
308.919647925
0
ARC
8
drawinglayer
10
0.377369165488
20
1.46364922207
30
0
40
0.257142857143
50
210.928051322
51
316.545372403
0
ARC
8
drawinglayer
10
0.29504950495
20
1.42347949081
30
0
40
0.158132956153
50
211.042642881
51
293.155459037
0
ARC
8
drawinglayer
10
0.382743988685
20
1.31598302687
30
0
40
0.0596888260255
50
211.501009117
51
293.299557922
0
ARC
8
drawinglayer
10
0.433663366337
20
1.33493635078
30
0
40
0.14738330976
50
211.329121779
51
282.577454927
0
ARC
8
drawinglayer
10
0.38189533239
20
1.22319660537
30
0
40
0.0463932107496
50
31.8447837942
51
95.3024952108
0
ARC
8
drawinglayer
10
0.381046676096
20
1.13069306931
30
0
40
0.152192362093
50
32.1312626918
51
95.2659977993
0
ARC
8
drawinglayer
10
0.299575671853
20
1.25657708628
30
0
40
0.0478076379066
50
31.6728964557
51
97.0094510741
0
ARC
8
drawinglayer
10
0.701838755304
20
0.746251768034
30
0
40
0.136633663366
50
211.902079574
51
284.472512835
0
ARC
8
drawinglayer
10
0.693635077793
20
0.821499292786
30
0
40
0.0231966053748
50
212.188558471
51
282.36454381
0
ARC
8
drawinglayer
10
0.725601131542
20
0.637340876945
30
0
40
0.0138613861386
50
212.30315003
51
281.47290689
0
ARC
8
drawinglayer
10
0.695332390382
20
0.788401697313
30
0
40
0.0868458274399
50
212.016671133
51
280.423420096
0
ARC
8
drawinglayer
10
0.733804809052
20
0.362376237624
30
0
40
0.0101838755304
50
212.30315003
51
277.524883907
0
ARC
8
drawinglayer
10
0.521640735502
20
-1.26704384724
30
0
40
0.709193776521
50
34.0220234157
51
63.7087429506
0
ARC
8
drawinglayer
10
0.545968882603
20
-1.11994342291
30
0
40
0.70495049505
50
34.0793191952
51
64.7523855744
0
ARC
8
drawinglayer
10
0.422065063649
20
-1.33946251768
30
0
40
0.785289957567
50
34.0793191952
51
36.0603780677
0
ARC
8
drawinglayer
10
0.442149929279
20
-1.20792079208
30
0
40
0.80198019802
50
34.1366149747
51
41.1005731999
0
ARC
8
drawinglayer
10
0.559830268741
20
-1.20339462518
30
0
40
0.625459688826
50
33.9074318567
51
79.3077481062
0
ARC
8
drawinglayer
10
0.580480905233
20
-1.04724186704
30
0
40
0.619801980198
50
33.9074318567
51
73.5366307147
0
ARC
8
drawinglayer
10
0.52531824611
20
-1.44441301273
30
0
40
0.736067892504
50
34.1366149747
51
65.7082510641
0
ARC
8
drawinglayer
10
0.432814710042
20
-1.5216407355
30
0
40
0.819519094767
50
34.1939107543
51
42.1121301872
0
ARC
8
drawinglayer
10
0.574540311174
20
-1.00763790665
30
0
40
0.747666195191
50
34.2512065338
51
66.8484370764
0
ARC
8
drawinglayer
10
0.457991513437
20
-1.11626591231
30
0
40
0.869306930693
50
34.3657980928
51
44.2647899193
0
ARC
8
drawinglayer
10
0.554172560113
20
-1.28345120226
30
0
40
0.498444130127
50
33.5063614001
51
84.0872474416
0
ARC
8
drawinglayer
10
0.560678925035
20
-1.20056577086
30
0
40
0.391230551627
50
33.2198825025
51
87.9889181391
0
ARC
8
drawinglayer
10
0.575954738331
20
-1.03564356436
30
0
40
0.38981612447
50
33.2198825025
51
84.1225416418
0
ARC
8
drawinglayer
10
0.566336633663
20
-1.38217821782
30
0
40
0.649787835926
50
33.9647276362
51
88.037791439
0
ARC
8
drawinglayer
10
0.630834512023
20
-0.873267326733
30
0
40
0.400848656294
50
33.3344740616
51
84.312190672
0
ARC
8
drawinglayer
10
0.305799151344
20
-0.636492220651
30
0
40
0.231683168317
50
210.870755542
51
240.527394793
0
ARC
8
drawinglayer
10
0.262234794908
20
-0.891371994342
30
0
40
0.0616690240453
50
211.271825999
51
266.895141708
0
ARC
8
drawinglayer
10
0.406789250354
20
-0.532107496464
30
0
40
0.293917963225
50
210.870755542
51
245.869882458
0
ARC
8
drawinglayer
10
0.44045261669
20
-0.566053748232
30
0
40
0.214710042433
50
211.15723444
51
243.021766554
0
ARC
8
drawinglayer
10
0.0899575671853
20
-0.132956152758
30
0
40
0.772277227723
50
208.80810748
51
332.517201196
0
ARC
8
drawinglayer
10
0.0803394625177
20
-0.239886845827
30
0
40
0.706364922207
50
208.979994819
51
332.295409233
0
ARC
8
drawinglayer
10
0.181612446959
20
0.104101838755
30
0
40
0.779349363508
50
208.922699039
51
332.687770731
0
ARC
8
drawinglayer
10
0.109193776521
20
0.106930693069
30
0
40
0.784724186704
50
208.80810748
51
332.587789596
0
ARC
8
drawinglayer
10
0.594908062235
20
0.580763790665
30
0
40
0.569448373409
50
210.355093527
51
315.850661076
0
ARC
8
drawinglayer
10
0.641018387553
20
0.567468175389
30
0
40
0.502687411598
50
210.641572424
51
307.822147268
0
ARC
8
drawinglayer
10
0.534370579915
20
0.607920792079
30
0
40
0.631117397454
50
210.01131885
51
323.857803559
0
ARC
8
drawinglayer
10
0.659123055163
20
0.452050919378
30
0
40
0.461386138614
50
210.813459763
51
297.765534752
0
ARC
8
drawinglayer
10
0.170297029703
20
0.816407355021
30
0
40
0.758132956153
50
208.979994819
51
309.114338983
0
ARC
8
drawinglayer
10
0.650636492221
20
0.729844413013
30
0
40
0.441018387553
50
210.870755542
51
288.624451497
0
ARC
8
drawinglayer
10
0.44639321075
20
1.38076379066
30
0
40
0.58189533239
50
210.01131885
51
331.509712209
0
ARC
8
drawinglayer
10
0.339179632249
20
1.46449787836
30
0
40
0.618387553041
50
209.724839952
51
332.442659387
0
ARC
8
drawinglayer
10
0.598868458274
20
0.248373408769
30
0
40
0.486562942008
50
210.584276645
51
295.599410512
0
ARC
8
drawinglayer
10
0.655162659123
20
0.324752475248
30
0
40
0.429137199434
50
210.870755542
51
291.658492205
0
ARC
8
drawinglayer
10
0.171994342291
20
-0.0520509193777
30
0
40
0.792927864215
50
208.86540326
51
332.713954903
0
ARC
8
drawinglayer
10
0.125884016973
20
0.0551626591231
30
0
40
0.808486562942
50
208.750811701
51
332.689203126
0
ARC
8
drawinglayer
10
0.679207920792
20
0.555021216407
30
0
40
0.345120226308
50
211.21453022
51
281.544469318
0
ARC
8
drawinglayer
10
0.714851485149
20
0.45657708628
30
0
40
0.239321074965
50
211.615600676
51
285.608287072
0
ARC
8
drawinglayer
10
0.634512022631
20
0.188684582744
30
0
40
0.389250353607
50
210.985347102
51
284.464892496
0
ARC
8
drawinglayer
10
0.530693069307
20
1.27496463932
30
0
40
0.515417256011
50
210.412389306
51
315.562577897
0
ARC
8
drawinglayer
10
0.132673267327
20
1.57199434229
30
0
40
0.617538896747
50
209.381065275
51
332.105760203
0
ARC
8
drawinglayer
10
0.297312588402
20
1.51598302687
30
0
40
0.594059405941
50
209.724839952
51
332.301081516
0
ARC
8
drawinglayer
10
0.55756718529
20
1.29420084866
30
0
40
0.441301272984
50
210.698868204
51
312.457203943
0
ARC
8
drawinglayer
10
0.514568599717
20
-0.0362093352192
30
0
40
0.484299858557
50
210.469685086
51
301.395107793
0
ARC
8
drawinglayer
10
0.146817538897
20
-0.32531824611
30
0
40
0.623479490806
50
209.381065275
51
274.68318513
0
ARC
8
drawinglayer
10
0.131824611033
20
-0.434794908062
30
0
40
0.515417256011
50
209.667544173
51
227.120354274
0
ARC
8
drawinglayer
10
0.131824611033
20
-0.5414427157
30
0
40
0.406506364922
50
210.01131885
51
221.242609437
0
ARC
8
drawinglayer
10
0.496181046676
20
-0.359264497878
30
0
40
0.364922206506
50
210.813459763
51
283.97272175
0
ARC
8
drawinglayer
10
0.53323903819
20
0.202263083451
30
0
40
0.54540311174
50
210.297797747
51
312.638602381
0
ARC
8
drawinglayer
10
0.583592644979
20
0.130410183876
30
0
40
0.455445544554
50
210.698868204
51
295.503440081
0
ARC
8
drawinglayer
10
0.566619519095
20
0.0016973125884
30
0
40
0.421782178218
50
210.756163983
51
296.407567482
0
ARC
8
drawinglayer
10
0.554172560113
20
-0.235643564356
30
0
40
0.353323903819
50
210.928051322
51
290.224378844
0
ARC
8
drawinglayer
10
0.474398868458
20
-0.460254596888
30
0
40
0.329844413013
50
210.870755542
51
284.881776588
0
ARC
8
drawinglayer
10
0.535785007072
20
-0.391230551627
30
0
40
0.291371994342
50
211.099938661
51
285.05429418
0
ARC
8
drawinglayer
10
0.514568599717
20
-0.485431400283
30
0
40
0.255728429986
50
211.15723444
51
279.907929968
0
ARC
8
drawinglayer
10
0.612446958982
20
0.0596888260255
30
0
40
0.349646393211
50
211.042642881
51
280.303729213
0
ARC
8
drawinglayer
10
0.641584158416
20
-0.0294200848656
30
0
40
0.231683168317
50
211.501009117
51
278.315393777
0
ARC
8
drawinglayer
10
0.665063649222
20
-0.39801980198
30
0
40
0.0234794908062
50
32.3031500303
51
95.2866242799
0
ARC
8
drawinglayer
10
0.548514851485
20
-0.500424328147
30
0
40
0.183309759547
50
211.443713338
51
268.887659737
0
ARC
8
drawinglayer
10
0.584441301273
20
-0.517963224894
30
0
40
0.100141442716
50
211.787488015
51
267.003488027
0
ARC
8
drawinglayer
10
0.726166902405
20
0.474964639321
30
0
40
0.00509193776521
50
212.30315003
51
277.496808975
0
ARC
8
drawinglayer
10
0.744837340877
20
0.320792079208
30
0
40
0.138896746818
50
32.8188120459
51
96.5090870316
0
ARC
8
drawinglayer
10
0.744837340877
20
0.452333804809
30
0
40
0.156435643564
50
32.8761078255
51
95.51632306
0
ARC
8
drawinglayer
10
0.735502121641
20
0.463932107496
30
0
40
0.0755304101839
50
32.5896289279
51
95.5112810314
0
ARC
8
drawinglayer
10
0.517680339463
20
-0.584724186704
30
0
40
0.0710042432815
50
211.730192235
51
233.290594066
0
ARC
8
drawinglayer
10
0.473550212164
20
-0.584158415842
30
0
40
0.143705799151
50
211.443713338
51
239.15304093
0
ARC
8
drawinglayer
10
0.37171145686
20
-0.50099009901
30
0
40
0.362376237624
50
210.584276645
51
252.859795671
0
ARC
8
drawinglayer
10
0.33125884017
20
-0.456011315417
30
0
40
0.443281471004
50
210.240501968
51
269.123603757
0
ARC
8
drawinglayer
10
0.669872701556
20
-0.727581329562
30
0
40
0.411598302687
50
33.4490656206
51
84.4475233032
0
ARC
8
drawinglayer
10
0.629137199434
20
-0.841584158416
30
0
40
0.544837340877
50
33.7928402977
51
69.6990739945
0
ARC
8
drawinglayer
10
0.667892503536
20
-0.712305516266
30
0
40
0.560396039604
50
33.9074318567
51
39.9747684282
0
ARC
8
drawinglayer
10
0.676096181047
20
-0.641018387553
30
0
40
0.319943422914
50
33.2198825025
51
85.4234423156
0
ARC
8
drawinglayer
10
0.614992927864
20
-0.91513437058
30
0
40
0.635360678925
50
34.0220234157
51
72.6885958821
0
ARC
8
drawinglayer
10
0.638755304102
20
-0.813012729844
30
0
40
0.673550212164
50
34.1939107543
51
48.2051352679
0
ARC
8
drawinglayer
10
0.638189533239
20
-0.770579915134
30
0
40
0.296181046676
50
33.047995164
51
87.2575948094
0
ARC
8
drawinglayer
10
0.676379066478
20
-0.572277227723
30
0
40
0.229420084866
50
32.933403605
51
90.3381596907
0
ARC
8
drawinglayer
10
0.637623762376
20
-0.695898161245
30
0
40
0.207920792079
50
32.8188120459
51
89.2181417928
0
ARC
8
drawinglayer
10
0.598302687412
20
-0.794059405941
30
0
40
0.200848656294
50
32.7042204869
51
88.0946861481
0
ARC
8
drawinglayer
10
0.559264497878
20
-0.891654879774
30
0
40
0.193493635078
50
32.5896289279
51
90.9258425012
0
ARC
8
drawinglayer
10
0.559830268741
20
-0.749646393211
30
0
40
0.137765205092
50
32.4177415894
51
81.9868414604
0
ARC
8
drawinglayer
10
0.521074964639
20
-0.849222065064
30
0
40
0.137199434229
50
32.3604458098
51
85.8350551956
0
ARC
8
drawinglayer
10
0.521074964639
20
-1.02659123055
30
0
40
0.175106082037
50
32.4750373689
51
97.7072563728
0
ARC
8
drawinglayer
10
0.122489391796
20
-0.658840169731
30
0
40
0.279773691655
50
210.355093527
51
222.573418508
0
ARC
8
drawinglayer
10
0.128147100424
20
-0.734087694484
30
0
40
0.206223479491
50
210.584276645
51
235.968255026
0
ARC
8
drawinglayer
10
0.182461103253
20
-0.828854314003
30
0
40
0.138896746818
50
210.928051322
51
266.602589458
0
ARC
8
drawinglayer
10
0.387270155587
20
-0.485148514851
30
0
40
1.05289957567
50
34.7668685494
51
35.7454231677
0
ARC
8
drawinglayer
10
0.495898161245
20
-0.545968882603
30
0
40
0.982178217822
50
34.7668685494
51
43.6494332473
0
ARC
8
drawinglayer
10
0.490806223479
20
-0.747949080622
30
0
40
0.986421499293
50
34.7668685494
51
43.6473705992
0
ARC
8
drawinglayer
10
0.475247524752
20
-0.923338048091
30
0
40
0.970297029703
50
34.7095727699
51
45.5302245056
0
ARC
8
drawinglayer
10
0.470438472419
20
-1.03196605375
30
0
40
0.9171145686
50
34.5376854313
51
45.3920270854
0
ARC
8
drawinglayer
10
0.59801980198
20
-0.463083451202
30
0
40
0.884582743989
50
34.7095727699
51
56.4211781628
0
ARC
8
drawinglayer
10
0.557850070721
20
-0.396888260255
30
0
40
0.914285714286
50
34.7095727699
51
43.6273743722
0
ARC
8
drawinglayer
10
0.435926449788
20
-0.198868458274
30
0
40
0.98981612447
50
34.6522769904
51
41.5687943101
0
ARC
8
drawinglayer
10
0.592079207921
20
-0.654879773692
30
0
40
0.88684582744
50
34.7095727699
51
48.5715990737
0
ARC
8
drawinglayer
10
0.544271570014
20
-0.605657708628
30
0
40
0.935502121641
50
34.7668685494
51
43.6477143739
0
ARC
8
drawinglayer
10
0.590947666195
20
-0.813012729844
30
0
40
0.849787835926
50
34.5949812108
51
46.5123314622
0
ARC
8
drawinglayer
10
0.533521923621
20
-0.788967468175
30
0
40
0.928429985856
50
34.7095727699
51
44.5894851018
0
ARC
8
drawinglayer
10
0.582461103253
20
-0.918528995757
30
0
40
0.798585572843
50
34.4230938723
51
51.305524489
0
ARC
8
drawinglayer
10
0.646110325318
20
-0.326449787836
30
0
40
0.805374823197
50
34.5949812108
51
56.4086303871
0
ARC
8
drawinglayer
10
0.676379066478
20
-0.377086280057
30
0
40
0.766902404526
50
67.1962797538
51
68.1634898078
0
ARC
8
drawinglayer
10
0.676379066478
20
-0.377086280057
30
0
40
0.766902404526
50
34.5376854313
51
61.330910805
0
ARC
8
drawinglayer
10
0.667892503536
20
-0.570297029703
30
0
40
0.765770862801
50
34.4803896518
51
44.5150005884
0
ARC
8
drawinglayer
10
0.634229137199
20
-0.515983026874
30
0
40
0.826874115983
50
34.5949812108
51
50.517879408
0
ARC
8
drawinglayer
10
0.658274398868
20
-0.717680339463
30
0
40
0.72729844413
50
34.3657980928
51
42.3993539299
0
ARC
8
drawinglayer
10
0.651485148515
20
-0.0577086280057
30
0
40
0.779632248939
50
34.4803896518
51
69.0732321949
0
ARC
8
drawinglayer
10
0.752475247525
20
-0.131541725601
30
0
40
0.514002828854
50
61.1229271254
51
85.7323811587
0
ARC
8
drawinglayer
10
0.752475247525
20
-0.131541725601
30
0
40
0.514002828854
50
33.9074318567
51
43.081975847
0
ARC
8
drawinglayer
10
0.423479490806
20
-0.819236209335
30
0
40
0.0534653465347
50
31.9593753532
51
74.4628742863
0
ARC
8
drawinglayer
10
0.453182461103
20
-0.650919377652
30
0
40
0.0175388967468
50
211.787488015
51
226.088686469
0
ARC
8
drawinglayer
10
0.428005657709
20
-0.949080622348
30
0
40
0.0885431400283
50
32.0739669123
51
90.4801959281
0
ARC
8
drawinglayer
10
0.760113154173
20
-0.0203677510608
30
0
40
0.534653465347
50
34.0220234157
51
86.7342551593
0
ARC
8
drawinglayer
10
0.767185289958
20
0.139179632249
30
0
40
0.413861386139
50
33.6782487386
51
93.5639693731
0
ARC
8
drawinglayer
10
0.760113154173
20
0.0048090523338
30
0
40
0.443564356436
50
33.7355445182
51
86.7172956086
0
ARC
8
drawinglayer
10
0.735219236209
20
0.265629420085
30
0
40
0.466478076379
50
33.7355445182
51
89.5597392302
0
ARC
8
drawinglayer
10
0.720226308345
20
0.0732673267327
30
0
40
0.612729844413
50
34.1366149747
51
80.8023085148
0
ARC
8
drawinglayer
10
0.743705799151
20
0.106082036775
30
0
40
0.513437057992
50
33.9074318567
51
80.8272321789
0
ARC
8
drawinglayer
10
0.751060820368
20
0.299575671853
30
0
40
0.289957567185
50
33.277178282
51
91.5736858801
0
ARC
8
drawinglayer
10
0.755869872702
20
0.164639321075
30
0
40
0.321357850071
50
33.3917698411
51
87.6614727592
0
ARC
8
drawinglayer
10
0.752475247525
20
0.305799151344
30
0
40
0.209618104668
50
33.047995164
51
96.5077692287
0
ARC
8
drawinglayer
10
0.725035360679
20
0.456294200849
30
0
40
0.31909476662
50
33.277178282
51
92.4618850541
0
ARC
8
drawinglayer
10
0.746251768034
20
0.297878359264
30
0
40
0.366336633663
50
33.5063614001
51
92.5264573976
0
ARC
8
drawinglayer
10
0.365487977369
20
-0.925035360679
30
0
40
0.0404526166902
50
31.7874880147
51
86.2718782186
0
ARC
8
drawinglayer
10
0.311456859972
20
-0.908345120226
30
0
40
0.0200848656294
50
211.501009117
51
268.075320175
0
ARC
8
drawinglayer
10
0.368882602546
20
-0.813578500707
30
0
40
0.00509193776521
50
31.6728964557
51
72.221406096
0
ARC
8
drawinglayer
10
0.389533239038
20
-0.660254596888
30
0
40
0.0865629420085
50
211.443713338
51
224.73639148
0
ARC
8
drawinglayer
10
0.234512022631
20
0.822065063649
30
0
40
0.494766619519
50
32.8761078255
51
46.7656933992
0
ARC
8
drawinglayer
10
0.380763790665
20
1.01669024045
30
0
40
0.269306930693
50
32.4750373689
51
85.3890075521
0
ARC
8
drawinglayer
10
0.305233380481
20
1.03903818953
30
0
40
0.272984441301
50
32.3604458098
51
75.2626660725
0
ARC
8
drawinglayer
10
0.310042432815
20
0.799717114569
30
0
40
0.491089108911
50
32.9906993845
51
45.954213274
0
ARC
8
drawinglayer
10
0.495332390382
20
1.1125884017
30
0
40
0.0565770862801
50
32.0739669123
51
94.6938994408
0
ARC
8
drawinglayer
10
0.499575671853
20
1.02291371994
30
0
40
0.159264497878
50
32.4177415894
51
94.6796900875
0
ARC
8
drawinglayer
10
0.436209335219
20
1.16633663366
30
0
40
0.0531824611033
50
31.9593753532
51
92.5010180715
0
ARC
8
drawinglayer
10
0.502404526167
20
0.920226308345
30
0
40
0.263366336634
50
32.7042204869
51
87.7741735575
0
ARC
8
drawinglayer
10
0.439886845827
20
0.962659123055
30
0
40
0.27270155587
50
32.5896289279
51
85.5916627243
0
ARC
8
drawinglayer
10
0.594908062235
20
0.912871287129
30
0
40
0.165205091938
50
32.5896289279
51
94.0155747072
0
ARC
8
drawinglayer
10
0.603111739745
20
0.714285714286
30
0
40
0.359830268741
50
33.162586723
51
89.1085349666
0
ARC
8
drawinglayer
10
0.549929278642
20
0.865063649222
30
0
40
0.266478076379
50
32.8188120459
51
87.9371227544
0
ARC
8
drawinglayer
10
0.554455445545
20
0.650919377652
30
0
40
0.461669024045
50
33.3917698411
51
77.2261351407
0
ARC
8
drawinglayer
10
0.575388967468
20
0.00594059405941
30
0
40
0.843281471004
50
34.5376854313
51
63.1000325891
0
ARC
8
drawinglayer
10
0.505799151344
20
-0.0964639321075
30
0
40
0.916548797737
50
34.5949812108
51
40.5525963646
0
ARC
8
drawinglayer
10
0.661103253182
20
0.782461103253
30
0
40
0.166902404526
50
32.7042204869
51
93.2537700228
0
ARC
8
drawinglayer
10
0.620650636492
20
0.940876944837
30
0
40
0.0644978783593
50
32.3604458098
51
93.1341937309
0
ARC
8
drawinglayer
10
0.67072135785
20
0.605374823197
30
0
40
0.334936350778
50
33.2198825025
51
90.3168456607
0
ARC
8
drawinglayer
10
0.632814710042
20
0.759264497878
30
0
40
0.250070721358
50
32.933403605
51
89.2038178479
0
ARC
8
drawinglayer
10
0.675813295615
20
0.402828854314
30
0
40
0.495615275813
50
33.7355445182
51
85.4689924603
0
ARC
8
drawinglayer
10
0.639321074965
20
0.558698727016
30
0
40
0.427722772277
50
33.4490656206
51
82.3917507342
0
ARC
8
drawinglayer
10
0.66874115983
20
0.155304101839
30
0
40
0.664780763791
50
34.1939107543
51
77.7525114671
0
ARC
8
drawinglayer
10
0.639321074965
20
0.329561527581
30
0
40
0.600848656294
50
33.9647276362
51
75.6617311769
0
ARC
8
drawinglayer
10
0.622913719943
20
0.0902404526167
30
0
40
0.749363507779
50
34.3657980928
51
64.076352672
0
ARC
8
drawinglayer
10
0.597736916549
20
-0.120792079208
30
0
40
0.844695898161
50
34.5949812108
51
49.4762994322
0
ARC
8
drawinglayer
10
0.710608203678
20
0.633097595474
30
0
40
0.15954738331
50
32.8188120459
51
93.4244541499
0
ARC
8
drawinglayer
10
0.677510608204
20
0.80198019802
30
0
40
0.0718528995757
50
32.4750373689
51
93.3282545361
0
ARC
8
drawinglayer
10
0.690806223479
20
0.619236209335
30
0
40
0.247241867044
50
33.047995164
51
90.3867465117
0
ARC
8
drawinglayer
10
0.700424328147
20
0.429420084866
30
0
40
0.407355021216
50
33.5063614001
51
85.5288092541
0
ARC
8
drawinglayer
10
0.702121640736
20
0.210466760962
30
0
40
0.565770862801
50
33.9647276362
51
77.7915298929
0
ARC
8
drawinglayer
10
0.719377652051
20
0.637057991513
30
0
40
0.0664780763791
50
32.5323331484
51
94.466206013
0
ARC
8
drawinglayer
10
0.730975954738
20
0.466195190948
30
0
40
0.224893917963
50
33.047995164
51
89.5383106087
0
ARC
8
drawinglayer
10
0.734370579915
20
-0.0322489391796
30
0
40
0.602828854314
50
34.1366149747
51
72.0637854065
0
ARC
8
drawinglayer
10
0.802545968883
20
-0.172842998586
30
0
40
0.345968882603
50
33.5063614001
51
60.0069772278
0
ARC
8
drawinglayer
10
0.862234794908
20
-0.269306930693
30
0
40
0.388684582744
50
33.7928402977
51
102.62099972
0
ARC
8
drawinglayer
10
0.876661951909
20
-0.0033946251768
30
0
40
0.251485148515
50
33.3917698411
51
70.1526273851
0
ARC
8
drawinglayer
10
0.772277227723
20
-0.355304101839
30
0
40
0.367468175389
50
33.5636571796
51
74.9147660993
0
ARC
8
drawinglayer
10
0.834229137199
20
-0.394908062235
30
0
40
0.398585572843
50
33.7355445182
51
96.7086482316
0
ARC
8
drawinglayer
10
0.840735502122
20
-0.479207920792
30
0
40
0.399717114569
50
33.7928402977
51
89.9148011759
0
ARC
8
drawinglayer
10
0.843847241867
20
-0.362093352192
30
0
40
0.310042432815
50
33.5063614001
51
101.646283919
0
ARC
8
drawinglayer
10
0.828571428571
20
-0.41216407355
30
0
40
0.289957567185
50
33.3917698411
51
103.555207405
0
ARC
8
drawinglayer
10
0.771994342291
20
-0.114568599717
30
0
40
0.172277227723
50
32.933403605
51
96.5885562778
0
ARC
8
drawinglayer
10
0.821499292786
20
0.0404526166902
30
0
40
0.319377652051
50
70.0610687294
51
102.537519769
0
ARC
8
drawinglayer
10
0.843564356436
20
-0.00678925035361
30
0
40
0.386987270156
50
61.1802229049
51
102.560667264
0
ARC
8
drawinglayer
10
0.804243281471
20
0.0557284299859
30
0
40
0.245544554455
50
58.8310959449
51
101.559366221
0
ARC
8
drawinglayer
10
0.790099009901
20
-0.503253182461
30
0
40
0.265912305516
50
33.277178282
51
103.447949705
0
ARC
8
drawinglayer
10
0.823196605375
20
-0.517963224894
30
0
40
0.321923620934
50
33.5063614001
51
101.570367011
0
ARC
8
drawinglayer
10
0.898444130127
20
0.0421499292786
30
0
40
0.30099009901
50
33.5636571796
51
70.2822304384
0
ARC
8
drawinglayer
10
0.843847241867
20
-0.0588401697313
30
0
40
0.237623762376
50
33.277178282
51
104.620966199
0
ARC
8
drawinglayer
10
0.893635077793
20
-0.493917963225
30
0
40
0.499292786421
50
34.1939107543
51
102.641969975
0
ARC
8
drawinglayer
10
0.914285714286
20
-0.397171145686
30
0
40
0.507213578501
50
34.2512065338
51
103.66292347
0
ARC
8
drawinglayer
10
0.924752475248
20
-0.102121640736
30
0
40
0.424045261669
50
34.0220234157
51
99.9037473762
0
ARC
8
drawinglayer
10
0.898444130127
20
-0.198302687412
30
0
40
0.497595473833
50
34.1939107543
51
46.4440921888
0
ARC
8
drawinglayer
10
0.919377652051
20
-0.301838755304
30
0
40
0.494766619519
50
34.1939107543
51
103.688477388
0
ARC
8
drawinglayer
10
-0.230551626591
20
-1.00509193777
30
0
40
0.0478076379066
50
220.381854942
51
329.740418538
0
ARC
8
drawinglayer
10
0.230551626591
20
-1.00509193777
30
0
40
0.0478076379066
50
211.271825999
51
319.642667652
0
ARC
8
drawinglayer
10
-0.168316831683
20
-0.895898161245
30
0
40
0.118246110325
50
219.293235131
51
330.06362403
0
ARC
8
drawinglayer
10
-0.343988684583
20
-1.05714285714
30
0
40
0.0591230551627
50
69.9464771704
51
149.214787056
0
ARC
8
drawinglayer
10
0.343988684583
20
-1.05714285714
30
0
40
0.0591230551627
50
31.7874880147
51
110.048824576
0
ARC
8
drawinglayer
10
-0.282602545969
20
-1.19490806223
30
0
40
0.0384724186704
50
42.4445030041
51
149.387075465
0
ARC
8
drawinglayer
10
0.282602545969
20
-1.19490806223
30
0
40
0.0384724186704
50
31.6156006762
51
137.561799532
0
ARC
8
drawinglayer
10
-0.134936350778
20
-0.982743988685
30
0
40
0.10495049505
50
226.397911791
51
330.081385721
0
ARC
8
drawinglayer
10
0.134936350778
20
-0.982743988685
30
0
40
0.10495049505
50
210.928051322
51
324.566838831
0
ARC
8
drawinglayer
10
0.130693069307
20
-0.88882602546
30
0
40
0.137765205092
50
210.813459763
51
330.637212079
0
ARC
8
drawinglayer
10
-0.506647807638
20
-1.31881188119
30
0
40
0.182461103253
50
47.2000527037
51
148.544770211
0
ARC
8
drawinglayer
10
-0.518246110325
20
-1.17736916549
30
0
40
0.199717114569
50
72.5247872485
51
148.471775388
0
ARC
8
drawinglayer
10
0.506647807638
20
-1.31881188119
30
0
40
0.182461103253
50
32.4750373689
51
132.856211752
0
ARC
8
drawinglayer
10
0.518246110325
20
-1.17736916549
30
0
40
0.199717114569
50
32.5323331484
51
107.504261712
0
ARC
8
drawinglayer
10
-0.0625176803395
20
-0.955869872702
30
0
40
0.160961810467
50
210.412389306
51
330.378005972
0
ARC
8
drawinglayer
10
0.0
20
-0.89702970297
30
0
40
0.157284299859
50
210.526980865
51
330.474262882
0
ARC
8
drawinglayer
10
0.0625176803395
20
-0.955869872702
30
0
40
0.160961810467
50
210.641572424
51
330.591891117
0
ARC
8
drawinglayer
10
0.0
20
-1.04978783593
30
0
40
0.147949080622
50
210.584276645
51
330.445672288
0
ARC
8
drawinglayer
10
-0.0763790664781
20
-1.21471004243
30
0
40
0.0602545968883
50
210.698868204
51
330.04855524
0
ARC
8
drawinglayer
10
0.0
20
-1.21301272984
30
0
40
0.0780763790665
50
210.756163983
51
330.234365453
0
ARC
8
drawinglayer
10
0.0763790664781
20
-1.21471004243
30
0
40
0.0602545968883
50
210.985347102
51
330.311943938
0
ARC
8
drawinglayer
10
-0.0735502121641
20
-1.34229137199
30
0
40
0.0257425742574
50
210.813459763
51
329.949949203
0
ARC
8
drawinglayer
10
0.0
20
-1.33946251768
30
0
40
0.0393210749646
50
210.870755542
51
330.118112316
0
ARC
8
drawinglayer
10
0.0735502121641
20
-1.34229137199
30
0
40
0.0257425742574
50
211.042642881
51
330.203826802
0
ARC
8
drawinglayer
10
-0.572560113154
20
-1.44441301273
30
0
40
0.512305516266
50
87.1352110243
51
147.436841722
0
ARC
8
drawinglayer
10
-0.581612446959
20
-1.49985855728
30
0
40
0.582743988685
50
86.1611827726
51
147.211554717
0
ARC
8
drawinglayer
10
0.572560113154
20
-1.44441301273
30
0
40
0.512305516266
50
33.5636571796
51
92.8914888089
0
ARC
8
drawinglayer
10
0.581612446959
20
-1.49985855728
30
0
40
0.582743988685
50
33.7928402977
51
93.873481174
0
ARC
8
drawinglayer
10
-0.562093352192
20
-1.33917963225
30
0
40
0.384441301273
50
87.1352110243
51
147.836021418
0
ARC
8
drawinglayer
10
0.562093352192
20
-1.33917963225
30
0
40
0.384441301273
50
33.162586723
51
92.8774513429
0
ARC
8
drawinglayer
10
-0.554172560113
20
-1.24384724187
30
0
40
0.269589816124
50
72.467491469
51
148.195151364
0
ARC
8
drawinglayer
10
0.554172560113
20
-1.24384724187
30
0
40
0.269589816124
50
32.8188120459
51
107.548379462
0
ARC
8
drawinglayer
10
-0.481753889675
20
-1.70579915134
30
0
40
0.855728429986
50
127.872510258
51
146.605823736
0
ARC
8
drawinglayer
10
0.481753889675
20
-1.70579915134
30
0
40
0.855728429986
50
34.3657980928
51
52.1372300244
0
ARC
8
drawinglayer
10
-0.55558698727
20
-1.628854314
30
0
40
0.765487977369
50
108.391945224
51
146.726144873
0
ARC
8
drawinglayer
10
-0.494200848656
20
-1.57538896747
30
0
40
0.792644978784
50
136.810651862
51
146.764533045
0
ARC
8
drawinglayer
10
0.55558698727
20
-1.628854314
30
0
40
0.765487977369
50
34.2512065338
51
71.6612825555
0
ARC
8
drawinglayer
10
-0.592362093352
20
-1.56322489392
30
0
40
0.672984441301
50
86.1611827726
51
146.925992552
0
ARC
8
drawinglayer
10
0.592362093352
20
-1.56322489392
30
0
40
0.672984441301
50
34.0793191952
51
93.8884926682
0
ARC
8
drawinglayer
10
-0.440735502122
20
-1.10579915134
30
0
40
0.106930693069
50
67.7692375489
51
148.89461824
0
ARC
8
drawinglayer
10
-0.440735502122
20
-1.10579915134
30
0
40
0.106930693069
50
43.2240693802
51
43.2466439173
0
ARC
8
drawinglayer
10
0.440735502122
20
-1.10579915134
30
0
40
0.106930693069
50
136.77593062
51
136.810651862
0
ARC
8
drawinglayer
10
0.440735502122
20
-1.10579915134
30
0
40
0.106930693069
50
32.1312626918
51
113.256528792
0
ARC
8
drawinglayer
10
-0.226874115983
20
-1.34738330976
30
0
40
0.0121640735502
50
30.6415724244
51
149.566239368
0
ARC
8
drawinglayer
10
-0.211032531825
20
-1.19264497878
30
0
40
0.0045261669024
50
222.501798784
51
329.644047036
0
ARC
8
drawinglayer
10
0.194342291372
20
-1.34964639321
30
0
40
0.0121640735502
50
31.3864175581
51
150.297047036
0
ARC
8
drawinglayer
10
0.211032531825
20
-1.19264497878
30
0
40
0.0045261669024
50
211.386417558
51
317.50547778
0
ARC
8
drawinglayer
10
-0.507213578501
20
-1.48203677511
30
0
40
0.1756718529
50
52.0128981828
51
148.564479959
0
ARC
8
drawinglayer
10
-0.450919377652
20
-1.42206506365
30
0
40
0.10495049505
50
39.2932351309
51
148.88172669
0
ARC
8
drawinglayer
10
0.450919377652
20
-1.42206506365
30
0
40
0.10495049505
50
32.1312626918
51
140.70716594
0
ARC
8
drawinglayer
10
0.507213578501
20
-1.48203677511
30
0
40
0.1756718529
50
32.4750373689
51
128.982959761
0
ARC
8
drawinglayer
10
-0.280056577086
20
-1.27411598303
30
0
40
0.0263083451202
50
30.5842766449
51
149.427755469
0
ARC
8
drawinglayer
10
0.280056577086
20
-1.32390381895
30
0
40
0.00537482319661
50
211.501009117
51
330.49397263
0
ARC
8
drawinglayer
10
-0.614710042433
20
-2.03818953324
30
0
40
0.936633663366
50
100.370536092
51
146.11731992
0
ARC
8
drawinglayer
10
-0.538896746818
20
-1.88939179632
30
0
40
0.898727015559
50
116.012283899
51
146.372744505
0
ARC
8
drawinglayer
10
-0.659123055163
20
-1.92022630835
30
0
40
0.787270155587
50
92.6356058576
51
146.464073978
0
ARC
8
drawinglayer
10
-0.598868458274
20
-1.90466760962
30
0
40
0.842998585573
50
114.923664088
51
146.418180058
0
ARC
8
drawinglayer
10
-0.603394625177
20
-1.78585572843
30
0
40
0.779915134371
50
103.407212406
51
146.593218665
0
ARC
8
drawinglayer
10
0.66053748232
20
-1.92135785007
30
0
40
0.788401697313
50
34.5376854313
51
87.4088556673
0
ARC
8
drawinglayer
10
0.603394625177
20
-1.78585572843
30
0
40
0.779915134371
50
34.4230938723
51
76.6571880501
0
ARC
8
drawinglayer
10
0.616690240453
20
-2.03932107496
30
0
40
0.937765205092
50
34.8814601084
51
79.683551124
0
ARC
8
drawinglayer
10
0.538896746818
20
-1.88939179632
30
0
40
0.898727015559
50
34.6522769904
51
64.0413449507
0
ARC
8
drawinglayer
10
-0.494200848656
20
-2.13295615276
30
0
40
1.02263083451
50
145.118539892
51
146.102824088
0
ARC
8
drawinglayer
10
-0.430551626591
20
-1.95388967468
30
0
40
0.968882602546
50
144.430990537
51
146.378130308
0
ARC
8
drawinglayer
10
-0.522772277228
20
-1.99603960396
30
0
40
0.952758132956
50
144.259103199
51
146.248355368
0
ARC
8
drawinglayer
10
0.430551626591
20
-1.95388967468
30
0
40
0.968882602546
50
34.5949812108
51
35.5984594932
0
ARC
8
drawinglayer
10
-0.150777934936
20
-1.20028288543
30
0
40
0.0379066478076
50
216.600333494
51
329.85157235
0
ARC
8
drawinglayer
10
-0.136633663366
20
-1.3468175389
30
0
40
0.004243281471
50
210.756163983
51
329.774108456
0
ARC
8
drawinglayer
10
0.150777934936
20
-1.20028288543
30
0
40
0.0379066478076
50
211.15723444
51
323.416511465
0
ARC
8
drawinglayer
10
-0.587270155587
20
-1.65233380481
30
0
40
0.375106082037
50
74.4155479724
51
147.816655445
0
ARC
8
drawinglayer
10
-0.568033946252
20
-1.48175388967
30
0
40
0.379632248939
50
82.2650697657
51
147.839459165
0
ARC
8
drawinglayer
10
-0.554738330976
20
-1.55190947666
30
0
40
0.260254596888
50
60.7791524483
51
148.221564718
0
ARC
8
drawinglayer
10
-0.561244695898
20
-1.51683168317
30
0
40
0.319943422914
50
81.291041514
51
148.030196815
0
ARC
8
drawinglayer
10
-0.549646393211
20
-1.3900990099
30
0
40
0.267043847242
50
63.758532983
51
148.211537957
0
ARC
8
drawinglayer
10
0.554738330976
20
-1.55190947666
30
0
40
0.260254596888
50
32.8188120459
51
119.236603891
0
ARC
8
drawinglayer
10
0.549646393211
20
-1.3900990099
30
0
40
0.267043847242
50
32.8188120459
51
116.296642853
0
ARC
8
drawinglayer
10
0.587270155587
20
-1.65233380481
30
0
40
0.375106082037
50
33.2198825025
51
105.609834058
0
ARC
8
drawinglayer
10
0.568033946252
20
-1.48175388967
30
0
40
0.379632248939
50
33.162586723
51
97.7710838711
0
ARC
8
drawinglayer
10
-0.393776520509
20
-1.22602545969
30
0
40
0.0684582743989
50
34.4230938723
51
149.095554539
0
ARC
8
drawinglayer
10
-0.340876944837
20
-1.34398868458
30
0
40
0.016973125884
50
30.4696850859
51
149.34736949
0
ARC
8
drawinglayer
10
0.393776520509
20
-1.22602545969
30
0
40
0.0684582743989
50
31.9020795737
51
145.575301846
0
ARC
8
drawinglayer
10
0.336916548798
20
-1.27524752475
30
0
40
0.0316831683168
50
31.7301922352
51
150.479820572
0
ARC
8
drawinglayer
10
-0.528429985856
20
-1.43592644979
30
0
40
0.221216407355
50
63.7012372035
51
148.387951662
0
ARC
8
drawinglayer
10
-0.670438472419
20
-1.8531824611
30
0
40
0.69900990099
50
75.3895762242
51
146.700017998
0
ARC
8
drawinglayer
10
-0.633380480905
20
-1.71202263083
30
0
40
0.684016973126
50
79.3429850106
51
146.815125219
0
ARC
8
drawinglayer
10
0.671570014144
20
-1.8540311174
30
0
40
0.699858557284
50
34.3085023133
51
105.588806507
0
ARC
8
drawinglayer
10
0.633380480905
20
-1.71202263083
30
0
40
0.684016973126
50
34.1939107543
51
100.71551398
0
ARC
8
drawinglayer
10
-0.61810466761
20
-1.75869872702
30
0
40
0.514002828854
50
76.3636044759
51
147.345798729
0
ARC
8
drawinglayer
10
-0.589250353607
20
-1.58783592645
30
0
40
0.51315417256
50
82.2650697657
51
147.40252155
0
ARC
8
drawinglayer
10
-0.588401697313
20
-1.62008486563
30
0
40
0.444130127298
50
80.2597174828
51
147.609130131
0
ARC
8
drawinglayer
10
0.61810466761
20
-1.75869872702
30
0
40
0.514002828854
50
33.6782487386
51
103.659714906
0
ARC
8
drawinglayer
10
0.589250353607
20
-1.58783592645
30
0
40
0.51315417256
50
33.6209529591
51
97.7812825199
0
ARC
8
drawinglayer
10
-0.64639321075
20
-1.80707213579
30
0
40
0.596888260255
50
74.4155479724
51
147.046772055
0
ARC
8
drawinglayer
10
-0.607072135785
20
-1.64158415842
30
0
40
0.58585572843
50
80.3170132623
51
147.154373529
0
ARC
8
drawinglayer
10
0.607072135785
20
-1.64158415842
30
0
40
0.58585572843
50
33.8501360772
51
99.7296255022
0
ARC
8
drawinglayer
10
0.64639321075
20
-1.80707213579
30
0
40
0.596888260255
50
33.9647276362
51
105.60043755
0
ARC
8
drawinglayer
10
0.390947666195
20
-1.38811881188
30
0
40
0.0582743988685
50
31.9020795737
51
139.720933687
0
ARC
8
drawinglayer
10
0.431966053748
20
-1.34427157001
30
0
40
0.107496463932
50
32.1312626918
51
125.991661704
0
ARC
8
drawinglayer
10
-0.570297029703
20
-1.46280056577
30
0
40
0.445827439887
50
85.1871545209
51
147.637720725
0
ARC
8
drawinglayer
10
0.479773691655
20
-1.22319660537
30
0
40
0.15756718529
50
32.3604458098
51
123.094099543
0
ARC
8
drawinglayer
10
-0.542574257426
20
-1.74568599717
30
0
40
0.817821782178
50
126.841186227
51
146.599578496
0
ARC
8
drawinglayer
10
-0.351060820368
20
0.963224893918
30
0
40
0.678642149929
50
208.349741244
51
331.484330179
0
ARC
8
drawinglayer
10
-0.35360678925
20
0.891937765205
30
0
40
0.676944837341
50
208.349741244
51
331.474819079
0
ARC
8
drawinglayer
10
-0.283451202263
20
0.946251768034
30
0
40
0.675530410184
50
208.464332803
51
331.590556554
0
ARC
8
drawinglayer
10
-0.465629420085
20
0.880339462518
30
0
40
0.625742574257
50
220.324559162
51
297.574052257
0
ARC
8
drawinglayer
10
-0.219801980198
20
0.861951909477
30
0
40
0.639603960396
50
223.876897492
51
327.45764009
0
ENDSEC
0
EOF
