0
SECTION
2
HEADER
9
$ACADVER
1
AC1006
9
$INSBASE
10
0.0
20
0.0
30
0.0
9
$EXTMIN
10
0.0
20
0.0
9
$EXTMAX
10
0.0
20
0.0
0
ENDSEC
0
SECTION
2
TABLES
0
TABLE
2
LTYPE
70
1
0
LTYPE
2
CONTINUOUS
70
64
3
Solid line
72
65
73
0
40
0.0
0
ENDTAB
0
TABLE
2
LAYER
70
1
0
LAYER
2
PYDXF
70
64
62
7
6
continuous
0
ENDTAB
0
TABLE
2
STYLE
70
1
0
STYLE
2
STANDARD
70
0
40
0
41
40
50
50
71
0
42
1
3
ARIAL.TTF
4

0
ENDTAB
0
TABLE
2
VIEW
70
0
0
ENDTAB
0
ENDSEC
0
SECTION
2
BLOCKS
0
ENDSEC
0
SECTION
2
ENTITIES
0
ARC
8
drawinglayer
10
-0.193616843414
20
-2.46475132426
30
0
40
1.1788474993
50
30.0113188498
51
77.9999719388
0
ARC
8
drawinglayer
10
-0.243933691094
20
-2.56667121065
30
0
40
1.25359365174
50
120.997016717
51
150.000025715
0
ARC
8
drawinglayer
10
-0.219749969736
20
-2.57855217485
30
0
40
1.22922955839
50
30.0113188498
51
137.000014413
0
ARC
8
drawinglayer
10
-0.197461541743
20
-2.34126311036
30
0
40
1.10671951566
50
39.9807844851
51
150.000025715
0
ARC
8
drawinglayer
10
-0.213445274965
20
-2.63370437933
30
0
40
1.27964769188
50
30.0113188498
51
80.9999789541
0
ARC
8
drawinglayer
10
-0.248850909023
20
-2.50953075186
30
0
40
1.2034419138
50
70.9778012017
51
150.000025715
0
ARC
8
drawinglayer
10
-0.138302304148
20
-2.1876056
30
0
40
1.05495275468
50
52.9869264345
51
93.0000070153
0
ARC
8
drawinglayer
10
0.118357324542
20
-1.32031047569
30
0
40
0.764720348839
50
30.0113188498
51
124.000003112
0
ARC
8
drawinglayer
10
0.0628332762733
20
-1.57088324348
30
0
40
0.869111331489
50
30.0113188498
51
109.000025332
0
ARC
8
drawinglayer
10
0.103522422146
20
-0.995355074402
30
0
40
0.590632241979
50
85.0152671824
51
150.000025715
0
ARC
8
drawinglayer
10
0.146231734301
20
-0.977632832697
30
0
40
0.56425630721
50
30.0113188498
51
117.000005842
0
ARC
8
drawinglayer
10
-0.0890038644699
20
-1.88719605152
30
0
40
0.951109825383
50
30.0113188498
51
150.000025715
0
ARC
8
drawinglayer
10
-0.0483702176708
20
-1.82654527632
30
0
40
0.930706978419
50
30.0113188498
51
150.000025715
0
ARC
8
drawinglayer
10
-0.0248635850112
20
-1.75872263332
30
0
40
0.912019052832
50
30.0113188498
51
150.000025715
0
ARC
8
drawinglayer
10
0.0286208722998
20
-1.532057479
30
0
40
0.872838094287
50
94.0107045659
51
150.000025715
0
ARC
8
drawinglayer
10
-0.107429556934
20
-2.01529346349
30
0
40
0.982880270114
50
39.9807844851
51
150.000025715
0
ARC
8
drawinglayer
10
0.0918010177836
20
-1.43066760876
30
0
40
0.812266405266
50
30.0113188498
51
144.999994924
0
ARC
8
drawinglayer
10
0.00887985178972
20
-1.58231050275
30
0
40
0.873716367128
50
52.9869264345
51
150.000025715
0
ARC
8
drawinglayer
10
-0.261336813125
20
-2.62651724929
30
0
40
1.26841329189
50
76.0198297988
51
150.000025715
0
ARC
8
drawinglayer
10
-0.173401305824
20
-2.2268906193
30
0
40
1.05702842004
50
39.0067562334
51
150.000025715
0
ARC
8
drawinglayer
10
-0.185003387178
20
-2.1665395391
30
0
40
1.05029776987
50
68.9724489187
51
150.000025715
0
ARC
8
drawinglayer
10
-0.11760253714
20
-1.97207217238
30
0
40
1.0002140183
50
111.027551081
51
150.000025715
0
ARC
8
drawinglayer
10
0.111580887645
20
-0.921104251194
30
0
40
0.528285970077
50
67.0243924153
51
150.000025715
0
ARC
8
drawinglayer
10
0.154440047299
20
-0.88614954711
30
0
40
0.515132689613
50
30.0113188498
51
93.0000070153
0
ARC
8
drawinglayer
10
-0.145214713776
20
-2.11645023762
30
0
40
1.01482553693
50
41.986136768
51
150.000025715
0
ARC
8
drawinglayer
10
0.128019713271
20
-0.845346628136
30
0
40
0.471409131887
50
30.0113188498
51
150.000025715
0
ARC
8
drawinglayer
10
-0.0497590819898
20
-1.89183161165
30
0
40
0.981920136139
50
37.9754322021
51
38.9999953314
0
ARC
8
drawinglayer
10
0.102573387986
20
-0.787415307546
30
0
40
0.455675144497
50
87.994647717
51
150.000025715
0
ARC
8
drawinglayer
10
0.124589870517
20
-0.735612472168
30
0
40
0.409166920748
50
30.0113188498
51
150.000025715
0
ARC
8
drawinglayer
10
0.152306107916
20
-0.785063534299
30
0
40
0.451679211192
50
30.0113188498
51
96.0000140306
0
ARC
8
drawinglayer
10
-0.0227573951649
20
-1.68397370593
30
0
40
0.898674300564
50
41.0121085163
51
150.000025715
0
ARC
8
drawinglayer
10
0.148018804474
20
-0.680780774843
30
0
40
0.398655396192
50
30.0113188498
51
99.0000210459
0
ARC
8
drawinglayer
10
0.0995695006228
20
-0.687170105701
30
0
40
0.409096159429
50
101.000789667
51
150.000025715
0
ARC
8
drawinglayer
10
0.118987239029
20
-0.625620245507
30
0
40
0.359685334127
50
30.0113188498
51
150.000025715
0
ARC
8
drawinglayer
10
0.141815395512
20
-0.579117571666
30
0
40
0.359031832534
50
30.0113188498
51
100.999987526
0
ARC
8
drawinglayer
10
0.0936796614279
20
-0.590655829085
30
0
40
0.371478887285
50
103.006141949
51
150.000025715
0
ARC
8
drawinglayer
10
0.111518451187
20
-0.521405472417
30
0
40
0.325678276726
50
30.0113188498
51
150.000025715
0
ARC
8
drawinglayer
10
0.134035812859
20
-0.485651581672
30
0
40
0.334981308953
50
30.0113188498
51
103.000011301
0
ARC
8
drawinglayer
10
0.0977380311912
20
-0.388261807168
30
0
40
0.307507880001
50
140.019215515
51
150.000025715
0
ARC
8
drawinglayer
10
0.0977380311912
20
-0.388261807168
30
0
40
0.307507880001
50
114.006931616
51
137.999997653
0
ARC
8
drawinglayer
10
0.0977380311912
20
-0.388261807168
30
0
40
0.307507880001
50
30.0113188498
51
110.000008572
0
ARC
8
drawinglayer
10
0.0325751812999
20
-1.63060857162
30
0
40
0.879108102136
50
30.0113188498
51
145.999978164
0
ARC
8
drawinglayer
10
0.120362228579
20
-0.371852118556
30
0
40
0.330743954677
50
59.0029832834
51
103.000011301
0
ARC
8
drawinglayer
10
0.120362228579
20
-0.371852118556
30
0
40
0.330743954677
50
30.0113188498
51
55.9999968876
0
ARC
8
drawinglayer
10
0.0733142763389
20
-0.39388941324
30
0
40
0.344624273005
50
136.982539201
51
150.000025715
0
ARC
8
drawinglayer
10
0.0733142763389
20
-0.39388941324
30
0
40
0.344624273005
50
112.001579333
51
134.999990638
0
ARC
8
drawinglayer
10
0.0733142763389
20
-0.39388941324
30
0
40
0.344624273005
50
103.980170201
51
107.999984796
0
ARC
8
drawinglayer
10
0.0877731725109
20
-0.323280716743
30
0
40
0.317947255762
50
138.987891484
51
150.000025715
0
ARC
8
drawinglayer
10
0.0877731725109
20
-0.323280716743
30
0
40
0.317947255762
50
114.006931616
51
135.999973878
0
ARC
8
drawinglayer
10
0.0877731725109
20
-0.323280716743
30
0
40
0.317947255762
50
59.0029832834
51
109.000025332
0
ARC
8
drawinglayer
10
0.0877731725109
20
-0.323280716743
30
0
40
0.317947255762
50
30.0113188498
51
53.9999731121
0
ARC
8
drawinglayer
10
0.103926177907
20
-0.295138523954
30
0
40
0.334737113028
50
116.986312151
51
134.000007398
0
ARC
8
drawinglayer
10
0.103926177907
20
-0.295138523954
30
0
40
0.334737113028
50
67.0243924153
51
110.000008572
0
ARC
8
drawinglayer
10
0.103926177907
20
-0.295138523954
30
0
40
0.334737113028
50
30.0113188498
51
58.000020663
0
ARC
8
drawinglayer
10
0.0695916759714
20
-0.340027562227
30
0
40
0.36978061563
50
136.008510949
51
150.000025715
0
ARC
8
drawinglayer
10
-0.0694307286577
20
-1.95928379833
30
0
40
0.996384582219
50
41.986136768
51
51.0000233926
0
ARC
8
drawinglayer
10
0.0738123805252
20
-0.249830467673
30
0
40
0.327748392174
50
136.982539201
51
150.000025715
0
ARC
8
drawinglayer
10
0.0738123805252
20
-0.249830467673
30
0
40
0.327748392174
50
116.012283899
51
131.000000383
0
ARC
8
drawinglayer
10
0.0738123805252
20
-0.249830467673
30
0
40
0.327748392174
50
68.9724489187
51
107.000001556
0
ARC
8
drawinglayer
10
0.0738123805252
20
-0.249830467673
30
0
40
0.327748392174
50
30.0113188498
51
56.9999801274
0
ARC
8
drawinglayer
10
0.0869920230488
20
-0.207312627323
30
0
40
0.332435288947
50
118.991664434
51
128.999976607
0
ARC
8
drawinglayer
10
0.0869920230488
20
-0.207312627323
30
0
40
0.332435288947
50
78.9992103335
51
107.000001556
0
ARC
8
drawinglayer
10
0.0869920230488
20
-0.207312627323
30
0
40
0.332435288947
50
30.0113188498
51
59.9999871427
0
ARC
8
drawinglayer
10
0.0511368464941
20
-0.244319409656
30
0
40
0.3672720575
50
134.003158666
51
150.000025715
0
ARC
8
drawinglayer
10
0.0554824239637
20
-0.15578867479
30
0
40
0.31387917366
50
136.982539201
51
150.000025715
0
ARC
8
drawinglayer
10
0.0554824239637
20
-0.15578867479
30
0
40
0.31387917366
50
118.017636182
51
126.000026888
0
ARC
8
drawinglayer
10
0.0554824239637
20
-0.15578867479
30
0
40
0.31387917366
50
79.9732385852
51
104.999977781
0
ARC
8
drawinglayer
10
0.0554824239637
20
-0.15578867479
30
0
40
0.31387917366
50
30.0113188498
51
58.000020663
0
ARC
8
drawinglayer
10
0.0659870111355
20
-0.100483847862
30
0
40
0.306030217164
50
120.022988465
51
126.000026888
0
ARC
8
drawinglayer
10
0.0659870111355
20
-0.100483847862
30
0
40
0.306030217164
50
85.0152671824
51
107.999984796
0
ARC
8
drawinglayer
10
0.0659870111355
20
-0.100483847862
30
0
40
0.306030217164
50
30.0113188498
51
62.0000109182
0
ARC
8
drawinglayer
10
0.0282462535524
20
-0.127903165216
30
0
40
0.338497175271
50
134.003158666
51
150.000025715
0
ARC
8
drawinglayer
10
0.0340528441367
20
-0.0476154302687
30
0
40
0.277765926413
50
138.987891484
51
150.000025715
0
ARC
8
drawinglayer
10
0.0340528441367
20
-0.0476154302687
30
0
40
0.277765926413
50
118.017636182
51
124.000003112
0
ARC
8
drawinglayer
10
0.0340528441367
20
-0.0476154302687
30
0
40
0.277765926413
50
81.9785908682
51
104.999977781
0
ARC
8
drawinglayer
10
0.0340528441367
20
-0.0476154302687
30
0
40
0.277765926413
50
30.0113188498
51
58.000020663
0
ARC
8
drawinglayer
10
0.0426343884054
20
0.0165914480784
30
0
40
0.257686361554
50
120.022988465
51
124.000003112
0
ARC
8
drawinglayer
10
0.0426343884054
20
0.0165914480784
30
0
40
0.257686361554
50
89.0259717483
51
110.000008572
0
ARC
8
drawinglayer
10
0.0426343884054
20
0.0165914480784
30
0
40
0.257686361554
50
30.0113188498
51
68.0000249488
0
ARC
8
drawinglayer
10
0.00279854079061
20
-0.000320507150535
30
0
40
0.285814679574
50
131.023778131
51
150.000025715
0
ARC
8
drawinglayer
10
0.0112787992498
20
0.0658219013913
30
0
40
0.222369526014
50
138.987891484
51
150.000025715
0
ARC
8
drawinglayer
10
0.0112787992498
20
0.0658219013913
30
0
40
0.222369526014
50
116.986312151
51
123.000019873
0
ARC
8
drawinglayer
10
0.0112787992498
20
0.0658219013913
30
0
40
0.222369526014
50
83.0099148994
51
107.000001556
0
ARC
8
drawinglayer
10
0.0112787992498
20
0.0658219013913
30
0
40
0.222369526014
50
30.0113188498
51
62.0000109182
0
ARC
8
drawinglayer
10
0.0188474854237
20
0.134314695704
30
0
40
0.191367743453
50
92.9793805347
51
116.000022602
0
ARC
8
drawinglayer
10
0.0188474854237
20
0.134314695704
30
0
40
0.191367743453
50
59.9770115351
51
76.9999886989
0
ARC
8
drawinglayer
10
-0.0231236890512
20
0.127968376628
30
0
40
0.213543785821
50
118.991664434
51
150.000025715
0
ARC
8
drawinglayer
10
-0.0109721668677
20
0.175223062918
30
0
40
0.152231184166
50
140.019215515
51
150.000025715
0
ARC
8
drawinglayer
10
-0.0109721668677
20
0.175223062918
30
0
40
0.152231184166
50
118.991664434
51
127.000010128
0
ARC
8
drawinglayer
10
-0.0109721668677
20
0.175223062918
30
0
40
0.152231184166
50
78.9992103335
51
110.999991811
0
ARC
8
drawinglayer
10
-0.0109721668677
20
0.175223062918
30
0
40
0.152231184166
50
48.9762218686
51
59.9999871427
0
ARC
8
drawinglayer
10
-0.00342290536957
20
0.243037381054
30
0
40
0.112509109653
50
54.9922787175
51
59.9999871427
0
ARC
8
drawinglayer
10
-0.0473920464971
20
0.246447799132
30
0
40
0.127609020126
50
140.993243767
51
150.000025715
0
ARC
8
drawinglayer
10
0.0749029373232
20
-1.33761369939
30
0
40
0.794632962079
50
96.0160568489
51
150.000025715
0
ARC
8
drawinglayer
10
0.091753843571
20
-1.25372407456
30
0
40
0.73130158162
50
50.0075458999
51
150.000025715
0
ARC
8
drawinglayer
10
0.137239496887
20
-1.23240965531
30
0
40
0.73048435776
50
30.0113188498
51
86.0000097449
0
ARC
8
drawinglayer
10
0.0983263213722
20
-1.19132785349
30
0
40
0.721308973402
50
107.990874767
51
150.000025715
0
ARC
8
drawinglayer
10
0.11780927119
20
-1.17432016236
30
0
40
0.681140131345
50
30.0113188498
51
150.000025715
0
ARC
8
drawinglayer
10
0.138466026415
20
-1.13898251467
30
0
40
0.689657851679
50
30.0113188498
51
63.9999773979
0
ARC
8
drawinglayer
10
0.0979378278564
20
-1.10777677301
30
0
40
0.660551362485
50
81.9785908682
51
150.000025715
0
ARC
8
drawinglayer
10
0.141727984471
20
-1.09033896406
30
0
40
0.635629503446
50
30.0113188498
51
118.999972322
0
ARC
8
drawinglayer
10
0.108550638222
20
-2.15716990799
30
0
40
1.01318137687
50
30.0113188498
51
150.000025715
0
ARC
8
drawinglayer
10
0.00452039955171
20
-1.92159715234
30
0
40
0.879284311695
50
30.0113188498
51
150.000025715
0
ARC
8
drawinglayer
10
-0.113939598277
20
-2.19168616939
30
0
40
1.02050586712
50
30.0113188498
51
150.000025715
0
ARC
8
drawinglayer
10
0.101360733226
20
-1.7809638871
30
0
40
0.842203993089
50
30.0113188498
51
150.000025715
0
ARC
8
drawinglayer
10
0.171530987041
20
-1.84879069253
30
0
40
0.891599556146
50
30.0113188498
51
150.000025715
0
ARC
8
drawinglayer
10
0.220812776997
20
-1.60749043248
30
0
40
0.796464431511
50
30.0113188498
51
150.000025715
0
ARC
8
drawinglayer
10
-0.0619244789417
20
-2.30947185347
30
0
40
1.08745439971
50
30.0113188498
51
150.000025715
0
ARC
8
drawinglayer
10
-0.232399596105
20
-2.46177379896
30
0
40
1.16172603507
50
30.0113188498
51
150.000025715
0
ARC
8
drawinglayer
10
0.317653110671
20
-1.46685716724
30
0
40
0.759384112905
50
30.0113188498
51
150.000025715
0
ARC
8
drawinglayer
10
0.365887355611
20
-1.48062371246
30
0
40
0.778574305108
50
30.0113188498
51
150.000025715
0
ARC
8
drawinglayer
10
0.437106541919
20
-1.29338371262
30
0
40
0.713644551326
50
30.0113188498
51
150.000025715
0
ARC
8
drawinglayer
10
0.272827896332
20
-1.72527750404
30
0
40
0.863412964098
50
30.0113188498
51
150.000025715
0
ARC
8
drawinglayer
10
0.179769824529
20
-1.96992990814
30
0
40
0.948251623088
50
30.0113188498
51
150.000025715
0
ARC
8
drawinglayer
10
0.24943226182
20
-1.66364717019
30
0
40
0.876822927777
50
85.0152671824
51
150.000025715
0
ARC
8
drawinglayer
10
0.24943226182
20
-1.66364717019
30
0
40
0.876822927777
50
30.0113188498
51
35.9999883161
0
ARC
8
drawinglayer
10
0.187332960796
20
-1.88118688932
30
0
40
0.936928424579
50
125.981749534
51
150.000025715
0
ARC
8
drawinglayer
10
0.187332960796
20
-1.88118688932
30
0
40
0.936928424579
50
30.0113188498
51
36.9999715559
0
ARC
8
drawinglayer
10
-0.085320113454
20
-2.24784013214
30
0
40
1.10086297591
50
85.0152671824
51
134.000007398
0
ARC
8
drawinglayer
10
0.168121956439
20
-1.82406446772
30
0
40
0.947520422792
50
85.0152671824
51
150.000025715
0
ARC
8
drawinglayer
10
0.168121956439
20
-1.82406446772
30
0
40
0.947520422792
50
30.0113188498
51
36.9999715559
0
ARC
8
drawinglayer
10
0.0617579817207
20
-2.03390785281
30
0
40
1.03999991675
50
85.0152671824
51
148.999985179
0
ARC
8
drawinglayer
10
0.0617579817207
20
-2.03390785281
30
0
40
1.03999991675
50
30.0113188498
51
38.0000120915
0
ARC
8
drawinglayer
10
-0.446932652915
20
-0.603181970016
30
0
40
0.579715574185
50
98.9954373836
51
150.000025715
0
ARC
8
drawinglayer
10
-0.446932652915
20
-0.603181970016
30
0
40
0.579715574185
50
79.9732385852
51
94.999973495
0
ARC
8
drawinglayer
10
-0.446932652915
20
-0.603181970016
30
0
40
0.579715574185
50
45.996841334
51
75.0000222193
0
ARC
8
drawinglayer
10
-0.446932652915
20
-0.603181970016
30
0
40
0.579715574185
50
30.0113188498
51
44.0000261221
0
ARC
8
drawinglayer
10
-0.351797528279
20
-0.509273374909
30
0
40
0.41956189725
50
83.9839431511
51
150.000025715
0
ARC
8
drawinglayer
10
-0.351797528279
20
-0.509273374909
30
0
40
0.41956189725
50
30.0113188498
51
80.9999789541
0
ARC
8
drawinglayer
10
-0.475926756485
20
-0.296217980937
30
0
40
0.39202186941
50
89.0259717483
51
150.000025715
0
ARC
8
drawinglayer
10
-0.475926756485
20
-0.296217980937
30
0
40
0.39202186941
50
70.9778012017
51
76.0000054591
0
ARC
8
drawinglayer
10
-0.475926756485
20
-0.296217980937
30
0
40
0.39202186941
50
39.9807844851
51
55.9999968876
0
ARC
8
drawinglayer
10
-0.475926756485
20
-0.296217980937
30
0
40
0.39202186941
50
30.0113188498
51
35.0000050762
0
ARC
8
drawinglayer
10
-0.248920282865
20
-0.655231776272
30
0
40
0.481562687418
50
30.0113188498
51
150.000025715
0
ARC
8
drawinglayer
10
-0.264652882778
20
-0.733386959313
30
0
40
0.56755572714
50
37.9754322021
51
150.000025715
0
ARC
8
drawinglayer
10
-0.122023038359
20
-0.835269383832
30
0
40
0.55803902348
50
41.986136768
51
150.000025715
0
ARC
8
drawinglayer
10
-0.523495012541
20
-0.343171584752
30
0
40
0.472098707878
50
83.0099148994
51
150.000025715
0
ARC
8
drawinglayer
10
-0.523495012541
20
-0.343171584752
30
0
40
0.472098707878
50
68.9724489187
51
69.9999914285
0
ARC
8
drawinglayer
10
-0.523495012541
20
-0.343171584752
30
0
40
0.472098707878
50
43.991489051
51
55.0000136477
0
ARC
8
drawinglayer
10
-0.523495012541
20
-0.343171584752
30
0
40
0.472098707878
50
30.0113188498
51
38.0000120915
0
ARC
8
drawinglayer
10
-0.600055984691
20
-0.0831639744413
30
0
40
0.364483229047
50
54.0182504658
51
150.000025715
0
ARC
8
drawinglayer
10
-0.600055984691
20
-0.0831639744413
30
0
40
0.364483229047
50
34.9960516674
51
36.9999715559
0
ARC
8
drawinglayer
10
-0.0191471804216
20
-0.981227785195
30
0
40
0.620039813648
50
54.0182504658
51
150.000025715
0
ARC
8
drawinglayer
10
-0.0124859041025
20
-1.04029406184
30
0
40
0.671198859772
50
61.0083355664
51
150.000025715
0
ARC
8
drawinglayer
10
-0.0124859041025
20
-1.04029406184
30
0
40
0.671198859772
50
30.0113188498
51
39.9999785712
0
ARC
8
drawinglayer
10
-0.169591294415
20
-0.882224375124
30
0
40
0.638115861947
50
48.9762218686
51
150.000025715
0
ARC
8
drawinglayer
10
-0.169591294415
20
-0.882224375124
30
0
40
0.638115861947
50
30.0113188498
51
41.0000191068
0
ARC
8
drawinglayer
10
-0.326696684728
20
-0.724154688406
30
0
40
0.6050342516
50
87.0206194653
51
150.000025715
0
ARC
8
drawinglayer
10
-0.326696684728
20
-0.724154688406
30
0
40
0.6050342516
50
39.0067562334
51
85.000026505
0
ARC
8
drawinglayer
10
-0.326696684728
20
-0.724154688406
30
0
40
0.6050342516
50
30.0113188498
51
31.9999980609
0
ARC
8
drawinglayer
10
-0.0942929261921
20
-0.845520062742
30
0
40
0.622497035135
50
56.9976310005
51
133.000024158
0
ARC
8
drawinglayer
10
-0.0942929261921
20
-0.845520062742
30
0
40
0.622497035135
50
30.0113188498
51
48.0000163773
0
ARC
8
drawinglayer
10
-0.249733344294
20
-0.738700995619
30
0
40
0.603639837374
50
90.9740282517
51
110.000008572
0
ARC
8
drawinglayer
10
-0.249733344294
20
-0.738700995619
30
0
40
0.603639837374
50
43.0174607993
51
89.0000167602
0
ARC
8
drawinglayer
10
-0.249733344294
20
-0.738700995619
30
0
40
0.603639837374
50
30.0113188498
51
35.9999883161
0
ARC
8
drawinglayer
10
-0.448196644318
20
-0.306470047323
30
0
40
0.456481268542
50
87.994647717
51
134.999990638
0
ARC
8
drawinglayer
10
-0.448196644318
20
-0.306470047323
30
0
40
0.456481268542
50
45.996841334
51
58.000020663
0
ARC
8
drawinglayer
10
-0.448196644318
20
-0.306470047323
30
0
40
0.456481268542
50
30.0113188498
51
38.9999953314
0
ARC
8
drawinglayer
10
-0.18183022764
20
-0.70872178349
30
0
40
0.590428282883
50
94.0107045659
51
134.000007398
0
ARC
8
drawinglayer
10
-0.18183022764
20
-0.70872178349
30
0
40
0.590428282883
50
48.0021936169
51
92.0000237755
0
ARC
8
drawinglayer
10
-0.18183022764
20
-0.70872178349
30
0
40
0.590428282883
50
30.0113188498
51
39.9999785712
0
ARC
8
drawinglayer
10
-0.296337303945
20
-0.529774732729
30
0
40
0.548477920561
50
107.016846515
51
134.000007398
0
ARC
8
drawinglayer
10
-0.296337303945
20
-0.529774732729
30
0
40
0.548477920561
50
87.0206194653
51
102.000028061
0
ARC
8
drawinglayer
10
-0.296337303945
20
-0.529774732729
30
0
40
0.548477920561
50
50.9815741516
51
80.9999789541
0
ARC
8
drawinglayer
10
-0.296337303945
20
-0.529774732729
30
0
40
0.548477920561
50
34.0220234157
51
46.9999758417
0
ARC
8
drawinglayer
10
0.0125108786856
20
0.271909386662
30
0
40
0.0753413800053
50
30.0113188498
51
109.000025332
0
ARC
8
drawinglayer
10
0.015847760491
20
0.298546167078
30
0
40
0.10089315353
50
30.0113188498
51
76.0000054591
0
ARC
8
drawinglayer
10
-0.0800865508054
20
0.282769167906
30
0
40
0.102731560346
50
145.977976584
51
148.000001939
0
ARC
8
drawinglayer
10
-0.0543821548278
20
0.263573425795
30
0
40
0.0635048150649
50
30.0113188498
51
150.000025715
0
ARC
8
drawinglayer
10
-0.310546454286
20
0.370289819631
30
0
40
0.152988746522
50
149.98868115
51
150.000025715
0
ARC
8
drawinglayer
10
-0.310546454286
20
0.370289819631
30
0
40
0.152988746522
50
30.0113188498
51
123.000019873
0
ARC
8
drawinglayer
10
-0.2663830664
20
0.44218054473
30
0
40
0.154002992094
50
30.0113188498
51
150.000025715
0
ARC
8
drawinglayer
10
-0.165233229654
20
0.36838342645
30
0
40
0.124639819684
50
30.0113188498
51
148.000001939
0
ARC
8
drawinglayer
10
-0.356902055582
20
0.473136540555
30
0
40
0.157703392832
50
30.0113188498
51
150.000025715
0
ARC
8
drawinglayer
10
-0.468559254453
20
0.511318515774
30
0
40
0.162269579119
50
30.0113188498
51
150.000025715
0
ARC
8
drawinglayer
10
-0.559078243635
20
0.542274511599
30
0
40
0.165969979857
50
30.0113188498
51
150.000025715
0
ARC
8
drawinglayer
10
-0.670734055029
20
0.580456486818
30
0
40
0.170536166145
50
30.0113188498
51
150.000025715
0
ARC
8
drawinglayer
10
-0.388622551147
20
0.415846234266
30
0
40
0.156793208023
50
30.0113188498
51
150.000025715
0
ARC
8
drawinglayer
10
-0.502979779953
20
0.485412935655
30
0
40
0.140530591957
50
30.0113188498
51
150.000025715
0
ARC
8
drawinglayer
10
-0.199653755154
20
0.342475071377
30
0
40
0.102902219998
50
30.0113188498
51
110.999991811
0
ARC
8
drawinglayer
10
-0.430299580531
20
0.444234010457
30
0
40
0.127531321423
50
30.0113188498
51
150.000025715
0
ARC
8
drawinglayer
10
-0.335225504877
20
0.390367997014
30
0
40
0.110526405245
50
30.0113188498
51
80.9999789541
0
ARC
8
drawinglayer
10
-0.0497063578698
20
0.431177853372
30
0
40
0.229580243162
50
32.9906993845
51
124.000003112
0
ARC
8
drawinglayer
10
0.0301720714093
20
0.470676544114
30
0
40
0.202549419324
50
39.0067562334
51
150.000025715
0
ARC
8
drawinglayer
10
-0.00424567913696
20
0.385854534847
30
0
40
0.152890235666
50
30.0113188498
51
150.000025715
0
ARC
8
drawinglayer
10
0.0089811375992
20
0.526886005943
30
0
40
0.235188424558
50
30.0113188498
51
148.999985179
0
ARC
8
drawinglayer
10
-0.0171589261068
20
0.596220998699
30
0
40
0.275448840087
50
30.0113188498
51
147.000018699
0
ARC
8
drawinglayer
10
-0.0383512473937
20
0.652430460528
30
0
40
0.308087845321
50
30.0113188498
51
147.000018699
0
ARC
8
drawinglayer
10
-0.0644913110997
20
0.721765453283
30
0
40
0.34834826085
50
149.98868115
51
150.000025715
0
ARC
8
drawinglayer
10
-0.0644913110997
20
0.721765453283
30
0
40
0.34834826085
50
30.0113188498
51
145.999978164
0
ARC
8
drawinglayer
10
-0.0529114293752
20
0.494167914529
30
0
40
0.255324875968
50
30.0113188498
51
130.000017143
0
ARC
8
drawinglayer
10
-0.0798243176822
20
0.5960711512
30
0
40
0.276020480546
50
30.0113188498
51
140.000021429
0
ARC
8
drawinglayer
10
-0.0669096832356
20
0.385706074825
30
0
40
0.153460488649
50
30.0113188498
51
124.999986352
0
ARC
8
drawinglayer
10
-0.0864675568024
20
0.541615460099
30
0
40
0.244682928589
50
30.0113188498
51
131.999983623
0
ARC
8
drawinglayer
10
-0.0951573242648
20
0.47037962407
30
0
40
0.203691312765
50
30.0113188498
51
109.000025332
0
ARC
8
drawinglayer
10
0.152909660342
20
0.382915858895
30
0
40
0.215548689858
50
30.0113188498
51
150.000025715
0
ARC
8
drawinglayer
10
0.216897317348
20
0.515238137853
30
0
40
0.0889386530583
50
30.0113188498
51
150.000025715
0
ARC
8
drawinglayer
10
0.0992226314123
20
0.398330726611
30
0
40
0.100673932189
50
30.0113188498
51
150.000025715
0
ARC
8
drawinglayer
10
0.260369741766
20
0.600888470796
30
0
40
0.0961618574985
50
30.0113188498
51
150.000025715
0
ARC
8
drawinglayer
10
0.243280189502
20
0.564472753597
30
0
40
0.153568711842
50
30.0113188498
51
150.000025715
0
ARC
8
drawinglayer
10
0.313995721715
20
0.706537894941
30
0
40
0.105070846302
50
30.0113188498
51
150.000025715
0
ARC
8
drawinglayer
10
0.0672288029093
20
0.33217028087
30
0
40
0.163977563112
50
30.0113188498
51
150.000025715
0
ARC
8
drawinglayer
10
0.357468146133
20
0.792186840407
30
0
40
0.112294050742
50
30.0113188498
51
150.000025715
0
ARC
8
drawinglayer
10
0.411094126082
20
0.897836264552
30
0
40
0.121203039546
50
30.0113188498
51
150.000025715
0
ARC
8
drawinglayer
10
0.282001893212
20
0.640376061723
30
0
40
0.168375864702
50
30.0113188498
51
150.000025715
0
ARC
8
drawinglayer
10
0.208874926247
20
0.494534208415
30
0
40
0.195097281204
50
30.0113188498
51
150.000025715
0
ARC
8
drawinglayer
10
0.265533930573
20
0.716115647582
30
0
40
0.128481743059
50
30.0113188498
51
150.000025715
0
ARC
8
drawinglayer
10
0.0507608402699
20
0.407908479253
30
0
40
0.124084828947
50
30.0113188498
51
150.000025715
0
ARC
8
drawinglayer
10
0.202468945667
20
0.637383274175
30
0
40
0.131635477922
50
30.0113188498
51
150.000025715
0
ARC
8
drawinglayer
10
0.119973735063
20
0.534392255659
30
0
40
0.13576183405
50
30.0113188498
51
150.000025715
0
ARC
8
drawinglayer
10
0.251340042478
20
0.339883264636
30
0
40
0.154933989055
50
30.0113188498
51
150.000025715
0
ARC
8
drawinglayer
10
0.282014380504
20
0.347599023355
30
0
40
0.0949686274143
50
30.0113188498
51
150.000025715
0
ARC
8
drawinglayer
10
0.137054962467
20
0.320036795886
30
0
40
0.095656815928
50
30.0113188498
51
150.000025715
0
ARC
8
drawinglayer
10
0.360682929976
20
0.383742795093
30
0
40
0.112720006133
50
30.0113188498
51
150.000025715
0
ARC
8
drawinglayer
10
0.457721672839
20
0.428325200985
30
0
40
0.134617165655
50
30.0113188498
51
150.000025715
0
ARC
8
drawinglayer
10
0.536390222312
20
0.464467585246
30
0
40
0.152368544374
50
30.0113188498
51
150.000025715
0
ARC
8
drawinglayer
10
0.633427577698
20
0.509051378614
30
0
40
0.17426431642
50
30.0113188498
51
150.000025715
0
ARC
8
drawinglayer
10
0.334162697616
20
0.376552890097
30
0
40
0.159124169118
50
30.0113188498
51
150.000025715
0
ARC
8
drawinglayer
10
0.433998593792
20
0.453283134421
30
0
40
0.161209546812
50
30.0113188498
51
150.000025715
0
ARC
8
drawinglayer
10
0.113333270897
20
0.344994729322
30
0
40
0.122249197084
50
30.0113188498
51
150.000025715
0
ARC
8
drawinglayer
10
0.347594860925
20
0.429121612692
30
0
40
0.155552803726
50
30.0113188498
51
150.000025715
0
ARC
8
drawinglayer
10
0.234569609887
20
0.397516277705
30
0
40
0.148153389727
50
30.0113188498
51
148.999985179
0
ARC
8
drawinglayer
10
-0.116688189901
20
0.132818995668
30
0
40
0.0373175771463
50
210.01131885
51
330.000025715
0
ARC
8
drawinglayer
10
-0.189151942936
20
0.300163965076
30
0
40
0.131770063175
50
210.01131885
51
330.000025715
0
ARC
8
drawinglayer
10
-0.116177598423
20
0.27806145898
30
0
40
0.0225284614859
50
210.01131885
51
330.000025715
0
ARC
8
drawinglayer
10
-0.195439987984
20
0.304139086229
30
0
40
0.206409379898
50
210.01131885
51
330.000025715
0
ARC
8
drawinglayer
10
-0.165219354886
20
0.231683658055
30
0
40
0.183832356723
50
225.996841334
51
330.000025715
0
ARC
8
drawinglayer
10
-0.203194596055
20
0.309043816866
30
0
40
0.298478180713
50
210.01131885
51
330.000025715
0
ARC
8
drawinglayer
10
-0.0799450281675
20
0.194389668015
30
0
40
0.0246970877902
50
74.9885057676
51
150.000025715
0
ARC
8
drawinglayer
10
-0.0799450281675
20
0.194389668015
30
0
40
0.0246970877902
50
30.0113188498
51
72.9999984438
0
ARC
8
drawinglayer
10
-0.209482641104
20
0.313020325495
30
0
40
0.373118884913
50
210.01131885
51
330.000025715
0
ARC
8
drawinglayer
10
-0.217237249175
20
0.317925056132
30
0
40
0.465187685727
50
210.01131885
51
330.000025715
0
ARC
8
drawinglayer
10
-0.166963413276
20
0.2253720259
30
0
40
0.251252631437
50
210.01131885
51
330.000025715
0
ARC
8
drawinglayer
10
-0.138484063614
20
0.172943438466
30
0
40
0.130064854136
50
210.01131885
51
330.000025715
0
ARC
8
drawinglayer
10
-0.14367045205
20
0.290902557155
30
0
40
0.300517771671
50
210.01131885
51
330.000025715
0
ARC
8
drawinglayer
10
-0.0566534544184
20
0.259920199269
30
0
40
0.0245680524438
50
210.01131885
51
330.000025715
0
ARC
8
drawinglayer
10
-0.111797334033
20
0.279197802514
30
0
40
0.229175099924
50
210.01131885
51
330.000025715
0
ARC
8
drawinglayer
10
-0.0701036549262
20
0.263882833131
30
0
40
0.135849245091
50
210.01131885
51
330.000025715
0
ARC
8
drawinglayer
10
0.267247464473
20
0.232258073468
30
0
40
0.0545680767247
50
30.0113188498
51
150.000025715
0
ARC
8
drawinglayer
10
0.242333930295
20
0.354053565625
30
0
40
0.0827061070834
50
210.01131885
51
330.000025715
0
ARC
8
drawinglayer
10
0.118390623986
20
0.310314745653
30
0
40
0.00691379710441
50
30.0113188498
51
150.000025715
0
ARC
8
drawinglayer
10
0.339027191424
20
0.397449678816
30
0
40
0.120759046956
50
210.01131885
51
330.000025715
0
ARC
8
drawinglayer
10
0.374430050528
20
0.354963750433
30
0
40
0.0701272420325
50
210.01131885
51
330.000025715
0
ARC
8
drawinglayer
10
0.458298863206
20
0.450978535386
30
0
40
0.167698776003
50
210.01131885
51
330.000025715
0
ARC
8
drawinglayer
10
0.130848778552
20
0.249418387051
30
0
40
0.0755508890084
50
30.0113188498
51
150.000025715
0
ARC
8
drawinglayer
10
0.554992124335
20
0.494374648578
30
0
40
0.205751715875
50
210.01131885
51
330.000025715
0
ARC
8
drawinglayer
10
0.674265183593
20
0.547903505148
30
0
40
0.252690057445
50
210.01131885
51
330.000025715
0
ARC
8
drawinglayer
10
0.470757017771
20
0.390082176785
30
0
40
0.0990616840986
50
243.987716101
51
330.000025715
0
ARC
8
drawinglayer
10
0.470757017771
20
0.390082176785
30
0
40
0.0990616840986
50
210.01131885
51
242.000010918
0
ARC
8
drawinglayer
10
0.355475729388
20
0.300680106461
30
0
40
0.0120349741288
50
210.01131885
51
330.000025715
0
ARC
8
drawinglayer
10
0.480064212428
20
0.468883924034
30
0
40
0.135850632568
50
210.01131885
51
330.000025715
0
ARC
8
drawinglayer
10
0.140155973209
20
0.328220134301
30
0
40
0.038761940539
50
30.0113188498
51
150.000025715
0
ARC
8
drawinglayer
10
0.395926229244
20
0.434646545478
30
0
40
0.0852285399824
50
210.01131885
51
330.000025715
0
ARC
8
drawinglayer
10
0.285863241264
20
0.38986434292
30
0
40
0.0190112076911
50
210.01131885
51
330.000025715
0
ARC
8
drawinglayer
10
-0.252183628398
20
0.186592048162
30
0
40
0.0177305665658
50
245.019040132
51
330.000025715
0
ARC
8
drawinglayer
10
-0.30651999649
20
0.256749814685
30
0
40
0.0223702891259
50
210.01131885
51
330.000025715
0
ARC
8
drawinglayer
10
-0.181640143312
20
0.266489902117
30
0
40
0.0279562708924
50
30.0113188498
51
150.000025715
0
ARC
8
drawinglayer
10
-0.358110547911
20
0.233827309776
30
0
40
0.0678490050577
50
210.01131885
51
330.000025715
0
ARC
8
drawinglayer
10
-0.421745785799
20
0.205554694164
30
0
40
0.123948856216
50
210.01131885
51
330.000025715
0
ARC
8
drawinglayer
10
-0.473336337221
20
0.182633576731
30
0
40
0.169427572148
50
210.01131885
51
330.000025715
0
ARC
8
drawinglayer
10
-0.536971575109
20
0.154360961119
30
0
40
0.225527423306
50
210.01131885
51
330.000025715
0
ARC
8
drawinglayer
10
-0.313915248058
20
0.179604714785
30
0
40
0.0627736147691
50
230.981574152
51
330.000025715
0
ARC
8
drawinglayer
10
-0.378192887724
20
0.18109625239
30
0
40
0.141142469244
50
219.980784485
51
330.000025715
0
ARC
8
drawinglayer
10
-0.138087245238
20
0.242031460344
30
0
40
0.0107626578645
50
67.0243924153
51
150.000025715
0
ARC
8
drawinglayer
10
-0.309401785891
20
0.192680296545
30
0
40
0.104582454453
50
228.976221869
51
330.000025715
0
ARC
8
drawinglayer
10
-0.219415587817
20
0.207831543662
30
0
40
0.0567575151816
50
256.019829799
51
330.000025715
0
ARC
8
drawinglayer
10
-0.198561810879
20
0.388407492236
30
0
40
0.225317914303
50
30.0113188498
51
141.000004669
0
ARC
8
drawinglayer
10
-0.125522254955
20
0.559881592726
30
0
40
0.137637702741
50
30.0113188498
51
150.000025715
0
ARC
8
drawinglayer
10
-0.0895449804383
20
0.420603892358
30
0
40
0.125189260513
50
30.0113188498
51
150.000025715
0
ARC
8
drawinglayer
10
-0.188048898846
20
0.638591766504
30
0
40
0.139236076063
50
30.0113188498
51
150.000025715
0
ARC
8
drawinglayer
10
-0.235933499622
20
0.583231440503
30
0
40
0.178131214379
50
30.0113188498
51
134.999990638
0
ARC
8
drawinglayer
10
-0.265175961547
20
0.735679071057
30
0
40
0.141207680656
50
30.0113188498
51
150.000025715
0
ARC
8
drawinglayer
10
-0.1260647584
20
0.334866148375
30
0
40
0.169029366294
50
30.0113188498
51
137.000014413
0
ARC
8
drawinglayer
10
-0.327702605439
20
0.814389244835
30
0
40
0.142806053978
50
30.0113188498
51
150.000025715
0
ARC
8
drawinglayer
10
-0.40482966814
20
0.91147932434
30
0
40
0.144776271094
50
30.0113188498
51
150.000025715
0
ARC
8
drawinglayer
10
-0.30169573951
20
0.64994271455
30
0
40
0.185047786437
50
30.0113188498
51
150.000025715
0
ARC
8
drawinglayer
10
-0.243273252117
20
0.501792099776
30
0
40
0.207859293198
50
34.0220234157
51
150.000025715
0
ARC
8
drawinglayer
10
-0.243273252117
20
0.501792099776
30
0
40
0.207859293198
50
30.0113188498
51
31.9999980609
0
ARC
8
drawinglayer
10
-0.320849857315
20
0.714311927687
30
0
40
0.133847116008
50
30.0113188498
51
150.000025715
0
ARC
8
drawinglayer
10
-0.145218876206
20
0.399233974035
30
0
40
0.117830083342
50
30.0113188498
51
150.000025715
0
ARC
8
drawinglayer
10
-0.284464664607
20
0.628886365993
30
0
40
0.129113045023
50
30.0113188498
51
150.000025715
0
ARC
8
drawinglayer
10
-0.236870046491
20
0.517143143558
30
0
40
0.122919348399
50
30.0113188498
51
150.000025715
0
ARC
8
drawinglayer
10
0.186247953905
20
0.177541536721
30
0
40
0.00738831418442
50
210.01131885
51
330.000025715
0
ARC
8
drawinglayer
10
0.127403673553
20
0.197551727738
30
0
40
0.0598418762017
50
210.01131885
51
330.000025715
0
ARC
8
drawinglayer
10
0.0572597817985
20
0.23681315994
30
0
40
0.0100952815034
50
30.0113188498
51
150.000025715
0
ARC
8
drawinglayer
10
0.206367755593
20
0.183004033048
30
0
40
0.0917302564647
50
210.01131885
51
330.000025715
0
ARC
8
drawinglayer
10
0.303768629912
20
0.165058407572
30
0
40
0.131065224939
50
210.01131885
51
330.000025715
0
ARC
8
drawinglayer
10
0.382732711952
20
0.150510712882
30
0
40
0.162954992679
50
210.01131885
51
330.000025715
0
ARC
8
drawinglayer
10
0.48013358627
20
0.132566474883
30
0
40
0.202289961154
50
210.01131885
51
330.000025715
0
ARC
8
drawinglayer
10
0.249952565635
20
0.167791736951
30
0
40
0.0496355965509
50
210.01131885
51
330.000025715
0
ARC
8
drawinglayer
10
0.35077357037
20
0.180315102928
30
0
40
0.110395982422
50
210.01131885
51
330.000025715
0
ARC
8
drawinglayer
10
0.10426333478
20
0.252071242773
30
0
40
0.0307645240209
50
39.0067562334
51
150.000025715
0
ARC
8
drawinglayer
10
0.294727830808
20
0.201003770121
30
0
40
0.0705823344367
50
210.01131885
51
330.000025715
0
ARC
8
drawinglayer
10
0.221413554469
20
0.228063730974
30
0
40
0.0185006162132
50
210.01131885
51
330.000025715
0
ARC
8
drawinglayer
10
-0.354054953102
20
0.283401857346
30
0
40
0.100106454161
50
30.0113188498
51
150.000025715
0
ARC
8
drawinglayer
10
-0.343956896644
20
0.476857753446
30
0
40
0.0289275046819
50
30.0113188498
51
150.000025715
0
ARC
8
drawinglayer
10
-0.206074997979
20
0.373743249492
30
0
40
0.0645204481134
50
30.0113188498
51
150.000025715
0
ARC
8
drawinglayer
10
-0.438535643066
20
0.519560128217
30
0
40
0.0102465164792
50
210.01131885
51
330.000025715
0
ARC
8
drawinglayer
10
-0.46689983215
20
0.445441115309
30
0
40
0.0110873274456
50
30.0113188498
51
135.999973878
0
ARC
8
drawinglayer
10
-0.555198858384
20
0.572234299052
30
0
40
0.0585681724606
50
210.01131885
51
330.000025715
0
ARC
8
drawinglayer
10
-0.211124026208
20
0.277016688918
30
0
40
0.100109229114
50
30.0113188498
51
150.000025715
0
ARC
8
drawinglayer
10
-0.649777604806
20
0.614936673823
30
0
40
0.0977421936217
50
210.01131885
51
330.000025715
0
ARC
8
drawinglayer
10
-0.766439432647
20
0.667610844658
30
0
40
0.146063849603
50
210.01131885
51
330.000025715
0
ARC
8
drawinglayer
10
-0.560247886613
20
0.475504963525
30
0
40
0.0229780039828
50
256.993858051
51
330.000025715
0
ARC
8
drawinglayer
10
-0.560247886613
20
0.475504963525
30
0
40
0.0229780039828
50
210.01131885
51
255.000022219
0
ARC
8
drawinglayer
10
-0.44344592361
20
0.366685154796
30
0
40
0.0467454822887
50
30.0113188498
51
150.000025715
0
ARC
8
drawinglayer
10
-0.560954112325
20
0.533355810458
30
0
40
0.0790917299096
50
210.01131885
51
330.000025715
0
ARC
8
drawinglayer
10
-0.211831639398
20
0.334867535852
30
0
40
0.0439955031876
50
30.0113188498
51
150.000025715
0
ARC
8
drawinglayer
10
-0.471926660749
20
0.475190006282
30
0
40
0.0500768141867
50
210.01131885
51
330.000025715
0
ARC
8
drawinglayer
10
-0.355468792004
20
0.399100776259
30
0
40
0.0121196102161
50
210.01131885
51
330.000025715
0
ENDSEC
0
EOF
