0
SECTION
2
HEADER
9
$ACADVER
1
AC1006
9
$INSBASE
10
0.0
20
0.0
30
0.0
9
$EXTMIN
10
0.0
20
0.0
9
$EXTMAX
10
0.0
20
0.0
0
ENDSEC
0
SECTION
2
TABLES
0
TABLE
2
LTYPE
70
1
0
LTYPE
2
CONTINUOUS
70
64
3
Solid line
72
65
73
0
40
0.0
0
ENDTAB
0
TABLE
2
LAYER
70
1
0
LAYER
2
PYDXF
70
64
62
7
6
continuous
0
ENDTAB
0
TABLE
2
STYLE
70
1
0
STYLE
2
STANDARD
70
0
40
0
41
40
50
50
71
0
42
1
3
ARIAL.TTF
4

0
ENDTAB
0
TABLE
2
VIEW
70
0
0
ENDTAB
0
ENDSEC
0
SECTION
2
BLOCKS
0
ENDSEC
0
SECTION
2
ENTITIES
0
ARC
8
drawinglayer
10
0.234158845765
20
2.22378476852
30
0
40
0.0575613251468
50
31.3864175581
51
103.501177484
0
ARC
8
drawinglayer
10
0.214176426821
20
2.20728962886
30
0
40
0.120633245942
50
31.5010091171
51
48.5623744532
0
ARC
8
drawinglayer
10
0.157965265117
20
2.26726003135
30
0
40
0.0026096730531
50
211.21453022
51
317.255267111
0
ARC
8
drawinglayer
10
-0.261517014711
20
2.35460210442
30
0
40
0.0895466970903
50
115.382030324
51
149.50905818
0
ARC
8
drawinglayer
10
-0.261517014711
20
2.35460210442
30
0
40
0.0895466970903
50
30.8707555425
51
36.8012697926
0
ARC
8
drawinglayer
10
-0.222805900021
20
2.37382071662
30
0
40
0.158549693007
50
121.340791394
51
142.388109519
0
ARC
8
drawinglayer
10
-0.222805900021
20
2.37382071662
30
0
40
0.158549693007
50
31.042642881
51
96.4404466877
0
ARC
8
drawinglayer
10
-0.0535339804795
20
2.31319644926
30
0
40
0.112985534445
50
137.727384334
51
142.713836025
0
ARC
8
drawinglayer
10
-0.0535339804795
20
2.31319644926
30
0
40
0.112985534445
50
31.1572344401
51
103.815272948
0
ARC
8
drawinglayer
10
-0.349983581048
20
2.4342212426
30
0
40
0.137936554855
50
113.147494923
51
142.243552267
0
ARC
8
drawinglayer
10
-0.349983581048
20
2.4342212426
30
0
40
0.137936554855
50
30.8707555425
51
91.1747926631
0
ARC
8
drawinglayer
10
-0.506859071387
20
2.50872326134
30
0
40
0.112511048436
50
102.776958831
51
142.063414336
0
ARC
8
drawinglayer
10
-0.506859071387
20
2.50872326134
30
0
40
0.112511048436
50
30.6415724244
51
87.8251095055
0
ARC
8
drawinglayer
10
-0.634036752413
20
2.56912185852
30
0
40
0.0918998390894
50
93.4950425503
51
141.915877704
0
ARC
8
drawinglayer
10
-0.634036752413
20
2.56912185852
30
0
40
0.0918998390894
50
30.4123893064
51
85.5378619873
0
ARC
8
drawinglayer
10
-0.790910313947
20
2.64362580606
30
0
40
0.0664743326697
50
30.1832061883
51
148.911405904
0
ARC
8
drawinglayer
10
-0.376273192071
20
2.41725161694
30
0
40
0.0845453059398
50
106.100114043
51
149.381460479
0
ARC
8
drawinglayer
10
-0.376273192071
20
2.41725161694
30
0
40
0.0845453059398
50
30.698868204
51
38.6053420021
0
ARC
8
drawinglayer
10
-0.529883215684
20
2.53697253816
30
0
40
0.0406784957058
50
96.7609019825
51
149.285031682
0
ARC
8
drawinglayer
10
-0.529883215684
20
2.53697253816
30
0
40
0.0406784957058
50
30.4696850859
51
59.9743759293
0
ARC
8
drawinglayer
10
-0.0765581247773
20
2.34144765489
30
0
40
0.0411510529105
50
146.837413277
51
149.826763277
0
ARC
8
drawinglayer
10
-0.0765581247773
20
2.34144765489
30
0
40
0.0411510529105
50
30.9853471015
51
35.972715525
0
ARC
8
drawinglayer
10
-0.416791596968
20
2.49076608756
30
0
40
0.02950107121
50
105.011494232
51
149.444886907
0
ARC
8
drawinglayer
10
-0.268856117422
20
2.43032119906
30
0
40
0.0148807299369
50
122.429411204
51
149.652183037
0
ARC
8
drawinglayer
10
0.00746833263977
20
2.16546156543
30
0
40
0.395192839505
50
31.7874880147
51
90.0171887339
0
ARC
8
drawinglayer
10
0.119782642974
20
2.18073770037
30
0
40
0.413163514919
50
31.9593753532
51
123.696908439
0
ARC
8
drawinglayer
10
0.130634099439
20
2.20730120169
30
0
40
0.255773033668
50
31.6728964557
51
127.873885357
0
ARC
8
drawinglayer
10
0.0559083393327
20
2.18597633453
30
0
40
0.494474215013
50
148.097920426
51
149.074928059
0
ARC
8
drawinglayer
10
0.0559083393327
20
2.18597633453
30
0
40
0.494474215013
50
32.0739669123
51
114.636669529
0
ARC
8
drawinglayer
10
-0.0228814127339
20
2.192437831
30
0
40
0.594770141907
50
144.832060994
51
148.782318513
0
ARC
8
drawinglayer
10
-0.0228814127339
20
2.192437831
30
0
40
0.594770141907
50
135.951215169
51
142.858507869
0
ARC
8
drawinglayer
10
-0.0228814127339
20
2.192437831
30
0
40
0.594770141907
50
32.1312626918
51
111.441570384
0
ARC
8
drawinglayer
10
-0.0867576451799
20
2.19767646516
30
0
40
0.676080842
50
127.872510258
51
148.544827506
0
ARC
8
drawinglayer
10
-0.0867576451799
20
2.19767646516
30
0
40
0.676080842
50
32.2458542508
51
110.26190758
0
ARC
8
drawinglayer
10
-0.165547397247
20
2.20413603282
30
0
40
0.7763786977
50
119.793805347
51
148.251530411
0
ARC
8
drawinglayer
10
-0.165547397247
20
2.20413603282
30
0
40
0.7763786977
50
32.3031500303
51
109.041335589
0
ARC
8
drawinglayer
10
-0.0300353501721
20
2.1738441516
30
0
40
0.477820913357
50
142.081863577
51
149.005600165
0
ARC
8
drawinglayer
10
-0.0300353501721
20
2.1738441516
30
0
40
0.477820913357
50
31.9020795737
51
91.8928806678
0
ARC
8
drawinglayer
10
-0.10424033295
20
2.22372690437
30
0
40
0.563614156078
50
143.800736963
51
148.746279467
0
ARC
8
drawinglayer
10
-0.10424033295
20
2.22372690437
30
0
40
0.563614156078
50
130.966482352
51
141.812859893
0
ARC
8
drawinglayer
10
-0.10424033295
20
2.22372690437
30
0
40
0.563614156078
50
32.0166711328
51
99.5410077961
0
ARC
8
drawinglayer
10
0.0492771080271
20
2.23859220387
30
0
40
0.224615119034
50
31.5010091171
51
91.1051209952
0
ARC
8
drawinglayer
10
-0.0776768316293
20
2.23221750362
30
0
40
0.471430782666
50
145.003948333
51
148.961367824
0
ARC
8
drawinglayer
10
-0.0776768316293
20
2.23221750362
30
0
40
0.471430782666
50
140.076511294
51
142.018895516
0
ARC
8
drawinglayer
10
-0.0776768316293
20
2.23221750362
30
0
40
0.471430782666
50
31.8447837942
51
88.8406199016
0
ARC
8
drawinglayer
10
-0.0429313398492
20
2.24332163352
30
0
40
0.350847685651
50
31.6728964557
51
76.0997001154
0
ARC
8
drawinglayer
10
0.290964079384
20
2.04976413127
30
0
40
0.444300212699
50
32.2458542508
51
128.877535527
0
ARC
8
drawinglayer
10
0.429095443536
20
2.24850626114
30
0
40
0.337047086468
50
148.84276556
51
149.822981756
0
ARC
8
drawinglayer
10
0.429095443536
20
2.24850626114
30
0
40
0.337047086468
50
32.1885584713
51
141.018568501
0
ARC
8
drawinglayer
10
0.297574093835
20
2.22462572746
30
0
40
0.224850433234
50
31.7874880147
51
139.058823659
0
ARC
8
drawinglayer
10
0.459221447539
20
2.2688474378
30
0
40
0.425129820626
50
143.858032742
51
149.683753012
0
ARC
8
drawinglayer
10
0.459221447539
20
2.2688474378
30
0
40
0.425129820626
50
32.4177415894
51
140.905581224
0
ARC
8
drawinglayer
10
0.406206315582
20
2.18674592769
30
0
40
0.494501218281
50
139.732736617
51
142.656769429
0
ARC
8
drawinglayer
10
0.406206315582
20
2.18674592769
30
0
40
0.494501218281
50
32.4750373689
51
136.807042228
0
ARC
8
drawinglayer
10
0.496383731881
20
2.29393540336
30
0
40
0.533781330422
50
32.7042204869
51
149.513068884
0
ARC
8
drawinglayer
10
0.228507447357
20
2.12525369812
30
0
40
0.278476996349
50
31.8447837942
51
129.005362411
0
ARC
8
drawinglayer
10
0.526509735884
20
2.31427465121
30
0
40
0.62186406458
50
32.8761078255
51
149.375559014
0
ARC
8
drawinglayer
10
0.563672020225
20
2.33936261677
30
0
40
0.730515574376
50
33.162586723
51
149.207052126
0
ARC
8
drawinglayer
10
0.427317085402
20
2.19456337402
30
0
40
0.587407893538
50
137.670088555
51
149.328060812
0
ARC
8
drawinglayer
10
0.427317085402
20
2.19456337402
30
0
40
0.587407893538
50
32.7042204869
51
135.714297121
0
ARC
8
drawinglayer
10
0.350076163684
20
2.11253901611
30
0
40
0.506342151669
50
137.727384334
51
141.580869281
0
ARC
8
drawinglayer
10
0.350076163684
20
2.11253901611
30
0
40
0.506342151669
50
125.981749534
51
132.796165775
0
ARC
8
drawinglayer
10
0.350076163684
20
2.11253901611
30
0
40
0.506342151669
50
32.4177415894
51
121.089663992
0
ARC
8
drawinglayer
10
0.41512896713
20
2.29630976221
30
0
40
0.556001163069
50
32.6469247074
51
149.375444422
0
ARC
8
drawinglayer
10
0.216319329084
20
2.22699815751
30
0
40
0.247072194686
50
145.806089246
51
149.755601919
0
ARC
8
drawinglayer
10
0.216319329084
20
2.22699815751
30
0
40
0.247072194686
50
31.7301922352
51
133.962994325
0
ARC
8
drawinglayer
10
0.350772462259
20
2.27765821866
30
0
40
0.480392010311
50
138.701412586
51
149.449298682
0
ARC
8
drawinglayer
10
0.350772462259
20
2.27765821866
30
0
40
0.480392010311
50
32.3604458098
51
136.743844983
0
ARC
8
drawinglayer
10
0.266587842839
20
2.25325690765
30
0
40
0.381488680567
50
138.758708366
51
149.546758803
0
ARC
8
drawinglayer
10
0.266587842839
20
2.25325690765
30
0
40
0.381488680567
50
32.0739669123
51
134.81343558
0
ARC
8
drawinglayer
10
0.47086757163
20
2.04653531184
30
0
40
0.36161041709
50
55.3933491741
51
140.058577715
0
ARC
8
drawinglayer
10
0.55027068366
20
2.10757812986
30
0
40
0.276889589902
50
76.4209002554
51
149.105122934
0
ARC
8
drawinglayer
10
0.369200264439
20
2.16442772599
30
0
40
0.186810542655
50
46.9135738062
51
142.184308431
0
ARC
8
drawinglayer
10
0.63074042481
20
2.06760750556
30
0
40
0.370725949129
50
52.700447537
51
146.103053271
0
ARC
8
drawinglayer
10
0.63074042481
20
2.06760750556
30
0
40
0.370725949129
50
32.5323331484
51
36.575868196
0
ARC
8
drawinglayer
10
0.730002512268
20
2.01830532307
30
0
40
0.486471603411
50
45.996841334
51
143.114734595
0
ARC
8
drawinglayer
10
0.730002512268
20
2.01830532307
30
0
40
0.486471603411
50
32.8761078255
51
44.0052973339
0
ARC
8
drawinglayer
10
0.810472253418
20
1.97833662757
30
0
40
0.580306033832
50
33.162586723
51
142.093723804
0
ARC
8
drawinglayer
10
0.909734340877
20
1.92903444508
30
0
40
0.696053616919
50
33.5063614001
51
142.025885601
0
ARC
8
drawinglayer
10
0.565998158956
20
2.0210654429
30
0
40
0.434106478711
50
47.6584189398
51
140.071068195
0
ARC
8
drawinglayer
10
0.565998158956
20
2.0210654429
30
0
40
0.434106478711
50
32.5896289279
51
37.612692622
0
ARC
8
drawinglayer
10
0.674734536168
20
2.01340422977
30
0
40
0.536479728501
50
32.933403605
51
140.051415743
0
ARC
8
drawinglayer
10
0.313932288339
20
2.1595266327
30
0
40
0.236818667746
50
31.8447837942
51
139.062719772
0
ARC
8
drawinglayer
10
0.572920639804
20
2.04995701176
30
0
40
0.467343645046
50
36.6576292733
51
138.081873322
0
ARC
8
drawinglayer
10
0.572920639804
20
2.04995701176
30
0
40
0.467343645046
50
32.6469247074
51
34.6616734982
0
ARC
8
drawinglayer
10
0.439736660265
20
2.09777208566
30
0
40
0.376907768889
50
32.3031500303
51
132.170495863
0
ARC
8
drawinglayer
10
0.179594883459
20
2.34212852302
30
0
40
0.292543770611
50
311.768623265
51
330.802338515
0
ARC
8
drawinglayer
10
0.179594883459
20
2.34212852302
30
0
40
0.292543770611
50
210.641572424
51
308.756068474
0
ARC
8
drawinglayer
10
0.110414437491
20
2.59298696176
30
0
40
0.391464459599
50
210.355093527
51
330.925925511
0
ARC
8
drawinglayer
10
0.134291113562
20
2.41102736347
30
0
40
0.176180898756
50
210.813459763
51
330.513395899
0
ARC
8
drawinglayer
10
0.153154825653
20
2.68835479209
30
0
40
0.523167116962
50
210.125910409
51
331.245349482
0
ARC
8
drawinglayer
10
0.194338668247
20
2.60236288246
30
0
40
0.513067894415
50
255.103097327
51
331.271075287
0
ARC
8
drawinglayer
10
0.205874850457
20
2.80599067519
30
0
40
0.685622639926
50
209.839431511
51
331.640346586
0
ARC
8
drawinglayer
10
0.168880372144
20
2.28559910851
30
0
40
0.126720554261
50
322.482934034
51
330.452719668
0
ARC
8
drawinglayer
10
0.168880372144
20
2.28559910851
30
0
40
0.126720554261
50
278.422479588
51
302.492436562
0
ARC
8
drawinglayer
10
0.168880372144
20
2.28559910851
30
0
40
0.126720554261
50
255.274984665
51
264.364043352
0
ARC
8
drawinglayer
10
0.168880372144
20
2.28559910851
30
0
40
0.126720554261
50
210.928051322
51
247.24967942
0
ARC
8
drawinglayer
10
0.24861523862
20
2.90135850552
30
0
40
0.817325297289
50
209.610248393
51
331.961317543
0
ARC
8
drawinglayer
10
0.301337192229
20
3.01899631743
30
0
40
0.979780820253
50
209.323769496
51
332.358090816
0
ARC
8
drawinglayer
10
0.240466037844
20
2.68056242023
30
0
40
0.636162295432
50
210.01131885
51
331.576690975
0
ARC
8
drawinglayer
10
0.205984792338
20
2.48885078428
30
0
40
0.441513089593
50
327.123892175
51
331.137175051
0
ARC
8
drawinglayer
10
0.205984792338
20
2.48885078428
30
0
40
0.441513089593
50
210.355093527
51
323.115364848
0
ARC
8
drawinglayer
10
0.288688089581
20
2.76712525611
30
0
40
0.670001248901
50
209.95402307
51
284.035346037
0
ARC
8
drawinglayer
10
0.217104352686
20
2.37216194439
30
0
40
0.16055950773
50
210.928051322
51
285.59012431
0
ARC
8
drawinglayer
10
0.283208354811
20
2.65800118911
30
0
40
0.535789216341
50
210.240501968
51
283.945047888
0
ARC
8
drawinglayer
10
0.276038986934
20
2.51525612359
30
0
40
0.360223606354
50
210.584276645
51
283.828450977
0
ARC
8
drawinglayer
10
0.587591130005
20
2.09467828257
30
0
40
0.126857499411
50
31.9593753532
51
120.04138041
0
ARC
8
drawinglayer
10
0.620807079486
20
2.34544028107
30
0
40
0.0511345471624
50
211.672896456
51
330.812651755
0
ARC
8
drawinglayer
10
0.409105309373
20
2.27489231241
30
0
40
0.0155288083891
50
31.5583048967
51
150.440515667
0
ARC
8
drawinglayer
10
0.761553903106
20
2.36770447623
30
0
40
0.0414808785514
50
211.844783794
51
330.949932443
0
ARC
8
drawinglayer
10
0.782585591924
20
2.26325968995
30
0
40
0.0390968756736
50
32.0739669123
51
150.812938234
0
ARC
8
drawinglayer
10
0.935167562516
20
2.39516872944
30
0
40
0.029572436992
50
212.131262692
51
331.117293415
0
ARC
8
drawinglayer
10
0.39249637023
20
2.14951227757
30
0
40
0.104523867273
50
31.6728964557
51
119.676692773
0
ARC
8
drawinglayer
10
1.07591438614
20
2.41743485341
30
0
40
0.0199187683809
50
212.30315003
51
331.251480131
0
ARC
8
drawinglayer
10
1.24952804555
20
2.44490103543
30
0
40
0.00801225562644
50
212.532333148
51
331.415116877
0
ARC
8
drawinglayer
10
0.918558623373
20
2.2697886946
30
0
40
0.059422621892
50
32.2458542508
51
150.922831539
0
ARC
8
drawinglayer
10
0.731076856607
20
2.17059411531
30
0
40
0.0976226032791
50
32.0739669123
51
139.926281761
0
ARC
8
drawinglayer
10
0.936778114622
20
2.35644797073
30
0
40
0.0485538061831
50
32.2458542508
51
150.964313684
0
ARC
8
drawinglayer
10
0.410715861479
20
2.23616769609
30
0
40
0.0936569803691
50
31.6728964557
51
150.285931654
0
ARC
8
drawinglayer
10
0.801277640377
20
2.31812454583
30
0
40
0.0730612014622
50
32.1312626918
51
150.76629947
0
ARC
8
drawinglayer
10
0.624028183697
20
2.26799490603
30
0
40
0.105119867993
50
31.9593753532
51
150.50468694
0
ARC
8
drawinglayer
10
-0.0223567777964
20
2.42009660419
30
0
40
0.294136963473
50
243.643941424
51
330.573613763
0
ARC
8
drawinglayer
10
-0.106608905389
20
2.49548008678
30
0
40
0.286533614489
50
216.313854596
51
330.460225416
0
ARC
8
drawinglayer
10
0.0174537556966
20
2.37687980122
30
0
40
0.128286743854
50
210.756163983
51
330.280889626
0
ARC
8
drawinglayer
10
-0.136069471696
20
2.56285710015
30
0
40
0.406952763085
50
221.069404296
51
330.674110561
0
ARC
8
drawinglayer
10
-0.172408156337
20
2.64596544642
30
0
40
0.555490029766
50
218.720277336
51
330.940020273
0
ARC
8
drawinglayer
10
-0.201866793839
20
2.7133424598
30
0
40
0.675909178363
50
209.381065275
51
331.157285869
0
ARC
8
drawinglayer
10
-0.238205478481
20
2.79645273488
30
0
40
0.824446445044
50
209.037290598
51
331.427378174
0
ARC
8
drawinglayer
10
-0.0691457274801
20
2.50167733698
30
0
40
0.409089878934
50
234.304729363
51
330.755986229
0
ARC
8
drawinglayer
10
-0.098160739851
20
2.6297171938
30
0
40
0.578550821357
50
209.724839952
51
316.830017836
0
ARC
8
drawinglayer
10
0.091701172183
20
2.36063154859
30
0
40
0.15134946425
50
264.15583049
51
317.40584042
0
ARC
8
drawinglayer
10
-0.0374843947627
20
2.55747766323
30
0
40
0.472015210556
50
232.242081301
51
316.744074166
0
ARC
8
drawinglayer
10
0.041885927584
20
2.46298165273
30
0
40
0.332655197671
50
247.769237549
51
316.63297765
0
ARC
8
drawinglayer
10
-0.171463041928
20
2.22115387861
30
0
40
0.28499635697
50
129.247608966
51
149.221949029
0
ARC
8
drawinglayer
10
-0.171463041928
20
2.22115387861
30
0
40
0.28499635697
50
31.3864175581
51
83.6747751249
0
ARC
8
drawinglayer
10
-0.0582942710154
20
2.39188011706
30
0
40
0.274978144229
50
130.508116116
51
147.384702563
0
ARC
8
drawinglayer
10
-0.0582942710154
20
2.39188011706
30
0
40
0.274978144229
50
31.5010091171
51
126.50772479
0
ARC
8
drawinglayer
10
0.0310807624373
20
2.30506846534
30
0
40
0.185091977473
50
138.701412586
51
148.667956137
0
ARC
8
drawinglayer
10
0.0310807624373
20
2.30506846534
30
0
40
0.185091977473
50
31.3864175581
51
126.798844646
0
ARC
8
drawinglayer
10
-0.159564244393
20
2.46907474746
30
0
40
0.294642310361
50
31.3864175581
51
147.218372915
0
ARC
8
drawinglayer
10
-0.234868645974
20
2.41365825338
30
0
40
0.304016302259
50
31.3291217786
51
97.3639400619
0
ARC
8
drawinglayer
10
-0.284483294862
20
2.5642902022
30
0
40
0.318898961001
50
31.2718259991
51
147.011878926
0
ARC
8
drawinglayer
10
-0.0255026586165
20
2.21970534612
30
0
40
0.190101083844
50
132.685355737
51
149.586292891
0
ARC
8
drawinglayer
10
-0.0255026586165
20
2.21970534612
30
0
40
0.190101083844
50
31.3291217786
51
82.0027696871
0
ARC
8
drawinglayer
10
-0.385755197044
20
2.6414829038
30
0
40
0.338565055938
50
31.2145302196
51
146.843314742
0
ARC
8
drawinglayer
10
-0.510672318708
20
2.73669835854
30
0
40
0.362821706578
50
31.0999386606
51
148.653574896
0
ARC
8
drawinglayer
10
-0.34106864472
20
2.47892708298
30
0
40
0.323908067371
50
31.2145302196
51
148.939194357
0
ARC
8
drawinglayer
10
-0.244992942985
20
2.33290690671
30
0
40
0.301865684776
50
145.118539892
51
149.099737131
0
ARC
8
drawinglayer
10
-0.244992942985
20
2.33290690671
30
0
40
0.301865684776
50
118.18952352
51
139.090966591
0
ARC
8
drawinglayer
10
-0.244992942985
20
2.33290690671
30
0
40
0.301865684776
50
31.3291217786
51
110.218133604
0
ARC
8
drawinglayer
10
-0.3460816087
20
2.58883810238
30
0
40
0.26423470084
50
31.0999386606
51
149.053499437
0
ARC
8
drawinglayer
10
-0.0305156225965
20
2.32961636552
30
0
40
0.130427717312
50
138.701412586
51
149.700540675
0
ARC
8
drawinglayer
10
-0.0305156225965
20
2.32961636552
30
0
40
0.130427717312
50
31.2145302196
51
121.778645741
0
ARC
8
drawinglayer
10
-0.274769833298
20
2.52477670467
30
0
40
0.221521315946
50
31.0999386606
51
149.225902438
0
ARC
8
drawinglayer
10
-0.181488969888
20
2.44097784623
30
0
40
0.165645766297
50
127.414144022
51
149.450501893
0
ARC
8
drawinglayer
10
-0.181488969888
20
2.44097784623
30
0
40
0.165645766297
50
31.0999386606
51
120.437638021
0
ARC
8
drawinglayer
10
0.539374864682
20
2.1778869267
30
0
40
0.0572565739699
50
283.235325068
51
284.255992084
0
ARC
8
drawinglayer
10
0.539374864682
20
2.1778869267
30
0
40
0.0572565739699
50
211.558304897
51
281.263719999
0
ARC
8
drawinglayer
10
0.494832972727
20
2.28306465885
30
0
40
0.166974712885
50
211.271825999
51
284.218119574
0
ARC
8
drawinglayer
10
0.345942734746
20
2.25834895263
30
0
40
0.0557964686475
50
211.329121779
51
288.808141766
0
ARC
8
drawinglayer
10
0.622622084913
20
2.27230192741
30
0
40
0.191547687532
50
327.181187954
51
331.09632316
0
ARC
8
drawinglayer
10
0.622622084913
20
2.27230192741
30
0
40
0.191547687532
50
211.386417558
51
325.199269645
0
ARC
8
drawinglayer
10
0.780249809169
20
2.25902789197
30
0
40
0.221856928002
50
211.501009117
51
331.331121264
0
ARC
8
drawinglayer
10
0.90803699255
20
2.24826323172
30
0
40
0.246427973843
50
211.615600676
51
331.519796266
0
ARC
8
drawinglayer
10
1.06566471681
20
2.23498726748
30
0
40
0.276737214314
50
211.787488015
51
331.750469074
0
ARC
8
drawinglayer
10
0.653457889126
20
2.19026406786
30
0
40
0.10483247606
50
324.08721586
51
330.956521458
0
ARC
8
drawinglayer
10
0.653457889126
20
2.19026406786
30
0
40
0.10483247606
50
283.521803965
51
322.131997384
0
ARC
8
drawinglayer
10
0.653457889126
20
2.19026406786
30
0
40
0.10483247606
50
211.615600676
51
281.546933037
0
ARC
8
drawinglayer
10
0.822897614695
20
2.21924436174
30
0
40
0.15206697968
50
211.730192235
51
331.23818751
0
ARC
8
drawinglayer
10
0.388590540273
20
2.21856928002
30
0
40
0.0139915508701
50
31.5010091171
51
118.780987852
0
ARC
8
drawinglayer
10
0.71771795375
20
2.21242603636
30
0
40
0.0980546555805
50
211.672896456
51
300.562542821
0
ARC
8
drawinglayer
10
0.580130512585
20
2.20350338481
30
0
40
0.0273986738502
50
211.672896456
51
296.245592313
0
ARC
8
drawinglayer
10
-0.259669219601
20
2.38845455953
30
0
40
0.0794320441041
50
210.526980865
51
329.85564035
0
ARC
8
drawinglayer
10
-0.244719052687
20
2.58470467345
30
0
40
0.0790636423648
50
320.764060649
51
329.872657197
0
ARC
8
drawinglayer
10
-0.244719052687
20
2.58470467345
30
0
40
0.0790636423648
50
210.526980865
51
302.617513249
0
ARC
8
drawinglayer
10
-0.0658821895601
20
2.40961547827
30
0
40
0.0100664328634
50
210.928051322
51
303.88518237
0
ARC
8
drawinglayer
10
-0.350249756127
20
2.70577961571
30
0
40
0.169682754989
50
320.764060649
51
329.933046948
0
ARC
8
drawinglayer
10
-0.350249756127
20
2.70577961571
30
0
40
0.169682754989
50
210.240501968
51
302.522574142
0
ARC
8
drawinglayer
10
-0.383515854535
20
2.65026475258
30
0
40
0.192774407459
50
320.764060649
51
329.940953766
0
ARC
8
drawinglayer
10
-0.383515854535
20
2.65026475258
30
0
40
0.192774407459
50
210.183206188
51
236.004007592
0
ARC
8
drawinglayer
10
-0.48042287119
20
2.85512890927
30
0
40
0.281464715166
50
320.764060649
51
330.00850549
0
ARC
8
drawinglayer
10
-0.48042287119
20
2.85512890927
30
0
40
0.281464715166
50
209.896727291
51
302.403971878
0
ARC
8
drawinglayer
10
-0.0733582374195
20
2.31148945691
30
0
40
0.0102496693305
50
210.870755542
51
329.934765822
0
ARC
8
drawinglayer
10
-0.58595357463
20
2.97620385153
30
0
40
0.372085756595
50
320.764060649
51
330.070442228
0
ARC
8
drawinglayer
10
-0.58595357463
20
2.97620385153
30
0
40
0.372085756595
50
209.552952614
51
302.306683645
0
ARC
8
drawinglayer
10
-0.716124760888
20
3.12555121628
30
0
40
0.483865787967
50
209.209177937
51
330.147848826
0
ARC
8
drawinglayer
10
-0.487896990245
20
2.7570028879
30
0
40
0.281647951633
50
209.839431511
51
329.999911123
0
ARC
8
drawinglayer
10
-0.358613054248
20
2.54823097246
30
0
40
0.1670981564
50
210.240501968
51
329.917748975
0
ARC
8
drawinglayer
10
-0.464053103857
20
2.85948415077
30
0
40
0.344550137596
50
209.782135732
51
330.158964207
0
ARC
8
drawinglayer
10
-0.049512422227
20
2.41397264858
30
0
40
0.0731537840983
50
210.813459763
51
330.090553046
0
ARC
8
drawinglayer
10
-0.35484031183
20
2.74420912489
30
0
40
0.284192045319
50
210.01131885
51
330.163719757
0
ARC
8
drawinglayer
10
-0.211979518021
20
2.59341708526
30
0
40
0.20523641603
50
210.355093527
51
330.169850405
0
ARC
8
drawinglayer
10
-0.494977633096
20
1.32841423786
30
0
40
0.164174088145
50
30.7561639835
51
149.075443721
0
ARC
8
drawinglayer
10
-0.283846789239
20
1.52856632413
30
0
40
0.00983690507821
50
210.641572424
51
329.68472704
0
ARC
8
drawinglayer
10
-0.477518090985
20
1.75274939086
30
0
40
0.0105756373615
50
30.4696850859
51
149.41022296
0
ARC
8
drawinglayer
10
-0.158071349387
20
1.31397906186
30
0
40
0.060984953875
50
30.928051322
51
149.690227435
0
ARC
8
drawinglayer
10
-0.218930930943
20
1.17182035304
30
0
40
0.155291941501
50
31.042642881
51
149.426724145
0
ARC
8
drawinglayer
10
-0.00292792586445
20
1.04928723425
30
0
40
0.148342457384
50
31.2718259991
51
149.696931041
0
ARC
8
drawinglayer
10
-0.583083512913
20
1.65267334773
30
0
40
0.0975820983758
50
30.5269808654
51
149.10369054
0
ARC
8
drawinglayer
10
-0.67118939273
20
1.97693245759
30
0
40
0.0309881798013
50
30.2977977474
51
149.132166542
0
ARC
8
drawinglayer
10
0.122847513987
20
0.834701900789
30
0
40
0.219162387533
50
31.6156006762
51
149.702316844
0
ARC
8
drawinglayer
10
0.110439511954
20
0.73440404509
30
0
40
0.27566479878
50
31.6728964557
51
149.574776439
0
ARC
8
drawinglayer
10
-0.108493347793
20
0.949211191119
30
0
40
0.235346989594
50
31.3291217786
51
149.396930339
0
ARC
8
drawinglayer
10
-0.327424278735
20
1.16401640834
30
0
40
0.195031109212
50
30.9853471015
51
149.216047563
0
ARC
8
drawinglayer
10
-0.00933734460463
20
0.951435103189
30
0
40
0.26925923765
50
31.5010091171
51
92.9458052079
0
ARC
8
drawinglayer
10
-0.223403829546
20
1.11760357562
30
0
40
0.222938987561
50
31.1572344401
51
52.8977742016
0
ARC
8
drawinglayer
10
-0.48392943853
20
1.6548991886
30
0
40
0.131492417627
50
30.698868204
51
91.8585032001
0
ARC
8
drawinglayer
10
-0.133826271577
20
1.11669125089
30
0
40
0.253115140492
50
31.3291217786
51
92.6597846766
0
ARC
8
drawinglayer
10
-0.296669484329
20
1.3328639908
30
0
40
0.231996655452
50
31.0999386606
51
92.2848983912
0
ARC
8
drawinglayer
10
0.303809920133
20
-0.407434964315
30
0
40
0.244323647679
50
31.8447837942
51
149.862515844
0
ARC
8
drawinglayer
10
0.204459107648
20
-0.0521413833292
30
0
40
0.102398324254
50
31.4437133376
51
150.031423802
0
ARC
8
drawinglayer
10
0.0196275188384
20
-0.323055535598
30
0
40
0.121898541968
50
31.2718259991
51
149.776744062
0
ARC
8
drawinglayer
10
0.320825837113
20
0.0270881362585
30
0
40
0.174192300886
50
31.7301922352
51
150.022027294
0
ARC
8
drawinglayer
10
0.393883180966
20
-0.108832817458
30
0
40
0.25466011323
50
32.0166711328
51
149.945823907
0
ARC
8
drawinglayer
10
0.464365570254
20
0.124818752613
30
0
40
0.262749521054
50
32.0739669123
51
150.010625434
0
ARC
8
drawinglayer
10
0.0693038894833
20
-0.500702326091
30
0
40
0.19286120368
50
31.4437133376
51
149.692290083
0
ARC
8
drawinglayer
10
-0.165204069971
20
-0.593967759061
30
0
40
0.141396830877
50
31.0999386606
51
149.518913054
0
ARC
8
drawinglayer
10
0.580732299719
20
0.204050201006
30
0
40
0.33454156888
50
32.3604458098
51
150.001458109
0
ARC
8
drawinglayer
10
0.633128285297
20
0.148047350232
30
0
40
0.384347169455
50
32.5323331484
51
149.963012641
0
ARC
8
drawinglayer
10
0.724270104054
20
0.30178081736
30
0
40
0.423098789048
50
32.7615162664
51
149.990342728
0
ARC
8
drawinglayer
10
0.514040012094
20
-0.0528280378798
30
0
40
0.333712182766
50
32.3031500303
51
149.927030891
0
ARC
8
drawinglayer
10
0.39495173889
20
-0.253703425992
30
0
40
0.283077196077
50
139.102483043
51
149.890648071
0
ARC
8
drawinglayer
10
0.39495173889
20
-0.253703425992
30
0
40
0.283077196077
50
32.0739669123
51
137.142967383
0
ARC
8
drawinglayer
10
0.459341033444
20
-0.0200885032136
30
0
40
0.38352164095
50
96.9900851006
51
149.765915159
0
ARC
8
drawinglayer
10
0.390785520269
20
-0.190826314493
30
0
40
0.322164427726
50
125.35149596
51
149.808314036
0
ARC
8
drawinglayer
10
0.0146029820288
20
-0.467962791424
30
0
40
0.242670661865
50
95.9587610694
51
126.688206496
0
ARC
8
drawinglayer
10
0.344557852816
20
-0.159541098734
30
0
40
0.366374565235
50
96.703606203
51
149.667309123
0
ARC
8
drawinglayer
10
0.194411962834
20
-0.341959752592
30
0
40
0.343944492852
50
96.359831526
51
135.741168842
0
ARC
8
drawinglayer
10
-0.126236424227
20
-0.636189298701
30
0
40
0.189433717342
50
31.2145302196
51
86.7304736379
0
ARC
8
drawinglayer
10
-0.218145907341
20
-0.761353307394
30
0
40
0.231560745541
50
120.309467362
51
149.273629822
0
ARC
8
drawinglayer
10
-0.167044149862
20
-0.751535690365
30
0
40
0.193814033309
50
31.1572344401
51
136.40219025
0
ARC
8
drawinglayer
10
-0.111454063341
20
-0.47355053927
30
0
40
0.137572010726
50
31.1572344401
51
149.590475483
0
ARC
8
drawinglayer
10
-0.180362547816
20
-0.848417632556
30
0
40
0.251263487771
50
143.285074947
51
149.279130217
0
ARC
8
drawinglayer
10
-0.180362547816
20
-0.848417632556
30
0
40
0.251263487771
50
31.2718259991
51
57.9542413352
0
ARC
8
drawinglayer
10
-0.203708802535
20
-0.664311274395
30
0
40
0.176522297226
50
43.991489051
51
149.401972368
0
ARC
8
drawinglayer
10
-0.0367900249925
20
-0.349576603211
30
0
40
0.172400441118
50
35.282530565
51
86.9355925285
0
ARC
8
drawinglayer
10
0.283412808133
20
0.387342603491
30
0
40
0.332886654261
50
32.0166711328
51
121.164320393
0
ARC
8
drawinglayer
10
0.200713368499
20
0.140202900633
30
0
40
0.332086200221
50
31.9020795737
51
103.278526085
0
ARC
8
drawinglayer
10
0.305300886334
20
0.798839630962
30
0
40
0.221571464874
50
62.8990962903
51
149.909612974
0
ARC
8
drawinglayer
10
0.374469759473
20
0.819317752769
30
0
40
0.20815084026
50
31.9020795737
51
119.522337943
0
ARC
8
drawinglayer
10
0.182054109729
20
0.186278192498
30
0
40
0.380921611922
50
149.449069499
51
149.473019135
0
ARC
8
drawinglayer
10
0.0252326259281
20
-0.0700754114503
30
0
40
0.201909227547
50
31.4437133376
51
149.622389232
0
ARC
8
drawinglayer
10
0.0770210379574
20
-0.0300218485377
30
0
40
0.224553397276
50
31.5583048967
51
149.637801796
0
ARC
8
drawinglayer
10
0.103717626818
20
0.0210259024034
30
0
40
0.245895623686
50
31.6156006762
51
149.626399936
0
ARC
8
drawinglayer
10
0.144361404035
20
0.176472148298
30
0
40
0.345217504098
50
88.3957181736
51
149.475883924
0
ARC
8
drawinglayer
10
0.0108302396106
20
-0.175540535523
30
0
40
0.168708708506
50
31.3291217786
51
146.684089771
0
ARC
8
drawinglayer
10
0.243181795168
20
0.277686186333
30
0
40
0.334213672044
50
31.9593753532
51
135.835534991
0
ARC
8
drawinglayer
10
0.130583950511
20
0.15543274426
30
0
40
0.305464834752
50
38.7775731153
51
149.538909281
0
ARC
8
drawinglayer
10
-0.236226524636
20
-0.806095795061
30
0
40
0.211506960816
50
45.9395455544
51
149.292422838
0
ARC
8
drawinglayer
10
-0.0739465229193
20
-0.357627434935
30
0
40
0.133695112842
50
31.1572344401
51
149.642729233
0
ARC
8
drawinglayer
10
-0.0990981390408
20
-0.307468863061
30
0
40
0.153411356707
50
55.049574497
51
149.573172157
0
ARC
8
drawinglayer
10
-0.0249818812888
20
-0.165310154242
30
0
40
0.22074207876
50
103.808282863
51
149.525330181
0
ARC
8
drawinglayer
10
0.340775466373
20
0.914149375332
30
0
40
0.162401516426
50
31.7301922352
51
150.068551467
0
ARC
8
drawinglayer
10
0.396720452999
20
0.928960668292
30
0
40
0.18295293282
50
31.8447837942
51
77.0005616567
0
ARC
8
drawinglayer
10
-0.0353395636947
20
-0.255180890558
30
0
40
0.142629337219
50
31.2145302196
51
149.670288503
0
ARC
8
drawinglayer
10
0.382914067401
20
1.01949684231
30
0
40
0.118046718548
50
31.7301922352
51
150.205431084
0
ARC
8
drawinglayer
10
0.346714256713
20
1.08611969295
30
0
40
0.113382868258
50
64.8471527938
51
150.173288152
0
ARC
8
drawinglayer
10
0.394745356764
20
1.16180021149
30
0
40
0.0752060325303
50
31.6156006762
51
150.304610078
0
ARC
8
drawinglayer
10
0.413194375798
20
1.06688372151
30
0
40
0.133280419785
50
31.7874880147
51
78.0102851791
0
ARC
8
drawinglayer
10
0.0973409977611
20
0.0807455602527
30
0
40
0.26995746503
50
31.6728964557
51
149.57082303
0
ARC
8
drawinglayer
10
0.41885541823
20
1.19527847844
30
0
40
0.102787942848
50
31.7301922352
51
79.0077474046
0
ARC
8
drawinglayer
10
0.350550649694
20
1.20368806788
30
0
40
0.0923473218303
50
79.8586470262
51
150.219812325
0
ARC
8
drawinglayer
10
0.394843725815
20
1.29002523359
30
0
40
0.0538001555581
50
31.6156006762
51
150.347581913
0
ARC
8
drawinglayer
10
0.41337568346
20
1.30696785598
30
0
40
0.0931998536037
50
31.6728964557
51
78.9909024455
0
ARC
8
drawinglayer
10
0.345350591637
20
1.30972218941
30
0
40
0.0832433626206
50
79.8586470262
51
150.232073622
0
ARC
8
drawinglayer
10
0.383201459334
20
1.39713369945
30
0
40
0.0550018010216
50
31.5583048967
51
150.331882869
0
ARC
8
drawinglayer
10
0.397056065055
20
1.39582404091
30
0
40
0.105040786991
50
31.6728964557
51
77.9596930058
0
ARC
8
drawinglayer
10
0.345290798684
20
1.50574470435
30
0
40
0.0987162356672
50
31.6156006762
51
150.201019309
0
ARC
8
drawinglayer
10
0.169335570104
20
0.107908919903
30
0
40
0.297070675752
50
31.7874880147
51
132.81822465
0
ARC
8
drawinglayer
10
0.35436196821
20
1.47604110862
30
0
40
0.161248091086
50
31.7301922352
51
75.8958990277
0
ARC
8
drawinglayer
10
0.289324595204
20
1.47023154821
30
0
40
0.147846754521
50
76.7646749325
51
150.038356591
0
ARC
8
drawinglayer
10
0.309191285852
20
1.5371861533
30
0
40
0.152269504196
50
31.6728964557
51
150.052451353
0
ARC
8
drawinglayer
10
0.311492350119
20
1.5255728189
30
0
40
0.207462256904
50
31.7874880147
51
101.616031747
0
ARC
8
drawinglayer
10
0.253801795042
20
1.47412387653
30
0
40
0.223509913816
50
103.464508186
51
149.846129251
0
ARC
8
drawinglayer
10
0.111214891531
20
0.0355941659438
30
0
40
0.33595731169
50
147.467666852
51
149.455372034
0
ARC
8
drawinglayer
10
0.0367996690171
20
-0.177696939421
30
0
40
0.246611210311
50
37.5100185851
51
37.517065966
0
ARC
8
drawinglayer
10
0.266288878077
20
1.57651062796
30
0
40
0.207913597255
50
31.7301922352
51
149.891736691
0
ARC
8
drawinglayer
10
0.269619924169
20
1.58958406769
30
0
40
0.249272961096
50
31.8447837942
51
105.452557143
0
ARC
8
drawinglayer
10
0.208172057114
20
1.54387910637
30
0
40
0.269074072377
50
107.303325413
51
149.702202253
0
ARC
8
drawinglayer
10
0.229120807321
20
1.65886866912
30
0
40
0.232575296927
50
31.7301922352
51
149.799375895
0
ARC
8
drawinglayer
10
0.234558108382
20
1.69604252629
30
0
40
0.25850807904
50
31.7874880147
51
106.356168882
0
ARC
8
drawinglayer
10
0.169964360507
20
1.65989093573
30
0
40
0.279138576436
50
107.188733854
51
149.637572613
0
ARC
8
drawinglayer
10
0.199920629678
20
1.7780244505
30
0
40
0.225396285025
50
31.6728964557
51
149.779780738
0
ARC
8
drawinglayer
10
0.209182750891
20
1.83621842366
30
0
40
0.234413448014
50
34.7095727699
51
104.338268823
0
ARC
8
drawinglayer
10
0.142311084408
20
1.81265035637
30
0
40
0.252879826292
50
105.183381571
51
149.657626136
0
ARC
8
drawinglayer
10
0.18108584966
20
1.92421050398
30
0
40
0.186964847048
50
114.236114734
51
149.834727391
0
ARC
8
drawinglayer
10
0.18108584966
20
1.92421050398
30
0
40
0.186964847048
50
91.4323944878
51
110.246093945
0
ARC
8
drawinglayer
10
0.18108584966
20
1.92421050398
30
0
40
0.186964847048
50
36.6003334938
51
85.4569030508
0
ARC
8
drawinglayer
10
0.195571174589
20
1.9986276553
30
0
40
0.178960306641
50
96.4171273055
51
100.374604092
0
ARC
8
drawinglayer
10
0.195571174589
20
1.9986276553
30
0
40
0.178960306641
50
51.6118277262
51
82.5081757582
0
ARC
8
drawinglayer
10
0.127478574594
20
1.98963170917
30
0
40
0.192452297038
50
113.090199144
51
149.761216906
0
ARC
8
drawinglayer
10
0.174157582397
20
2.08544509343
30
0
40
0.120430721426
50
120.194875803
51
149.960090556
0
ARC
8
drawinglayer
10
0.174157582397
20
2.08544509343
30
0
40
0.120430721426
50
96.359831526
51
106.311879244
0
ARC
8
drawinglayer
10
0.174157582397
20
2.08544509343
30
0
40
0.120430721426
50
44.5071510666
51
77.4588705971
0
ARC
8
drawinglayer
10
0.19484208633
20
2.16995182328
30
0
40
0.0966967769188
50
55.5079407331
51
91.4499269964
0
ARC
8
drawinglayer
10
0.126683906968
20
2.17633230994
30
0
40
0.102805302092
50
111.19943842
51
149.940323512
0
ARC
8
drawinglayer
10
0.21072000841
20
0.363244114855
30
0
40
0.352390729585
50
88.5103097327
51
149.539310351
0
ARC
8
drawinglayer
10
0.255875260328
20
0.481009227885
30
0
40
0.301973697852
50
31.9020795737
51
149.692232787
0
ARC
8
drawinglayer
10
0.309997526308
20
0.471475145179
30
0
40
0.337045157663
50
32.0739669123
51
72.9247690853
0
ARC
8
drawinglayer
10
0.255979415794
20
0.527017011577
30
0
40
0.326535099669
50
105.412564689
51
149.643474079
0
ARC
8
drawinglayer
10
0.304882335667
20
0.575541885686
30
0
40
0.27658676753
50
31.9020795737
51
149.799547782
0
ARC
8
drawinglayer
10
0.277146120956
20
0.650306221891
30
0
40
0.271600806819
50
60.8937440074
51
149.777374315
0
ARC
8
drawinglayer
10
0.346770192056
20
0.668311615794
30
0
40
0.261108108069
50
31.9593753532
51
120.390712778
0
ENDSEC
0
EOF
