0
SECTION
2
HEADER
9
$ACADVER
1
AC1006
9
$INSBASE
10
0.0
20
0.0
30
0.0
9
$EXTMIN
10
0.0
20
0.0
9
$EXTMAX
10
0.0
20
0.0
0
ENDSEC
0
SECTION
2
TABLES
0
TABLE
2
LTYPE
70
1
0
LTYPE
2
CONTINUOUS
70
64
3
Solid line
72
65
73
0
40
0.0
0
ENDTAB
0
TABLE
2
LAYER
70
1
0
LAYER
2
PYDXF
70
64
62
7
6
continuous
0
ENDTAB
0
TABLE
2
STYLE
70
1
0
STYLE
2
STANDARD
70
0
40
0
41
40
50
50
71
0
42
1
3
ARIAL.TTF
4

0
ENDTAB
0
TABLE
2
VIEW
70
0
0
ENDTAB
0
ENDSEC
0
SECTION
2
BLOCKS
0
ENDSEC
0
SECTION
2
ENTITIES
0
ARC
8
drawinglayer
10
0.061445068148
20
0.302594585129
30
0
40
0.684184413032
50
30.0113188498
51
150.000025715
0
ARC
8
drawinglayer
10
0.0469690926248
20
0.337500364818
30
0
40
0.684184413032
50
30.0113188498
51
150.000025715
0
ARC
8
drawinglayer
10
0.6702921462
20
-0.684184413032
30
0
40
0.684184413032
50
30.0113188498
51
150.000025715
0
ARC
8
drawinglayer
10
0.536778511737
20
-0.684184413032
30
0
40
0.684184413032
50
30.0113188498
51
150.000025715
0
ARC
8
drawinglayer
10
0.403264877275
20
-0.684184413032
30
0
40
0.684184413032
50
30.0113188498
51
150.000025715
0
ARC
8
drawinglayer
10
0.269751242813
20
-0.684184413032
30
0
40
0.684184413032
50
30.0113188498
51
150.000025715
0
ARC
8
drawinglayer
10
0.136198694438
20
-0.684184413032
30
0
40
0.684184413032
50
30.0113188498
51
150.000025715
0
ARC
8
drawinglayer
10
0.00268505997607
20
-0.684184413032
30
0
40
0.684184413032
50
30.0113188498
51
150.000025715
0
ARC
8
drawinglayer
10
-0.130828574486
20
-0.684184413032
30
0
40
0.684184413032
50
30.0113188498
51
150.000025715
0
ARC
8
drawinglayer
10
-0.264342208948
20
-0.684184413032
30
0
40
0.684184413032
50
30.0113188498
51
150.000025715
0
ARC
8
drawinglayer
10
-0.39785584341
20
-0.684184413032
30
0
40
0.684184413032
50
30.0113188498
51
150.000025715
0
ARC
8
drawinglayer
10
-0.531369477873
20
-0.684184413032
30
0
40
0.684184413032
50
30.0113188498
51
150.000025715
0
ARC
8
drawinglayer
10
-0.664883112335
20
-0.684184413032
30
0
40
0.684184413032
50
30.0113188498
51
150.000025715
0
ARC
8
drawinglayer
10
0.6702921462
20
0.648227957701
30
0
40
0.684184413032
50
30.0113188498
51
150.000025715
0
ARC
8
drawinglayer
10
0.6702921462
20
0.514714323238
30
0
40
0.684184413032
50
30.0113188498
51
150.000025715
0
ARC
8
drawinglayer
10
0.6702921462
20
0.381200688776
30
0
40
0.684184413032
50
30.0113188498
51
150.000025715
0
ARC
8
drawinglayer
10
0.6702921462
20
0.247687054314
30
0
40
0.684184413032
50
30.0113188498
51
150.000025715
0
ARC
8
drawinglayer
10
0.6702921462
20
0.114173419852
30
0
40
0.684184413032
50
30.0113188498
51
150.000025715
0
ARC
8
drawinglayer
10
0.6702921462
20
-0.0193402146102
30
0
40
0.684184413032
50
30.0113188498
51
150.000025715
0
ARC
8
drawinglayer
10
0.6702921462
20
-0.152853849072
30
0
40
0.684184413032
50
30.0113188498
51
150.000025715
0
ARC
8
drawinglayer
10
0.6702921462
20
-0.286406397447
30
0
40
0.684184413032
50
30.0113188498
51
150.000025715
0
ARC
8
drawinglayer
10
0.6702921462
20
-0.419920031909
30
0
40
0.684184413032
50
30.0113188498
51
150.000025715
0
ARC
8
drawinglayer
10
0.6702921462
20
-0.553433666372
30
0
40
0.684184413032
50
30.0113188498
51
150.000025715
0
ARC
8
drawinglayer
10
0.536778511737
20
0.648227957701
30
0
40
0.684184413032
50
30.0113188498
51
150.000025715
0
ARC
8
drawinglayer
10
0.403264877275
20
0.648227957701
30
0
40
0.684184413032
50
30.0113188498
51
150.000025715
0
ARC
8
drawinglayer
10
0.269751242813
20
0.648227957701
30
0
40
0.684184413032
50
30.0113188498
51
150.000025715
0
ARC
8
drawinglayer
10
0.136198694438
20
0.648227957701
30
0
40
0.684184413032
50
30.0113188498
51
150.000025715
0
ARC
8
drawinglayer
10
0.00268505997607
20
0.648227957701
30
0
40
0.684184413032
50
30.0113188498
51
150.000025715
0
ARC
8
drawinglayer
10
-0.130828574486
20
0.648227957701
30
0
40
0.684184413032
50
30.0113188498
51
150.000025715
0
ARC
8
drawinglayer
10
-0.264342208948
20
0.648227957701
30
0
40
0.684184413032
50
30.0113188498
51
150.000025715
0
ARC
8
drawinglayer
10
-0.39785584341
20
0.648227957701
30
0
40
0.684184413032
50
30.0113188498
51
150.000025715
0
ARC
8
drawinglayer
10
-0.531369477873
20
0.648227957701
30
0
40
0.684184413032
50
30.0113188498
51
150.000025715
0
ARC
8
drawinglayer
10
-0.664883112335
20
0.648227957701
30
0
40
0.684184413032
50
30.0113188498
51
150.000025715
0
ARC
8
drawinglayer
10
-0.664883112335
20
0.514714323238
30
0
40
0.684184413032
50
30.0113188498
51
150.000025715
0
ARC
8
drawinglayer
10
-0.664883112335
20
0.381200688776
30
0
40
0.684184413032
50
30.0113188498
51
150.000025715
0
ARC
8
drawinglayer
10
-0.664883112335
20
0.247687054314
30
0
40
0.684184413032
50
30.0113188498
51
150.000025715
0
ARC
8
drawinglayer
10
-0.664883112335
20
0.114173419852
30
0
40
0.684184413032
50
30.0113188498
51
150.000025715
0
ARC
8
drawinglayer
10
-0.664883112335
20
-0.0193402146102
30
0
40
0.684184413032
50
30.0113188498
51
150.000025715
0
ARC
8
drawinglayer
10
-0.664883112335
20
-0.152853849072
30
0
40
0.684184413032
50
30.0113188498
51
150.000025715
0
ARC
8
drawinglayer
10
-0.664883112335
20
-0.286406397447
30
0
40
0.684184413032
50
30.0113188498
51
150.000025715
0
ARC
8
drawinglayer
10
-0.664883112335
20
-0.419920031909
30
0
40
0.684184413032
50
30.0113188498
51
150.000025715
0
ARC
8
drawinglayer
10
-0.664883112335
20
-0.553433666372
30
0
40
0.684184413032
50
30.0113188498
51
150.000025715
0
ARC
8
drawinglayer
10
-0.168964208929
20
-0.48529540524
30
0
40
0.684184413032
50
30.0113188498
51
150.000025715
0
ARC
8
drawinglayer
10
-0.0779834810441
20
-0.48529540524
30
0
40
0.684184413032
50
30.0113188498
51
150.000025715
0
ARC
8
drawinglayer
10
-0.168964208929
20
0.504830189413
30
0
40
0.684184413032
50
30.0113188498
51
150.000025715
0
ARC
8
drawinglayer
10
-0.168964208929
20
0.371316554951
30
0
40
0.684184413032
50
30.0113188498
51
150.000025715
0
ARC
8
drawinglayer
10
-0.168964208929
20
0.237802920489
30
0
40
0.684184413032
50
30.0113188498
51
150.000025715
0
ARC
8
drawinglayer
10
-0.168964208929
20
0.104289286027
30
0
40
0.684184413032
50
30.0113188498
51
150.000025715
0
ARC
8
drawinglayer
10
-0.168964208929
20
-0.0292243484352
30
0
40
0.684184413032
50
30.0113188498
51
150.000025715
0
ARC
8
drawinglayer
10
-0.168964208929
20
-0.162737982897
30
0
40
0.684184413032
50
30.0113188498
51
150.000025715
0
ARC
8
drawinglayer
10
-0.168964208929
20
-0.296251617359
30
0
40
0.684184413032
50
30.0113188498
51
150.000025715
0
ARC
8
drawinglayer
10
-0.0779834810441
20
0.504830189413
30
0
40
0.684184413032
50
30.0113188498
51
150.000025715
0
ARC
8
drawinglayer
10
-0.0139700946581
20
0.496424784271
30
0
40
0.684184413032
50
30.0113188498
51
150.000025715
0
ARC
8
drawinglayer
10
0.0456460195932
20
0.471714449709
30
0
40
0.684184413032
50
30.0113188498
51
150.000025715
0
ARC
8
drawinglayer
10
0.0968567287019
20
0.432411397885
30
0
40
0.684184413032
50
30.0113188498
51
150.000025715
0
ARC
8
drawinglayer
10
0.136159780526
20
0.381200688776
30
0
40
0.684184413032
50
30.0113188498
51
150.000025715
0
ARC
8
drawinglayer
10
0.160870115088
20
0.321584574525
30
0
40
0.684184413032
50
30.0113188498
51
150.000025715
0
ARC
8
drawinglayer
10
0.16927552023
20
0.257571188139
30
0
40
0.684184413032
50
30.0113188498
51
150.000025715
0
ARC
8
drawinglayer
10
0.160870115088
20
0.193596715666
30
0
40
0.684184413032
50
30.0113188498
51
150.000025715
0
ARC
8
drawinglayer
10
0.136159780526
20
0.133941687502
30
0
40
0.684184413032
50
30.0113188498
51
150.000025715
0
ARC
8
drawinglayer
10
0.0968567287019
20
0.082730978393
30
0
40
0.684184413032
50
30.0113188498
51
150.000025715
0
ARC
8
drawinglayer
10
0.0456460195932
20
0.0434279265694
30
0
40
0.684184413032
50
30.0113188498
51
150.000025715
0
ARC
8
drawinglayer
10
-0.0139700946581
20
0.0187565059198
30
0
40
0.684184413032
50
30.0113188498
51
150.000025715
0
ARC
8
drawinglayer
10
-0.0779834810441
20
0.0103121868646
30
0
40
0.684184413032
50
30.0113188498
51
150.000025715
0
ARC
8
drawinglayer
10
-0.0138144390073
20
0.00186786780944
30
0
40
0.684184413032
50
30.0113188498
51
150.000025715
0
ARC
8
drawinglayer
10
0.045918416982
20
-0.0228813806656
30
0
40
0.684184413032
50
30.0113188498
51
150.000025715
0
ARC
8
drawinglayer
10
0.0972458678289
20
-0.0622622603146
30
0
40
0.684184413032
50
30.0113188498
51
150.000025715
0
ARC
8
drawinglayer
10
0.136626747478
20
-0.113589711161
30
0
40
0.684184413032
50
30.0113188498
51
150.000025715
0
ARC
8
drawinglayer
10
0.161414909866
20
-0.173361481064
30
0
40
0.684184413032
50
30.0113188498
51
150.000025715
0
ARC
8
drawinglayer
10
0.169859228921
20
-0.237491609188
30
0
40
0.684184413032
50
30.0113188498
51
150.000025715
0
ARC
8
drawinglayer
10
0.161414909866
20
-0.301621737312
30
0
40
0.684184413032
50
30.0113188498
51
150.000025715
0
ARC
8
drawinglayer
10
0.136626747478
20
-0.361393507214
30
0
40
0.684184413032
50
30.0113188498
51
150.000025715
0
ARC
8
drawinglayer
10
0.0972458678289
20
-0.412720958061
30
0
40
0.684184413032
50
30.0113188498
51
150.000025715
0
ARC
8
drawinglayer
10
0.045918416982
20
-0.45210183771
30
0
40
0.684184413032
50
30.0113188498
51
150.000025715
0
ARC
8
drawinglayer
10
-0.0138144390073
20
-0.476851086185
30
0
40
0.684184413032
50
30.0113188498
51
150.000025715
0
ARC
8
drawinglayer
10
0.6702921462
20
-0.686947300834
30
0
40
2.01935967157
50
30.0113188498
51
80.9999789541
0
ARC
8
drawinglayer
10
0.6702921462
20
-0.820460935296
30
0
40
2.01935967157
50
30.0113188498
51
80.9999789541
0
ARC
8
drawinglayer
10
0.6702921462
20
-0.953974569758
30
0
40
2.01935967157
50
30.0113188498
51
80.9999789541
0
ARC
8
drawinglayer
10
0.6702921462
20
-1.08748820422
30
0
40
2.01935967157
50
30.0113188498
51
80.9999789541
0
ARC
8
drawinglayer
10
0.6702921462
20
-1.22100183868
30
0
40
2.01935967157
50
30.0113188498
51
80.9999789541
0
ARC
8
drawinglayer
10
0.6702921462
20
-1.35451547314
30
0
40
2.01935967157
50
30.0113188498
51
80.9999789541
0
ARC
8
drawinglayer
10
0.6702921462
20
-1.48802910761
30
0
40
2.01935967157
50
30.0113188498
51
80.9999789541
0
ARC
8
drawinglayer
10
0.6702921462
20
-1.62158165598
30
0
40
2.01935967157
50
30.0113188498
51
80.9999789541
0
ARC
8
drawinglayer
10
0.6702921462
20
-1.75509529044
30
0
40
2.01935967157
50
30.0113188498
51
80.9999789541
0
ARC
8
drawinglayer
10
0.6702921462
20
-1.88860892491
30
0
40
2.01935967157
50
30.0113188498
51
80.9999789541
0
ARC
8
drawinglayer
10
0.6702921462
20
-2.01935967157
30
0
40
2.01935967157
50
30.0113188498
51
80.9999789541
0
ARC
8
drawinglayer
10
-0.0410152639823
20
0.125147143232
30
0
40
0.684184413032
50
30.0113188498
51
150.000025715
0
ARC
8
drawinglayer
10
-0.00607057038068
20
0.139623118756
30
0
40
0.684184413032
50
30.0113188498
51
150.000025715
0
ARC
8
drawinglayer
10
-0.00607057038068
20
0.390540027823
30
0
40
0.684184413032
50
30.0113188498
51
150.000025715
0
ARC
8
drawinglayer
10
-0.0410152639823
20
0.405016003347
30
0
40
0.684184413032
50
30.0113188498
51
150.000025715
0
ARC
8
drawinglayer
10
-0.664883112335
20
0.514714323238
30
0
40
0.817698047494
50
101.974817918
51
150.000025715
0
ARC
8
drawinglayer
10
-0.664883112335
20
0.381200688776
30
0
40
0.951211681957
50
101.000789667
51
150.000025715
0
ARC
8
drawinglayer
10
-0.664883112335
20
0.247687054314
30
0
40
1.08472531642
50
101.000789667
51
150.000025715
0
ARC
8
drawinglayer
10
-0.664883112335
20
0.114173419852
30
0
40
1.21823895088
50
101.000789667
51
150.000025715
0
ARC
8
drawinglayer
10
-0.664883112335
20
-0.0193402146102
30
0
40
1.35175258534
50
100.026761415
51
150.000025715
0
ARC
8
drawinglayer
10
-0.664883112335
20
-0.152892762985
30
0
40
1.48530513372
50
100.026761415
51
150.000025715
0
ARC
8
drawinglayer
10
-0.664883112335
20
-0.286406397447
30
0
40
1.61881876818
50
100.026761415
51
150.000025715
0
ARC
8
drawinglayer
10
-0.664883112335
20
-0.419920031909
30
0
40
1.75233240264
50
98.9954373836
51
150.000025715
0
ARC
8
drawinglayer
10
-0.664883112335
20
-0.553433666372
30
0
40
1.8858460371
50
98.9954373836
51
150.000025715
0
ARC
8
drawinglayer
10
-0.664883112335
20
-0.686947300834
30
0
40
2.01935967157
50
98.9954373836
51
150.000025715
0
ARC
8
drawinglayer
10
0.6702921462
20
-0.553433666372
30
0
40
1.8858460371
50
30.0113188498
51
80.9999789541
0
ARC
8
drawinglayer
10
0.6702921462
20
-0.419920031909
30
0
40
1.75233240264
50
30.0113188498
51
79.9999957142
0
ARC
8
drawinglayer
10
0.6702921462
20
-0.286406397447
30
0
40
1.61881876818
50
30.0113188498
51
79.9999957142
0
ARC
8
drawinglayer
10
0.6702921462
20
-0.152892762985
30
0
40
1.48530513372
50
30.0113188498
51
79.9999957142
0
ARC
8
drawinglayer
10
0.6702921462
20
-0.0193402146102
30
0
40
1.35175258534
50
30.0113188498
51
79.0000124744
0
ARC
8
drawinglayer
10
0.6702921462
20
0.114173419852
30
0
40
1.21823895088
50
30.0113188498
51
79.0000124744
0
ARC
8
drawinglayer
10
0.6702921462
20
0.247687054314
30
0
40
1.08472531642
50
30.0113188498
51
79.0000124744
0
ARC
8
drawinglayer
10
0.6702921462
20
0.381200688776
30
0
40
0.951211681957
50
30.0113188498
51
77.9999719388
0
ARC
8
drawinglayer
10
0.6702921462
20
0.514714323238
30
0
40
0.817698047494
50
30.0113188498
51
77.9999719388
0
ARC
8
drawinglayer
10
0.6702921462
20
-0.296446186923
30
0
40
1.53527059762
50
30.0113188498
51
79.9999957142
0
ARC
8
drawinglayer
10
0.6702921462
20
-0.515726084969
30
0
40
1.71824381512
50
30.0113188498
51
79.9999957142
0
ARC
8
drawinglayer
10
0.6702921462
20
-0.275432674067
30
0
40
0.931365586481
50
30.0113188498
51
77.9999719388
0
ARC
8
drawinglayer
10
0.6702921462
20
-0.121100096312
30
0
40
0.96121255752
50
30.0113188498
51
77.9999719388
0
ARC
8
drawinglayer
10
-0.664883112335
20
-0.154060180366
30
0
40
1.37576246948
50
100.026761415
51
150.000025715
0
ARC
8
drawinglayer
10
-0.664883112335
20
-0.329834324017
30
0
40
1.4291523577
50
100.026761415
51
150.000025715
0
ARC
8
drawinglayer
10
-0.664883112335
20
-0.505608467667
30
0
40
1.48254224592
50
100.026761415
51
150.000025715
0
ARC
8
drawinglayer
10
-0.664883112335
20
-0.681343697405
30
0
40
1.53593213414
50
100.026761415
51
150.000025715
0
ARC
8
drawinglayer
10
-0.664883112335
20
-0.857117841056
30
0
40
1.58932202236
50
100.026761415
51
150.000025715
0
ARC
8
drawinglayer
10
-0.664883112335
20
-1.03289198471
30
0
40
1.64271191058
50
100.026761415
51
150.000025715
0
ARC
8
drawinglayer
10
-0.664883112335
20
-1.20870504227
30
0
40
1.69614071271
50
98.9954373836
51
150.000025715
0
ARC
8
drawinglayer
10
-0.664883112335
20
-1.38447918592
30
0
40
1.74953060093
50
98.9954373836
51
150.000025715
0
ARC
8
drawinglayer
10
-0.664883112335
20
-1.63325582979
30
0
40
1.82510141938
50
98.9954373836
51
150.000025715
0
ARC
8
drawinglayer
10
0.6702921462
20
-0.489420279986
30
0
40
0.96121255752
50
30.0113188498
51
77.9999719388
0
ARC
8
drawinglayer
10
-0.664883112335
20
-0.943545641155
30
0
40
1.55889134263
50
100.026761415
51
150.000025715
0
ARC
8
drawinglayer
10
-0.664883112335
20
-0.828983082176
30
0
40
1.52347968207
50
100.026761415
51
150.000025715
0
ARC
8
drawinglayer
10
-0.664883112335
20
-0.810032006693
30
0
40
1.42537770817
50
100.026761415
51
150.000025715
0
ARC
8
drawinglayer
10
-0.664883112335
20
-0.676518372231
30
0
40
1.2918640737
50
100.026761415
51
150.000025715
0
ARC
8
drawinglayer
10
-0.664883112335
20
-0.572384741855
30
0
40
1.18773044333
50
101.000789667
51
150.000025715
0
ARC
8
drawinglayer
10
-0.664883112335
20
-0.528567676158
30
0
40
1.22306427606
50
101.000789667
51
150.000025715
0
ARC
8
drawinglayer
10
-0.664883112335
20
-0.662081310621
30
0
40
1.35657791052
50
100.026761415
51
150.000025715
0
ARC
8
drawinglayer
10
-0.664883112335
20
-0.690410639064
30
0
40
0.914282378807
50
101.000789667
51
150.000025715
0
ARC
8
drawinglayer
10
-0.664883112335
20
-0.625307663122
30
0
40
0.970357327003
50
101.000789667
51
150.000025715
0
ARC
8
drawinglayer
10
-0.664883112335
20
-0.560165773268
30
0
40
1.02639336129
50
101.000789667
51
150.000025715
0
ARC
8
drawinglayer
10
-0.664883112335
20
-0.495023883414
30
0
40
1.08242939557
50
101.000789667
51
150.000025715
0
ARC
8
drawinglayer
10
-0.664883112335
20
-0.42988199356
30
0
40
1.13846542985
50
101.000789667
51
150.000025715
0
ARC
8
drawinglayer
10
-0.664883112335
20
-0.364740103706
30
0
40
1.19454037805
50
101.000789667
51
150.000025715
0
ARC
8
drawinglayer
10
-0.664883112335
20
-0.299598213851
30
0
40
1.25057641233
50
100.026761415
51
150.000025715
0
ARC
8
drawinglayer
10
-0.664883112335
20
-0.234456323997
30
0
40
1.30661244661
50
100.026761415
51
150.000025715
0
ARC
8
drawinglayer
10
0.6702921462
20
-1.00495179539
30
0
40
1.18189335642
50
30.0113188498
51
79.0000124744
0
ARC
8
drawinglayer
10
0.6702921462
20
-0.741193295133
30
0
40
1.04767927153
50
30.0113188498
51
79.0000124744
0
ARC
8
drawinglayer
10
0.6702921462
20
-0.0422605091885
30
0
40
1.04767927153
50
30.0113188498
51
79.0000124744
0
ARC
8
drawinglayer
10
0.6702921462
20
-0.0469301787121
30
0
40
1.18189335642
50
30.0113188498
51
79.0000124744
0
ARC
8
drawinglayer
10
0.6702921462
20
-0.13464213793
30
0
40
1.35015711492
50
30.0113188498
51
79.0000124744
0
ARC
8
drawinglayer
10
-0.664883112335
20
-1.54309229407
30
0
40
1.74427722271
50
98.9954373836
51
150.000025715
0
ARC
8
drawinglayer
10
-0.664883112335
20
-1.36669552782
30
0
40
1.68971991711
50
98.9954373836
51
150.000025715
0
ARC
8
drawinglayer
10
-0.664883112335
20
-1.19029876156
30
0
40
1.63520152543
50
100.026761415
51
150.000025715
0
ARC
8
drawinglayer
10
0.6702921462
20
-1.25380626709
30
0
40
1.35015711492
50
30.0113188498
51
79.0000124744
0
ARC
8
drawinglayer
10
0.6702921462
20
-1.60885680653
30
0
40
1.71824381512
50
30.0113188498
51
79.9999957142
0
ARC
8
drawinglayer
10
0.6702921462
20
-1.46219026958
30
0
40
1.53527059762
50
30.0113188498
51
79.9999957142
0
ARC
8
drawinglayer
10
0.6702921462
20
-0.581140372212
30
0
40
1.7025615083
50
30.0113188498
51
79.9999957142
0
ARC
8
drawinglayer
10
-0.0821083557899
20
-0.368826064539
30
0
40
0.684184413032
50
30.0113188498
51
150.000025715
0
ARC
8
drawinglayer
10
-0.0821083557899
20
-0.235312430077
30
0
40
0.684184413032
50
30.0113188498
51
150.000025715
0
ARC
8
drawinglayer
10
-0.0821083557899
20
-0.0791119845123
30
0
40
0.684184413032
50
30.0113188498
51
150.000025715
0
ARC
8
drawinglayer
10
-0.044634257863
20
-0.363883997626
30
0
40
0.684184413032
50
30.0113188498
51
150.000025715
0
ARC
8
drawinglayer
10
-0.00968956426146
20
-0.349408022103
30
0
40
0.684184413032
50
30.0113188498
51
150.000025715
0
ARC
8
drawinglayer
10
0.0203130624276
20
-0.326409899699
30
0
40
0.684184413032
50
30.0113188498
51
150.000025715
0
ARC
8
drawinglayer
10
0.0433500987441
20
-0.29640727301
30
0
40
0.684184413032
50
30.0113188498
51
150.000025715
0
ARC
8
drawinglayer
10
0.0577871603545
20
-0.261462579409
30
0
40
0.684184413032
50
30.0113188498
51
150.000025715
0
ARC
8
drawinglayer
10
0.062729227267
20
-0.223949567569
30
0
40
0.684184413032
50
30.0113188498
51
150.000025715
0
ARC
8
drawinglayer
10
0.0577871603545
20
-0.186475469642
30
0
40
0.684184413032
50
30.0113188498
51
150.000025715
0
ARC
8
drawinglayer
10
0.0433500987441
20
-0.151530776041
30
0
40
0.684184413032
50
30.0113188498
51
150.000025715
0
ARC
8
drawinglayer
10
0.0203130624276
20
-0.121528149352
30
0
40
0.684184413032
50
30.0113188498
51
150.000025715
0
ARC
8
drawinglayer
10
-0.00968956426146
20
-0.0985300269479
30
0
40
0.684184413032
50
30.0113188498
51
150.000025715
0
ARC
8
drawinglayer
10
-0.044634257863
20
-0.0840540514247
30
0
40
0.684184413032
50
30.0113188498
51
150.000025715
0
ARC
8
drawinglayer
10
-0.664883112335
20
-0.65254740201
30
0
40
1.46892237647
50
100.026761415
51
150.000025715
0
ARC
8
drawinglayer
10
-0.664883112335
20
-0.476111721843
30
0
40
1.41436507087
50
100.026761415
51
150.000025715
0
ARC
8
drawinglayer
10
-0.664883112335
20
-0.342714829119
30
0
40
1.37311632341
50
100.026761415
51
150.000025715
0
ARC
8
drawinglayer
10
-0.664883112335
20
-0.410191553735
30
0
40
1.31867575955
50
100.026761415
51
150.000025715
0
ARC
8
drawinglayer
10
-0.664883112335
20
-0.477590450526
30
0
40
1.26419628178
50
100.026761415
51
150.000025715
0
ARC
8
drawinglayer
10
-0.0784893619091
20
0.120243990233
30
0
40
0.684184413032
50
30.0113188498
51
150.000025715
0
ARC
8
drawinglayer
10
-0.0784893619091
20
0.253757624695
30
0
40
0.684184413032
50
30.0113188498
51
150.000025715
0
ARC
8
drawinglayer
10
-0.0784893619091
20
0.409958070259
30
0
40
0.684184413032
50
30.0113188498
51
150.000025715
0
ARC
8
drawinglayer
10
0.0239320563084
20
0.367502991507
30
0
40
0.684184413032
50
30.0113188498
51
150.000025715
0
ARC
8
drawinglayer
10
0.0663482211478
20
0.265081573289
30
0
40
0.684184413032
50
30.0113188498
51
150.000025715
0
ARC
8
drawinglayer
10
0.061445068148
20
0.227607475363
30
0
40
0.684184413032
50
30.0113188498
51
150.000025715
0
ARC
8
drawinglayer
10
0.0469690926248
20
0.192662781761
30
0
40
0.684184413032
50
30.0113188498
51
150.000025715
0
ARC
8
drawinglayer
10
0.0239320563084
20
0.162660155072
30
0
40
0.684184413032
50
30.0113188498
51
150.000025715
0
ARC
8
drawinglayer
10
-0.664883112335
20
-0.817698047494
30
0
40
0.817698047494
50
101.974817918
51
150.000025715
0
ARC
8
drawinglayer
10
-0.664883112335
20
-0.951211681957
30
0
40
0.951211681957
50
101.000789667
51
150.000025715
0
ARC
8
drawinglayer
10
-0.664883112335
20
-1.08472531642
30
0
40
1.08472531642
50
101.000789667
51
150.000025715
0
ARC
8
drawinglayer
10
-0.664883112335
20
-1.21823895088
30
0
40
1.21823895088
50
101.000789667
51
150.000025715
0
ARC
8
drawinglayer
10
-0.664883112335
20
-1.35175258534
30
0
40
1.35175258534
50
100.026761415
51
150.000025715
0
ARC
8
drawinglayer
10
-0.664883112335
20
-1.48530513372
30
0
40
1.48530513372
50
100.026761415
51
150.000025715
0
ARC
8
drawinglayer
10
-0.664883112335
20
-1.61881876818
30
0
40
1.61881876818
50
100.026761415
51
150.000025715
0
ARC
8
drawinglayer
10
-0.664883112335
20
-1.75233240264
30
0
40
1.75233240264
50
98.9954373836
51
150.000025715
0
ARC
8
drawinglayer
10
-0.664883112335
20
-1.8858460371
30
0
40
1.8858460371
50
98.9954373836
51
150.000025715
0
ARC
8
drawinglayer
10
-0.664883112335
20
-2.01935967157
30
0
40
2.01935967157
50
98.9954373836
51
150.000025715
0
ARC
8
drawinglayer
10
0.6702921462
20
-1.8858460371
30
0
40
1.8858460371
50
30.0113188498
51
80.9999789541
0
ARC
8
drawinglayer
10
0.6702921462
20
-1.75233240264
30
0
40
1.75233240264
50
30.0113188498
51
79.9999957142
0
ARC
8
drawinglayer
10
0.6702921462
20
-1.61881876818
30
0
40
1.61881876818
50
30.0113188498
51
79.9999957142
0
ARC
8
drawinglayer
10
0.6702921462
20
-1.48530513372
30
0
40
1.48530513372
50
30.0113188498
51
79.9999957142
0
ARC
8
drawinglayer
10
0.6702921462
20
-1.35175258534
30
0
40
1.35175258534
50
30.0113188498
51
79.0000124744
0
ARC
8
drawinglayer
10
0.6702921462
20
-1.21823895088
30
0
40
1.21823895088
50
30.0113188498
51
79.0000124744
0
ARC
8
drawinglayer
10
0.6702921462
20
-1.08472531642
30
0
40
1.08472531642
50
30.0113188498
51
79.0000124744
0
ARC
8
drawinglayer
10
0.6702921462
20
-0.951211681957
30
0
40
0.951211681957
50
30.0113188498
51
77.9999719388
0
ARC
8
drawinglayer
10
0.6702921462
20
-0.817698047494
30
0
40
0.817698047494
50
30.0113188498
51
77.9999719388
0
ARC
8
drawinglayer
10
-0.664883112335
20
-0.820460935296
30
0
40
2.01935967157
50
98.9954373836
51
150.000025715
0
ARC
8
drawinglayer
10
-0.664883112335
20
-0.953974569758
30
0
40
2.01935967157
50
98.9954373836
51
150.000025715
0
ARC
8
drawinglayer
10
-0.664883112335
20
-1.08748820422
30
0
40
2.01935967157
50
98.9954373836
51
150.000025715
0
ARC
8
drawinglayer
10
-0.664883112335
20
-1.22100183868
30
0
40
2.01935967157
50
98.9954373836
51
150.000025715
0
ARC
8
drawinglayer
10
-0.664883112335
20
-1.35451547314
30
0
40
2.01935967157
50
98.9954373836
51
150.000025715
0
ARC
8
drawinglayer
10
-0.664883112335
20
-1.48802910761
30
0
40
2.01935967157
50
98.9954373836
51
150.000025715
0
ARC
8
drawinglayer
10
-0.664883112335
20
-1.62158165598
30
0
40
2.01935967157
50
98.9954373836
51
150.000025715
0
ARC
8
drawinglayer
10
-0.664883112335
20
-1.75509529044
30
0
40
2.01935967157
50
98.9954373836
51
150.000025715
0
ARC
8
drawinglayer
10
-0.664883112335
20
-1.88860892491
30
0
40
2.01935967157
50
98.9954373836
51
150.000025715
0
ARC
8
drawinglayer
10
-0.664883112335
20
-0.788940666012
30
0
40
1.01281240576
50
101.000789667
51
150.000025715
0
ARC
8
drawinglayer
10
-0.664883112335
20
-0.639783638645
30
0
40
1.13325096555
50
101.000789667
51
150.000025715
0
ARC
8
drawinglayer
10
-0.664883112335
20
-0.707260363261
30
0
40
1.07881040169
50
101.000789667
51
150.000025715
0
ARC
8
drawinglayer
10
0.6702921462
20
-1.50005350663
30
0
40
1.7025615083
50
30.0113188498
51
79.9999957142
0
ARC
8
drawinglayer
10
0.6702921462
20
-0.394470333006
30
0
40
1.54783979142
50
30.0113188498
51
79.9999957142
0
ARC
8
drawinglayer
10
0.6702921462
20
-0.256364856845
30
0
40
1.39097780934
50
30.0113188498
51
79.0000124744
0
ARC
8
drawinglayer
10
0.6702921462
20
-0.181027521865
30
0
40
1.24812483583
50
30.0113188498
51
79.0000124744
0
ARC
8
drawinglayer
10
0.6702921462
20
-0.176318938428
30
0
40
1.13406815772
50
30.0113188498
51
79.0000124744
0
ARC
8
drawinglayer
10
0.6702921462
20
-0.242667159576
30
0
40
1.06055977663
50
30.0113188498
51
79.0000124744
0
ARC
8
drawinglayer
10
0.6702921462
20
-0.373223336673
30
0
40
1.03518790556
50
30.0113188498
51
77.9999719388
0
ARC
8
drawinglayer
10
0.6702921462
20
-0.554523255927
30
0
40
1.06055977663
50
30.0113188498
51
79.0000124744
0
ARC
8
drawinglayer
10
0.6702921462
20
-0.767888239243
30
0
40
1.13406815772
50
30.0113188498
51
79.0000124744
0
ARC
8
drawinglayer
10
0.6702921462
20
-0.991293012034
30
0
40
1.24812483583
50
30.0113188498
51
79.0000124744
0
ARC
8
drawinglayer
10
0.6702921462
20
-1.20166162407
30
0
40
1.39097780934
50
30.0113188498
51
79.0000124744
0
ARC
8
drawinglayer
10
0.6702921462
20
-1.37728011207
30
0
40
1.54783979142
50
30.0113188498
51
79.9999957142
0
ENDSEC
0
EOF
