0
SECTION
2
HEADER
9
$ACADVER
1
AC1006
9
$INSBASE
10
0.0
20
0.0
30
0.0
9
$EXTMIN
10
0.0
20
0.0
9
$EXTMAX
10
0.0
20
0.0
0
ENDSEC
0
SECTION
2
TABLES
0
TABLE
2
LTYPE
70
1
0
LTYPE
2
CONTINUOUS
70
64
3
Solid line
72
65
73
0
40
0.0
0
ENDTAB
0
TABLE
2
LAYER
70
1
0
LAYER
2
PYDXF
70
64
62
7
6
continuous
0
ENDTAB
0
TABLE
2
STYLE
70
1
0
STYLE
2
STANDARD
70
0
40
0
41
40
50
50
71
0
42
1
3
ARIAL.TTF
4

0
ENDTAB
0
TABLE
2
VIEW
70
0
0
ENDTAB
0
ENDSEC
0
SECTION
2
BLOCKS
0
ENDSEC
0
SECTION
2
ENTITIES
0
ARC
8
drawinglayer
10
0.0457359681963
20
0.225232988407
30
0
40
0.509265226616
50
35.2252347855
51
146.176563756
0
ARC
8
drawinglayer
10
0.0349609332571
20
0.251214725881
30
0
40
0.509265226616
50
35.167939006
51
146.121674399
0
ARC
8
drawinglayer
10
-0.395519091653
20
-0.509265226616
30
0
40
0.509265226616
50
33.047995164
51
143.794606314
0
ARC
8
drawinglayer
10
-0.494898513364
20
-0.509265226616
30
0
40
0.509265226616
50
32.5896289279
51
143.217637815
0
ARC
8
drawinglayer
10
0.498924668892
20
-0.411942330391
30
0
40
0.509265226616
50
37.8035448636
51
148.349792673
0
ARC
8
drawinglayer
10
0.498924668892
20
-0.509265226616
30
0
40
0.509265226616
50
37.8035448636
51
148.349792673
0
ARC
8
drawinglayer
10
-0.395519091653
20
0.482501430154
30
0
40
0.509265226616
50
33.047995164
51
143.794606314
0
ARC
8
drawinglayer
10
-0.494898513364
20
0.482501430154
30
0
40
0.509265226616
50
32.5896289279
51
143.217637815
0
ARC
8
drawinglayer
10
-0.494898513364
20
-0.411942330391
30
0
40
0.509265226616
50
32.5896289279
51
143.217637815
0
ARC
8
drawinglayer
10
-0.125766671253
20
-0.361224356793
30
0
40
0.509265226616
50
34.3657980928
51
145.28418199
0
ARC
8
drawinglayer
10
-0.0580461559628
20
-0.361224356793
30
0
40
0.509265226616
50
34.7095727699
51
145.641535767
0
ARC
8
drawinglayer
10
-0.125766671253
20
-0.220511669334
30
0
40
0.509265226616
50
34.3657980928
51
145.28418199
0
ARC
8
drawinglayer
10
-0.0580461559628
20
0.375764860931
30
0
40
0.509265226616
50
34.7095727699
51
145.641535767
0
ARC
8
drawinglayer
10
-0.125766671253
20
0.375764860931
30
0
40
0.509265226616
50
34.3657980928
51
145.28418199
0
ARC
8
drawinglayer
10
-0.0103984880193
20
0.369508389031
30
0
40
0.509265226616
50
34.9387558879
51
145.888996239
0
ARC
8
drawinglayer
10
0.0339761182357
20
0.35111552025
30
0
40
0.509265226616
50
35.167939006
51
146.116746962
0
ARC
8
drawinglayer
10
0.0720942525906
20
0.321860721087
30
0
40
0.509265226616
50
35.397122124
51
146.31023481
0
ARC
8
drawinglayer
10
0.101349051753
20
0.283742586733
30
0
40
0.509265226616
50
35.5690094626
51
146.457370371
0
ARC
8
drawinglayer
10
0.119741920534
20
0.239367980477
30
0
40
0.509265226616
50
35.6263052421
51
146.549330098
0
ARC
8
drawinglayer
10
0.125998392434
20
0.191720312534
30
0
40
0.509265226616
50
35.6836010216
51
146.580556297
0
ARC
8
drawinglayer
10
0.119741920534
20
0.144101609738
30
0
40
0.509265226616
50
35.6263052421
51
146.549330098
0
ARC
8
drawinglayer
10
0.101349051753
20
0.0996980383354
30
0
40
0.509265226616
50
35.5690094626
51
146.457370371
0
ARC
8
drawinglayer
10
0.0720942525906
20
0.0615799039805
30
0
40
0.509265226616
50
35.397122124
51
146.31023481
0
ARC
8
drawinglayer
10
0.0339761182357
20
0.0323251048176
30
0
40
0.509265226616
50
35.167939006
51
146.116746962
0
ARC
8
drawinglayer
10
-0.0103984880193
20
0.0139612011847
30
0
40
0.509265226616
50
34.9387558879
51
145.888996239
0
ARC
8
drawinglayer
10
-0.0580461559628
20
0.0076757641368
30
0
40
0.509265226616
50
34.7095727699
51
145.641535767
0
ARC
8
drawinglayer
10
0.0341788742695
20
-0.0170315068394
30
0
40
0.509265226616
50
35.167939006
51
146.117835582
0
ARC
8
drawinglayer
10
0.0723839040674
20
-0.0463442362977
30
0
40
0.509265226616
50
35.397122124
51
146.3117245
0
ARC
8
drawinglayer
10
0.101696633526
20
-0.0845492660956
30
0
40
0.509265226616
50
35.5690094626
51
146.459146541
0
ARC
8
drawinglayer
10
0.120147432602
20
-0.129039732941
30
0
40
0.509265226616
50
35.6263052421
51
146.551278154
0
ARC
8
drawinglayer
10
0.12643286965
20
-0.176774296328
30
0
40
0.509265226616
50
35.6836010216
51
146.582618945
0
ARC
8
drawinglayer
10
0.120147432602
20
-0.224508859715
30
0
40
0.509265226616
50
35.6263052421
51
146.551278154
0
ARC
8
drawinglayer
10
0.101696633526
20
-0.26899932656
30
0
40
0.509265226616
50
35.5690094626
51
146.459146541
0
ARC
8
drawinglayer
10
0.0723839040674
20
-0.307204356358
30
0
40
0.509265226616
50
35.397122124
51
146.3117245
0
ARC
8
drawinglayer
10
0.0341788742695
20
-0.336517085816
30
0
40
0.509265226616
50
35.167939006
51
146.117835582
0
ARC
8
drawinglayer
10
-0.0102826274285
20
-0.354938919745
30
0
40
0.509265226616
50
34.9387558879
51
145.889511901
0
ARC
8
drawinglayer
10
0.498924668892
20
-1.40576551265
30
0
40
1.50308840887
50
44.7363341847
51
89.8400301836
0
ARC
8
drawinglayer
10
0.498924668892
20
-1.50308840887
30
0
40
1.50308840887
50
44.7363341847
51
89.8400301836
0
ARC
8
drawinglayer
10
-0.0305292656611
20
0.0931519149583
30
0
40
0.509265226616
50
34.8241643289
51
145.784832512
0
ARC
8
drawinglayer
10
-0.00451856303902
20
0.103926949898
30
0
40
0.509265226616
50
34.9960516674
51
145.919363002
0
ARC
8
drawinglayer
10
-0.00451856303902
20
0.290694222177
30
0
40
0.509265226616
50
34.9960516674
51
145.919363002
0
ARC
8
drawinglayer
10
-0.0305292656611
20
0.301469257116
30
0
40
0.509265226616
50
34.8241643289
51
145.784832512
0
ARC
8
drawinglayer
10
-0.494898513364
20
-0.411942330391
30
0
40
1.40370898716
50
90.4010704566
51
136.796442509
0
ARC
8
drawinglayer
10
-0.494898513364
20
-0.511321752102
30
0
40
1.50308840887
50
90.4010704566
51
136.155302736
0
ARC
8
drawinglayer
10
0.498924668892
20
0.383122008443
30
0
40
0.608644648327
50
38.6056857768
51
89.8181431958
0
ARC
8
drawinglayer
10
0.498924668892
20
0.482501430154
30
0
40
0.509265226616
50
37.8035448636
51
148.349792673
0
ARC
8
drawinglayer
10
0.498924668892
20
-0.511321752102
30
0
40
1.50308840887
50
44.7363341847
51
89.8400301836
0
ARC
8
drawinglayer
10
0.498924668892
20
-0.220656495072
30
0
40
1.14276197166
50
42.3872072246
51
89.8318941829
0
ARC
8
drawinglayer
10
0.498924668892
20
-0.383875102283
30
0
40
1.27895609608
50
43.3039396968
51
89.8350454508
0
ARC
8
drawinglayer
10
0.498924668892
20
-0.205015315322
30
0
40
0.693251844718
50
39.2359393514
51
89.8204923228
0
ARC
8
drawinglayer
10
0.498924668892
20
-0.090139539599
30
0
40
0.715468112993
50
39.4078266899
51
89.8210652806
0
ARC
8
drawinglayer
10
-0.494898513364
20
-1.03052202437
30
0
40
1.30224407482
50
90.4010704566
51
137.465256143
0
ARC
8
drawinglayer
10
-0.494898513364
20
-1.21569621353
30
0
40
1.35849439162
50
90.4010704566
51
137.092718985
0
ARC
8
drawinglayer
10
0.498924668892
20
-0.364294662447
30
0
40
0.715468112993
50
39.4078266899
51
89.8210652806
0
ARC
8
drawinglayer
10
-0.494898513364
20
-0.702317935944
30
0
40
1.1603438163
50
90.3437746771
51
138.425075042
0
ARC
8
drawinglayer
10
-0.494898513364
20
-0.617044541156
30
0
40
1.13398553191
50
90.3437746771
51
138.606645367
0
ARC
8
drawinglayer
10
-0.494898513364
20
-0.503559092522
30
0
40
0.961584972881
50
90.3437746771
51
139.819253244
0
ARC
8
drawinglayer
10
-0.494898513364
20
-0.426048357314
30
0
40
0.884074237674
50
90.3437746771
51
140.379090306
0
ARC
8
drawinglayer
10
-0.494898513364
20
-0.39343360102
30
0
40
0.910374591772
50
90.3437746771
51
140.188008881
0
ARC
8
drawinglayer
10
-0.494898513364
20
-0.49281302273
30
0
40
1.00975401348
50
90.3437746771
51
139.475936934
0
ARC
8
drawinglayer
10
-0.494898513364
20
-0.174515014808
30
0
40
0.972562763854
50
90.3437746771
51
139.740700731
0
ARC
8
drawinglayer
10
-0.494898513364
20
-0.114673019689
30
0
40
1.02403383129
50
90.3437746771
51
139.374809883
0
ARC
8
drawinglayer
10
0.498924668892
20
-0.748024938992
30
0
40
0.879729465521
50
40.6110380597
51
89.825362464
0
ARC
8
drawinglayer
10
0.498924668892
20
-0.551699167976
30
0
40
0.779828671151
50
39.8661929261
51
89.822784154
0
ARC
8
drawinglayer
10
0.498924668892
20
-0.031456150387
30
0
40
0.779828671151
50
39.8661929261
51
89.822784154
0
ARC
8
drawinglayer
10
0.498924668892
20
-0.0349319681094
30
0
40
0.879729465521
50
40.6110380597
51
89.825362464
0
ARC
8
drawinglayer
10
0.498924668892
20
-0.100219410994
30
0
40
1.00497476412
50
41.4704747524
51
89.8285137319
0
ARC
8
drawinglayer
10
-0.494898513364
20
-0.885985937421
30
0
40
1.21714447092
50
90.3437746771
51
138.037469093
0
ARC
8
drawinglayer
10
0.498924668892
20
-0.933257058444
30
0
40
1.00497476412
50
41.4704747524
51
89.8285137319
0
ARC
8
drawinglayer
10
0.498924668892
20
-1.19753506593
30
0
40
1.27895609608
50
43.3039396968
51
89.8350454508
0
ARC
8
drawinglayer
10
0.498924668892
20
-1.0883654243
30
0
40
1.14276197166
50
42.3872072246
51
89.8318941829
0
ARC
8
drawinglayer
10
0.498924668892
20
-0.432565515543
30
0
40
1.26728314156
50
43.2466439173
51
89.8347589719
0
ARC
8
drawinglayer
10
-0.0611164616176
20
-0.175152248058
30
0
40
0.509265226616
50
34.7095727699
51
145.625378357
0
ARC
8
drawinglayer
10
-0.0611164616176
20
-0.0588861452457
30
0
40
0.509265226616
50
34.7095727699
51
145.625378357
0
ARC
8
drawinglayer
10
-0.0611164616176
20
-0.274531669768
30
0
40
0.509265226616
50
34.7095727699
51
145.625378357
0
ARC
8
drawinglayer
10
-0.0332230243959
20
-0.270853096012
30
0
40
0.509265226616
50
34.8241643289
51
145.770852341
0
ARC
8
drawinglayer
10
-0.00721232177383
20
-0.260078061073
30
0
40
0.509265226616
50
34.9960516674
51
145.905440127
0
ARC
8
drawinglayer
10
0.0151198070921
20
-0.242959658791
30
0
40
0.509265226616
50
35.1106432265
51
146.02026087
0
ARC
8
drawinglayer
10
0.0322671745223
20
-0.220627529925
30
0
40
0.509265226616
50
35.167939006
51
146.107923412
0
ARC
8
drawinglayer
10
0.0430132443138
20
-0.194616827303
30
0
40
0.509265226616
50
35.2252347855
51
146.162812769
0
ARC
8
drawinglayer
10
0.0466918180699
20
-0.166694424933
30
0
40
0.509265226616
50
35.282530565
51
146.181491193
0
ARC
8
drawinglayer
10
0.0430132443138
20
-0.138800987712
30
0
40
0.509265226616
50
35.2252347855
51
146.162812769
0
ARC
8
drawinglayer
10
0.0322671745223
20
-0.112790285089
30
0
40
0.509265226616
50
35.167939006
51
146.107923412
0
ARC
8
drawinglayer
10
0.0151198070921
20
-0.0904581562235
30
0
40
0.509265226616
50
35.1106432265
51
146.02026087
0
ARC
8
drawinglayer
10
-0.00721232177383
20
-0.0733397539411
30
0
40
0.509265226616
50
34.9960516674
51
145.905440127
0
ARC
8
drawinglayer
10
-0.0332230243959
20
-0.0625647190019
30
0
40
0.509265226616
50
34.8241643289
51
145.770852341
0
ARC
8
drawinglayer
10
-0.494898513364
20
-0.354388581939
30
0
40
1.0527672578
50
90.3437746771
51
139.172269302
0
ARC
8
drawinglayer
10
-0.494898513364
20
-0.255096055671
30
0
40
1.02206420125
50
90.3437746771
51
139.388732757
0
ARC
8
drawinglayer
10
-0.494898513364
20
-0.355489257551
30
0
40
0.940990752877
50
90.3437746771
51
139.96701906
0
ARC
8
drawinglayer
10
-0.0584227028828
20
0.188881728061
30
0
40
0.509265226616
50
34.7095727699
51
145.639473119
0
ARC
8
drawinglayer
10
-0.0584227028828
20
0.305147830873
30
0
40
0.509265226616
50
34.7095727699
51
145.639473119
0
ARC
8
drawinglayer
10
0.0178135658269
20
0.273546854747
30
0
40
0.509265226616
50
35.1106432265
51
146.034069152
0
ARC
8
drawinglayer
10
0.0493855768047
20
0.197310586037
30
0
40
0.509265226616
50
35.282530565
51
146.19524218
0
ARC
8
drawinglayer
10
0.0457359681963
20
0.169417148816
30
0
40
0.509265226616
50
35.2252347855
51
146.176563756
0
ARC
8
drawinglayer
10
0.0349609332571
20
0.143406446194
30
0
40
0.509265226616
50
35.167939006
51
146.121674399
0
ARC
8
drawinglayer
10
0.0178135658269
20
0.121074317328
30
0
40
0.509265226616
50
35.1106432265
51
146.034069152
0
ARC
8
drawinglayer
10
-0.0584227028828
20
0.0895023063499
30
0
40
0.509265226616
50
34.7095727699
51
145.639473119
0
ARC
8
drawinglayer
10
-0.494898513364
20
-1.40370898716
30
0
40
1.40370898716
50
90.4010704566
51
136.796442509
0
ARC
8
drawinglayer
10
-0.494898513364
20
-1.50308840887
30
0
40
1.50308840887
50
90.4010704566
51
136.155302736
0
ARC
8
drawinglayer
10
0.498924668892
20
-0.608644648327
30
0
40
0.608644648327
50
38.6056857768
51
89.8181431958
0
ARC
8
drawinglayer
10
-0.494898513364
20
-1.40576551265
30
0
40
1.50308840887
50
90.4010704566
51
136.155302736
0
ARC
8
drawinglayer
10
-0.494898513364
20
-0.587239404187
30
0
40
0.753875898825
50
90.3437746771
51
141.34005512
0
ARC
8
drawinglayer
10
-0.494898513364
20
-0.513899650246
30
0
40
0.680536144884
50
90.3437746771
51
141.892902097
0
ARC
8
drawinglayer
10
-0.494898513364
20
-0.526441559194
30
0
40
0.8030007893
50
90.3437746771
51
140.974450751
0
ARC
8
drawinglayer
10
-0.494898513364
20
-1.14858396634
30
0
40
1.29833377988
50
90.4010704566
51
137.491268427
0
ARC
8
drawinglayer
10
0.498924668892
20
-1.116548513
30
0
40
1.26728314156
50
43.2466439173
51
89.8347589719
0
ARC
8
drawinglayer
10
0.498924668892
20
-0.293619702093
30
0
40
1.15211771436
50
42.5017987837
51
89.8320660702
0
ARC
8
drawinglayer
10
0.498924668892
20
-0.190822392956
30
0
40
1.03535920404
50
41.6996578705
51
89.8292585771
0
ARC
8
drawinglayer
10
0.498924668892
20
-0.134745867035
30
0
40
0.929028146882
50
40.9548127368
51
89.8266229712
0
ARC
8
drawinglayer
10
0.498924668892
20
-0.131241084165
30
0
40
0.844131299014
50
40.3245591622
51
89.8244457316
0
ARC
8
drawinglayer
10
0.498924668892
20
-0.18062666097
30
0
40
0.789416135036
50
39.9234887056
51
89.8230133371
0
ARC
8
drawinglayer
10
0.498924668892
20
-0.277804731457
30
0
40
0.770530858744
50
39.8088971465
51
89.8225549708
0
ARC
8
drawinglayer
10
0.498924668892
20
-0.412753354526
30
0
40
0.789416135036
50
39.9234887056
51
89.8230133371
0
ARC
8
drawinglayer
10
0.498924668892
20
-0.571569259289
30
0
40
0.844131299014
50
40.3245591622
51
89.8244457316
0
ARC
8
drawinglayer
10
0.498924668892
20
-0.737858172154
30
0
40
0.929028146882
50
40.9548127368
51
89.8266229712
0
ARC
8
drawinglayer
10
0.498924668892
20
-0.894443760545
30
0
40
1.03535920404
50
41.6996578705
51
89.8292585771
0
ARC
8
drawinglayer
10
0.498924668892
20
-1.02516347205
30
0
40
1.15211771436
50
42.5017987837
51
89.8320660702
0
ARC
8
drawinglayer
10
0.399545247181
20
-0.509265226616
30
0
40
0.509265226616
50
37.2305870685
51
147.894864184
0
ARC
8
drawinglayer
10
0.300165825471
20
-0.509265226616
30
0
40
0.509265226616
50
36.6576292733
51
147.428132764
0
ARC
8
drawinglayer
10
0.20078640376
20
-0.509265226616
30
0
40
0.509265226616
50
36.0846714782
51
146.949140047
0
ARC
8
drawinglayer
10
0.101378016901
20
-0.509265226616
30
0
40
0.509265226616
50
35.5690094626
51
146.457599555
0
ARC
8
drawinglayer
10
0.00199859519034
20
-0.509265226616
30
0
40
0.509265226616
50
34.9960516674
51
145.952938329
0
ARC
8
drawinglayer
10
-0.0973808265205
20
-0.509265226616
30
0
40
0.509265226616
50
34.4803896518
51
145.434755299
0
ARC
8
drawinglayer
10
-0.196760248231
20
-0.509265226616
30
0
40
0.509265226616
50
34.0220234157
51
144.902649394
0
ARC
8
drawinglayer
10
-0.296139669942
20
-0.509265226616
30
0
40
0.509265226616
50
33.5063614001
51
144.356104954
0
ARC
8
drawinglayer
10
0.498924668892
20
0.383122008443
30
0
40
0.509265226616
50
37.8035448636
51
148.349792673
0
ARC
8
drawinglayer
10
0.498924668892
20
0.283742586733
30
0
40
0.509265226616
50
37.8035448636
51
148.349792673
0
ARC
8
drawinglayer
10
0.498924668892
20
0.184363165022
30
0
40
0.509265226616
50
37.8035448636
51
148.349792673
0
ARC
8
drawinglayer
10
0.498924668892
20
0.0849837433109
30
0
40
0.509265226616
50
37.8035448636
51
148.349792673
0
ARC
8
drawinglayer
10
0.498924668892
20
-0.0143956784
30
0
40
0.509265226616
50
37.8035448636
51
148.349792673
0
ARC
8
drawinglayer
10
0.498924668892
20
-0.113775100111
30
0
40
0.509265226616
50
37.8035448636
51
148.349792673
0
ARC
8
drawinglayer
10
0.498924668892
20
-0.213183486969
30
0
40
0.509265226616
50
37.8035448636
51
148.349792673
0
ARC
8
drawinglayer
10
0.498924668892
20
-0.31256290868
30
0
40
0.509265226616
50
37.8035448636
51
148.349792673
0
ARC
8
drawinglayer
10
0.399545247181
20
0.482501430154
30
0
40
0.509265226616
50
37.2305870685
51
147.894864184
0
ARC
8
drawinglayer
10
0.300165825471
20
0.482501430154
30
0
40
0.509265226616
50
36.6576292733
51
147.428132764
0
ARC
8
drawinglayer
10
0.20078640376
20
0.482501430154
30
0
40
0.509265226616
50
36.0846714782
51
146.949140047
0
ARC
8
drawinglayer
10
0.101378016901
20
0.482501430154
30
0
40
0.509265226616
50
35.5690094626
51
146.457599555
0
ARC
8
drawinglayer
10
0.00199859519034
20
0.482501430154
30
0
40
0.509265226616
50
34.9960516674
51
145.952938329
0
ARC
8
drawinglayer
10
-0.0973808265205
20
0.482501430154
30
0
40
0.509265226616
50
34.4803896518
51
145.434755299
0
ARC
8
drawinglayer
10
-0.196760248231
20
0.482501430154
30
0
40
0.509265226616
50
34.0220234157
51
144.902649394
0
ARC
8
drawinglayer
10
-0.296139669942
20
0.482501430154
30
0
40
0.509265226616
50
33.5063614001
51
144.356104954
0
ARC
8
drawinglayer
10
-0.494898513364
20
0.383122008443
30
0
40
0.509265226616
50
32.5896289279
51
143.217637815
0
ARC
8
drawinglayer
10
-0.494898513364
20
0.283742586733
30
0
40
0.509265226616
50
32.5896289279
51
143.217637815
0
ARC
8
drawinglayer
10
-0.494898513364
20
0.184363165022
30
0
40
0.509265226616
50
32.5896289279
51
143.217637815
0
ARC
8
drawinglayer
10
-0.494898513364
20
0.0849837433109
30
0
40
0.509265226616
50
32.5896289279
51
143.217637815
0
ARC
8
drawinglayer
10
-0.494898513364
20
-0.0143956784
30
0
40
0.509265226616
50
32.5896289279
51
143.217637815
0
ARC
8
drawinglayer
10
-0.494898513364
20
-0.113775100111
30
0
40
0.509265226616
50
32.5896289279
51
143.217637815
0
ARC
8
drawinglayer
10
-0.494898513364
20
-0.213183486969
30
0
40
0.509265226616
50
32.5896289279
51
143.217637815
0
ARC
8
drawinglayer
10
-0.494898513364
20
-0.31256290868
30
0
40
0.509265226616
50
32.5896289279
51
143.217637815
0
ARC
8
drawinglayer
10
-0.125766671253
20
0.27638543922
30
0
40
0.509265226616
50
34.3657980928
51
145.28418199
0
ARC
8
drawinglayer
10
-0.125766671253
20
0.177006017509
30
0
40
0.509265226616
50
34.3657980928
51
145.28418199
0
ARC
8
drawinglayer
10
-0.125766671253
20
0.0776265957986
30
0
40
0.509265226616
50
34.3657980928
51
145.28418199
0
ARC
8
drawinglayer
10
-0.125766671253
20
-0.0217528259122
30
0
40
0.509265226616
50
34.3657980928
51
145.28418199
0
ARC
8
drawinglayer
10
-0.125766671253
20
-0.121132247623
30
0
40
0.509265226616
50
34.3657980928
51
145.28418199
0
ARC
8
drawinglayer
10
0.498924668892
20
-0.610701173813
30
0
40
1.50308840887
50
44.7363341847
51
89.8400301836
0
ARC
8
drawinglayer
10
0.498924668892
20
-0.710080595523
30
0
40
1.50308840887
50
44.7363341847
51
89.8400301836
0
ARC
8
drawinglayer
10
0.498924668892
20
-0.809460017234
30
0
40
1.50308840887
50
44.7363341847
51
89.8400301836
0
ARC
8
drawinglayer
10
0.498924668892
20
-0.908839438945
30
0
40
1.50308840887
50
44.7363341847
51
89.8400301836
0
ARC
8
drawinglayer
10
0.498924668892
20
-1.00821886066
30
0
40
1.50308840887
50
44.7363341847
51
89.8400301836
0
ARC
8
drawinglayer
10
0.498924668892
20
-1.10759828237
30
0
40
1.50308840887
50
44.7363341847
51
89.8400301836
0
ARC
8
drawinglayer
10
0.498924668892
20
-1.20700666923
30
0
40
1.50308840887
50
44.7363341847
51
89.8400301836
0
ARC
8
drawinglayer
10
0.498924668892
20
-1.30638609094
30
0
40
1.50308840887
50
44.7363341847
51
89.8400301836
0
ARC
8
drawinglayer
10
-0.494898513364
20
0.383122008443
30
0
40
0.608644648327
50
90.2864788976
51
142.443285355
0
ARC
8
drawinglayer
10
-0.494898513364
20
0.283742586733
30
0
40
0.708024070038
50
90.3437746771
51
141.684689234
0
ARC
8
drawinglayer
10
-0.494898513364
20
0.184363165022
30
0
40
0.807403491749
50
90.3437746771
51
140.941677565
0
ARC
8
drawinglayer
10
-0.494898513364
20
0.0849837433109
30
0
40
0.906782913459
50
90.3437746771
51
140.213963869
0
ARC
8
drawinglayer
10
-0.494898513364
20
-0.0143956784
30
0
40
1.00616233517
50
90.3437746771
51
139.501318964
0
ARC
8
drawinglayer
10
-0.494898513364
20
-0.113804065258
30
0
40
1.10557072203
50
90.3437746771
51
138.803513665
0
ARC
8
drawinglayer
10
-0.494898513364
20
-0.213183486969
30
0
40
1.20495014374
50
90.3437746771
51
138.120261495
0
ARC
8
drawinglayer
10
-0.494898513364
20
-0.31256290868
30
0
40
1.30432956545
50
90.4010704566
51
137.451333269
0
ARC
8
drawinglayer
10
0.498924668892
20
-0.411942330391
30
0
40
1.40370898716
50
44.10608061
51
89.837852944
0
ARC
8
drawinglayer
10
0.498924668892
20
-0.31256290868
30
0
40
1.30432956545
50
43.4758270354
51
89.8356184086
0
ARC
8
drawinglayer
10
0.498924668892
20
-0.213183486969
30
0
40
1.20495014374
50
42.8455734607
51
89.8333265774
0
ARC
8
drawinglayer
10
0.498924668892
20
-0.113804065258
30
0
40
1.10557072203
50
42.1580241066
51
89.8309774504
0
ARC
8
drawinglayer
10
0.498924668892
20
-0.0143956784
30
0
40
1.00616233517
50
41.4704747524
51
89.8285710277
0
ARC
8
drawinglayer
10
0.498924668892
20
0.0849837433109
30
0
40
0.906782913459
50
40.7829253983
51
89.8260500134
0
ARC
8
drawinglayer
10
0.498924668892
20
0.184363165022
30
0
40
0.807403491749
50
40.0380802646
51
89.8235289991
0
ARC
8
drawinglayer
10
0.498924668892
20
0.283742586733
30
0
40
0.708024070038
50
39.3505309104
51
89.8208933932
0
ARC
8
drawinglayer
10
-0.494898513364
20
-0.245508591787
30
0
40
1.06377401392
50
90.3437746771
51
139.095034591
0
ARC
8
drawinglayer
10
-0.494898513364
20
-0.376344163885
30
0
40
1.10351419654
50
90.3437746771
51
138.817665723
0
ARC
8
drawinglayer
10
-0.494898513364
20
-0.507150770835
30
0
40
1.14325437917
50
90.3437746771
51
138.542588685
0
ARC
8
drawinglayer
10
-0.494898513364
20
-0.637986342933
30
0
40
1.18299456179
50
90.3437746771
51
138.269803479
0
ARC
8
drawinglayer
10
-0.494898513364
20
-0.768821915031
30
0
40
1.22273474442
50
90.3437746771
51
137.9993674
0
ARC
8
drawinglayer
10
-0.494898513364
20
-0.899686452276
30
0
40
1.26250389219
50
90.4010704566
51
137.731165856
0
ARC
8
drawinglayer
10
-0.494898513364
20
-0.602938514233
30
0
40
1.06096439459
50
90.3437746771
51
139.114858931
0
ARC
8
drawinglayer
10
-0.494898513364
20
-0.465440958167
30
0
40
0.722274922699
50
90.3437746771
51
141.577316943
0
ARC
8
drawinglayer
10
-0.494898513364
20
-0.416953300941
30
0
40
0.763984735367
50
90.3437746771
51
141.264481987
0
ARC
8
drawinglayer
10
-0.494898513364
20
-0.368465643714
30
0
40
0.805694548035
50
90.3437746771
51
140.954397228
0
ARC
8
drawinglayer
10
-0.494898513364
20
-0.319977986488
30
0
40
0.847404360703
50
90.3437746771
51
140.646948075
0
ARC
8
drawinglayer
10
-0.494898513364
20
-0.271490329261
30
0
40
0.889143138519
50
90.3437746771
51
140.342191824
0
ARC
8
drawinglayer
10
-0.494898513364
20
-0.223002672035
30
0
40
0.930852951186
50
90.3437746771
51
140.040128474
0
ARC
8
drawinglayer
10
-0.494898513364
20
-1.01728495188
30
0
40
1.25772464282
50
90.3437746771
51
137.763194197
0
ARC
8
drawinglayer
10
-0.494898513364
20
-0.485716561547
30
0
40
1.09337639485
50
90.3437746771
51
138.888254123
0
ARC
8
drawinglayer
10
-0.494898513364
20
-0.305321621759
30
0
40
0.981541959637
50
90.3437746771
51
139.676644049
0
ARC
8
drawinglayer
10
-0.494898513364
20
-0.608644648327
30
0
40
0.608644648327
50
90.2864788976
51
142.443285355
0
ARC
8
drawinglayer
10
-0.494898513364
20
-0.708024070038
30
0
40
0.708024070038
50
90.3437746771
51
141.684689234
0
ARC
8
drawinglayer
10
-0.494898513364
20
-0.807403491749
30
0
40
0.807403491749
50
90.3437746771
51
140.941677565
0
ARC
8
drawinglayer
10
-0.494898513364
20
-0.906782913459
30
0
40
0.906782913459
50
90.3437746771
51
140.213963869
0
ARC
8
drawinglayer
10
-0.494898513364
20
-1.00616233517
30
0
40
1.00616233517
50
90.3437746771
51
139.501318964
0
ARC
8
drawinglayer
10
-0.494898513364
20
-1.10557072203
30
0
40
1.10557072203
50
90.3437746771
51
138.803513665
0
ARC
8
drawinglayer
10
-0.494898513364
20
-1.20495014374
30
0
40
1.20495014374
50
90.3437746771
51
138.120261495
0
ARC
8
drawinglayer
10
-0.494898513364
20
-1.30432956545
30
0
40
1.30432956545
50
90.4010704566
51
137.451333269
0
ARC
8
drawinglayer
10
0.498924668892
20
-1.40370898716
30
0
40
1.40370898716
50
44.10608061
51
89.837852944
0
ARC
8
drawinglayer
10
0.498924668892
20
-1.30432956545
30
0
40
1.30432956545
50
43.4758270354
51
89.8356184086
0
ARC
8
drawinglayer
10
0.498924668892
20
-1.20495014374
30
0
40
1.20495014374
50
42.8455734607
51
89.8333265774
0
ARC
8
drawinglayer
10
0.498924668892
20
-1.10557072203
30
0
40
1.10557072203
50
42.1580241066
51
89.8309774504
0
ARC
8
drawinglayer
10
0.498924668892
20
-1.00616233517
30
0
40
1.00616233517
50
41.4704747524
51
89.8285710277
0
ARC
8
drawinglayer
10
0.498924668892
20
-0.906782913459
30
0
40
0.906782913459
50
40.7829253983
51
89.8260500134
0
ARC
8
drawinglayer
10
0.498924668892
20
-0.807403491749
30
0
40
0.807403491749
50
40.0380802646
51
89.8235289991
0
ARC
8
drawinglayer
10
0.498924668892
20
-0.708024070038
30
0
40
0.708024070038
50
39.3505309104
51
89.8208933932
0
ARC
8
drawinglayer
10
-0.494898513364
20
-0.610701173813
30
0
40
1.50308840887
50
90.4010704566
51
136.155302736
0
ARC
8
drawinglayer
10
-0.494898513364
20
-0.710080595523
30
0
40
1.50308840887
50
90.4010704566
51
136.155302736
0
ARC
8
drawinglayer
10
-0.494898513364
20
-0.809460017234
30
0
40
1.50308840887
50
90.4010704566
51
136.155302736
0
ARC
8
drawinglayer
10
-0.494898513364
20
-0.908839438945
30
0
40
1.50308840887
50
90.4010704566
51
136.155302736
0
ARC
8
drawinglayer
10
-0.494898513364
20
-1.00821886066
30
0
40
1.50308840887
50
90.4010704566
51
136.155302736
0
ARC
8
drawinglayer
10
-0.494898513364
20
-1.10759828237
30
0
40
1.50308840887
50
90.4010704566
51
136.155302736
0
ARC
8
drawinglayer
10
-0.494898513364
20
-1.20700666923
30
0
40
1.50308840887
50
90.4010704566
51
136.155302736
0
ARC
8
drawinglayer
10
-0.494898513364
20
-1.30638609094
30
0
40
1.50308840887
50
90.4010704566
51
136.155302736
0
ARC
8
drawinglayer
10
-0.494898513364
20
-0.476215993106
30
0
40
0.843523030913
50
90.3437746771
51
140.675481373
0
ENDSEC
0
EOF
