0
SECTION
2
HEADER
9
$ACADVER
1
AC1006
9
$INSBASE
10
0.0
20
0.0
30
0.0
9
$EXTMIN
10
0.0
20
0.0
9
$EXTMAX
10
0.0
20
0.0
0
ENDSEC
0
SECTION
2
TABLES
0
TABLE
2
LTYPE
70
1
0
LTYPE
2
CONTINUOUS
70
64
3
Solid line
72
65
73
0
40
0.0
0
ENDTAB
0
TABLE
2
LAYER
70
1
0
LAYER
2
PYDXF
70
64
62
7
6
continuous
0
ENDTAB
0
TABLE
2
STYLE
70
1
0
STYLE
2
STANDARD
70
0
40
0
41
40
50
50
71
0
42
1
3
ARIAL.TTF
4

0
ENDTAB
0
TABLE
2
VIEW
70
0
0
ENDTAB
0
ENDSEC
0
SECTION
2
BLOCKS
0
ENDSEC
0
SECTION
2
ENTITIES
0
ARC
8
drawinglayer
10
0.892615166549
20
-0.170942593905
30
0
40
0.26214032601
50
212.188558471
51
293.25968006
0
ARC
8
drawinglayer
10
0.993167965982
20
0.220042523033
30
0
40
0.271920623671
50
212.417741589
51
291.720543535
0
ARC
8
drawinglayer
10
-0.48252303331
20
1.1143869596
30
0
40
0.862338766832
50
206.45898052
51
332.498694659
0
ARC
8
drawinglayer
10
-0.239716513111
20
1.01431608788
30
0
40
0.993338058115
50
206.40168474
51
333.611665176
0
ARC
8
drawinglayer
10
-0.985854004252
20
-0.127625797307
30
0
40
0.195294117647
50
89.4843379844
51
146.755308425
0
ARC
8
drawinglayer
10
-0.850970942594
20
0.432260807938
30
0
40
0.130148830617
50
87.1352110243
51
147.380176196
0
ARC
8
drawinglayer
10
-0.48252303331
20
0.842126151665
30
0
40
0.082466335932
50
82.8380275609
51
148.514518039
0
ARC
8
drawinglayer
10
0.0208079376329
20
0.992175761871
30
0
40
0.0650035435861
50
31.3291217786
51
149.789349133
0
ARC
8
drawinglayer
10
0.524138908575
20
0.842126151665
30
0
40
0.082466335932
50
32.6469247074
51
97.3473815816
0
ARC
8
drawinglayer
10
0.892615166549
20
0.432260807938
30
0
40
0.130148830617
50
33.7928402977
51
93.0783303459
0
ARC
8
drawinglayer
10
1.02746987952
20
-0.127625797307
30
0
40
0.195294117647
50
34.4230938723
51
90.7280001745
0
ARC
8
drawinglayer
10
0.524138908575
20
0.0209496810773
30
0
40
0.631268603827
50
209.667544173
51
330.721035804
0
ARC
8
drawinglayer
10
0.732615166549
20
0.289184975195
30
0
40
0.634613749114
50
210.183206188
51
319.421334056
0
ARC
8
drawinglayer
10
0.0208079376329
20
1.27957476967
30
0
40
0.992629340893
50
206.974642536
51
334.162048434
0
ARC
8
drawinglayer
10
0.281360737066
20
1.01431608788
30
0
40
0.993338058115
50
207.547600331
51
334.697420198
0
ARC
8
drawinglayer
10
-0.951552090716
20
0.302508858965
30
0
40
0.281530829199
50
248.456786903
51
328.841333165
0
ARC
8
drawinglayer
10
-0.850970942594
20
-0.170942593905
30
0
40
0.26214032601
50
245.935772605
51
329.017002025
0
ARC
8
drawinglayer
10
-0.690999291283
20
-0.497179305457
30
0
40
0.189652728561
50
246.737913518
51
329.115550766
0
ARC
8
drawinglayer
10
0.0208079376329
20
0.747639971651
30
0
40
0.992629340893
50
206.974642536
51
334.162048434
0
ARC
8
drawinglayer
10
0.524138908575
20
0.652246633593
30
0
40
0.862338766832
50
208.693515921
51
334.630212249
0
ARC
8
drawinglayer
10
0.281360737066
20
0.384549964564
30
0
40
0.860240963855
50
208.120558126
51
334.13603615
0
ARC
8
drawinglayer
10
0.0208079376329
20
-0.355152374203
30
0
40
0.513819985826
50
208.979994819
51
332.138476093
0
ARC
8
drawinglayer
10
0.281360737066
20
-0.681417434444
30
0
40
0.257094259391
50
210.641572424
51
330.668094504
0
ARC
8
drawinglayer
10
0.732615166549
20
-0.497179305457
30
0
40
0.189652728561
50
212.073966912
51
292.455820273
0
ARC
8
drawinglayer
10
-0.690999291283
20
0.753763288448
30
0
40
0.732785258682
50
218.376502659
51
331.443936654
0
ARC
8
drawinglayer
10
-0.48252303331
20
0.652246633593
30
0
40
0.862338766832
50
206.45898052
51
332.498694659
0
ARC
8
drawinglayer
10
-0.850970942594
20
-0.650602409639
30
0
40
0.130148830617
50
86.1611827726
51
147.380176196
0
ARC
8
drawinglayer
10
0.732615166549
20
0.918440822112
30
0
40
0.189652728561
50
212.073966912
51
292.455820273
0
ARC
8
drawinglayer
10
0.993167965982
20
0.365754783841
30
0
40
0.072856130404
50
213.219882503
51
277.585560137
0
ARC
8
drawinglayer
10
0.524138908575
20
1.1143869596
30
0
40
0.862338766832
50
208.693515921
51
334.630212249
0
ARC
8
drawinglayer
10
0.732615166549
20
0.753763288448
30
0
40
0.732785258682
50
209.724839952
51
321.747141633
0
ARC
8
drawinglayer
10
0.892615166549
20
0.66313253012
30
0
40
0.506449326719
50
211.15723444
51
306.697603003
0
ARC
8
drawinglayer
10
-0.48252303331
20
-0.305797306875
30
0
40
0.446378454996
50
218.032727982
51
330.705967014
0
ARC
8
drawinglayer
10
-0.690999291283
20
0.0209780297661
30
0
40
0.518157335223
50
226.054137113
51
330.51093218
0
ARC
8
drawinglayer
10
-0.239716513111
20
0.0209780297661
30
0
40
0.70239546421
50
207.60489611
51
332.355168731
0
ARC
8
drawinglayer
10
-0.48252303331
20
-0.965102763997
30
0
40
0.082466335932
50
81.8639993091
51
148.514518039
0
ARC
8
drawinglayer
10
-0.239716513111
20
-0.681417434444
30
0
40
0.257094259391
50
209.438361055
51
330.486753362
0
ARC
8
drawinglayer
10
0.0208079376329
20
-1.08022678951
30
0
40
0.0650035435861
50
31.3291217786
51
149.789349133
0
ARC
8
drawinglayer
10
0.524138908575
20
-0.965102763997
30
0
40
0.082466335932
50
32.6469247074
51
97.3473815816
0
ARC
8
drawinglayer
10
0.892615166549
20
-0.650602409639
30
0
40
0.130148830617
50
33.7928402977
51
93.0783303459
0
ARC
8
drawinglayer
10
-0.850970942594
20
0.737179305457
30
0
40
0.454060949681
50
235.565236513
51
329.838852687
0
ARC
8
drawinglayer
10
-0.239716513111
20
1.37788802268
30
0
40
0.860240963855
50
206.974642536
51
333.033436169
0
ARC
8
drawinglayer
10
0.281360737066
20
1.37788802268
30
0
40
0.860240963855
50
208.120558126
51
334.13603615
0
ARC
8
drawinglayer
10
0.732615166549
20
1.02197023388
30
0
40
0.634613749114
50
210.183206188
51
319.421334056
0
ARC
8
drawinglayer
10
-0.690999291283
20
1.05729270021
30
0
40
0.518157335223
50
226.054137113
51
330.51093218
0
ARC
8
drawinglayer
10
0.0208079376329
20
1.47424521616
30
0
40
0.726633593196
50
208.063262346
51
333.029024394
0
ARC
8
drawinglayer
10
0.524138908575
20
1.28351523742
30
0
40
0.631268603827
50
209.667544173
51
329.732339833
0
ARC
8
drawinglayer
10
-0.48252303331
20
1.2405102764
30
0
40
0.446378454996
50
218.032727982
51
330.705967014
0
ARC
8
drawinglayer
10
0.281360737066
20
1.37788802268
30
0
40
0.496669029057
50
209.667544173
51
332.629329036
0
ARC
8
drawinglayer
10
-0.951552090716
20
0.365754783841
30
0
40
0.072856130404
50
261.634816191
51
327.957946837
0
ARC
8
drawinglayer
10
-0.690999291283
20
0.918440822112
30
0
40
0.189652728561
50
247.711941769
51
329.115550766
0
ARC
8
drawinglayer
10
-0.239716513111
20
1.23756201276
30
0
40
0.257094259391
50
209.438361055
51
330.486753362
0
ENDSEC
0
EOF
