0
SECTION
2
HEADER
9
$ACADVER
1
AC1006
9
$INSBASE
10
0.0
20
0.0
30
0.0
9
$EXTMIN
10
0.0
20
0.0
9
$EXTMAX
10
0.0
20
0.0
0
ENDSEC
0
SECTION
2
TABLES
0
TABLE
2
LTYPE
70
1
0
LTYPE
2
CONTINUOUS
70
64
3
Solid line
72
65
73
0
40
0.0
0
ENDTAB
0
TABLE
2
LAYER
70
1
0
LAYER
2
PYDXF
70
64
62
7
6
continuous
0
ENDTAB
0
TABLE
2
STYLE
70
1
0
STYLE
2
STANDARD
70
0
40
0
41
40
50
50
71
0
42
1
3
ARIAL.TTF
4

0
ENDTAB
0
TABLE
2
VIEW
70
0
0
ENDTAB
0
ENDSEC
0
SECTION
2
BLOCKS
0
ENDSEC
0
SECTION
2
ENTITIES
0
ARC
8
drawinglayer
10
0.153050141797
20
0.191878356363
30
0
40
0.288903638448
50
210.240501968
51
331.489429503
0
ARC
8
drawinglayer
10
0.30229891993
20
-0.0191878356363
30
0
40
0.166897966572
50
211.042642881
51
331.327855405
0
ARC
8
drawinglayer
10
0.451547698063
20
-0.230254027635
30
0
40
0.0448922946962
50
211.902079574
51
331.171036856
0
ARC
8
drawinglayer
10
0.600826645749
20
-0.441350389187
30
0
40
0.0771435467326
50
32.7615162664
51
151.018744674
0
ARC
8
drawinglayer
10
0.750075423882
20
-0.652416581186
30
0
40
0.199149218609
50
33.6209529591
51
150.870806972
0
ARC
8
drawinglayer
10
0.899324202015
20
-0.863482773185
30
0
40
0.321154890485
50
34.5376854313
51
150.726994565
0
ARC
8
drawinglayer
10
0.00380136366379
20
0.402944548362
30
0
40
0.410909310324
50
209.381065275
51
331.655873742
0
ARC
8
drawinglayer
10
-0.17806070114
20
-1.92958426356
30
0
40
0.95109515477
50
34.1366149747
51
145.952709146
0
ARC
8
drawinglayer
10
-0.327309479274
20
-1.71851807156
30
0
40
0.829089482894
50
33.3344740616
51
146.031548138
0
ARC
8
drawinglayer
10
-0.47658842696
20
-1.50745187956
30
0
40
0.707083811018
50
32.5323331484
51
146.112850849
0
ARC
8
drawinglayer
10
-0.625837205093
20
-1.29635551801
30
0
40
0.585047969589
50
31.7874880147
51
146.196674575
0
ARC
8
drawinglayer
10
-0.775085983226
20
-1.08528932601
30
0
40
0.463042297713
50
30.9853471015
51
146.28307661
0
ARC
8
drawinglayer
10
-0.924334761359
20
-0.874223134013
30
0
40
0.341036625837
50
30.2405019679
51
146.372343435
0
ARC
8
drawinglayer
10
-0.0288119230073
20
-2.14065045556
30
0
40
1.07310082665
50
34.9387558879
51
145.876161984
0
ARC
8
drawinglayer
10
0.74461473481
20
-1.0763289688
30
0
40
0.446479213178
50
34.5949812108
51
149.938833822
0
ARC
8
drawinglayer
10
0.589935437157
20
-1.28920533398
30
0
40
0.571803535872
50
34.6522769904
51
149.142307895
0
ARC
8
drawinglayer
10
0.435256139504
20
-1.5020515296
30
0
40
0.697127858565
50
34.7668685494
51
148.337531376
0
ARC
8
drawinglayer
10
0.280546672298
20
-1.71492789477
30
0
40
0.822452181259
50
34.8241643289
51
147.524790744
0
ARC
8
drawinglayer
10
0.125867374646
20
-1.92780425994
30
0
40
0.947776503952
50
34.8814601084
51
146.704257885
0
ARC
8
drawinglayer
10
-0.150877933989
20
0.19006818319
30
0
40
0.28558498763
50
209.552952614
51
330.800390459
0
ARC
8
drawinglayer
10
-0.305557231642
20
-0.0227780124299
30
0
40
0.160260664937
50
209.667544173
51
329.934479343
0
ARC
8
drawinglayer
10
-0.460266698848
20
-0.235654377602
30
0
40
0.0349363422434
50
209.839431511
51
329.05848417
0
ARC
8
drawinglayer
10
-0.6149459965
20
-0.448500573222
30
0
40
0.0903879804501
50
29.9540230703
51
148.172634123
0
ARC
8
drawinglayer
10
-0.769625294153
20
-0.661376938394
30
0
40
0.215712303144
50
30.0686146293
51
147.277158385
0
ARC
8
drawinglayer
10
-0.137633500272
20
0.486333192542
30
0
40
0.454926687986
50
52.815039096
51
147.91079241
0
ARC
8
drawinglayer
10
-0.292312797924
20
0.27345682737
30
0
40
0.58025101068
50
52.585855978
51
147.056397746
0
ARC
8
drawinglayer
10
-0.446992095577
20
0.0605804621976
30
0
40
0.705575333374
50
52.4139686394
51
146.193637898
0
ARC
8
drawinglayer
10
-0.601701562783
20
-0.152265733422
30
0
40
0.830899656067
50
52.2420813009
51
145.32274205
0
ARC
8
drawinglayer
10
-0.756380860436
20
-0.365142098594
30
0
40
0.956223978761
50
52.0701939623
51
144.444053975
0
ARC
8
drawinglayer
10
-0.911090327641
20
-0.577988294213
30
0
40
1.08154830145
50
51.8983066238
51
143.557860153
0
ARC
8
drawinglayer
10
0.0170759669342
20
0.699179388161
30
0
40
0.329602365293
50
32.3031500303
51
148.756535412
0
ARC
8
drawinglayer
10
0.166324745067
20
0.488113196162
30
0
40
0.451608037169
50
33.162586723
51
126.38935171
0
ARC
8
drawinglayer
10
0.3155735232
20
0.277016834611
30
0
40
0.573643878598
50
33.9647276362
51
126.596246769
0
ARC
8
drawinglayer
10
0.464822301333
20
0.0659506426115
30
0
40
0.695649550474
50
34.8241643289
51
126.797412251
0
ARC
8
drawinglayer
10
0.614071079467
20
-0.145115549388
30
0
40
0.81765522235
50
35.6836010216
51
126.992962747
0
ARC
8
drawinglayer
10
0.7633198576
20
-0.356181741387
30
0
40
0.939660894226
50
36.5430377143
51
127.183299326
0
ARC
8
drawinglayer
10
0.912568635733
20
-0.567278102939
30
0
40
1.06169673565
50
37.402474407
51
127.368479286
0
ARC
8
drawinglayer
10
0.0148434200205
20
0.649821999638
30
0
40
0.206178724431
50
31.8447837942
51
149.227621311
0
ARC
8
drawinglayer
10
0.0126410426597
20
0.600434441562
30
0
40
0.0827550835697
50
31.3291217786
51
149.703577351
0
ARC
8
drawinglayer
10
0.010438665299
20
0.551077053038
30
0
40
0.040668557292
50
210.870755542
51
330.184346237
0
ARC
8
drawinglayer
10
0.00823628793821
20
0.501719664515
30
0
40
0.164092198154
50
210.355093527
51
330.669985264
0
ARC
8
drawinglayer
10
0.00603391057745
20
0.452332106438
30
0
40
0.287515839015
50
209.896727291
51
331.160494433
0
ARC
8
drawinglayer
10
-0.913292705002
20
-0.62737585229
30
0
40
0.958124660593
50
51.5545319467
51
144.013017826
0
ARC
8
drawinglayer
10
-0.915495082363
20
-0.676733240813
30
0
40
0.834701019731
50
51.2107572696
51
144.473675893
0
ARC
8
drawinglayer
10
-0.917697459724
20
-0.726090629337
30
0
40
0.711277378869
50
50.8669825926
51
144.939891651
0
ARC
8
drawinglayer
10
-0.919899837084
20
-0.775508356966
30
0
40
0.58788390756
50
50.5232079155
51
145.411722395
0
ARC
8
drawinglayer
10
-0.922132383998
20
-0.82486574549
30
0
40
0.464460266699
50
50.1794332384
51
145.889168126
0
ARC
8
drawinglayer
10
0.910366258372
20
-0.616635491462
30
0
40
0.938273094793
50
36.9441081709
51
127.67048534
0
ARC
8
drawinglayer
10
0.908163881011
20
-0.665992879986
30
0
40
0.814849453931
50
36.4284461553
51
127.976903168
0
ARC
8
drawinglayer
10
0.905931334098
20
-0.715380438062
30
0
40
0.691425813069
50
35.9700799192
51
128.287732772
0
ARC
8
drawinglayer
10
0.903728956737
20
-0.764737826585
30
0
40
0.568002172208
50
35.5117136831
51
128.603031447
0
ARC
8
drawinglayer
10
0.901526579376
20
-0.814095215109
30
0
40
0.444578531346
50
34.9960516674
51
128.922913784
0
ENDSEC
0
EOF
