0
SECTION
2
HEADER
9
$ACADVER
1
AC1006
9
$INSBASE
10
0.0
20
0.0
30
0.0
9
$EXTMIN
10
0.0
20
0.0
9
$EXTMAX
10
0.0
20
0.0
0
ENDSEC
0
SECTION
2
TABLES
0
TABLE
2
LTYPE
70
1
0
LTYPE
2
CONTINUOUS
70
64
3
Solid line
72
65
73
0
40
0.0
0
ENDTAB
0
TABLE
2
LAYER
70
1
0
LAYER
2
PYDXF
70
64
62
7
6
continuous
0
ENDTAB
0
TABLE
2
STYLE
70
1
0
STYLE
2
STANDARD
70
0
40
0
41
40
50
50
71
0
42
1
3
ARIAL.TTF
4

0
ENDTAB
0
TABLE
2
VIEW
70
0
0
ENDTAB
0
ENDSEC
0
SECTION
2
BLOCKS
0
ENDSEC
0
SECTION
2
ENTITIES
0
ARC
8
drawinglayer
10
0.441456417801
20
-1.16866495035
30
0
40
0.254887826407
50
33.162586723
51
61.392503768
0
ARC
8
drawinglayer
10
0.695461566752
20
-0.938786318499
30
0
40
0.186333210739
50
33.5063614001
51
79.3713464214
0
ARC
8
drawinglayer
10
0.508657594704
20
-0.915689591762
30
0
40
0.881000367782
50
35.7408968011
51
36.7470106894
0
ARC
8
drawinglayer
10
0.441456417801
20
0.589510849577
30
0
40
0.254887826407
50
33.162586723
51
61.392503768
0
ARC
8
drawinglayer
10
0.763221772711
20
-0.982890768665
30
0
40
0.440662008091
50
34.7668685494
51
66.1163689015
0
ARC
8
drawinglayer
10
0.509098933431
20
-1.26155204119
30
0
40
0.509098933431
50
34.3085023133
51
49.3713335642
0
ARC
8
drawinglayer
10
-0.440662008091
20
-1.30545053328
30
0
40
0.763221772711
50
143.915328522
51
145.870833477
0
ARC
8
drawinglayer
10
0.694873115116
20
-0.992305994851
30
0
40
0.694873115116
50
35.5690094626
51
51.5867894706
0
ARC
8
drawinglayer
10
0.440662008091
20
-1.30545053328
30
0
40
0.763221772711
50
35.1106432265
51
36.1163560443
0
ARC
8
drawinglayer
10
0.509098933431
20
0.17397572637
30
0
40
0.509098933431
50
34.3085023133
51
49.3713335642
0
ARC
8
drawinglayer
10
0.440662008091
20
-0.290371460096
30
0
40
0.763221772711
50
35.1106432265
51
36.1163560443
0
ARC
8
drawinglayer
10
0.694873115116
20
-0.466848105921
30
0
40
0.694873115116
50
35.5690094626
51
51.5867894706
0
ARC
8
drawinglayer
10
-0.982714233174
20
-0.297432879735
30
0
40
-0
50
83.410985356
51
147.522556208
0
ARC
8
drawinglayer
10
-0.851254137551
20
-0.314144906216
30
0
40
0.228083854358
50
248.915153139
51
328.849354575
0
ARC
8
drawinglayer
10
-0.229437293122
20
-1.14765722692
30
0
40
0.132460463406
50
124.778538164
51
148.9114632
0
ARC
8
drawinglayer
10
0.719970577418
20
0.683074659801
30
0
40
-0
50
32.8188120459
51
94.3713242022
0
ARC
8
drawinglayer
10
0.851254137551
20
0.244766458257
30
0
40
0.228083854358
50
34.1366149747
51
81.1163466823
0
ARC
8
drawinglayer
10
0.492386906951
20
0.976329532917
30
0
40
0.131930856933
50
211.672896456
51
286.392494406
0
ARC
8
drawinglayer
10
0.264920926811
20
-1.01519676352
30
0
40
-0
50
31.6728964557
51
85.2392936803
0
ARC
8
drawinglayer
10
-0.694873115116
20
-0.992305994851
30
0
40
0.694873115116
50
128.445468053
51
145.459564371
0
ARC
8
drawinglayer
10
-0.763221772711
20
-0.982890768665
30
0
40
0.440662008091
50
113.892340057
51
146.288863484
0
ARC
8
drawinglayer
10
-0.881000367782
20
-0.543346818683
30
0
40
0.508657594704
50
113.262086482
51
145.693388447
0
ARC
8
drawinglayer
10
0.982714233174
20
0.228025009195
30
0
40
-0
50
33.5636571796
51
96.5867801086
0
ARC
8
drawinglayer
10
0.851254137551
20
0.700934166973
30
0
40
0.228083854358
50
212.245854251
51
291.11635954
0
ARC
8
drawinglayer
10
0.982625965428
20
-0.29799190879
30
0
40
0.263302684811
50
34.6522769904
51
81.7470013274
0
ARC
8
drawinglayer
10
0.982625965428
20
0.228613460831
30
0
40
0.263302684811
50
212.417741589
51
291.747014185
0
ARC
8
drawinglayer
10
-0.509098933431
20
-1.26155204119
30
0
40
0.509098933431
50
130.622707675
51
146.689017208
0
ARC
8
drawinglayer
10
-0.440662008091
20
-0.290371460096
30
0
40
0.763221772711
50
143.915328522
51
145.870833477
0
ARC
8
drawinglayer
10
0.982714233174
20
-0.297432879735
30
0
40
-0
50
33.5636571796
51
96.5867801086
0
ARC
8
drawinglayer
10
-0.441456417801
20
-0.658889297536
30
0
40
0.254887826407
50
238.601912827
51
330.000025715
0
ARC
8
drawinglayer
10
-0.132460463406
20
-0.785759470394
30
0
40
0.229437293122
50
214.766868549
51
330.633602444
0
ARC
8
drawinglayer
10
-0.694873115116
20
-0.466848105921
30
0
40
0.694873115116
50
128.445468053
51
145.459564371
0
ARC
8
drawinglayer
10
-0.695461566752
20
-0.938786318499
30
0
40
0.186333210739
50
100.657014989
51
147.508117672
0
ARC
8
drawinglayer
10
-0.359985288709
20
-0.128929753586
30
0
40
0.623523354174
50
207.60489611
51
331.779976401
0
ARC
8
drawinglayer
10
0.0
20
-0.404030893711
30
0
40
0.509746230232
50
208.922699039
51
332.115214007
0
ARC
8
drawinglayer
10
0.695461566752
20
-0.566119897021
30
0
40
0.186333210739
50
211.959375353
51
289.371359279
0
ARC
8
drawinglayer
10
0.131930856933
20
1.33678558293
30
0
40
0.492386906951
50
209.266473716
51
332.334943321
0
ARC
8
drawinglayer
10
0.359985288709
20
1.30659801398
30
0
40
0.623523354174
50
209.266473716
51
333.375320086
0
ARC
8
drawinglayer
10
-0.508657594704
20
0.846311143803
30
0
40
0.881000367782
50
206.229797402
51
332.571288412
0
ARC
8
drawinglayer
10
-0.254328797352
20
0.651798455314
30
0
40
0.94923133505
50
206.45898052
51
333.454044487
0
ARC
8
drawinglayer
10
0.0
20
0.982596542847
30
0
40
1.01728576683
50
206.745459418
51
334.306605686
0
ARC
8
drawinglayer
10
0.508657594704
20
0.846311143803
30
0
40
0.881000367782
50
208.521628582
51
334.763654119
0
ARC
8
drawinglayer
10
0.694873115116
20
0.397440235381
30
0
40
0.694873115116
50
209.782135732
51
321.586770747
0
ARC
8
drawinglayer
10
0.0
20
0.339065833027
30
0
40
0.881294593601
50
207.318417213
51
333.711130649
0
ARC
8
drawinglayer
10
-0.186333210739
20
1.37853622655
30
0
40
0.695461566752
50
207.719487669
51
332.491876461
0
ARC
8
drawinglayer
10
0.0
20
1.35414490622
30
0
40
0.881294593601
50
207.318417213
51
333.711130649
0
ARC
8
drawinglayer
10
0.360456050018
20
-0.553321073924
30
0
40
0.360456050018
50
210.412389306
51
316.392507263
0
ARC
8
drawinglayer
10
0.254328797352
20
0.651798455314
30
0
40
0.94923133505
50
207.60489611
51
334.540429762
0
ARC
8
drawinglayer
10
0.186333210739
20
-0.0569915410077
30
0
40
0.695461566752
50
208.521628582
51
333.310976925
0
ARC
8
drawinglayer
10
0.440662008091
20
0.220993012137
30
0
40
0.763221772711
50
208.86540326
51
334.129217952
0
ARC
8
drawinglayer
10
-0.851048179478
20
0.193924236852
30
0
40
0.491357116587
50
233.445292671
51
330.000025715
0
ARC
8
drawinglayer
10
0.254328797352
20
1.17725634424
30
0
40
0.94923133505
50
207.60489611
51
334.540429762
0
ARC
8
drawinglayer
10
0.694873115116
20
0.92289812431
30
0
40
0.694873115116
50
209.782135732
51
321.586770747
0
ARC
8
drawinglayer
10
-0.623170283192
20
0.0809415226186
30
0
40
0.623170283192
50
218.892164674
51
331.150639559
0
ARC
8
drawinglayer
10
-0.254328797352
20
1.17725634424
30
0
40
0.94923133505
50
206.45898052
51
333.454044487
0
ARC
8
drawinglayer
10
-0.440662008091
20
1.23607208533
30
0
40
0.763221772711
50
206.860050977
51
332.204996493
0
ARC
8
drawinglayer
10
-0.508657594704
20
-0.915689591762
30
0
40
0.881000367782
50
143.285074947
51
145.236340014
0
ARC
8
drawinglayer
10
0.763221772711
20
-0.101566752483
30
0
40
0.440662008091
50
211.099938661
51
306.11633732
0
ARC
8
drawinglayer
10
0.623523354174
20
1.04305994851
30
0
40
0.359985288709
50
211.042642881
51
304.371337059
0
ARC
8
drawinglayer
10
-0.694873115116
20
0.92289812431
30
0
40
0.694873115116
50
218.433798438
51
331.294165486
0
ARC
8
drawinglayer
10
-0.982625965428
20
0.228613460831
30
0
40
0.263302684811
50
248.284899565
51
328.656325093
0
ARC
8
drawinglayer
10
-0.94923133505
20
-0.0263037881574
30
0
40
0.254328797352
50
98.4224795884
51
146.545949647
0
ARC
8
drawinglayer
10
-0.881294593601
20
0.472850312615
30
0
40
-0
50
83.8693515921
51
147.79499764
0
ARC
8
drawinglayer
10
-0.763221772711
20
0.0321883045237
30
0
40
0.440662008091
50
113.892340057
51
146.288863484
0
ARC
8
drawinglayer
10
-0.509098933431
20
0.17397572637
30
0
40
0.509098933431
50
130.622707675
51
146.689017208
0
ARC
8
drawinglayer
10
-0.441456417801
20
0.589510849577
30
0
40
0.254887826407
50
118.590593977
51
147.884780126
0
ARC
8
drawinglayer
10
-0.695461566752
20
0.496741449062
30
0
40
0.186333210739
50
100.657014989
51
147.508117672
0
ARC
8
drawinglayer
10
-0.695461566752
20
0.869407870541
30
0
40
0.186333210739
50
250.634026525
51
329.072636227
0
ARC
8
drawinglayer
10
-0.763221772711
20
0.913512320706
30
0
40
0.440662008091
50
233.903658907
51
330.000025715
0
ARC
8
drawinglayer
10
-0.360456050018
20
1.204854726
30
0
40
0.360456050018
50
223.590418594
51
330.645233488
0
ENDSEC
0
EOF
