0
SECTION
2
HEADER
9
$ACADVER
1
AC1006
9
$INSBASE
10
0.0
20
0.0
30
0.0
9
$EXTMIN
10
0.0
20
0.0
9
$EXTMAX
10
0.0
20
0.0
0
ENDSEC
0
SECTION
2
TABLES
0
TABLE
2
LTYPE
70
1
0
LTYPE
2
CONTINUOUS
70
64
3
Solid line
72
65
73
0
40
0.0
0
ENDTAB
0
TABLE
2
LAYER
70
1
0
LAYER
2
PYDXF
70
64
62
7
6
continuous
0
ENDTAB
0
TABLE
2
STYLE
70
1
0
STYLE
2
STANDARD
70
0
40
0
41
40
50
50
71
0
42
1
3
ARIAL.TTF
4

0
ENDTAB
0
TABLE
2
VIEW
70
0
0
ENDTAB
0
ENDSEC
0
SECTION
2
BLOCKS
0
ENDSEC
0
SECTION
2
ENTITIES
0
ARC
8
drawinglayer
10
0.504372712417
20
-3.30153864909
30
0
40
2.83568876389
50
120.997016717
51
150.000025715
0
ARC
8
drawinglayer
10
0.504372712417
20
-3.30153864909
30
0
40
2.83568876389
50
30.0113188498
51
76.0000054591
0
ARC
8
drawinglayer
10
0.504372712417
20
-3.09541017581
30
0
40
2.83568876389
50
120.997016717
51
150.000025715
0
ARC
8
drawinglayer
10
0.504372712417
20
-3.09541017581
30
0
40
2.83568876389
50
30.0113188498
51
76.0000054591
0
ARC
8
drawinglayer
10
0.504372712417
20
-2.88928170253
30
0
40
2.83568876389
50
120.997016717
51
150.000025715
0
ARC
8
drawinglayer
10
0.504372712417
20
-2.88928170253
30
0
40
2.83568876389
50
30.0113188498
51
76.0000054591
0
ARC
8
drawinglayer
10
0.504372712417
20
-2.68315322925
30
0
40
2.83568876389
50
120.997016717
51
150.000025715
0
ARC
8
drawinglayer
10
0.504372712417
20
-2.68315322925
30
0
40
2.83568876389
50
30.0113188498
51
76.0000054591
0
ARC
8
drawinglayer
10
0.504372712417
20
-2.38135625198
30
0
40
2.83568876389
50
120.997016717
51
150.000025715
0
ARC
8
drawinglayer
10
0.504372712417
20
-2.38135625198
30
0
40
2.83568876389
50
30.0113188498
51
76.0000054591
0
ARC
8
drawinglayer
10
-0.308658638175
20
-3.30153864909
30
0
40
2.83568876389
50
107.990874767
51
150.000025715
0
ARC
8
drawinglayer
10
-0.308658638175
20
-3.30153864909
30
0
40
2.83568876389
50
30.0113188498
51
61.0000276784
0
ARC
8
drawinglayer
10
-0.102530164895
20
-3.30153864909
30
0
40
2.83568876389
50
112.001579333
51
150.000025715
0
ARC
8
drawinglayer
10
-0.102530164895
20
-3.30153864909
30
0
40
2.83568876389
50
30.0113188498
51
63.9999773979
0
ARC
8
drawinglayer
10
0.103598308386
20
-3.30153864909
30
0
40
2.83568876389
50
114.980959868
51
150.000025715
0
ARC
8
drawinglayer
10
0.103598308386
20
-3.30153864909
30
0
40
2.83568876389
50
30.0113188498
51
68.0000249488
0
ARC
8
drawinglayer
10
0.309726781666
20
-3.30153864909
30
0
40
2.83568876389
50
118.017636182
51
150.000025715
0
ARC
8
drawinglayer
10
0.309726781666
20
-3.30153864909
30
0
40
2.83568876389
50
30.0113188498
51
72.0000152039
0
ARC
8
drawinglayer
10
-0.308658638175
20
-2.38135625198
30
0
40
2.83568876389
50
107.990874767
51
150.000025715
0
ARC
8
drawinglayer
10
-0.308658638175
20
-2.38135625198
30
0
40
2.83568876389
50
30.0113188498
51
61.0000276784
0
ARC
8
drawinglayer
10
-0.308658638175
20
-2.58748472526
30
0
40
2.83568876389
50
107.990874767
51
150.000025715
0
ARC
8
drawinglayer
10
-0.308658638175
20
-2.58748472526
30
0
40
2.83568876389
50
30.0113188498
51
61.0000276784
0
ARC
8
drawinglayer
10
-0.308658638175
20
-2.79361319854
30
0
40
2.83568876389
50
107.990874767
51
150.000025715
0
ARC
8
drawinglayer
10
-0.308658638175
20
-2.79361319854
30
0
40
2.83568876389
50
30.0113188498
51
61.0000276784
0
ARC
8
drawinglayer
10
-0.308658638175
20
-2.99974167182
30
0
40
2.83568876389
50
107.990874767
51
150.000025715
0
ARC
8
drawinglayer
10
-0.308658638175
20
-2.99974167182
30
0
40
2.83568876389
50
30.0113188498
51
61.0000276784
0
ARC
8
drawinglayer
10
0.298244239136
20
-2.38135625198
30
0
40
2.83568876389
50
118.017636182
51
150.000025715
0
ARC
8
drawinglayer
10
0.298244239136
20
-2.38135625198
30
0
40
2.83568876389
50
30.0113188498
51
70.9999746683
0
ARC
8
drawinglayer
10
0.0921273761113
20
-2.38135625198
30
0
40
2.83568876389
50
114.980959868
51
150.000025715
0
ARC
8
drawinglayer
10
0.0921273761113
20
-2.38135625198
30
0
40
2.83568876389
50
30.0113188498
51
68.0000249488
0
ARC
8
drawinglayer
10
-0.114001097169
20
-2.38135625198
30
0
40
2.83568876389
50
111.027551081
51
150.000025715
0
ARC
8
drawinglayer
10
-0.114001097169
20
-2.38135625198
30
0
40
2.83568876389
50
30.0113188498
51
63.9999773979
0
ARC
8
drawinglayer
10
-0.805310530792
20
0.110773446185
30
0
40
0.942764343745
50
30.0113188498
51
150.000025715
0
ARC
8
drawinglayer
10
-0.599182057511
20
0.110773446185
30
0
40
0.942764343745
50
30.0113188498
51
150.000025715
0
ARC
8
drawinglayer
10
-0.393053584231
20
0.110773446185
30
0
40
0.942764343745
50
30.0113188498
51
150.000025715
0
ARC
8
drawinglayer
10
-0.186925110951
20
0.110773446185
30
0
40
0.942764343745
50
30.0113188498
51
150.000025715
0
ARC
8
drawinglayer
10
0.0192033623299
20
0.110773446185
30
0
40
0.942764343745
50
30.0113188498
51
150.000025715
0
ARC
8
drawinglayer
10
0.22533183561
20
0.110773446185
30
0
40
0.942764343745
50
30.0113188498
51
150.000025715
0
ARC
8
drawinglayer
10
0.431448698636
20
0.110773446185
30
0
40
0.942764343745
50
30.0113188498
51
150.000025715
0
ARC
8
drawinglayer
10
0.637577171916
20
0.110773446185
30
0
40
0.942764343745
50
30.0113188498
51
150.000025715
0
ARC
8
drawinglayer
10
0.814726447871
20
0.110773446185
30
0
40
0.942764343745
50
30.0113188498
51
150.000025715
0
ARC
8
drawinglayer
10
-0.805310530792
20
-1.95049967636
30
0
40
0.942764343745
50
30.0113188498
51
150.000025715
0
ARC
8
drawinglayer
10
-0.805310530792
20
-1.74437120308
30
0
40
0.942764343745
50
30.0113188498
51
150.000025715
0
ARC
8
drawinglayer
10
-0.805310530792
20
-1.53825434006
30
0
40
0.942764343745
50
30.0113188498
51
150.000025715
0
ARC
8
drawinglayer
10
-0.805310530792
20
-1.33212586678
30
0
40
0.942764343745
50
30.0113188498
51
150.000025715
0
ARC
8
drawinglayer
10
-0.805310530792
20
-1.1259973935
30
0
40
0.942764343745
50
30.0113188498
51
150.000025715
0
ARC
8
drawinglayer
10
-0.805310530792
20
-0.919868920217
30
0
40
0.942764343745
50
30.0113188498
51
150.000025715
0
ARC
8
drawinglayer
10
-0.805310530792
20
-0.713740446937
30
0
40
0.942764343745
50
30.0113188498
51
150.000025715
0
ARC
8
drawinglayer
10
-0.805310530792
20
-0.507611973656
30
0
40
0.942764343745
50
30.0113188498
51
150.000025715
0
ARC
8
drawinglayer
10
-0.805310530792
20
-0.301483500376
30
0
40
0.942764343745
50
30.0113188498
51
150.000025715
0
ARC
8
drawinglayer
10
-0.805310530792
20
-0.0953550270954
30
0
40
0.942764343745
50
30.0113188498
51
150.000025715
0
ARC
8
drawinglayer
10
0.814726447871
20
-1.95049967636
30
0
40
0.942764343745
50
30.0113188498
51
150.000025715
0
ARC
8
drawinglayer
10
0.608597974591
20
-1.95049967636
30
0
40
0.942764343745
50
30.0113188498
51
150.000025715
0
ARC
8
drawinglayer
10
0.402469501311
20
-1.95049967636
30
0
40
0.942764343745
50
30.0113188498
51
150.000025715
0
ARC
8
drawinglayer
10
0.19634102803
20
-1.95049967636
30
0
40
0.942764343745
50
30.0113188498
51
150.000025715
0
ARC
8
drawinglayer
10
-0.00977583499505
20
-1.95049967636
30
0
40
0.942764343745
50
30.0113188498
51
150.000025715
0
ARC
8
drawinglayer
10
-0.215904308275
20
-1.95049967636
30
0
40
0.942764343745
50
30.0113188498
51
150.000025715
0
ARC
8
drawinglayer
10
-0.422032781556
20
-1.95049967636
30
0
40
0.942764343745
50
30.0113188498
51
150.000025715
0
ARC
8
drawinglayer
10
-0.628161254836
20
-1.95049967636
30
0
40
0.942764343745
50
30.0113188498
51
150.000025715
0
ARC
8
drawinglayer
10
0.814726447871
20
-0.0953550270954
30
0
40
0.942764343745
50
30.0113188498
51
150.000025715
0
ARC
8
drawinglayer
10
0.814726447871
20
-0.301483500376
30
0
40
0.942764343745
50
30.0113188498
51
150.000025715
0
ARC
8
drawinglayer
10
0.814726447871
20
-0.507611973656
30
0
40
0.942764343745
50
30.0113188498
51
150.000025715
0
ARC
8
drawinglayer
10
0.814726447871
20
-0.713740446937
30
0
40
0.942764343745
50
30.0113188498
51
150.000025715
0
ARC
8
drawinglayer
10
0.814726447871
20
-0.919868920217
30
0
40
0.942764343745
50
30.0113188498
51
150.000025715
0
ARC
8
drawinglayer
10
0.814726447871
20
-1.1259973935
30
0
40
0.942764343745
50
30.0113188498
51
150.000025715
0
ARC
8
drawinglayer
10
0.814726447871
20
-1.33212586678
30
0
40
0.942764343745
50
30.0113188498
51
150.000025715
0
ARC
8
drawinglayer
10
0.814726447871
20
-1.53825434006
30
0
40
0.942764343745
50
30.0113188498
51
150.000025715
0
ARC
8
drawinglayer
10
0.814726447871
20
-1.74437120308
30
0
40
0.942764343745
50
30.0113188498
51
150.000025715
0
ENDSEC
0
EOF
