0
SECTION
2
HEADER
9
$ACADVER
1
AC1006
9
$INSBASE
10
0.0
20
0.0
30
0.0
9
$EXTMIN
10
0.0
20
0.0
9
$EXTMAX
10
0.0
20
0.0
0
ENDSEC
0
SECTION
2
TABLES
0
TABLE
2
LTYPE
70
1
0
LTYPE
2
CONTINUOUS
70
64
3
Solid line
72
65
73
0
40
0.0
0
ENDTAB
0
TABLE
2
LAYER
70
1
0
LAYER
2
PYDXF
70
64
62
7
6
continuous
0
ENDTAB
0
TABLE
2
STYLE
70
1
0
STYLE
2
STANDARD
70
0
40
0
41
40
50
50
71
0
42
1
3
ARIAL.TTF
4

0
ENDTAB
0
TABLE
2
VIEW
70
0
0
ENDTAB
0
ENDSEC
0
SECTION
2
BLOCKS
0
ENDSEC
0
SECTION
2
ENTITIES
0
ARC
8
drawinglayer
10
0.632887474516
20
0.0242653274327
30
0
40
0.531986866828
50
303.002369
51
330.000025715
0
ARC
8
drawinglayer
10
0.632887474516
20
0.0242653274327
30
0
40
0.531986866828
50
210.01131885
51
257.999971939
0
ARC
8
drawinglayer
10
0.632887474516
20
0.163685484952
30
0
40
0.515599031436
50
303.002369
51
330.000025715
0
ARC
8
drawinglayer
10
0.632887474516
20
0.163685484952
30
0
40
0.515599031436
50
210.01131885
51
257.999971939
0
ARC
8
drawinglayer
10
0.532029056916
20
-0.268268684558
30
0
40
0.559362206421
50
300.022988465
51
330.000025715
0
ARC
8
drawinglayer
10
0.532029056916
20
-0.268268684558
30
0
40
0.559362206421
50
210.01131885
51
252.999998444
0
ARC
8
drawinglayer
10
0.632887474516
20
-0.261409781772
30
0
40
0.56557017643
50
303.002369
51
330.000025715
0
ARC
8
drawinglayer
10
0.632887474516
20
-0.261409781772
30
0
40
0.56557017643
50
210.01131885
51
256.999988699
0
ARC
8
drawinglayer
10
0.211625478594
20
-0.150642720778
30
0
40
0.523253518729
50
287.016846515
51
330.000025715
0
ARC
8
drawinglayer
10
0.211625478594
20
-0.150642720778
30
0
40
0.523253518729
50
210.01131885
51
239.999987143
0
ARC
8
drawinglayer
10
0.211625478594
20
-0.290056851143
30
0
40
0.539647381276
50
287.016846515
51
330.000025715
0
ARC
8
drawinglayer
10
0.211625478594
20
-0.290056851143
30
0
40
0.539647381276
50
210.01131885
51
239.999987143
0
ARC
8
drawinglayer
10
0.312483896194
20
0.141891291213
30
0
40
0.495878179136
50
291.027551081
51
330.000025715
0
ARC
8
drawinglayer
10
0.312483896194
20
0.141891291213
30
0
40
0.495878179136
50
210.01131885
51
243.999977398
0
ARC
8
drawinglayer
10
0.211625478594
20
0.135032388426
30
0
40
0.489670209127
50
287.016846515
51
330.000025715
0
ARC
8
drawinglayer
10
0.211625478594
20
0.135032388426
30
0
40
0.489670209127
50
210.01131885
51
239.999987143
0
ARC
8
drawinglayer
10
0.632887474516
20
-0.166180727267
30
0
40
0.554377748948
50
303.002369
51
330.000025715
0
ARC
8
drawinglayer
10
0.632887474516
20
-0.166180727267
30
0
40
0.554377748948
50
210.01131885
51
257.999971939
0
ARC
8
drawinglayer
10
0.632887474516
20
-0.0709637270723
30
0
40
0.543179294311
50
303.002369
51
330.000025715
0
ARC
8
drawinglayer
10
0.632887474516
20
-0.0709637270723
30
0
40
0.543179294311
50
210.01131885
51
257.999971939
0
ARC
8
drawinglayer
10
0.318426671368
20
-0.282794128948
30
0
40
0.546216980606
50
292.001579333
51
330.000025715
0
ARC
8
drawinglayer
10
0.318426671368
20
-0.282794128948
30
0
40
0.546216980606
50
210.01131885
51
243.999977398
0
ARC
8
drawinglayer
10
0.425227864142
20
-0.275531406753
30
0
40
0.552792607091
50
296.012283899
51
330.000025715
0
ARC
8
drawinglayer
10
0.425227864142
20
-0.275531406753
30
0
40
0.552792607091
50
210.01131885
51
248.000024949
0
ARC
8
drawinglayer
10
0.211625478594
20
0.039803333921
30
0
40
0.500862636609
50
287.016846515
51
330.000025715
0
ARC
8
drawinglayer
10
0.211625478594
20
0.039803333921
30
0
40
0.500862636609
50
210.01131885
51
239.999987143
0
ARC
8
drawinglayer
10
0.211625478594
20
-0.0554136662734
30
0
40
0.512061091247
50
287.016846515
51
330.000025715
0
ARC
8
drawinglayer
10
0.211625478594
20
-0.0554136662734
30
0
40
0.512061091247
50
210.01131885
51
239.999987143
0
ARC
8
drawinglayer
10
0.526086281742
20
0.156422762758
30
0
40
0.509023404951
50
298.991664434
51
330.000025715
0
ARC
8
drawinglayer
10
0.526086281742
20
0.156422762758
30
0
40
0.509023404951
50
210.01131885
51
252.999998444
0
ARC
8
drawinglayer
10
0.419285088968
20
0.149154013407
30
0
40
0.502447778466
50
294.980959868
51
330.000025715
0
ARC
8
drawinglayer
10
0.419285088968
20
0.149154013407
30
0
40
0.502447778466
50
210.01131885
51
248.000024949
0
ARC
8
drawinglayer
10
0.641210976053
20
1.52320078112
30
0
40
1.46270622289
50
210.01131885
51
330.000025715
0
ARC
8
drawinglayer
10
0.732992497698
20
1.52944491406
30
0
40
1.46835366745
50
210.01131885
51
330.000025715
0
ARC
8
drawinglayer
10
-0.106403400521
20
1.37712664409
30
0
40
1.42788734644
50
210.01131885
51
330.000025715
0
ARC
8
drawinglayer
10
-0.106403400521
20
1.47234967144
30
0
40
1.41669491896
50
210.01131885
51
330.000025715
0
ARC
8
drawinglayer
10
-0.0146158517199
20
0.526357503733
30
0
40
1.53429074696
50
210.01131885
51
330.000025715
0
ARC
8
drawinglayer
10
-0.106403400521
20
0.520113370792
30
0
40
1.5286433024
50
210.01131885
51
330.000025715
0
ARC
8
drawinglayer
10
0.732992497698
20
0.672431640757
30
0
40
1.56910962341
50
210.01131885
51
330.000025715
0
ARC
8
drawinglayer
10
0.732992497698
20
0.577208613408
30
0
40
1.58030205089
50
210.01131885
51
330.000025715
0
ARC
8
drawinglayer
10
0.000397792252996
20
1.47961842079
30
0
40
1.42327054544
50
210.01131885
51
330.000025715
0
ARC
8
drawinglayer
10
0.107198985027
20
1.48688114299
30
0
40
1.42984014477
50
210.01131885
51
330.000025715
0
ARC
8
drawinglayer
10
0.214000177801
20
1.49414386518
30
0
40
1.43641577126
50
210.01131885
51
330.000025715
0
ARC
8
drawinglayer
10
0.320801370575
20
1.50140658738
30
0
40
1.44298537059
50
210.01131885
51
330.000025715
0
ARC
8
drawinglayer
10
0.427608590505
20
1.50867533673
30
0
40
1.44956099707
50
210.01131885
51
330.000025715
0
ARC
8
drawinglayer
10
0.534409783279
20
1.51593805892
30
0
40
1.4561305964
50
210.01131885
51
330.000025715
0
ARC
8
drawinglayer
10
-0.106403400521
20
0.615336398142
30
0
40
1.51744484776
50
210.01131885
51
330.000025715
0
ARC
8
drawinglayer
10
-0.106403400521
20
0.710559425492
30
0
40
1.50625242028
50
210.01131885
51
330.000025715
0
ARC
8
drawinglayer
10
-0.106403400521
20
0.805788479997
30
0
40
1.4950599928
50
210.01131885
51
330.000025715
0
ARC
8
drawinglayer
10
-0.106403400521
20
0.901005480191
30
0
40
1.48386153816
50
210.01131885
51
330.000025715
0
ARC
8
drawinglayer
10
-0.106403400521
20
0.996234534696
30
0
40
1.47266911068
50
210.01131885
51
330.000025715
0
ARC
8
drawinglayer
10
-0.106403400521
20
1.09145756205
30
0
40
1.4614766832
50
210.01131885
51
330.000025715
0
ARC
8
drawinglayer
10
-0.106403400521
20
1.1866805894
30
0
40
1.45027822856
50
210.01131885
51
330.000025715
0
ARC
8
drawinglayer
10
-0.106403400521
20
1.28190361675
30
0
40
1.43908580108
50
210.01131885
51
330.000025715
0
ARC
8
drawinglayer
10
0.626191304924
20
0.569945891213
30
0
40
1.57373245156
50
210.01131885
51
330.000025715
0
ARC
8
drawinglayer
10
0.51939011215
20
0.562677141863
30
0
40
1.56715682508
50
210.01131885
51
330.000025715
0
ARC
8
drawinglayer
10
0.412588919376
20
0.555414419668
30
0
40
1.56058119859
50
210.01131885
51
330.000025715
0
ARC
8
drawinglayer
10
0.305787726602
20
0.548151697473
30
0
40
1.55401159926
50
210.01131885
51
330.000025715
0
ARC
8
drawinglayer
10
0.198986533828
20
0.540882948123
30
0
40
1.54743597278
50
210.01131885
51
330.000025715
0
ARC
8
drawinglayer
10
0.0921853410541
20
0.533620225928
30
0
40
1.54086637345
50
210.01131885
51
330.000025715
0
ARC
8
drawinglayer
10
0.732992497698
20
1.43422188671
30
0
40
1.47955212209
50
210.01131885
51
330.000025715
0
ARC
8
drawinglayer
10
0.732992497698
20
1.33899885936
30
0
40
1.49074454957
50
210.01131885
51
330.000025715
0
ARC
8
drawinglayer
10
0.732992497698
20
1.24376980486
30
0
40
1.50193697705
50
210.01131885
51
330.000025715
0
ARC
8
drawinglayer
10
0.732992497698
20
1.14855280466
30
0
40
1.51313543169
50
210.01131885
51
330.000025715
0
ARC
8
drawinglayer
10
0.732992497698
20
1.05332375016
30
0
40
1.52432785917
50
210.01131885
51
330.000025715
0
ARC
8
drawinglayer
10
0.732992497698
20
0.958106749962
30
0
40
1.53552631381
50
210.01131885
51
330.000025715
0
ARC
8
drawinglayer
10
0.732992497698
20
0.862877695457
30
0
40
1.54671874129
50
210.01131885
51
330.000025715
0
ARC
8
drawinglayer
10
0.732992497698
20
0.767654668107
30
0
40
1.55791116877
50
210.01131885
51
330.000025715
0
ENDSEC
0
EOF
