0
SECTION
2
HEADER
9
$ACADVER
1
AC1006
9
$INSBASE
10
0.0
20
0.0
30
0.0
9
$EXTMIN
10
0.0
20
0.0
9
$EXTMAX
10
0.0
20
0.0
0
ENDSEC
0
SECTION
2
TABLES
0
TABLE
2
LTYPE
70
1
0
LTYPE
2
CONTINUOUS
70
64
3
Solid line
72
65
73
0
40
0.0
0
ENDTAB
0
TABLE
2
LAYER
70
1
0
LAYER
2
PYDXF
70
64
62
7
6
continuous
0
ENDTAB
0
TABLE
2
STYLE
70
1
0
STYLE
2
STANDARD
70
0
40
0
41
40
50
50
71
0
42
1
3
ARIAL.TTF
4

0
ENDTAB
0
TABLE
2
VIEW
70
0
0
ENDTAB
0
ENDSEC
0
SECTION
2
BLOCKS
0
ENDSEC
0
SECTION
2
ENTITIES
0
ARC
8
drawinglayer
10
-0.299073373676
20
0.199461043873
30
0
40
0.225179652042
50
289.423269255
51
330.353884449
0
ARC
8
drawinglayer
10
-0.299073373676
20
0.199461043873
30
0
40
0.225179652042
50
208.464332803
51
231.225940651
0
ARC
8
drawinglayer
10
-0.299073373676
20
0.330512481089
30
0
40
0.225179652042
50
289.423269255
51
330.353884449
0
ARC
8
drawinglayer
10
-0.299073373676
20
0.330512481089
30
0
40
0.225179652042
50
208.464332803
51
231.225940651
0
ARC
8
drawinglayer
10
-0.299073373676
20
0.461516641452
30
0
40
0.225179652042
50
289.423269255
51
330.353884449
0
ARC
8
drawinglayer
10
-0.299073373676
20
0.461516641452
30
0
40
0.225179652042
50
208.464332803
51
231.225940651
0
ARC
8
drawinglayer
10
-0.299073373676
20
0.592568078669
30
0
40
0.225179652042
50
289.423269255
51
330.353884449
0
ARC
8
drawinglayer
10
-0.299073373676
20
0.592568078669
30
0
40
0.225179652042
50
208.464332803
51
231.225940651
0
ARC
8
drawinglayer
10
-0.299073373676
20
0.0684096066566
30
0
40
0.225179652042
50
289.423269255
51
330.353884449
0
ARC
8
drawinglayer
10
-0.299073373676
20
0.0684096066566
30
0
40
0.225179652042
50
208.464332803
51
231.225940651
0
ARC
8
drawinglayer
10
0.601928895613
20
1.99900718608
30
0
40
1.35571104387
50
203.536895765
51
341.019264622
0
ARC
8
drawinglayer
10
0.601928895613
20
1.87017776097
30
0
40
1.35571104387
50
203.536895765
51
341.019264622
0
ARC
8
drawinglayer
10
0.601928895613
20
1.741301059
30
0
40
1.35571104387
50
203.536895765
51
341.019264622
0
ARC
8
drawinglayer
10
0.601928895613
20
1.61247163389
30
0
40
1.35571104387
50
203.536895765
51
341.019264622
0
ARC
8
drawinglayer
10
0.601928895613
20
1.48359493192
30
0
40
1.35571104387
50
203.536895765
51
341.019264622
0
ARC
8
drawinglayer
10
0.601928895613
20
1.35471822995
30
0
40
1.35571104387
50
203.536895765
51
341.019264622
0
ARC
8
drawinglayer
10
0.601928895613
20
1.22588880484
30
0
40
1.35571104387
50
203.536895765
51
341.019264622
0
ARC
8
drawinglayer
10
0.601928895613
20
1.09701210287
30
0
40
1.35571104387
50
203.536895765
51
341.019264622
0
ARC
8
drawinglayer
10
0.601928895613
20
0.968182677761
30
0
40
1.35571104387
50
203.536895765
51
341.019264622
0
ARC
8
drawinglayer
10
0.601928895613
20
0.839305975794
30
0
40
1.35571104387
50
203.536895765
51
341.019264622
0
ARC
8
drawinglayer
10
0.601928895613
20
2.12788388805
30
0
40
1.35571104387
50
203.536895765
51
341.019264622
0
ARC
8
drawinglayer
10
-0.686649016641
20
0.968182677761
30
0
40
1.35571104387
50
199.755374317
51
337.32930183
0
ARC
8
drawinglayer
10
-0.686649016641
20
1.09701210287
30
0
40
1.35571104387
50
199.755374317
51
337.32930183
0
ARC
8
drawinglayer
10
-0.686649016641
20
1.22588880484
30
0
40
1.35571104387
50
199.755374317
51
337.32930183
0
ARC
8
drawinglayer
10
-0.686649016641
20
1.35471822995
30
0
40
1.35571104387
50
199.755374317
51
337.32930183
0
ARC
8
drawinglayer
10
-0.686649016641
20
1.48359493192
30
0
40
1.35571104387
50
199.755374317
51
337.32930183
0
ARC
8
drawinglayer
10
-0.686649016641
20
1.61247163389
30
0
40
1.35571104387
50
199.755374317
51
337.32930183
0
ARC
8
drawinglayer
10
-0.686649016641
20
1.741301059
30
0
40
1.35571104387
50
199.755374317
51
337.32930183
0
ARC
8
drawinglayer
10
-0.686649016641
20
1.87017776097
30
0
40
1.35571104387
50
199.755374317
51
337.32930183
0
ARC
8
drawinglayer
10
-0.686649016641
20
1.99900718608
30
0
40
1.35571104387
50
199.755374317
51
337.32930183
0
ARC
8
drawinglayer
10
-0.686649016641
20
2.12788388805
30
0
40
1.35571104387
50
199.755374317
51
337.32930183
0
ARC
8
drawinglayer
10
-0.686649016641
20
0.839305975794
30
0
40
1.35571104387
50
199.755374317
51
337.32930183
0
ARC
8
drawinglayer
10
-0.557772314675
20
2.12788388805
30
0
40
1.35571104387
50
200.099148994
51
337.758447218
0
ARC
8
drawinglayer
10
-0.428895612708
20
2.12788388805
30
0
40
1.35571104387
50
200.442923671
51
338.172409225
0
ARC
8
drawinglayer
10
-0.300066187595
20
2.12788388805
30
0
40
1.35571104387
50
200.786698348
51
338.571932696
0
ARC
8
drawinglayer
10
-0.171189485628
20
2.12788388805
30
0
40
1.35571104387
50
201.130473025
51
338.957819771
0
ARC
8
drawinglayer
10
-0.0423600605144
20
2.12788388805
30
0
40
1.35571104387
50
201.474247702
51
339.330586112
0
ARC
8
drawinglayer
10
0.0865166414523
20
2.12788388805
30
0
40
1.35571104387
50
201.875318159
51
339.690976566
0
ARC
8
drawinglayer
10
0.215393343419
20
2.12788388805
30
0
40
1.35571104387
50
202.276388616
51
340.039449497
0
ARC
8
drawinglayer
10
0.344222768533
20
2.12788388805
30
0
40
1.35571104387
50
202.677459072
51
340.376692455
0
ARC
8
drawinglayer
10
0.473099470499
20
2.12788388805
30
0
40
1.35571104387
50
203.135825308
51
340.703106511
0
ARC
8
drawinglayer
10
0.473099470499
20
0.839305975794
30
0
40
1.35571104387
50
203.135825308
51
340.703106511
0
ARC
8
drawinglayer
10
0.344222768533
20
0.839305975794
30
0
40
1.35571104387
50
202.677459072
51
340.376692455
0
ARC
8
drawinglayer
10
0.215393343419
20
0.839305975794
30
0
40
1.35571104387
50
202.276388616
51
340.039449497
0
ARC
8
drawinglayer
10
0.0865166414523
20
0.839305975794
30
0
40
1.35571104387
50
201.875318159
51
339.690976566
0
ARC
8
drawinglayer
10
-0.0423600605144
20
0.839305975794
30
0
40
1.35571104387
50
201.474247702
51
339.330586112
0
ARC
8
drawinglayer
10
-0.171189485628
20
0.839305975794
30
0
40
1.35571104387
50
201.130473025
51
338.957819771
0
ARC
8
drawinglayer
10
-0.300066187595
20
0.839305975794
30
0
40
1.35571104387
50
200.786698348
51
338.571932696
0
ARC
8
drawinglayer
10
-0.428895612708
20
0.839305975794
30
0
40
1.35571104387
50
200.442923671
51
338.172409225
0
ARC
8
drawinglayer
10
-0.557772314675
20
0.839305975794
30
0
40
1.35571104387
50
200.099148994
51
337.758447218
0
ARC
8
drawinglayer
10
0.0940336611195
20
0.0684096066566
30
0
40
0.225179652042
50
305.523383298
51
331.800144515
0
ARC
8
drawinglayer
10
0.0940336611195
20
0.0684096066566
30
0
40
0.225179652042
50
209.896727291
51
244.923871843
0
ARC
8
drawinglayer
10
-0.0370177760968
20
0.0684096066566
30
0
40
0.225179652042
50
300.59594626
51
331.332610954
0
ARC
8
drawinglayer
10
-0.0370177760968
20
0.0684096066566
30
0
40
0.225179652042
50
209.438361055
51
239.926419362
0
ARC
8
drawinglayer
10
-0.168069213313
20
0.0684096066566
30
0
40
0.225179652042
50
295.553917663
51
330.850753449
0
ARC
8
drawinglayer
10
-0.168069213313
20
0.0684096066566
30
0
40
0.225179652042
50
208.922699039
51
235.022645481
0
ARC
8
drawinglayer
10
0.225037821483
20
0.0684096066566
30
0
40
0.225179652042
50
309.362200525
51
332.253812497
0
ARC
8
drawinglayer
10
0.225037821483
20
0.0684096066566
30
0
40
0.225179652042
50
210.412389306
51
251.035096981
0
ARC
8
drawinglayer
10
0.225037821483
20
0.461516641452
30
0
40
0.225179652042
50
309.362200525
51
332.253812497
0
ARC
8
drawinglayer
10
0.225037821483
20
0.461516641452
30
0
40
0.225179652042
50
210.412389306
51
251.035096981
0
ARC
8
drawinglayer
10
0.225037821483
20
0.330512481089
30
0
40
0.225179652042
50
309.362200525
51
332.253812497
0
ARC
8
drawinglayer
10
0.225037821483
20
0.330512481089
30
0
40
0.225179652042
50
210.412389306
51
251.035096981
0
ARC
8
drawinglayer
10
0.225037821483
20
0.199461043873
30
0
40
0.225179652042
50
309.362200525
51
332.253812497
0
ARC
8
drawinglayer
10
0.225037821483
20
0.199461043873
30
0
40
0.225179652042
50
210.412389306
51
251.035096981
0
ARC
8
drawinglayer
10
0.225037821483
20
0.592568078669
30
0
40
0.225179652042
50
309.362200525
51
332.253812497
0
ARC
8
drawinglayer
10
0.225037821483
20
0.592568078669
30
0
40
0.225179652042
50
210.412389306
51
251.035096981
0
ARC
8
drawinglayer
10
-0.168069213313
20
0.592568078669
30
0
40
0.225179652042
50
295.553917663
51
330.850753449
0
ARC
8
drawinglayer
10
-0.168069213313
20
0.592568078669
30
0
40
0.225179652042
50
208.922699039
51
235.022645481
0
ARC
8
drawinglayer
10
-0.0370177760968
20
0.592568078669
30
0
40
0.225179652042
50
300.59594626
51
331.332610954
0
ARC
8
drawinglayer
10
-0.0370177760968
20
0.592568078669
30
0
40
0.225179652042
50
209.438361055
51
239.926419362
0
ARC
8
drawinglayer
10
0.0940336611195
20
0.592568078669
30
0
40
0.225179652042
50
305.523383298
51
331.800144515
0
ARC
8
drawinglayer
10
0.0940336611195
20
0.592568078669
30
0
40
0.225179652042
50
209.896727291
51
244.923871843
0
ENDSEC
0
EOF
