0
SECTION
2
HEADER
9
$ACADVER
1
AC1006
9
$INSBASE
10
0.0
20
0.0
30
0.0
9
$EXTMIN
10
0.0
20
0.0
9
$EXTMAX
10
0.0
20
0.0
0
ENDSEC
0
SECTION
2
TABLES
0
TABLE
2
LTYPE
70
1
0
LTYPE
2
CONTINUOUS
70
64
3
Solid line
72
65
73
0
40
0.0
0
ENDTAB
0
TABLE
2
LAYER
70
1
0
LAYER
2
PYDXF
70
64
62
7
6
continuous
0
ENDTAB
0
TABLE
2
STYLE
70
1
0
STYLE
2
STANDARD
70
0
40
0
41
40
50
50
71
0
42
1
3
ARIAL.TTF
4

0
ENDTAB
0
TABLE
2
VIEW
70
0
0
ENDTAB
0
ENDSEC
0
SECTION
2
BLOCKS
0
ENDSEC
0
SECTION
2
ENTITIES
0
ARC
8
drawinglayer
10
-0.276694028009
20
-1.63931116295
30
0
40
1.555631633
50
99.6829867377
51
138.532390037
0
ARC
8
drawinglayer
10
-0.276694028009
20
-1.63931116295
30
0
40
1.555631633
50
39.637009808
51
54.6947417345
0
ARC
8
drawinglayer
10
-0.276694028009
20
-1.8048740874
30
0
40
1.555631633
50
99.6829867377
51
138.532390037
0
ARC
8
drawinglayer
10
-0.276694028009
20
-1.8048740874
30
0
40
1.555631633
50
39.637009808
51
54.6947417345
0
ARC
8
drawinglayer
10
-0.169913139017
20
-1.30007085818
30
0
40
1.555631633
50
105.35526891
51
139.06885042
0
ARC
8
drawinglayer
10
-0.169913139017
20
-1.30007085818
30
0
40
1.555631633
50
40.1526718236
51
59.4499476594
0
ARC
8
drawinglayer
10
-0.276694028009
20
-1.30007085818
30
0
40
1.555631633
50
99.6829867377
51
138.532390037
0
ARC
8
drawinglayer
10
-0.276694028009
20
-1.30007085818
30
0
40
1.555631633
50
39.637009808
51
54.6947417345
0
ARC
8
drawinglayer
10
0.169327165752
20
-1.46563378263
30
0
40
1.555631633
50
121.569974512
51
140.69914453
0
ARC
8
drawinglayer
10
0.169327165752
20
-1.46563378263
30
0
40
1.555631633
50
41.8142494295
51
74.8246971339
0
ARC
8
drawinglayer
10
0.169327165752
20
-1.30007085818
30
0
40
1.555631633
50
121.569974512
51
140.69914453
0
ARC
8
drawinglayer
10
0.169327165752
20
-1.30007085818
30
0
40
1.555631633
50
41.8142494295
51
74.8246971339
0
ARC
8
drawinglayer
10
0.0625399074863
20
-1.8048740874
30
0
40
1.555631633
50
116.757129033
51
140.19780646
0
ARC
8
drawinglayer
10
0.0625399074863
20
-1.8048740874
30
0
40
1.555631633
50
41.2985874139
51
69.1717236398
0
ARC
8
drawinglayer
10
0.169327165752
20
-1.8048740874
30
0
40
1.555631633
50
121.569974512
51
140.69914453
0
ARC
8
drawinglayer
10
0.169327165752
20
-1.8048740874
30
0
40
1.555631633
50
41.8142494295
51
74.8246971339
0
ARC
8
drawinglayer
10
-0.276694028009
20
-1.41315095977
30
0
40
1.555631633
50
99.6829867377
51
138.532390037
0
ARC
8
drawinglayer
10
-0.276694028009
20
-1.41315095977
30
0
40
1.555631633
50
39.637009808
51
54.6947417345
0
ARC
8
drawinglayer
10
-0.276694028009
20
-1.52623106136
30
0
40
1.555631633
50
99.6829867377
51
138.532390037
0
ARC
8
drawinglayer
10
-0.276694028009
20
-1.52623106136
30
0
40
1.555631633
50
39.637009808
51
54.6947417345
0
ARC
8
drawinglayer
10
0.0562470641625
20
-1.30007085818
30
0
40
1.555631633
50
116.699833253
51
140.167898063
0
ARC
8
drawinglayer
10
0.0562470641625
20
-1.30007085818
30
0
40
1.555631633
50
41.2412916344
51
69.1305852702
0
ARC
8
drawinglayer
10
-0.0568330374274
20
-1.30007085818
30
0
40
1.555631633
50
111.027551081
51
139.624562186
0
ARC
8
drawinglayer
10
-0.0568330374274
20
-1.30007085818
30
0
40
1.555631633
50
40.6683338392
51
64.2768306045
0
ARC
8
drawinglayer
10
0.169327165752
20
-1.69179398581
30
0
40
1.555631633
50
121.569974512
51
140.69914453
0
ARC
8
drawinglayer
10
0.169327165752
20
-1.69179398581
30
0
40
1.555631633
50
41.8142494295
51
74.8246971339
0
ARC
8
drawinglayer
10
0.169327165752
20
-1.57871388422
30
0
40
1.555631633
50
121.569974512
51
140.69914453
0
ARC
8
drawinglayer
10
0.169327165752
20
-1.57871388422
30
0
40
1.555631633
50
41.8142494295
51
74.8246971339
0
ARC
8
drawinglayer
10
-0.163613926419
20
-1.8048740874
30
0
40
1.555631633
50
106.214705602
51
139.100133916
0
ARC
8
drawinglayer
10
-0.163613926419
20
-1.8048740874
30
0
40
1.555631633
50
40.2099676031
51
59.4878774654
0
ARC
8
drawinglayer
10
-0.0505401941036
20
-1.8048740874
30
0
40
1.555631633
50
111.084846861
51
139.655158132
0
ARC
8
drawinglayer
10
-0.0505401941036
20
-1.8048740874
30
0
40
1.555631633
50
40.7256296187
51
64.3165365797
0
ARC
8
drawinglayer
10
-0.349768715715
20
-1.09515218586
30
0
40
0.517191468357
50
33.047995164
51
144.721136365
0
ARC
8
drawinglayer
10
-0.446951107856
20
-1.09515218586
30
0
40
0.517191468357
50
32.6469247074
51
144.240424775
0
ARC
8
drawinglayer
10
0.44178562614
20
-0.982072084266
30
0
40
0.517191468357
50
36.7149250528
51
148.249066693
0
ARC
8
drawinglayer
10
0.44178562614
20
-1.09515218586
30
0
40
0.517191468357
50
36.7149250528
51
148.249066693
0
ARC
8
drawinglayer
10
0.344603233999
20
0.0356424607692
30
0
40
0.517191468357
50
36.2565588167
51
147.850230771
0
ARC
8
drawinglayer
10
0.44178562614
20
0.0356424607692
30
0
40
0.517191468357
50
36.7149250528
51
148.249066693
0
ARC
8
drawinglayer
10
-0.446951107856
20
-0.0774376408207
30
0
40
0.517191468357
50
32.6469247074
51
144.240424775
0
ARC
8
drawinglayer
10
-0.446951107856
20
0.0356424607692
30
0
40
0.517191468357
50
32.6469247074
51
144.240424775
0
ARC
8
drawinglayer
10
0.32870552455
20
-1.09515218586
30
0
40
0.517191468357
50
36.1992630372
51
147.784168738
0
ARC
8
drawinglayer
10
0.21562542296
20
-1.09515218586
30
0
40
0.517191468357
50
35.6263052421
51
147.30695219
0
ARC
8
drawinglayer
10
0.10254532137
20
-1.09515218586
30
0
40
0.517191468357
50
35.053347447
51
146.817015979
0
ARC
8
drawinglayer
10
-0.0105347802202
20
-1.09515218586
30
0
40
0.517191468357
50
34.5376854313
51
146.313959035
0
ARC
8
drawinglayer
10
-0.12361488181
20
-1.09515218586
30
0
40
0.517191468357
50
34.0220234157
51
145.797265696
0
ARC
8
drawinglayer
10
-0.236688614125
20
-1.09515218586
30
0
40
0.517191468357
50
33.5636571796
51
145.266477594
0
ARC
8
drawinglayer
10
0.44178562614
20
-0.0774376408207
30
0
40
0.517191468357
50
36.7149250528
51
148.249066693
0
ARC
8
drawinglayer
10
0.44178562614
20
-0.190511373136
30
0
40
0.517191468357
50
36.7149250528
51
148.249066693
0
ARC
8
drawinglayer
10
0.44178562614
20
-0.303591474726
30
0
40
0.517191468357
50
36.7149250528
51
148.249066693
0
ARC
8
drawinglayer
10
0.44178562614
20
-0.416671576316
30
0
40
0.517191468357
50
36.7149250528
51
148.249066693
0
ARC
8
drawinglayer
10
0.44178562614
20
-0.529751677906
30
0
40
0.517191468357
50
36.7149250528
51
148.249066693
0
ARC
8
drawinglayer
10
0.44178562614
20
-0.642831779496
30
0
40
0.517191468357
50
36.7149250528
51
148.249066693
0
ARC
8
drawinglayer
10
0.44178562614
20
-0.755911881086
30
0
40
0.517191468357
50
36.7149250528
51
148.249066693
0
ARC
8
drawinglayer
10
0.44178562614
20
-0.868991982676
30
0
40
0.517191468357
50
36.7149250528
51
148.249066693
0
ARC
8
drawinglayer
10
-0.333871006266
20
0.0356424607692
30
0
40
0.517191468357
50
33.1052909435
51
144.79871485
0
ARC
8
drawinglayer
10
-0.220790904676
20
0.0356424607692
30
0
40
0.517191468357
50
33.6209529591
51
145.341993432
0
ARC
8
drawinglayer
10
-0.107710803086
20
0.0356424607692
30
0
40
0.517191468357
50
34.0793191952
51
145.870718885
0
ARC
8
drawinglayer
10
0.0053629292294
20
0.0356424607692
30
0
40
0.517191468357
50
34.5949812108
51
146.385464168
0
ARC
8
drawinglayer
10
0.118443030819
20
0.0356424607692
30
0
40
0.517191468357
50
35.167939006
51
146.886687647
0
ARC
8
drawinglayer
10
0.231523132409
20
0.0356424607692
30
0
40
0.517191468357
50
35.6836010216
51
147.374790393
0
ARC
8
drawinglayer
10
-0.446951107856
20
-0.982072084266
30
0
40
0.517191468357
50
32.6469247074
51
144.240424775
0
ARC
8
drawinglayer
10
-0.446951107856
20
-0.868991982676
30
0
40
0.517191468357
50
32.6469247074
51
144.240424775
0
ARC
8
drawinglayer
10
-0.446951107856
20
-0.755911881086
30
0
40
0.517191468357
50
32.6469247074
51
144.240424775
0
ARC
8
drawinglayer
10
-0.446951107856
20
-0.642831779496
30
0
40
0.517191468357
50
32.6469247074
51
144.240424775
0
ARC
8
drawinglayer
10
-0.446951107856
20
-0.529751677906
30
0
40
0.517191468357
50
32.6469247074
51
144.240424775
0
ARC
8
drawinglayer
10
-0.446951107856
20
-0.416671576316
30
0
40
0.517191468357
50
32.6469247074
51
144.240424775
0
ARC
8
drawinglayer
10
-0.446951107856
20
-0.303591474726
30
0
40
0.517191468357
50
32.6469247074
51
144.240424775
0
ARC
8
drawinglayer
10
-0.446951107856
20
-0.190511373136
30
0
40
0.517191468357
50
32.6469247074
51
144.240424775
0
ENDSEC
0
EOF
