0
SECTION
2
HEADER
9
$ACADVER
1
AC1006
9
$INSBASE
10
0.0
20
0.0
30
0.0
9
$EXTMIN
10
0.0
20
0.0
9
$EXTMAX
10
0.0
20
0.0
0
ENDSEC
0
SECTION
2
TABLES
0
TABLE
2
LTYPE
70
1
0
LTYPE
2
CONTINUOUS
70
64
3
Solid line
72
65
73
0
40
0.0
0
ENDTAB
0
TABLE
2
LAYER
70
1
0
LAYER
2
PYDXF
70
64
62
7
6
continuous
0
ENDTAB
0
TABLE
2
STYLE
70
1
0
STYLE
2
STANDARD
70
0
40
0
41
40
50
50
71
0
42
1
3
ARIAL.TTF
4

0
ENDTAB
0
TABLE
2
VIEW
70
0
0
ENDTAB
0
ENDSEC
0
SECTION
2
BLOCKS
0
ENDSEC
0
SECTION
2
ENTITIES
0
ARC
8
drawinglayer
10
-0.262942411206
20
-1.34093979259
30
0
40
1.43354739489
50
109.136790357
51
139.328973259
0
ARC
8
drawinglayer
10
-0.262942411206
20
-1.34093979259
30
0
40
1.43354739489
50
39.0067562334
51
50.9094387652
0
ARC
8
drawinglayer
10
-0.262942411206
20
-1.11054305131
30
0
40
1.43354739489
50
109.136790357
51
139.328973259
0
ARC
8
drawinglayer
10
-0.262942411206
20
-1.11054305131
30
0
40
1.43354739489
50
39.0067562334
51
50.9094387652
0
ARC
8
drawinglayer
10
-0.262942411206
20
-1.57137809922
30
0
40
1.43354739489
50
109.136790357
51
139.328973259
0
ARC
8
drawinglayer
10
-0.262942411206
20
-1.57137809922
30
0
40
1.43354739489
50
39.0067562334
51
50.9094387652
0
ARC
8
drawinglayer
10
0.529210050502
20
0.0127189974437
30
0
40
0.43959515348
50
36.6576292733
51
149.11033685
0
ARC
8
drawinglayer
10
0.529210050502
20
-0.213853731529
30
0
40
0.43959515348
50
36.6576292733
51
149.11033685
0
ARC
8
drawinglayer
10
0.529210050502
20
-0.440468025854
30
0
40
0.43959515348
50
36.6576292733
51
149.11033685
0
ARC
8
drawinglayer
10
0.529210050502
20
-0.667040754827
30
0
40
0.43959515348
50
36.6576292733
51
149.11033685
0
ARC
8
drawinglayer
10
0.529210050502
20
-0.8936134838
30
0
40
0.43959515348
50
36.6576292733
51
149.11033685
0
ARC
8
drawinglayer
10
0.529210050502
20
0.239291726417
30
0
40
0.43959515348
50
36.6576292733
51
149.11033685
0
ARC
8
drawinglayer
10
-0.603695159715
20
-0.667040754827
30
0
40
0.43959515348
50
31.5010091171
51
144.00047005
0
ARC
8
drawinglayer
10
-0.603695159715
20
-0.440468025854
30
0
40
0.43959515348
50
31.5010091171
51
144.00047005
0
ARC
8
drawinglayer
10
-0.603695159715
20
-0.213853731529
30
0
40
0.43959515348
50
31.5010091171
51
144.00047005
0
ARC
8
drawinglayer
10
-0.603695159715
20
0.0127189974437
30
0
40
0.43959515348
50
31.5010091171
51
144.00047005
0
ARC
8
drawinglayer
10
-0.603695159715
20
0.239291726417
30
0
40
0.43959515348
50
31.5010091171
51
144.00047005
0
ARC
8
drawinglayer
10
-0.603695159715
20
-0.8936134838
30
0
40
0.43959515348
50
31.5010091171
51
144.00047005
0
ARC
8
drawinglayer
10
-0.377080865391
20
0.239291726417
30
0
40
0.43959515348
50
32.4177415894
51
145.136931837
0
ARC
8
drawinglayer
10
-0.150508136417
20
0.239291726417
30
0
40
0.43959515348
50
33.3917698411
51
146.212144435
0
ARC
8
drawinglayer
10
0.0760645925556
20
0.239291726417
30
0
40
0.43959515348
50
34.4230938723
51
147.230290437
0
ARC
8
drawinglayer
10
0.302637321529
20
0.239291726417
30
0
40
0.43959515348
50
35.5117136831
51
148.195151364
0
ARC
8
drawinglayer
10
0.302637321529
20
-0.8936134838
30
0
40
0.43959515348
50
35.5117136831
51
148.195151364
0
ARC
8
drawinglayer
10
0.0760645925556
20
-0.8936134838
30
0
40
0.43959515348
50
34.4230938723
51
147.230290437
0
ARC
8
drawinglayer
10
-0.150508136417
20
-0.8936134838
30
0
40
0.43959515348
50
33.3917698411
51
146.212144435
0
ARC
8
drawinglayer
10
-0.377080865391
20
-0.8936134838
30
0
40
0.43959515348
50
32.4177415894
51
145.136931837
0
ARC
8
drawinglayer
10
-0.0325456699295
20
-1.57137809922
30
0
40
1.43354739489
50
120.767833599
51
140.462455665
0
ARC
8
drawinglayer
10
-0.0325456699295
20
-1.57137809922
30
0
40
1.43354739489
50
40.0953760441
51
59.8433404815
0
ARC
8
drawinglayer
10
0.197851071347
20
-1.57137809922
30
0
40
1.43354739489
50
129.705975203
51
141.544085391
0
ARC
8
drawinglayer
10
0.197851071347
20
-1.57137809922
30
0
40
1.43354739489
50
41.2412916344
51
71.4361674378
0
ARC
8
drawinglayer
10
0.197851071347
20
-1.34093979259
30
0
40
1.43354739489
50
129.705975203
51
141.544085391
0
ARC
8
drawinglayer
10
0.197851071347
20
-1.34093979259
30
0
40
1.43354739489
50
41.2412916344
51
71.4361674378
0
ARC
8
drawinglayer
10
0.197851071347
20
-1.11054305131
30
0
40
1.43354739489
50
129.705975203
51
141.544085391
0
ARC
8
drawinglayer
10
0.197851071347
20
-1.11054305131
30
0
40
1.43354739489
50
41.2412916344
51
71.4361674378
0
ARC
8
drawinglayer
10
-0.0325456699295
20
-1.11054305131
30
0
40
1.43354739489
50
120.767833599
51
140.462455665
0
ARC
8
drawinglayer
10
-0.0325456699295
20
-1.11054305131
30
0
40
1.43354739489
50
40.0953760441
51
59.8433404815
0
ENDSEC
0
EOF
