0
SECTION
2
HEADER
9
$ACADVER
1
AC1006
9
$INSBASE
10
0.0
20
0.0
30
0.0
9
$EXTMIN
10
0.0
20
0.0
9
$EXTMAX
10
0.0
20
0.0
0
ENDSEC
0
SECTION
2
TABLES
0
TABLE
2
LTYPE
70
1
0
LTYPE
2
CONTINUOUS
70
64
3
Solid line
72
65
73
0
40
0.0
0
ENDTAB
0
TABLE
2
LAYER
70
1
0
LAYER
2
PYDXF
70
64
62
7
6
continuous
0
ENDTAB
0
TABLE
2
STYLE
70
1
0
STYLE
2
STANDARD
70
0
40
0
41
40
50
50
71
0
42
1
3
ARIAL.TTF
4

0
ENDTAB
0
TABLE
2
VIEW
70
0
0
ENDTAB
0
ENDSEC
0
SECTION
2
BLOCKS
0
ENDSEC
0
SECTION
2
ENTITIES
0
ARC
8
drawinglayer
10
0.190647900853
20
1.44780993017
30
0
40
1.21158648042
50
204.568219796
51
337.487667364
0
ARC
8
drawinglayer
10
0.292675818152
20
1.01770158076
30
0
40
0.830811619596
50
207.203825654
51
335.502941562
0
ARC
8
drawinglayer
10
0.387979918601
20
1.03024870328
30
0
40
0.843358742112
50
207.433008772
51
335.823282265
0
ARC
8
drawinglayer
10
0.387979918601
20
1.47378919372
30
0
40
1.23756574397
50
204.969290253
51
338.124509954
0
ARC
8
drawinglayer
10
0.706874168328
20
0.721211662007
30
0
40
0.389684111812
50
211.21453022
51
259.935194188
0
ARC
8
drawinglayer
10
0.706874168328
20
0.576575041267
30
0
40
0.291018102938
50
211.787488015
51
231.317155532
0
ARC
8
drawinglayer
10
0.648356433947
20
0.922397480312
30
0
40
0.735507519147
50
208.922699039
51
323.132668174
0
ARC
8
drawinglayer
10
0.706874168328
20
0.846134834121
30
0
40
0.659244872957
50
209.610248393
51
308.041590103
0
ARC
8
drawinglayer
10
1.04826764161
20
1.09257182363
30
0
40
0.856348373887
50
209.552952614
51
318.398776279
0
ARC
8
drawinglayer
10
0.927102409182
20
1.25047791242
30
0
40
1.01425446267
50
208.120558126
51
333.31172177
0
ARC
8
drawinglayer
10
-0.272307804406
20
0.330138051754
30
0
40
0.0939146020067
50
281.401860123
51
329.64576591
0
ARC
8
drawinglayer
10
-0.151142571981
20
0.172232931258
30
0
40
0.0639905184887
50
115.954988119
51
149.170783898
0
ARC
8
drawinglayer
10
0.127604371546
20
0.401645417911
30
0
40
0.214755456747
50
307.414144022
51
331.563341059
0
ARC
8
drawinglayer
10
0.0690856688728
20
0.477908064102
30
0
40
0.291018102938
50
292.058875113
51
331.810973418
0
ARC
8
drawinglayer
10
0.927102409182
20
0.172232931258
30
0
40
0.0639905184887
50
34.6522769904
51
64.4177782221
0
ARC
8
drawinglayer
10
1.04826764161
20
0.330138051754
30
0
40
0.0939146020067
50
214.193910754
51
259.356105744
0
ARC
8
drawinglayer
10
0.387979918601
20
0.901964591029
30
0
40
0.475131972093
50
209.610248393
51
333.745966483
0
ARC
8
drawinglayer
10
0.473427778882
20
0.846135802412
30
0
40
0.42579848351
50
210.183206188
51
233.818918449
0
ARC
8
drawinglayer
10
0.769197288687
20
0.0510676988332
30
0
40
0.185155750914
50
34.7095727699
51
49.4170555962
0
ARC
8
drawinglayer
10
0.190647900853
20
-0.0251000547811
30
0
40
0.261323504528
50
146.321751261
51
149.205447844
0
ARC
8
drawinglayer
10
0.292675818152
20
0.869932536704
30
0
40
0.449595217801
50
290.683776404
51
333.340484252
0
ARC
8
drawinglayer
10
0.203866049445
20
0.827094348155
30
0
40
0.42579848351
50
284.896902673
51
332.956717121
0
ARC
8
drawinglayer
10
1.12443539522
20
0.5140224358
30
0
40
0.277798986053
50
213.449065621
51
274.168153368
0
ARC
8
drawinglayer
10
0.522760299173
20
0.741646487873
30
0
40
0.340350623229
50
210.870755542
51
224.794031035
0
ARC
8
drawinglayer
10
0.578589087789
20
0.655526633223
30
0
40
0.284522802904
50
211.386417558
51
228.535560028
0
ARC
8
drawinglayer
10
0.0322993028058
20
0.855993010871
30
0
40
0.570436072542
50
263.754760033
51
333.283646838
0
ARC
8
drawinglayer
10
-0.348474589729
20
0.908687439588
30
0
40
0.672463989841
50
235.794419631
51
332.74535299
0
ARC
8
drawinglayer
10
0.0322993028058
20
0.665383841682
30
0
40
0.379826903353
50
293.090199144
51
332.198923141
0
ARC
8
drawinglayer
10
-0.348474589729
20
0.5140224358
30
0
40
0.277798986053
50
265.645520757
51
330.436504963
0
ARC
8
drawinglayer
10
-0.37445385328
20
0.71135542184
30
0
40
0.475131972093
50
250.748618084
51
331.49584663
0
ARC
8
drawinglayer
10
0.0197521802901
20
0.760688910423
30
0
40
0.475131972093
50
278.537071147
51
332.701808197
0
ARC
8
drawinglayer
10
0.253199538028
20
0.741646487873
30
0
40
0.340350623229
50
314.633412241
51
332.622740022
0
ARC
8
drawinglayer
10
0.0690856688728
20
0.576575041267
30
0
40
0.291018102938
50
307.414144022
51
331.810973418
0
ARC
8
drawinglayer
10
0.154533529154
20
0.980916182985
30
0
40
0.609912352665
50
236.653856323
51
333.858094324
0
ARC
8
drawinglayer
10
0.413516672892
20
0.990773391444
30
0
40
0.570436072542
50
209.151882157
51
334.345452224
0
ARC
8
drawinglayer
10
0.0322993028058
20
0.566716864517
30
0
40
0.379826903353
50
277.448451337
51
332.198923141
0
ARC
8
drawinglayer
10
0.718123780104
20
0.806659522288
30
0
40
0.475131972093
50
210.756163983
51
274.732688684
0
ARC
8
drawinglayer
10
0.0690856688728
20
0.944801811286
30
0
40
0.659244872957
50
248.85785736
51
333.900836975
0
ARC
8
drawinglayer
10
0.756207656911
20
0.662021933257
30
0
40
0.475131972093
50
210.870755542
51
278.115030436
0
ARC
8
drawinglayer
10
0.743660534395
20
0.757326033706
30
0
40
0.570436072542
50
210.240501968
51
292.68380018
0
ARC
8
drawinglayer
10
0.648356433947
20
0.646342387425
30
0
40
0.54489931825
50
210.068614629
51
294.106626272
0
ARC
8
drawinglayer
10
0.553052333498
20
0.971731937186
30
0
40
0.570436072542
50
209.610248393
51
300.809945996
0
ARC
8
drawinglayer
10
0.572093787756
20
0.595616495525
30
0
40
0.524464492384
50
209.95402307
51
294.63053888
0
ARC
8
drawinglayer
10
0.483284019049
20
0.552778306976
30
0
40
0.500668726384
50
209.782135732
51
297.126744106
0
ARC
8
drawinglayer
10
0.387979918601
20
0.520747220943
30
0
40
0.475131972093
50
209.610248393
51
333.745966483
0
ARC
8
drawinglayer
10
0.578589087789
20
0.876427836737
30
0
40
0.475131972093
50
210.240501968
51
269.605117488
0
ARC
8
drawinglayer
10
0.572093787756
20
1.07958316015
30
0
40
0.794026221821
50
208.349741244
51
322.136351864
0
ARC
8
drawinglayer
10
0.769197288687
20
1.37164217655
30
0
40
1.13541872681
50
206.802755197
51
338.414082823
0
ARC
8
drawinglayer
10
0.483284019049
20
1.11636855793
30
0
40
0.830811619596
50
207.834079228
51
335.994997717
0
ARC
8
drawinglayer
10
0.58531290464
20
1.44780993017
30
0
40
1.21158648042
50
205.771431166
51
338.433964459
0
ARC
8
drawinglayer
10
0.253199538028
20
1.07958219186
30
0
40
0.708578361539
50
207.834079228
51
334.694612705
0
ARC
8
drawinglayer
10
0.154533529154
20
1.04010591173
30
0
40
0.708578361539
50
220.152671824
51
334.424749583
0
ARC
8
drawinglayer
10
0.118419157456
20
0.846135802412
30
0
40
0.475131972093
50
266.50495745
51
332.98903194
0
ARC
8
drawinglayer
10
0.578589087789
20
0.767183242165
30
0
40
0.66574017299
50
209.094586378
51
323.51500291
0
ARC
8
drawinglayer
10
0.522760299173
20
0.681064355806
30
0
40
0.609912352665
50
209.266473716
51
324.020580869
0
ARC
8
drawinglayer
10
0.203866049445
20
1.07958316015
30
0
40
0.794026221821
50
218.834868895
51
335.053570763
0
ARC
8
drawinglayer
10
0.706874168328
20
0.944801811286
30
0
40
0.659244872957
50
209.610248393
51
291.646574683
0
ARC
8
drawinglayer
10
0.648356433947
20
1.02106445748
30
0
40
0.735507519147
50
208.922699039
51
307.026308891
0
ARC
8
drawinglayer
10
0.572093787756
20
0.980916182985
30
0
40
0.794026221821
50
208.349741244
51
336.010582169
0
ARC
8
drawinglayer
10
0.387979918601
20
1.12891568044
30
0
40
0.843358742112
50
207.433008772
51
335.823282265
0
ARC
8
drawinglayer
10
0.483284019049
20
1.01770158076
30
0
40
0.830811619596
50
207.834079228
51
335.994997717
0
ARC
8
drawinglayer
10
0.222908471995
20
0.520746252651
30
0
40
0.189218702455
50
324.774765215
51
331.70532
0
ARC
8
drawinglayer
10
0.457747264758
20
0.836950588322
30
0
40
0.735507519147
50
208.292445464
51
335.389324031
0
ARC
8
drawinglayer
10
1.15041465877
20
0.71135542184
30
0
40
0.475131972093
50
212.36044581
51
288.802985146
0
ARC
8
drawinglayer
10
0.743660534395
20
0.855993010871
30
0
40
0.570436072542
50
210.240501968
51
277.067835473
0
ARC
8
drawinglayer
10
1.12443539522
20
0.908687439588
30
0
40
0.672463989841
50
211.042642881
51
304.219044877
0
ARC
8
drawinglayer
10
0.437313407183
20
0.730396876098
30
0
40
0.659244872957
50
208.693515921
51
334.906206018
0
ARC
8
drawinglayer
10
0.413516672892
20
0.622545653133
30
0
40
0.570436072542
50
209.151882157
51
334.345452224
0
ARC
8
drawinglayer
10
0.648356433947
20
0.91590314857
30
0
40
0.54489931825
50
210.068614629
51
287.919255043
0
ARC
8
drawinglayer
10
0.338647398309
20
1.0605407376
30
0
40
0.659244872957
50
208.349741244
51
334.644020531
0
ARC
8
drawinglayer
10
0.318212572443
20
0.836950588322
30
0
40
0.735507519147
50
207.834079228
51
335.023146704
0
ARC
8
drawinglayer
10
0.318212572443
20
0.965236637152
30
0
40
0.54489931825
50
231.382644608
51
333.943980697
0
ARC
8
drawinglayer
10
0.338647398309
20
0.730396876098
30
0
40
0.659244872957
50
208.349741244
51
334.644020531
0
ARC
8
drawinglayer
10
-0.151142571981
20
1.25047791242
30
0
40
1.01425446267
50
204.797402914
51
335.388350003
0
ARC
8
drawinglayer
10
0.00676254851443
20
1.37164217655
30
0
40
1.13541872681
50
204.510924017
51
336.554491003
0
ARC
8
drawinglayer
10
0.203866049445
20
0.980916182985
30
0
40
0.794026221821
50
207.146529874
51
335.053570763
0
ARC
8
drawinglayer
10
0.253199538028
20
1.01120821731
30
0
40
0.609912352665
50
225.366587759
51
334.132197333
0
ARC
8
drawinglayer
10
0.292675818152
20
1.11636855793
30
0
40
0.830811619596
50
207.203825654
51
335.502941562
0
ARC
8
drawinglayer
10
-0.272307804406
20
1.09257182363
30
0
40
0.856348373887
50
220.782925398
51
334.081433272
0
ARC
8
drawinglayer
10
0.127604371546
20
0.922397480312
30
0
40
0.735507519147
50
216.714925053
51
334.50610959
0
ARC
8
drawinglayer
10
0.197371717703
20
0.767183242165
30
0
40
0.66574017299
50
216.313854596
51
334.296693516
0
ARC
8
drawinglayer
10
0.578589087789
20
1.03674400331
30
0
40
0.66574017299
50
209.094586378
51
318.531988966
0
ARC
8
drawinglayer
10
0.253199538028
20
0.681064355806
30
0
40
0.609912352665
50
215.740896801
51
334.132197333
0
ARC
8
drawinglayer
10
0.318212572443
20
0.597008898842
30
0
40
0.54489931825
50
213.162586723
51
333.943980697
0
ARC
8
drawinglayer
10
0.457747264758
20
1.10651134947
30
0
40
0.735507519147
50
208.292445464
51
335.389324031
0
ARC
8
drawinglayer
10
0.0690856688728
20
0.846134834121
30
0
40
0.659244872957
50
231.726419285
51
333.900836975
0
ARC
8
drawinglayer
10
0.0322993028058
20
0.757326033706
30
0
40
0.570436072542
50
246.737913518
51
333.283646838
0
ARC
8
drawinglayer
10
0.127604371546
20
0.646342387425
30
0
40
0.54489931825
50
246.279547282
51
333.411129948
0
ARC
8
drawinglayer
10
0.203866049445
20
0.595616495525
30
0
40
0.524464492384
50
245.763885266
51
333.511225675
0
ARC
8
drawinglayer
10
0.437313407183
20
1.0605407376
30
0
40
0.659244872957
50
208.693515921
51
334.906206018
0
ARC
8
drawinglayer
10
0.0197521802901
20
0.662021933257
30
0
40
0.475131972093
50
261.634816191
51
332.701808197
0
ARC
8
drawinglayer
10
0.706874168328
20
0.477908064102
30
0
40
0.291018102938
50
211.787488015
51
248.44991141
0
ARC
8
drawinglayer
10
0.743660534395
20
0.566716864517
30
0
40
0.379826903353
50
211.386417558
51
263.354720901
0
ARC
8
drawinglayer
10
0.203866049445
20
0.925760357028
30
0
40
0.524464492384
50
255.332280445
51
333.511225675
0
ARC
8
drawinglayer
10
0.00676254851443
20
0.0510676988332
30
0
40
0.185155750914
50
131.310257029
51
149.027544449
0
ARC
8
drawinglayer
10
0.197371717703
20
0.655526633223
30
0
40
0.284522802904
50
311.081073911
51
332.1533157
0
ARC
8
drawinglayer
10
0.338647398309
20
0.441793692403
30
0
40
0.389684111812
50
318.24304635
51
333.136855051
0
ARC
8
drawinglayer
10
0.292675818152
20
0.381211560337
30
0
40
0.310059557195
50
320.64946909
51
332.56859551
0
ARC
8
drawinglayer
10
0.553052333498
20
0.330138051754
30
0
40
0.189218702455
50
211.844783794
51
218.211376222
0
ARC
8
drawinglayer
10
0.648356433947
20
0.500312395077
30
0
40
0.214755456747
50
212.016671133
51
216.321474935
0
ARC
8
drawinglayer
10
0.197371717703
20
0.385965872079
30
0
40
0.284522802904
50
306.039045314
51
332.1533157
0
ARC
8
drawinglayer
10
0.127604371546
20
0.500312395077
30
0
40
0.214755456747
50
322.540229813
51
331.563341059
0
ARC
8
drawinglayer
10
0.222908471995
20
0.330138051754
30
0
40
0.189218702455
50
321.79538468
51
331.70532
0
ARC
8
drawinglayer
10
0.648356433947
20
0.401645417911
30
0
40
0.214755456747
50
212.016671133
51
233.462366813
0
ARC
8
drawinglayer
10
0.553052333498
20
0.520746252651
30
0
40
0.189218702455
50
211.844783794
51
215.016964627
0
ARC
8
drawinglayer
10
0.127604371546
20
0.506806726819
30
0
40
0.405363657644
50
276.016056849
51
332.62262543
0
ARC
8
drawinglayer
10
0.203866049445
20
0.496950486651
30
0
40
0.42579848351
50
275.500394833
51
332.956717121
0
ARC
8
drawinglayer
10
0.437313407183
20
0.441793692403
30
0
40
0.389684111812
50
210.297797747
51
222.020285053
0
ARC
8
drawinglayer
10
0.578589087789
20
0.385965872079
30
0
40
0.284522802904
50
211.386417558
51
233.876672595
0
ARC
8
drawinglayer
10
0.522760299173
20
0.41150262637
30
0
40
0.340350623229
50
210.870755542
51
234.422701373
0
ARC
8
drawinglayer
10
0.648356433947
20
0.506806726819
30
0
40
0.405363657644
50
210.928051322
51
263.763125217
0
ARC
8
drawinglayer
10
0.572093787756
20
0.496950486651
30
0
40
0.42579848351
50
210.526980865
51
264.302049319
0
ENDSEC
0
EOF
