0
SECTION
2
HEADER
9
$ACADVER
1
AC1006
9
$INSBASE
10
0.0
20
0.0
30
0.0
9
$EXTMIN
10
0.0
20
0.0
9
$EXTMAX
10
0.0
20
0.0
0
ENDSEC
0
SECTION
2
TABLES
0
TABLE
2
LTYPE
70
1
0
LTYPE
2
CONTINUOUS
70
64
3
Solid line
72
65
73
0
40
0.0
0
ENDTAB
0
TABLE
2
LAYER
70
1
0
LAYER
2
PYDXF
70
64
62
7
6
continuous
0
ENDTAB
0
TABLE
2
STYLE
70
1
0
STYLE
2
STANDARD
70
0
40
0
41
40
50
50
71
0
42
1
3
ARIAL.TTF
4

0
ENDTAB
0
TABLE
2
VIEW
70
0
0
ENDTAB
0
ENDSEC
0
SECTION
2
BLOCKS
0
ENDSEC
0
SECTION
2
ENTITIES
0
ARC
8
drawinglayer
10
0.564821306495
20
0.79170734584
30
0
40
0.739013347137
50
281.974817918
51
336.481152406
0
ARC
8
drawinglayer
10
0.46297157809
20
0.916739288546
30
0
40
0.811355659374
50
281.287268564
51
336.664040534
0
ARC
8
drawinglayer
10
0.361126217918
20
1.04177996772
30
0
40
0.883702339844
50
280.59971921
51
336.852543649
0
ARC
8
drawinglayer
10
0.259276489513
20
1.16681191043
30
0
40
0.956044652081
50
279.912169856
51
337.046948228
0
ARC
8
drawinglayer
10
0.520994821459
20
1.55807020188
30
0
40
1.31781736853
50
203.880670442
51
340.197929623
0
ARC
8
drawinglayer
10
0.479391767191
20
1.12795647492
30
0
40
0.969878847048
50
262.322365545
51
337.75271764
0
ARC
8
drawinglayer
10
0.575990879129
20
0.952934469948
30
0
40
0.489927945991
50
327.238483734
51
334.932218302
0
ARC
8
drawinglayer
10
0.974587802582
20
1.28630056503
30
0
40
1.07553330669
50
207.375712992
51
281.394182489
0
ARC
8
drawinglayer
10
0.477972091357
20
1.19375954186
30
0
40
0.848332754542
50
240.893744007
51
336.947998417
0
ARC
8
drawinglayer
10
0.53571139956
20
1.15020388729
30
0
40
0.6583495504
50
270.802140913
51
335.881609369
0
ARC
8
drawinglayer
10
1.11839878039
20
0.386357133653
30
0
40
0.175589875309
50
214.480389652
51
239.253537727
0
ARC
8
drawinglayer
10
0.975907009049
20
0.286171702148
30
0
40
0.0754044438038
50
214.537685431
51
220.091594523
0
ARC
8
drawinglayer
10
0.654806913166
20
1.23709678476
30
0
40
0.727109911303
50
208.693515921
51
336.65458673
0
ARC
8
drawinglayer
10
1.17900364966
20
0.6695671736
30
0
40
0.458799915256
50
212.818812046
51
232.73597092
0
ARC
8
drawinglayer
10
0.886061185844
20
0.784281349173
30
0
40
0.678897720001
50
209.95402307
51
228.536132986
0
ARC
8
drawinglayer
10
1.10545570502
20
0.901896031678
30
0
40
0.691128773335
50
210.813459763
51
229.863275127
0
ARC
8
drawinglayer
10
0.534868330527
20
0.773609755139
30
0
40
0.424146720221
50
329.587610694
51
334.399081074
0
ARC
8
drawinglayer
10
1.25792888953
20
1.18667426739
30
0
40
0.975907009049
50
209.323769496
51
309.47427107
0
ARC
8
drawinglayer
10
0.416620254187
20
0.971224262915
30
0
40
0.589593557729
50
278.537071147
51
335.093219443
0
ARC
8
drawinglayer
10
0.284533614648
20
1.08904862062
30
0
40
0.778021670806
50
255.446872004
51
335.929336753
0
ARC
8
drawinglayer
10
0.157225822375
20
1.09769335439
30
0
40
0.822053462808
50
254.415547972
51
335.842877422
0
ARC
8
drawinglayer
10
0.0299180301015
20
1.10634245639
30
0
40
0.866089623043
50
245.534702148
51
335.753381414
0
ARC
8
drawinglayer
10
0.409714077287
20
1.07504406455
30
0
40
0.728957674003
50
270.916732472
51
335.974027461
0
ARC
8
drawinglayer
10
0.13367230824
20
0.959495556415
30
0
40
0.683707144901
50
268.739492851
51
334.845014126
0
ARC
8
drawinglayer
10
0.0
20
0.934740778113
30
0
40
0.694487944768
50
260.030534365
51
334.493733702
0
ARC
8
drawinglayer
10
0.273368410247
20
0.922990230446
30
0
40
0.611526457297
50
284.954198453
51
334.802156883
0
ARC
8
drawinglayer
10
0.146855636441
20
0.820113967208
30
0
40
0.544137721661
50
283.922874422
51
333.966497939
0
ARC
8
drawinglayer
10
0.0155159648008
20
0.761247654805
30
0
40
0.520994821459
50
275.385803274
51
333.387810566
0
ARC
8
drawinglayer
10
1.33333333333
20
0.879098221911
30
0
40
0.638845388565
50
212.245854251
51
274.959121604
0
ARC
8
drawinglayer
10
0.909317660112
20
1.14227117556
30
0
40
0.79465590334
50
209.209177937
51
295.351720857
0
ARC
8
drawinglayer
10
0.378066226786
20
0.695802783001
30
0
40
0.383207637419
50
313.831271328
51
333.663403265
0
ARC
8
drawinglayer
10
0.175589875309
20
0.455187386289
30
0
40
0.214934552944
50
305.924453755
51
331.950259458
0
ARC
8
drawinglayer
10
0.653133879799
20
1.3150348039
30
0
40
0.86334637251
50
207.719487669
51
337.523477227
0
ARC
8
drawinglayer
10
0.287980150748
20
0.746579127271
30
0
40
0.588501499396
50
325.634201907
51
334.697248311
0
ARC
8
drawinglayer
10
0.484423971991
20
1.32952423387
30
0
40
1.01878995568
50
210.355093527
51
338.090991923
0
ARC
8
drawinglayer
10
0.214934552944
20
1.3980006596
30
0
40
1.15774782626
50
216.084671478
51
338.302413349
0
ARC
8
drawinglayer
10
0.954804073814
20
1.25807740946
30
0
40
0.946526271647
50
208.292445464
51
311.660678016
0
ARC
8
drawinglayer
10
1.12732308109
20
1.38407909997
30
0
40
1.14382626662
50
207.433008772
51
319.550192264
0
ARC
8
drawinglayer
10
1.02409735918
20
1.47036044477
30
0
40
1.23010761143
50
206.344388961
51
334.195337282
0
ARC
8
drawinglayer
10
1.03122631598
20
1.09157782772
30
0
40
0.880810569377
50
209.094586378
51
242.666991088
0
ARC
8
drawinglayer
10
0.60876573383
20
1.17581483933
30
0
40
1.01773721145
50
241.180222905
51
315.275697929
0
ARC
8
drawinglayer
10
1.23010761143
20
0.520007600726
30
0
40
0.309240342382
50
214.136614975
51
249.497622034
0
ARC
8
drawinglayer
10
0.309240342382
20
0.313992980249
30
0
40
0.103225721905
50
316.065806729
51
331.701137408
0
ARC
8
drawinglayer
10
0.741961904637
20
1.16319064499
30
0
40
1.00511738535
50
218.548389997
51
289.426420523
0
ARC
8
drawinglayer
10
0.103225721905
20
1.26435019253
30
0
40
1.02409735918
50
230.809686813
51
337.060527328
0
ARC
8
drawinglayer
10
0.810748474941
20
0.983839720783
30
0
40
0.520833196826
50
210.756163983
51
227.795642332
0
ARC
8
drawinglayer
10
0.79232326674
20
1.29003977276
30
0
40
0.864626264877
50
208.235149685
51
335.035178818
0
ARC
8
drawinglayer
10
1.16363183656
20
1.01724360108
30
0
40
0.848629794409
50
209.896727291
51
303.35926441
0
ARC
8
drawinglayer
10
0.607996924764
20
1.35320442677
30
0
40
1.14243716842
50
244.216899219
51
321.142098202
0
ARC
8
drawinglayer
10
0.722352905203
20
0.828841697408
30
0
40
0.786688245739
50
208.521628582
51
337.217059398
0
ARC
8
drawinglayer
10
0.827076931141
20
1.3427905585
30
0
40
1.03190776038
50
207.146529874
51
326.475705021
0
ARC
8
drawinglayer
10
0.694487944768
20
1.54410059168
30
0
40
1.33333333333
50
204.339036678
51
340.718519075
0
ARC
8
drawinglayer
10
0.087600551271
20
0.580337271296
30
0
40
0.34008443795
50
305.924453755
51
332.450394317
0
ARC
8
drawinglayer
10
0.384448215686
20
0.486857077958
30
0
40
0.210199388011
50
327.754145749
51
332.604462668
0
ARC
8
drawinglayer
10
0.302709833548
20
0.907500475045
30
0
40
0.749422847171
50
302.658594322
51
335.794233305
0
ARC
8
drawinglayer
10
0.452208251156
20
0.455065075756
30
0
40
0.32860472075
50
317.956567452
51
333.551905678
0
ARC
8
drawinglayer
10
0.368862359152
20
1.31862985993
30
0
40
1.10786260159
50
244.904448573
51
338.379476173
0
ARC
8
drawinglayer
10
1.09448707112
20
1.22511472073
30
0
40
1.01434746238
50
208.349741244
51
240.1919853
0
ARC
8
drawinglayer
10
1.03064097272
20
0.546946495694
30
0
40
0.26967725308
50
213.449065621
51
221.439363144
0
ARC
8
drawinglayer
10
0.911418780346
20
1.08376305829
30
0
40
0.6583495504
50
210.183206188
51
274.925087911
0
ARC
8
drawinglayer
10
1.31781736853
20
1.02310577022
30
0
40
0.812338511874
50
210.870755542
51
294.058612409
0
ARC
8
drawinglayer
10
0.400995083553
20
0.750973570004
30
0
40
0.666666666667
50
255.504167783
51
335.543850749
0
ARC
8
drawinglayer
10
0.691203033301
20
1.37482718177
30
0
40
1.06374781315
50
206.344388961
51
338.925103881
0
ENDSEC
0
EOF
