0
SECTION
2
HEADER
9
$ACADVER
1
AC1006
9
$INSBASE
10
0.0
20
0.0
30
0.0
9
$EXTMIN
10
0.0
20
0.0
9
$EXTMAX
10
0.0
20
0.0
0
ENDSEC
0
SECTION
2
TABLES
0
TABLE
2
LTYPE
70
1
0
LTYPE
2
CONTINUOUS
70
64
3
Solid line
72
65
73
0
40
0.0
0
ENDTAB
0
TABLE
2
LAYER
70
1
0
LAYER
2
PYDXF
70
64
62
7
6
continuous
0
ENDTAB
0
TABLE
2
STYLE
70
1
0
STYLE
2
STANDARD
70
0
40
0
41
40
50
50
71
0
42
1
3
ARIAL.TTF
4

0
ENDTAB
0
TABLE
2
VIEW
70
0
0
ENDTAB
0
ENDSEC
0
SECTION
2
BLOCKS
0
ENDSEC
0
SECTION
2
ENTITIES
0
ARC
8
drawinglayer
10
0.0
20
0.122096788558
30
0
40
-0.0884113780881
50
30.0113188498
51
150.000025715
0
ARC
8
drawinglayer
10
-0.0141951801649
20
0.131521293839
30
0
40
-0.0836407032043
50
30.0113188498
51
150.000025715
0
ARC
8
drawinglayer
10
-0.0270338243414
20
0.13455640062
30
0
40
-0.0738371658087
50
30.0113188498
51
150.000025715
0
ARC
8
drawinglayer
10
0.0145856117414
20
0.106924104519
30
0
40
-0.0878243057906
50
30.0113188498
51
150.000025715
0
ARC
8
drawinglayer
10
-0.791518800207
20
0.842309103539
30
0
40
-0.0171048928629
50
30.0113188498
51
150.000025715
0
ARC
8
drawinglayer
10
-0.765693318847
20
0.524426553622
30
0
40
0.274952175694
50
30.0113188498
51
150.000025715
0
ARC
8
drawinglayer
10
0.0409896158025
20
0.0637913898438
30
0
40
-0.0710955951766
50
30.0113188498
51
150.000025715
0
ARC
8
drawinglayer
10
0.0285642021267
20
0.087040592772
30
0
40
-0.081919384429
50
30.0113188498
51
150.000025715
0
ARC
8
drawinglayer
10
0.217057157615
20
0.913558591454
30
0
40
-1.09692748873
50
30.0113188498
51
150.000025715
0
ARC
8
drawinglayer
10
0.010892186025
20
1.16003206099
30
0
40
-1.13723883654
50
30.0113188498
51
150.000025715
0
ARC
8
drawinglayer
10
0.408816058992
20
0.607394688563
30
0
40
-0.982525337086
50
30.0113188498
51
150.000025715
0
ARC
8
drawinglayer
10
0.573105106603
20
0.262415617263
30
0
40
-0.801835313396
50
30.0113188498
51
150.000025715
0
ARC
8
drawinglayer
10
-0.554352991468
20
1.40023297651
30
0
40
-0.812194574569
50
30.0113188498
51
150.000025715
0
ARC
8
drawinglayer
10
-0.682118162549
20
1.29566001104
30
0
40
-0.579853588159
50
30.0113188498
51
150.000025715
0
ARC
8
drawinglayer
10
0.207051279768
20
-1.25451935237
30
0
40
1.08115348307
50
30.0113188498
51
150.000025715
0
ARC
8
drawinglayer
10
0.399844682329
20
-1.33644443653
30
0
40
0.970285164669
50
30.0113188498
51
150.000025715
0
ARC
8
drawinglayer
10
0.00053577471813
20
-1.08452487398
30
0
40
1.11767450973
50
30.0113188498
51
150.000025715
0
ARC
8
drawinglayer
10
-0.205626347007
20
-0.838051404449
30
0
40
1.07736316193
50
30.0113188498
51
150.000025715
0
ARC
8
drawinglayer
10
-0.397385248384
20
-0.531890351424
30
0
40
0.962963860143
50
30.0113188498
51
150.000025715
0
ARC
8
drawinglayer
10
0.03846463495
20
-0.0590492136152
30
0
40
0.0542728390004
50
30.0113188498
51
150.000025715
0
ARC
8
drawinglayer
10
0.0490718344228
20
-0.0554868817128
30
0
40
0.0401033076252
50
30.0113188498
51
150.000025715
0
ARC
8
drawinglayer
10
0.693548973158
20
-1.22015282404
30
0
40
0.56028926135
50
30.0113188498
51
150.000025715
0
ARC
8
drawinglayer
10
0.774442405999
20
-1.02985590367
30
0
40
0.289098908145
50
30.0113188498
51
150.000025715
0
ARC
8
drawinglayer
10
0.565780952211
20
-1.3247257895
30
0
40
0.79263024776
50
30.0113188498
51
150.000025715
0
ARC
8
drawinglayer
10
-0.56167714586
20
-0.186908430258
30
0
40
0.782270986588
50
30.0113188498
51
150.000025715
0
ARC
8
drawinglayer
10
-0.687299218068
20
0.173380118626
30
0
40
0.547604509912
50
30.0113188498
51
150.000025715
0
ARC
8
drawinglayer
10
0.80294676095
20
-0.7668047664
30
0
40
-0.00245658407994
50
30.0113188498
51
150.000025715
0
ARC
8
drawinglayer
10
0.77712127959
20
-0.448922216483
30
0
40
-0.294513652637
50
30.0113188498
51
150.000025715
0
ARC
8
drawinglayer
10
0.698727178811
20
-0.097872931621
30
0
40
-0.567168836721
50
30.0113188498
51
150.000025715
0
ARC
8
drawinglayer
10
-0.195623319025
20
1.33002653937
30
0
40
-1.10071780988
50
30.0113188498
51
150.000025715
0
ARC
8
drawinglayer
10
-0.388416721586
20
1.41195162353
30
0
40
-0.989849491477
50
30.0113188498
51
150.000025715
0
ARC
8
drawinglayer
10
-0.76301159539
20
1.10536309068
30
0
40
-0.308663234954
50
30.0113188498
51
150.000025715
0
ARC
8
drawinglayer
10
0.0510097429778
20
0.0387752702919
30
0
40
-0.0560967529345
50
30.0113188498
51
150.000025715
0
ARC
8
drawinglayer
10
0.0579406159272
20
0.0136850542365
30
0
40
-0.037940259694
50
30.0113188498
51
150.000025715
0
ARC
8
drawinglayer
10
0.0613148567052
20
-0.00976648914379
30
0
40
-0.0178629570917
50
30.0113188498
51
150.000025715
0
ARC
8
drawinglayer
10
0.060898776339
20
-0.0299748855601
30
0
40
0.00276151969079
50
30.0113188498
51
150.000025715
0
ARC
8
drawinglayer
10
0.0567237233493
20
-0.0455721995618
30
0
40
0.0225338866822
50
30.0113188498
51
150.000025715
0
ARC
8
drawinglayer
10
0.0256259907736
20
-0.0560141068343
30
0
40
0.064076376396
50
30.0113188498
51
150.000025715
0
ARC
8
drawinglayer
10
0.0114279607431
20
-0.0465896015532
30
0
40
0.0688470512798
50
30.0113188498
51
150.000025715
0
ARC
8
drawinglayer
10
-0.00315480113282
20
-0.0314169175142
30
0
40
0.0682599789822
50
30.0113188498
51
150.000025715
0
ARC
8
drawinglayer
10
-0.0171362413836
20
-0.0115334057674
30
0
40
0.0623550576207
50
30.0113188498
51
150.000025715
0
ARC
8
drawinglayer
10
-0.0295588051939
20
0.0117100974298
30
0
40
0.0515341182338
50
30.0113188498
51
150.000025715
0
ARC
8
drawinglayer
10
-0.0395789323691
20
0.0367319167127
30
0
40
0.0365324261261
50
30.0113188498
51
150.000025715
0
ARC
8
drawinglayer
10
-0.0465126551841
20
0.0618221327681
30
0
40
0.0183759328857
50
30.0113188498
51
150.000025715
0
ARC
8
drawinglayer
10
-0.0498840460966
20
0.0852736761484
30
0
40
-0.00170136971662
50
30.0113188498
51
150.000025715
0
ARC
8
drawinglayer
10
-0.0494708155959
20
0.105482072565
30
0
40
-0.0223258464991
50
30.0113188498
51
150.000025715
0
ARC
8
drawinglayer
10
-0.0452929127407
20
0.121076536701
30
0
40
-0.0420982134906
50
30.0113188498
51
150.000025715
0
ARC
8
drawinglayer
10
-0.0376410238142
20
0.130994068717
30
0
40
-0.0596676344335
50
30.0113188498
51
150.000025715
0
ARC
8
drawinglayer
10
-0.639150740074
20
-0.211753557879
30
0
40
-0.522924674492
50
30.0113188498
51
150.000025715
0
ARC
8
drawinglayer
10
-0.720044172916
20
-0.563837343925
30
0
40
-0.251734321287
50
30.0113188498
51
150.000025715
0
ARC
8
drawinglayer
10
-0.748548527866
20
-0.883900040967
30
0
40
0.0398211709385
50
30.0113188498
51
150.000025715
0
ARC
8
drawinglayer
10
-0.152653046684
20
0.795608357231
30
0
40
-1.04378889621
50
30.0113188498
51
150.000025715
0
ARC
8
drawinglayer
10
-0.345449299111
20
0.491946636268
30
0
40
-0.932923427676
50
30.0113188498
51
150.000025715
0
ARC
8
drawinglayer
10
-0.511382719128
20
0.148352599612
30
0
40
-0.755265660902
50
30.0113188498
51
150.000025715
0
ARC
8
drawinglayer
10
0.0538624583652
20
1.03864488894
30
0
40
-1.08030992288
50
30.0113188498
51
150.000025715
0
ARC
8
drawinglayer
10
0.82009155193
20
0.962151648469
30
0
40
-0.237587588836
50
30.0113188498
51
150.000025715
0
ARC
8
drawinglayer
10
0.741694601286
20
1.15640703204
30
0
40
-0.510239923054
50
30.0113188498
51
150.000025715
0
ARC
8
drawinglayer
10
0.616072529078
20
1.26545143651
30
0
40
-0.744906399729
50
30.0113188498
51
150.000025715
0
ARC
8
drawinglayer
10
0.845914183424
20
0.695917211407
30
0
40
0.0544694797214
50
30.0113188498
51
150.000025715
0
ARC
8
drawinglayer
10
0.817409828474
20
0.375854514365
30
0
40
0.346027821812
50
30.0113188498
51
150.000025715
0
ARC
8
drawinglayer
10
-0.722725896372
20
-1.15013162816
30
0
40
0.331878239496
50
30.0113188498
51
150.000025715
0
ARC
8
drawinglayer
10
-0.644328945728
20
-1.34439271147
30
0
40
0.604533423579
50
30.0113188498
51
150.000025715
0
ARC
8
drawinglayer
10
-0.518706873519
20
-1.45343426607
30
0
40
0.839199900255
50
30.0113188498
51
150.000025715
0
ARC
8
drawinglayer
10
-0.354417825909
20
-1.46983524215
30
0
40
1.01988992394
50
30.0113188498
51
150.000025715
0
ARC
8
drawinglayer
10
-0.162658924532
20
-1.39247849242
30
0
40
1.13429207559
50
30.0113188498
51
150.000025715
0
ARC
8
drawinglayer
10
0.0435031971929
20
-1.2266277185
30
0
40
1.1746034234
50
30.0113188498
51
150.000025715
0
ARC
8
drawinglayer
10
0.250018702242
20
-0.983591186791
30
0
40
1.13808239674
50
30.0113188498
51
150.000025715
0
ARC
8
drawinglayer
10
0.442814954669
20
-0.679926615963
30
0
40
1.02721407834
50
30.0113188498
51
150.000025715
0
ARC
8
drawinglayer
10
0.608748374686
20
-0.336338279037
30
0
40
0.849559161427
50
30.0113188498
51
150.000025715
0
ARC
8
drawinglayer
10
0.736516395633
20
0.0237707283188
30
0
40
0.617218175017
50
30.0113188498
51
150.000025715
0
ARC
8
drawinglayer
10
0.451783481467
20
1.28185526245
30
0
40
-0.925599273284
50
30.0113188498
51
150.000025715
0
ARC
8
drawinglayer
10
0.26002458009
20
1.20449566286
30
0
40
-1.03999857507
50
30.0113188498
51
150.000025715
0
ENDSEC
0
EOF
