0
SECTION
2
HEADER
9
$ACADVER
1
AC1006
9
$INSBASE
10
0.0
20
0.0
30
0.0
9
$EXTMIN
10
0.0
20
0.0
9
$EXTMAX
10
0.0
20
0.0
0
ENDSEC
0
SECTION
2
TABLES
0
TABLE
2
LTYPE
70
1
0
LTYPE
2
CONTINUOUS
70
64
3
Solid line
72
65
73
0
40
0.0
0
ENDTAB
0
TABLE
2
LAYER
70
1
0
LAYER
2
PYDXF
70
64
62
7
6
continuous
0
ENDTAB
0
TABLE
2
STYLE
70
1
0
STYLE
2
STANDARD
70
0
40
0
41
40
50
50
71
0
42
1
3
ARIAL.TTF
4

0
ENDTAB
0
TABLE
2
VIEW
70
0
0
ENDTAB
0
ENDSEC
0
SECTION
2
BLOCKS
0
ENDSEC
0
SECTION
2
ENTITIES
0
ARC
8
drawinglayer
10
0.0
20
0.12250596367
30
0
40
0.0887076654512
50
210.698868204
51
330.317272446
0
ARC
8
drawinglayer
10
-0.794171366236
20
0.845131879844
30
0
40
0.0171622153898
50
209.323769496
51
328.344063095
0
ARC
8
drawinglayer
10
-0.768259337602
20
0.52618403059
30
0
40
0.27587360523
50
30.3550935269
51
147.335943855
0
ARC
8
drawinglayer
10
0.0411269816647
20
0.0640051698243
30
0
40
0.0713338532705
50
210.813459763
51
330.338987546
0
ARC
8
drawinglayer
10
0.217784567302
20
0.916620141584
30
0
40
1.10060355125
50
207.375712992
51
334.479696236
0
ARC
8
drawinglayer
10
0.0109286883072
20
1.1639196018
30
0
40
1.14104999189
50
206.802755197
51
334.254638414
0
ARC
8
drawinglayer
10
0.410186097948
20
0.609430211304
30
0
40
0.985818011033
50
208.235149685
51
334.393924454
0
ARC
8
drawinglayer
10
0.575025716873
20
0.263295033838
30
0
40
0.804522452493
50
209.266473716
51
334.01766307
0
ARC
8
drawinglayer
10
-0.556210758982
20
1.40492548719
30
0
40
0.81491642999
50
206.974642536
51
331.879957536
0
ARC
8
drawinglayer
10
-0.684404101261
20
1.30000207308
30
0
40
0.581796814182
50
207.547600331
51
330.710550676
0
ARC
8
drawinglayer
10
0.2077451574
20
-1.25872354236
30
0
40
1.08477668318
50
35.167939006
51
146.733364141
0
ARC
8
drawinglayer
10
0.401184656087
20
-1.34092317678
30
0
40
0.973536818914
50
35.2252347855
51
147.506055024
0
ARC
8
drawinglayer
10
0.000537570225472
20
-1.08815937242
30
0
40
1.12142010041
50
34.7668685494
51
146.16361491
0
ARC
8
drawinglayer
10
-0.206315449354
20
-0.840859912202
30
0
40
1.08097365977
50
34.1939107543
51
145.837143558
0
ARC
8
drawinglayer
10
-0.398716979999
20
-0.533672841337
30
0
40
0.966190978971
50
33.3917698411
51
145.784030371
0
ARC
8
drawinglayer
10
0.0385935390064
20
-0.0592471014456
30
0
40
0.0544547200739
50
31.2718259991
51
149.88577793
0
ARC
8
drawinglayer
10
0.695873219209
20
-1.22424184369
30
0
40
0.562166922704
50
34.5376854313
51
149.462304824
0
ARC
8
drawinglayer
10
0.777037745007
20
-1.0333071935
30
0
40
0.290067746716
50
33.7928402977
51
150.533907788
0
ARC
8
drawinglayer
10
0.567677017515
20
-1.32916525781
30
0
40
0.795286538512
50
35.053347447
51
148.433616398
0
ARC
8
drawinglayer
10
-0.563559458341
20
-0.187534804455
30
0
40
0.784892561015
50
32.4750373689
51
146.02066194
0
ARC
8
drawinglayer
10
-0.689602519717
20
0.173961156262
30
0
40
0.549439661674
50
31.4437133376
51
146.545663168
0
ARC
8
drawinglayer
10
0.805637624769
20
-0.769374509878
30
0
40
0.00246481667211
50
212.761516266
51
331.587290694
0
ARC
8
drawinglayer
10
0.779725596135
20
-0.450426660624
30
0
40
0.295500637292
50
211.672896456
51
332.559714664
0
ARC
8
drawinglayer
10
0.70106877825
20
-0.0982009268797
30
0
40
0.569069553152
50
210.469685086
51
333.389357552
0
ARC
8
drawinglayer
10
-0.196278898867
20
1.33448377174
30
0
40
1.10440657466
50
206.573572079
51
333.721615777
0
ARC
8
drawinglayer
10
-0.389718397555
20
1.41668340617
30
0
40
0.993166710392
50
206.630867859
51
332.910765905
0
ARC
8
drawinglayer
10
-0.765568627059
20
1.10906742289
30
0
40
0.309697638194
50
208.407037023
51
329.498859531
0
ARC
8
drawinglayer
10
0.0615203372395
20
-0.00979921895049
30
0
40
0.0179228200705
50
211.042642881
51
330.189903928
0
ARC
8
drawinglayer
10
-0.00316537361488
20
-0.0315222030085
30
0
40
0.068488734258
50
31.2145302196
51
149.749872341
0
ARC
8
drawinglayer
10
-0.0397115706987
20
0.0368550140219
30
0
40
0.0366548548954
50
31.042642881
51
149.787343781
0
ARC
8
drawinglayer
10
-0.0496366039573
20
0.105835567848
30
0
40
0.0224006656721
50
210.813459763
51
329.977623065
0
ARC
8
drawinglayer
10
-0.641292684827
20
-0.212463193953
30
0
40
0.524677118309
50
207.834079228
51
330.584901032
0
ARC
8
drawinglayer
10
-0.722457210625
20
-0.565726895739
30
0
40
0.252577942321
50
208.636220141
51
329.379913493
0
ARC
8
drawinglayer
10
-0.751057090387
20
-0.886862198305
30
0
40
0.0399546210666
50
29.6102483932
51
148.23199255
0
ARC
8
drawinglayer
10
-0.153164623018
20
0.79827462833
30
0
40
1.04728687878
50
206.860050977
51
333.583074582
0
ARC
8
drawinglayer
10
-0.346606981121
20
0.493595265379
30
0
40
0.936049873935
50
206.917346756
51
332.774917612
0
ARC
8
drawinglayer
10
-0.513096483133
20
0.148849764134
30
0
40
0.757796734118
50
207.261121433
51
331.748521018
0
ARC
8
drawinglayer
10
0.0540429641565
20
1.04212563274
30
0
40
1.08393029601
50
207.146529874
51
334.115295078
0
ARC
8
drawinglayer
10
0.822839871984
20
0.965376045385
30
0
40
0.238383800836
50
211.959375353
51
332.43813302
0
ARC
8
drawinglayer
10
0.744180194683
20
1.16028242453
30
0
40
0.511949857279
50
210.756163983
51
333.262332808
0
ARC
8
drawinglayer
10
0.618137133307
20
1.26969226249
30
0
40
0.74740275662
50
209.552952614
51
333.885882777
0
ARC
8
drawinglayer
10
0.848749041202
20
0.698249393983
30
0
40
0.0546520197843
50
33.1052909435
51
151.471266741
0
ARC
8
drawinglayer
10
0.82014916144
20
0.377114091417
30
0
40
0.347187442588
50
34.0793191952
51
150.423498821
0
ARC
8
drawinglayer
10
-0.725147921169
20
-1.15398599029
30
0
40
0.332990441687
50
30.6415724244
51
147.230405029
0
ARC
8
drawinglayer
10
-0.646488243868
20
-1.34889808827
30
0
40
0.606559357546
50
31.7301922352
51
146.445682032
0
ARC
8
drawinglayer
10
-0.520445182492
20
-1.45830506681
30
0
40
0.842012256887
50
32.7615162664
51
145.924920692
0
ARC
8
drawinglayer
10
-0.355605563566
20
-1.47476100643
30
0
40
1.02330781543
50
33.6782487386
51
145.690982025
0
ARC
8
drawinglayer
10
-0.16320403292
20
-1.397145016
30
0
40
1.13809335565
50
34.4803896518
51
145.745298424
0
ARC
8
drawinglayer
10
0.0436489866587
20
-1.23073843706
30
0
40
1.17853979628
50
35.053347447
51
146.071483296
0
ARC
8
drawinglayer
10
0.250856573833
20
-0.986887432652
30
0
40
1.14189637905
50
35.4544179035
51
146.639628246
0
ARC
8
drawinglayer
10
0.444298931937
20
-0.682205210285
30
0
40
1.03065651479
50
35.5117136831
51
147.409397044
0
ARC
8
drawinglayer
10
0.610788433948
20
-0.337465427872
30
0
40
0.852406234385
50
35.3398263445
51
148.333119601
0
ARC
8
drawinglayer
10
0.738984635642
20
0.0238503896312
30
0
40
0.619286618576
50
34.8241643289
51
149.357109773
0
ARC
8
drawinglayer
10
0.453297514381
20
1.28615106152
30
0
40
0.928701174577
50
208.521628582
51
334.258248048
0
ARC
8
drawinglayer
10
0.260895983736
20
1.20853221168
30
0
40
1.04348385538
50
207.719487669
51
334.34144152
0
ENDSEC
0
EOF
