0
SECTION
2
HEADER
9
$ACADVER
1
AC1006
9
$INSBASE
10
0.0
20
0.0
30
0.0
9
$EXTMIN
10
0.0
20
0.0
9
$EXTMAX
10
0.0
20
0.0
0
ENDSEC
0
SECTION
2
TABLES
0
TABLE
2
LTYPE
70
1
0
LTYPE
2
CONTINUOUS
70
64
3
Solid line
72
65
73
0
40
0.0
0
ENDTAB
0
TABLE
2
LAYER
70
1
0
LAYER
2
PYDXF
70
64
62
7
6
continuous
0
ENDTAB
0
TABLE
2
STYLE
70
1
0
STYLE
2
STANDARD
70
0
40
0
41
40
50
50
71
0
42
1
3
ARIAL.TTF
4

0
ENDTAB
0
TABLE
2
VIEW
70
0
0
ENDTAB
0
ENDSEC
0
SECTION
2
BLOCKS
0
ENDSEC
0
SECTION
2
ENTITIES
0
ARC
8
drawinglayer
10
0.578893844062
20
-0.187173016202
30
0
40
0.0861825577911
50
210.01131885
51
330.000025715
0
ARC
8
drawinglayer
10
0.56523254742
20
-0.180794671461
30
0
40
0.0786921800456
50
210.01131885
51
330.000025715
0
ARC
8
drawinglayer
10
0.553550439051
20
-0.180895503469
30
0
40
0.0664223651156
50
210.01131885
51
330.000025715
0
ARC
8
drawinglayer
10
0.593603793588
20
-0.199604162345
30
0
40
0.088380695568
50
210.01131885
51
330.000025715
0
ARC
8
drawinglayer
10
-0.206650879255
20
0.376889879923
30
0
40
0.136503491668
50
30.0113188498
51
150.000025715
0
ARC
8
drawinglayer
10
-0.145022355897
20
0.0435651893337
30
0
40
0.423952499481
50
30.0113188498
51
150.000025715
0
ARC
8
drawinglayer
10
0.622145013713
20
-0.238859503561
30
0
40
0.0766813017124
50
210.01131885
51
330.000025715
0
ARC
8
drawinglayer
10
0.608354075918
20
-0.217229597363
30
0
40
0.0851425476503
50
210.01131885
51
330.000025715
0
ARC
8
drawinglayer
10
0.673376316578
20
0.716097397958
30
0
40
1.13731590956
50
210.01131885
51
330.000025715
0
ARC
8
drawinglayer
10
0.461568600336
20
0.926009472447
30
0
40
1.13826661135
50
210.01131885
51
330.000025715
0
ARC
8
drawinglayer
10
0.879790960843
20
0.438581783401
30
0
40
1.05944479015
50
210.01131885
51
330.000025715
0
ARC
8
drawinglayer
10
1.06674790846
20
0.112370070755
30
0
40
0.909954135841
50
210.01131885
51
330.000025715
0
ARC
8
drawinglayer
10
-0.0658893959298
20
1.03557641338
30
0
40
0.704809974878
50
210.01131885
51
330.000025715
0
ARC
8
drawinglayer
10
-0.165690036645
20
0.890392726267
30
0
40
0.447786305285
50
210.01131885
51
330.000025715
0
ARC
8
drawinglayer
10
0.929688400286
20
-1.60583903754
30
0
40
1.04511512134
50
30.0113188498
51
150.000025715
0
ARC
8
drawinglayer
10
1.10959286916
20
-1.64321314158
30
0
40
0.897272350135
50
30.0113188498
51
150.000025715
0
ARC
8
drawinglayer
10
0.7269209938
20
-1.47783712462
30
0
40
1.12115397912
50
30.0113188498
51
150.000025715
0
ARC
8
drawinglayer
10
0.515113277559
20
-1.26792505013
30
0
40
1.12020615824
50
30.0113188498
51
150.000025715
0
ARC
8
drawinglayer
10
0.308698633294
20
-0.990409435571
30
0
40
1.04233215792
50
30.0113188498
51
150.000025715
0
ARC
8
drawinglayer
10
0.634942036
20
-0.370932148701
30
0
40
0.0493097328816
50
30.0113188498
51
150.000025715
0
ARC
8
drawinglayer
10
0.643852704603
20
-0.364355020858
30
0
40
0.0330988268916
50
30.0113188498
51
150.000025715
0
ARC
8
drawinglayer
10
1.35417963078
20
-1.44222037844
30
0
40
0.430673673051
50
30.0113188498
51
150.000025715
0
ARC
8
drawinglayer
10
1.40219007122
20
-1.2175551407
30
0
40
0.14371730162
50
30.0113188498
51
150.000025715
0
ARC
8
drawinglayer
10
1.25437899007
20
-1.58740406555
30
0
40
0.687697342644
50
30.0113188498
51
150.000025715
0
ARC
8
drawinglayer
10
0.121741685681
20
-0.66420060384
30
0
40
0.892844384521
50
30.0113188498
51
150.000025715
0
ARC
8
drawinglayer
10
-0.0330123994561
20
-0.311530572265
30
0
40
0.681923989951
50
30.0113188498
51
150.000025715
0
ARC
8
drawinglayer
10
1.39514047339
20
-0.928717532093
30
0
40
0.153616123902
50
210.01131885
51
330.000025715
0
ARC
8
drawinglayer
10
1.33351195003
20
-0.595395722418
30
0
40
0.441062250801
50
210.01131885
51
330.000025715
0
ARC
8
drawinglayer
10
1.22150199359
20
-0.240297079905
30
0
40
0.699036622185
50
210.01131885
51
330.000025715
0
ARC
8
drawinglayer
10
0.258804074765
20
1.05401426629
30
0
40
1.06222775358
50
210.01131885
51
330.000025715
0
ARC
8
drawinglayer
10
0.0788967249764
20
1.09138548941
30
0
40
0.914384982369
50
210.01131885
51
330.000025715
0
ARC
8
drawinglayer
10
-0.213700477079
20
0.665727488534
30
0
40
0.160829933854
50
210.01131885
51
330.000025715
0
ARC
8
drawinglayer
10
0.634031667012
20
-0.263013090876
30
0
40
0.0635789024868
50
210.01131885
51
330.000025715
0
ARC
8
drawinglayer
10
0.643210260665
20
-0.288042476204
30
0
40
0.0467284334739
50
210.01131885
51
330.000025715
0
ARC
8
drawinglayer
10
0.649049874392
20
-0.312250800894
30
0
40
0.0272736177372
50
210.01131885
51
330.000025715
0
ARC
8
drawinglayer
10
0.651155822904
20
-0.333978658185
30
0
40
0.00654543778377
50
210.01131885
51
330.000025715
0
ARC
8
drawinglayer
10
0.649381179562
20
-0.351751019844
30
0
40
0.0140473391874
50
30.0113188498
51
150.000025715
0
ARC
8
drawinglayer
10
0.623257046717
20
-0.371032980709
30
0
40
0.0615795478117
50
30.0113188498
51
150.000025715
0
ARC
8
drawinglayer
10
0.609595750075
20
-0.364651755053
30
0
40
0.0690699255572
50
30.0113188498
51
150.000025715
0
ARC
8
drawinglayer
10
0.594888681463
20
-0.352226370739
30
0
40
0.0712709442485
50
30.0113188498
51
150.000025715
0
ARC
8
drawinglayer
10
0.580135518219
20
-0.334598054807
30
0
40
0.0680299154163
50
30.0113188498
51
150.000025715
0
ARC
8
drawinglayer
10
0.566347461338
20
-0.312971029524
30
0
40
0.059571550393
50
30.0113188498
51
150.000025715
0
ARC
8
drawinglayer
10
0.554457927124
20
-0.288817442209
30
0
40
0.0464691511673
50
30.0113188498
51
150.000025715
0
ARC
8
drawinglayer
10
0.545279333472
20
-0.263782295052
30
0
40
0.0296158012399
50
30.0113188498
51
150.000025715
0
ARC
8
drawinglayer
10
0.539439719745
20
-0.23957973219
30
0
40
0.0101638664178
50
30.0113188498
51
150.000025715
0
ARC
8
drawinglayer
10
0.537333771232
20
-0.217848993985
30
0
40
0.0105671944502
50
210.01131885
51
330.000025715
0
ARC
8
drawinglayer
10
0.539108414575
20
-0.200076632326
30
0
40
0.0311570905068
50
210.01131885
51
330.000025715
0
ARC
8
drawinglayer
10
0.544636889534
20
-0.187472631312
30
0
40
0.0502085782111
50
210.01131885
51
330.000025715
0
ARC
8
drawinglayer
10
-0.115611099587
20
-0.527455115352
30
0
40
0.496338357648
50
210.01131885
51
330.000025715
0
ARC
8
drawinglayer
10
-0.163621540022
20
-0.904097236627
30
0
40
0.220571458204
50
210.01131885
51
330.000025715
0
ARC
8
drawinglayer
10
-0.156571942197
20
-1.24649104612
30
0
40
0.072820876259
50
30.0113188498
51
150.000025715
0
ARC
8
drawinglayer
10
0.308883011823
20
0.550171126322
30
0
40
1.04349604739
50
210.01131885
51
330.000025715
0
ARC
8
drawinglayer
10
0.128975662034
20
0.225330728987
30
0
40
0.922316140035
50
210.01131885
51
330.000025715
0
ARC
8
drawinglayer
10
-0.0158104588721
20
-0.142227868815
30
0
40
0.735690497592
50
210.01131885
51
330.000025715
0
ARC
8
drawinglayer
10
0.511647537394
20
0.810159256955
30
0
40
1.09097351863
50
210.01131885
51
330.000025715
0
ARC
8
drawinglayer
10
1.38359088709
20
0.728312475512
30
0
40
0.287800479384
50
210.01131885
51
330.000025715
0
ARC
8
drawinglayer
10
1.27158093065
20
0.936124363318
30
0
40
0.556615732098
50
210.01131885
51
330.000025715
0
ARC
8
drawinglayer
10
1.11682684551
20
1.05277547305
30
0
40
0.784905160294
50
210.01131885
51
330.000025715
0
ARC
8
drawinglayer
10
1.44521941045
20
0.443502385397
30
0
40
0.00322086243057
50
30.0113188498
51
150.000025715
0
ARC
8
drawinglayer
10
1.45226900827
20
0.101114337735
30
0
40
0.296610315979
50
30.0113188498
51
150.000025715
0
ARC
8
drawinglayer
10
-0.0949434188389
20
-1.5312953744
30
0
40
0.363839337159
50
30.0113188498
51
150.000025715
0
ARC
8
drawinglayer
10
0.0170665376017
20
-1.73910726221
30
0
40
0.632654589873
50
30.0113188498
51
150.000025715
0
ARC
8
drawinglayer
10
0.171820622738
20
-1.85576413377
30
0
40
0.860946898984
50
30.0113188498
51
150.000025715
0
ARC
8
drawinglayer
10
0.358777570352
20
-1.87331466501
30
0
40
1.0331593261
50
30.0113188498
51
150.000025715
0
ARC
8
drawinglayer
10
0.565192214617
20
-1.79056039549
30
0
40
1.13755214455
50
30.0113188498
51
150.000025715
0
ARC
8
drawinglayer
10
0.776999930858
20
-1.61314791767
30
0
40
1.16701525732
50
30.0113188498
51
150.000025715
0
ARC
8
drawinglayer
10
0.979767337344
20
-1.35315978704
30
0
40
1.11953778607
50
30.0113188498
51
150.000025715
0
ARC
8
drawinglayer
10
1.15967180622
20
-1.02831650879
30
0
40
0.998357878725
50
30.0113188498
51
150.000025715
0
ARC
8
drawinglayer
10
1.30445792712
20
-0.660757910991
30
0
40
0.811732236281
50
30.0113188498
51
150.000025715
0
ARC
8
drawinglayer
10
1.40425856784
20
-0.275530664454
30
0
40
0.572380096338
50
30.0113188498
51
150.000025715
0
ARC
8
drawinglayer
10
0.9298698979
20
1.0703288852
30
0
40
0.957117587407
50
210.01131885
51
330.000025715
0
ARC
8
drawinglayer
10
0.723455253636
20
0.987574615686
30
0
40
1.06151040586
50
210.01131885
51
330.000025715
0
ENDSEC
0
EOF
