0
SECTION
2
HEADER
9
$ACADVER
1
AC1006
9
$INSBASE
10
0.0
20
0.0
30
0.0
9
$EXTMIN
10
0.0
20
0.0
9
$EXTMAX
10
0.0
20
0.0
0
ENDSEC
0
SECTION
2
TABLES
0
TABLE
2
LTYPE
70
1
0
LTYPE
2
CONTINUOUS
70
64
3
Solid line
72
65
73
0
40
0.0
0
ENDTAB
0
TABLE
2
LAYER
70
1
0
LAYER
2
PYDXF
70
64
62
7
6
continuous
0
ENDTAB
0
TABLE
2
STYLE
70
1
0
STYLE
2
STANDARD
70
0
40
0
41
40
50
50
71
0
42
1
3
ARIAL.TTF
4

0
ENDTAB
0
TABLE
2
VIEW
70
0
0
ENDTAB
0
ENDSEC
0
SECTION
2
BLOCKS
0
ENDSEC
0
SECTION
2
ENTITIES
0
ARC
8
drawinglayer
10
-0.179419532682
20
0.174929642512
30
0
40
0.0317857091313
50
262.150478207
51
329.705468112
0
ARC
8
drawinglayer
10
-0.269972145651
20
0.129931157904
30
0
40
0.02033944782
50
75.7906466808
51
149.274088188
0
ARC
8
drawinglayer
10
-0.36052620185
20
0.0849326732959
30
0
40
0.0724646047713
50
70.5194349656
51
148.839041334
0
ARC
8
drawinglayer
10
-0.451078814819
20
0.039934188688
30
0
40
0.124589761723
50
66.3368430611
51
148.400327551
0
ARC
8
drawinglayer
10
-0.541632871018
20
-0.00506285268946
30
0
40
0.176713475443
50
63.1282794084
51
147.957889541
0
ARC
8
drawinglayer
10
-0.632185483987
20
-0.0500613372974
30
0
40
0.228838632395
50
60.9510397869
51
147.511841898
0
ARC
8
drawinglayer
10
-0.722739540187
20
-0.0950598219054
30
0
40
0.280963789346
50
57.9143634727
51
147.062127324
0
ARC
8
drawinglayer
10
-0.813292153156
20
-0.140058306513
30
0
40
0.333088946297
50
55.7944196307
51
146.608745821
0
ARC
8
drawinglayer
10
-0.0888654764826
20
0.219926683889
30
0
40
0.0839094228521
50
270.572957795
51
330.133181106
0
ARC
8
drawinglayer
10
-0.278150933049
20
-0.100336272713
30
0
40
0.251250559252
50
78.9992103335
51
80.9027480163
0
ARC
8
drawinglayer
10
-0.599235087821
20
-0.166258713504
30
0
40
0.342442523344
50
64.2168992191
51
79.5375614778
0
ARC
8
drawinglayer
10
-0.492207998384
20
-0.144284085497
30
0
40
0.31204520198
50
68.4567869031
51
79.9891668119
0
ARC
8
drawinglayer
10
-0.385179465716
20
-0.12231090072
30
0
40
0.281647880616
50
73.6707028388
51
80.4442098928
0
ARC
8
drawinglayer
10
-0.175785478214
20
0.0382412792795
30
0
40
0.0836698465846
50
107.131438074
51
149.244351679
0
ARC
8
drawinglayer
10
-0.352576888106
20
-0.890128303194
30
0
40
1.18247340848
50
90.4010704566
51
144.538248237
0
ARC
8
drawinglayer
10
-0.112605175425
20
-0.730300624919
30
0
40
1.00375961552
50
89.5989295434
51
145.822533134
0
ARC
8
drawinglayer
10
-0.272585836136
20
-0.805396238941
30
0
40
1.09144597267
50
83.410985356
51
145.085422931
0
ARC
8
drawinglayer
10
-9.5253214796e-05
20
-0.540414784454
30
0
40
1.15810446103
50
90.9740282517
51
145.535825054
0
ARC
8
drawinglayer
10
-0.00442494479643
20
-0.488289627502
30
0
40
0.892834360432
50
34.4230938723
51
146.508879277
0
ARC
8
drawinglayer
10
-0.00153848374201
20
-0.471385068337
30
0
40
1.01802594928
50
34.8814601084
51
146.048908759
0
ARC
8
drawinglayer
10
-0.00875463637807
20
-0.43213785738
30
0
40
0.738796923033
50
91.8907607239
51
147.080118199
0
ARC
8
drawinglayer
10
-0.00875463637807
20
-0.43213785738
30
0
40
0.738796923033
50
33.8501360772
51
87.1318305734
0
ARC
8
drawinglayer
10
-0.00394434903087
20
-0.686427860122
30
0
40
1.11465456277
50
90.9740282517
51
145.685768109
0
ARC
8
drawinglayer
10
-0.115223195601
20
-0.0817676687497
30
0
40
0.110127148609
50
83.525576915
51
149.282911738
0
ARC
8
drawinglayer
10
-0.115223195601
20
-0.0817676687497
30
0
40
0.110127148609
50
31.1572344401
51
79.5639175364
0
ARC
8
drawinglayer
10
0.0016279640347
20
0.709627790847
30
0
40
0.691659570783
50
208.177853905
51
332.879826184
0
ARC
8
drawinglayer
10
0.0217754621946
20
0.709627790847
30
0
40
0.691659570783
50
208.177853905
51
332.923829343
0
ARC
8
drawinglayer
10
0.00604280621744
20
1.00654938013
30
0
40
0.757489644821
50
207.891375008
51
333.171289815
0
ARC
8
drawinglayer
10
0.084727734561
20
0.89964352206
30
0
40
0.674610688565
50
208.407037023
51
287.315644006
0
ARC
8
drawinglayer
10
0.00483770872721
20
0.914872490583
30
0
40
0.819700096696
50
207.60489611
51
333.436340091
0
ARC
8
drawinglayer
10
0.0545598868507
20
-0.652968003579
30
0
40
0.77183102657
50
34.1366149747
51
79.8840290565
0
ARC
8
drawinglayer
10
0.0831531700559
20
-0.695720821487
30
0
40
0.86753452929
50
67.0243924153
51
81.0163082512
0
ARC
8
drawinglayer
10
0.0831531700559
20
-0.695720821487
30
0
40
0.86753452929
50
34.5376854313
51
44.1780441091
0
ARC
8
drawinglayer
10
-0.0303410353736
20
-0.792209441614
30
0
40
0.959450995107
50
129.133017407
51
146.194955701
0
ARC
8
drawinglayer
10
0.0565731934362
20
-0.81757566136
30
0
40
1.05515449783
50
35.167939006
51
77.3380910938
0
ARC
8
drawinglayer
10
-0.0682344960961
20
0.912491160213
30
0
40
0.749038086854
50
243.070983629
51
332.972759939
0
ARC
8
drawinglayer
10
0.0146805409228
20
-0.883050700688
30
0
40
1.15665834404
50
70.0037729499
51
72.6743865288
0
ARC
8
drawinglayer
10
0.0914012325189
20
-0.513313801614
30
0
40
0.64681118215
50
33.7355445182
51
68.5042851043
0
ARC
8
drawinglayer
10
0.0914012325189
20
-0.406594120279
30
0
40
0.52179133773
50
81.8067035296
51
85.6120600218
0
ARC
8
drawinglayer
10
0.0914012325189
20
-0.406594120279
30
0
40
0.52179133773
50
33.277178282
51
79.8497088846
0
ARC
8
drawinglayer
10
0.0545598868507
20
-0.373738977327
30
0
40
0.64681118215
50
33.6782487386
51
88.342089324
0
ARC
8
drawinglayer
10
0.0545598868507
20
-0.250354313094
30
0
40
0.52179133773
50
33.162586723
51
88.3258746184
0
ARC
8
drawinglayer
10
0.0545598868507
20
-0.49712508479
30
0
40
0.77183102657
50
34.1366149747
51
88.3580175507
0
ARC
8
drawinglayer
10
-0.0829323557852
20
-0.620034926179
30
0
40
0.77183102657
50
123.747214133
51
146.770778285
0
ARC
8
drawinglayer
10
-0.0829323557852
20
-0.620034926179
30
0
40
0.77183102657
50
92.5210142986
51
95.282441688
0
ARC
8
drawinglayer
10
-0.0645109613359
20
-0.529781061929
30
0
40
0.64681118215
50
100.198648753
51
147.294289823
0
ARC
8
drawinglayer
10
-0.0829323557852
20
-0.406594120279
30
0
40
0.52179133773
50
100.198648753
51
147.732029578
0
ARC
8
drawinglayer
10
-0.0829323557852
20
-0.406594120279
30
0
40
0.52179133773
50
94.469070802
51
97.3058994373
0
ARC
8
drawinglayer
10
-0.0964164586009
20
0.796625727027
30
0
40
0.624240499935
50
261.061858396
51
332.374935775
0
ARC
8
drawinglayer
10
-0.0964164586009
20
-0.245220742109
30
0
40
0.417605969201
50
90.5729577951
51
142.182876037
0
ARC
8
drawinglayer
10
-0.0964164586009
20
-0.141036816811
30
0
40
0.313422043903
50
90.5729577951
51
148.516351504
0
ARC
8
drawinglayer
10
-0.0964164586009
20
-0.0368514482818
30
0
40
0.209236675374
50
90.5729577951
51
148.930542694
0
ARC
8
drawinglayer
10
-0.0964164586009
20
0.0673324770166
30
0
40
0.105052750076
50
90.5729577951
51
149.348343518
0
ARC
8
drawinglayer
10
-0.0964164586009
20
0.171517845545
30
0
40
0.000867381546854
50
90.5729577951
51
149.769811272
0
ARC
8
drawinglayer
10
-0.0964164586009
20
0.275701770844
30
0
40
0.103316543752
50
270.572957795
51
330.194888661
0
ARC
8
drawinglayer
10
-0.0964164586009
20
0.379887139373
30
0
40
0.20750191228
50
270.515662016
51
330.623632979
0
ARC
8
drawinglayer
10
-0.0964164586009
20
0.484071064671
30
0
40
0.311685837579
50
270.515662016
51
331.055986931
0
ARC
8
drawinglayer
10
-0.0964164586009
20
0.5882564332
30
0
40
0.415871206108
50
270.515662016
51
331.492007813
0
ARC
8
drawinglayer
10
-0.0964164586009
20
0.692440358498
30
0
40
0.520055131406
50
270.515662016
51
331.931638329
0
ARC
8
drawinglayer
10
-0.045929368298
20
-0.81757566136
30
0
40
1.05515449783
50
100.943493887
51
145.799844006
0
ARC
8
drawinglayer
10
-0.0863513689042
20
-0.65740593745
30
0
40
0.86753452929
50
94.354479243
51
146.399730817
0
ARC
8
drawinglayer
10
0.00423443836684
20
0.911001746309
30
0
40
0.624240499935
50
208.464332803
51
332.59833202
0
ARC
8
drawinglayer
10
0.00423443836684
20
0.682249707746
30
0
40
0.624240499935
50
300.424058921
51
332.59833202
0
ARC
8
drawinglayer
10
0.00423443836684
20
0.682249707746
30
0
40
0.624240499935
50
276.302535746
51
280.55342422
0
ARC
8
drawinglayer
10
0.00423443836684
20
0.682249707746
30
0
40
0.624240499935
50
259.45757657
51
262.64648777
0
ARC
8
drawinglayer
10
0.00423443836684
20
0.682249707746
30
0
40
0.624240499935
50
208.464332803
51
238.493108142
0
ARC
8
drawinglayer
10
0.084727734561
20
0.788963616158
30
0
40
0.674610688565
50
208.407037023
51
282.044489586
0
ARC
8
drawinglayer
10
-0.0829323557852
20
-0.411138853209
30
0
40
0.64681118215
50
90.6302535746
51
147.248796974
0
ARC
8
drawinglayer
10
-0.0829323557852
20
-0.292218100997
30
0
40
0.52179133773
50
90.6302535746
51
147.732029578
0
ARC
8
drawinglayer
10
0.00423443836684
20
-0.46378212992
30
0
40
0.52179133773
50
115.038255647
51
147.944654216
0
ARC
8
drawinglayer
10
0.00423443836684
20
-0.46378212992
30
0
40
0.52179133773
50
91.0313240312
51
106.333594345
0
ARC
8
drawinglayer
10
0.00423443836684
20
-0.46378212992
30
0
40
0.52179133773
50
72.7539703666
51
89.0597762582
0
ARC
8
drawinglayer
10
0.00423443836684
20
-0.46378212992
30
0
40
0.52179133773
50
33.047995164
51
65.0460837402
0
ARC
8
drawinglayer
10
-0.046091010117
20
-0.344273982883
30
0
40
0.417605969201
50
111.14214264
51
148.228268325
0
ARC
8
drawinglayer
10
-0.046091010117
20
-0.344273982883
30
0
40
0.417605969201
50
89.8281126615
51
108.186711741
0
ARC
8
drawinglayer
10
-0.046091010117
20
-0.240090057585
30
0
40
0.313422043903
50
121.054312496
51
148.637933148
0
ARC
8
drawinglayer
10
-0.046091010117
20
-0.240090057585
30
0
40
0.313422043903
50
89.8281126615
51
118.120195627
0
ARC
8
drawinglayer
10
-0.046091010117
20
-0.135904689056
30
0
40
0.209236675374
50
147.066596395
51
149.05115031
0
ARC
8
drawinglayer
10
-0.046091010117
20
-0.135904689056
30
0
40
0.209236675374
50
89.8281126615
51
142.096645889
0
ARC
8
drawinglayer
10
-0.046091010117
20
-0.0317207637576
30
0
40
0.105052750076
50
89.7708168819
51
149.468034402
0
ARC
8
drawinglayer
10
-0.046091010117
20
0.0724646047713
30
0
40
0.000867381546854
50
89.7708168819
51
149.888528128
0
ARC
8
drawinglayer
10
-0.046091010117
20
0.17664853007
30
0
40
0.103316543752
50
269.770816882
51
330.312574192
0
ARC
8
drawinglayer
10
-0.046091010117
20
0.280833898599
30
0
40
0.20750191228
50
269.770816882
51
330.740287186
0
ARC
8
drawinglayer
10
-0.046091010117
20
0.385017823897
30
0
40
0.311685837579
50
269.770816882
51
331.171552518
0
ARC
8
drawinglayer
10
-0.046091010117
20
0.489203192426
30
0
40
0.415871206108
50
269.713521102
51
331.606484781
0
ARC
8
drawinglayer
10
-0.046091010117
20
0.593387117724
30
0
40
0.520055131406
50
269.713521102
51
332.044969381
0
ARC
8
drawinglayer
10
0.0914012325189
20
-0.188032732468
30
0
40
0.417605969201
50
32.8761078255
51
89.445720629
0
ARC
8
drawinglayer
10
0.0914012325189
20
-0.08384880717
30
0
40
0.313422043903
50
32.4750373689
51
89.4411369666
0
ARC
8
drawinglayer
10
0.0914012325189
20
0.0203365613589
30
0
40
0.209236675374
50
32.0739669123
51
89.4364960085
0
ARC
8
drawinglayer
10
0.0914012325189
20
0.124520486657
30
0
40
0.105052750076
50
31.6156006762
51
89.4317404588
0
ARC
8
drawinglayer
10
0.0914012325189
20
0.228705855186
30
0
40
0.000867381546854
50
31.2145302196
51
89.4268703175
0
ARC
8
drawinglayer
10
0.0914012325189
20
0.332889780485
30
0
40
0.103316543752
50
210.813459763
51
269.422000176
0
ARC
8
drawinglayer
10
0.0914012325189
20
0.437075149014
30
0
40
0.20750191228
50
210.355093527
51
269.417015443
0
ARC
8
drawinglayer
10
0.0914012325189
20
0.541259074312
30
0
40
0.311685837579
50
209.95402307
51
269.411916119
0
ARC
8
drawinglayer
10
0.0914012325189
20
0.645444442841
30
0
40
0.415871206108
50
209.495656834
51
269.406759499
0
ARC
8
drawinglayer
10
0.0914012325189
20
0.749628368139
30
0
40
0.520055131406
50
209.094586378
51
269.401488287
0
ARC
8
drawinglayer
10
0.00423443836684
20
-0.130844722828
30
0
40
0.417605969201
50
94.8701412586
51
148.349849969
0
ARC
8
drawinglayer
10
0.00423443836684
20
-0.130844722828
30
0
40
0.417605969201
50
32.6469247074
51
85.183487591
0
ARC
8
drawinglayer
10
0.00423443836684
20
-0.0266607975292
30
0
40
0.313422043903
50
94.9274370381
51
148.758655356
0
ARC
8
drawinglayer
10
0.00423443836684
20
-0.0266607975292
30
0
40
0.313422043903
50
32.2458542508
51
85.1436097285
0
ARC
8
drawinglayer
10
0.00423443836684
20
0.0775245709997
30
0
40
0.209236675374
50
94.9274370381
51
149.170955785
0
ARC
8
drawinglayer
10
0.00423443836684
20
0.0775245709997
30
0
40
0.209236675374
50
31.8447837942
51
85.1031016124
0
ARC
8
drawinglayer
10
0.00423443836684
20
0.181708496298
30
0
40
0.105052750076
50
94.9847328176
51
149.586865848
0
ARC
8
drawinglayer
10
0.00423443836684
20
0.181708496298
30
0
40
0.105052750076
50
31.4437133376
51
85.0619632427
0
ARC
8
drawinglayer
10
0.00423443836684
20
0.285893864827
30
0
40
0.000867381546854
50
95.0420285972
51
150.006385546
0
ARC
8
drawinglayer
10
0.00423443836684
20
0.285893864827
30
0
40
0.000867381546854
50
30.9853471015
51
85.0200800278
0
ARC
8
drawinglayer
10
0.00423443836684
20
0.390077790125
30
0
40
0.103316543752
50
275.042028597
51
330.429457582
0
ARC
8
drawinglayer
10
0.00423443836684
20
0.390077790125
30
0
40
0.103316543752
50
210.584276645
51
264.977451968
0
ARC
8
drawinglayer
10
0.00423443836684
20
0.494263158654
30
0
40
0.20750191228
50
275.099324377
51
330.856081956
0
ARC
8
drawinglayer
10
0.00423443836684
20
0.494263158654
30
0
40
0.20750191228
50
210.183206188
51
264.934136359
0
ARC
8
drawinglayer
10
0.00423443836684
20
0.598447083953
30
0
40
0.311685837579
50
275.099324377
51
331.286315965
0
ARC
8
drawinglayer
10
0.00423443836684
20
0.598447083953
30
0
40
0.311685837579
50
209.724839952
51
264.890018608
0
ARC
8
drawinglayer
10
0.00423443836684
20
0.702632452482
30
0
40
0.415871206108
50
275.156620156
51
331.720045016
0
ARC
8
drawinglayer
10
0.00423443836684
20
0.702632452482
30
0
40
0.415871206108
50
209.323769496
51
264.845213309
0
ARC
8
drawinglayer
10
0.00423443836684
20
0.80681637778
30
0
40
0.520055131406
50
275.213915936
51
332.157383701
0
ARC
8
drawinglayer
10
0.00423443836684
20
0.80681637778
30
0
40
0.520055131406
50
208.86540326
51
264.799548572
0
ARC
8
drawinglayer
10
0.0914012325189
20
-0.30240875175
30
0
40
0.417605969201
50
78.8273229949
51
79.7666300043
0
ARC
8
drawinglayer
10
0.0914012325189
20
-0.30240875175
30
0
40
0.417605969201
50
32.8761078255
51
75.8895391962
0
ARC
8
drawinglayer
10
0.0914012325189
20
-0.198224826452
30
0
40
0.313422043903
50
32.4750373689
51
60.0997963906
0
ARC
8
drawinglayer
10
0.0914012325189
20
0.218513761203
30
0
40
0.103316543752
50
210.813459763
51
270.430463191
0
ARC
8
drawinglayer
10
0.0914012325189
20
0.322699129732
30
0
40
0.20750191228
50
210.355093527
51
270.434187417
0
ARC
8
drawinglayer
10
0.0914012325189
20
0.42688305503
30
0
40
0.311685837579
50
209.95402307
51
270.437968939
0
ARC
8
drawinglayer
10
0.0914012325189
20
0.531068423559
30
0
40
0.415871206108
50
209.495656834
51
270.441865052
0
ARC
8
drawinglayer
10
0.0914012325189
20
0.635252348858
30
0
40
0.520055131406
50
209.094586378
51
270.445761165
0
ARC
8
drawinglayer
10
-0.1469742672
20
-0.0817676687497
30
0
40
0.110127148609
50
81.405633073
51
149.206765647
0
ARC
8
drawinglayer
10
-0.1469742672
20
-0.0817676687497
30
0
40
0.110127148609
50
31.0999386606
51
77.4417964548
0
ARC
8
drawinglayer
10
0.369267849154
20
-0.8902278861
30
0
40
1.18247340848
50
36.4857419348
51
89.7490444857
0
ARC
8
drawinglayer
10
0.129296136472
20
-0.730400207825
30
0
40
1.00375961552
50
35.167939006
51
91.4824137033
0
ARC
8
drawinglayer
10
0.289278240413
20
-0.805495821848
30
0
40
1.09144597267
50
35.9127841397
51
96.7431402909
0
ARC
8
drawinglayer
10
0.178924504611
20
-0.0817676687497
30
0
40
0.110127148609
50
104.667719555
51
149.972867515
0
ARC
8
drawinglayer
10
0.178924504611
20
-0.0817676687497
30
0
40
0.110127148609
50
31.9020795737
51
100.725368854
0
ARC
8
drawinglayer
10
0.147173433012
20
-0.0817676687497
30
0
40
0.110127148609
50
102.547775713
51
149.8997581
0
ARC
8
drawinglayer
10
0.147173433012
20
-0.0817676687497
30
0
40
0.110127148609
50
31.7874880147
51
98.602674815
0
ARC
8
drawinglayer
10
0.187888409416
20
0.174929642512
30
0
40
0.0317857091313
50
211.329121779
51
277.889628839
0
ARC
8
drawinglayer
10
0.278441022385
20
0.129931157904
30
0
40
0.02033944782
50
31.7874880147
51
104.237199068
0
ARC
8
drawinglayer
10
0.368995078584
20
0.0849326732959
30
0
40
0.0724646047713
50
32.1885584713
51
109.511504755
0
ARC
8
drawinglayer
10
0.459547691553
20
0.039934188688
30
0
40
0.124589761723
50
32.6469247074
51
112.754445876
0
ARC
8
drawinglayer
10
0.550101747752
20
-0.00506285268946
30
0
40
0.176713475443
50
33.1052909435
51
115.949373133
0
ARC
8
drawinglayer
10
0.640654360721
20
-0.0500613372974
30
0
40
0.228838632395
50
33.5636571796
51
119.095312499
0
ARC
8
drawinglayer
10
0.73120841692
20
-0.0950598219054
30
0
40
0.280963789346
50
34.0220234157
51
121.239893526
0
ARC
8
drawinglayer
10
0.821761029889
20
-0.140058306513
30
0
40
0.333088946297
50
34.4803896518
51
123.351300297
0
ARC
8
drawinglayer
10
0.0973357964468
20
0.219926683889
30
0
40
0.0839094228521
50
210.870755542
51
269.450819953
0
ARC
8
drawinglayer
10
0.286619809782
20
-0.100336272713
30
0
40
0.251250559252
50
99.1673247221
51
101.087993843
0
ARC
8
drawinglayer
10
0.607705407785
20
-0.166258713504
30
0
40
0.342442523344
50
100.54242343
51
114.901261438
0
ARC
8
drawinglayer
10
0.500676875117
20
-0.144284085497
30
0
40
0.31204520198
50
100.084057194
51
111.63643333
0
ARC
8
drawinglayer
10
0.39364834245
20
-0.12231090072
30
0
40
0.281647880616
50
99.6256909582
51
106.392666293
0
ARC
8
drawinglayer
10
0.184254354948
20
0.0382412792795
30
0
40
0.0836698465846
50
31.7874880147
51
72.9373741568
0
ENDSEC
0
EOF
