0
SECTION
2
HEADER
9
$ACADVER
1
AC1006
9
$INSBASE
10
0.0
20
0.0
30
0.0
9
$EXTMIN
10
0.0
20
0.0
9
$EXTMAX
10
0.0
20
0.0
0
ENDSEC
0
SECTION
2
TABLES
0
TABLE
2
LTYPE
70
1
0
LTYPE
2
CONTINUOUS
70
64
3
Solid line
72
65
73
0
40
0.0
0
ENDTAB
0
TABLE
2
LAYER
70
1
0
LAYER
2
PYDXF
70
64
62
7
6
continuous
0
ENDTAB
0
TABLE
2
STYLE
70
1
0
STYLE
2
STANDARD
70
0
40
0
41
40
50
50
71
0
42
1
3
ARIAL.TTF
4

0
ENDTAB
0
TABLE
2
VIEW
70
0
0
ENDTAB
0
ENDSEC
0
SECTION
2
BLOCKS
0
ENDSEC
0
SECTION
2
ENTITIES
0
ARC
8
drawinglayer
10
0.532981621922
20
-0.401506342953
30
0
40
0.532634538292
50
30.0113188498
51
85.000026505
0
ARC
8
drawinglayer
10
0.418652274265
20
-0.108359509224
30
0
40
0.418305190636
50
30.0113188498
51
85.000026505
0
ARC
8
drawinglayer
10
-1.00404352429
20
-1.13447755237
30
0
40
0.702844350346
50
96.0160568489
51
150.000025715
0
ARC
8
drawinglayer
10
-1.00404352429
20
-1.32419346442
30
0
40
0.892560262395
50
96.0160568489
51
150.000025715
0
ARC
8
drawinglayer
10
0.0587265501623
20
1.04298630755
30
0
40
-0.17027922878
50
30.0113188498
51
150.000025715
0
ARC
8
drawinglayer
10
-0.0556027974941
20
1.10747444597
30
0
40
-0.0559498811239
50
30.0113188498
51
150.000025715
0
ARC
8
drawinglayer
10
-0.64418721691
20
-0.401506342953
30
0
40
0.532634538292
50
96.0160568489
51
150.000025715
0
ARC
8
drawinglayer
10
-0.529857869254
20
-0.108359509224
30
0
40
0.418305190636
50
96.0160568489
51
150.000025715
0
ARC
8
drawinglayer
10
0.532981621922
20
0.775662495878
30
0
40
-0.64453430054
50
30.0113188498
51
150.000025715
0
ARC
8
drawinglayer
10
0.418652274265
20
0.840081217569
30
0
40
-0.530135536157
50
30.0113188498
51
150.000025715
0
ARC
8
drawinglayer
10
-0.16993214515
20
1.04298630755
30
0
40
-0.17027922878
50
30.0113188498
51
150.000025715
0
ARC
8
drawinglayer
10
-0.64418721691
20
0.775662495878
30
0
40
-0.64453430054
50
30.0113188498
51
150.000025715
0
ARC
8
drawinglayer
10
-0.529857869254
20
0.840081217569
30
0
40
-0.530135536157
50
30.0113188498
51
150.000025715
0
ARC
8
drawinglayer
10
-0.814397028964
20
0.572757405897
30
0
40
-1.00439060792
50
30.0113188498
51
150.000025715
0
ARC
8
drawinglayer
10
-1.00404352429
20
0.572757405897
30
0
40
-1.00439060792
50
30.0113188498
51
150.000025715
0
ARC
8
drawinglayer
10
0.892907346025
20
0.383041493848
30
0
40
-0.814674695868
50
30.0113188498
51
83.9999859694
0
ARC
8
drawinglayer
10
0.892907346025
20
0.572757405897
30
0
40
-1.00439060792
50
30.0113188498
51
150.000025715
0
ARC
8
drawinglayer
10
-0.16993214515
20
0.814258195512
30
0
40
0.0584488832584
50
96.0160568489
51
150.000025715
0
ARC
8
drawinglayer
10
0.892907346025
20
-1.32419346442
30
0
40
0.892560262395
50
30.0113188498
51
85.000026505
0
ARC
8
drawinglayer
10
0.0587265501623
20
0.814258195512
30
0
40
0.0584488832584
50
30.0113188498
51
85.000026505
0
ARC
8
drawinglayer
10
0.802873852455
20
-1.09352168405
30
0
40
0.802596185551
50
30.0113188498
51
85.000026505
0
ARC
8
drawinglayer
10
0.71290977561
20
-0.862849903684
30
0
40
0.712632108707
50
30.0113188498
51
85.000026505
0
ARC
8
drawinglayer
10
0.622945698766
20
-0.632108706593
30
0
40
0.622598615136
50
30.0113188498
51
85.000026505
0
ARC
8
drawinglayer
10
-1.00404352429
20
0.383041493848
30
0
40
-0.814674695868
50
96.9900851006
51
150.000025715
0
ARC
8
drawinglayer
10
-1.00404352429
20
0.193394998525
30
0
40
-0.625028200545
50
96.9900851006
51
150.000025715
0
ARC
8
drawinglayer
10
-1.00404352429
20
0.00367908647589
30
0
40
-0.435312288496
50
96.9900851006
51
150.000025715
0
ARC
8
drawinglayer
10
-1.00404352429
20
-0.186036825573
30
0
40
-0.245596376447
50
96.0160568489
51
150.000025715
0
ARC
8
drawinglayer
10
-1.00404352429
20
-0.375683320896
30
0
40
-0.0559498811239
50
96.0160568489
51
150.000025715
0
ARC
8
drawinglayer
10
-1.00404352429
20
-0.565399232945
30
0
40
0.133766030925
50
96.0160568489
51
150.000025715
0
ARC
8
drawinglayer
10
-1.00404352429
20
-0.755115144994
30
0
40
0.323481942974
50
96.0160568489
51
150.000025715
0
ARC
8
drawinglayer
10
-1.00404352429
20
-0.944761640317
30
0
40
0.513128438297
50
96.0160568489
51
150.000025715
0
ARC
8
drawinglayer
10
0.328688197421
20
0.890824844246
30
0
40
-0.440171459313
50
30.0113188498
51
150.000025715
0
ARC
8
drawinglayer
10
0.238724120577
20
0.941568470923
30
0
40
-0.350207382469
50
30.0113188498
51
150.000025715
0
ARC
8
drawinglayer
10
0.148760043733
20
0.9923120976
30
0
40
-0.260243305624
50
30.0113188498
51
150.000025715
0
ARC
8
drawinglayer
10
-0.914079447443
20
-1.09352168405
30
0
40
0.802596185551
50
96.0160568489
51
150.000025715
0
ARC
8
drawinglayer
10
-0.824115370599
20
-0.862849903684
30
0
40
0.712632108707
50
96.0160568489
51
150.000025715
0
ARC
8
drawinglayer
10
-0.734151293754
20
-0.632108706593
30
0
40
0.622598615136
50
96.0160568489
51
150.000025715
0
ARC
8
drawinglayer
10
0.802873852455
20
0.623501032574
30
0
40
-0.914426531073
50
30.0113188498
51
150.000025715
0
ARC
8
drawinglayer
10
0.71290977561
20
0.674244659251
30
0
40
-0.824462454228
50
30.0113188498
51
150.000025715
0
ARC
8
drawinglayer
10
0.622945698766
20
0.724988285927
30
0
40
-0.734498377384
50
30.0113188498
51
150.000025715
0
ARC
8
drawinglayer
10
-0.439824375683
20
0.890824844246
30
0
40
-0.440171459313
50
30.0113188498
51
150.000025715
0
ARC
8
drawinglayer
10
-0.349860298839
20
0.941568470923
30
0
40
-0.350207382469
50
30.0113188498
51
150.000025715
0
ARC
8
drawinglayer
10
-0.259896221995
20
0.9923120976
30
0
40
-0.260243305624
50
30.0113188498
51
150.000025715
0
ARC
8
drawinglayer
10
-0.914079447443
20
0.623501032574
30
0
40
-0.914426531073
50
30.0113188498
51
150.000025715
0
ARC
8
drawinglayer
10
-0.824115370599
20
0.674244659251
30
0
40
-0.824462454228
50
30.0113188498
51
150.000025715
0
ARC
8
drawinglayer
10
-0.734151293754
20
0.724988285927
30
0
40
-0.734498377384
50
30.0113188498
51
150.000025715
0
ARC
8
drawinglayer
10
0.703191433976
20
0.572757405897
30
0
40
-1.00439060792
50
30.0113188498
51
150.000025715
0
ARC
8
drawinglayer
10
0.513475521927
20
0.572757405897
30
0
40
-1.00439060792
50
30.0113188498
51
150.000025715
0
ARC
8
drawinglayer
10
0.323759609878
20
0.572757405897
30
0
40
-1.00439060792
50
30.0113188498
51
150.000025715
0
ARC
8
drawinglayer
10
0.134113114555
20
0.572757405897
30
0
40
-1.00439060792
50
30.0113188498
51
150.000025715
0
ARC
8
drawinglayer
10
-0.0556027974941
20
0.572757405897
30
0
40
-1.00439060792
50
30.0113188498
51
150.000025715
0
ARC
8
drawinglayer
10
-0.245318709543
20
0.572757405897
30
0
40
-1.00439060792
50
30.0113188498
51
150.000025715
0
ARC
8
drawinglayer
10
-0.434965204866
20
0.572757405897
30
0
40
-1.00439060792
50
30.0113188498
51
150.000025715
0
ARC
8
drawinglayer
10
-0.624681116915
20
0.572757405897
30
0
40
-1.00439060792
50
30.0113188498
51
150.000025715
0
ARC
8
drawinglayer
10
0.892907346025
20
-1.13447755237
30
0
40
0.702844350346
50
30.0113188498
51
85.000026505
0
ARC
8
drawinglayer
10
0.892907346025
20
-0.944761640317
30
0
40
0.513128438297
50
30.0113188498
51
85.000026505
0
ARC
8
drawinglayer
10
0.892907346025
20
-0.755115144994
30
0
40
0.323481942974
50
30.0113188498
51
85.000026505
0
ARC
8
drawinglayer
10
0.892907346025
20
-0.565399232945
30
0
40
0.133766030925
50
30.0113188498
51
85.000026505
0
ARC
8
drawinglayer
10
0.892907346025
20
-0.375683320896
30
0
40
-0.0559498811239
50
30.0113188498
51
85.000026505
0
ARC
8
drawinglayer
10
0.892907346025
20
-0.186036825573
30
0
40
-0.245596376447
50
30.0113188498
51
85.000026505
0
ARC
8
drawinglayer
10
0.892907346025
20
0.00367908647589
30
0
40
-0.435312288496
50
30.0113188498
51
83.9999859694
0
ARC
8
drawinglayer
10
0.892907346025
20
0.193394998525
30
0
40
-0.625028200545
50
30.0113188498
51
83.9999859694
0
ARC
8
drawinglayer
10
-0.439824375683
20
0.122312271142
30
0
40
0.328341113791
50
96.0160568489
51
150.000025715
0
ARC
8
drawinglayer
10
-0.349860298839
20
0.352984051507
30
0
40
0.238377036947
50
96.0160568489
51
150.000025715
0
ARC
8
drawinglayer
10
-0.259896221995
20
0.583655831873
30
0
40
0.148412960103
50
96.0160568489
51
150.000025715
0
ARC
8
drawinglayer
10
0.328688197421
20
0.122312271142
30
0
40
0.328341113791
50
30.0113188498
51
85.000026505
0
ARC
8
drawinglayer
10
0.238724120577
20
0.352984051507
30
0
40
0.238377036947
50
30.0113188498
51
85.000026505
0
ARC
8
drawinglayer
10
0.148760043733
20
0.583655831873
30
0
40
0.148412960103
50
30.0113188498
51
85.000026505
0
ENDSEC
0
EOF
