0
SECTION
2
HEADER
9
$ACADVER
1
AC1006
9
$INSBASE
10
0.0
20
0.0
30
0.0
9
$EXTMIN
10
0.0
20
0.0
9
$EXTMAX
10
0.0
20
0.0
0
ENDSEC
0
SECTION
2
TABLES
0
TABLE
2
LTYPE
70
1
0
LTYPE
2
CONTINUOUS
70
64
3
Solid line
72
65
73
0
40
0.0
0
ENDTAB
0
TABLE
2
LAYER
70
1
0
LAYER
2
PYDXF
70
64
62
7
6
continuous
0
ENDTAB
0
TABLE
2
STYLE
70
1
0
STYLE
2
STANDARD
70
0
40
0
41
40
50
50
71
0
42
1
3
ARIAL.TTF
4

0
ENDTAB
0
TABLE
2
VIEW
70
0
0
ENDTAB
0
ENDSEC
0
SECTION
2
BLOCKS
0
ENDSEC
0
SECTION
2
ENTITIES
0
ARC
8
drawinglayer
10
0.545845552297
20
-0.41119701413
30
0
40
0.545490091531
50
34.7095727699
51
88.7423576397
0
ARC
8
drawinglayer
10
0.428756775971
20
-0.110974851151
30
0
40
0.428401315205
50
33.9074318567
51
88.1739835069
0
ARC
8
drawinglayer
10
-1.02827690394
20
-1.16185905981
30
0
40
0.719808051186
50
89.0832675278
51
144.162216036
0
ARC
8
drawinglayer
10
-1.02827690394
20
-1.35615391451
30
0
40
0.914102905892
50
89.0832675278
51
143.363512869
0
ARC
8
drawinglayer
10
0.0601439616102
20
1.06815960188
30
0
40
0.174389051808
50
210.412389306
51
330.892865847
0
ARC
8
drawinglayer
10
-0.0569448147161
20
1.13420421221
30
0
40
0.0573002754821
50
210.641572424
51
330.104590512
0
ARC
8
drawinglayer
10
-0.659735181729
20
-0.41119701413
30
0
40
0.545490091531
50
90.7448451337
51
145.959412752
0
ARC
8
drawinglayer
10
-0.542646405403
20
-0.110974851151
30
0
40
0.428401315205
50
91.3178029288
51
146.775304652
0
ARC
8
drawinglayer
10
0.545845552297
20
0.794383719897
30
0
40
0.660090642495
50
209.495656834
51
334.094210231
0
ARC
8
drawinglayer
10
0.428756775971
20
0.86035723807
30
0
40
0.542930774016
50
209.724839952
51
333.332692026
0
ARC
8
drawinglayer
10
-0.174033591042
20
1.06815960188
30
0
40
0.174389051808
50
209.839431511
51
330.321111263
0
ARC
8
drawinglayer
10
-0.659735181729
20
0.794383719897
30
0
40
0.660090642495
50
206.630867859
51
331.287805655
0
ARC
8
drawinglayer
10
-0.542646405403
20
0.86035723807
30
0
40
0.542930774016
50
207.375712992
51
331.044012113
0
ARC
8
drawinglayer
10
-0.834053141385
20
0.586581356083
30
0
40
1.0286323647
50
204.682811355
51
332.603603231
0
ARC
8
drawinglayer
10
-1.02827690394
20
0.586581356083
30
0
40
1.0286323647
50
204.281740898
51
332.104327809
0
ARC
8
drawinglayer
10
0.914458366658
20
0.392286501377
30
0
40
0.834337509997
50
209.667544173
51
270.537835482
0
ARC
8
drawinglayer
10
0.914458366658
20
0.586581356083
30
0
40
1.0286323647
50
208.750811701
51
336.44471229
0
ARC
8
drawinglayer
10
-0.174033591042
20
0.833910957078
30
0
40
0.0598595929974
50
93.1512678732
51
149.310413712
0
ARC
8
drawinglayer
10
0.914458366658
20
-1.35615391451
30
0
40
0.914102905892
50
37.287882848
51
90.4628353069
0
ARC
8
drawinglayer
10
0.0601439616102
20
0.833910957078
30
0
40
0.0598595929974
50
31.3864175581
51
86.3141052081
0
ARC
8
drawinglayer
10
0.822251843953
20
-1.11991468942
30
0
40
0.82196747534
50
36.6576292733
51
90.0422269895
0
ARC
8
drawinglayer
10
0.730116413401
20
-0.883675464321
30
0
40
0.729832044788
50
36.0273756987
51
89.6153734321
0
ARC
8
drawinglayer
10
0.637980982849
20
-0.647365147072
30
0
40
0.637625522083
50
35.397122124
51
89.1821027475
0
ARC
8
drawinglayer
10
-1.02827690394
20
0.392286501377
30
0
40
0.834337509997
50
268.79678863
51
331.153848122
0
ARC
8
drawinglayer
10
-1.02827690394
20
0.198062738825
30
0
40
0.640113747445
50
268.79678863
51
330.220442578
0
ARC
8
drawinglayer
10
-1.02827690394
20
0.00376788411979
30
0
40
0.44581889274
50
268.85408441
51
329.304111177
0
ARC
8
drawinglayer
10
-1.02827690394
20
-0.190526970586
30
0
40
0.251524038034
50
268.911380189
51
328.404853917
0
ARC
8
drawinglayer
10
-1.02827690394
20
-0.384750733138
30
0
40
0.0573002754821
50
268.911380189
51
327.522613504
0
ARC
8
drawinglayer
10
-1.02827690394
20
-0.579045587843
30
0
40
0.136994579223
50
88.9686759688
51
146.657332642
0
ARC
8
drawinglayer
10
-1.02827690394
20
-0.773340442549
30
0
40
0.331289433929
50
89.0259717483
51
145.808954035
0
ARC
8
drawinglayer
10
-1.02827690394
20
-0.967564205101
30
0
40
0.525513196481
50
89.0259717483
51
144.977305795
0
ARC
8
drawinglayer
10
0.336621345419
20
0.912325602062
30
0
40
0.450795343464
50
209.896727291
51
332.72879451
0
ARC
8
drawinglayer
10
0.244485914867
20
0.964293966053
30
0
40
0.358659912912
50
210.068614629
51
332.120771697
0
ARC
8
drawinglayer
10
0.152350484315
20
1.01626233005
30
0
40
0.26652448236
50
210.240501968
51
331.508738181
0
ARC
8
drawinglayer
10
-0.936141473385
20
-1.11991468942
30
0
40
0.82196747534
50
89.4843379844
51
144.016169094
0
ARC
8
drawinglayer
10
-0.844006042833
20
-0.883675464321
30
0
40
0.729832044788
50
89.9427042205
51
144.666476191
0
ARC
8
drawinglayer
10
-0.751870612281
20
-0.647365147072
30
0
40
0.637625522083
50
90.3437746771
51
145.314262274
0
ARC
8
drawinglayer
10
0.822251843953
20
0.638549720075
30
0
40
0.936496934151
50
208.922699039
51
335.863790381
0
ARC
8
drawinglayer
10
0.730116413401
20
0.690518084066
30
0
40
0.844361503599
50
209.094586378
51
335.278342106
0
ARC
8
drawinglayer
10
0.637980982849
20
0.742486448058
30
0
40
0.752226073047
50
209.323769496
51
334.688482056
0
ARC
8
drawinglayer
10
-0.450439882698
20
0.912325602062
30
0
40
0.450795343464
50
208.005966567
51
330.85711328
0
ARC
8
drawinglayer
10
-0.358304452146
20
0.964293966053
30
0
40
0.358659912912
50
208.636220141
51
330.674454335
0
ARC
8
drawinglayer
10
-0.266169021594
20
1.01626233005
30
0
40
0.26652448236
50
209.209177937
51
330.495806095
0
ARC
8
drawinglayer
10
-0.936141473385
20
0.638549720075
30
0
40
0.936496934151
50
204.854698694
51
331.892791791
0
ARC
8
drawinglayer
10
-0.844006042833
20
0.690518084066
30
0
40
0.844361503599
50
205.484952268
51
331.686355097
0
ARC
8
drawinglayer
10
-0.751870612281
20
0.742486448058
30
0
40
0.752226073047
50
206.057910063
51
331.484731249
0
ARC
8
drawinglayer
10
0.720163511952
20
0.586581356083
30
0
40
1.0286323647
50
208.235149685
51
336.068737385
0
ARC
8
drawinglayer
10
0.525868657247
20
0.586581356083
30
0
40
1.0286323647
50
207.719487669
51
335.681360619
0
ARC
8
drawinglayer
10
0.331573802542
20
0.586581356083
30
0
40
1.0286323647
50
207.261121433
51
335.281951741
0
ARC
8
drawinglayer
10
0.137350039989
20
0.586581356083
30
0
40
1.0286323647
50
206.802755197
51
334.870166973
0
ARC
8
drawinglayer
10
-0.0569448147161
20
0.586581356083
30
0
40
1.0286323647
50
206.344388961
51
334.445261472
0
ARC
8
drawinglayer
10
-0.251239669421
20
0.586581356083
30
0
40
1.0286323647
50
205.886022725
51
334.006834167
0
ARC
8
drawinglayer
10
-0.445463431974
20
0.586581356083
30
0
40
1.0286323647
50
205.484952268
51
333.554140214
0
ARC
8
drawinglayer
10
-0.639758286679
20
0.586581356083
30
0
40
1.0286323647
50
205.083881812
51
333.086663948
0
ARC
8
drawinglayer
10
0.914458366658
20
-1.16185905981
30
0
40
0.719808051186
50
36.5430377143
51
90.4701118709
0
ARC
8
drawinglayer
10
0.914458366658
20
-0.967564205101
30
0
40
0.525513196481
50
35.7408968011
51
90.4776749138
0
ARC
8
drawinglayer
10
0.914458366658
20
-0.773340442549
30
0
40
0.331289433929
50
34.9387558879
51
90.485409844
0
ARC
8
drawinglayer
10
0.914458366658
20
-0.579045587843
30
0
40
0.136994579223
50
34.0793191952
51
90.4934312532
0
ARC
8
drawinglayer
10
0.914458366658
20
-0.384750733138
30
0
40
0.0573002754821
50
213.219882503
51
270.501681845
0
ARC
8
drawinglayer
10
0.914458366658
20
-0.190526970586
30
0
40
0.251524038034
50
212.36044581
51
270.510276212
0
ARC
8
drawinglayer
10
0.914458366658
20
0.00376788411979
30
0
40
0.44581889274
50
211.501009117
51
270.519157058
0
ARC
8
drawinglayer
10
0.914458366658
20
0.198062738825
30
0
40
0.640113747445
50
210.584276645
51
270.528324383
0
ARC
8
drawinglayer
10
-0.450439882698
20
0.125264373945
30
0
40
0.336265884653
50
91.7761691649
51
147.41392341
0
ARC
8
drawinglayer
10
-0.358304452146
20
0.36150359904
30
0
40
0.244130454101
50
92.234535401
51
148.049390901
0
ARC
8
drawinglayer
10
-0.266169021594
20
0.597742824136
30
0
40
0.151995023549
50
92.6929016371
51
148.681592532
0
ARC
8
drawinglayer
10
0.336621345419
20
0.125264373945
30
0
40
0.336265884653
50
33.277178282
51
87.7192842007
0
ARC
8
drawinglayer
10
0.244485914867
20
0.36150359904
30
0
40
0.244130454101
50
32.6469247074
51
87.2577666967
0
ARC
8
drawinglayer
10
0.152350484315
20
0.597742824136
30
0
40
0.151995023549
50
32.0166711328
51
86.7893736992
0
ENDSEC
0
EOF
