0
SECTION
2
HEADER
9
$ACADVER
1
AC1006
9
$INSBASE
10
0.0
20
0.0
30
0.0
9
$EXTMIN
10
0.0
20
0.0
9
$EXTMAX
10
0.0
20
0.0
0
ENDSEC
0
SECTION
2
TABLES
0
TABLE
2
LTYPE
70
1
0
LTYPE
2
CONTINUOUS
70
64
3
Solid line
72
65
73
0
40
0.0
0
ENDTAB
0
TABLE
2
LAYER
70
1
0
LAYER
2
PYDXF
70
64
62
7
6
continuous
0
ENDTAB
0
TABLE
2
STYLE
70
1
0
STYLE
2
STANDARD
70
0
40
0
41
40
50
50
71
0
42
1
3
ARIAL.TTF
4

0
ENDTAB
0
TABLE
2
VIEW
70
0
0
ENDTAB
0
ENDSEC
0
SECTION
2
BLOCKS
0
ENDSEC
0
SECTION
2
ENTITIES
0
ARC
8
drawinglayer
10
0.657550993715
20
-4.9477150091
30
0
40
5.2535478386
50
63.9877161011
51
116.000022602
0
ARC
8
drawinglayer
10
0.708812306559
20
-4.92728949535
30
0
40
5.2535478386
50
65.993068384
51
117.999989082
0
ARC
8
drawinglayer
10
0.757681923073
20
-4.90166951615
30
0
40
5.2535478386
50
67.998420667
51
120.000012857
0
ARC
8
drawinglayer
10
0.803641998294
20
-4.87113267909
30
0
40
5.2535478386
50
70.0037729499
51
121.999979337
0
ARC
8
drawinglayer
10
0.919302937969
20
-4.75353382475
30
0
40
5.2535478386
50
74.9885057676
51
124.999986352
0
ARC
8
drawinglayer
10
0.949076354105
20
-4.707077259
30
0
40
5.2535478386
50
76.0198297988
51
126.000026888
0
ARC
8
drawinglayer
10
0.846196041689
20
-4.83600463925
30
0
40
5.2535478386
50
72.0091252329
51
123.000019873
0
ARC
8
drawinglayer
10
0.973879526305
20
-4.65778589246
30
0
40
5.2535478386
50
76.9938580505
51
127.000010128
0
ARC
8
drawinglayer
10
0.993456201394
20
-4.60619892454
30
0
40
5.2535478386
50
78.0251820818
51
127.999993368
0
ARC
8
drawinglayer
10
0.884890271588
20
-4.7966644378
30
0
40
5.2535478386
50
72.9831534846
51
124.000003112
0
ARC
8
drawinglayer
10
1.00759283505
20
-4.55286089323
30
0
40
5.2535478386
50
78.9992103335
51
127.999993368
0
ARC
8
drawinglayer
10
1.01613460766
20
-4.49834302958
30
0
40
5.2535478386
50
78.9992103335
51
127.999993368
0
ARC
8
drawinglayer
10
1.01899076287
20
-4.44323791906
30
0
40
5.2535478386
50
78.9992103335
51
128.999976607
0
ARC
8
drawinglayer
10
0.966058465764
20
-4.3154530009
30
0
40
5.2535478386
50
76.9938580505
51
127.000010128
0
ARC
8
drawinglayer
10
0.928629485932
20
-4.28673129052
30
0
40
5.2535478386
50
74.9885057676
51
126.000026888
0
ARC
8
drawinglayer
10
0.606289680871
20
-4.92728949535
30
0
40
5.2535478386
50
61.9823638181
51
113.999998827
0
ARC
8
drawinglayer
10
0.320321811283
20
-4.35287664212
30
0
40
5.2535478386
50
52.0128981828
51
102.000028061
0
ARC
8
drawinglayer
10
0.30226663944
20
-4.39646637545
30
0
40
5.2535478386
50
52.0128981828
51
100.999987526
0
ARC
8
drawinglayer
10
0.511459989136
20
-4.87113267909
30
0
40
5.2535478386
50
57.9716592522
51
110.000008572
0
ARC
8
drawinglayer
10
0.468905945741
20
-4.83600463925
30
0
40
5.2535478386
50
56.9976310005
51
107.999984796
0
ARC
8
drawinglayer
10
0.430211715842
20
-4.7966644378
30
0
40
5.2535478386
50
56.0236027487
51
107.000001556
0
ARC
8
drawinglayer
10
0.395799049461
20
-4.75353382475
30
0
40
5.2535478386
50
54.0182504658
51
104.999977781
0
ARC
8
drawinglayer
10
0.557420064357
20
-4.90166951615
30
0
40
5.2535478386
50
59.9770115351
51
111.999975051
0
ARC
8
drawinglayer
10
0.366025633326
20
-4.707077259
30
0
40
5.2535478386
50
54.0182504658
51
103.999994541
0
ARC
8
drawinglayer
10
0.341217122517
20
-4.65778589246
30
0
40
5.2535478386
50
52.9869264345
51
103.000011301
0
ARC
8
drawinglayer
10
0.321645786037
20
-4.60619892454
30
0
40
5.2535478386
50
52.0128981828
51
102.000028061
0
ARC
8
drawinglayer
10
0.307509152376
20
-4.55286089323
30
0
40
5.2535478386
50
52.0128981828
51
100.999987526
0
ARC
8
drawinglayer
10
0.298967379771
20
-4.49834302958
30
0
40
5.2535478386
50
50.9815741516
51
100.999987526
0
ARC
8
drawinglayer
10
0.296111224557
20
-4.44323791906
30
0
40
5.2535478386
50
50.9815741516
51
100.000004286
0
ARC
8
drawinglayer
10
0.349043521666
20
-4.3154530009
30
0
40
5.2535478386
50
52.9869264345
51
103.000011301
0
ARC
8
drawinglayer
10
0.386472501498
20
-4.28673129052
30
0
40
5.2535478386
50
54.0182504658
51
104.999977781
0
ARC
8
drawinglayer
10
0.430056896213
20
-4.26867611867
30
0
40
5.2535478386
50
56.0236027487
51
107.000001556
0
ARC
8
drawinglayer
10
0.476828439832
20
-4.26252070379
30
0
40
5.2535478386
50
56.9976310005
51
109.000025332
0
ARC
8
drawinglayer
10
0.523605322058
20
-4.26867611867
30
0
40
5.2535478386
50
59.0029832834
51
110.999991811
0
ARC
8
drawinglayer
10
0.567189716774
20
-4.28673129052
30
0
40
5.2535478386
50
59.9770115351
51
111.999975051
0
ARC
8
drawinglayer
10
0.604618696606
20
-4.3154530009
30
0
40
5.2535478386
50
61.9823638181
51
113.999998827
0
ARC
8
drawinglayer
10
0.633340406989
20
-4.35287664212
30
0
40
5.2535478386
50
63.0136878493
51
114.999982067
0
ARC
8
drawinglayer
10
0.651395578832
20
-4.39646637545
30
0
40
5.2535478386
50
63.9877161011
51
116.000022602
0
ARC
8
drawinglayer
10
0.657550993715
20
-4.44323791906
30
0
40
5.2535478386
50
63.9877161011
51
116.000022602
0
ARC
8
drawinglayer
10
0.663706408598
20
-4.39646637545
30
0
40
5.2535478386
50
63.9877161011
51
116.000022602
0
ARC
8
drawinglayer
10
0.681761580441
20
-4.35287664212
30
0
40
5.2535478386
50
65.0190401323
51
117.000005842
0
ARC
8
drawinglayer
10
0.710483290825
20
-4.3154530009
30
0
40
5.2535478386
50
65.993068384
51
117.999989082
0
ARC
8
drawinglayer
10
0.747912270657
20
-4.28673129052
30
0
40
5.2535478386
50
67.0243924153
51
120.000012857
0
ARC
8
drawinglayer
10
0.791496665372
20
-4.26867611867
30
0
40
5.2535478386
50
68.9724489187
51
120.999996097
0
ARC
8
drawinglayer
10
0.83826820899
20
-4.26252070379
30
0
40
5.2535478386
50
70.9778012017
51
123.000019873
0
ARC
8
drawinglayer
10
0.885045091217
20
-4.26867611867
30
0
40
5.2535478386
50
72.9831534846
51
124.000003112
0
ARC
8
drawinglayer
10
0.994780176147
20
-4.35287664212
30
0
40
5.2535478386
50
78.0251820818
51
127.999993368
0
ARC
8
drawinglayer
10
1.01283534799
20
-4.39646637545
30
0
40
5.2535478386
50
78.9992103335
51
127.999993368
0
ARC
8
drawinglayer
10
0.0700051651031
20
-2.81505327263
30
0
40
4.08222523854
50
30.0113188498
51
150.000025715
0
ARC
8
drawinglayer
10
1.19111815807
20
-2.76340224141
30
0
40
4.08222523854
50
30.0113188498
51
150.000025715
0
ARC
8
drawinglayer
10
1.34249438445
20
-2.76340224141
30
0
40
4.08222523854
50
30.0113188498
51
150.000025715
0
ARC
8
drawinglayer
10
1.10033513111
20
-3.99257399644
30
0
40
4.08222523854
50
30.0113188498
51
150.000025715
0
ARC
8
drawinglayer
10
1.24752588891
20
-3.99257399644
30
0
40
4.08222523854
50
30.0113188498
51
150.000025715
0
ARC
8
drawinglayer
10
0.0700051651031
20
-3.99257399644
30
0
40
4.08222523854
50
30.0113188498
51
150.000025715
0
ARC
8
drawinglayer
10
1.24752588891
20
-4.26492841594
30
0
40
5.38490962404
50
90.9740282517
51
131.999983623
0
ARC
8
drawinglayer
10
0.0700051651031
20
-5.14806762415
30
0
40
5.38490962404
50
48.0021936169
51
89.0000167602
0
ARC
8
drawinglayer
10
1.38241649416
20
-5.29320835652
30
0
40
5.29320835652
50
30.0113188498
51
90.9999832398
0
ARC
8
drawinglayer
10
1.38740809253
20
-5.44457924429
30
0
40
5.44457924429
50
30.0113188498
51
90.9999832398
0
ARC
8
drawinglayer
10
1.38740809253
20
-5.29804513526
30
0
40
5.44457924429
50
30.0113188498
51
90.9999832398
0
ARC
8
drawinglayer
10
1.38241649416
20
-3.9743853594
30
0
40
5.29320835652
50
30.0113188498
51
90.9999832398
0
ARC
8
drawinglayer
10
1.38740809253
20
-4.12575624717
30
0
40
5.44457924429
50
30.0113188498
51
90.9999832398
0
ARC
8
drawinglayer
10
1.34249438445
20
-3.9356911295
30
0
40
4.08222523854
50
30.0113188498
51
150.000025715
0
ARC
8
drawinglayer
10
1.34249438445
20
-4.08222523854
30
0
40
4.08222523854
50
30.0113188498
51
150.000025715
0
ARC
8
drawinglayer
10
-0.0148733615479
20
-4.23360146491
30
0
40
4.23360146491
50
92.005352283
51
150.000025715
0
ARC
8
drawinglayer
10
-0.0198596213059
20
-4.08222523854
30
0
40
4.08222523854
50
30.0113188498
51
150.000025715
0
ARC
8
drawinglayer
10
-0.0198596213059
20
-3.9356911295
30
0
40
4.08222523854
50
30.0113188498
51
150.000025715
0
ARC
8
drawinglayer
10
-0.0148733615479
20
-2.91477846779
30
0
40
4.23360146491
50
92.005352283
51
150.000025715
0
ARC
8
drawinglayer
10
-0.0198596213059
20
-2.76340224141
30
0
40
4.08222523854
50
30.0113188498
51
150.000025715
0
ARC
8
drawinglayer
10
0.0250540867711
20
-5.29804513526
30
0
40
5.44457924429
50
92.005352283
51
150.000025715
0
ARC
8
drawinglayer
10
0.0250540867711
20
-5.44457924429
30
0
40
5.44457924429
50
92.005352283
51
150.000025715
0
ARC
8
drawinglayer
10
0.217195922905
20
-2.81505327263
30
0
40
4.08222523854
50
30.0113188498
51
150.000025715
0
ARC
8
drawinglayer
10
1.24752588891
20
-2.81505327263
30
0
40
4.08222523854
50
30.0113188498
51
150.000025715
0
ARC
8
drawinglayer
10
0.0700051651031
20
-3.84538323864
30
0
40
4.08222523854
50
30.0113188498
51
150.000025715
0
ARC
8
drawinglayer
10
0.0250540867711
20
-4.12575624717
30
0
40
5.44457924429
50
92.005352283
51
150.000025715
0
ARC
8
drawinglayer
10
1.19111815807
20
-4.08222523854
30
0
40
4.08222523854
50
30.0113188498
51
150.000025715
0
ARC
8
drawinglayer
10
1.24752588891
20
-2.96224403044
30
0
40
4.08222523854
50
30.0113188498
51
150.000025715
0
ARC
8
drawinglayer
10
0.131511266465
20
-2.76340224141
30
0
40
4.08222523854
50
30.0113188498
51
150.000025715
0
ARC
8
drawinglayer
10
0.282882154235
20
-2.76340224141
30
0
40
4.08222523854
50
30.0113188498
51
150.000025715
0
ARC
8
drawinglayer
10
0.434258380613
20
-2.76340224141
30
0
40
4.08222523854
50
30.0113188498
51
150.000025715
0
ARC
8
drawinglayer
10
0.585629268384
20
-2.76340224141
30
0
40
4.08222523854
50
30.0113188498
51
150.000025715
0
ARC
8
drawinglayer
10
0.737000156154
20
-2.76340224141
30
0
40
4.08222523854
50
30.0113188498
51
150.000025715
0
ARC
8
drawinglayer
10
0.888376382533
20
-2.76340224141
30
0
40
4.08222523854
50
30.0113188498
51
150.000025715
0
ARC
8
drawinglayer
10
1.0397472703
20
-2.76340224141
30
0
40
4.08222523854
50
30.0113188498
51
150.000025715
0
ARC
8
drawinglayer
10
0.217195922905
20
-3.99257399644
30
0
40
4.08222523854
50
30.0113188498
51
150.000025715
0
ARC
8
drawinglayer
10
0.364386680707
20
-3.99257399644
30
0
40
4.08222523854
50
30.0113188498
51
150.000025715
0
ARC
8
drawinglayer
10
0.511577438509
20
-3.99257399644
30
0
40
4.08222523854
50
30.0113188498
51
150.000025715
0
ARC
8
drawinglayer
10
0.658768196311
20
-3.99257399644
30
0
40
4.08222523854
50
30.0113188498
51
150.000025715
0
ARC
8
drawinglayer
10
0.805953615505
20
-3.99257399644
30
0
40
4.08222523854
50
30.0113188498
51
150.000025715
0
ARC
8
drawinglayer
10
0.953144373307
20
-3.99257399644
30
0
40
4.08222523854
50
30.0113188498
51
150.000025715
0
ARC
8
drawinglayer
10
1.24752588891
20
-5.14806762415
30
0
40
5.38490962404
50
90.9740282517
51
131.999983623
0
ARC
8
drawinglayer
10
1.24752588891
20
-5.00088220495
30
0
40
5.38490962404
50
90.9740282517
51
131.999983623
0
ARC
8
drawinglayer
10
1.24752588891
20
-4.85369144715
30
0
40
5.38490962404
50
90.9740282517
51
131.999983623
0
ARC
8
drawinglayer
10
1.24752588891
20
-4.70650068935
30
0
40
5.38490962404
50
90.9740282517
51
131.999983623
0
ARC
8
drawinglayer
10
1.24752588891
20
-4.55930993155
30
0
40
5.38490962404
50
90.9740282517
51
131.999983623
0
ARC
8
drawinglayer
10
1.24752588891
20
-4.41211917374
30
0
40
5.38490962404
50
90.9740282517
51
131.999983623
0
ARC
8
drawinglayer
10
0.0700051651031
20
-4.26492841594
30
0
40
5.38490962404
50
48.0021936169
51
89.0000167602
0
ARC
8
drawinglayer
10
0.0700051651031
20
-4.41211917374
30
0
40
5.38490962404
50
48.0021936169
51
89.0000167602
0
ARC
8
drawinglayer
10
0.0700051651031
20
-4.55930993155
30
0
40
5.38490962404
50
48.0021936169
51
89.0000167602
0
ARC
8
drawinglayer
10
0.0700051651031
20
-4.70650068935
30
0
40
5.38490962404
50
48.0021936169
51
89.0000167602
0
ARC
8
drawinglayer
10
0.0700051651031
20
-4.85369144715
30
0
40
5.38490962404
50
48.0021936169
51
89.0000167602
0
ARC
8
drawinglayer
10
0.0700051651031
20
-5.00088220495
30
0
40
5.38490962404
50
48.0021936169
51
89.0000167602
0
ARC
8
drawinglayer
10
1.34748064421
20
-4.23360146491
30
0
40
4.23360146491
50
30.0113188498
51
90.9999832398
0
ARC
8
drawinglayer
10
1.35247224258
20
-4.38497235268
30
0
40
4.38497235268
50
30.0113188498
51
90.9999832398
0
ARC
8
drawinglayer
10
1.35746384094
20
-4.53634324045
30
0
40
4.53634324045
50
30.0113188498
51
90.9999832398
0
ARC
8
drawinglayer
10
1.36245543931
20
-4.68771946683
30
0
40
4.68771946683
50
30.0113188498
51
90.9999832398
0
ARC
8
drawinglayer
10
1.36744703767
20
-4.8390903546
30
0
40
4.8390903546
50
30.0113188498
51
90.9999832398
0
ARC
8
drawinglayer
10
1.37243329743
20
-4.99046124237
30
0
40
4.99046124237
50
30.0113188498
51
90.9999832398
0
ARC
8
drawinglayer
10
1.3774248958
20
-5.14183746875
30
0
40
5.14183746875
50
30.0113188498
51
90.9999832398
0
ARC
8
drawinglayer
10
1.38740809253
20
-4.27229035621
30
0
40
5.44457924429
50
30.0113188498
51
90.9999832398
0
ARC
8
drawinglayer
10
1.38740809253
20
-4.41882446524
30
0
40
5.44457924429
50
30.0113188498
51
90.9999832398
0
ARC
8
drawinglayer
10
1.38740809253
20
-4.56536391288
30
0
40
5.44457924429
50
30.0113188498
51
90.9999832398
0
ARC
8
drawinglayer
10
1.38740809253
20
-4.71189802191
30
0
40
5.44457924429
50
30.0113188498
51
90.9999832398
0
ARC
8
drawinglayer
10
1.38740809253
20
-4.85843213095
30
0
40
5.44457924429
50
30.0113188498
51
90.9999832398
0
ARC
8
drawinglayer
10
1.38740809253
20
-5.00497157859
30
0
40
5.44457924429
50
30.0113188498
51
90.9999832398
0
ARC
8
drawinglayer
10
1.38740809253
20
-5.15150568762
30
0
40
5.44457924429
50
30.0113188498
51
90.9999832398
0
ARC
8
drawinglayer
10
1.34748064421
20
-2.91477846779
30
0
40
4.23360146491
50
30.0113188498
51
90.9999832398
0
ARC
8
drawinglayer
10
1.35247224258
20
-3.06614935556
30
0
40
4.38497235268
50
30.0113188498
51
90.9999832398
0
ARC
8
drawinglayer
10
1.35746384094
20
-3.21752024333
30
0
40
4.53634324045
50
30.0113188498
51
90.9999832398
0
ARC
8
drawinglayer
10
1.36245543931
20
-3.36889646971
30
0
40
4.68771946683
50
30.0113188498
51
90.9999832398
0
ARC
8
drawinglayer
10
1.36744703767
20
-3.52026735748
30
0
40
4.8390903546
50
30.0113188498
51
90.9999832398
0
ARC
8
drawinglayer
10
1.37243329743
20
-3.67163824525
30
0
40
4.99046124237
50
30.0113188498
51
90.9999832398
0
ARC
8
drawinglayer
10
1.3774248958
20
-3.82301447163
30
0
40
5.14183746875
50
30.0113188498
51
90.9999832398
0
ARC
8
drawinglayer
10
1.34249438445
20
-2.90993635045
30
0
40
4.08222523854
50
30.0113188498
51
150.000025715
0
ARC
8
drawinglayer
10
1.34249438445
20
-3.05647045948
30
0
40
4.08222523854
50
30.0113188498
51
150.000025715
0
ARC
8
drawinglayer
10
1.34249438445
20
-3.20300990712
30
0
40
4.08222523854
50
30.0113188498
51
150.000025715
0
ARC
8
drawinglayer
10
1.34249438445
20
-3.34954401615
30
0
40
4.08222523854
50
30.0113188498
51
150.000025715
0
ARC
8
drawinglayer
10
1.34249438445
20
-3.49607812519
30
0
40
4.08222523854
50
30.0113188498
51
150.000025715
0
ARC
8
drawinglayer
10
1.34249438445
20
-3.64261757283
30
0
40
4.08222523854
50
30.0113188498
51
150.000025715
0
ARC
8
drawinglayer
10
1.34249438445
20
-3.78915168186
30
0
40
4.08222523854
50
30.0113188498
51
150.000025715
0
ARC
8
drawinglayer
10
0.0200624884052
20
-5.29320835652
30
0
40
5.29320835652
50
92.005352283
51
150.000025715
0
ARC
8
drawinglayer
10
0.0150708900394
20
-5.14183746875
30
0
40
5.14183746875
50
92.005352283
51
150.000025715
0
ARC
8
drawinglayer
10
0.0100792916735
20
-4.99046124237
30
0
40
4.99046124237
50
92.005352283
51
150.000025715
0
ARC
8
drawinglayer
10
0.00509303191553
20
-4.8390903546
30
0
40
4.8390903546
50
92.005352283
51
150.000025715
0
ARC
8
drawinglayer
10
0.00010143354968
20
-4.68771946683
30
0
40
4.68771946683
50
92.005352283
51
150.000025715
0
ARC
8
drawinglayer
10
-0.00489016481617
20
-4.53634324045
30
0
40
4.53634324045
50
92.005352283
51
150.000025715
0
ARC
8
drawinglayer
10
-0.00988176318202
20
-4.38497235268
30
0
40
4.38497235268
50
92.005352283
51
150.000025715
0
ARC
8
drawinglayer
10
-0.0198596213059
20
-2.90993635045
30
0
40
4.08222523854
50
30.0113188498
51
150.000025715
0
ARC
8
drawinglayer
10
-0.0198596213059
20
-3.05647045948
30
0
40
4.08222523854
50
30.0113188498
51
150.000025715
0
ARC
8
drawinglayer
10
-0.0198596213059
20
-3.20300990712
30
0
40
4.08222523854
50
30.0113188498
51
150.000025715
0
ARC
8
drawinglayer
10
-0.0198596213059
20
-3.34954401615
30
0
40
4.08222523854
50
30.0113188498
51
150.000025715
0
ARC
8
drawinglayer
10
-0.0198596213059
20
-3.49607812519
30
0
40
4.08222523854
50
30.0113188498
51
150.000025715
0
ARC
8
drawinglayer
10
-0.0198596213059
20
-3.64261757283
30
0
40
4.08222523854
50
30.0113188498
51
150.000025715
0
ARC
8
drawinglayer
10
-0.0198596213059
20
-3.78915168186
30
0
40
4.08222523854
50
30.0113188498
51
150.000025715
0
ARC
8
drawinglayer
10
0.0200624884052
20
-3.9743853594
30
0
40
5.29320835652
50
92.005352283
51
150.000025715
0
ARC
8
drawinglayer
10
0.0150708900394
20
-3.82301447163
30
0
40
5.14183746875
50
92.005352283
51
150.000025715
0
ARC
8
drawinglayer
10
0.0100792916735
20
-3.67163824525
30
0
40
4.99046124237
50
92.005352283
51
150.000025715
0
ARC
8
drawinglayer
10
0.00509303191553
20
-3.52026735748
30
0
40
4.8390903546
50
92.005352283
51
150.000025715
0
ARC
8
drawinglayer
10
0.00010143354968
20
-3.36889646971
30
0
40
4.68771946683
50
92.005352283
51
150.000025715
0
ARC
8
drawinglayer
10
-0.00489016481617
20
-3.21752024333
30
0
40
4.53634324045
50
92.005352283
51
150.000025715
0
ARC
8
drawinglayer
10
-0.00988176318202
20
-3.06614935556
30
0
40
4.38497235268
50
92.005352283
51
150.000025715
0
ARC
8
drawinglayer
10
0.0250540867711
20
-4.27229035621
30
0
40
5.44457924429
50
92.005352283
51
150.000025715
0
ARC
8
drawinglayer
10
0.0250540867711
20
-4.41882446524
30
0
40
5.44457924429
50
92.005352283
51
150.000025715
0
ARC
8
drawinglayer
10
0.0250540867711
20
-4.56536391288
30
0
40
5.44457924429
50
92.005352283
51
150.000025715
0
ARC
8
drawinglayer
10
0.0250540867711
20
-4.71189802191
30
0
40
5.44457924429
50
92.005352283
51
150.000025715
0
ARC
8
drawinglayer
10
0.0250540867711
20
-4.85843213095
30
0
40
5.44457924429
50
92.005352283
51
150.000025715
0
ARC
8
drawinglayer
10
0.0250540867711
20
-5.00497157859
30
0
40
5.44457924429
50
92.005352283
51
150.000025715
0
ARC
8
drawinglayer
10
0.0250540867711
20
-5.15150568762
30
0
40
5.44457924429
50
92.005352283
51
150.000025715
0
ARC
8
drawinglayer
10
1.10033513111
20
-2.81505327263
30
0
40
4.08222523854
50
30.0113188498
51
150.000025715
0
ARC
8
drawinglayer
10
0.953144373307
20
-2.81505327263
30
0
40
4.08222523854
50
30.0113188498
51
150.000025715
0
ARC
8
drawinglayer
10
0.805953615505
20
-2.81505327263
30
0
40
4.08222523854
50
30.0113188498
51
150.000025715
0
ARC
8
drawinglayer
10
0.658768196311
20
-2.81505327263
30
0
40
4.08222523854
50
30.0113188498
51
150.000025715
0
ARC
8
drawinglayer
10
0.511577438509
20
-2.81505327263
30
0
40
4.08222523854
50
30.0113188498
51
150.000025715
0
ARC
8
drawinglayer
10
0.364386680707
20
-2.81505327263
30
0
40
4.08222523854
50
30.0113188498
51
150.000025715
0
ARC
8
drawinglayer
10
0.0700051651031
20
-2.96224403044
30
0
40
4.08222523854
50
30.0113188498
51
150.000025715
0
ARC
8
drawinglayer
10
0.0700051651031
20
-3.10943478824
30
0
40
4.08222523854
50
30.0113188498
51
150.000025715
0
ARC
8
drawinglayer
10
0.0700051651031
20
-3.25662554604
30
0
40
4.08222523854
50
30.0113188498
51
150.000025715
0
ARC
8
drawinglayer
10
0.0700051651031
20
-3.40381630384
30
0
40
4.08222523854
50
30.0113188498
51
150.000025715
0
ARC
8
drawinglayer
10
0.0700051651031
20
-3.55100706164
30
0
40
4.08222523854
50
30.0113188498
51
150.000025715
0
ARC
8
drawinglayer
10
0.0700051651031
20
-3.69819781945
30
0
40
4.08222523854
50
30.0113188498
51
150.000025715
0
ARC
8
drawinglayer
10
0.131511266465
20
-4.08222523854
30
0
40
4.08222523854
50
30.0113188498
51
150.000025715
0
ARC
8
drawinglayer
10
0.282882154235
20
-4.08222523854
30
0
40
4.08222523854
50
30.0113188498
51
150.000025715
0
ARC
8
drawinglayer
10
0.434258380613
20
-4.08222523854
30
0
40
4.08222523854
50
30.0113188498
51
150.000025715
0
ARC
8
drawinglayer
10
0.585629268384
20
-4.08222523854
30
0
40
4.08222523854
50
30.0113188498
51
150.000025715
0
ARC
8
drawinglayer
10
0.737000156154
20
-4.08222523854
30
0
40
4.08222523854
50
30.0113188498
51
150.000025715
0
ARC
8
drawinglayer
10
0.888376382533
20
-4.08222523854
30
0
40
4.08222523854
50
30.0113188498
51
150.000025715
0
ARC
8
drawinglayer
10
1.0397472703
20
-4.08222523854
30
0
40
4.08222523854
50
30.0113188498
51
150.000025715
0
ARC
8
drawinglayer
10
1.24752588891
20
-3.84538323864
30
0
40
4.08222523854
50
30.0113188498
51
150.000025715
0
ARC
8
drawinglayer
10
1.24752588891
20
-3.69819781945
30
0
40
4.08222523854
50
30.0113188498
51
150.000025715
0
ARC
8
drawinglayer
10
1.24752588891
20
-3.55100706164
30
0
40
4.08222523854
50
30.0113188498
51
150.000025715
0
ARC
8
drawinglayer
10
1.24752588891
20
-3.40381630384
30
0
40
4.08222523854
50
30.0113188498
51
150.000025715
0
ARC
8
drawinglayer
10
1.24752588891
20
-3.25662554604
30
0
40
4.08222523854
50
30.0113188498
51
150.000025715
0
ARC
8
drawinglayer
10
1.24752588891
20
-3.10943478824
30
0
40
4.08222523854
50
30.0113188498
51
150.000025715
0
ENDSEC
0
EOF
