0
SECTION
2
HEADER
9
$ACADVER
1
AC1006
9
$INSBASE
10
0.0
20
0.0
30
0.0
9
$EXTMIN
10
0.0
20
0.0
9
$EXTMAX
10
0.0
20
0.0
0
ENDSEC
0
SECTION
2
TABLES
0
TABLE
2
LTYPE
70
1
0
LTYPE
2
CONTINUOUS
70
64
3
Solid line
72
65
73
0
40
0.0
0
ENDTAB
0
TABLE
2
LAYER
70
1
0
LAYER
2
PYDXF
70
64
62
7
6
continuous
0
ENDTAB
0
TABLE
2
STYLE
70
1
0
STYLE
2
STANDARD
70
0
40
0
41
40
50
50
71
0
42
1
3
ARIAL.TTF
4

0
ENDTAB
0
TABLE
2
VIEW
70
0
0
ENDTAB
0
ENDSEC
0
SECTION
2
BLOCKS
0
ENDSEC
0
SECTION
2
ENTITIES
0
ARC
8
drawinglayer
10
0.036777669671
20
-2.11579173557
30
0
40
2.42162456507
50
63.9877161011
51
116.000022602
0
ARC
8
drawinglayer
10
0.0880389825147
20
-2.09536622183
30
0
40
2.42162456507
50
65.0190401323
51
117.000005842
0
ARC
8
drawinglayer
10
0.136908599029
20
-2.06974624262
30
0
40
2.42162456507
50
67.0243924153
51
118.999972322
0
ARC
8
drawinglayer
10
0.18286867425
20
-2.03920940556
30
0
40
2.42162456507
50
67.998420667
51
120.000012857
0
ARC
8
drawinglayer
10
0.298534952533
20
-1.92161055122
30
0
40
2.42162456507
50
72.9831534846
51
123.000019873
0
ARC
8
drawinglayer
10
0.32830303006
20
-1.87515398547
30
0
40
2.42162456507
50
74.0144775159
51
124.000003112
0
ARC
8
drawinglayer
10
0.225422717645
20
-2.00408136572
30
0
40
2.42162456507
50
70.0037729499
51
120.999996097
0
ARC
8
drawinglayer
10
0.353111540869
20
-1.82586261893
30
0
40
2.42162456507
50
74.9885057676
51
124.999986352
0
ARC
8
drawinglayer
10
0.372688215957
20
-1.77427565101
30
0
40
2.42162456507
50
74.9885057676
51
124.999986352
0
ARC
8
drawinglayer
10
0.264116947544
20
-1.96474116427
30
0
40
2.42162456507
50
70.9778012017
51
121.999979337
0
ARC
8
drawinglayer
10
0.38681951101
20
-1.7209376197
30
0
40
2.42162456507
50
76.0198297988
51
124.999986352
0
ARC
8
drawinglayer
10
0.395361283615
20
-1.66641975605
30
0
40
2.42162456507
50
76.0198297988
51
124.999986352
0
ARC
8
drawinglayer
10
0.39821743883
20
-1.61131464554
30
0
40
2.42162456507
50
76.0198297988
51
126.000026888
0
ARC
8
drawinglayer
10
0.345290480328
20
-1.48352972737
30
0
40
2.42162456507
50
74.0144775159
51
124.000003112
0
ARC
8
drawinglayer
10
0.307861500496
20
-1.45480801699
30
0
40
2.42162456507
50
72.9831534846
51
123.000019873
0
ARC
8
drawinglayer
10
-0.0144783045649
20
-2.09536622183
30
0
40
2.42162456507
50
61.9823638181
51
113.999998827
0
ARC
8
drawinglayer
10
-0.300446174153
20
-1.52095336859
30
0
40
2.42162456507
50
54.0182504658
51
103.999994541
0
ARC
8
drawinglayer
10
-0.318501345997
20
-1.56454310192
30
0
40
2.42162456507
50
54.0182504658
51
103.000011301
0
ARC
8
drawinglayer
10
-0.1093079963
20
-2.03920940556
30
0
40
2.42162456507
50
59.0029832834
51
110.999991811
0
ARC
8
drawinglayer
10
-0.151862039695
20
-2.00408136572
30
0
40
2.42162456507
50
57.9716592522
51
110.000008572
0
ARC
8
drawinglayer
10
-0.190556269594
20
-1.96474116427
30
0
40
2.42162456507
50
56.9976310005
51
107.999984796
0
ARC
8
drawinglayer
10
-0.224974274583
20
-1.92161055122
30
0
40
2.42162456507
50
56.0236027487
51
107.000001556
0
ARC
8
drawinglayer
10
-0.0633479210794
20
-2.06974624262
30
0
40
2.42162456507
50
61.0083355664
51
113.000015587
0
ARC
8
drawinglayer
10
-0.254742352111
20
-1.87515398547
30
0
40
2.42162456507
50
56.0236027487
51
106.000018316
0
ARC
8
drawinglayer
10
-0.279550862919
20
-1.82586261893
30
0
40
2.42162456507
50
54.9922787175
51
104.999977781
0
ARC
8
drawinglayer
10
-0.299127538008
20
-1.77427565101
30
0
40
2.42162456507
50
54.0182504658
51
103.999994541
0
ARC
8
drawinglayer
10
-0.31325883306
20
-1.7209376197
30
0
40
2.42162456507
50
54.0182504658
51
103.000011301
0
ARC
8
drawinglayer
10
-0.321800605665
20
-1.66641975605
30
0
40
2.42162456507
50
54.0182504658
51
103.000011301
0
ARC
8
drawinglayer
10
-0.324662099488
20
-1.61131464554
30
0
40
2.42162456507
50
54.0182504658
51
103.000011301
0
ARC
8
drawinglayer
10
-0.271729802378
20
-1.48352972737
30
0
40
2.42162456507
50
54.9922787175
51
104.999977781
0
ARC
8
drawinglayer
10
-0.234300822546
20
-1.45480801699
30
0
40
2.42162456507
50
56.0236027487
51
106.000018316
0
ARC
8
drawinglayer
10
-0.190711089223
20
-1.43675284514
30
0
40
2.42162456507
50
56.9976310005
51
107.999984796
0
ARC
8
drawinglayer
10
-0.143939545604
20
-1.43059743026
30
0
40
2.42162456507
50
57.9716592522
51
110.000008572
0
ARC
8
drawinglayer
10
-0.097168001986
20
-1.43675284514
30
0
40
2.42162456507
50
59.9770115351
51
110.999991811
0
ARC
8
drawinglayer
10
-0.0535782686628
20
-1.45480801699
30
0
40
2.42162456507
50
61.0083355664
51
113.000015587
0
ARC
8
drawinglayer
10
-0.0161492888307
20
-1.48352972737
30
0
40
2.42162456507
50
61.9823638181
51
113.999998827
0
ARC
8
drawinglayer
10
0.0125670829446
20
-1.52095336859
30
0
40
2.42162456507
50
63.0136878493
51
114.999982067
0
ARC
8
drawinglayer
10
0.0306222547877
20
-1.56454310192
30
0
40
2.42162456507
50
63.0136878493
51
116.000022602
0
ARC
8
drawinglayer
10
0.036777669671
20
-1.61131464554
30
0
40
2.42162456507
50
63.9877161011
51
116.000022602
0
ARC
8
drawinglayer
10
0.0429384231621
20
-1.56454310192
30
0
40
2.42162456507
50
63.9877161011
51
116.000022602
0
ARC
8
drawinglayer
10
0.0609935950052
20
-1.52095336859
30
0
40
2.42162456507
50
63.9877161011
51
117.000005842
0
ARC
8
drawinglayer
10
0.0897099667805
20
-1.48352972737
30
0
40
2.42162456507
50
65.0190401323
51
117.999989082
0
ARC
8
drawinglayer
10
0.127138946613
20
-1.45480801699
30
0
40
2.42162456507
50
65.993068384
51
118.999972322
0
ARC
8
drawinglayer
10
0.170728679936
20
-1.43675284514
30
0
40
2.42162456507
50
67.998420667
51
120.000012857
0
ARC
8
drawinglayer
10
0.217500223554
20
-1.43059743026
30
0
40
2.42162456507
50
70.0037729499
51
120.999996097
0
ARC
8
drawinglayer
10
0.264271767173
20
-1.43675284514
30
0
40
2.42162456507
50
70.9778012017
51
121.999979337
0
ARC
8
drawinglayer
10
0.374006852103
20
-1.52095336859
30
0
40
2.42162456507
50
76.0198297988
51
124.999986352
0
ARC
8
drawinglayer
10
0.392062023946
20
-1.56454310192
30
0
40
2.42162456507
50
76.0198297988
51
124.999986352
0
ARC
8
drawinglayer
10
-0.550762820333
20
-0.1278756745
30
0
40
1.3950476404
50
30.0113188498
51
93.9999902551
0
ARC
8
drawinglayer
10
-0.550762820333
20
0.0168646622863
30
0
40
1.25030730362
50
30.0113188498
51
150.000025715
0
ARC
8
drawinglayer
10
0.570350172637
20
0.0685156935052
30
0
40
1.25030730362
50
30.0113188498
51
150.000025715
0
ARC
8
drawinglayer
10
0.721721060408
20
0.0685156935052
30
0
40
1.25030730362
50
30.0113188498
51
150.000025715
0
ARC
8
drawinglayer
10
0.479567145673
20
-1.16065606152
30
0
40
1.25030730362
50
30.0113188498
51
150.000025715
0
ARC
8
drawinglayer
10
0.626757903475
20
-1.16065606152
30
0
40
1.25030730362
50
30.0113188498
51
150.000025715
0
ARC
8
drawinglayer
10
-0.550762820333
20
-1.16065606152
30
0
40
1.25030730362
50
30.0113188498
51
150.000025715
0
ARC
8
drawinglayer
10
0.626757903475
20
-1.43301048102
30
0
40
2.55299168912
50
85.9892954341
51
127.000010128
0
ARC
8
drawinglayer
10
0.626757903475
20
-1.28581972322
30
0
40
2.55299168912
50
85.9892954341
51
127.000010128
0
ARC
8
drawinglayer
10
-0.403577401139
20
-1.28581972322
30
0
40
2.55299168912
50
54.9922787175
51
99.0000210459
0
ARC
8
drawinglayer
10
-0.550762820333
20
-1.28581972322
30
0
40
2.55299168912
50
52.9869264345
51
93.9999902551
0
ARC
8
drawinglayer
10
-0.550762820333
20
-2.31614968923
30
0
40
2.55299168912
50
52.9869264345
51
93.9999902551
0
ARC
8
drawinglayer
10
0.761648508727
20
-2.461285083
30
0
40
2.461285083
50
30.0113188498
51
150.000025715
0
ARC
8
drawinglayer
10
0.766634768485
20
-2.61266130937
30
0
40
2.61266130937
50
30.0113188498
51
150.000025715
0
ARC
8
drawinglayer
10
0.766634768485
20
-2.46612720034
30
0
40
2.61266130937
50
30.0113188498
51
86.0000097449
0
ARC
8
drawinglayer
10
0.761648508727
20
-1.14246208587
30
0
40
2.461285083
50
30.0113188498
51
86.0000097449
0
ARC
8
drawinglayer
10
0.766634768485
20
-1.29383831225
30
0
40
2.61266130937
50
30.0113188498
51
86.0000097449
0
ARC
8
drawinglayer
10
0.721721060408
20
-1.10377319458
30
0
40
1.25030730362
50
30.0113188498
51
150.000025715
0
ARC
8
drawinglayer
10
0.721721060408
20
-1.25030730362
30
0
40
1.25030730362
50
30.0113188498
51
150.000025715
0
ARC
8
drawinglayer
10
-0.635641346984
20
-1.40167819139
30
0
40
1.40167819139
50
30.0113188498
51
150.000025715
0
ARC
8
drawinglayer
10
-0.64063294535
20
-1.25030730362
30
0
40
1.25030730362
50
30.0113188498
51
150.000025715
0
ARC
8
drawinglayer
10
-0.64063294535
20
-1.10377319458
30
0
40
1.25030730362
50
30.0113188498
51
150.000025715
0
ARC
8
drawinglayer
10
-0.635641346984
20
-0.0828551942653
30
0
40
1.40167819139
50
98.0214091318
51
150.000025715
0
ARC
8
drawinglayer
10
-0.64063294535
20
0.0685156935052
30
0
40
1.25030730362
50
30.0113188498
51
150.000025715
0
ARC
8
drawinglayer
10
-0.595719237273
20
-2.46612720034
30
0
40
2.61266130937
50
96.9900851006
51
150.000025715
0
ARC
8
drawinglayer
10
-0.595719237273
20
-2.61266130937
30
0
40
2.61266130937
50
30.0113188498
51
150.000025715
0
ARC
8
drawinglayer
10
-0.403577401139
20
0.0168646622863
30
0
40
1.25030730362
50
30.0113188498
51
150.000025715
0
ARC
8
drawinglayer
10
0.626757903475
20
-0.1278756745
30
0
40
1.3950476404
50
85.0152671824
51
150.000025715
0
ARC
8
drawinglayer
10
0.626757903475
20
0.0168646622863
30
0
40
1.25030730362
50
30.0113188498
51
150.000025715
0
ARC
8
drawinglayer
10
-0.550762820333
20
-1.01346530372
30
0
40
1.25030730362
50
30.0113188498
51
150.000025715
0
ARC
8
drawinglayer
10
-0.595719237273
20
-1.29383831225
30
0
40
2.61266130937
50
96.9900851006
51
150.000025715
0
ARC
8
drawinglayer
10
0.570350172637
20
-1.25030730362
30
0
40
1.25030730362
50
30.0113188498
51
150.000025715
0
ARC
8
drawinglayer
10
0.626757903475
20
-0.130326095516
30
0
40
1.25030730362
50
30.0113188498
51
150.000025715
0
ARC
8
drawinglayer
10
-0.444343010895
20
-2.61266130937
30
0
40
2.61266130937
50
30.0113188498
51
150.000025715
0
ARC
8
drawinglayer
10
-0.550762820333
20
-1.14107404783
30
0
40
2.40824601373
50
48.9762218686
51
93.9999902551
0
ARC
8
drawinglayer
10
-0.550762820333
20
-0.99633371104
30
0
40
2.26350567694
50
45.996841334
51
93.9999902551
0
ARC
8
drawinglayer
10
-0.550762820333
20
-0.851588035646
30
0
40
2.11876000155
50
41.0121085163
51
93.9999902551
0
ARC
8
drawinglayer
10
-0.550762820333
20
-0.70684769886
30
0
40
1.97401966476
50
37.0014039504
51
93.9999902551
0
ARC
8
drawinglayer
10
-0.550762820333
20
-0.562102023466
30
0
40
1.82927398937
50
30.0113188498
51
93.9999902551
0
ARC
8
drawinglayer
10
-0.550762820333
20
-0.41736168668
30
0
40
1.68453365258
50
30.0113188498
51
93.9999902551
0
ARC
8
drawinglayer
10
-0.550762820333
20
-0.272621349894
30
0
40
1.5397933158
50
30.0113188498
51
93.9999902551
0
ARC
8
drawinglayer
10
-0.48926205758
20
0.0685156935052
30
0
40
1.25030730362
50
30.0113188498
51
150.000025715
0
ARC
8
drawinglayer
10
-0.337885831201
20
0.0685156935052
30
0
40
1.25030730362
50
30.0113188498
51
150.000025715
0
ARC
8
drawinglayer
10
-0.186514943431
20
0.0685156935052
30
0
40
1.25030730362
50
30.0113188498
51
150.000025715
0
ARC
8
drawinglayer
10
-0.0351440556603
20
0.0685156935052
30
0
40
1.25030730362
50
30.0113188498
51
150.000025715
0
ARC
8
drawinglayer
10
0.116232170718
20
0.0685156935052
30
0
40
1.25030730362
50
30.0113188498
51
150.000025715
0
ARC
8
drawinglayer
10
0.267603058488
20
0.0685156935052
30
0
40
1.25030730362
50
30.0113188498
51
150.000025715
0
ARC
8
drawinglayer
10
0.418973946259
20
0.0685156935052
30
0
40
1.25030730362
50
30.0113188498
51
150.000025715
0
ARC
8
drawinglayer
10
-0.403577401139
20
-1.16065606152
30
0
40
1.25030730362
50
30.0113188498
51
150.000025715
0
ARC
8
drawinglayer
10
-0.256386643337
20
-1.16065606152
30
0
40
1.25030730362
50
30.0113188498
51
150.000025715
0
ARC
8
drawinglayer
10
-0.109195885535
20
-1.16065606152
30
0
40
1.25030730362
50
30.0113188498
51
150.000025715
0
ARC
8
drawinglayer
10
0.0379948722671
20
-1.16065606152
30
0
40
1.25030730362
50
30.0113188498
51
150.000025715
0
ARC
8
drawinglayer
10
0.185185630069
20
-1.16065606152
30
0
40
1.25030730362
50
30.0113188498
51
150.000025715
0
ARC
8
drawinglayer
10
0.332376387871
20
-1.16065606152
30
0
40
1.25030730362
50
30.0113188498
51
150.000025715
0
ARC
8
drawinglayer
10
0.626757903475
20
-2.31614968923
30
0
40
2.55299168912
50
85.9892954341
51
127.000010128
0
ARC
8
drawinglayer
10
0.626757903475
20
-2.16896427003
30
0
40
2.55299168912
50
85.9892954341
51
127.000010128
0
ARC
8
drawinglayer
10
0.626757903475
20
-2.02177351223
30
0
40
2.55299168912
50
85.9892954341
51
127.000010128
0
ARC
8
drawinglayer
10
0.626757903475
20
-1.87458275443
30
0
40
2.55299168912
50
85.9892954341
51
127.000010128
0
ARC
8
drawinglayer
10
0.626757903475
20
-1.72739199663
30
0
40
2.55299168912
50
85.9892954341
51
127.000010128
0
ARC
8
drawinglayer
10
0.626757903475
20
-1.58020123882
30
0
40
2.55299168912
50
85.9892954341
51
127.000010128
0
ARC
8
drawinglayer
10
0.479567145673
20
-1.28581972322
30
0
40
2.55299168912
50
81.0045626164
51
124.000003112
0
ARC
8
drawinglayer
10
0.332376387871
20
-1.28581972322
30
0
40
2.55299168912
50
74.9885057676
51
120.999996097
0
ARC
8
drawinglayer
10
0.185185630069
20
-1.28581972322
30
0
40
2.55299168912
50
70.0037729499
51
117.999989082
0
ARC
8
drawinglayer
10
0.0379948722671
20
-1.28581972322
30
0
40
2.55299168912
50
65.993068384
51
113.999998827
0
ARC
8
drawinglayer
10
-0.109195885535
20
-1.28581972322
30
0
40
2.55299168912
50
61.9823638181
51
109.000025332
0
ARC
8
drawinglayer
10
-0.256386643337
20
-1.28581972322
30
0
40
2.55299168912
50
57.9716592522
51
103.999994541
0
ARC
8
drawinglayer
10
-0.550762820333
20
-1.43301048102
30
0
40
2.55299168912
50
52.9869264345
51
93.9999902551
0
ARC
8
drawinglayer
10
-0.550762820333
20
-1.58020123882
30
0
40
2.55299168912
50
52.9869264345
51
93.9999902551
0
ARC
8
drawinglayer
10
-0.550762820333
20
-1.72739199663
30
0
40
2.55299168912
50
52.9869264345
51
93.9999902551
0
ARC
8
drawinglayer
10
-0.550762820333
20
-1.87458275443
30
0
40
2.55299168912
50
52.9869264345
51
93.9999902551
0
ARC
8
drawinglayer
10
-0.550762820333
20
-2.02177351223
30
0
40
2.55299168912
50
52.9869264345
51
93.9999902551
0
ARC
8
drawinglayer
10
-0.550762820333
20
-2.16896427003
30
0
40
2.55299168912
50
52.9869264345
51
93.9999902551
0
ARC
8
drawinglayer
10
0.726712658774
20
-1.40167819139
30
0
40
1.40167819139
50
30.0113188498
51
150.000025715
0
ARC
8
drawinglayer
10
0.731704257139
20
-1.55304907916
30
0
40
1.55304907916
50
30.0113188498
51
150.000025715
0
ARC
8
drawinglayer
10
0.736690516897
20
-1.70442530554
30
0
40
1.70442530554
50
30.0113188498
51
150.000025715
0
ARC
8
drawinglayer
10
0.741682115263
20
-1.85579619331
30
0
40
1.85579619331
50
30.0113188498
51
150.000025715
0
ARC
8
drawinglayer
10
0.746673713629
20
-2.00716708108
30
0
40
2.00716708108
50
30.0113188498
51
150.000025715
0
ARC
8
drawinglayer
10
0.751665311995
20
-2.15854330745
30
0
40
2.15854330745
50
30.0113188498
51
150.000025715
0
ARC
8
drawinglayer
10
0.756656910361
20
-2.30991419522
30
0
40
2.30991419522
50
30.0113188498
51
150.000025715
0
ARC
8
drawinglayer
10
0.766634768485
20
-1.44037242129
30
0
40
2.61266130937
50
30.0113188498
51
86.0000097449
0
ARC
8
drawinglayer
10
0.766634768485
20
-1.58690653032
30
0
40
2.61266130937
50
30.0113188498
51
86.0000097449
0
ARC
8
drawinglayer
10
0.766634768485
20
-1.73344597796
30
0
40
2.61266130937
50
30.0113188498
51
86.0000097449
0
ARC
8
drawinglayer
10
0.766634768485
20
-1.87998008699
30
0
40
2.61266130937
50
30.0113188498
51
86.0000097449
0
ARC
8
drawinglayer
10
0.766634768485
20
-2.02651419603
30
0
40
2.61266130937
50
30.0113188498
51
86.0000097449
0
ARC
8
drawinglayer
10
0.766634768485
20
-2.17305364367
30
0
40
2.61266130937
50
30.0113188498
51
86.0000097449
0
ARC
8
drawinglayer
10
0.766634768485
20
-2.3195877527
30
0
40
2.61266130937
50
30.0113188498
51
86.0000097449
0
ARC
8
drawinglayer
10
0.726712658774
20
-0.0828551942653
30
0
40
1.40167819139
50
30.0113188498
51
85.000026505
0
ARC
8
drawinglayer
10
0.731704257139
20
-0.234226082036
30
0
40
1.55304907916
50
30.0113188498
51
85.000026505
0
ARC
8
drawinglayer
10
0.736690516897
20
-0.385602308414
30
0
40
1.70442530554
50
30.0113188498
51
85.000026505
0
ARC
8
drawinglayer
10
0.741682115263
20
-0.536973196184
30
0
40
1.85579619331
50
30.0113188498
51
85.000026505
0
ARC
8
drawinglayer
10
0.746673713629
20
-0.688344083955
30
0
40
2.00716708108
50
30.0113188498
51
85.000026505
0
ARC
8
drawinglayer
10
0.751665311995
20
-0.839720310333
30
0
40
2.15854330745
50
30.0113188498
51
86.0000097449
0
ARC
8
drawinglayer
10
0.756656910361
20
-0.991091198104
30
0
40
2.30991419522
50
30.0113188498
51
86.0000097449
0
ARC
8
drawinglayer
10
0.721721060408
20
-0.0780184155279
30
0
40
1.25030730362
50
30.0113188498
51
150.000025715
0
ARC
8
drawinglayer
10
0.721721060408
20
-0.224552524561
30
0
40
1.25030730362
50
30.0113188498
51
150.000025715
0
ARC
8
drawinglayer
10
0.721721060408
20
-0.371091972202
30
0
40
1.25030730362
50
30.0113188498
51
150.000025715
0
ARC
8
drawinglayer
10
0.721721060408
20
-0.517626081235
30
0
40
1.25030730362
50
30.0113188498
51
150.000025715
0
ARC
8
drawinglayer
10
0.721721060408
20
-0.664160190268
30
0
40
1.25030730362
50
30.0113188498
51
150.000025715
0
ARC
8
drawinglayer
10
0.721721060408
20
-0.810699637909
30
0
40
1.25030730362
50
30.0113188498
51
150.000025715
0
ARC
8
drawinglayer
10
0.721721060408
20
-0.957233746942
30
0
40
1.25030730362
50
30.0113188498
51
150.000025715
0
ARC
8
drawinglayer
10
-0.600705497031
20
-2.461285083
30
0
40
2.461285083
50
30.0113188498
51
150.000025715
0
ARC
8
drawinglayer
10
-0.605697095397
20
-2.30991419522
30
0
40
2.30991419522
50
30.0113188498
51
150.000025715
0
ARC
8
drawinglayer
10
-0.610688693763
20
-2.15854330745
30
0
40
2.15854330745
50
30.0113188498
51
150.000025715
0
ARC
8
drawinglayer
10
-0.615680292129
20
-2.00716708108
30
0
40
2.00716708108
50
30.0113188498
51
150.000025715
0
ARC
8
drawinglayer
10
-0.620671890494
20
-1.85579619331
30
0
40
1.85579619331
50
30.0113188498
51
150.000025715
0
ARC
8
drawinglayer
10
-0.62566348886
20
-1.70442530554
30
0
40
1.70442530554
50
30.0113188498
51
150.000025715
0
ARC
8
drawinglayer
10
-0.630649748618
20
-1.55304907916
30
0
40
1.55304907916
50
30.0113188498
51
150.000025715
0
ARC
8
drawinglayer
10
-0.64063294535
20
-0.0780184155279
30
0
40
1.25030730362
50
30.0113188498
51
150.000025715
0
ARC
8
drawinglayer
10
-0.64063294535
20
-0.224552524561
30
0
40
1.25030730362
50
30.0113188498
51
150.000025715
0
ARC
8
drawinglayer
10
-0.64063294535
20
-0.371091972202
30
0
40
1.25030730362
50
30.0113188498
51
150.000025715
0
ARC
8
drawinglayer
10
-0.64063294535
20
-0.517626081235
30
0
40
1.25030730362
50
30.0113188498
51
150.000025715
0
ARC
8
drawinglayer
10
-0.64063294535
20
-0.664160190268
30
0
40
1.25030730362
50
30.0113188498
51
150.000025715
0
ARC
8
drawinglayer
10
-0.64063294535
20
-0.810699637909
30
0
40
1.25030730362
50
30.0113188498
51
150.000025715
0
ARC
8
drawinglayer
10
-0.64063294535
20
-0.957233746942
30
0
40
1.25030730362
50
30.0113188498
51
150.000025715
0
ARC
8
drawinglayer
10
-0.600705497031
20
-1.14246208587
30
0
40
2.461285083
50
96.9900851006
51
150.000025715
0
ARC
8
drawinglayer
10
-0.605697095397
20
-0.991091198104
30
0
40
2.30991419522
50
96.9900851006
51
150.000025715
0
ARC
8
drawinglayer
10
-0.610688693763
20
-0.839720310333
30
0
40
2.15854330745
50
96.9900851006
51
150.000025715
0
ARC
8
drawinglayer
10
-0.615680292129
20
-0.688344083955
30
0
40
2.00716708108
50
96.9900851006
51
150.000025715
0
ARC
8
drawinglayer
10
-0.620671890494
20
-0.536973196184
30
0
40
1.85579619331
50
98.0214091318
51
150.000025715
0
ARC
8
drawinglayer
10
-0.62566348886
20
-0.385602308414
30
0
40
1.70442530554
50
98.0214091318
51
150.000025715
0
ARC
8
drawinglayer
10
-0.630649748618
20
-0.234226082036
30
0
40
1.55304907916
50
98.0214091318
51
150.000025715
0
ARC
8
drawinglayer
10
-0.595719237273
20
-1.44037242129
30
0
40
2.61266130937
50
96.9900851006
51
150.000025715
0
ARC
8
drawinglayer
10
-0.595719237273
20
-1.58690653032
30
0
40
2.61266130937
50
96.9900851006
51
150.000025715
0
ARC
8
drawinglayer
10
-0.595719237273
20
-1.73344597796
30
0
40
2.61266130937
50
96.9900851006
51
150.000025715
0
ARC
8
drawinglayer
10
-0.595719237273
20
-1.87998008699
30
0
40
2.61266130937
50
96.9900851006
51
150.000025715
0
ARC
8
drawinglayer
10
-0.595719237273
20
-2.02651419603
30
0
40
2.61266130937
50
96.9900851006
51
150.000025715
0
ARC
8
drawinglayer
10
-0.595719237273
20
-2.17305364367
30
0
40
2.61266130937
50
96.9900851006
51
150.000025715
0
ARC
8
drawinglayer
10
-0.595719237273
20
-2.3195877527
30
0
40
2.61266130937
50
96.9900851006
51
150.000025715
0
ARC
8
drawinglayer
10
0.479567145673
20
0.0168646622863
30
0
40
1.25030730362
50
30.0113188498
51
150.000025715
0
ARC
8
drawinglayer
10
0.332376387871
20
0.0168646622863
30
0
40
1.25030730362
50
30.0113188498
51
150.000025715
0
ARC
8
drawinglayer
10
0.185185630069
20
0.0168646622863
30
0
40
1.25030730362
50
30.0113188498
51
150.000025715
0
ARC
8
drawinglayer
10
0.0379948722671
20
0.0168646622863
30
0
40
1.25030730362
50
30.0113188498
51
150.000025715
0
ARC
8
drawinglayer
10
-0.109195885535
20
0.0168646622863
30
0
40
1.25030730362
50
30.0113188498
51
150.000025715
0
ARC
8
drawinglayer
10
-0.256386643337
20
0.0168646622863
30
0
40
1.25030730362
50
30.0113188498
51
150.000025715
0
ARC
8
drawinglayer
10
0.626757903475
20
-1.14107404783
30
0
40
2.40824601373
50
85.9892954341
51
130.000017143
0
ARC
8
drawinglayer
10
0.626757903475
20
-0.99633371104
30
0
40
2.26350567694
50
85.9892954341
51
134.000007398
0
ARC
8
drawinglayer
10
0.626757903475
20
-0.851588035646
30
0
40
2.11876000155
50
85.9892954341
51
137.999997653
0
ARC
8
drawinglayer
10
0.626757903475
20
-0.70684769886
30
0
40
1.97401966476
50
85.0152671824
51
143.000028444
0
ARC
8
drawinglayer
10
0.626757903475
20
-0.562102023466
30
0
40
1.82927398937
50
85.0152671824
51
148.000001939
0
ARC
8
drawinglayer
10
0.626757903475
20
-0.41736168668
30
0
40
1.68453365258
50
85.0152671824
51
150.000025715
0
ARC
8
drawinglayer
10
0.626757903475
20
-0.272621349894
30
0
40
1.5397933158
50
85.0152671824
51
150.000025715
0
ARC
8
drawinglayer
10
-0.550762820333
20
-0.130326095516
30
0
40
1.25030730362
50
30.0113188498
51
150.000025715
0
ARC
8
drawinglayer
10
-0.550762820333
20
-0.277516853318
30
0
40
1.25030730362
50
30.0113188498
51
150.000025715
0
ARC
8
drawinglayer
10
-0.550762820333
20
-0.42470761112
30
0
40
1.25030730362
50
30.0113188498
51
150.000025715
0
ARC
8
drawinglayer
10
-0.550762820333
20
-0.571898368922
30
0
40
1.25030730362
50
30.0113188498
51
150.000025715
0
ARC
8
drawinglayer
10
-0.550762820333
20
-0.719089126724
30
0
40
1.25030730362
50
30.0113188498
51
150.000025715
0
ARC
8
drawinglayer
10
-0.550762820333
20
-0.866279884526
30
0
40
1.25030730362
50
30.0113188498
51
150.000025715
0
ARC
8
drawinglayer
10
-0.48926205758
20
-1.25030730362
30
0
40
1.25030730362
50
30.0113188498
51
150.000025715
0
ARC
8
drawinglayer
10
-0.337885831201
20
-1.25030730362
30
0
40
1.25030730362
50
30.0113188498
51
150.000025715
0
ARC
8
drawinglayer
10
-0.186514943431
20
-1.25030730362
30
0
40
1.25030730362
50
30.0113188498
51
150.000025715
0
ARC
8
drawinglayer
10
-0.0351440556603
20
-1.25030730362
30
0
40
1.25030730362
50
30.0113188498
51
150.000025715
0
ARC
8
drawinglayer
10
0.116232170718
20
-1.25030730362
30
0
40
1.25030730362
50
30.0113188498
51
150.000025715
0
ARC
8
drawinglayer
10
0.267603058488
20
-1.25030730362
30
0
40
1.25030730362
50
30.0113188498
51
150.000025715
0
ARC
8
drawinglayer
10
0.418973946259
20
-1.25030730362
30
0
40
1.25030730362
50
30.0113188498
51
150.000025715
0
ARC
8
drawinglayer
10
0.626757903475
20
-1.01346530372
30
0
40
1.25030730362
50
30.0113188498
51
150.000025715
0
ARC
8
drawinglayer
10
0.626757903475
20
-0.866279884526
30
0
40
1.25030730362
50
30.0113188498
51
150.000025715
0
ARC
8
drawinglayer
10
0.626757903475
20
-0.719089126724
30
0
40
1.25030730362
50
30.0113188498
51
150.000025715
0
ARC
8
drawinglayer
10
0.626757903475
20
-0.571898368922
30
0
40
1.25030730362
50
30.0113188498
51
150.000025715
0
ARC
8
drawinglayer
10
0.626757903475
20
-0.42470761112
30
0
40
1.25030730362
50
30.0113188498
51
150.000025715
0
ARC
8
drawinglayer
10
0.626757903475
20
-0.277516853318
30
0
40
1.25030730362
50
30.0113188498
51
150.000025715
0
ARC
8
drawinglayer
10
0.615263880714
20
-2.61266130937
30
0
40
2.61266130937
50
30.0113188498
51
150.000025715
0
ARC
8
drawinglayer
10
0.463892992944
20
-2.61266130937
30
0
40
2.61266130937
50
30.0113188498
51
150.000025715
0
ARC
8
drawinglayer
10
0.312516766565
20
-2.61266130937
30
0
40
2.61266130937
50
30.0113188498
51
150.000025715
0
ARC
8
drawinglayer
10
0.161145878795
20
-2.61266130937
30
0
40
2.61266130937
50
30.0113188498
51
150.000025715
0
ARC
8
drawinglayer
10
0.00977499102447
20
-2.61266130937
30
0
40
2.61266130937
50
30.0113188498
51
150.000025715
0
ARC
8
drawinglayer
10
-0.141601235354
20
-2.61266130937
30
0
40
2.61266130937
50
30.0113188498
51
150.000025715
0
ARC
8
drawinglayer
10
-0.292972123124
20
-2.61266130937
30
0
40
2.61266130937
50
30.0113188498
51
150.000025715
0
ENDSEC
0
EOF
