0
SECTION
2
HEADER
9
$ACADVER
1
AC1006
9
$INSBASE
10
0.0
20
0.0
30
0.0
9
$EXTMIN
10
0.0
20
0.0
9
$EXTMAX
10
0.0
20
0.0
0
ENDSEC
0
SECTION
2
TABLES
0
TABLE
2
LTYPE
70
1
0
LTYPE
2
CONTINUOUS
70
64
3
Solid line
72
65
73
0
40
0.0
0
ENDTAB
0
TABLE
2
LAYER
70
1
0
LAYER
2
PYDXF
70
64
62
7
6
continuous
0
ENDTAB
0
TABLE
2
STYLE
70
1
0
STYLE
2
STANDARD
70
0
40
0
41
40
50
50
71
0
42
1
3
ARIAL.TTF
4

0
ENDTAB
0
TABLE
2
VIEW
70
0
0
ENDTAB
0
ENDSEC
0
SECTION
2
BLOCKS
0
ENDSEC
0
SECTION
2
ENTITIES
0
ARC
8
drawinglayer
10
0.0318373406705
20
-0.884322636996
30
0
40
1.27214010629
50
64.0450118806
51
116.519236956
0
ARC
8
drawinglayer
10
0.0729589862131
20
-0.869400073175
30
0
40
1.27205551126
50
65.993068384
51
118.49267549
0
ARC
8
drawinglayer
10
0.112329514573
20
-0.850311203978
30
0
40
1.27197937573
50
67.998420667
51
120.450357684
0
ARC
8
drawinglayer
10
0.149517491081
20
-0.827254827733
30
0
40
1.2719032402
50
69.9464771704
51
121.533820875
0
ARC
8
drawinglayer
10
0.24417933301
20
-0.736966549009
30
0
40
1.27171713113
50
74.8739142085
51
125.515132706
0
ARC
8
drawinglayer
10
0.26896567768
20
-0.700907916192
30
0
40
1.27167060386
50
76.7646749325
51
126.511506312
0
ARC
8
drawinglayer
10
0.184133778585
20
-0.800480499787
30
0
40
1.27183556417
50
71.8945336739
51
123.453000305
0
ARC
8
drawinglayer
10
0.289894488845
20
-0.662489081954
30
0
40
1.2716325361
50
77.7387031842
51
127.483701098
0
ARC
8
drawinglayer
10
0.306745819419
20
-0.622111872701
30
0
40
1.27159869808
50
78.7127314359
51
128.431144108
0
ARC
8
drawinglayer
10
0.215797699438
20
-0.770275843254
30
0
40
1.2717721179
50
73.8425901773
51
124.495267831
0
ARC
8
drawinglayer
10
0.319329330578
20
-0.58022464211
30
0
40
1.27157754932
50
79.6867596876
51
128.501159551
0
ARC
8
drawinglayer
10
0.327518129773
20
-0.537267284351
30
0
40
1.27156486007
50
79.7440554672
51
128.5466524
0
ARC
8
drawinglayer
10
0.331219162467
20
-0.493700842355
30
0
40
1.27156063032
50
79.7440554672
51
128.567164289
0
ARC
8
drawinglayer
10
0.292639597666
20
-0.391213959872
30
0
40
1.27164522535
50
77.7959989637
51
127.499056367
0
ARC
8
drawinglayer
10
0.263750393896
20
-0.367552729142
30
0
40
1.27170444187
50
75.8479424603
51
126.481597915
0
ARC
8
drawinglayer
10
-0.00821840745621
20
-0.866887600695
30
0
40
1.27222047158
50
62.0396595976
51
114.548262141
0
ARC
8
drawinglayer
10
-0.21967215195
20
-0.405028328762
30
0
40
1.2726815145
50
52.1847855214
51
102.015956288
0
ARC
8
drawinglayer
10
-0.235106515721
20
-0.439098978303
30
0
40
1.27271112277
50
52.1274897419
51
101.057340601
0
ARC
8
drawinglayer
10
-0.0818456944301
20
-0.820098087941
30
0
40
1.27237274263
50
59.0029832834
51
110.639314879
0
ARC
8
drawinglayer
10
-0.114626269719
20
-0.791238492432
30
0
40
1.27244041866
50
57.1122225595
51
108.708962772
0
ARC
8
drawinglayer
10
-0.144238761021
20
-0.759138907159
30
0
40
1.27250386494
50
56.0808985283
51
106.799294441
0
ARC
8
drawinglayer
10
-0.170365936964
20
-0.724141942006
30
0
40
1.27255885171
50
55.049574497
51
105.766996381
0
ARC
8
drawinglayer
10
-0.0462523342942
20
-0.845404692064
30
0
40
1.27230083686
50
60.0916030942
51
112.586970312
0
ARC
8
drawinglayer
10
-0.192728633938
20
-0.686619815118
30
0
40
1.27260537898
50
54.0755462453
51
103.906774308
0
ARC
8
drawinglayer
10
-0.2110857561
20
-0.646987042156
30
0
40
1.27264767649
50
53.1015179936
51
102.927474844
0
ARC
8
drawinglayer
10
-0.225238505121
20
-0.605653909031
30
0
40
1.27267728475
50
52.1847855214
51
101.977396228
0
ARC
8
drawinglayer
10
-0.235038839695
20
-0.563072999169
30
0
40
1.27270266326
50
52.1274897419
51
101.057798967
0
ARC
8
drawinglayer
10
-0.240381016029
20
-0.519692666245
30
0
40
1.27271535252
50
52.0701939623
51
101.020671302
0
ARC
8
drawinglayer
10
-0.2412058176
20
-0.475986642444
30
0
40
1.27271958227
50
52.0701939623
51
101.014941724
0
ARC
8
drawinglayer
10
-0.195951704696
20
-0.376092597723
30
0
40
1.27263498724
50
53.2161095526
51
103.032039642
0
ARC
8
drawinglayer
10
-0.165565168841
20
-0.354267079208
30
0
40
1.27257577071
50
54.2474335838
51
104.946348931
0
ARC
8
drawinglayer
10
-0.130580892943
20
-0.341040645798
30
0
40
1.27250386494
50
56.1381943078
51
106.892113603
0
ARC
8
drawinglayer
10
-0.09338022718
20
-0.337305775091
30
0
40
1.27242772941
50
57.2268141185
51
108.851973037
0
ARC
8
drawinglayer
10
-0.0565010225425
20
-0.343333171193
30
0
40
1.27235582363
50
59.174870622
51
110.80805095
0
ARC
8
drawinglayer
10
-0.0224599812622
20
-0.358695629186
30
0
40
1.27228391785
50
61.1229271254
51
112.743330495
0
ARC
8
drawinglayer
10
0.0064292225082
20
-0.382356859917
30
0
40
1.27222470133
50
62.1542511566
51
114.643143952
0
ARC
8
drawinglayer
10
0.0281912947481
20
-0.412696868503
30
0
40
1.27217817406
50
63.1282794084
51
115.639517557
0
ARC
8
drawinglayer
10
0.0413500521317
20
-0.44765153614
30
0
40
1.2721485658
50
64.1023076601
51
116.579855891
0
ARC
8
drawinglayer
10
0.0450087873091
20
-0.4848437424
30
0
40
1.27214010629
50
64.1023076601
51
116.603175273
0
ARC
8
drawinglayer
10
0.0665382232082
20
-0.413881198965
30
0
40
1.27209780878
50
65.1336316913
51
117.595881949
0
ARC
8
drawinglayer
10
0.0902586704622
20
-0.384949697679
30
0
40
1.27205551126
50
66.107659943
51
118.600964513
0
ARC
8
drawinglayer
10
0.120645206317
20
-0.363119949412
30
0
40
1.27199206499
50
68.0557164465
51
119.645695757
0
ARC
8
drawinglayer
10
0.155629482215
20
-0.349893516002
30
0
40
1.27192438896
50
70.0037729499
51
121.570833948
0
ARC
8
drawinglayer
10
0.192830147978
20
-0.346162875047
30
0
40
1.27184825343
50
71.9518294534
51
123.504623803
0
ARC
8
drawinglayer
10
0.229709352615
20
-0.352186041397
30
0
40
1.2717721179
50
73.8998859568
51
124.576742429
0
ARC
8
drawinglayer
10
0.314405899658
20
-0.421553968459
30
0
40
1.27159869808
50
78.7700272154
51
128.473714873
0
ARC
8
drawinglayer
10
0.32756042729
20
-0.456508636095
30
0
40
1.27156908982
50
79.7440554672
51
128.546881583
0
ARC
8
drawinglayer
10
-0.409968678689
20
0.704731611683
30
0
40
0.459731706853
50
32.4177415894
51
89.621905151
0
ARC
8
drawinglayer
10
-0.41020131503
20
0.819412868173
30
0
40
0.345054680114
50
31.6728964557
51
145.713499266
0
ARC
8
drawinglayer
10
0.478917860338
20
0.832850789166
30
0
40
0.343252805912
50
35.6263052421
51
149.55793148
0
ARC
8
drawinglayer
10
0.598780562599
20
0.829141296969
30
0
40
0.343011710067
50
36.2565588167
51
150.017615519
0
ARC
8
drawinglayer
10
0.374937875523
20
-0.138266351691
30
0
40
0.343400847219
50
35.1106432265
51
149.149240685
0
ARC
8
drawinglayer
10
0.491492911994
20
-0.141874329849
30
0
40
0.343163981127
50
35.6836010216
51
149.60720585
0
ARC
8
drawinglayer
10
-0.440943150023
20
-0.113023193843
30
0
40
0.345054680114
50
31.5010091171
51
145.565790746
0
ARC
8
drawinglayer
10
0.520483629804
20
-0.35816691023
30
0
40
1.37526991103
50
91.2605071493
51
131.641254747
0
ARC
8
drawinglayer
10
0.524324244302
20
-0.241611873759
30
0
40
1.37526991103
50
91.3178029288
51
131.661193678
0
ARC
8
drawinglayer
10
-0.291556781244
20
-0.216364486159
30
0
40
1.37692374392
50
52.2420813009
51
96.3331316927
0
ARC
8
drawinglayer
10
-0.408111817715
20
-0.212760737753
30
0
40
1.37716061001
50
49.0908134277
51
89.676737212
0
ARC
8
drawinglayer
10
-0.435008808458
20
-1.0286417633
30
0
40
1.37716061001
50
48.9762218686
51
89.4904686328
0
ARC
8
drawinglayer
10
0.597909233759
20
-1.17568484966
30
0
40
1.3023997496
50
42.3872072246
51
144.13866747
0
ARC
8
drawinglayer
10
0.602105147396
20
-1.29574635025
30
0
40
1.42232166838
50
43.1320523583
51
143.47604178
0
ARC
8
drawinglayer
10
0.605928842888
20
-1.17970734348
30
0
40
1.42232166838
50
43.1320523583
51
91.6835218894
0
ARC
8
drawinglayer
10
0.632339412191
20
-0.131354937495
30
0
40
1.3023997496
50
42.5590945632
51
91.8925368931
0
ARC
8
drawinglayer
10
0.636535325828
20
-0.251412208332
30
0
40
1.42232166838
50
43.3039396968
51
91.8941411749
0
ARC
8
drawinglayer
10
0.568178309411
20
-0.0991538381824
30
0
40
0.343011710067
50
36.0846714782
51
149.901820748
0
ARC
8
drawinglayer
10
0.564350384167
20
-0.2151886152
30
0
40
0.343011710067
50
36.0846714782
51
149.887324916
0
ARC
8
drawinglayer
10
-0.510251860562
20
-0.301868915767
30
0
40
0.465120410455
50
50.2940247974
51
144.388763548
0
ARC
8
drawinglayer
10
-0.514447774199
20
-0.181811644929
30
0
40
0.345198491671
50
31.2145302196
51
145.206947279
0
ARC
8
drawinglayer
10
-0.510619848956
20
-0.0657726381596
30
0
40
0.345198491671
50
31.2718259991
51
145.225740295
0
ARC
8
drawinglayer
10
-0.47582168213
20
0.742460996403
30
0
40
0.465120410455
50
92.9220847552
51
144.558760126
0
ARC
8
drawinglayer
10
-0.480013366015
20
0.862522496992
30
0
40
0.345198491671
50
31.3864175581
51
145.375396871
0
ARC
8
drawinglayer
10
-0.472865085726
20
-1.14632614346
30
0
40
1.42450844999
50
92.6929016371
51
138.473432679
0
ARC
8
drawinglayer
10
-0.47669301097
20
-1.26236515023
30
0
40
1.42450844999
50
53.9609546863
51
138.453665636
0
ARC
8
drawinglayer
10
-0.293646278559
20
0.815809119768
30
0
40
0.344817814022
50
32.1312626918
51
146.265257623
0
ARC
8
drawinglayer
10
0.522467383328
20
0.675880475678
30
0
40
0.457841007865
50
91.3178029288
51
148.978613853
0
ARC
8
drawinglayer
10
0.522234746987
20
0.790561732168
30
0
40
0.343163981127
50
35.8554883601
51
149.725521635
0
ARC
8
drawinglayer
10
-0.437098305773
20
0.00353184262786
30
0
40
0.345054680114
50
31.5583048967
51
145.584297283
0
ARC
8
drawinglayer
10
-0.442262832538
20
-0.218035238061
30
0
40
1.42450844999
50
92.9220847552
51
138.630938777
0
ARC
8
drawinglayer
10
0.444483452154
20
-0.211479123003
30
0
40
0.343252805912
50
35.4544179035
51
149.423973947
0
ARC
8
drawinglayer
10
0.518389902737
20
0.674010925449
30
0
40
0.343163981127
50
35.8554883601
51
149.71079662
0
ARC
8
drawinglayer
10
-0.356826078957
20
-1.26607464243
30
0
40
1.42426735414
50
54.6485040404
51
139.066959659
0
ARC
8
drawinglayer
10
-0.408344454055
20
-0.0980752515116
30
0
40
1.26248358328
50
45.1374046413
51
89.6705492678
0
ARC
8
drawinglayer
10
-0.408572860644
20
0.0166144644817
30
0
40
1.14780232679
50
41.986136768
51
89.6641894363
0
ARC
8
drawinglayer
10
-0.408805496985
20
0.131299950723
30
0
40
1.03312530005
50
35.9700799192
51
89.6576577174
0
ARC
8
drawinglayer
10
-0.409038133326
20
0.245985436965
30
0
40
0.918444043558
50
35.282530565
51
89.6508968154
0
ARC
8
drawinglayer
10
-0.409270769667
20
0.360670923207
30
0
40
0.80376701682
50
34.5949812108
51
89.6440213219
0
ARC
8
drawinglayer
10
-0.409503406008
20
0.475356409448
30
0
40
0.689089990081
50
33.8501360772
51
89.6368593494
0
ARC
8
drawinglayer
10
-0.409736042348
20
0.590046125442
30
0
40
0.574408733591
50
33.1052909435
51
89.6295254897
0
ARC
8
drawinglayer
10
-0.360150663754
20
0.858813004794
30
0
40
0.344953166075
50
31.8447837942
51
145.952365371
0
ARC
8
drawinglayer
10
-0.240283731741
20
0.855103512597
30
0
40
0.344712070231
50
32.3604458098
51
146.512660799
0
ARC
8
drawinglayer
10
-0.120416799728
20
0.851398250152
30
0
40
0.344466744635
50
32.8761078255
51
147.057028
0
ARC
8
drawinglayer
10
-0.000549867714517
20
0.847684528203
30
0
40
0.344225648791
50
33.3917698411
51
147.585868045
0
ARC
8
drawinglayer
10
0.119317064299
20
0.843979265757
30
0
40
0.343980323195
50
33.9074318567
51
148.099868483
0
ARC
8
drawinglayer
10
0.239183996312
20
0.84026977356
30
0
40
0.343739227351
50
34.4803896518
51
148.599544976
0
ARC
8
drawinglayer
10
0.359050928325
20
0.836556051611
30
0
40
0.343498131507
50
35.053347447
51
149.085413186
0
ARC
8
drawinglayer
10
-0.324388113552
20
-0.116626942249
30
0
40
0.344817814022
50
32.0166711328
51
146.121674399
0
ARC
8
drawinglayer
10
-0.207833077081
20
-0.120234920407
30
0
40
0.34458094793
50
32.4750373689
51
146.662030896
0
ARC
8
drawinglayer
10
-0.0912780406098
20
-0.123838668813
30
0
40
0.344344081837
50
32.9906993845
51
147.187433194
0
ARC
8
drawinglayer
10
0.0252769958612
20
-0.12744664697
30
0
40
0.344107215745
50
33.5063614001
51
147.698282364
0
ARC
8
drawinglayer
10
0.141827802581
20
-0.131050395376
30
0
40
0.343870349652
50
34.0220234157
51
148.195265956
0
ARC
8
drawinglayer
10
0.258382839052
20
-0.134658373534
30
0
40
0.34363348356
50
34.5376854313
51
148.678727743
0
ARC
8
drawinglayer
10
0.497427253559
20
-1.0574928993
30
0
40
1.37526991103
50
91.0886198107
51
131.521506568
0
ARC
8
drawinglayer
10
0.501267868057
20
-0.940937862833
30
0
40
1.37526991103
50
91.1459155903
51
131.541502795
0
ARC
8
drawinglayer
10
0.505112712307
20
-0.824382826362
30
0
40
1.37526991103
50
91.1459155903
51
131.561499022
0
ARC
8
drawinglayer
10
0.508953326805
20
-0.707827789891
30
0
40
1.37526991103
50
91.2032113698
51
131.581437953
0
ARC
8
drawinglayer
10
0.512798171055
20
-0.591276983172
30
0
40
1.37526991103
50
91.2032113698
51
131.60143418
0
ARC
8
drawinglayer
10
0.516638785554
20
-0.474721946701
30
0
40
1.37526991103
50
91.2605071493
51
131.621373112
0
ARC
8
drawinglayer
10
0.407769207831
20
-0.238003895601
30
0
40
1.37550677712
50
84.6141967258
51
128.53267223
0
ARC
8
drawinglayer
10
0.29121417136
20
-0.234400147195
30
0
40
1.37574364321
50
77.9105905227
51
123.677255986
0
ARC
8
drawinglayer
10
0.174663364641
20
-0.230792169038
30
0
40
1.3759805093
50
72.0664210124
51
119.614240374
0
ARC
8
drawinglayer
10
0.0581083281695
20
-0.22718419088
30
0
40
1.37621314565
50
66.2222515021
51
114.668468686
0
ARC
8
drawinglayer
10
-0.0584467083015
20
-0.223576212723
30
0
40
1.37645001174
50
61.2375186844
51
108.84813422
0
ARC
8
drawinglayer
10
-0.175001744773
20
-0.219972464317
30
0
40
1.37668687783
50
57.169518339
51
103.010668316
0
ARC
8
drawinglayer
10
-0.411952432213
20
-0.329315774224
30
0
40
1.37716061001
50
49.0908134277
51
89.6500946745
0
ARC
8
drawinglayer
10
-0.415797276463
20
-0.445870810695
30
0
40
1.37716061001
50
49.0908134277
51
89.6235094328
0
ARC
8
drawinglayer
10
-0.419637890961
20
-0.562425847166
30
0
40
1.37716061001
50
49.0335176481
51
89.5968668953
0
ARC
8
drawinglayer
10
-0.423482735211
20
-0.678976653886
30
0
40
1.37716061001
50
49.0335176481
51
89.5702816537
0
ARC
8
drawinglayer
10
-0.42732334971
20
-0.795531690357
30
0
40
1.37716061001
50
49.0335176481
51
89.5436391162
0
ARC
8
drawinglayer
10
-0.431168193959
20
-0.912086726828
30
0
40
1.37716061001
50
48.9762218686
51
89.5170538745
0
ARC
8
drawinglayer
10
0.568546297804
20
-0.335250115789
30
0
40
0.462933628852
50
36.8868123914
51
149.124145133
0
ARC
8
drawinglayer
10
0.572742211441
20
-0.455311616378
30
0
40
0.582855547637
50
37.7462490841
51
148.373914196
0
ARC
8
drawinglayer
10
0.576938125078
20
-0.575377346719
30
0
40
0.702781696173
50
38.5483899973
51
147.636517514
0
ARC
8
drawinglayer
10
0.581129808963
20
-0.695434617556
30
0
40
0.822703614957
50
39.3505309104
51
146.91189779
0
ARC
8
drawinglayer
10
0.5853257226
20
-0.815500347897
30
0
40
0.942629763493
50
40.1526718236
51
146.199883138
0
ARC
8
drawinglayer
10
0.589521636237
20
-0.935561848486
30
0
40
1.06255168228
50
40.8975169573
51
145.500416262
0
ARC
8
drawinglayer
10
0.593713320122
20
-1.05561911932
30
0
40
1.18247360106
50
41.642362091
51
144.81338257
0
ARC
8
drawinglayer
10
0.632711630337
20
-0.367451215102
30
0
40
1.42232166838
50
43.3039396968
51
91.8678424121
0
ARC
8
drawinglayer
10
0.628883705093
20
-0.48348599212
30
0
40
1.42232166838
50
43.2466439173
51
91.8414863536
0
ARC
8
drawinglayer
10
0.625060009602
20
-0.59952499889
30
0
40
1.42232166838
50
43.2466439173
51
91.8151875908
0
ARC
8
drawinglayer
10
0.621232084358
20
-0.715559775908
30
0
40
1.42232166838
50
43.2466439173
51
91.7888315322
0
ARC
8
drawinglayer
10
0.617408388866
20
-0.831598782677
30
0
40
1.42232166838
50
43.1893481378
51
91.7625327694
0
ARC
8
drawinglayer
10
0.613580463623
20
-0.947633559696
30
0
40
1.42232166838
50
43.1893481378
51
91.7361767108
0
ARC
8
drawinglayer
10
0.609756768131
20
-1.06367256647
30
0
40
1.42232166838
50
43.1320523583
51
91.709877948
0
ARC
8
drawinglayer
10
0.602976476236
20
0.70907979638
30
0
40
0.462933628852
50
37.1159955094
51
91.8799318216
0
ARC
8
drawinglayer
10
0.607172389873
20
0.589018295791
30
0
40
0.582855547637
50
37.9181364226
51
91.8818798781
0
ARC
8
drawinglayer
10
0.61136830351
20
0.468956795202
30
0
40
0.702781696173
50
38.7202773358
51
91.8838279346
0
ARC
8
drawinglayer
10
0.615559987395
20
0.348895294613
30
0
40
0.822703614957
50
39.522418249
51
91.8856613996
0
ARC
8
drawinglayer
10
0.619755901032
20
0.228829564272
30
0
40
0.942629763493
50
40.3245591622
51
91.8874375687
0
ARC
8
drawinglayer
10
0.623951814669
20
0.108772293435
30
0
40
1.06255168228
50
41.1267000753
51
91.8892137379
0
ARC
8
drawinglayer
10
0.628147728306
20
-0.0112892071542
30
0
40
1.18247360106
50
41.871545209
51
91.8908753155
0
ARC
8
drawinglayer
10
0.594956867108
20
0.713102290199
30
0
40
0.343011710067
50
36.1992630372
51
150.003176982
0
ARC
8
drawinglayer
10
0.591133171616
20
0.597067513181
30
0
40
0.343011710067
50
36.1992630372
51
149.988738446
0
ARC
8
drawinglayer
10
0.587305246372
20
0.481028506411
30
0
40
0.343011710067
50
36.1992630372
51
149.97429991
0
ARC
8
drawinglayer
10
0.583481550881
20
0.364993729393
30
0
40
0.343011710067
50
36.1419672577
51
149.959861373
0
ARC
8
drawinglayer
10
0.579653625637
20
0.248954722623
30
0
40
0.343011710067
50
36.1419672577
51
149.945365541
0
ARC
8
drawinglayer
10
0.575829930146
20
0.132919945605
30
0
40
0.343011710067
50
36.1419672577
51
149.930869709
0
ARC
8
drawinglayer
10
0.572002004902
20
0.0168851685873
30
0
40
0.343011710067
50
36.0846714782
51
149.916373876
0
ARC
8
drawinglayer
10
-0.480888924607
20
-1.14230364964
30
0
40
1.3045865312
50
53.4452926707
51
139.138923158
0
ARC
8
drawinglayer
10
-0.485080608492
20
-1.0222379193
30
0
40
1.18466038267
50
52.8723348755
51
139.839765133
0
ARC
8
drawinglayer
10
-0.489276522129
20
-0.902180648463
30
0
40
1.06473846388
50
52.3566728599
51
140.556420744
0
ARC
8
drawinglayer
10
-0.493472435766
20
-0.782119147874
30
0
40
0.944816545097
50
51.7837150648
51
141.289291059
0
ARC
8
drawinglayer
10
-0.497668349403
20
-0.662053417534
30
0
40
0.82489039656
50
51.2107572696
51
142.038719855
0
ARC
8
drawinglayer
10
-0.501860033288
20
-0.541996146696
30
0
40
0.704968477776
50
50.6377994745
51
142.804879019
0
ARC
8
drawinglayer
10
-0.506055946925
20
-0.421930416356
30
0
40
0.58504232924
50
50.9242783721
51
143.588112325
0
ARC
8
drawinglayer
10
-0.483841291259
20
0.746483490222
30
0
40
0.345198491671
50
31.3291217786
51
145.356718447
0
ARC
8
drawinglayer
10
-0.48766498675
20
0.630448713204
30
0
40
0.345198491671
50
31.3291217786
51
145.338097319
0
ARC
8
drawinglayer
10
-0.491492911994
20
0.514409706434
30
0
40
0.345198491671
50
31.3291217786
51
145.319418895
0
ARC
8
drawinglayer
10
-0.495316607485
20
0.398374929416
30
0
40
0.345198491671
50
31.3291217786
51
145.300683175
0
ARC
8
drawinglayer
10
-0.499144532729
20
0.282335922646
30
0
40
0.345198491671
50
31.2718259991
51
145.282004751
0
ARC
8
drawinglayer
10
-0.50296822822
20
0.166301145628
30
0
40
0.345198491671
50
31.2718259991
51
145.263269031
0
ARC
8
drawinglayer
10
-0.506796153464
20
0.0502621388585
30
0
40
0.345198491671
50
31.2718259991
51
145.244533311
0
ARC
8
drawinglayer
10
-0.446458746175
20
-0.097973737472
30
0
40
1.3045865312
50
92.9220847552
51
139.315737934
0
ARC
8
drawinglayer
10
-0.45065043006
20
0.0220919928686
30
0
40
1.18466038267
50
92.9220847552
51
140.016006951
0
ARC
8
drawinglayer
10
-0.454846343697
20
0.142149263706
30
0
40
1.06473846388
50
92.9220847552
51
140.732032308
0
ARC
8
drawinglayer
10
-0.459042257334
20
0.262210764295
30
0
40
0.944816545097
50
92.9220847552
51
141.464100483
0
ARC
8
drawinglayer
10
-0.463233941219
20
0.382276494636
30
0
40
0.82489039656
50
92.9220847552
51
142.212497955
0
ARC
8
drawinglayer
10
-0.467429854856
20
0.502337995225
30
0
40
0.704968477776
50
92.9220847552
51
142.977568499
0
ARC
8
drawinglayer
10
-0.471625768493
20
0.622399495814
30
0
40
0.58504232924
50
92.9220847552
51
143.759541297
0
ARC
8
drawinglayer
10
-0.44608652803
20
-0.334070015079
30
0
40
1.42450844999
50
92.9220847552
51
138.611286325
0
ARC
8
drawinglayer
10
-0.449914453273
20
-0.450109021849
30
0
40
1.42450844999
50
92.8647889757
51
138.591633873
0
ARC
8
drawinglayer
10
-0.453738148765
20
-0.566143798867
30
0
40
1.42450844999
50
92.8647889757
51
138.57198142
0
ARC
8
drawinglayer
10
-0.457566074008
20
-0.682182805637
30
0
40
1.42450844999
50
92.8074931961
51
138.552328968
0
ARC
8
drawinglayer
10
-0.4613897695
20
-0.798217582655
30
0
40
1.42450844999
50
92.8074931961
51
138.53261922
0
ARC
8
drawinglayer
10
-0.465217694743
20
-0.914252359673
30
0
40
1.42450844999
50
92.7501974166
51
138.512909472
0
ARC
8
drawinglayer
10
-0.469041390235
20
-1.03029136644
30
0
40
1.42450844999
50
92.7501974166
51
138.493142428
0
ARC
8
drawinglayer
10
0.405679710516
20
0.794169710325
30
0
40
0.343400847219
50
35.282530565
51
149.270822329
0
ARC
8
drawinglayer
10
0.289124674045
20
0.797777688483
30
0
40
0.34363348356
50
34.7095727699
51
148.803632543
0
ARC
8
drawinglayer
10
0.172569637574
20
0.801385666641
30
0
40
0.343870349652
50
34.1939107543
51
148.323665798
0
ARC
8
drawinglayer
10
0.0560188308543
20
0.804989415046
30
0
40
0.344107215745
50
33.6209529591
51
147.83029184
0
ARC
8
drawinglayer
10
-0.0605362056167
20
0.808597393204
30
0
40
0.344344081837
50
33.1052909435
51
147.3231096
0
ARC
8
drawinglayer
10
-0.177091242088
20
0.81220114161
30
0
40
0.34458094793
50
32.5896289279
51
146.801603415
0
ARC
8
drawinglayer
10
0.524091607961
20
-0.126926387517
30
0
40
1.26059288429
50
91.3178029288
51
135.570771194
0
ARC
8
drawinglayer
10
0.52385897162
20
-0.0122366715238
30
0
40
1.1459116278
50
91.3178029288
51
139.576319139
0
ARC
8
drawinglayer
10
0.52362633528
20
0.102448814718
30
0
40
1.03123460106
50
91.3178029288
51
143.676061347
0
ARC
8
drawinglayer
10
0.523393698939
20
0.217130071208
30
0
40
0.916557574322
50
91.3178029288
51
146.106376426
0
ARC
8
drawinglayer
10
0.52316529235
20
0.331819787201
30
0
40
0.801876317832
50
91.3178029288
51
146.807218401
0
ARC
8
drawinglayer
10
0.522932656009
20
0.446505273443
30
0
40
0.687199291094
50
91.3178029288
51
147.519519532
0
ARC
8
drawinglayer
10
0.522700019668
20
0.561194989436
30
0
40
0.572518034604
50
91.3178029288
51
148.243279819
0
ARC
8
drawinglayer
10
-0.414041929528
20
0.702857831702
30
0
40
0.345054680114
50
31.6156006762
51
145.695107321
0
ARC
8
drawinglayer
10
-0.417886773778
20
0.586307024983
30
0
40
0.345054680114
50
31.6156006762
51
145.67665808
0
ARC
8
drawinglayer
10
-0.421727388276
20
0.469751988512
30
0
40
0.345054680114
50
31.6156006762
51
145.658208839
0
ARC
8
drawinglayer
10
-0.425572232526
20
0.353196952041
30
0
40
0.345054680114
50
31.6156006762
51
145.639759598
0
ARC
8
drawinglayer
10
-0.429412847025
20
0.23664191557
30
0
40
0.345054680114
50
31.5583048967
51
145.621310357
0
ARC
8
drawinglayer
10
-0.433257691275
20
0.120086879099
30
0
40
0.345054680114
50
31.5583048967
51
145.60280382
0
ARC
8
drawinglayer
10
-0.394580842186
20
-0.185516907375
30
0
40
0.344953166075
50
31.7301922352
51
145.788843216
0
ARC
8
drawinglayer
10
-0.274713910173
20
-0.189226399572
30
0
40
0.344712070231
50
32.1885584713
51
146.353894194
0
ARC
8
drawinglayer
10
-0.15484697816
20
-0.192935891769
30
0
40
0.344466744635
50
32.7042204869
51
146.902730466
0
ARC
8
drawinglayer
10
-0.0349800461466
20
-0.196645383966
30
0
40
0.344225648791
50
33.2198825025
51
147.435982286
0
ARC
8
drawinglayer
10
0.0848868858665
20
-0.200350646412
30
0
40
0.343980323195
50
33.7928402977
51
147.954222611
0
ARC
8
drawinglayer
10
0.20475381788
20
-0.204060138609
30
0
40
0.343739227351
50
34.3085023133
51
148.457967105
0
ARC
8
drawinglayer
10
0.324620749893
20
-0.207773860558
30
0
40
0.343498131507
50
34.8814601084
51
148.947674132
0
ARC
8
drawinglayer
10
0.495333526492
20
-0.0253192933777
30
0
40
0.343163981127
50
35.7408968011
51
149.622045457
0
ARC
8
drawinglayer
10
0.499178370742
20
0.0912357430933
30
0
40
0.343163981127
50
35.7408968011
51
149.636827768
0
ARC
8
drawinglayer
10
0.50301898524
20
0.207790779564
30
0
40
0.343163981127
50
35.7408968011
51
149.651667375
0
ARC
8
drawinglayer
10
0.50686382949
20
0.324345816035
30
0
40
0.343163981127
50
35.7981925806
51
149.666449686
0
ARC
8
drawinglayer
10
0.510704443989
20
0.440900852506
30
0
40
0.343163981127
50
35.7981925806
51
149.681231997
0
ARC
8
drawinglayer
10
0.514549288239
20
0.557455888977
30
0
40
0.343163981127
50
35.7981925806
51
149.696014308
0
ARC
8
drawinglayer
10
0.482238215383
20
-1.29203685806
30
0
40
1.42256699398
50
60.4926735508
51
142.969718977
0
ARC
8
drawinglayer
10
0.36237128337
20
-1.28832736586
30
0
40
1.42280808982
50
58.8883917244
51
142.451364059
0
ARC
8
drawinglayer
10
0.242504351357
20
-1.28461787366
30
0
40
1.42304918567
50
58.1435465907
51
141.920518662
0
ARC
8
drawinglayer
10
0.122637419344
20
-1.28090838146
30
0
40
1.42329451126
50
57.3987014571
51
141.376896306
0
ARC
8
drawinglayer
10
0.00277471708249
20
-1.27719888927
30
0
40
1.42353560711
50
56.7111521029
51
140.820153217
0
ARC
8
drawinglayer
10
-0.117092214931
20
-1.27349362682
30
0
40
1.4237809327
50
55.9663069692
51
140.249773732
0
ARC
8
drawinglayer
10
-0.236959146944
20
-1.26978413462
30
0
40
1.42402202855
50
55.2787576151
51
139.665528668
0
ENDSEC
0
EOF
