0
SECTION
2
HEADER
9
$ACADVER
1
AC1006
9
$INSBASE
10
0.0
20
0.0
30
0.0
9
$EXTMIN
10
0.0
20
0.0
9
$EXTMAX
10
0.0
20
0.0
0
ENDSEC
0
SECTION
2
TABLES
0
TABLE
2
LTYPE
70
1
0
LTYPE
2
CONTINUOUS
70
64
3
Solid line
72
65
73
0
40
0.0
0
ENDTAB
0
TABLE
2
LAYER
70
1
0
LAYER
2
PYDXF
70
64
62
7
6
continuous
0
ENDTAB
0
TABLE
2
STYLE
70
1
0
STYLE
2
STANDARD
70
0
40
0
41
40
50
50
71
0
42
1
3
ARIAL.TTF
4

0
ENDTAB
0
TABLE
2
VIEW
70
0
0
ENDTAB
0
ENDSEC
0
SECTION
2
BLOCKS
0
ENDSEC
0
SECTION
2
ENTITIES
0
ARC
8
drawinglayer
10
-0.0216099737843
20
-1.53447638522
30
0
40
1.43676397194
50
61.9823638181
51
113.999998827
0
ARC
8
drawinglayer
10
0.0094444547801
20
-1.52147610454
30
0
40
1.43615569599
50
63.9877161011
51
116.000022602
0
ARC
8
drawinglayer
10
0.0390526102075
20
-1.50495235307
30
0
40
1.43514621676
50
65.993068384
51
117.999989082
0
ARC
8
drawinglayer
10
0.0668974124815
20
-1.48508955488
30
0
40
1.43375171179
50
67.998420667
51
120.000012857
0
ARC
8
drawinglayer
10
0.13697533166
20
-1.40773173736
30
0
40
1.42740364043
50
72.9831534846
51
124.000003112
0
ARC
8
drawinglayer
10
0.155010066482
20
-1.37694909167
30
0
40
1.4246469856
50
74.9885057676
51
124.999986352
0
ARC
8
drawinglayer
10
0.0926811946475
20
-1.46209478266
30
0
40
1.43198188761
50
70.0037729499
51
120.999996097
0
ARC
8
drawinglayer
10
0.170039012166
20
-1.34419278465
30
0
40
1.42161207687
50
76.0198297988
51
124.999986352
0
ARC
8
drawinglayer
10
0.181900393195
20
-1.30981548693
30
0
40
1.41833126935
50
76.9938580505
51
126.000026888
0
ARC
8
drawinglayer
10
0.116122467303
20
-1.43621717069
30
0
40
1.42985939281
50
72.0091252329
51
123.000019873
0
ARC
8
drawinglayer
10
0.190461553644
20
-1.27419251772
30
0
40
1.41484662468
50
78.0251820818
51
126.000026888
0
ARC
8
drawinglayer
10
0.195638370241
20
-1.23770243173
30
0
40
1.41119049795
50
78.0251820818
51
127.000010128
0
ARC
8
drawinglayer
10
0.197369368291
20
-1.2007334902
30
0
40
1.40740495082
50
78.0251820818
51
127.000010128
0
ARC
8
drawinglayer
10
0.165298989469
20
-1.11417064567
30
0
40
1.39767900663
50
76.0198297988
51
124.999986352
0
ARC
8
drawinglayer
10
0.142624532772
20
-1.09435961565
30
0
40
1.39509059833
50
74.0144775159
51
124.000003112
0
ARC
8
drawinglayer
10
-0.0526644023487
20
-1.52003953794
30
0
40
1.43453146979
50
59.9770115351
51
111.999975051
0
ARC
8
drawinglayer
10
-0.225919511826
20
-1.13026407427
30
0
40
1.3900593797
50
50.9815741516
51
100.000004286
0
ARC
8
drawinglayer
10
-0.236855536888
20
-1.15928660232
30
0
40
1.39280632801
50
50.0075458999
51
99.0000210459
0
ARC
8
drawinglayer
10
-0.11011736005
20
-1.48099663426
30
0
40
1.42912493195
50
56.9976310005
51
109.000025332
0
ARC
8
drawinglayer
10
-0.135901142216
20
-1.45681119422
30
0
40
1.42600913546
50
56.0236027487
51
107.000001556
0
ARC
8
drawinglayer
10
-0.159342414872
20
-1.42984968628
30
0
40
1.42266038223
50
54.0182504658
51
104.999977781
0
ARC
8
drawinglayer
10
-0.180192043718
20
-1.40040330637
30
0
40
1.41911749837
50
52.9869264345
51
103.000011301
0
ARC
8
drawinglayer
10
-0.0822725577761
20
-1.50215363659
30
0
40
1.4319786521
50
59.0029832834
51
110.000008572
0
ARC
8
drawinglayer
10
-0.19823001405
20
-1.36878266349
30
0
40
1.4154160745
50
52.0128981828
51
102.000028061
0
ARC
8
drawinglayer
10
-0.213258959735
20
-1.33533395725
30
0
40
1.41159493675
50
50.9815741516
51
100.999987526
0
ARC
8
drawinglayer
10
-0.225117105254
20
-1.30040985828
30
0
40
1.40769614675
50
50.9815741516
51
100.000004286
0
ARC
8
drawinglayer
10
-0.233681501212
20
-1.2643921568
30
0
40
1.40376500165
50
50.0075458999
51
99.0000210459
0
ARC
8
drawinglayer
10
-0.238855082299
20
-1.22765940753
30
0
40
1.39983709205
50
50.0075458999
51
99.0000210459
0
ARC
8
drawinglayer
10
-0.240589315859
20
-1.19061281375
30
0
40
1.39596095063
50
50.0075458999
51
99.0000210459
0
ARC
8
drawinglayer
10
-0.208518937038
20
-1.10552859746
30
0
40
1.38791100082
50
52.0128981828
51
100.999987526
0
ARC
8
drawinglayer
10
-0.185844480341
20
-1.08676587281
30
0
40
1.38650678931
50
52.9869264345
51
103.000011301
0
ARC
8
drawinglayer
10
-0.159436244673
20
-1.07525069139
30
0
40
1.385940575
50
54.0182504658
51
104.999977781
0
ARC
8
drawinglayer
10
-0.131099644822
20
-1.07177251774
30
0
40
1.3862544195
50
56.0236027487
51
107.000001556
0
ARC
8
drawinglayer
10
-0.102759809461
20
-1.07656107309
30
0
40
1.38742243875
50
56.9976310005
51
109.000025332
0
ARC
8
drawinglayer
10
-0.0763548093031
20
-1.08929604192
30
0
40
1.38936698048
50
59.0029832834
51
110.999991811
0
ARC
8
drawinglayer
10
-0.0536771170955
20
-1.10911030745
30
0
40
1.39195862429
50
59.9770115351
51
111.999975051
0
ARC
8
drawinglayer
10
-0.0362797778175
20
-1.13464819082
30
0
40
1.3950161816
50
61.0083355664
51
113.999998827
0
ARC
8
drawinglayer
10
-0.0253405172449
20
-1.16417222298
30
0
40
1.39833257973
50
61.9823638181
51
113.999998827
0
ARC
8
drawinglayer
10
-0.0216099737843
20
-1.19566991647
30
0
40
1.40168133297
50
61.9823638181
51
113.999998827
0
ARC
8
drawinglayer
10
-0.00694016975105
20
-1.135327648
30
0
40
1.39578299755
50
63.0136878493
51
114.999982067
0
ARC
8
drawinglayer
10
0.0104604050374
20
-1.1105921712
30
0
40
1.39363461867
50
65.0190401323
51
117.000005842
0
ARC
8
drawinglayer
10
0.0331348617345
20
-1.09182944654
30
0
40
1.39223040716
50
65.993068384
51
117.999989082
0
ARC
8
drawinglayer
10
0.0595398618922
20
-1.08031426512
30
0
40
1.39166419285
50
67.998420667
51
118.999972322
0
ARC
8
drawinglayer
10
0.0878796972533
20
-1.07682962045
30
0
40
1.39197480185
50
70.0037729499
51
120.999996097
0
ARC
8
drawinglayer
10
0.116216297104
20
-1.08162464682
30
0
40
1.3931460566
50
72.0091252329
51
123.000019873
0
ARC
8
drawinglayer
10
0.182699564258
20
-1.13970852905
30
0
40
1.40073656394
50
76.9938580505
51
126.000026888
0
ARC
8
drawinglayer
10
0.19363882483
20
-1.16923256121
30
0
40
1.40405296207
50
78.0251820818
51
127.000010128
0
ARC
8
drawinglayer
10
-0.358908694706
20
-0.257090418764
30
0
40
0.655653528607
50
30.0113188498
51
150.000025715
0
ARC
8
drawinglayer
10
0.320318762482
20
-0.238097972872
30
0
40
0.669812122001
50
30.0113188498
51
150.000025715
0
ARC
8
drawinglayer
10
0.412026068507
20
-0.240213996656
30
0
40
0.672206399678
50
30.0113188498
51
150.000025715
0
ARC
8
drawinglayer
10
0.265318321644
20
-1.06233453398
30
0
40
0.753851268441
50
30.0113188498
51
150.000025715
0
ARC
8
drawinglayer
10
0.354492223046
20
-1.06439555409
30
0
40
0.75618083591
50
30.0113188498
51
150.000025715
0
ARC
8
drawinglayer
10
0.35218530415
20
-1.14144599812
30
0
40
0.843293717205
50
89.0259717483
51
150.000025715
0
ARC
8
drawinglayer
10
0.244559287088
20
-1.75579176579
30
0
40
1.53786720009
50
83.0099148994
51
126.000026888
0
ARC
8
drawinglayer
10
0.33373318849
20
-1.75785602141
30
0
40
1.54020000307
50
89.0259717483
51
130.000017143
0
ARC
8
drawinglayer
10
-0.361212378092
20
-1.12496107277
30
0
40
0.824653941944
50
30.0113188498
51
87.9999762245
0
ARC
8
drawinglayer
10
-0.358908694706
20
-1.04791062873
30
0
40
0.737541060649
50
30.0113188498
51
150.000025715
0
ARC
8
drawinglayer
10
-0.379667729262
20
-1.64251654761
30
0
40
1.51132307299
50
47.0281653652
51
87.9999762245
0
ARC
8
drawinglayer
10
-0.379667729262
20
-1.74136786054
30
0
40
1.5215569923
50
47.0281653652
51
87.9999762245
0
ARC
8
drawinglayer
10
0.416918160192
20
-1.77113779149
30
0
40
1.49337893246
50
30.0113188498
51
90.0
0
ARC
8
drawinglayer
10
0.417529671652
20
-1.85178612306
30
0
40
1.58455885029
50
30.0113188498
51
90.0
0
ARC
8
drawinglayer
10
0.417529671652
20
-1.75337483954
30
0
40
1.57437022813
50
30.0113188498
51
90.0
0
ARC
8
drawinglayer
10
0.416918160192
20
-0.885416826757
30
0
40
1.40166515541
50
30.0113188498
51
150.000025715
0
ARC
8
drawinglayer
10
0.417529671652
20
-0.966068393836
30
0
40
1.49284830876
50
30.0113188498
51
150.000025715
0
ARC
8
drawinglayer
10
0.412026068507
20
-1.02752044236
30
0
40
0.753728319047
50
30.0113188498
51
150.000025715
0
ARC
8
drawinglayer
10
0.412026068507
20
-1.12593496139
30
0
40
0.763920176724
50
30.0113188498
51
150.000025715
0
ARC
8
drawinglayer
10
-0.4127411163
20
-1.18750995931
30
0
40
0.833535417919
50
90.9740282517
51
150.000025715
0
ARC
8
drawinglayer
10
-0.41335262776
20
-1.10685839223
30
0
40
0.742352264574
50
30.0113188498
51
150.000025715
0
ARC
8
drawinglayer
10
-0.41335262776
20
-1.0084438732
30
0
40
0.732160406898
50
30.0113188498
51
150.000025715
0
ARC
8
drawinglayer
10
-0.4127411163
20
-0.301788994573
30
0
40
0.741821640873
50
30.0113188498
51
150.000025715
0
ARC
8
drawinglayer
10
-0.41335262776
20
-0.221137427494
30
0
40
0.650638487528
50
30.0113188498
51
150.000025715
0
ARC
8
drawinglayer
10
-0.407852260125
20
-1.73429827038
30
0
40
1.55280231598
50
90.9740282517
51
150.000025715
0
ARC
8
drawinglayer
10
-0.407852260125
20
-1.83271278941
30
0
40
1.56299417365
50
90.9740282517
51
150.000025715
0
ARC
8
drawinglayer
10
-0.269731557793
20
-0.259148203362
30
0
40
0.657983096076
50
30.0113188498
51
150.000025715
0
ARC
8
drawinglayer
10
0.354492223046
20
-0.273578579627
30
0
40
0.674296539379
50
30.0113188498
51
150.000025715
0
ARC
8
drawinglayer
10
-0.358908694706
20
-0.949056080292
30
0
40
0.727303905827
50
30.0113188498
51
150.000025715
0
ARC
8
drawinglayer
10
-0.31614171859
20
-0.949111083969
30
0
40
1.4736779098
50
30.0113188498
51
150.000025715
0
ARC
8
drawinglayer
10
-0.407852260125
20
-0.946991824674
30
0
40
1.47128039661
50
30.0113188498
51
150.000025715
0
ARC
8
drawinglayer
10
0.320318762482
20
-1.12381570209
30
0
40
0.761522663537
50
30.0113188498
51
150.000025715
0
ARC
8
drawinglayer
10
0.354492223046
20
-0.372429892557
30
0
40
0.68453045869
50
30.0113188498
51
150.000025715
0
ARC
8
drawinglayer
10
-0.321645321735
20
-0.223259922299
30
0
40
0.653036000715
50
30.0113188498
51
150.000025715
0
ARC
8
drawinglayer
10
-0.2299347802
20
-0.225379181594
30
0
40
0.655433513902
50
30.0113188498
51
150.000025715
0
ARC
8
drawinglayer
10
-0.138227474175
20
-0.227498440888
30
0
40
0.657827791578
50
30.0113188498
51
150.000025715
0
ARC
8
drawinglayer
10
-0.0465169326391
20
-0.229617700183
30
0
40
0.660225304765
50
30.0113188498
51
150.000025715
0
ARC
8
drawinglayer
10
0.045190373386
20
-0.231740194988
30
0
40
0.662622817952
50
30.0113188498
51
150.000025715
0
ARC
8
drawinglayer
10
0.136900914921
20
-0.233856218772
30
0
40
0.665017095628
50
30.0113188498
51
150.000025715
0
ARC
8
drawinglayer
10
0.228608220947
20
-0.235978713577
30
0
40
0.667414608815
50
30.0113188498
51
150.000025715
0
ARC
8
drawinglayer
10
-0.269731557793
20
-1.04996841333
30
0
40
0.739870628118
50
30.0113188498
51
150.000025715
0
ARC
8
drawinglayer
10
-0.18055765639
20
-1.05202943344
30
0
40
0.742200195587
50
30.0113188498
51
150.000025715
0
ARC
8
drawinglayer
10
-0.0913837549877
20
-1.05409045355
30
0
40
0.744529763055
50
30.0113188498
51
150.000025715
0
ARC
8
drawinglayer
10
-0.00220661807469
20
-1.05615470916
30
0
40
0.746862566035
50
30.0113188498
51
150.000025715
0
ARC
8
drawinglayer
10
0.086967283328
20
-1.05821572927
30
0
40
0.749192133504
50
30.0113188498
51
150.000025715
0
ARC
8
drawinglayer
10
0.176141184731
20
-1.06027674938
30
0
40
0.751521700973
50
30.0113188498
51
150.000025715
0
ARC
8
drawinglayer
10
0.336040107387
20
-1.68080557737
30
0
40
1.45308712178
50
89.0259717483
51
133.000024158
0
ARC
8
drawinglayer
10
0.338347026283
20
-1.60375513334
30
0
40
1.36597424048
50
89.0259717483
51
137.000014413
0
ARC
8
drawinglayer
10
0.340653945179
20
-1.52670468931
30
0
40
1.27886135919
50
89.0259717483
51
141.000004669
0
ARC
8
drawinglayer
10
0.342960864075
20
-1.44965100976
30
0
40
1.19174524238
50
89.0259717483
51
145.999978164
0
ARC
8
drawinglayer
10
0.345264547461
20
-1.37260056573
30
0
40
1.10463236109
50
89.0259717483
51
150.000025715
0
ARC
8
drawinglayer
10
0.347571466358
20
-1.2955501217
30
0
40
1.01751947979
50
89.0259717483
51
150.000025715
0
ARC
8
drawinglayer
10
0.349878385254
20
-1.21849644215
30
0
40
0.9304065985
50
89.0259717483
51
150.000025715
0
ARC
8
drawinglayer
10
-0.290490592349
20
-1.74342564514
30
0
40
1.52388655977
50
50.9815741516
51
93.9999902551
0
ARC
8
drawinglayer
10
-0.201316690946
20
-1.74548990076
30
0
40
1.52621936275
50
54.9922787175
51
100.999987526
0
ARC
8
drawinglayer
10
-0.112142789544
20
-1.74755092087
30
0
40
1.52854893022
50
59.9770115351
51
107.000001556
0
ARC
8
drawinglayer
10
-0.0229656526308
20
-1.74961194097
30
0
40
1.53087849769
50
65.0190401323
51
111.999975051
0
ARC
8
drawinglayer
10
0.0662082487719
20
-1.75167296108
30
0
40
1.53320806516
50
70.0037729499
51
117.000005842
0
ARC
8
drawinglayer
10
0.155382150175
20
-1.75373398119
30
0
40
1.53553763263
50
76.0198297988
51
121.999979337
0
ARC
8
drawinglayer
10
-0.377360810366
20
-1.66431741651
30
0
40
1.43444411101
50
43.991489051
51
87.9999762245
0
ARC
8
drawinglayer
10
-0.37505389147
20
-1.58726373697
30
0
40
1.34733122971
50
39.9807844851
51
87.9999762245
0
ARC
8
drawinglayer
10
-0.372746972573
20
-1.51021329293
30
0
40
1.26021834842
50
36.0273756987
51
87.9999762245
0
ARC
8
drawinglayer
10
-0.370440053677
20
-1.4331628489
30
0
40
1.17310546712
50
30.0113188498
51
87.9999762245
0
ARC
8
drawinglayer
10
-0.368133134781
20
-1.35611240487
30
0
40
1.08599258583
50
30.0113188498
51
87.9999762245
0
ARC
8
drawinglayer
10
-0.365826215885
20
-1.27906196083
30
0
40
0.998879704533
50
30.0113188498
51
87.9999762245
0
ARC
8
drawinglayer
10
-0.363519296988
20
-1.2020115168
30
0
40
0.911766823238
50
30.0113188498
51
87.9999762245
0
ARC
8
drawinglayer
10
0.33373318849
20
-1.65900147297
30
0
40
1.52996284825
50
89.0259717483
51
130.000017143
0
ARC
8
drawinglayer
10
0.33373318849
20
-1.56015016004
30
0
40
1.51972569343
50
89.0259717483
51
130.000017143
0
ARC
8
drawinglayer
10
0.33373318849
20
-1.46129884711
30
0
40
1.50949177412
50
89.0259717483
51
130.000017143
0
ARC
8
drawinglayer
10
0.33373318849
20
-1.36244429867
30
0
40
1.4992546193
50
89.0259717483
51
130.000017143
0
ARC
8
drawinglayer
10
0.33373318849
20
-1.26359298574
30
0
40
1.48902069999
50
89.0259717483
51
130.000017143
0
ARC
8
drawinglayer
10
0.33373318849
20
-1.16474167281
30
0
40
1.47878354516
50
89.0259717483
51
130.000017143
0
ARC
8
drawinglayer
10
-0.379667729262
20
-1.0493989635
30
0
40
1.44990661508
50
47.0281653652
51
48.9999996171
0
ARC
8
drawinglayer
10
-0.379667729262
20
-1.14825351194
30
0
40
1.4601437699
50
47.0281653652
51
87.9999762245
0
ARC
8
drawinglayer
10
-0.379667729262
20
-1.24710482487
30
0
40
1.47037768921
50
47.0281653652
51
87.9999762245
0
ARC
8
drawinglayer
10
-0.379667729262
20
-1.34595937331
30
0
40
1.48061484404
50
47.0281653652
51
87.9999762245
0
ARC
8
drawinglayer
10
-0.379667729262
20
-1.44480745073
30
0
40
1.49084876335
50
47.0281653652
51
87.9999762245
0
ARC
8
drawinglayer
10
-0.379667729262
20
-1.54366199917
30
0
40
1.50108591817
50
47.0281653652
51
87.9999762245
0
ARC
8
drawinglayer
10
0.412637579968
20
-1.20658652847
30
0
40
0.855103330068
50
30.0113188498
51
90.0
0
ARC
8
drawinglayer
10
0.413249091428
20
-1.28723486004
30
0
40
0.946283247902
50
30.0113188498
51
90.0
0
ARC
8
drawinglayer
10
0.413860602889
20
-1.36788642711
30
0
40
1.03746640125
50
30.0113188498
51
90.0
0
ARC
8
drawinglayer
10
0.414472114349
20
-1.44853799419
30
0
40
1.12864955459
50
30.0113188498
51
90.0
0
ARC
8
drawinglayer
10
0.41508362581
20
-1.52918309025
30
0
40
1.21982947243
50
30.0113188498
51
90.0
0
ARC
8
drawinglayer
10
0.415695137271
20
-1.60983465733
30
0
40
1.31101262577
50
30.0113188498
51
90.0
0
ARC
8
drawinglayer
10
0.416306648731
20
-1.69048622441
30
0
40
1.40219577911
50
30.0113188498
51
90.0
0
ARC
8
drawinglayer
10
0.417529671652
20
-1.06447967735
30
0
40
1.50303693092
50
30.0113188498
51
90.0
0
ARC
8
drawinglayer
10
0.417529671652
20
-1.16289419638
30
0
40
1.5132287886
50
30.0113188498
51
90.0
0
ARC
8
drawinglayer
10
0.417529671652
20
-1.2613054799
30
0
40
1.52341741077
50
30.0113188498
51
90.0
0
ARC
8
drawinglayer
10
0.417529671652
20
-1.35971999893
30
0
40
1.53360926844
50
30.0113188498
51
90.0
0
ARC
8
drawinglayer
10
0.417529671652
20
-1.45813128245
30
0
40
1.54379789061
50
30.0113188498
51
90.0
0
ARC
8
drawinglayer
10
0.417529671652
20
-1.55654903699
30
0
40
1.55398974829
50
30.0113188498
51
90.0
0
ARC
8
drawinglayer
10
0.417529671652
20
-1.65496032051
30
0
40
1.56417837045
50
30.0113188498
51
90.0
0
ARC
8
drawinglayer
10
0.412637579968
20
-0.320865563735
30
0
40
0.763389553022
50
30.0113188498
51
150.000025715
0
ARC
8
drawinglayer
10
0.413249091428
20
-0.401517130814
30
0
40
0.854572706367
50
30.0113188498
51
150.000025715
0
ARC
8
drawinglayer
10
0.413860602889
20
-0.482165462383
30
0
40
0.945752624201
50
30.0113188498
51
150.000025715
0
ARC
8
drawinglayer
10
0.414472114349
20
-0.562817029462
30
0
40
1.03693577755
50
30.0113188498
51
150.000025715
0
ARC
8
drawinglayer
10
0.41508362581
20
-0.643468596541
30
0
40
1.12811893089
50
30.0113188498
51
150.000025715
0
ARC
8
drawinglayer
10
0.415695137271
20
-0.724116928109
30
0
40
1.21930208423
50
30.0113188498
51
150.000025715
0
ARC
8
drawinglayer
10
0.416306648731
20
-0.804765259678
30
0
40
1.31048200207
50
30.0113188498
51
150.000025715
0
ARC
8
drawinglayer
10
0.412026068507
20
-0.338631751196
30
0
40
0.682398257354
50
30.0113188498
51
150.000025715
0
ARC
8
drawinglayer
10
0.412026068507
20
-0.437043034715
30
0
40
0.69258687952
50
30.0113188498
51
150.000025715
0
ARC
8
drawinglayer
10
0.412026068507
20
-0.535457553744
30
0
40
0.702778737196
50
30.0113188498
51
150.000025715
0
ARC
8
drawinglayer
10
0.412026068507
20
-0.633868837263
30
0
40
0.712967359362
50
30.0113188498
51
150.000025715
0
ARC
8
drawinglayer
10
0.412026068507
20
-0.732283356292
30
0
40
0.723159217039
50
30.0113188498
51
150.000025715
0
ARC
8
drawinglayer
10
0.412026068507
20
-0.830694639811
30
0
40
0.733347839205
50
30.0113188498
51
150.000025715
0
ARC
8
drawinglayer
10
0.412026068507
20
-0.92910915884
30
0
40
0.743539696881
50
30.0113188498
51
150.000025715
0
ARC
8
drawinglayer
10
-0.408463771586
20
-1.75206122233
30
0
40
1.47181102031
50
90.9740282517
51
150.000025715
0
ARC
8
drawinglayer
10
-0.409075283046
20
-1.67140965525
30
0
40
1.38062786697
50
90.9740282517
51
150.000025715
0
ARC
8
drawinglayer
10
-0.409686794507
20
-1.59075808817
30
0
40
1.28944471362
50
90.9740282517
51
150.000025715
0
ARC
8
drawinglayer
10
-0.410298305968
20
-1.5101097566
30
0
40
1.19826479579
50
90.9740282517
51
150.000025715
0
ARC
8
drawinglayer
10
-0.410909817428
20
-1.42946142503
30
0
40
1.10708164244
50
90.9740282517
51
150.000025715
0
ARC
8
drawinglayer
10
-0.411521328889
20
-1.34880985795
30
0
40
1.0158984891
50
90.9740282517
51
150.000025715
0
ARC
8
drawinglayer
10
-0.412129604839
20
-1.26815829087
30
0
40
0.924715335753
50
90.9740282517
51
150.000025715
0
ARC
8
drawinglayer
10
-0.41335262776
20
-0.319551946523
30
0
40
0.660830345205
50
30.0113188498
51
150.000025715
0
ARC
8
drawinglayer
10
-0.41335262776
20
-0.417966465553
30
0
40
0.671018967371
50
30.0113188498
51
150.000025715
0
ARC
8
drawinglayer
10
-0.41335262776
20
-0.516380984582
30
0
40
0.681210825047
50
30.0113188498
51
150.000025715
0
ARC
8
drawinglayer
10
-0.41335262776
20
-0.614792268101
30
0
40
0.691399447213
50
30.0113188498
51
150.000025715
0
ARC
8
drawinglayer
10
-0.41335262776
20
-0.71320678713
30
0
40
0.701591304889
50
30.0113188498
51
150.000025715
0
ARC
8
drawinglayer
10
-0.41335262776
20
-0.811618070649
30
0
40
0.711779927055
50
30.0113188498
51
150.000025715
0
ARC
8
drawinglayer
10
-0.41335262776
20
-0.910032589678
30
0
40
0.721971784732
50
30.0113188498
51
150.000025715
0
ARC
8
drawinglayer
10
-0.408463771586
20
-0.866340257595
30
0
40
1.38009724326
50
30.0113188498
51
150.000025715
0
ARC
8
drawinglayer
10
-0.409075283046
20
-0.785688690516
30
0
40
1.28891408992
50
30.0113188498
51
150.000025715
0
ARC
8
drawinglayer
10
-0.409686794507
20
-0.705040358948
30
0
40
1.19773417209
50
30.0113188498
51
150.000025715
0
ARC
8
drawinglayer
10
-0.410298305968
20
-0.624392027379
30
0
40
1.10655101874
50
30.0113188498
51
150.000025715
0
ARC
8
drawinglayer
10
-0.410909817428
20
-0.5437404603
30
0
40
1.0153678654
50
30.0113188498
51
150.000025715
0
ARC
8
drawinglayer
10
-0.411521328889
20
-0.463092128731
30
0
40
0.924187947562
50
30.0113188498
51
150.000025715
0
ARC
8
drawinglayer
10
-0.412129604839
20
-0.382440561652
30
0
40
0.833004794217
50
30.0113188498
51
150.000025715
0
ARC
8
drawinglayer
10
-0.407852260125
20
-1.04540310819
30
0
40
1.48146901877
50
90.9740282517
51
150.000025715
0
ARC
8
drawinglayer
10
-0.407852260125
20
-1.14381762722
30
0
40
1.49166087645
50
90.9740282517
51
150.000025715
0
ARC
8
drawinglayer
10
-0.407852260125
20
-1.24223214625
30
0
40
1.50185273413
50
90.9740282517
51
150.000025715
0
ARC
8
drawinglayer
10
-0.407852260125
20
-1.34064342977
30
0
40
1.51204135629
50
90.9740282517
51
150.000025715
0
ARC
8
drawinglayer
10
-0.407852260125
20
-1.4390579488
30
0
40
1.52223321397
50
90.9740282517
51
150.000025715
0
ARC
8
drawinglayer
10
-0.407852260125
20
-1.53746923232
30
0
40
1.53242183614
50
90.9740282517
51
150.000025715
0
ARC
8
drawinglayer
10
-0.407852260125
20
-1.63588698686
30
0
40
1.54261369381
50
90.9740282517
51
150.000025715
0
ARC
8
drawinglayer
10
0.265318321644
20
-0.271517559519
30
0
40
0.67196697191
50
30.0113188498
51
150.000025715
0
ARC
8
drawinglayer
10
0.176141184731
20
-0.269453303901
30
0
40
0.669634168931
50
30.0113188498
51
150.000025715
0
ARC
8
drawinglayer
10
0.086967283328
20
-0.267395519303
30
0
40
0.667304601462
50
30.0113188498
51
150.000025715
0
ARC
8
drawinglayer
10
-0.00220661807469
20
-0.265334499196
30
0
40
0.664975033993
50
30.0113188498
51
150.000025715
0
ARC
8
drawinglayer
10
-0.0913837549877
20
-0.263273479088
30
0
40
0.662645466524
50
30.0113188498
51
150.000025715
0
ARC
8
drawinglayer
10
-0.18055765639
20
-0.26121245898
30
0
40
0.660315899055
50
30.0113188498
51
150.000025715
0
ARC
8
drawinglayer
10
-0.358908694706
20
-0.355941731694
30
0
40
0.665890683429
50
30.0113188498
51
150.000025715
0
ARC
8
drawinglayer
10
-0.358908694706
20
-0.454793044623
30
0
40
0.67612460274
50
30.0113188498
51
150.000025715
0
ARC
8
drawinglayer
10
-0.358908694706
20
-0.553647593063
30
0
40
0.686361757562
50
30.0113188498
51
150.000025715
0
ARC
8
drawinglayer
10
-0.358908694706
20
-0.652502141503
30
0
40
0.696598912383
50
30.0113188498
51
150.000025715
0
ARC
8
drawinglayer
10
-0.358908694706
20
-0.751350218923
30
0
40
0.706832831694
50
30.0113188498
51
150.000025715
0
ARC
8
drawinglayer
10
-0.358908694706
20
-0.850204767363
30
0
40
0.717069986516
50
30.0113188498
51
150.000025715
0
ARC
8
drawinglayer
10
0.325819130117
20
-0.963949134541
30
0
40
1.49045079557
50
30.0113188498
51
150.000025715
0
ARC
8
drawinglayer
10
0.234111824092
20
-0.961826639736
30
0
40
1.48805328238
50
30.0113188498
51
150.000025715
0
ARC
8
drawinglayer
10
0.142401282556
20
-0.959710615952
30
0
40
1.48565900471
50
30.0113188498
51
150.000025715
0
ARC
8
drawinglayer
10
0.0506939765312
20
-0.957588121147
30
0
40
1.48326149152
50
30.0113188498
51
150.000025715
0
ARC
8
drawinglayer
10
-0.0410165650042
20
-0.955472097363
30
0
40
1.48086721385
50
30.0113188498
51
150.000025715
0
ARC
8
drawinglayer
10
-0.132723871029
20
-0.953349602558
30
0
40
1.47846970066
50
30.0113188498
51
150.000025715
0
ARC
8
drawinglayer
10
-0.224434412565
20
-0.951230343263
30
0
40
1.47607218747
50
30.0113188498
51
150.000025715
0
ARC
8
drawinglayer
10
-0.321645321735
20
-1.10898088703
30
0
40
0.744749777761
50
30.0113188498
51
150.000025715
0
ARC
8
drawinglayer
10
-0.2299347802
20
-1.11109691082
30
0
40
0.747144055437
50
30.0113188498
51
150.000025715
0
ARC
8
drawinglayer
10
-0.138227474175
20
-1.11321940562
30
0
40
0.749541568624
50
30.0113188498
51
150.000025715
0
ARC
8
drawinglayer
10
-0.0465169326391
20
-1.11533866492
30
0
40
0.751939081811
50
30.0113188498
51
150.000025715
0
ARC
8
drawinglayer
10
0.045190373386
20
-1.1174546887
30
0
40
0.754333359487
50
30.0113188498
51
150.000025715
0
ARC
8
drawinglayer
10
0.136900914921
20
-1.1195771835
30
0
40
0.756730872674
50
30.0113188498
51
150.000025715
0
ARC
8
drawinglayer
10
0.228608220947
20
-1.12169320729
30
0
40
0.75912515035
50
30.0113188498
51
150.000025715
0
ARC
8
drawinglayer
10
0.354492223046
20
-0.965544241156
30
0
40
0.745946916599
50
30.0113188498
51
150.000025715
0
ARC
8
drawinglayer
10
0.354492223046
20
-0.866692928226
30
0
40
0.735709761777
50
30.0113188498
51
150.000025715
0
ARC
8
drawinglayer
10
0.354492223046
20
-0.767841615296
30
0
40
0.725475842466
50
30.0113188498
51
150.000025715
0
ARC
8
drawinglayer
10
0.354492223046
20
-0.668987066856
30
0
40
0.715238687645
50
30.0113188498
51
150.000025715
0
ARC
8
drawinglayer
10
0.354492223046
20
-0.570132518416
30
0
40
0.705001532823
50
30.0113188498
51
150.000025715
0
ARC
8
drawinglayer
10
0.354492223046
20
-0.471284440997
30
0
40
0.694767613512
50
30.0113188498
51
150.000025715
0
ENDSEC
0
EOF
