0
SECTION
2
HEADER
9
$ACADVER
1
AC1006
9
$INSBASE
10
0.0
20
0.0
30
0.0
9
$EXTMIN
10
0.0
20
0.0
9
$EXTMAX
10
0.0
20
0.0
0
ENDSEC
0
SECTION
2
TABLES
0
TABLE
2
LTYPE
70
1
0
LTYPE
2
CONTINUOUS
70
64
3
Solid line
72
65
73
0
40
0.0
0
ENDTAB
0
TABLE
2
LAYER
70
1
0
LAYER
2
PYDXF
70
64
62
7
6
continuous
0
ENDTAB
0
TABLE
2
STYLE
70
1
0
STYLE
2
STANDARD
70
0
40
0
41
40
50
50
71
0
42
1
3
ARIAL.TTF
4

0
ENDTAB
0
TABLE
2
VIEW
70
0
0
ENDTAB
0
ENDSEC
0
SECTION
2
BLOCKS
0
ENDSEC
0
SECTION
2
ENTITIES
0
ARC
8
drawinglayer
10
-0.000189945207283
20
-0.968582415175
30
0
40
1.27219256127
50
63.873124542
51
116.280829218
0
ARC
8
drawinglayer
10
0.0412785470918
20
-0.952061499078
30
0
40
1.27214075803
50
65.8211810455
51
118.259825442
0
ARC
8
drawinglayer
10
0.0808260026355
20
-0.931353154547
30
0
40
1.2721019056
50
67.8265333284
51
120.221976707
0
ARC
8
drawinglayer
10
0.118016410834
20
-0.906677545347
30
0
40
1.27207168705
50
69.7745898319
51
122.164761999
0
ARC
8
drawinglayer
10
0.211663714961
20
-0.811696307832
30
0
40
1.27206737011
50
74.70202687
51
125.291736462
0
ARC
8
drawinglayer
10
0.23578243935
20
-0.774182129394
30
0
40
1.27209327173
50
76.5927875939
51
126.28644849
0
ARC
8
drawinglayer
10
0.1524612474
20
-0.878302321541
30
0
40
1.27205873624
50
71.7226463353
51
123.229718653
0
ARC
8
drawinglayer
10
0.255890729703
20
-0.734384291531
30
0
40
1.27212780722
50
77.5668158457
51
127.255835783
0
ARC
8
drawinglayer
10
0.271768422257
20
-0.692738804835
30
0
40
1.27217961046
50
78.5408440974
51
128.199554568
0
ARC
8
drawinglayer
10
0.183789255793
20
-0.846529668686
30
0
40
1.27205873624
50
73.6707028388
51
124.27250184
0
ARC
8
drawinglayer
10
0.283251473424
20
-0.649681679893
30
0
40
1.27224004757
50
79.4575765696
51
128.263897728
0
ARC
8
drawinglayer
10
0.290210375109
20
-0.605679145851
30
0
40
1.27230911856
50
79.5148723491
51
128.302744267
0
ARC
8
drawinglayer
10
0.292576056327
20
-0.561201748791
30
0
40
1.27239114035
50
79.5148723491
51
128.315635817
0
ARC
8
drawinglayer
10
0.249903138737
20
-0.458104670602
30
0
40
1.27267605816
50
77.5095200661
51
127.219281076
0
ARC
8
drawinglayer
10
0.21966299835
20
-0.434944306123
30
0
40
1.27277966464
50
75.6187593422
51
126.190248876
0
ARC
8
drawinglayer
10
-0.0416195850776
20
-0.952126253126
30
0
40
1.27230480162
50
61.8677722591
51
114.297650401
0
ARC
8
drawinglayer
10
-0.272290771577
20
-0.488720384466
30
0
40
1.27366463663
50
51.9556024033
51
101.618552761
0
ARC
8
drawinglayer
10
-0.286933820284
20
-0.523907734116
30
0
40
1.2736257842
50
51.8410108443
51
100.664979103
0
ARC
8
drawinglayer
10
-0.11824520847
20
-0.906863173617
30
0
40
1.27254655007
50
58.8310959449
51
110.363091926
0
ARC
8
drawinglayer
10
-0.152620974052
20
-0.878544069986
30
0
40
1.27267174123
50
56.940335221
51
108.419561789
0
ARC
8
drawinglayer
10
-0.183871277587
20
-0.846818903433
30
0
40
1.27279693238
50
55.8517154102
51
106.496830021
0
ARC
8
drawinglayer
10
-0.211659398025
20
-0.812028711945
30
0
40
1.27291780661
50
54.8776871585
51
105.451411228
0
ARC
8
drawinglayer
10
-0.0811109204464
20
-0.931482662643
30
0
40
1.27242567584
50
59.9197157556
51
112.323753501
0
ARC
8
drawinglayer
10
-0.235687466746
20
-0.774553385935
30
0
40
1.27303868083
50
53.8463631272
51
103.578584083
0
ARC
8
drawinglayer
10
-0.255696467559
20
-0.734790083565
30
0
40
1.27315523812
50
52.8723348755
51
102.586851435
0
ARC
8
drawinglayer
10
-0.271474870573
20
-0.693166181551
30
0
40
1.27326747847
50
51.9556024033
51
101.624798001
0
ARC
8
drawinglayer
10
-0.282849998327
20
-0.650126324355
30
0
40
1.27337540188
50
51.8983066238
51
101.545042276
0
ARC
8
drawinglayer
10
-0.289705293535
20
-0.606136741123
30
0
40
1.27347469142
50
51.8410108443
51
100.645785017
0
ARC
8
drawinglayer
10
-0.291958734404
20
-0.561663661
30
0
40
1.27356534709
50
51.8410108443
51
100.62985679
0
ARC
8
drawinglayer
10
-0.249031117558
20
-0.458497511826
30
0
40
1.27367758744
50
52.929630655
51
103.484733596
0
ARC
8
drawinglayer
10
-0.218739173933
20
-0.435293977981
30
0
40
1.27366031969
50
53.9609546863
51
104.547799489
0
ARC
8
drawinglayer
10
-0.183474119426
20
-0.42069409864
30
0
40
1.27361715033
50
55.8517154102
51
106.497861345
0
ARC
8
drawinglayer
10
-0.145649121557
20
-0.415695086139
30
0
40
1.27355239628
50
56.940335221
51
108.465054638
0
ARC
8
drawinglayer
10
-0.107832757562
20
-0.420633661528
30
0
40
1.27346605755
50
58.8883917244
51
111.286528005
0
ARC
8
drawinglayer
10
-0.0726022385474
20
-0.435177420695
30
0
40
1.27336676801
50
60.8364482278
51
112.377726126
0
ARC
8
drawinglayer
10
-0.0423664150972
20
-0.458333468238
30
0
40
1.27326316153
50
61.8677722591
51
114.289915471
0
ARC
8
drawinglayer
10
-0.0191801489991
20
-0.488521805386
30
0
40
1.27315523812
50
62.8990962903
51
115.298149303
0
ARC
8
drawinglayer
10
-0.00462343902273
20
-0.523687570353
30
0
40
1.27306026551
50
63.8158287625
51
116.249488426
0
ARC
8
drawinglayer
10
0.00030650249357
20
-0.561434863364
30
0
40
1.27297824372
50
63.873124542
51
116.281574063
0
ARC
8
drawinglayer
10
0.0199744653204
20
-0.48849158683
30
0
40
1.27307753326
50
64.8471527938
51
117.264253977
0
ARC
8
drawinglayer
10
0.0432384362761
20
-0.458264397253
30
0
40
1.27309048407
50
65.878476825
51
118.268992767
0
ARC
8
drawinglayer
10
0.0735303799012
20
-0.435060863409
30
0
40
1.27307321632
50
67.7692375489
51
120.173103407
0
ARC
8
drawinglayer
10
0.108791117471
20
-0.420460984067
30
0
40
1.27303004696
50
69.7172940524
51
121.248029527
0
ARC
8
drawinglayer
10
0.146620432276
20
-0.415466288503
30
0
40
1.27296529291
50
71.6653505558
51
123.190986706
0
ARC
8
drawinglayer
10
0.184436796272
20
-0.420404863892
30
0
40
1.27287895418
50
73.6707028388
51
124.273017502
0
ARC
8
drawinglayer
10
0.273089404835
20
-0.48829300775
30
0
40
1.27257245169
50
78.5408440974
51
128.20522685
0
ARC
8
drawinglayer
10
0.287646114811
20
-0.52345445578
30
0
40
1.27247316215
50
79.5148723491
51
128.287560885
0
ARC
8
drawinglayer
10
-0.476007006388
20
0.638626005441
30
0
40
0.444527905217
50
32.0166711328
51
90.0136936913
0
ARC
8
drawinglayer
10
-0.476244437897
20
0.75589126932
30
0
40
0.327487122039
50
31.2718259991
51
145.480190852
0
ARC
8
drawinglayer
10
0.430368353402
20
0.798296536846
30
0
40
0.325747396617
50
35.282530565
51
149.480754065
0
ARC
8
drawinglayer
10
0.55277077175
20
0.798395826386
30
0
40
0.325501331235
50
35.9127841397
51
149.957856021
0
ARC
8
drawinglayer
10
0.355745788559
20
-0.193782963858
30
0
40
0.323977452641
50
34.9387558879
51
149.196051336
0
ARC
8
drawinglayer
10
0.474768045604
20
-0.19369230819
30
0
40
0.323740021131
50
35.5117136831
51
149.66816856
0
ARC
8
drawinglayer
10
-0.477405693823
20
-0.194443455146
30
0
40
0.325652424014
50
31.2718259991
51
145.487582007
0
ARC
8
drawinglayer
10
0.477893507651
20
-0.41756000272
30
0
40
1.37872592094
50
90.9740282517
51
132.206993274
0
ARC
8
drawinglayer
10
0.478040283493
20
-0.29876654331
30
0
40
1.37895471857
50
90.9740282517
51
132.206706795
0
ARC
8
drawinglayer
10
-0.355106881952
20
-0.299422717663
30
0
40
1.38062537301
50
51.9556024033
51
95.8615874273
0
ARC
8
drawinglayer
10
-0.474129138998
20
-0.299522007203
30
0
40
1.38086712146
50
48.8043345301
51
90.025210143
0
ARC
8
drawinglayer
10
-0.475147936019
20
-1.1310675892
30
0
40
1.37926122107
50
48.8043345301
51
90.0181054663
0
ARC
8
drawinglayer
10
0.58571763134
20
-1.24707662454
30
0
40
1.30260969606
50
42.4445030041
51
144.045103462
0
ARC
8
drawinglayer
10
0.58999571544
20
-1.36971215746
30
0
40
1.42500348053
50
43.1893481378
51
143.364257714
0
ARC
8
drawinglayer
10
0.590142491282
20
-1.25144536431
30
0
40
1.42523227817
50
43.1893481378
51
91.6058861082
0
ARC
8
drawinglayer
10
0.587017029235
20
-0.182697070851
30
0
40
1.30466455784
50
42.4445030041
51
91.6077195731
0
ARC
8
drawinglayer
10
0.591299430272
20
-0.305332603771
30
0
40
1.42705834232
50
43.1893481378
51
91.6135637426
0
ARC
8
drawinglayer
10
0.55161383276
20
-0.147721251091
30
0
40
0.323675267083
50
35.9127841397
51
149.965533655
0
ARC
8
drawinglayer
10
0.551467056918
20
-0.265983727308
30
0
40
0.323446469447
50
35.9127841397
51
149.966507684
0
ARC
8
drawinglayer
10
-0.545880941049
20
-0.389486964471
30
0
40
0.448050525425
50
31.7874880147
51
144.281162074
0
ARC
8
drawinglayer
10
-0.550163342086
20
-0.26685143155
30
0
40
0.32565674095
50
30.9853471015
51
145.127420737
0
ARC
8
drawinglayer
10
-0.550016566244
20
-0.148588955334
30
0
40
0.325885538586
50
30.9853471015
51
145.126504005
0
ARC
8
drawinglayer
10
-0.544581543154
20
0.674888272286
30
0
40
0.45010970415
50
92.34912696
51
144.273312552
0
ARC
8
drawinglayer
10
-0.548859627254
20
0.797523805207
30
0
40
0.327711602738
50
30.9853471015
51
145.119170145
0
ARC
8
drawinglayer
10
-0.511487907721
20
-1.25231738549
30
0
40
1.42744254967
50
92.4064227395
51
138.164551132
0
ARC
8
drawinglayer
10
-0.511634683563
20
-1.37057986171
30
0
40
1.42721375203
50
37.8035448636
51
138.16512409
0
ARC
8
drawinglayer
10
-0.357222180852
20
0.755986241923
30
0
40
0.32724969053
50
31.7301922352
51
146.05704476
0
ARC
8
drawinglayer
10
0.476162416103
20
0.639372835461
30
0
40
0.442619819271
50
90.9740282517
51
148.888029226
0
ARC
8
drawinglayer
10
0.47592930153
20
0.756646733212
30
0
40
0.325574719156
50
35.5117136831
51
149.660490925
0
ARC
8
drawinglayer
10
-0.477258917981
20
-0.075649995737
30
0
40
0.32588122165
50
31.2718259991
51
145.486665275
0
ARC
8
drawinglayer
10
-0.510330968731
20
-0.306200308013
30
0
40
1.42926861382
50
92.4064227395
51
138.159910174
0
ARC
8
drawinglayer
10
0.42906463857
20
-0.266078699911
30
0
40
0.32369253483
50
35.282530565
51
149.489348432
0
ARC
8
drawinglayer
10
0.475782525688
20
0.637853273803
30
0
40
0.32534592152
50
35.5117136831
51
149.661407658
0
ARC
8
drawinglayer
10
-0.389232265215
20
-1.3704848891
30
0
40
1.42696768665
50
38.3765026587
51
138.801622904
0
ARC
8
drawinglayer
10
-0.474366570507
20
-0.182252426388
30
0
40
1.26382202134
50
44.8509257437
51
90.0239496358
0
ARC
8
drawinglayer
10
-0.474599685079
20
-0.0649828455735
30
0
40
1.14678123816
50
41.6996578705
51
90.0225745371
0
ARC
8
drawinglayer
10
-0.474832799652
20
0.0522824183047
30
0
40
1.02974045498
50
35.6836010216
51
90.0211994384
0
ARC
8
drawinglayer
10
-0.475070231161
20
0.169547682183
30
0
40
0.912699671805
50
34.9960516674
51
90.0198243397
0
ARC
8
drawinglayer
10
-0.475303345734
20
0.286821579934
30
0
40
0.79565457169
50
34.2512065338
51
90.0183346494
0
ARC
8
drawinglayer
10
-0.475536460306
20
0.404086843812
30
0
40
0.678613788511
50
33.5636571796
51
90.0168449592
0
ARC
8
drawinglayer
10
-0.475773891815
20
0.52135210769
30
0
40
0.561573005332
50
32.8188120459
51
90.0152979731
0
ARC
8
drawinglayer
10
-0.426457208906
20
0.797623094747
30
0
40
0.327465537356
50
31.5010091171
51
145.72295307
0
ARC
8
drawinglayer
10
-0.304054790558
20
0.797713750414
30
0
40
0.32722378891
50
31.9593753532
51
146.308745119
0
ARC
8
drawinglayer
10
-0.181648055274
20
0.797813039954
30
0
40
0.326977723528
50
32.4750373689
51
146.877119252
0
ARC
8
drawinglayer
10
-0.0592456369262
20
0.797908012558
30
0
40
0.326731658146
50
33.047995164
51
147.428820313
0
ARC
8
drawinglayer
10
0.0631567814216
20
0.798007302098
30
0
40
0.326485592764
50
33.5636571796
51
147.96442126
0
ARC
8
drawinglayer
10
0.185559199769
20
0.798102274702
30
0
40
0.326239527382
50
34.1366149747
51
148.484609642
0
ARC
8
drawinglayer
10
0.307965935054
20
0.798201564242
30
0
40
0.325993462
50
34.7095727699
51
148.989843826
0
ARC
8
drawinglayer
10
-0.358383436778
20
-0.194348482543
30
0
40
0.325410675568
50
31.7301922352
51
146.064493211
0
ARC
8
drawinglayer
10
-0.239361179732
20
-0.194253509939
30
0
40
0.325173244059
50
32.2458542508
51
146.624731343
0
ARC
8
drawinglayer
10
-0.120338922687
20
-0.194162854272
30
0
40
0.32493581255
50
32.7615162664
51
147.168869361
0
ARC
8
drawinglayer
10
-0.00132098257792
20
-0.194063564732
30
0
40
0.324694064104
50
33.277178282
51
147.697537519
0
ARC
8
drawinglayer
10
0.117701274468
20
-0.193972909065
30
0
40
0.324456632595
50
33.7928402977
51
148.211251478
0
ARC
8
drawinglayer
10
0.236723531513
20
-0.193882253398
30
0
40
0.324219201086
50
34.3657980928
51
148.710584197
0
ARC
8
drawinglayer
10
0.477021486472
20
-1.1303121253
30
0
40
1.37734881818
50
90.9740282517
51
132.208941331
0
ARC
8
drawinglayer
10
0.477168262314
20
-1.01151866589
30
0
40
1.37757761582
50
90.9740282517
51
132.208654852
0
ARC
8
drawinglayer
10
0.477315038156
20
-0.892725206484
30
0
40
1.37780641346
50
90.9740282517
51
132.208311077
0
ARC
8
drawinglayer
10
0.477457497062
20
-0.773936064012
30
0
40
1.37803521109
50
90.9740282517
51
132.207967302
0
ARC
8
drawinglayer
10
0.477604272904
20
-0.655146921539
30
0
40
1.37826832567
50
90.9740282517
51
132.207680823
0
ARC
8
drawinglayer
10
0.477751048746
20
-0.536353462129
30
0
40
1.3784971233
50
90.9740282517
51
132.207337049
0
ARC
8
drawinglayer
10
0.359018026448
20
-0.298861515914
30
0
40
1.37919215008
50
84.3277178282
51
128.216342231
0
ARC
8
drawinglayer
10
0.239995769402
20
-0.298956488517
30
0
40
1.37943389853
50
77.6241116252
51
124.173322845
0
ARC
8
drawinglayer
10
0.120977829293
20
-0.299051461121
30
0
40
1.37967133004
50
71.7799421148
51
119.239697863
0
ARC
8
drawinglayer
10
0.00195557224771
20
-0.299142116788
30
0
40
1.37990876155
50
66.7379135177
51
114.265335582
0
ARC
8
drawinglayer
10
-0.117066684798
20
-0.299241406328
30
0
40
1.38015050999
50
60.9510397869
51
108.417957508
0
ARC
8
drawinglayer
10
-0.236088941843
20
-0.299332061996
30
0
40
1.3803879415
50
56.8257436619
51
102.557000334
0
ARC
8
drawinglayer
10
-0.47427591484
20
-0.418315466612
30
0
40
1.38063832382
50
48.8043345301
51
90.0242361147
0
ARC
8
drawinglayer
10
-0.474422690682
20
-0.537108926022
30
0
40
1.38040952618
50
48.8043345301
51
90.0232047907
0
ARC
8
drawinglayer
10
-0.474565149587
20
-0.655893751558
30
0
40
1.38017641161
50
48.8043345301
51
90.0221734667
0
ARC
8
drawinglayer
10
-0.474711925429
20
-0.774687210968
30
0
40
1.37994761398
50
48.8043345301
51
90.0211994384
0
ARC
8
drawinglayer
10
-0.474858701271
20
-0.893480670377
30
0
40
1.37971881634
50
48.8043345301
51
90.0201681144
0
ARC
8
drawinglayer
10
-0.475001160177
20
-1.01227412979
30
0
40
1.3794900187
50
48.8043345301
51
90.0191367904
0
ARC
8
drawinglayer
10
0.555749457955
20
-0.388619260228
30
0
40
0.445840253922
50
36.7722208323
51
149.178977194
0
ARC
8
drawinglayer
10
0.560031858992
20
-0.511259110085
30
0
40
0.568238355334
50
37.631657525
51
148.405197692
0
ARC
8
drawinglayer
10
0.564309943092
20
-0.633894643006
30
0
40
0.690632139808
50
38.4910942177
51
147.645111881
0
ARC
8
drawinglayer
10
0.568592344129
20
-0.756525858989
30
0
40
0.813025924283
50
39.2932351309
51
146.898490578
0
ARC
8
drawinglayer
10
0.572874745166
20
-0.879165708846
30
0
40
0.935424025694
50
40.0953760441
51
146.165333783
0
ARC
8
drawinglayer
10
0.577152829266
20
-1.00180124177
30
0
40
1.05781781017
50
40.8975169573
51
145.445469609
0
ARC
8
drawinglayer
10
0.581435230303
20
-1.12443677469
30
0
40
1.18021159464
50
41.642362091
51
144.738783465
0
ARC
8
drawinglayer
10
0.591156971367
20
-0.423595079987
30
0
40
1.42682954468
50
43.1893481378
51
91.6125897144
0
ARC
8
drawinglayer
10
0.591010195525
20
-0.54186187314
30
0
40
1.42660074705
50
43.1893481378
51
91.6116729819
0
ARC
8
drawinglayer
10
0.590867736619
20
-0.660124349357
30
0
40
1.42637194941
50
43.1893481378
51
91.6106989537
0
ARC
8
drawinglayer
10
0.590720960777
20
-0.77839114251
30
0
40
1.42614746871
50
43.1893481378
51
91.6097249254
0
ARC
8
drawinglayer
10
0.590578501872
20
-0.896653618726
30
0
40
1.42591867107
50
43.1893481378
51
91.6088081929
0
ARC
8
drawinglayer
10
0.59043172603
20
-1.01492041188
30
0
40
1.42568987344
50
43.1893481378
51
91.6078341647
0
ARC
8
drawinglayer
10
0.590284950188
20
-1.1331828881
30
0
40
1.4254610758
50
43.1893481378
51
91.6068601364
0
ARC
8
drawinglayer
10
0.557053172786
20
0.675760293465
30
0
40
0.44789511571
50
36.8295166119
51
91.5611954002
0
ARC
8
drawinglayer
10
0.561331256887
20
0.553120443608
30
0
40
0.570293217121
50
37.6889533046
51
91.56852926
0
ARC
8
drawinglayer
10
0.565613657924
20
0.430484910688
30
0
40
0.692687001596
50
38.4910942177
51
91.5755766408
0
ARC
8
drawinglayer
10
0.569896058961
20
0.307845060831
30
0
40
0.815085103008
50
39.3505309104
51
91.5823948386
0
ARC
8
drawinglayer
10
0.574174143061
20
0.185213844847
30
0
40
0.937478887482
50
40.1526718236
51
91.589041149
0
ARC
8
drawinglayer
10
0.578456544098
20
0.0625783119267
30
0
40
1.05987267196
50
40.8975169573
51
91.5954582763
0
ARC
8
drawinglayer
10
0.582738945135
20
-0.0600615379302
30
0
40
1.18227077337
50
41.6996578705
51
91.6017035163
0
ARC
8
drawinglayer
10
0.552628312844
20
0.680133350169
30
0
40
0.325272533599
50
35.9127841397
51
149.958830049
0
ARC
8
drawinglayer
10
0.552481537002
20
0.561866557016
30
0
40
0.325043735963
50
35.9127841397
51
149.959804077
0
ARC
8
drawinglayer
10
0.552339078097
20
0.4436040808
30
0
40
0.324814938327
50
35.9127841397
51
149.96072081
0
ARC
8
drawinglayer
10
0.552192302255
20
0.325341604584
30
0
40
0.324586140691
50
35.9127841397
51
149.961694838
0
ARC
8
drawinglayer
10
0.552045526413
20
0.207070494494
30
0
40
0.324361659992
50
35.9127841397
51
149.962668866
0
ARC
8
drawinglayer
10
0.551903067507
20
0.0888080182779
30
0
40
0.324132862356
50
35.9127841397
51
149.963642895
0
ARC
8
drawinglayer
10
0.551756291665
20
-0.0294544579385
30
0
40
0.32390406472
50
35.9127841397
51
149.964559627
0
ARC
8
drawinglayer
10
-0.515912767664
20
-1.24794432879
30
0
40
1.30481996756
50
37.1159955094
51
138.869117333
0
ARC
8
drawinglayer
10
-0.5201951687
20
-1.12530879587
30
0
40
1.18242618308
50
36.3711503758
51
139.589726352
0
ARC
8
drawinglayer
10
-0.524477569737
20
-1.00267326295
30
0
40
1.06002808167
50
35.6263052421
51
140.327237626
0
ARC
8
drawinglayer
10
-0.528755653838
20
-0.880037730025
30
0
40
0.937634297197
50
34.8814601084
51
141.082109521
0
ARC
8
drawinglayer
10
-0.533038054875
20
-0.757402197105
30
0
40
0.815240512723
50
34.1366149747
51
141.85457122
0
ARC
8
drawinglayer
10
-0.537320455912
20
-0.634762347248
30
0
40
0.692842411311
50
33.3917698411
51
142.645023794
0
ARC
8
drawinglayer
10
-0.541598540012
20
-0.512126814327
30
0
40
0.570448626836
50
32.5896289279
51
143.453753722
0
ARC
8
drawinglayer
10
-0.549006403096
20
0.67926132899
30
0
40
0.327482805102
50
30.9853471015
51
145.120086878
0
ARC
8
drawinglayer
10
-0.549148862002
20
0.560994535838
30
0
40
0.327258324403
50
30.9853471015
51
145.12100361
0
ARC
8
drawinglayer
10
-0.549295637844
20
0.442727742685
30
0
40
0.327029526767
50
30.9853471015
51
145.121920343
0
ARC
8
drawinglayer
10
-0.549438096749
20
0.324465266468
30
0
40
0.326800729131
50
30.9853471015
51
145.122837075
0
ARC
8
drawinglayer
10
-0.549584872591
20
0.206202790252
30
0
40
0.326571931495
50
30.9853471015
51
145.123753808
0
ARC
8
drawinglayer
10
-0.549727331496
20
0.0879403140355
30
0
40
0.326343133858
50
30.9853471015
51
145.12467054
0
ARC
8
drawinglayer
10
-0.549874107338
20
-0.0303264791174
30
0
40
0.326114336222
50
30.9853471015
51
145.125587272
0
ARC
8
drawinglayer
10
-0.514613369768
20
-0.18356909203
30
0
40
1.30687482935
50
92.4064227395
51
138.863616938
0
ARC
8
drawinglayer
10
-0.518895770805
20
-0.0609335591091
30
0
40
1.18448104487
50
92.4064227395
51
139.583882182
0
ARC
8
drawinglayer
10
-0.523173854906
20
0.0617062907478
30
0
40
1.06208294346
50
92.4064227395
51
140.321106977
0
ARC
8
drawinglayer
10
-0.527456255943
20
0.184341823668
30
0
40
0.939689158985
50
92.4064227395
51
141.075635098
0
ARC
8
drawinglayer
10
-0.531738656979
20
0.306977356589
30
0
40
0.81729537451
50
92.4064227395
51
141.847753022
0
ARC
8
drawinglayer
10
-0.53601674108
20
0.429617206446
30
0
40
0.694897273099
50
92.34912696
51
142.637919118
0
ARC
8
drawinglayer
10
-0.540299142117
20
0.552252739366
30
0
40
0.572503488624
50
92.34912696
51
143.446305271
0
ARC
8
drawinglayer
10
-0.510477744573
20
-0.424471418103
30
0
40
1.42904413312
50
92.4064227395
51
138.160483132
0
ARC
8
drawinglayer
10
-0.510620203479
20
-0.542733894319
30
0
40
1.42881533549
50
92.4064227395
51
138.16105609
0
ARC
8
drawinglayer
10
-0.510766979321
20
-0.660996370536
30
0
40
1.42858653785
50
92.4064227395
51
138.161629047
0
ARC
8
drawinglayer
10
-0.510909438226
20
-0.779263163689
30
0
40
1.42835774021
50
92.4064227395
51
138.162202005
0
ARC
8
drawinglayer
10
-0.511056214068
20
-0.897525639905
30
0
40
1.42812894258
50
92.4064227395
51
138.162774963
0
ARC
8
drawinglayer
10
-0.511198672974
20
-1.01578811612
30
0
40
1.42790014494
50
92.4064227395
51
138.163405216
0
ARC
8
drawinglayer
10
-0.511345448816
20
-1.13405490927
30
0
40
1.42767134731
50
92.4064227395
51
138.163978174
0
ARC
8
drawinglayer
10
0.356907044485
20
0.756547443672
30
0
40
0.325816467602
50
34.9387558879
51
149.188373702
0
ARC
8
drawinglayer
10
0.237884787439
20
0.756456788005
30
0
40
0.326053899111
50
34.3657980928
51
148.702906562
0
ARC
8
drawinglayer
10
0.118862530394
20
0.756361815401
30
0
40
0.32629133062
50
33.8501360772
51
148.203631139
0
ARC
8
drawinglayer
10
-0.00015540971505
20
0.756266842798
30
0
40
0.326533079066
50
33.277178282
51
147.68991718
0
ARC
8
drawinglayer
10
-0.119177666761
20
0.756171870194
30
0
40
0.326770510575
50
32.7615162664
51
147.161306319
0
ARC
8
drawinglayer
10
-0.238199923806
20
0.756081214527
30
0
40
0.327007942084
50
32.2458542508
51
146.617225596
0
ARC
8
drawinglayer
10
0.477807168921
20
-0.181501279432
30
0
40
1.26191393539
50
90.9740282517
51
135.302111283
0
ARC
8
drawinglayer
10
0.477569737412
20
-0.0642316986174
30
0
40
1.14486883528
50
90.9740282517
51
139.333499626
0
ARC
8
drawinglayer
10
0.477336622839
20
0.0530378821973
30
0
40
1.0278280521
50
90.9740282517
51
143.463780483
0
ARC
8
drawinglayer
10
0.477103508266
20
0.170303146075
30
0
40
0.910787268922
50
90.9740282517
51
145.921941312
0
ARC
8
drawinglayer
10
0.476866076757
20
0.28757272689
30
0
40
0.793742168807
50
90.9740282517
51
146.645014049
0
ARC
8
drawinglayer
10
0.476632962185
20
0.404842307705
30
0
40
0.676701385629
50
90.9740282517
51
147.380348084
0
ARC
8
drawinglayer
10
0.476399847612
20
0.522107571583
30
0
40
0.55966060245
50
90.9740282517
51
148.128000711
0
ARC
8
drawinglayer
10
-0.476386896803
20
0.63709780991
30
0
40
0.327258324403
50
31.2718259991
51
145.481107584
0
ARC
8
drawinglayer
10
-0.476533672645
20
0.518308667437
30
0
40
0.327029526767
50
31.2718259991
51
145.482024317
0
ARC
8
drawinglayer
10
-0.47667613155
20
0.399519524964
30
0
40
0.326796412194
50
31.2718259991
51
145.482941049
0
ARC
8
drawinglayer
10
-0.476822907392
20
0.280726065555
30
0
40
0.326567614558
50
31.2718259991
51
145.483915078
0
ARC
8
drawinglayer
10
-0.476969683234
20
0.161932606145
30
0
40
0.326338816922
50
31.2718259991
51
145.48483181
0
ARC
8
drawinglayer
10
-0.477112142139
20
0.0431391467359
30
0
40
0.326110019286
50
31.2718259991
51
145.485748542
0
ARC
8
drawinglayer
10
-0.427760923738
20
-0.266756458946
30
0
40
0.325410675568
50
31.4437133376
51
145.731318253
0
ARC
8
drawinglayer
10
-0.305354188454
20
-0.266657169406
30
0
40
0.325164610186
50
31.9593753532
51
146.317110303
0
ARC
8
drawinglayer
10
-0.182951770106
20
-0.266562196803
30
0
40
0.324918544804
50
32.4750373689
51
146.885541732
0
ARC
8
drawinglayer
10
-0.060549351758
20
-0.266462907262
30
0
40
0.324672479422
50
32.9906993845
51
147.437300088
0
ARC
8
drawinglayer
10
0.0618530665898
20
-0.266372251595
30
0
40
0.324430730976
50
33.5636571796
51
147.972958331
0
ARC
8
drawinglayer
10
0.184259801874
20
-0.266272962055
30
0
40
0.324184665594
50
34.1366149747
51
148.493146713
0
ARC
8
drawinglayer
10
0.306662220222
20
-0.266177989452
30
0
40
0.323938600212
50
34.7095727699
51
148.998438193
0
ARC
8
drawinglayer
10
0.47491050451
20
-0.074898848781
30
0
40
0.323968818767
50
35.5117136831
51
149.667194531
0
ARC
8
drawinglayer
10
0.475057280352
20
0.0438946106285
30
0
40
0.324197616403
50
35.5117136831
51
149.666220503
0
ARC
8
drawinglayer
10
0.475204056194
20
0.162688070038
30
0
40
0.32442641404
50
35.5117136831
51
149.665303771
0
ARC
8
drawinglayer
10
0.475346515099
20
0.281477212511
30
0
40
0.324659528612
50
35.5117136831
51
149.664329742
0
ARC
8
drawinglayer
10
0.475493290941
20
0.400266354984
30
0
40
0.324888326248
50
35.5117136831
51
149.663355714
0
ARC
8
drawinglayer
10
0.475635749846
20
0.519059814393
30
0
40
0.325117123884
50
35.5117136831
51
149.662381686
0
ARC
8
drawinglayer
10
0.467593297093
20
-1.36980713007
30
0
40
1.42524954591
50
42.5017987837
51
142.841605614
0
ARC
8
drawinglayer
10
0.345190878745
20
-1.36990641961
30
0
40
1.42549561129
50
41.871545209
51
142.306119258
0
ARC
8
drawinglayer
10
0.222788460397
20
-1.37000139221
30
0
40
1.42574167668
50
41.2412916344
51
141.757454874
0
ARC
8
drawinglayer
10
0.100381725113
20
-1.37010068175
30
0
40
1.42598774206
50
40.6683338392
51
141.195096798
0
ARC
8
drawinglayer
10
-0.0220206932353
20
-1.37019565436
30
0
40
1.42623380744
50
40.0380802646
51
140.618815848
0
ARC
8
drawinglayer
10
-0.144423111583
20
-1.37029062696
30
0
40
1.42647555589
50
39.4651224695
51
140.028039065
0
ARC
8
drawinglayer
10
-0.266825529931
20
-1.37038559956
30
0
40
1.42672162127
50
38.8921646743
51
139.422479971
0
ENDSEC
0
EOF
