0
SECTION
2
HEADER
9
$ACADVER
1
AC1006
9
$INSBASE
10
0.0
20
0.0
30
0.0
9
$EXTMIN
10
0.0
20
0.0
9
$EXTMAX
10
0.0
20
0.0
0
ENDSEC
0
SECTION
2
TABLES
0
TABLE
2
LTYPE
70
1
0
LTYPE
2
CONTINUOUS
70
64
3
Solid line
72
65
73
0
40
0.0
0
ENDTAB
0
TABLE
2
LAYER
70
1
0
LAYER
2
PYDXF
70
64
62
7
6
continuous
0
ENDTAB
0
TABLE
2
STYLE
70
1
0
STYLE
2
STANDARD
70
0
40
0
41
40
50
50
71
0
42
1
3
ARIAL.TTF
4

0
ENDTAB
0
TABLE
2
VIEW
70
0
0
ENDTAB
0
ENDSEC
0
SECTION
2
BLOCKS
0
ENDSEC
0
SECTION
2
ENTITIES
0
ARC
8
drawinglayer
10
-0.733530954227
20
-1.13812211577
30
0
40
1.42385563485
50
57.9716592522
51
120.999996097
0
ARC
8
drawinglayer
10
-0.703208316867
20
-1.12766821865
30
0
40
1.42562012597
50
61.0083355664
51
123.000019873
0
ARC
8
drawinglayer
10
-0.674295371695
20
-1.11387857798
30
0
40
1.42712485359
50
63.0136878493
51
124.999986352
0
ARC
8
drawinglayer
10
-0.647105735626
20
-1.09690525047
30
0
40
1.42835397846
50
65.0190401323
51
127.000010128
0
ARC
8
drawinglayer
10
-0.578677059319
20
-1.02887572296
30
0
40
1.43028002981
50
70.9778012017
51
131.000000383
0
ARC
8
drawinglayer
10
-0.561063826586
20
-1.00130277733
30
0
40
1.43030854044
50
72.0091252329
51
131.999983623
0
ARC
8
drawinglayer
10
-0.621930850638
20
-1.07693513911
30
0
40
1.42929799705
50
67.0243924153
51
127.999993368
0
ARC
8
drawinglayer
10
-0.546390356438
20
-0.971756262637
30
0
40
1.43002976985
50
74.0144775159
51
131.999983623
0
ARC
8
drawinglayer
10
-0.534808705562
20
-0.940549795793
30
0
40
1.42944371804
50
74.9885057676
51
133.000024158
0
ARC
8
drawinglayer
10
-0.599039983781
20
-1.05417732185
30
0
40
1.42994107011
50
68.9724489187
51
128.999976607
0
ARC
8
drawinglayer
10
-0.526445587861
20
-0.908022336494
30
0
40
1.42855988856
50
74.9885057676
51
133.000024158
0
ARC
8
drawinglayer
10
-0.521392870917
20
-0.874512844434
30
0
40
1.42738144924
50
76.0198297988
51
134.000007398
0
ARC
8
drawinglayer
10
-0.519704408139
20
-0.840395125633
30
0
40
1.42593057504
50
76.0198297988
51
134.000007398
0
ARC
8
drawinglayer
10
-0.551018581802
20
-0.758670992891
30
0
40
1.41982613268
50
72.9831534846
51
131.999983623
0
ARC
8
drawinglayer
10
-0.573161836623
20
-0.739188730065
30
0
40
1.41728235105
50
70.9778012017
51
131.000000383
0
ARC
8
drawinglayer
10
-0.763856759434
20
-1.12319204997
30
0
40
1.42091587226
50
56.0236027487
51
118.999972322
0
ARC
8
drawinglayer
10
-0.9330388291
20
-0.753744989851
30
0
40
1.39128065784
50
45.996841334
51
106.000018316
0
ARC
8
drawinglayer
10
-0.943717643406
20
-0.780044460741
30
0
40
1.39170514942
50
45.0228130822
51
104.999977781
0
ARC
8
drawinglayer
10
-0.819959340676
20
-1.08415466382
30
0
40
1.41495081521
50
52.0128981828
51
114.999982067
0
ARC
8
drawinglayer
10
-0.845134225663
20
-1.06046866722
30
0
40
1.41198887769
50
50.9815741516
51
113.000015587
0
ARC
8
drawinglayer
10
-0.868025092521
20
-1.03433075655
30
0
40
1.40908396143
50
48.9762218686
51
110.999991811
0
ARC
8
drawinglayer
10
-0.888388016983
20
-1.00602603812
30
0
40
1.40626457705
50
48.0021936169
51
109.000025332
0
ARC
8
drawinglayer
10
-0.792769704606
20
-1.10513848642
30
0
40
1.41793809551
50
54.0182504658
51
117.000005842
0
ARC
8
drawinglayer
10
-0.906001249716
20
-0.975855457449
30
0
40
1.40356240303
50
47.0281653652
51
107.999984796
0
ARC
8
drawinglayer
10
-0.920674719863
20
-0.944138967139
30
0
40
1.40100595001
50
45.996841334
51
107.000001556
0
ARC
8
drawinglayer
10
-0.93225637074
20
-0.911228198279
30
0
40
1.39862689645
50
45.996841334
51
106.000018316
0
ARC
8
drawinglayer
10
-0.94061948844
20
-0.87746527841
30
0
40
1.39644424945
50
45.0228130822
51
104.999977781
0
ARC
8
drawinglayer
10
-0.945672205384
20
-0.843211342162
30
0
40
1.39448335177
50
45.0228130822
51
104.999977781
0
ARC
8
drawinglayer
10
-0.947360668162
20
-0.808843363399
30
0
40
1.39276954621
50
45.0228130822
51
103.999994541
0
ARC
8
drawinglayer
10
-0.916046494499
20
-0.731741120325
30
0
40
1.39152141425
50
47.0281653652
51
107.000001556
0
ARC
8
drawinglayer
10
-0.893903239679
20
-0.71552490839
30
0
40
1.39241157943
50
48.0021936169
51
109.000025332
0
ARC
8
drawinglayer
10
-0.868120127949
20
-0.706211436405
30
0
40
1.39389413212
50
48.9762218686
51
110.999991811
0
ARC
8
drawinglayer
10
-0.840445811195
20
-0.704424770351
30
0
40
1.39586136548
50
50.9815741516
51
113.000015587
0
ARC
8
drawinglayer
10
-0.812774662288
20
-0.710291624132
30
0
40
1.39818339779
50
52.9869264345
51
114.999982067
0
ARC
8
drawinglayer
10
-0.786988382711
20
-0.723412848948
30
0
40
1.40070183664
50
54.9922787175
51
117.000005842
0
ARC
8
drawinglayer
10
-0.764848295738
20
-0.742895111774
30
0
40
1.40324561827
50
56.0236027487
51
118.999972322
0
ARC
8
drawinglayer
10
-0.747855961137
20
-0.76740791661
30
0
40
1.40564051107
50
56.9976310005
51
120.000012857
0
ARC
8
drawinglayer
10
-0.737173978983
20
-0.795284975612
30
0
40
1.40772178695
50
57.9716592522
51
120.999996097
0
ARC
8
drawinglayer
10
-0.733530954227
20
-0.824619244516
30
0
40
1.40935006062
50
57.9716592522
51
120.999996097
0
ARC
8
drawinglayer
10
-0.719209115165
20
-0.769520870968
30
0
40
1.40786117225
50
59.9770115351
51
121.999979337
0
ARC
8
drawinglayer
10
-0.702216780564
20
-0.747517001442
30
0
40
1.40810192866
50
61.0083355664
51
123.000019873
0
ARC
8
drawinglayer
10
-0.680076693591
20
-0.731300789507
30
0
40
1.40899209384
50
63.0136878493
51
124.999986352
0
ARC
8
drawinglayer
10
-0.654290414014
20
-0.721987317522
30
0
40
1.41047464653
50
65.0190401323
51
126.000026888
0
ARC
8
drawinglayer
10
-0.626619265107
20
-0.720200651468
30
0
40
1.4124418799
50
67.0243924153
51
127.999993368
0
ARC
8
drawinglayer
10
-0.598944948352
20
-0.726067505249
30
0
40
1.4147639122
50
68.9724489187
51
128.999976607
0
ARC
8
drawinglayer
10
-0.534026247201
20
-0.783186965574
30
0
40
1.42222102548
50
74.9885057676
51
133.000024158
0
ARC
8
drawinglayer
10
-0.523347432895
20
-0.811060856729
30
0
40
1.42430230136
50
76.0198297988
51
134.000007398
0
ARC
8
drawinglayer
10
-1.03397912547
20
0.0621246595554
30
0
40
0.762643473798
50
30.0113188498
51
93.0000070153
0
ARC
8
drawinglayer
10
-1.02732981333
20
0.143503496908
30
0
40
0.677114756072
50
30.0113188498
51
150.000025715
0
ARC
8
drawinglayer
10
-0.364074390566
20
0.126669554688
30
0
40
0.727059041552
50
30.0113188498
51
150.000025715
0
ARC
8
drawinglayer
10
-0.274522506369
20
0.120061424565
30
0
40
0.734002963521
50
30.0113188498
51
150.000025715
0
ARC
8
drawinglayer
10
-0.417782079011
20
-0.633230563077
30
0
40
0.758240165615
50
30.0113188498
51
150.000025715
0
ARC
8
drawinglayer
10
-0.330704283801
20
-0.639654958038
30
0
40
0.76499084888
50
30.0113188498
51
150.000025715
0
ARC
8
drawinglayer
10
-0.337353595943
20
-0.721036963238
30
0
40
0.850522734454
50
87.994647717
51
150.000025715
0
ARC
8
drawinglayer
10
-0.477613216894
20
-1.36565277064
30
0
40
1.5280081287
50
81.0045626164
51
133.000024158
0
ARC
8
drawinglayer
10
-0.390532253836
20
-1.3720771656
30
0
40
1.53475881196
50
87.994647717
51
137.000014413
0
ARC
8
drawinglayer
10
-1.03397912547
20
-0.669638635703
30
0
40
0.796504596943
50
30.0113188498
51
93.0000070153
0
ARC
8
drawinglayer
10
-1.02732981333
20
-0.588256630503
30
0
40
0.710972711369
50
30.0113188498
51
150.000025715
0
ARC
8
drawinglayer
10
-0.390532253836
20
-0.731785470192
30
0
40
1.50513310108
50
87.994647717
51
137.000014413
0
ARC
8
drawinglayer
10
-0.390532253836
20
-0.640317038189
30
0
40
1.50090085667
50
87.994647717
51
137.000014413
0
ARC
8
drawinglayer
10
-1.000083156
20
-0.595346273463
30
0
40
1.45363657027
50
45.996841334
51
100.000004286
0
ARC
8
drawinglayer
10
-1.08716095121
20
-0.588918710654
30
0
40
1.44688271915
50
41.0121085163
51
93.0000070153
0
ARC
8
drawinglayer
10
-1.08716095121
20
-1.22920723822
30
0
40
1.47650843004
50
41.0121085163
51
93.0000070153
0
ARC
8
drawinglayer
10
-1.08716095121
20
-1.32067883807
30
0
40
1.48074067445
50
41.0121085163
51
93.0000070153
0
ARC
8
drawinglayer
10
-0.306520935117
20
-1.38211924254
30
0
40
1.48933821287
50
30.0113188498
51
89.0000167602
0
ARC
8
drawinglayer
10
-0.310518758806
20
-1.46744205017
30
0
40
1.57901364313
50
30.0113188498
51
89.0000167602
0
ARC
8
drawinglayer
10
-0.310518758806
20
-1.37637910266
30
0
40
1.5748004058
50
30.0113188498
51
89.0000167602
0
ARC
8
drawinglayer
10
-0.306520935117
20
-0.562543211421
30
0
40
1.45141590909
50
30.0113188498
51
89.0000167602
0
ARC
8
drawinglayer
10
-0.310518758806
20
-0.647869186901
30
0
40
1.54109133934
50
30.0113188498
51
89.0000167602
0
ARC
8
drawinglayer
10
-0.274522506369
20
-0.608448491194
30
0
40
0.767712029981
50
30.0113188498
51
150.000025715
0
ARC
8
drawinglayer
10
-0.274522506369
20
-0.699511438702
30
0
40
0.771925267307
50
30.0113188498
51
150.000025715
0
ARC
8
drawinglayer
10
-1.08449679137
20
-0.725373746621
30
0
40
0.799105399834
50
96.0160568489
51
150.000025715
0
ARC
8
drawinglayer
10
-1.08049579983
20
-0.640047771142
30
0
40
0.709429969581
50
30.0113188498
51
150.000025715
0
ARC
8
drawinglayer
10
-1.08049579983
20
-0.548984823634
30
0
40
0.705216732254
50
30.0113188498
51
150.000025715
0
ARC
8
drawinglayer
10
-1.08449679137
20
0.0942022844933
30
0
40
0.761183096048
50
96.0160568489
51
150.000025715
0
ARC
8
drawinglayer
10
-1.08049579983
20
0.179525092125
30
0
40
0.671507665795
50
30.0113188498
51
150.000025715
0
ARC
8
drawinglayer
10
-1.11649522011
20
-1.3169154351
30
0
40
1.51230510808
50
96.0160568489
51
150.000025715
0
ARC
8
drawinglayer
10
-1.11649522011
20
-1.40797838261
30
0
40
1.5165183454
50
96.0160568489
51
150.000025715
0
ARC
8
drawinglayer
10
-0.940252018117
20
0.137075934099
30
0
40
0.683868607185
50
30.0113188498
51
150.000025715
0
ARC
8
drawinglayer
10
-0.337353595943
20
0.0107263320205
30
0
40
0.81666161131
50
87.994647717
51
150.000025715
0
ARC
8
drawinglayer
10
-0.330704283801
20
0.0921051693729
30
0
40
0.731132893583
50
30.0113188498
51
150.000025715
0
ARC
8
drawinglayer
10
-1.02732981333
20
-0.4967881985
30
0
40
0.706740466957
50
30.0113188498
51
150.000025715
0
ARC
8
drawinglayer
10
-1.11649522011
20
-0.588405519341
30
0
40
1.47859604162
50
96.0160568489
51
150.000025715
0
ARC
8
drawinglayer
10
-0.364074390566
20
-0.692903308579
30
0
40
0.764981345337
50
30.0113188498
51
150.000025715
0
ARC
8
drawinglayer
10
-0.330704283801
20
0.000636737370386
30
0
40
0.735365137995
50
30.0113188498
51
150.000025715
0
ARC
8
drawinglayer
10
-1.08051163907
20
-0.507539873302
30
0
40
1.36135400143
50
37.9754322021
51
93.0000070153
0
ARC
8
drawinglayer
10
-1.07386549477
20
-0.426157868102
30
0
40
1.27582211585
50
34.0220234157
51
93.0000070153
0
ARC
8
drawinglayer
10
-1.06721618263
20
-0.34477903075
30
0
40
1.19029339813
50
30.0113188498
51
93.0000070153
0
ARC
8
drawinglayer
10
-1.06057003834
20
-0.263400193397
30
0
40
1.1047646804
50
30.0113188498
51
93.0000070153
0
ARC
8
drawinglayer
10
-1.0539207262
20
-0.182018188197
30
0
40
1.01923279483
50
30.0113188498
51
93.0000070153
0
ARC
8
drawinglayer
10
-1.0472745819
20
-0.100639350845
30
0
40
0.933704077099
50
30.0113188498
51
93.0000070153
0
ARC
8
drawinglayer
10
-1.04062526976
20
-0.0192573456446
30
0
40
0.848175359373
50
30.0113188498
51
93.0000070153
0
ARC
8
drawinglayer
10
-0.990943915634
20
0.172916962002
30
0
40
0.678451587765
50
30.0113188498
51
150.000025715
0
ARC
8
drawinglayer
10
-0.901392031438
20
0.166311999728
30
0
40
0.685395509734
50
30.0113188498
51
150.000025715
0
ARC
8
drawinglayer
10
-0.811840147242
20
0.159703869605
30
0
40
0.692339431704
50
30.0113188498
51
150.000025715
0
ARC
8
drawinglayer
10
-0.722285095198
20
0.15309890733
30
0
40
0.699283353674
50
30.0113188498
51
150.000025715
0
ARC
8
drawinglayer
10
-0.632733211002
20
0.146490777208
30
0
40
0.706227275643
50
30.0113188498
51
150.000025715
0
ARC
8
drawinglayer
10
-0.543181326805
20
0.139882647085
30
0
40
0.713171197613
50
30.0113188498
51
150.000025715
0
ARC
8
drawinglayer
10
-0.453629442609
20
0.13327768481
30
0
40
0.720115119582
50
30.0113188498
51
150.000025715
0
ARC
8
drawinglayer
10
-0.940252018117
20
-0.594684193312
30
0
40
0.717726562481
50
30.0113188498
51
150.000025715
0
ARC
8
drawinglayer
10
-0.853174222907
20
-0.601105420425
30
0
40
0.724477245747
50
30.0113188498
51
150.000025715
0
ARC
8
drawinglayer
10
-0.766096427697
20
-0.607532983233
30
0
40
0.731231096859
50
30.0113188498
51
150.000025715
0
ARC
8
drawinglayer
10
-0.679018632488
20
-0.613954210347
30
0
40
0.737981780124
50
30.0113188498
51
150.000025715
0
ARC
8
drawinglayer
10
-0.591940837278
20
-0.620381773155
30
0
40
0.744735631237
50
30.0113188498
51
150.000025715
0
ARC
8
drawinglayer
10
-0.504859874221
20
-0.626806168116
30
0
40
0.751486314502
50
30.0113188498
51
150.000025715
0
ARC
8
drawinglayer
10
-0.383886109543
20
-1.29069832825
30
0
40
1.44923009424
50
87.994647717
51
140.000021429
0
ARC
8
drawinglayer
10
-0.377236797401
20
-1.20931632305
30
0
40
1.36370137651
50
87.994647717
51
144.000011684
0
ARC
8
drawinglayer
10
-0.370590653107
20
-1.12793431785
30
0
40
1.27816949093
50
87.994647717
51
148.000001939
0
ARC
8
drawinglayer
10
-0.363941340966
20
-1.0465554805
30
0
40
1.19264077321
50
87.994647717
51
150.000025715
0
ARC
8
drawinglayer
10
-0.357295196672
20
-0.965176643143
30
0
40
1.10711205548
50
87.994647717
51
150.000025715
0
ARC
8
drawinglayer
10
-0.350649052378
20
-0.883794637943
30
0
40
1.02158016991
50
87.994647717
51
150.000025715
0
ARC
8
drawinglayer
10
-0.343999740236
20
-0.80241580059
30
0
40
0.936051452181
50
87.994647717
51
150.000025715
0
ARC
8
drawinglayer
10
-1.000083156
20
-1.32710640087
30
0
40
1.48749452556
50
45.996841334
51
100.000004286
0
ARC
8
drawinglayer
10
-0.913002192943
20
-1.33352762799
30
0
40
1.49424520883
50
50.0075458999
51
106.000018316
0
ARC
8
drawinglayer
10
-0.825924397733
20
-1.3399551908
30
0
40
1.50099905994
50
54.9922787175
51
113.000015587
0
ARC
8
drawinglayer
10
-0.738846602523
20
-1.34637641791
30
0
40
1.50774974321
50
61.0083355664
51
118.999972322
0
ARC
8
drawinglayer
10
-0.651768807313
20
-1.35280398072
30
0
40
1.51450359432
50
67.0243924153
51
124.000003112
0
ARC
8
drawinglayer
10
-0.564691012104
20
-1.35922520783
30
0
40
1.52125427758
50
74.0144775159
51
128.999976607
0
ARC
8
drawinglayer
10
-1.08051163907
20
-1.23930000071
30
0
40
1.39521195672
50
37.9754322021
51
93.0000070153
0
ARC
8
drawinglayer
10
-1.07386549477
20
-1.15792116336
30
0
40
1.309683239
50
34.0220234157
51
93.0000070153
0
ARC
8
drawinglayer
10
-1.06721618263
20
-1.07653915816
30
0
40
1.22415135342
50
30.0113188498
51
93.0000070153
0
ARC
8
drawinglayer
10
-1.06057003834
20
-0.995160320808
30
0
40
1.1386226357
50
30.0113188498
51
93.0000070153
0
ARC
8
drawinglayer
10
-1.0539207262
20
-0.913778315608
30
0
40
1.05309391797
50
30.0113188498
51
93.0000070153
0
ARC
8
drawinglayer
10
-1.0472745819
20
-0.832396310408
30
0
40
0.967562032396
50
30.0113188498
51
93.0000070153
0
ARC
8
drawinglayer
10
-1.04062526976
20
-0.751017473055
30
0
40
0.882033314669
50
30.0113188498
51
93.0000070153
0
ARC
8
drawinglayer
10
-0.390532253836
20
-1.28060556575
30
0
40
1.53052656755
50
87.994647717
51
137.000014413
0
ARC
8
drawinglayer
10
-0.390532253836
20
-1.18913713375
30
0
40
1.52629432314
50
87.994647717
51
137.000014413
0
ARC
8
drawinglayer
10
-0.390532253836
20
-1.0976655339
30
0
40
1.52206207873
50
87.994647717
51
137.000014413
0
ARC
8
drawinglayer
10
-0.390532253836
20
-1.00619710189
30
0
40
1.51782983431
50
87.994647717
51
137.000014413
0
ARC
8
drawinglayer
10
-0.390532253836
20
-0.914725502044
30
0
40
1.5135975899
50
87.994647717
51
137.000014413
0
ARC
8
drawinglayer
10
-0.390532253836
20
-0.823257070042
30
0
40
1.50936534549
50
87.994647717
51
137.000014413
0
ARC
8
drawinglayer
10
-0.477613216894
20
-0.633889475381
30
0
40
1.49414700555
50
81.0045626164
51
133.000024158
0
ARC
8
drawinglayer
10
-0.564691012104
20
-0.627468248267
30
0
40
1.48739632229
50
74.0144775159
51
128.999976607
0
ARC
8
drawinglayer
10
-0.651768807313
20
-0.621040685459
30
0
40
1.48064247117
50
67.0243924153
51
124.000003112
0
ARC
8
drawinglayer
10
-0.738846602523
20
-0.614619458346
30
0
40
1.47389178791
50
61.0083355664
51
118.999972322
0
ARC
8
drawinglayer
10
-0.825924397733
20
-0.608191895537
30
0
40
1.4671379368
50
54.9922787175
51
113.000015587
0
ARC
8
drawinglayer
10
-0.913002192943
20
-0.601767500576
30
0
40
1.46038725353
50
50.0075458999
51
106.000018316
0
ARC
8
drawinglayer
10
-1.08716095121
20
-0.680390310505
30
0
40
1.45111496357
50
41.0121085163
51
93.0000070153
0
ARC
8
drawinglayer
10
-1.08716095121
20
-0.771858742507
30
0
40
1.45534720798
50
41.0121085163
51
93.0000070153
0
ARC
8
drawinglayer
10
-1.08716095121
20
-0.863330342357
30
0
40
1.45957945239
50
41.0121085163
51
93.0000070153
0
ARC
8
drawinglayer
10
-1.08716095121
20
-0.95479877436
30
0
40
1.4638116968
50
41.0121085163
51
93.0000070153
0
ARC
8
drawinglayer
10
-1.08716095121
20
-1.04627037421
30
0
40
1.46804394121
50
41.0121085163
51
93.0000070153
0
ARC
8
drawinglayer
10
-1.08716095121
20
-1.13773880621
30
0
40
1.47227618563
50
41.0121085163
51
93.0000070153
0
ARC
8
drawinglayer
10
-0.278523497906
20
-0.784840582029
30
0
40
0.861603865408
50
30.0113188498
51
89.0000167602
0
ARC
8
drawinglayer
10
-0.282521321594
20
-0.87016338966
30
0
40
0.951279295661
50
30.0113188498
51
89.0000167602
0
ARC
8
drawinglayer
10
-0.286522313131
20
-0.95548936514
30
0
40
1.04095472591
50
30.0113188498
51
89.0000167602
0
ARC
8
drawinglayer
10
-0.290520136819
20
-1.04081217277
30
0
40
1.13063015617
50
30.0113188498
51
89.0000167602
0
ARC
8
drawinglayer
10
-0.294521128356
20
-1.1261413161
30
0
40
1.22030875427
50
30.0113188498
51
89.0000167602
0
ARC
8
drawinglayer
10
-0.298522119892
20
-1.21146729158
30
0
40
1.30998418452
50
30.0113188498
51
89.0000167602
0
ARC
8
drawinglayer
10
-0.302519943581
20
-1.29679009921
30
0
40
1.39965961477
50
30.0113188498
51
89.0000167602
0
ARC
8
drawinglayer
10
-0.310518758806
20
-0.738932134409
30
0
40
1.54530457667
50
30.0113188498
51
89.0000167602
0
ARC
8
drawinglayer
10
-0.310518758806
20
-0.829995081917
30
0
40
1.549517814
50
30.0113188498
51
89.0000167602
0
ARC
8
drawinglayer
10
-0.310518758806
20
-0.921058029425
30
0
40
1.55373105132
50
30.0113188498
51
89.0000167602
0
ARC
8
drawinglayer
10
-0.310518758806
20
-1.01212731263
30
0
40
1.5579474565
50
30.0113188498
51
89.0000167602
0
ARC
8
drawinglayer
10
-0.310518758806
20
-1.10319026014
30
0
40
1.56216069382
50
30.0113188498
51
89.0000167602
0
ARC
8
drawinglayer
10
-0.310518758806
20
-1.19425320764
30
0
40
1.56637393115
50
30.0113188498
51
89.0000167602
0
ARC
8
drawinglayer
10
-0.310518758806
20
-1.28531615515
30
0
40
1.57058716847
50
30.0113188498
51
89.0000167602
0
ARC
8
drawinglayer
10
-0.278523497906
20
0.0347386169336
30
0
40
0.823678393775
50
30.0113188498
51
89.0000167602
0
ARC
8
drawinglayer
10
-0.282521321594
20
-0.0505905263933
30
0
40
0.913356991875
50
30.0113188498
51
89.0000167602
0
ARC
8
drawinglayer
10
-0.286522313131
20
-0.135916501873
30
0
40
1.00303242213
50
30.0113188498
51
89.0000167602
0
ARC
8
drawinglayer
10
-0.290520136819
20
-0.221239309504
30
0
40
1.09270785238
50
30.0113188498
51
89.0000167602
0
ARC
8
drawinglayer
10
-0.294521128356
20
-0.306568452831
30
0
40
1.18238645048
50
30.0113188498
51
89.0000167602
0
ARC
8
drawinglayer
10
-0.298522119892
20
-0.391891260463
30
0
40
1.27206188074
50
30.0113188498
51
89.0000167602
0
ARC
8
drawinglayer
10
-0.302519943581
20
-0.477217235942
30
0
40
1.36173731099
50
30.0113188498
51
89.0000167602
0
ARC
8
drawinglayer
10
-0.274522506369
20
0.0289984770573
30
0
40
0.738216200848
50
30.0113188498
51
150.000025715
0
ARC
8
drawinglayer
10
-0.274522506369
20
-0.0620644704507
30
0
40
0.742429438174
50
30.0113188498
51
150.000025715
0
ARC
8
drawinglayer
10
-0.274522506369
20
-0.153127417959
30
0
40
0.746642675501
50
30.0113188498
51
150.000025715
0
ARC
8
drawinglayer
10
-0.274522506369
20
-0.244193533314
30
0
40
0.750859080675
50
30.0113188498
51
150.000025715
0
ARC
8
drawinglayer
10
-0.274522506369
20
-0.335256480822
30
0
40
0.755072318001
50
30.0113188498
51
150.000025715
0
ARC
8
drawinglayer
10
-0.274522506369
20
-0.426322596178
30
0
40
0.759285555328
50
30.0113188498
51
150.000025715
0
ARC
8
drawinglayer
10
-0.274522506369
20
-0.517385543686
30
0
40
0.763498792654
50
30.0113188498
51
150.000025715
0
ARC
8
drawinglayer
10
-1.11249422858
20
-1.32265557498
30
0
40
1.42684291515
50
96.0160568489
51
150.000025715
0
ARC
8
drawinglayer
10
-1.10849640489
20
-1.23732643165
30
0
40
1.33716431705
50
96.0160568489
51
150.000025715
0
ARC
8
drawinglayer
10
-1.10449541335
20
-1.15200362402
30
0
40
1.24748888679
50
96.0160568489
51
150.000025715
0
ARC
8
drawinglayer
10
-1.10049442182
20
-1.06667764854
30
0
40
1.15781345654
50
96.0160568489
51
150.000025715
0
ARC
8
drawinglayer
10
-1.09649659813
20
-0.981348505212
30
0
40
1.06813485844
50
96.0160568489
51
150.000025715
0
ARC
8
drawinglayer
10
-1.09249560659
20
-0.89602569758
30
0
40
0.978459428188
50
96.0160568489
51
150.000025715
0
ARC
8
drawinglayer
10
-1.0884977829
20
-0.810699722101
30
0
40
0.888783997935
50
96.0160568489
51
150.000025715
0
ARC
8
drawinglayer
10
-1.08049579983
20
0.088462144617
30
0
40
0.675720903122
50
30.0113188498
51
150.000025715
0
ARC
8
drawinglayer
10
-1.08049579983
20
-0.00260080289098
30
0
40
0.679934140448
50
30.0113188498
51
150.000025715
0
ARC
8
drawinglayer
10
-1.08049579983
20
-0.093663750399
30
0
40
0.684147377775
50
30.0113188498
51
150.000025715
0
ARC
8
drawinglayer
10
-1.08049579983
20
-0.184726697907
30
0
40
0.688360615101
50
30.0113188498
51
150.000025715
0
ARC
8
drawinglayer
10
-1.08049579983
20
-0.275792813263
30
0
40
0.692573852427
50
30.0113188498
51
150.000025715
0
ARC
8
drawinglayer
10
-1.08049579983
20
-0.366858928618
30
0
40
0.696790257601
50
30.0113188498
51
150.000025715
0
ARC
8
drawinglayer
10
-1.08049579983
20
-0.457921876126
30
0
40
0.701003494928
50
30.0113188498
51
150.000025715
0
ARC
8
drawinglayer
10
-1.11249422858
20
-0.503079543862
30
0
40
1.38891744352
50
96.0160568489
51
150.000025715
0
ARC
8
drawinglayer
10
-1.10849640489
20
-0.417753568382
30
0
40
1.29924201326
50
96.0160568489
51
150.000025715
0
ARC
8
drawinglayer
10
-1.10449541335
20
-0.332427592903
30
0
40
1.20956658301
50
96.0160568489
51
150.000025715
0
ARC
8
drawinglayer
10
-1.10049442182
20
-0.247101617424
30
0
40
1.11988798491
50
96.0160568489
51
150.000025715
0
ARC
8
drawinglayer
10
-1.09649659813
20
-0.161775641945
30
0
40
1.03021255466
50
96.0160568489
51
150.000025715
0
ARC
8
drawinglayer
10
-1.09249560659
20
-0.0764528343129
30
0
40
0.940537124402
50
96.0160568489
51
150.000025715
0
ARC
8
drawinglayer
10
-1.0884977829
20
0.00887630901403
30
0
40
0.850858526301
50
96.0160568489
51
150.000025715
0
ARC
8
drawinglayer
10
-1.11649522011
20
-0.679468466849
30
0
40
1.48280927894
50
96.0160568489
51
150.000025715
0
ARC
8
drawinglayer
10
-1.11649522011
20
-0.770531414357
30
0
40
1.48702251627
50
96.0160568489
51
150.000025715
0
ARC
8
drawinglayer
10
-1.11649522011
20
-0.861597529712
30
0
40
1.4912357536
50
96.0160568489
51
150.000025715
0
ARC
8
drawinglayer
10
-1.11649522011
20
-0.95266047722
30
0
40
1.49544899092
50
96.0160568489
51
150.000025715
0
ARC
8
drawinglayer
10
-1.11649522011
20
-1.04372342473
30
0
40
1.49966222825
50
96.0160568489
51
150.000025715
0
ARC
8
drawinglayer
10
-1.11649522011
20
-1.13478637224
30
0
40
1.50387546557
50
96.0160568489
51
150.000025715
0
ARC
8
drawinglayer
10
-1.11649522011
20
-1.22585248759
30
0
40
1.50809187075
50
96.0160568489
51
150.000025715
0
ARC
8
drawinglayer
10
-0.417782079011
20
0.0985327321815
30
0
40
0.724379042471
50
30.0113188498
51
150.000025715
0
ARC
8
drawinglayer
10
-0.504859874221
20
0.104953959295
30
0
40
0.717628359205
50
30.0113188498
51
150.000025715
0
ARC
8
drawinglayer
10
-0.591940837278
20
0.111381522103
30
0
40
0.710874508093
50
30.0113188498
51
150.000025715
0
ARC
8
drawinglayer
10
-0.679018632488
20
0.117802749217
30
0
40
0.704123824828
50
30.0113188498
51
150.000025715
0
ARC
8
drawinglayer
10
-0.766096427697
20
0.124230312025
30
0
40
0.697369973715
50
30.0113188498
51
150.000025715
0
ARC
8
drawinglayer
10
-0.853174222907
20
0.130654706986
30
0
40
0.69061929045
50
30.0113188498
51
150.000025715
0
ARC
8
drawinglayer
10
-0.383886109543
20
-0.558935032989
30
0
40
1.41536897109
50
87.994647717
51
140.000021429
0
ARC
8
drawinglayer
10
-0.377236797401
20
-0.477556195637
30
0
40
1.32984025336
50
87.994647717
51
144.000011684
0
ARC
8
drawinglayer
10
-0.370590653107
20
-0.396177358284
30
0
40
1.24431153564
50
87.994647717
51
148.000001939
0
ARC
8
drawinglayer
10
-0.363941340966
20
-0.314792185237
30
0
40
1.15877965006
50
87.994647717
51
150.000025715
0
ARC
8
drawinglayer
10
-0.357295196672
20
-0.233413347884
30
0
40
1.07325093234
50
87.994647717
51
150.000025715
0
ARC
8
drawinglayer
10
-0.350649052378
20
-0.152034510532
30
0
40
0.987722214611
50
87.994647717
51
150.000025715
0
ARC
8
drawinglayer
10
-0.343999740236
20
-0.0706525053319
30
0
40
0.902190329036
50
87.994647717
51
150.000025715
0
ARC
8
drawinglayer
10
-1.02732981333
20
0.0520318970576
30
0
40
0.681347000484
50
30.0113188498
51
150.000025715
0
ARC
8
drawinglayer
10
-1.02732981333
20
-0.0394365349449
30
0
40
0.685579244896
50
30.0113188498
51
150.000025715
0
ARC
8
drawinglayer
10
-1.02732981333
20
-0.130908134795
30
0
40
0.689811489308
50
30.0113188498
51
150.000025715
0
ARC
8
drawinglayer
10
-1.02732981333
20
-0.222376566798
30
0
40
0.69404373372
50
30.0113188498
51
150.000025715
0
ARC
8
drawinglayer
10
-1.02732981333
20
-0.313848166648
30
0
40
0.698275978132
50
30.0113188498
51
150.000025715
0
ARC
8
drawinglayer
10
-1.02732981333
20
-0.40531659865
30
0
40
0.702508222544
50
30.0113188498
51
150.000025715
0
ARC
8
drawinglayer
10
-0.990943915634
20
-0.646655901265
30
0
40
0.71637389155
50
30.0113188498
51
150.000025715
0
ARC
8
drawinglayer
10
-0.901392031438
20
-0.653260863539
30
0
40
0.72331781352
50
30.0113188498
51
150.000025715
0
ARC
8
drawinglayer
10
-0.811840147242
20
-0.659868993662
30
0
40
0.730261735489
50
30.0113188498
51
150.000025715
0
ARC
8
drawinglayer
10
-0.722285095198
20
-0.666477123784
30
0
40
0.737205657459
50
30.0113188498
51
150.000025715
0
ARC
8
drawinglayer
10
-0.632733211002
20
-0.673082086059
30
0
40
0.744149579429
50
30.0113188498
51
150.000025715
0
ARC
8
drawinglayer
10
-0.543181326805
20
-0.679690216182
30
0
40
0.751093501398
50
30.0113188498
51
150.000025715
0
ARC
8
drawinglayer
10
-0.453629442609
20
-0.686298346304
30
0
40
0.758037423368
50
30.0113188498
51
150.000025715
0
ARC
8
drawinglayer
10
-0.330704283801
20
-0.548183358188
30
0
40
0.760758604468
50
30.0113188498
51
150.000025715
0
ARC
8
drawinglayer
10
-0.330704283801
20
-0.456714926185
30
0
40
0.756526360056
50
30.0113188498
51
150.000025715
0
ARC
8
drawinglayer
10
-0.330704283801
20
-0.365243326335
30
0
40
0.752294115644
50
30.0113188498
51
150.000025715
0
ARC
8
drawinglayer
10
-0.330704283801
20
-0.273774894332
30
0
40
0.748061871232
50
30.0113188498
51
150.000025715
0
ARC
8
drawinglayer
10
-0.330704283801
20
-0.182303294482
30
0
40
0.74382962682
50
30.0113188498
51
150.000025715
0
ARC
8
drawinglayer
10
-0.330704283801
20
-0.0908348624798
30
0
40
0.739597382408
50
30.0113188498
51
150.000025715
0
ENDSEC
0
EOF
